<svg xmlns="http://www.w3.org/2000/svg" xmlns:xlink="http://www.w3.org/1999/xlink" version="1.1" width="184.252" height="156.615" viewBox="0 0 184.252 156.615">
<path transform="matrix(1,0,0,-1,92.126,78.30801)" stroke-width=".3985" stroke-linecap="round" stroke-linejoin="round" fill="none" stroke="#000000" d="M-88.9636-13.15161C-88.9636-8.18597-85.966-2.8067-80.82076 1.46442-78.92793-5.61047-73.91006-14.61247-68.51517-20.60936-72.87785-26.28668-75.41776-32.48341-75.41776-37.44905-81.35603-30.84782-86.87782-20.9406-88.9636-13.15161Z"/>
<path transform="matrix(1,0,0,-1,92.126,78.30801)" stroke-width=".3985" stroke-linecap="round" stroke-linejoin="round" fill="none" stroke="#000000" d="M-75.41776-37.44905C-75.41776-32.48341-72.87785-26.28668-68.51517-20.60936-63.12384-26.60802-53.8521-33.49774-45.78044-37.5045-48.69432-44.25717-50.39302-51.08095-50.39302-56.04659-59.27866-51.6341-69.48302-44.05202-75.41776-37.44905Z"/>
<path transform="matrix(1,0,0,-1,92.126,78.30801)" stroke-width=".3985" stroke-linecap="round" stroke-linejoin="round" fill="none" stroke="#000000" d="M-50.39302-56.04659C-50.39302-51.08095-48.69432-44.25717-45.78044-37.5045-37.70877-41.5129-25.59695-45.24051-16.07503-46.64786-17.09848-53.98274-17.69458-61.14548-17.69458-66.11111-28.17566-64.562-41.50772-60.45872-50.39302-56.04659Z"/>
<path transform="matrix(1,0,0,-1,92.126,78.30801)" stroke-width=".3985" stroke-linecap="round" stroke-linejoin="round" fill="none" stroke="#000000" d="M-17.69458-66.11111C-17.69458-61.14548-17.09848-53.98274-16.07503-46.64786-6.5531-48.0552 6.55637-48.05537 16.07776-46.64728 17.10062-53.98183 17.69775-61.14493 17.69775-66.11057 7.21677-67.66031-7.2135-67.66025-17.69458-66.11111Z"/>
<path transform="matrix(1,0,0,-1,92.126,78.30801)" stroke-width=".3985" stroke-linecap="round" stroke-linejoin="round" fill="none" stroke="#000000" d="M17.69775-66.11057C17.69775-61.14493 17.10062-53.98183 16.07776-46.64728 25.59831-45.24069 37.71211-41.5118 45.78198-37.50275 48.69716-44.25575 50.39432-51.07872 50.39432-56.04436 41.5112-60.45723 28.17924-64.56058 17.69775-66.11057Z"/>
<path transform="matrix(1,0,0,-1,92.126,78.30801)" stroke-width=".3985" stroke-linecap="round" stroke-linejoin="round" fill="none" stroke="#000000" d="M50.39432-56.04436C50.39432-51.07872 48.69716-44.25575 45.78198-37.50275 53.85425-33.49634 63.12563-26.60632 68.51746-20.60811 72.87971-26.28445 75.42067-32.48235 75.42067-37.44798 69.48283-44.05107 59.27982-51.63414 50.39432-56.04436Z"/>
<path transform="matrix(1,0,0,-1,92.126,78.30801)" stroke-width=".3985" stroke-linecap="round" stroke-linejoin="round" fill="none" stroke="#000000" d="M75.42067-37.44798C75.42067-32.48235 72.87971-26.28445 68.51746-20.60811 73.91147-14.6099 78.92763-5.60936 80.82149 1.46655 85.96722-2.805 88.96431-8.18349 88.96431-13.14912 86.87968-20.93782 81.35797-30.84514 75.42067-37.44798Z"/>
<path transform="matrix(1,0,0,-1,92.126,78.30801)" stroke-width=".3985" stroke-linecap="round" stroke-linejoin="round" fill="none" stroke="#000000" d="M80.82149 1.46655C75.67534 5.73787 68.44162 8.85184 61.16293 9.92763 62.59619 15.28265 62.59566 22.65562 61.16168 28.0094 68.44077 29.0853 75.67508 28.11058 80.82076 25.35992 82.71559 18.2844 82.71536 8.54248 80.82149 1.46655Z"/>
<path transform="matrix(1,0,0,-1,92.126,78.30801)" stroke-width=".3985" stroke-linecap="round" stroke-linejoin="round" fill="none" stroke="#000000" d="M80.82076 25.35992C75.67508 28.11058 68.44077 29.0853 61.16168 28.0094 59.73074 33.36469 55.93279 40.17586 51.8497 44.71387 58.02246 47.77899 64.15198 48.77785 68.51517 47.4337 73.91006 41.43681 78.92793 32.43483 80.82076 25.35992Z"/>
<path transform="matrix(1,0,0,-1,92.126,78.30801)" stroke-width=".3985" stroke-linecap="round" stroke-linejoin="round" fill="none" stroke="#000000" d="M68.51517 47.4337C64.15198 48.77785 58.02246 47.77899 51.8497 44.71387 47.77016 49.25366 40.75539 54.4675 34.64491 57.49913 38.7679 62.08499 42.8665 64.59755 45.78044 64.32886 53.8521 60.32208 63.12384 53.43236 68.51517 47.4337Z"/>
<path transform="matrix(1,0,0,-1,92.126,78.30801)" stroke-width=".3985" stroke-linecap="round" stroke-linejoin="round" fill="none" stroke="#000000" d="M45.78044 64.32886C42.8665 64.59755 38.7679 62.08499 34.64491 57.49913 28.53749 60.53229 19.37114 63.35394 12.16501 64.41904 13.61272 69.82796 15.05147 73.15869 16.07503 73.4722 25.59695 72.06485 37.70877 68.33725 45.78044 64.32886Z"/>
<path transform="matrix(1,0,0,-1,92.126,78.30801)" stroke-width=".3985" stroke-linecap="round" stroke-linejoin="round" fill="none" stroke="#000000" d="M16.07503 73.4722C15.05147 73.15869 13.61272 69.82796 12.16501 64.41904 4.95888 65.48412-4.96275 65.4837-12.16724 64.41808-13.61504 69.8273-15.055 73.15848-16.07776 73.47162-6.55637 74.87973 6.5531 74.87956 16.07503 73.4722Z"/>
<path transform="matrix(1,0,0,-1,92.126,78.30801)" stroke-width=".3985" stroke-linecap="round" stroke-linejoin="round" fill="none" stroke="#000000" d="M-16.07776 73.47162C-15.055 73.15848-13.61504 69.8273-12.16724 64.41808-19.37372 63.35472-28.53938 60.53236-34.64607 57.49815-38.77074 62.08524-42.8665 64.59541-45.78198 64.32709-37.71211 68.33614-25.59831 72.06503-16.07776 73.47162Z"/>
<path transform="matrix(1,0,0,-1,92.126,78.30801)" stroke-width=".3985" stroke-linecap="round" stroke-linejoin="round" fill="none" stroke="#000000" d="M-45.78198 64.32709C-42.8665 64.59541-38.77074 62.08524-34.64607 57.49815-40.75519 54.46657-47.77135 49.25374-51.85097 44.71294-58.02205 47.7768-64.15477 48.77776-68.51746 47.43246-63.12563 53.43068-53.85425 60.32068-45.78198 64.32709Z"/>
<path transform="matrix(1,0,0,-1,92.126,78.30801)" stroke-width=".3985" stroke-linecap="round" stroke-linejoin="round" fill="none" stroke="#000000" d="M-68.51746 47.43246C-64.15477 48.77776-58.02205 47.7768-51.85097 44.71294-55.93263 40.17438-59.72968 33.3627-61.16293 28.00768-68.44162 29.08348-75.67534 28.10786-80.82149 25.35777-78.92763 32.4337-73.91147 41.43425-68.51746 47.43246Z"/>
<path transform="matrix(1,0,0,-1,92.126,78.30801)" stroke-width=".3985" stroke-linecap="round" stroke-linejoin="round" fill="none" stroke="#000000" d="M-80.82149 25.35777C-75.67534 28.10786-68.44162 29.08348-61.16293 28.00768-62.59619 22.65266-62.59566 15.27968-61.16168 9.92592-68.44077 8.85-75.67508 5.73515-80.82076 1.46442-82.71559 8.53993-82.71536 18.28185-80.82149 25.35777Z"/>
<path transform="matrix(1,0,0,-1,92.126,78.30801)" stroke-width=".3985" stroke-linecap="round" stroke-linejoin="round" fill="none" stroke="#000000" d="M-80.82076 1.46442C-75.67508 5.73515-68.44077 8.85-61.16168 9.92592-59.73074 4.57062-55.93279-2.24054-51.8497-6.77853-58.02246-9.84367-64.15198-14.9321-68.51517-20.60936-73.91006-14.61247-78.92793-5.61047-80.82076 1.46442Z"/>
<path transform="matrix(1,0,0,-1,92.126,78.30801)" stroke-width=".3985" stroke-linecap="round" stroke-linejoin="round" fill="none" stroke="#000000" d="M-68.51517-20.60936C-64.15198-14.9321-58.02246-9.84367-51.8497-6.77853-47.77016-11.31834-40.75539-16.53218-34.64491-19.56381-38.7679-24.14967-42.8665-30.7518-45.78044-37.5045-53.8521-33.49774-63.12384-26.60802-68.51517-20.60936Z"/>
<path transform="matrix(1,0,0,-1,92.126,78.30801)" stroke-width=".3985" stroke-linecap="round" stroke-linejoin="round" fill="none" stroke="#000000" d="M-45.78044-37.5045C-42.8665-30.7518-38.7679-24.14967-34.64491-19.56381-28.53749-22.59697-19.37114-25.41862-12.16501-26.4837-13.61272-31.89264-15.05147-39.31294-16.07503-46.64786-25.59695-45.24051-37.70877-41.5129-45.78044-37.5045Z"/>
<path transform="matrix(1,0,0,-1,92.126,78.30801)" stroke-width=".3985" stroke-linecap="round" stroke-linejoin="round" fill="none" stroke="#000000" d="M-16.07503-46.64786C-15.05147-39.31294-13.61272-31.89264-12.16501-26.4837-4.95888-27.54878 4.96275-27.54839 12.16724-26.48276 13.61504-31.89198 15.055-39.31273 16.07776-46.64728 6.55637-48.05537-6.5531-48.0552-16.07503-46.64786Z"/>
<path transform="matrix(1,0,0,-1,92.126,78.30801)" stroke-width=".3985" stroke-linecap="round" stroke-linejoin="round" fill="none" stroke="#000000" d="M16.07776-46.64728C15.055-39.31273 13.61504-31.89198 12.16724-26.48276 19.37372-25.4194 28.53938-22.59705 34.64607-19.56282 38.77074-24.14992 42.8665-30.74968 45.78198-37.50275 37.71211-41.5118 25.59831-45.24069 16.07776-46.64728Z"/>
<path transform="matrix(1,0,0,-1,92.126,78.30801)" stroke-width=".3985" stroke-linecap="round" stroke-linejoin="round" fill="none" stroke="#000000" d="M45.78198-37.50275C42.8665-30.74968 38.77074-24.14992 34.64607-19.56282 40.75519-16.53125 47.77135-11.3184 51.85097-6.77762 58.02205-9.84148 64.15477-14.932 68.51746-20.60811 63.12563-26.60632 53.85425-33.49634 45.78198-37.50275Z"/>
<path transform="matrix(1,0,0,-1,92.126,78.30801)" stroke-width=".3985" stroke-linecap="round" stroke-linejoin="round" fill="none" stroke="#000000" d="M68.51746-20.60811C64.15477-14.932 58.02205-9.84148 51.85097-6.77762 55.93263-2.23906 59.72968 4.57262 61.16293 9.92763 68.44162 8.85184 75.67534 5.73787 80.82149 1.46655 78.92763-5.60936 73.91147-14.6099 68.51746-20.60811Z"/>
<path transform="matrix(1,0,0,-1,92.126,78.30801)" stroke-width=".3985" stroke-linecap="round" stroke-linejoin="round" fill="none" stroke="#000000" d="M61.16293 9.92763C53.88467 11.00339 46.65053 10.02782 41.50479 7.27766 42.47746 10.91177 42.47777 15.91362 41.50557 19.54747 46.65082 23.81827 53.88504 26.9328 61.16168 28.0094 62.59566 22.65562 62.59619 15.28265 61.16293 9.92763Z"/>
<path transform="matrix(1,0,0,-1,92.126,78.30801)" stroke-width=".3985" stroke-linecap="round" stroke-linejoin="round" fill="none" stroke="#000000" d="M61.16168 28.0094C53.88504 26.9328 46.65082 23.81827 41.50557 19.54747 40.5303 23.18143 37.95511 27.80397 35.18422 30.88307 39.5469 36.56009 45.68 41.65027 51.8497 44.71387 55.93279 40.17586 59.73074 33.36469 61.16168 28.0094Z"/>
<path transform="matrix(1,0,0,-1,92.126,78.30801)" stroke-width=".3985" stroke-linecap="round" stroke-linejoin="round" fill="none" stroke="#000000" d="M51.8497 44.71387C45.68 41.65027 39.5469 36.56009 35.18422 30.88307 32.41638 33.96368 27.65477 37.50055 23.50998 39.56067 26.42383 46.31305 30.522 52.91524 34.64491 57.49913 40.75539 54.4675 47.77016 49.25366 51.8497 44.71387Z"/>
<path transform="matrix(1,0,0,-1,92.126,78.30801)" stroke-width=".3985" stroke-linecap="round" stroke-linejoin="round" fill="none" stroke="#000000" d="M34.64491 57.49913C30.522 52.91524 26.42383 46.31305 23.50998 39.56067 19.36418 41.61865 13.14545 43.5324 8.25511 44.25519 9.27856 51.5898 10.7174 59.0104 12.16501 64.41904 19.37114 63.35394 28.53749 60.53229 34.64491 57.49913Z"/>
<path transform="matrix(1,0,0,-1,92.126,78.30801)" stroke-width=".3985" stroke-linecap="round" stroke-linejoin="round" fill="none" stroke="#000000" d="M12.16501 64.41904C10.7174 59.0104 9.27856 51.5898 8.25511 44.25519 3.36476 44.97798-3.3661 44.97823-8.25609 44.25577-9.27895 51.58998-10.71848 59.01068-12.16724 64.41808-4.96275 65.4837 4.95888 65.48412 12.16501 64.41904Z"/>
<path transform="matrix(1,0,0,-1,92.126,78.30801)" stroke-width=".3985" stroke-linecap="round" stroke-linejoin="round" fill="none" stroke="#000000" d="M-12.16724 64.41808C-10.71848 59.01068-9.27895 51.58998-8.25609 44.25577-13.14624 43.53102-19.3667 41.61734-23.51018 39.55823-26.42535 46.31093-30.52347 52.91331-34.64607 57.49815-28.53938 60.53236-19.37372 63.35472-12.16724 64.41808Z"/>
<path transform="matrix(1,0,0,-1,92.126,78.30801)" stroke-width=".3985" stroke-linecap="round" stroke-linejoin="round" fill="none" stroke="#000000" d="M-34.64607 57.49815C-30.52347 52.91331-26.42535 46.31093-23.51018 39.55823-27.6557 37.5014-32.41519 33.96295-35.18745 30.88286-39.5497 36.5589-45.68251 41.64911-51.85097 44.71294-47.77135 49.25374-40.75519 54.46657-34.64607 57.49815Z"/>
<path transform="matrix(1,0,0,-1,92.126,78.30801)" stroke-width=".3985" stroke-linecap="round" stroke-linejoin="round" fill="none" stroke="#000000" d="M-51.85097 44.71294C-45.68251 41.64911-39.5497 36.5589-35.18745 30.88286-37.95682 27.80202-40.53214 23.18077-41.50479 19.54666-46.65053 23.81792-53.88467 26.93193-61.16293 28.00768-59.72968 33.3627-55.93263 40.17438-51.85097 44.71294Z"/>
<path transform="matrix(1,0,0,-1,92.126,78.30801)" stroke-width=".3985" stroke-linecap="round" stroke-linejoin="round" fill="none" stroke="#000000" d="M-61.16293 28.00768C-53.88467 26.93193-46.65053 23.81792-41.50479 19.54666-42.47746 15.91255-42.47777 10.9107-41.50557 7.27686-46.65082 10.02747-53.88504 11.0025-61.16168 9.92592-62.59566 15.27968-62.59619 22.65266-61.16293 28.00768Z"/>
<path transform="matrix(1,0,0,-1,92.126,78.30801)" stroke-width=".3985" stroke-linecap="round" stroke-linejoin="round" fill="none" stroke="#000000" d="M-61.16168 9.92592C-53.88504 11.0025-46.65082 10.02747-41.50557 7.27686-40.5303 3.6429-37.95511-.97963-35.18422-4.05872-39.5469-2.71434-45.68-3.71495-51.8497-6.77853-55.93279-2.24054-59.73074 4.57062-61.16168 9.92592Z"/>
<path transform="matrix(1,0,0,-1,92.126,78.30801)" stroke-width=".3985" stroke-linecap="round" stroke-linejoin="round" fill="none" stroke="#000000" d="M-51.8497-6.77853C-45.68-3.71495-39.5469-2.71434-35.18422-4.05872-32.41638-7.13934-27.65477-10.67621-23.50998-12.73631-26.42383-12.4673-30.522-14.97992-34.64491-19.56381-40.75539-16.53218-47.77016-11.31834-51.8497-6.77853Z"/>
<path transform="matrix(1,0,0,-1,92.126,78.30801)" stroke-width=".3985" stroke-linecap="round" stroke-linejoin="round" fill="none" stroke="#000000" d="M-34.64491-19.56381C-30.522-14.97992-26.42383-12.4673-23.50998-12.73631-19.36418-14.7943-13.14545-16.70804-8.25511-17.43083-9.27856-17.74405-10.7174-21.07509-12.16501-26.4837-19.37114-25.41862-28.53749-22.59697-34.64491-19.56381Z"/>
<path transform="matrix(1,0,0,-1,92.126,78.30801)" stroke-width=".3985" stroke-linecap="round" stroke-linejoin="round" fill="none" stroke="#000000" d="M-12.16501-26.4837C-10.7174-21.07509-9.27856-17.74405-8.25511-17.43083-3.36476-18.15363 3.3661-18.15387 8.25609-17.43141 9.27895-17.74425 10.71848-21.07536 12.16724-26.48276 4.96275-27.54839-4.95888-27.54878-12.16501-26.4837Z"/>
<path transform="matrix(1,0,0,-1,92.126,78.30801)" stroke-width=".3985" stroke-linecap="round" stroke-linejoin="round" fill="none" stroke="#000000" d="M12.16724-26.48276C10.71848-21.07536 9.27895-17.74425 8.25609-17.43141 13.14624-16.70668 19.3667-14.793 23.51018-12.73389 26.42535-12.4652 30.52347-14.978 34.64607-19.56282 28.53938-22.59705 19.37372-25.4194 12.16724-26.48276Z"/>
<path transform="matrix(1,0,0,-1,92.126,78.30801)" stroke-width=".3985" stroke-linecap="round" stroke-linejoin="round" fill="none" stroke="#000000" d="M34.64607-19.56282C30.52347-14.978 26.42535-12.4652 23.51018-12.73389 27.6557-10.67706 32.41519-7.1386 35.18745-4.05852 39.5497-2.71315 45.68251-3.71379 51.85097-6.77762 47.77135-11.3184 40.75519-16.53125 34.64607-19.56282Z"/>
<path transform="matrix(1,0,0,-1,92.126,78.30801)" stroke-width=".3985" stroke-linecap="round" stroke-linejoin="round" fill="none" stroke="#000000" d="M51.85097-6.77762C45.68251-3.71379 39.5497-2.71315 35.18745-4.05852 37.95682-.97768 40.53214 3.64355 41.50479 7.27766 46.65053 10.02782 53.88467 11.00339 61.16293 9.92763 59.72968 4.57262 55.93263-2.23906 51.85097-6.77762Z"/>
<path transform="matrix(1,0,0,-1,92.126,78.30801)" stroke-width=".3985" stroke-linecap="round" stroke-linejoin="round" fill="none" stroke="#000000" d="M41.50557 19.54747C36.35735 15.27678 33.36264 9.89676 33.36264 4.93112 32.58054 7.85162 30.50903 11.5683 28.28113 14.04312 28.28113 19.00876 30.82103 25.2055 35.18422 30.88307 37.95511 27.80397 40.5303 23.18143 41.50557 19.54747Z"/>
<path transform="matrix(1,0,0,-1,92.126,78.30801)" stroke-width=".3985" stroke-linecap="round" stroke-linejoin="round" fill="none" stroke="#000000" d="M35.18422 30.88307C30.82103 25.2055 28.28113 19.00876 28.28113 14.04312 26.05678 16.51973 22.22862 19.36414 18.89696 21.01865 18.89696 25.98428 20.5955 32.80577 23.50998 39.56067 27.65477 37.50055 32.41638 33.96368 35.18422 30.88307Z"/>
<path transform="matrix(1,0,0,-1,92.126,78.30801)" stroke-width=".3985" stroke-linecap="round" stroke-linejoin="round" fill="none" stroke="#000000" d="M23.50998 39.56067C20.5955 32.80577 18.89696 25.98428 18.89696 21.01865 15.56522 22.67282 10.56665 24.21059 6.63544 24.79163 6.63544 29.75726 7.23155 36.91997 8.25511 44.25519 13.14545 43.5324 19.36418 41.61865 23.50998 39.56067Z"/>
<path transform="matrix(1,0,0,-1,92.126,78.30801)" stroke-width=".3985" stroke-linecap="round" stroke-linejoin="round" fill="none" stroke="#000000" d="M8.25511 44.25519C7.23155 36.91997 6.63544 29.75726 6.63544 24.79163 2.70424 25.37265-2.70572 25.37329-6.63568 24.79242-6.63568 29.75804-7.23383 36.919-8.25609 44.25577-3.3661 44.97823 3.36476 44.97798 8.25511 44.25519Z"/>
<path transform="matrix(1,0,0,-1,92.126,78.30801)" stroke-width=".3985" stroke-linecap="round" stroke-linejoin="round" fill="none" stroke="#000000" d="M-8.25609 44.25577C-7.23383 36.919-6.63568 29.75804-6.63568 24.79242-10.56573 24.2112-15.5672 22.67184-18.89752 21.01624-18.89752 25.98187-20.5947 32.80486-23.51018 39.55823-19.3667 41.61734-13.14624 43.53102-8.25609 44.25577Z"/>
<path transform="matrix(1,0,0,-1,92.126,78.30801)" stroke-width=".3985" stroke-linecap="round" stroke-linejoin="round" fill="none" stroke="#000000" d="M-23.51018 39.55823C-20.5947 32.80486-18.89752 25.98187-18.89752 21.01624-22.23022 19.36327-26.05789 16.51851-28.28432 14.04266-28.28432 19.0083-30.82222 25.20607-35.18745 30.88286-32.41519 33.96295-27.6557 37.5014-23.51018 39.55823Z"/>
<path transform="matrix(1,0,0,-1,92.126,78.30801)" stroke-width=".3985" stroke-linecap="round" stroke-linejoin="round" fill="none" stroke="#000000" d="M-35.18745 30.88286C-30.82222 25.20607-28.28432 19.0083-28.28432 14.04266-30.51031 11.56679-32.57967 7.85225-33.36156 4.93091-33.36156 9.89655-36.35864 15.27504-41.50479 19.54666-40.53214 23.18077-37.95682 27.80202-35.18745 30.88286Z"/>
<path transform="matrix(1,0,0,-1,92.126,78.30801)" stroke-width=".3985" stroke-linecap="round" stroke-linejoin="round" fill="none" stroke="#000000" d="M-41.50557 7.27686C-37.4283 5.09845-34.702 1.82675-33.74231-1.90637-33.46484-3.0038-31.85222-5.65785-30.87088-6.7254-31.98773-5.5084-33.44077-4.59673-35.18422-4.05872-37.95511-.97963-40.5303 3.6429-41.50557 7.27686Z"/>
<path transform="matrix(1,0,0,-1,92.126,78.30801)" stroke-width=".3985" stroke-linecap="round" stroke-linejoin="round" fill="none" stroke="#000000" d="M-35.18422-4.05872C-33.36093-4.62161-31.85753-5.59166-30.72134-6.89021-29.04344-8.7969-24.6729-11.86224-22.08556-13.12982-22.52199-12.91713-22.99606-12.7842-23.50998-12.73631-27.65477-10.67621-32.41638-7.13934-35.18422-4.05872Z"/>
<path transform="matrix(1,0,0,-1,92.126,78.30801)" stroke-width=".3985" stroke-linecap="round" stroke-linejoin="round" fill="none" stroke="#000000" d="M-23.50998-12.73631C-22.97855-12.78404-22.48895-12.92648-22.04068-13.1528-18.56247-14.90326-12.05238-16.8267-8.0234-17.41118-8.09799-17.39984-8.17545-17.40648-8.25511-17.43083-13.14545-16.70804-19.36418-14.7943-23.50998-12.73631Z"/>
<path transform="matrix(1,0,0,-1,92.126,78.30801)" stroke-width=".3985" stroke-linecap="round" stroke-linejoin="round" fill="none" stroke="#000000" d="M-8.25511-17.43083C-8.17545-17.40648-8.09799-17.39984-8.0234-17.41118-3.23354-18.13017 3.23444-18.13055 8.02505-17.41217 8.09824-17.39908 8.17703-17.40523 8.25609-17.43141 3.3661-18.15387-3.36476-18.15363-8.25511-17.43083Z"/>
<path transform="matrix(1,0,0,-1,92.126,78.30801)" stroke-width=".3985" stroke-linecap="round" stroke-linejoin="round" fill="none" stroke="#000000" d="M8.25609-17.43141C8.17703-17.40523 8.09824-17.39908 8.02505-17.41217 12.05379-16.82675 18.56427-14.90114 22.0424-13.1521 22.48997-12.92516 22.98003-12.78363 23.51018-12.73389 19.3667-14.793 13.14624-16.70668 8.25609-17.43141Z"/>
<path transform="matrix(1,0,0,-1,92.126,78.30801)" stroke-width=".3985" stroke-linecap="round" stroke-linejoin="round" fill="none" stroke="#000000" d="M23.51018-12.73389C22.9977-12.78246 22.52362-12.91714 22.08693-13.12958 24.67336-11.86212 29.04529-8.79613 30.72307-6.88893 31.85774-5.59142 33.36327-4.62138 35.18745-4.05852 32.41519-7.1386 27.6557-10.67706 23.51018-12.73389Z"/>
<path transform="matrix(1,0,0,-1,92.126,78.30801)" stroke-width=".3985" stroke-linecap="round" stroke-linejoin="round" fill="none" stroke="#000000" d="M35.18745-4.05852C33.43967-4.596 31.98828-5.50774 30.87094-6.7235 31.85196-5.65793 33.4649-3.00183 33.74251-1.90486 34.70166 1.82846 37.42894 5.0993 41.50479 7.27766 40.53214 3.64355 37.95682-.97768 35.18745-4.05852Z"/>
<path transform="matrix(1,0,0,-1,92.126,78.30801)" stroke-width=".3985" stroke-linecap="round" stroke-linejoin="round" fill="none" stroke="#000000" d="M33.94795 .22908C33.94345 .45276 33.88362 1.38858 33.81999 1.6245 33.51646 2.69287 33.36264 3.7989 33.36264 4.93112 33.73495 3.53606 33.92929 1.88779 33.94795 .22908Z"/>
<path transform="matrix(1,0,0,-1,92.126,78.30801)" stroke-width=".3985" stroke-linecap="round" stroke-linejoin="round" fill="none" stroke="#000000" d="M33.36264 4.93112C33.36264 3.88805 33.49222 2.86623 33.75096 1.87901 33.4739 2.97612 31.86858 5.63991 30.88766 6.70709 29.20119 8.53265 28.28113 11.05396 28.28113 14.04312 30.50903 11.5683 32.58054 7.85162 33.36264 4.93112Z"/>
<path transform="matrix(1,0,0,-1,92.126,78.30801)" stroke-width=".3985" stroke-linecap="round" stroke-linejoin="round" fill="none" stroke="#000000" d="M28.28113 14.04312C28.28113 11.1431 29.14778 8.68443 30.73763 6.87167 29.06021 8.77863 24.68593 11.85506 22.10158 13.1239 20.05638 14.12303 18.89696 16.9178 18.89696 21.01865 22.22862 19.36414 26.05678 16.51973 28.28113 14.04312Z"/>
<path transform="matrix(1,0,0,-1,92.126,78.30801)" stroke-width=".3985" stroke-linecap="round" stroke-linejoin="round" fill="none" stroke="#000000" d="M18.89696 21.01865C18.89696 16.94617 20.0398 14.1626 22.05669 13.14516 18.57799 14.89343 12.05795 16.82666 8.02888 17.41083 7.14423 17.54242 6.63544 20.20338 6.63544 24.79163 10.56665 24.21059 15.56522 22.67282 18.89696 21.01865Z"/>
<path transform="matrix(1,0,0,-1,92.126,78.30801)" stroke-width=".3985" stroke-linecap="round" stroke-linejoin="round" fill="none" stroke="#000000" d="M6.63544 24.79163C6.63544 20.20338 7.14423 17.54242 8.02888 17.41083 3.2391 18.12811-3.24051 18.12791-8.03113 17.41154-7.14438 17.54283-6.63568 20.20418-6.63568 24.79242-2.70572 25.37329 2.70424 25.37265 6.63544 24.79163Z"/>
<path transform="matrix(1,0,0,-1,92.126,78.30801)" stroke-width=".3985" stroke-linecap="round" stroke-linejoin="round" fill="none" stroke="#000000" d="M-6.63568 24.79242C-6.63568 20.20418-7.14438 17.54283-8.03113 17.41154-12.05984 16.82614-18.5799 14.89362-22.05804 13.1449-20.04007 14.16307-18.89752 16.94377-18.89752 21.01624-15.5672 22.67184-10.56573 24.2112-6.63568 24.79242Z"/>
<path transform="matrix(1,0,0,-1,92.126,78.30801)" stroke-width=".3985" stroke-linecap="round" stroke-linejoin="round" fill="none" stroke="#000000" d="M-18.89752 21.01624C-18.89752 16.9154-20.05571 14.1217-22.10257 13.12408-24.68602 11.85448-29.06023 8.77795-30.73793 6.87106-29.14853 8.68419-28.28432 11.14265-28.28432 14.04266-26.05789 16.51851-22.23022 19.36327-18.89752 21.01624Z"/>
<path transform="matrix(1,0,0,-1,92.126,78.30801)" stroke-width=".3985" stroke-linecap="round" stroke-linejoin="round" fill="none" stroke="#000000" d="M-28.28432 14.04266C-28.28432 11.0535-29.2021 8.53316-30.88885 6.70573-31.86978 5.64078-33.47337 2.97446-33.75098 1.87775-33.49518 2.86624-33.36156 3.88783-33.36156 4.93091-32.57967 7.85225-30.51031 11.56679-28.28432 14.04266Z"/>
<path transform="matrix(1,0,0,-1,92.126,78.30801)" stroke-width=".3985" stroke-linecap="round" stroke-linejoin="round" fill="none" stroke="#000000" d="M-33.36156 4.93091C-33.36156 3.79869-33.51724 2.69121-33.81758 1.62393-33.88516 1.38008-33.94426 .43918-33.94638 .20847-33.93169 1.87308-33.73701 3.52808-33.36156 4.93091Z"/>
<path transform="matrix(1,0,0,-1,92.126,78.30801)" stroke-width=".3985" stroke-linecap="round" stroke-linejoin="round" fill="none" stroke="#000000" d="M88.5698-16.23192C88.83112-15.23297 88.96431-14.20175 88.96431-13.14912 89.96515-9.40973 90.48468-4.99553 90.52641-.55397 90.46046-7.2563 90.26839-9.76366 88.5698-16.23192Z"/>
<path transform="matrix(1,0,0,-1,92.126,78.30801)" stroke-width=".3985" stroke-linecap="round" stroke-linejoin="round" fill="none" stroke="#000000" d="M-90.52339-.6128C-90.48178-5.03455-89.9613-9.42845-88.9636-13.15161-88.9636-14.20424-88.82799-15.23453-88.56883-16.23308-90.26381-9.78793-90.46138-7.29207-90.52339-.6128Z"/>
<path transform="matrix(1,0,0,-1,92.126,78.30801)" stroke-width=".3985" stroke-linecap="round" stroke-linejoin="round" fill="none" stroke="#000000" d="M88.52998 16.37387C87.52808 20.02496 84.82544 23.21982 80.82076 25.35992 78.92793 32.43483 73.91006 41.43681 68.51517 47.4337 70.3049 46.8825 71.78795 45.94026 72.915 44.67712 81.61185 34.90709 85.01372 29.28374 88.52998 16.37387Z"/>
<path transform="matrix(1,0,0,-1,92.126,78.30801)" stroke-width=".3985" stroke-linecap="round" stroke-linejoin="round" fill="none" stroke="#000000" d="M72.84784 44.75002C71.72792 45.97502 70.27184 46.89474 68.51517 47.4337 63.12384 53.43236 53.8521 60.32208 45.78044 64.32886 46.29942 64.28262 46.7798 64.14381 47.22028 63.9255 57.67317 58.70137 64.7771 53.6361 72.84784 44.75002Z"/>
<path transform="matrix(1,0,0,-1,92.126,78.30801)" stroke-width=".3985" stroke-linecap="round" stroke-linejoin="round" fill="none" stroke="#000000" d="M47.20384 63.9332C46.76843 64.14804 46.29427 64.28064 45.78044 64.32886 37.70877 68.33725 25.59695 72.06485 16.07503 73.4722 16.15297 73.49577 16.22815 73.50168 16.30113 73.4919 26.77843 71.93245 37.553 68.69821 47.20384 63.9332Z"/>
<path transform="matrix(1,0,0,-1,92.126,78.30801)" stroke-width=".3985" stroke-linecap="round" stroke-linejoin="round" fill="none" stroke="#000000" d="M16.30113 73.4919C16.22815 73.50168 16.15297 73.49577 16.07503 73.4722 6.5531 74.87956-6.55637 74.87973-16.07776 73.47162-16.15607 73.49469-16.23067 73.50113-16.3023 73.49141-6.55942 74.92155 6.55608 74.92247 16.30113 73.4919Z"/>
<path transform="matrix(1,0,0,-1,92.126,78.30801)" stroke-width=".3985" stroke-linecap="round" stroke-linejoin="round" fill="none" stroke="#000000" d="M-16.3023 73.49141C-16.23067 73.50113-16.15607 73.49469-16.07776 73.47162-25.59831 72.06503-37.71211 68.33614-45.78198 64.32709-46.29651 64.28078-46.77094 64.14647-47.20729 63.93367-37.5554 68.69812-26.78105 71.93242-16.3023 73.49141Z"/>
<path transform="matrix(1,0,0,-1,92.126,78.30801)" stroke-width=".3985" stroke-linecap="round" stroke-linejoin="round" fill="none" stroke="#000000" d="M-47.22054 63.92381C-46.78181 64.14323-46.30093 64.27992-45.78198 64.32709-53.85425 60.32068-63.12563 53.43068-68.51746 47.43246-70.2722 46.89276-71.73155 45.97461-72.84941 44.74739-64.77876 53.6335-57.67435 58.70169-47.22054 63.92381Z"/>
<path transform="matrix(1,0,0,-1,92.126,78.30801)" stroke-width=".3985" stroke-linecap="round" stroke-linejoin="round" fill="none" stroke="#000000" d="M-72.91545 44.67453C-71.78766 45.9377-70.30598 46.87956-68.51746 47.43246-73.91147 41.43425-78.92763 32.4337-80.82149 25.35777-84.82481 23.21788-87.52707 20.02293-88.53076 16.37202-85.01588 29.27986-81.61401 34.905-72.91545 44.67453Z"/>
<path transform="matrix(1,0,0,-1,92.126,78.30801)" stroke-width=".3985" stroke-linecap="round" stroke-linejoin="round" fill="none" stroke="#000000" d="M-88.53906-16.34645C-88.81892-15.31316-88.9636-14.24417-88.9636-13.15161-86.87782-20.9406-81.35603-30.84782-75.41776-37.44905-75.41776-40.36816-74.54144-42.8426-72.93126-44.65886-81.62863-34.88676-85.02237-29.25636-88.53906-16.34645Z"/>
<path transform="matrix(1,0,0,-1,92.126,78.30801)" stroke-width=".3985" stroke-linecap="round" stroke-linejoin="round" fill="none" stroke="#000000" d="M-72.86462-44.732C-74.51805-42.91057-75.41776-40.40811-75.41776-37.44905-69.48302-44.05202-59.27866-51.6341-50.39302-56.04659-50.39302-60.11906-49.2531-62.90186-47.2333-63.92006-57.68916-58.69576-64.79381-53.6175-72.86462-44.732Z"/>
<path transform="matrix(1,0,0,-1,92.126,78.30801)" stroke-width=".3985" stroke-linecap="round" stroke-linejoin="round" fill="none" stroke="#000000" d="M-47.22028-63.9255C-49.24538-62.91359-50.39302-60.12831-50.39302-56.04659-41.50772-60.45872-28.17566-64.562-17.69458-66.11111-17.69458-70.68979-17.18808-73.34973-16.30672-73.49187-26.784-71.9304-37.56604-68.69102-47.22028-63.9255Z"/>
<path transform="matrix(1,0,0,-1,92.126,78.30801)" stroke-width=".3985" stroke-linecap="round" stroke-linejoin="round" fill="none" stroke="#000000" d="M-16.30672-73.49187C-17.18808-73.34973-17.69458-70.68979-17.69458-66.11111-7.2135-67.66025 7.21677-67.66031 17.69775-66.11057 17.69775-70.68924 17.18991-73.34935 16.30836-73.49081 6.56232-74.92078-6.56163-74.92043-16.30672-73.49187Z"/>
<path transform="matrix(1,0,0,-1,92.126,78.30801)" stroke-width=".3985" stroke-linecap="round" stroke-linejoin="round" fill="none" stroke="#000000" d="M16.30836-73.49081C17.18991-73.34935 17.69775-70.68924 17.69775-66.11057 28.17924-64.56058 41.5112-60.45723 50.39432-56.04436 50.39432-60.12608 49.24734-62.91173 47.22054-63.92381 37.56863-68.68826 26.78711-71.9298 16.30836-73.49081Z"/>
<path transform="matrix(1,0,0,-1,92.126,78.30801)" stroke-width=".3985" stroke-linecap="round" stroke-linejoin="round" fill="none" stroke="#000000" d="M47.23618-63.91833C49.25415-62.90018 50.39432-60.11682 50.39432-56.04436 59.27982-51.63414 69.48283-44.05107 75.42067-37.44798 75.42067-40.40704 74.51775-42.90721 72.86682-44.73018 64.79407-53.61568 57.69055-58.69429 47.23618-63.91833Z"/>
<path transform="matrix(1,0,0,-1,92.126,78.30801)" stroke-width=".3985" stroke-linecap="round" stroke-linejoin="round" fill="none" stroke="#000000" d="M72.93326-44.65738C74.54312-42.8399 75.42067-40.3671 75.42067-37.44798 81.35797-30.84514 86.87968-20.93782 88.96431-13.14912 88.96431-14.2417 88.81966-15.31085 88.53882-16.34483 85.02141-29.2523 81.62897-34.88478 72.93326-44.65738Z"/>
<path transform="matrix(1,0,0,-1,92.126,78.30801)" stroke-width=".3985" stroke-linecap="round" stroke-linejoin="round" fill="none" stroke="#000000" d="M-88.56131 16.25903C-87.58263 19.95734-84.8664 23.19568-80.82149 25.35777-82.71536 18.28185-82.71559 8.53993-80.82076 1.46442-85.966-2.8067-88.9636-8.18597-88.9636-13.15161-90.04727-9.10213-90.56831-4.25722-90.52641 .55397-90.46082 7.2724-90.26515 9.7792-88.56131 16.25903Z"/>
<path transform="matrix(1,0,0,-1,92.126,78.30801)" stroke-width=".3985" stroke-linecap="round" stroke-linejoin="round" fill="none" stroke="#000000" d="M41.50479 7.27766C37.52055 5.14828 34.8268 1.97665 33.81207-1.65147 33.88182-1.39568 33.94502-.4536 33.94638-.20847 33.9644 1.59715 33.76814 3.41287 33.36264 4.93112 33.36264 9.89676 36.35735 15.27678 41.50557 19.54747 42.47777 15.91362 42.47746 10.91177 41.50479 7.27766Z"/>
<path transform="matrix(1,0,0,-1,92.126,78.30801)" stroke-width=".3985" stroke-linecap="round" stroke-linejoin="round" fill="none" stroke="#000000" d="M-41.50479 19.54666C-36.35864 15.27504-33.36156 9.89655-33.36156 4.93091-33.76967 3.40608-33.96599 1.58186-33.94795-.22908-33.94565-.46674-33.88144-1.40326-33.81093-1.6519-34.82547 1.97534-37.52158 5.1469-41.50557 7.27686-42.47777 10.9107-42.47746 15.91255-41.50479 19.54666Z"/>
<path transform="matrix(1,0,0,-1,92.126,78.30801)" stroke-width=".3985" stroke-linecap="round" stroke-linejoin="round" fill="none" stroke="#000000" d="M88.96431-13.14912C88.96431-8.18349 85.96722-2.805 80.82149 1.46655 82.71536 8.54248 82.71559 18.2844 80.82076 25.35992 84.86522 23.19835 87.58252 19.96014 88.55974 16.2605 90.25854 9.8011 90.46103 7.30817 90.52339 .6128 90.57143-4.21823 90.05249-9.08345 88.96431-13.14912Z"/>
</svg>
