<?xml version="1.0" encoding="UTF-8" standalone="no"?>
<!DOCTYPE svg PUBLIC "-//W3C//DTD SVG 1.1//EN" "http://www.w3.org/Graphics/SVG/1.1/DTD/svg11.dtd">
<svg xmlns="http://www.w3.org/2000/svg" xmlns:xlink="http://www.w3.org/1999/xlink" version="1.1" width="227.906pt" height="227.906pt" viewBox="0 0 227.906 227.906">
<g enable-background="new">
<path transform="matrix(1,0,0,-1,113.953,113.953)" stroke-width=".59776" stroke-linecap="round" stroke-linejoin="round" fill="none" stroke="#000000" d="M 67.79024 90.8812 C 23.69212 123.78018 -42.40869 109.7603 -79.84814 59.56879 C -117.28758 9.37729 -111.88841 -57.98232 -67.7903 -90.88132 "/>
<path transform="matrix(1,0,0,-1,113.953,113.953)" stroke-width=".59776" stroke-linecap="round" stroke-linejoin="round" fill="none" stroke="#000000" d="M 14.39444 112.46599 C -8.21025 115.35953 -32.98055 67.35347 -40.92989 5.24115 C -48.87923 -56.87115 -36.99924 -109.57256 -14.39453 -112.46608 "/>
<path transform="matrix(1,0,0,-1,113.953,113.953)" stroke-width=".59776" stroke-linecap="round" stroke-linejoin="round" fill="none" stroke="#000000" d="M -14.39572 112.4643 C 8.20985 115.36035 32.98048 67.3574 40.9308 5.2449 C 48.88112 -56.86758 37.0013 -109.56828 14.39572 -112.46436 "/>
<path transform="matrix(1,0,0,-1,113.953,113.953)" stroke-width=".59776" stroke-linecap="round" stroke-linejoin="round" fill="none" stroke="#000000" d="M -67.79729 90.87578 C -23.69931 123.77898 42.40211 109.76534 79.84598 59.57567 C 117.28986 9.386 111.8953 -57.97267 67.79732 -90.87587 "/>
<path transform="matrix(1,0,0,-1,113.953,113.953)" stroke-width=".59776" stroke-linecap="round" stroke-linejoin="round" fill="none" stroke="#000000" d="M 113.37762 .0006 C 113.37737 -19.34833 62.61649 -35.03426 0 -35.03448 C -62.61649 -35.03471 -113.37791 -19.34949 -113.37766 -.00053 "/>
<path transform="matrix(1,0,0,-1,113.953,113.953)" stroke-width=".59776" stroke-linecap="round" stroke-linejoin="round" fill="none" stroke="#000000" d="M 96.44281 59.61066 C 106.61424 43.15172 71.67944 27.26059 18.41531 24.11726 C -16.03586 22.08406 -51.39333 25.88622 -74.31657 34.08893 C -93.91658 41.1026 -102.0718 50.50722 -96.44702 59.60942 "/>
<path transform="matrix(1,0,0,-1,113.953,113.953)" stroke-width=".59776" stroke-linecap="round" stroke-linejoin="round" fill="none" stroke="#000000" d="M 46.86021 103.2488 C 64.4787 95.25159 57.78093 84.35522 31.90038 78.91084 C 6.0198 73.46648 -29.24255 75.53593 -46.86104 83.53313 C -59.96332 89.4805 -59.96402 97.3005 -46.86162 103.2482 "/>
<path transform="matrix(1,0,0,-1,113.953,113.953)" stroke-width=".59776" stroke-linecap="round" stroke-linejoin="round" fill="none" stroke="#000000" d="M 96.44444 -59.60956 C 86.27267 -76.06868 34.84732 -86.86455 -18.4171 -83.72168 C -57.95888 -81.38849 -88.89505 -71.82947 -96.44539 -59.6108 "/>
<path transform="matrix(1,0,0,-1,113.953,113.953)" stroke-width=".59776" stroke-linecap="round" stroke-linejoin="round" fill="none" stroke="#000000" d="M 46.8604 -103.2483 C 35.46538 -108.42096 15.99707 -111.32376 -4.19771 -110.86041 C -21.42662 -110.46507 -37.13918 -107.6616 -46.86143 -103.2489 "/>
<path transform="matrix(1,0,0,-1,113.953,113.953)" stroke-width=".59776" stroke-linecap="round" stroke-linejoin="round" fill="none" stroke="#000000" d="M 113.38724 0 C 113.38724 62.62283 62.62283 113.38724 0 113.38724 C -62.62283 113.38724 -113.38724 62.62283 -113.38724 0 C -113.38724 -62.62283 -62.62283 -113.38724 0 -113.38724 C 62.62283 -113.38724 113.38724 -62.62283 113.38724 0 Z M 0 0 "/>
</g>
</svg>
