<?xml version="1.0" encoding="UTF-8" standalone="no"?>
<!DOCTYPE svg PUBLIC "-//W3C//DTD SVG 1.1//EN" "http://www.w3.org/Graphics/SVG/1.1/DTD/svg11.dtd">
<svg xmlns="http://www.w3.org/2000/svg" xmlns:xlink="http://www.w3.org/1999/xlink" version="1.1" width="227.906pt" height="227.906pt" viewBox="0 0 227.906 227.906">
<g enable-background="new">
<path transform="matrix(1,0,0,-1,113.953,113.953)" stroke-width=".59776" stroke-linecap="round" stroke-linejoin="round" fill="none" stroke="#000000" d="M 95.2992 61.41739 C 71.29378 98.66817 9.16641 101.36957 -43.46521 67.4496 C -96.09685 33.52965 -119.30469 -24.16672 -95.29929 -61.41751 "/>
<path transform="matrix(1,0,0,-1,113.953,113.953)" stroke-width=".59776" stroke-linecap="round" stroke-linejoin="round" fill="none" stroke="#000000" d="M 29.16968 109.56114 C 11.43178 114.28477 -16.00728 69.06233 -32.11719 8.55336 C -48.22708 -51.95561 -46.9076 -104.83757 -29.1697 -109.5612 "/>
<path transform="matrix(1,0,0,-1,113.953,113.953)" stroke-width=".59776" stroke-linecap="round" stroke-linejoin="round" fill="none" stroke="#000000" d="M -29.17082 109.55876 C -11.43224 114.28381 16.0079 69.06358 32.11842 8.5559 C 48.22896 -51.95178 46.90942 -104.83383 29.17082 -109.55888 "/>
<path transform="matrix(1,0,0,-1,113.953,113.953)" stroke-width=".59776" stroke-linecap="round" stroke-linejoin="round" fill="none" stroke="#000000" d="M -95.30235 61.41428 C -71.29613 98.66586 -9.16672 101.36931 43.46664 67.4511 C 96.10002 33.53288 119.30865 -24.16273 95.30244 -61.4143 "/>
<path transform="matrix(1,0,0,-1,113.953,113.953)" stroke-width=".59776" stroke-linecap="round" stroke-linejoin="round" fill="none" stroke="#000000" d="M 113.37762 .00096 C 113.37737 -40.24727 62.61649 -72.87581 0 -72.87619 C -62.61649 -72.87657 -113.37791 -40.24922 -113.37766 -.00096 "/>
<path transform="matrix(1,0,0,-1,113.953,113.953)" stroke-width=".59776" stroke-linecap="round" stroke-linejoin="round" fill="none" stroke="#000000" d="M 85.89305 74.00371 C 112.16199 43.51208 95.00171 5.10414 47.56383 -11.78123 C .12593 -28.66664 -59.62723 -17.63698 -85.89616 12.85463 C -102.27972 31.87169 -102.28067 54.98325 -85.8984 74.00099 "/>
<path transform="matrix(1,0,0,-1,113.953,113.953)" stroke-width=".59776" stroke-linecap="round" stroke-linejoin="round" fill="none" stroke="#000000" d="M -.00029 111.65968 C 31.30794 111.65988 56.68864 95.34622 56.68852 75.22214 C 56.6884 55.09804 31.30797 38.78375 -.00026 38.78355 C -31.30852 38.78336 -56.68922 55.09702 -56.6891 75.2211 C -56.68898 95.34518 -31.30855 111.65948 -.00029 111.65968 "/>
<path transform="matrix(1,0,0,-1,113.953,113.953)" stroke-width=".59776" stroke-linecap="round" stroke-linejoin="round" fill="none" stroke="#000000" d="M 85.8967 -74 C 59.62895 -104.49286 -.1245 -115.52472 -47.5636 -98.64088 C -63.68028 -92.90536 -76.97047 -84.36142 -85.89476 -74.00272 "/>
<path transform="matrix(1,0,0,-1,113.953,113.953)" stroke-width=".59776" stroke-linecap="round" stroke-linejoin="round" fill="none" stroke="#000000" d="M 113.38724 0 C 113.38724 62.62283 62.62283 113.38724 0 113.38724 C -62.62283 113.38724 -113.38724 62.62283 -113.38724 0 C -113.38724 -62.62283 -62.62283 -113.38724 0 -113.38724 C 62.62283 -113.38724 113.38724 -62.62283 113.38724 0 Z M 0 0 "/>
</g>
</svg>
