<svg xmlns="http://www.w3.org/2000/svg" xmlns:xlink="http://www.w3.org/1999/xlink" version="1.1" width="178.582" height="2500.144" viewBox="0 0 178.582 2500.144">
<defs>
<clipPath id="clip_0">
<path transform="matrix(1,0,0,-1,0,119.05292)" d="M0 0H178.582V119.053H0Z"/>
</clipPath>
<clipPath id="clip_1">
<path transform="matrix(1,0,0,-1,0,238.10791)" d="M0 0H178.582V119.053H0Z"/>
</clipPath>
<clipPath id="clip_2">
<path transform="matrix(1,0,0,-1,0,357.16194)" d="M0 0H178.582V119.053H0Z"/>
</clipPath>
<clipPath id="clip_3">
<path transform="matrix(1,0,0,-1,0,476.21693)" d="M0 0H178.582V119.053H0Z"/>
</clipPath>
<clipPath id="clip_4">
<path transform="matrix(1,0,0,-1,0,595.27096)" d="M0 0H178.582V119.053H0Z"/>
</clipPath>
<clipPath id="clip_5">
<path transform="matrix(1,0,0,-1,0,714.3259)" d="M0 0H178.582V119.053H0Z"/>
</clipPath>
<clipPath id="clip_6">
<path transform="matrix(1,0,0,-1,0,833.37997)" d="M0 0H178.582V119.053H0Z"/>
</clipPath>
<clipPath id="clip_7">
<path transform="matrix(1,0,0,-1,0,952.43496)" d="M0 0H178.582V119.053H0Z"/>
</clipPath>
<clipPath id="clip_8">
<path transform="matrix(1,0,0,-1,0,1071.4889)" d="M0 0H178.582V119.053H0Z"/>
</clipPath>
<clipPath id="clip_9">
<path transform="matrix(1,0,0,-1,0,1190.544)" d="M0 0H178.582V119.053H0Z"/>
</clipPath>
<clipPath id="clip_10">
<path transform="matrix(1,0,0,-1,0,1309.5979)" d="M0 0H178.582V119.053H0Z"/>
</clipPath>
<clipPath id="clip_11">
<path transform="matrix(1,0,0,-1,0,1428.653)" d="M0 0H178.582V119.053H0Z"/>
</clipPath>
<clipPath id="clip_12">
<path transform="matrix(1,0,0,-1,0,1547.7079)" d="M0 0H178.582V119.053H0Z"/>
</clipPath>
<clipPath id="clip_13">
<path transform="matrix(1,0,0,-1,0,1666.762)" d="M0 0H178.582V119.053H0Z"/>
</clipPath>
<clipPath id="clip_14">
<path transform="matrix(1,0,0,-1,0,1785.8169)" d="M0 0H178.582V119.053H0Z"/>
</clipPath>
<clipPath id="clip_15">
<path transform="matrix(1,0,0,-1,0,1904.871)" d="M0 0H178.582V119.053H0Z"/>
</clipPath>
<clipPath id="clip_16">
<path transform="matrix(1,0,0,-1,0,2023.926)" d="M0 0H178.582V119.053H0Z"/>
</clipPath>
<clipPath id="clip_17">
<path transform="matrix(1,0,0,-1,0,2142.98)" d="M0 0H178.582V119.053H0Z"/>
</clipPath>
<clipPath id="clip_18">
<path transform="matrix(1,0,0,-1,0,2262.035)" d="M0 0H178.582V119.053H0Z"/>
</clipPath>
<clipPath id="clip_19">
<path transform="matrix(1,0,0,-1,0,2381.0889)" d="M0 0H178.582V119.053H0Z"/>
</clipPath>
<clipPath id="clip_20">
<path transform="matrix(1,0,0,-1,0,2500.144)" d="M0 0H178.582V119.053H0Z"/>
</clipPath>
</defs>
<path transform="matrix(1,0,0,-1,89.291,-59.528078)" stroke-width=".3985" stroke-linecap="butt" stroke-miterlimit="10" stroke-linejoin="miter" fill="none" stroke="#000000" d="M0-119.05606"/>
<g clip-path="url(#clip_0)">
<path transform="matrix(1,0,0,-1,89.291,59.526918)" d="M81.5027 7.09923C81.5027 24.17654 45.01326 34.84166 0 30.92084-45.01326 27-81.5027 9.97809-81.5027-7.09923-81.5027-24.17654-45.01326-34.84166 0-30.92084 45.01326-27 81.5027-9.97809 81.5027 7.09923ZM0 0" fill="#e6e8e9"/>
<path transform="matrix(1,0,0,-1,89.291,59.526918)" stroke-width=".3985" stroke-linecap="round" stroke-linejoin="round" fill="none" stroke="#c0c0c0" d="M-76.8065-17.02641C-67.69865-25.97737-25.92702-25.61037 16.49193-16.20708 58.9109-6.80379 85.91437 8.07544 76.80653 17.02641"/>
<path transform="matrix(1,0,0,-1,89.291,59.526918)" stroke-width=".3985" stroke-linecap="round" stroke-linejoin="round" fill="none" stroke="#c0c0c0" d="M-32.91014-31.15047C-20.14812-32.17624 4.9323-19.06068 23.10828-1.8568 41.28426 15.34709 45.67224 30.12474 32.9102 31.1505"/>
<path transform="matrix(1,0,0,-1,89.291,59.526918)" stroke-width=".3985" stroke-linecap="round" stroke-linejoin="round" fill="none" stroke="#c0c0c0" d="M17.11623-28.73701C9.76135-29.97803-3.8646-18.11755-13.31754-2.24681-22.77048 13.62392-24.47112 27.49602-17.11626 28.73701"/>
<path transform="matrix(1,0,0,-1,89.291,59.526918)" stroke-width=".3985" stroke-linecap="round" stroke-linejoin="round" fill="none" stroke="#c0c0c0" d="M65.85074-12.47769C51.36687-21.2777 10.14227-22.82504-26.22585-15.9339-62.59398-9.04276-80.33461 3.67767-65.85074 12.47769"/>
<path transform="matrix(1,0,0,-1,89.291,59.526918)" stroke-width=".3985" stroke-linecap="round" stroke-linejoin="round" fill="none" stroke="#c0c0c0" d="M.00041-28.847C22.50378-26.88687 40.7469-19.91257 40.7468-13.26962 40.74669-6.62668 22.50388-2.8303 .0005-4.79044-22.50284-6.75056-40.74596-13.72487-40.74585-20.36781-40.74574-27.01076-22.50293-30.80711 .00041-28.847"/>
<path transform="matrix(1,0,0,-1,89.291,59.526918)" stroke-width=".3985" stroke-linecap="round" stroke-linejoin="round" fill="none" stroke="#c0c0c0" d="M49.32378-20.31564C77.20328-9.8459 77.71996 3.39001 50.47945 9.24733 23.23895 15.10463-21.44582 11.365-49.32532 .89526-67.35779-5.87672-74.62325-14.15894-68.37961-20.82542-65.17479-24.24675-58.57805-27.04413-49.32468-28.90744"/>
<path transform="matrix(1,0,0,-1,89.291,59.526918)" stroke-width=".3985" stroke-linecap="round" stroke-linejoin="round" fill="none" stroke="#c0c0c0" d="M81.49268 7.0982C81.49243 20.38414 45.00673 27.97685 0 24.05658-45.00676 20.1363-81.49301 6.18771-81.49277-7.0982"/>
<path transform="matrix(1,0,0,-1,89.291,59.526918)" stroke-width=".3985" stroke-linecap="round" stroke-linejoin="round" fill="none" stroke="#c0c0c0" d="M49.32378 28.9073C21.90358 34.42859-21.90274 30.61345-49.32468 20.3155"/>
</g>
<path transform="matrix(1,0,0,-1,89.291,-59.528078)" stroke-width=".3985" stroke-linecap="butt" stroke-miterlimit="10" stroke-linejoin="miter" fill="none" stroke="#000000" d="M0-238.11215"/>
<g clip-path="url(#clip_1)">
<path transform="matrix(1,0,0,-1,89.291,178.58191)" d="M81.5027 7.09578C81.5027 24.63152 45.01326 35.66982 0 31.75087-45.01326 27.83194-81.5027 10.43996-81.5027-7.09578-81.5027-24.63152-45.01326-35.66982 0-31.75087 45.01326-27.83194 81.5027-10.43996 81.5027 7.09578ZM0 0" fill="#e6e8e9"/>
<path transform="matrix(1,0,0,-1,89.291,178.58191)" stroke-width=".3985" stroke-linecap="round" stroke-linejoin="round" fill="none" stroke="#c0c0c0" d="M-76.57274-17.53299C-66.88353-27.0515-24.74504-26.91795 17.54443-17.2349 59.83391-7.55185 86.26201 8.01453 76.5728 17.53302"/>
<path transform="matrix(1,0,0,-1,89.291,178.58191)" stroke-width=".3985" stroke-linecap="round" stroke-linejoin="round" fill="none" stroke="#c0c0c0" d="M-32.18794-31.96808C-18.8755-33.0399 6.32762-19.59569 24.10475-1.9402 41.88188 15.71527 45.5004 30.89624 32.18794 31.96805"/>
<path transform="matrix(1,0,0,-1,89.291,178.58191)" stroke-width=".3985" stroke-linecap="round" stroke-linejoin="round" fill="none" stroke="#c0c0c0" d="M16.68636-29.62091C9.0363-30.90947-4.63599-18.6923-13.85165-2.33307-23.06732 14.02614-24.33643 28.33235-16.68639 29.62091"/>
<path transform="matrix(1,0,0,-1,89.291,178.58191)" stroke-width=".3985" stroke-linecap="round" stroke-linejoin="round" fill="none" stroke="#c0c0c0" d="M65.23856-13.34695C49.9305-22.64581 8.31221-24.20802-27.71846-16.83679-63.74915-9.46556-80.54659 4.04808-65.23853 13.34695"/>
<path transform="matrix(1,0,0,-1,89.291,178.58191)" stroke-width=".3985" stroke-linecap="round" stroke-linejoin="round" fill="none" stroke="#c0c0c0" d="M.00041-29.96852C22.50378-28.00938 40.7469-21.0359 40.7468-14.39294 40.74669-7.75 22.50388-3.95285 .0005-5.912-22.50284-7.87114-40.74596-14.84462-40.74585-21.48756-40.74574-28.13051-22.50293-31.92766 .00041-29.96852"/>
<path transform="matrix(1,0,0,-1,89.291,178.58191)" stroke-width=".3985" stroke-linecap="round" stroke-linejoin="round" fill="none" stroke="#c0c0c0" d="M52.35876-19.76941C78.49414-8.95804 76.23949 4.02045 47.32309 9.21815 18.40668 14.41586-26.22354 9.86485-52.35892-.9465-76.64497-10.99268-76.64427-23.06781-52.35939-28.88556"/>
<path transform="matrix(1,0,0,-1,89.291,178.58191)" stroke-width=".3985" stroke-linecap="round" stroke-linejoin="round" fill="none" stroke="#c0c0c0" d="M81.49268 7.0946C81.49243 20.38051 45.00673 27.97481 0 24.05653-45.00676 20.13824-81.49301 6.19128-81.49277-7.0946"/>
<path transform="matrix(1,0,0,-1,89.291,178.58191)" stroke-width=".3985" stroke-linecap="round" stroke-linejoin="round" fill="none" stroke="#c0c0c0" d="M52.35855 28.88513C35.45505 32.9349 9.84682 33.14616-14.80324 29.43918-29.28503 27.2611-42.42857 23.87718-52.3596 19.76898"/>
</g>
<path transform="matrix(1,0,0,-1,89.291,-59.528078)" stroke-width=".3985" stroke-linecap="butt" stroke-miterlimit="10" stroke-linejoin="miter" fill="none" stroke="#000000" d="M0-357.16825"/>
<g clip-path="url(#clip_2)">
<path transform="matrix(1,0,0,-1,89.291,297.63594)" d="M81.5027 7.10226C81.5027 25.11244 45.01326 36.53241 0 32.6099-45.01326 28.68738-81.5027 10.9079-81.5027-7.10226-81.5027-25.11244-45.01326-36.53241 0-32.6099 45.01326-28.68738 81.5027-10.9079 81.5027 7.10226ZM0 0" fill="#e6e8e9"/>
<path transform="matrix(1,0,0,-1,89.291,297.63594)" stroke-width=".3985" stroke-linecap="round" stroke-linejoin="round" fill="none" stroke="#c0c0c0" d="M-76.32582-18.07664C-66.06482-28.15654-23.57394-28.23427 18.58008-18.25089 60.73412-8.2675 86.58682 7.99677 76.32582 18.07664"/>
<path transform="matrix(1,0,0,-1,89.291,297.63594)" stroke-width=".3985" stroke-linecap="round" stroke-linejoin="round" fill="none" stroke="#c0c0c0" d="M-31.46448-32.81772C-17.63599-33.92822 7.66226-20.13504 25.0393-2.01067 42.41635 16.1137 45.29301 31.70724 31.46451 32.81775"/>
<path transform="matrix(1,0,0,-1,89.291,297.63594)" stroke-width=".3985" stroke-linecap="round" stroke-linejoin="round" fill="none" stroke="#c0c0c0" d="M16.26408-30.53122C8.34169-31.86633-5.3627-19.27898-14.34506-2.41724-23.32742 14.44447-24.18652 29.1961-16.26411 30.53122"/>
<path transform="matrix(1,0,0,-1,89.291,297.63594)" stroke-width=".3985" stroke-linecap="round" stroke-linejoin="round" fill="none" stroke="#c0c0c0" d="M64.60472-14.24448C48.49951-24.02957 6.51778-25.58412-29.16243-17.71735-64.84267-9.85059-80.70993 4.45937-64.60472 14.24448"/>
<path transform="matrix(1,0,0,-1,89.291,297.63594)" stroke-width=".3985" stroke-linecap="round" stroke-linejoin="round" fill="none" stroke="#c0c0c0" d="M.00041-31.08858C22.50378-29.12755 40.7469-22.15279 40.7468-15.51012 40.74669-8.86745 22.50388-5.07202 .0005-7.03305-22.50284-8.99408-40.74596-15.96884-40.74585-22.61151-40.74574-29.25418-22.50293-33.04959 .00041-31.08858"/>
<path transform="matrix(1,0,0,-1,89.291,297.63594)" stroke-width=".3985" stroke-linecap="round" stroke-linejoin="round" fill="none" stroke="#c0c0c0" d="M54.74426-19.38155C79.34253-8.31305 74.77313 4.41025 44.5382 9.0366 14.30324 13.66296-30.14828 8.44055-54.74654-2.62793-75.8515-12.1242-75.85135-23.10405-54.74768-28.92264"/>
<path transform="matrix(1,0,0,-1,89.291,297.63594)" stroke-width=".3985" stroke-linecap="round" stroke-linejoin="round" fill="none" stroke="#c0c0c0" d="M81.49268 7.10141C81.49243 20.38678 45.00673 27.9776 0 24.05556-45.00676 20.13351-81.49301 6.18393-81.49277-7.10141"/>
<path transform="matrix(1,0,0,-1,89.291,297.63594)" stroke-width=".3985" stroke-linecap="round" stroke-linejoin="round" fill="none" stroke="#c0c0c0" d="M54.74583 28.92244C38.8361 33.30867 13.68997 33.94781-11.20125 30.59756-28.3087 28.29477-43.81175 24.30156-54.74612 19.38135"/>
</g>
<path transform="matrix(1,0,0,-1,89.291,-59.528078)" stroke-width=".3985" stroke-linecap="butt" stroke-miterlimit="10" stroke-linejoin="miter" fill="none" stroke="#000000" d="M0-476.22434"/>
<g clip-path="url(#clip_3)">
<path transform="matrix(1,0,0,-1,89.291,416.69093)" d="M81.5027 7.09491C81.5027 25.59552 45.01326 37.41635 0 33.49788-45.01326 29.57942-81.5027 11.40569-81.5027-7.09491-81.5027-25.59552-45.01326-37.41635 0-33.49788 45.01326-29.57942 81.5027-11.40569 81.5027 7.09491ZM0 0" fill="#e6e8e9"/>
<path transform="matrix(1,0,0,-1,89.291,416.69093)" stroke-width=".3985" stroke-linecap="round" stroke-linejoin="round" fill="none" stroke="#c0c0c0" d="M-76.06929-18.63748C-65.2413-29.27583-22.40518-29.55571 19.6062-19.26265 61.6176-8.96959 86.89731 7.99915 76.06932 18.63751"/>
<path transform="matrix(1,0,0,-1,89.291,416.69093)" stroke-width=".3985" stroke-linecap="round" stroke-linejoin="round" fill="none" stroke="#c0c0c0" d="M-30.75146-33.69405C-16.44128-34.84518 8.92691-20.69316 25.91064-2.08429 42.89436 16.52457 45.06165 32.54292 30.75146 33.69405"/>
<path transform="matrix(1,0,0,-1,89.291,416.69093)" stroke-width=".3985" stroke-linecap="round" stroke-linejoin="round" fill="none" stroke="#c0c0c0" d="M15.85072-31.47525C7.67616-32.85307-6.04774-19.87764-14.80177-2.49467-23.5558 14.88829-24.02539 30.09738-15.85081 31.47522"/>
<path transform="matrix(1,0,0,-1,89.291,416.69093)" stroke-width=".3985" stroke-linecap="round" stroke-linejoin="round" fill="none" stroke="#c0c0c0" d="M63.95032-15.19339C47.06851-25.4481 4.75041-26.95845-30.56854-18.5676-65.88751-10.17674-80.83217 4.93869-63.95035 15.19339"/>
<path transform="matrix(1,0,0,-1,89.291,416.69093)" stroke-width=".3985" stroke-linecap="round" stroke-linejoin="round" fill="none" stroke="#c0c0c0" d="M.00041-32.21132C22.50378-30.25235 40.7469-23.27908 40.7468-16.63622 40.74669-9.99335 22.50388-6.1961 .0005-8.15506-22.50284-10.11401-40.74596-17.0873-40.74585-23.73016-40.74574-30.37303-22.50293-34.17027 .00041-32.21132"/>
<path transform="matrix(1,0,0,-1,89.291,416.69093)" stroke-width=".3985" stroke-linecap="round" stroke-linejoin="round" fill="none" stroke="#c0c0c0" d="M56.6709-19.13676C79.90285-7.8751 73.36238 4.60484 42.06339 8.73822 10.76437 12.87161-33.44128 7.0928-56.67325-4.16884-75.21114-13.1552-75.20988-23.24403-56.67332-29.00307"/>
<path transform="matrix(1,0,0,-1,89.291,416.69093)" stroke-width=".3985" stroke-linecap="round" stroke-linejoin="round" fill="none" stroke="#c0c0c0" d="M81.49268 7.0939C81.49243 20.37965 45.00673 27.97415 0 24.05626-45.00676 20.13835-81.49301 6.19183-81.49277-7.0939"/>
<path transform="matrix(1,0,0,-1,89.291,416.69093)" stroke-width=".3985" stroke-linecap="round" stroke-linejoin="round" fill="none" stroke="#c0c0c0" d="M56.6713 29.00298C41.64616 33.67119 16.9499 34.67847-8.09457 31.64467-27.46025 29.29889-45.05365 24.76903-56.67293 19.13667"/>
</g>
<path transform="matrix(1,0,0,-1,89.291,-59.528078)" stroke-width=".3985" stroke-linecap="butt" stroke-miterlimit="10" stroke-linejoin="miter" fill="none" stroke="#000000" d="M0-595.2804"/>
<g clip-path="url(#clip_4)">
<path transform="matrix(1,0,0,-1,89.291,535.74496)" d="M81.5027 7.08841C81.5027 26.09355 45.01326 38.32628 0 34.4114-45.01326 30.49654-81.5027 11.9167-81.5027-7.08841-81.5027-26.09355-45.01326-38.32628 0-34.4114 45.01326-30.49654 81.5027-11.9167 81.5027 7.08841ZM0 0" fill="#e6e8e9"/>
<path transform="matrix(1,0,0,-1,89.291,535.74496)" stroke-width=".3985" stroke-linecap="round" stroke-linejoin="round" fill="none" stroke="#c0c0c0" d="M-75.80075-19.22679C-64.41176-30.41618-21.2424-30.87875 20.62154-20.26003 62.48549-9.64128 87.18983 8.03741 75.80084 19.22682"/>
<path transform="matrix(1,0,0,-1,89.291,535.74496)" stroke-width=".3985" stroke-linecap="round" stroke-linejoin="round" fill="none" stroke="#c0c0c0" d="M-30.04823-34.59459C-15.29012-35.78232 10.12718-21.2561 26.72249-2.15013 43.31778 16.95583 44.80643 33.40692 30.0483 34.59465"/>
<path transform="matrix(1,0,0,-1,89.291,535.74496)" stroke-width=".3985" stroke-linecap="round" stroke-linejoin="round" fill="none" stroke="#c0c0c0" d="M15.44537-32.43948C7.03783-33.85487-6.69302-20.47833-15.22334-2.56253-23.75366 15.35326-23.85295 31.02405-15.4454 32.43945"/>
<path transform="matrix(1,0,0,-1,89.291,535.74496)" stroke-width=".3985" stroke-linecap="round" stroke-linejoin="round" fill="none" stroke="#c0c0c0" d="M63.28621-16.17325C45.65593-26.88254 3.02959-28.32285-31.92271-19.39064-66.87503-10.45842-80.91652 5.46397-63.28624 16.17325"/>
<path transform="matrix(1,0,0,-1,89.291,535.74496)" stroke-width=".3985" stroke-linecap="round" stroke-linejoin="round" fill="none" stroke="#c0c0c0" d="M.00041-33.33105C22.50378-31.37396 40.7469-24.40178 40.7468-17.75842 40.74669-11.11507 22.50388-7.31592 .0005-9.27301-22.50284-11.23012-40.74596-18.2023-40.74585-24.84566-40.74574-31.489-22.50293-35.28816 .00041-33.33105"/>
<path transform="matrix(1,0,0,-1,89.291,535.74496)" stroke-width=".3985" stroke-linecap="round" stroke-linejoin="round" fill="none" stroke="#c0c0c0" d="M58.24411-18.99962C80.25641-7.58879 72.02245 4.6615 39.85468 8.36235 7.68689 12.06322-36.23448 5.81268-58.24678-5.59813-74.68628-14.12051-74.68887-23.46797-58.24898-29.13112"/>
<path transform="matrix(1,0,0,-1,89.291,535.74496)" stroke-width=".3985" stroke-linecap="round" stroke-linejoin="round" fill="none" stroke="#c0c0c0" d="M81.49268 7.08719C81.49243 20.37393 45.00673 27.97224 0 24.05803-45.00676 20.14383-81.49301 6.19951-81.49277-7.08722"/>
<path transform="matrix(1,0,0,-1,89.291,535.74496)" stroke-width=".3985" stroke-linecap="round" stroke-linejoin="round" fill="none" stroke="#c0c0c0" d="M58.24686 29.13066C44.00935 34.03517 19.74191 35.3594-5.39557 32.60416-26.72241 30.2666-46.1675 25.26079-58.24622 18.99916"/>
</g>
<path transform="matrix(1,0,0,-1,89.291,-59.528078)" stroke-width=".3985" stroke-linecap="butt" stroke-miterlimit="10" stroke-linejoin="miter" fill="none" stroke="#000000" d="M0-714.3365"/>
<g clip-path="url(#clip_5)">
<path transform="matrix(1,0,0,-1,89.291,654.7999)" d="M81.5027 7.08713C81.5027 26.60968 45.01326 39.26245 0 35.34828-45.01326 31.43413-81.5027 12.43542-81.5027-7.08713-81.5027-26.60968-45.01326-39.26245 0-35.34828 45.01326-31.43413 81.5027-12.43542 81.5027 7.08713ZM0 0" fill="#e6e8e9"/>
<path transform="matrix(1,0,0,-1,89.291,654.7999)" stroke-width=".3985" stroke-linecap="round" stroke-linejoin="round" fill="none" stroke="#c0c0c0" d="M-75.52145-19.85011C-63.57866-31.58536-20.08325-32.21089 21.62605-21.24829 63.33537-10.28568 87.46431 8.11487 75.52151 19.85011"/>
<path transform="matrix(1,0,0,-1,89.291,654.7999)" stroke-width=".3985" stroke-linecap="round" stroke-linejoin="round" fill="none" stroke="#c0c0c0" d="M-29.35672-35.52455C-14.17888-36.74535 11.2691-21.83005 27.48212-2.21059 43.69513 17.40886 44.53455 34.30382 29.35672 35.52461"/>
<path transform="matrix(1,0,0,-1,89.291,654.7999)" stroke-width=".3985" stroke-linecap="round" stroke-linejoin="round" fill="none" stroke="#c0c0c0" d="M15.05156-33.42816C6.42857-34.88072-7.30093-21.09183-15.61351-2.63028-23.92607 15.83124-23.67458 31.97562-15.05159 33.42819"/>
<path transform="matrix(1,0,0,-1,89.291,654.7999)" stroke-width=".3985" stroke-linecap="round" stroke-linejoin="round" fill="none" stroke="#c0c0c0" d="M62.60374-17.18448C44.24446-28.33543 1.33147-29.68118-33.24335-20.19069-67.81818-10.70018-80.96301 6.03352-62.60371 17.18448"/>
<path transform="matrix(1,0,0,-1,89.291,654.7999)" stroke-width=".3985" stroke-linecap="round" stroke-linejoin="round" fill="none" stroke="#c0c0c0" d="M.00041-34.45296C22.50378-32.49611 40.7469-25.52391 40.7468-18.88026 40.74669-12.23663 22.50388-8.43703 .0005-10.39388-22.50284-12.35072-40.74596-19.3229-40.74585-25.96655-40.74574-32.6102-22.50293-36.40979 .00041-34.45296"/>
<path transform="matrix(1,0,0,-1,89.291,654.7999)" stroke-width=".3985" stroke-linecap="round" stroke-linejoin="round" fill="none" stroke="#c0c0c0" d="M59.55829-18.94579C80.4699-7.41643 70.7564 4.61656 37.8635 7.93007 4.9706 11.24359-38.64847 4.58293-59.56009-6.94641-74.24672-15.04399-74.24895-23.76015-59.56198-29.30382"/>
<path transform="matrix(1,0,0,-1,89.291,654.7999)" stroke-width=".3985" stroke-linecap="round" stroke-linejoin="round" fill="none" stroke="#c0c0c0" d="M81.49268 7.08624C81.49243 20.37358 45.00673 27.97278 0 24.05908-45.00676 20.1454-81.49301 6.20105-81.49277-7.08627"/>
<path transform="matrix(1,0,0,-1,89.291,654.7999)" stroke-width=".3985" stroke-linecap="round" stroke-linejoin="round" fill="none" stroke="#c0c0c0" d="M59.56078 29.30382C38.64919 37.19693-4.96939 36.27197-37.86404 27.23787-46.59491 24.84023-54.0094 22.00594-59.5595 18.94579"/>
</g>
<path transform="matrix(1,0,0,-1,89.291,-59.528078)" stroke-width=".3985" stroke-linecap="butt" stroke-miterlimit="10" stroke-linejoin="miter" fill="none" stroke="#000000" d="M0-833.3926"/>
<g clip-path="url(#clip_6)">
<path transform="matrix(1,0,0,-1,89.291,773.85397)" d="M81.5027 7.09058C81.5027 27.14299 45.01326 40.22371 0 36.30765-45.01326 32.39159-81.5027 12.96182-81.5027-7.09058-81.5027-27.14299-45.01326-40.22371 0-36.30765 45.01326-32.39159 81.5027-12.96182 81.5027 7.09058ZM0 0" fill="#e6e8e9"/>
<path transform="matrix(1,0,0,-1,89.291,773.85397)" stroke-width=".3985" stroke-linecap="round" stroke-linejoin="round" fill="none" stroke="#c0c0c0" d="M-75.229-20.50288C-62.73839-32.77696-18.93011-33.54735 22.61736-22.2242 64.16486-10.90103 87.71962 8.22884 75.229 20.50291"/>
<path transform="matrix(1,0,0,-1,89.291,773.85397)" stroke-width=".3985" stroke-linecap="round" stroke-linejoin="round" fill="none" stroke="#c0c0c0" d="M-28.67621-36.47469C-13.10748-37.72624 12.35213-22.41055 28.18962-2.2661 44.0271 17.87836 44.24493 35.22318 28.67621 36.47472"/>
<path transform="matrix(1,0,0,-1,89.291,773.85397)" stroke-width=".3985" stroke-linecap="round" stroke-linejoin="round" fill="none" stroke="#c0c0c0" d="M14.6667-34.43404C5.84418-35.92134-7.87476-21.71004-15.97487-2.6929-24.07498 16.32423-23.48924 32.94676-14.6667 34.43407"/>
<path transform="matrix(1,0,0,-1,89.291,773.85397)" stroke-width=".3985" stroke-linecap="round" stroke-linejoin="round" fill="none" stroke="#c0c0c0" d="M61.91039-18.22185C42.84697-29.80176-.32559-31.03105-34.51753-20.96744-68.70947-10.90384-80.97386 6.64194-61.91045 18.22185"/>
<path transform="matrix(1,0,0,-1,89.291,773.85397)" stroke-width=".3985" stroke-linecap="round" stroke-linejoin="round" fill="none" stroke="#c0c0c0" d="M.00041-35.57387C22.50378-33.6162 40.7469-26.64362 40.7468-20.00027 40.74669-13.35693 22.50388-9.55829 .0005-11.51595-22.50284-13.47362-40.74596-20.4462-40.74585-27.08954-40.74574-33.73288-22.50293-37.53154 .00041-35.57387"/>
<path transform="matrix(1,0,0,-1,89.291,773.85397)" stroke-width=".3985" stroke-linecap="round" stroke-linejoin="round" fill="none" stroke="#c0c0c0" d="M60.66771-18.96146C80.58328-7.33739 69.56499 4.48895 36.05885 7.45357 2.55272 10.41818-40.75415 3.39801-60.66972-8.22603-73.87782-15.9352-73.87628-24.10507-60.66953-29.51633"/>
<path transform="matrix(1,0,0,-1,89.291,773.85397)" stroke-width=".3985" stroke-linecap="round" stroke-linejoin="round" fill="none" stroke="#c0c0c0" d="M81.49268 7.08928C81.49243 20.37598 45.00673 27.97333 0 24.05798-45.00676 20.14264-81.49301 6.19743-81.49277-7.08925"/>
<path transform="matrix(1,0,0,-1,89.291,773.85397)" stroke-width=".3985" stroke-linecap="round" stroke-linejoin="round" fill="none" stroke="#c0c0c0" d="M60.66827 29.51611C40.7542 37.67534-2.55182 37.16083-36.05812 28.36707-46.18378 25.70976-54.6512 22.4736-60.66896 18.96124"/>
</g>
<path transform="matrix(1,0,0,-1,89.291,-59.528078)" stroke-width=".3985" stroke-linecap="butt" stroke-miterlimit="10" stroke-linejoin="miter" fill="none" stroke="#000000" d="M0-952.44869"/>
<g clip-path="url(#clip_7)">
<path transform="matrix(1,0,0,-1,89.291,892.90896)" d="M81.5027 7.088C81.5027 27.68149 45.01326 41.202 0 37.28735-45.01326 33.37273-81.5027 13.5055-81.5027-7.088-81.5027-27.68149-45.01326-41.202 0-37.28735 45.01326-33.37273 81.5027-13.5055 81.5027 7.088ZM0 0" fill="#e6e8e9"/>
<path transform="matrix(1,0,0,-1,89.291,892.90896)" stroke-width=".3985" stroke-linecap="round" stroke-linejoin="round" fill="none" stroke="#c0c0c0" d="M-74.9257-21.17838C-61.89328-33.98578-17.78174-34.8854 23.59912-23.18918 64.97998-11.49297 87.95818 8.37102 74.92574 21.17844"/>
<path transform="matrix(1,0,0,-1,89.291,892.90896)" stroke-width=".3985" stroke-linecap="round" stroke-linejoin="round" fill="none" stroke="#c0c0c0" d="M-28.01595-37.44669C-12.08458-38.72922 13.37444-23.0032 28.84682-2.32242 44.31918 18.35835 43.94734 36.16415 28.01598 37.44669"/>
<path transform="matrix(1,0,0,-1,89.291,892.90896)" stroke-width=".3985" stroke-linecap="round" stroke-linejoin="round" fill="none" stroke="#c0c0c0" d="M14.29272-35.46216C5.28487-36.979-8.41684-22.3313-16.31046-2.74637-24.20407 16.83856-23.30064 33.94527-14.29279 35.4621"/>
<path transform="matrix(1,0,0,-1,89.291,892.90896)" stroke-width=".3985" stroke-linecap="round" stroke-linejoin="round" fill="none" stroke="#c0c0c0" d="M61.2041-19.29372C41.45927-31.28555-1.95016-32.36903-35.75163-21.71355-69.55312-11.05804-80.94899 7.30191-61.20416 19.29375"/>
<path transform="matrix(1,0,0,-1,89.291,892.90896)" stroke-width=".3985" stroke-linecap="round" stroke-linejoin="round" fill="none" stroke="#c0c0c0" d="M.00041-36.69556C22.50378-34.73862 40.7469-27.76631 40.7468-21.12267 40.74669-14.47902 22.50388-10.67953 .0005-12.63649-22.50284-14.59343-40.74596-21.56573-40.74585-28.20938-40.74574-34.85303-22.50293-38.65251 .00041-36.69556"/>
<path transform="matrix(1,0,0,-1,89.291,892.90896)" stroke-width=".3985" stroke-linecap="round" stroke-linejoin="round" fill="none" stroke="#c0c0c0" d="M61.61125-19.0454C80.6221-7.34631 68.44847 4.28865 34.4212 6.94214 .39395 9.59563-42.6018 2.26262-61.61266-9.43643-73.56087-16.78944-73.56137-24.48573-61.61395-29.76088"/>
<path transform="matrix(1,0,0,-1,89.291,892.90896)" stroke-width=".3985" stroke-linecap="round" stroke-linejoin="round" fill="none" stroke="#c0c0c0" d="M81.49268 7.08672C81.49243 20.37404 45.00673 27.97302 0 24.05908-45.00676 20.14516-81.49301 6.20059-81.49277-7.08672"/>
<path transform="matrix(1,0,0,-1,89.291,892.90896)" stroke-width=".3985" stroke-linecap="round" stroke-linejoin="round" fill="none" stroke="#c0c0c0" d="M61.613 29.7609C42.60379 38.15411-.39201 38.00903-34.42075 29.43774-45.82329 26.56555-55.24231 22.9657-61.6122 19.04541"/>
</g>
<path transform="matrix(1,0,0,-1,89.291,-59.528078)" stroke-width=".3985" stroke-linecap="butt" stroke-miterlimit="10" stroke-linejoin="miter" fill="none" stroke="#000000" d="M0-1071.5048"/>
<g clip-path="url(#clip_8)">
<path transform="matrix(1,0,0,-1,89.291,1011.9629)" d="M81.5027 7.08669C81.5027 28.23154 45.01326 42.19957 0 38.28566-45.01326 34.37173-81.5027 14.05815-81.5027-7.08669-81.5027-28.23154-45.01326-42.19957 0-38.28566 45.01326-34.37173 81.5027-14.05815 81.5027 7.08669ZM0 0" fill="#e6e8e9"/>
<path transform="matrix(1,0,0,-1,89.291,1011.9629)" stroke-width=".3985" stroke-linecap="round" stroke-linejoin="round" fill="none" stroke="#c0c0c0" d="M-74.61284-21.884C-61.03978-35.21664-16.63095-36.22737 24.5761-24.14124 65.78314-12.0551 88.18596 8.55136 74.6129 21.884"/>
<path transform="matrix(1,0,0,-1,89.291,1011.9629)" stroke-width=".3985" stroke-linecap="round" stroke-linejoin="round" fill="none" stroke="#c0c0c0" d="M-27.3698-38.43788C-11.09848-39.74837 14.34578-23.60168 29.46165-2.37299 44.57753 18.8557 43.64114 37.12743 27.36983 38.43791"/>
<path transform="matrix(1,0,0,-1,89.291,1011.9629)" stroke-width=".3985" stroke-linecap="round" stroke-linejoin="round" fill="none" stroke="#c0c0c0" d="M13.9327-36.50706C4.75409-38.05396-8.9248-22.96301-16.61952-2.80093-24.31425 17.36115-23.11133 34.96022-13.93272 36.5071"/>
<path transform="matrix(1,0,0,-1,89.291,1011.9629)" stroke-width=".3985" stroke-linecap="round" stroke-linejoin="round" fill="none" stroke="#c0c0c0" d="M60.49458-20.39049C40.0932-32.78188-3.5304-33.69804-36.94032-22.4368-70.35027-11.17555-80.89598 7.99908-60.49461 20.39049"/>
<path transform="matrix(1,0,0,-1,89.291,1011.9629)" stroke-width=".3985" stroke-linecap="round" stroke-linejoin="round" fill="none" stroke="#c0c0c0" d="M.00041-37.81717C22.50378-35.86053 40.7469-28.88838 40.7468-22.2446 40.74669-15.6008 22.50388-11.8009 .0005-13.75754-22.50284-15.71417-40.74596-22.68631-40.74585-29.33011-40.74574-35.9739-22.50293-39.77379 .00041-37.81717"/>
<path transform="matrix(1,0,0,-1,89.291,1011.9629)" stroke-width=".3985" stroke-linecap="round" stroke-linejoin="round" fill="none" stroke="#c0c0c0" d="M62.42406-19.18185C80.60828-7.42218 67.40166 4.03336 32.92557 6.4044-1.55052 8.77545-44.241 1.16458-62.42522-10.59508-73.29057-17.62115-73.28984-24.89952-62.4258-30.03654"/>
<path transform="matrix(1,0,0,-1,89.291,1011.9629)" stroke-width=".3985" stroke-linecap="round" stroke-linejoin="round" fill="none" stroke="#c0c0c0" d="M81.49268 7.08556C81.49243 20.37321 45.00673 27.97298 0 24.0597-45.00676 20.14641-81.49301 6.20212-81.49277-7.08553"/>
<path transform="matrix(1,0,0,-1,89.291,1011.9629)" stroke-width=".3985" stroke-linecap="round" stroke-linejoin="round" fill="none" stroke="#c0c0c0" d="M62.42485 30.03629C44.2416 38.63416 1.55234 38.82181-32.92448 30.4558-45.50235 27.40388-55.7906 23.47166-62.425 19.1816"/>
</g>
<path transform="matrix(1,0,0,-1,89.291,-59.528078)" stroke-width=".3985" stroke-linecap="butt" stroke-miterlimit="10" stroke-linejoin="miter" fill="none" stroke="#000000" d="M0-1190.5608"/>
<g clip-path="url(#clip_9)">
<path transform="matrix(1,0,0,-1,89.291,1131.018)" d="M81.5027 7.0897C81.5027 28.79547 45.01326 43.21684 0 39.30125-45.01326 35.38567-81.5027 14.61604-81.5027-7.0897-81.5027-28.79547-45.01326-43.21684 0-39.30125 45.01326-35.38567 81.5027-14.61604 81.5027 7.0897ZM0 0" fill="#e6e8e9"/>
<path transform="matrix(1,0,0,-1,89.291,1131.018)" stroke-width=".3985" stroke-linecap="round" stroke-linejoin="round" fill="none" stroke="#c0c0c0" d="M-74.2928-22.61554C-60.19232-36.4687-15.49939-37.57344 25.53145-25.08328 66.56229-12.59312 88.3933 8.76233 74.2928 22.61551"/>
<path transform="matrix(1,0,0,-1,89.291,1131.018)" stroke-width=".3985" stroke-linecap="round" stroke-linejoin="round" fill="none" stroke="#c0c0c0" d="M-26.739-39.4458C-10.15228-40.7823 15.26624-24.20476 30.03357-2.41986 44.8009 19.36504 43.32578 38.10931 26.73906 39.44583"/>
<path transform="matrix(1,0,0,-1,89.291,1131.018)" stroke-width=".3985" stroke-linecap="round" stroke-linejoin="round" fill="none" stroke="#c0c0c0" d="M13.58159-37.56519C4.24414-39.13893-9.40628-23.59615-16.90709-2.84967-24.4079 17.89679-22.91904 35.99142-13.58159 37.56516"/>
<path transform="matrix(1,0,0,-1,89.291,1131.018)" stroke-width=".3985" stroke-linecap="round" stroke-linejoin="round" fill="none" stroke="#c0c0c0" d="M59.77531-21.50847C38.73795-34.28647-5.07817-35.01556-38.09116-23.13667-71.10413-11.25778-80.81268 8.73048-59.77531 21.5085"/>
<path transform="matrix(1,0,0,-1,89.291,1131.018)" stroke-width=".3985" stroke-linecap="round" stroke-linejoin="round" fill="none" stroke="#c0c0c0" d="M.00041-38.93811C22.50378-36.98064 40.7469-30.00822 40.7468-23.36494 40.74669-16.72166 22.50388-12.92287 .0005-14.88034-22.50284-16.83783-40.74596-23.81023-40.74585-30.4535-40.74574-37.09679-22.50293-40.8956 .00041-38.93811"/>
<path transform="matrix(1,0,0,-1,89.291,1131.018)" stroke-width=".3985" stroke-linecap="round" stroke-linejoin="round" fill="none" stroke="#c0c0c0" d="M63.13057-19.35895C80.55565-7.55017 66.41731 3.73436 31.55083 5.84564-3.31563 7.95692-45.70642 .09573-63.13152-11.71303-73.0568-18.43918-73.05756-25.34152-63.13252-30.34135"/>
<path transform="matrix(1,0,0,-1,89.291,1131.018)" stroke-width=".3985" stroke-linecap="round" stroke-linejoin="round" fill="none" stroke="#c0c0c0" d="M81.49268 7.0886C81.49243 20.37518 45.00673 27.97276 0 24.05779-45.00676 20.14282-81.49301 6.19801-81.49277-7.08856"/>
<path transform="matrix(1,0,0,-1,89.291,1131.018)" stroke-width=".3985" stroke-linecap="round" stroke-linejoin="round" fill="none" stroke="#c0c0c0" d="M63.1321 30.34128C45.70798 39.119 3.31792 39.6058-31.54948 31.42905-45.2142 28.22472-56.30284 23.98665-63.131 19.35887"/>
</g>
<path transform="matrix(1,0,0,-1,89.291,-59.528078)" stroke-width=".3985" stroke-linecap="butt" stroke-miterlimit="10" stroke-linejoin="miter" fill="none" stroke="#000000" d="M0-1309.617"/>
<g clip-path="url(#clip_10)">
<path transform="matrix(1,0,0,-1,89.291,1250.0719)" d="M81.5027 7.09015C81.5027 29.36566 45.01326 44.24867 0 40.33286-45.01326 36.41702-81.5027 15.18533-81.5027-7.09015-81.5027-29.36566-45.01326-44.24867 0-40.33286 45.01326-36.41702 81.5027-15.18533 81.5027 7.09015ZM0 0" fill="#e6e8e9"/>
<path transform="matrix(1,0,0,-1,89.291,1250.0719)" stroke-width=".3985" stroke-linecap="round" stroke-linejoin="round" fill="none" stroke="#c0c0c0" d="M-73.95953-23.36989C-59.3376-37.73541-14.37016-38.91792 26.47606-26.01132 67.3223-13.10472 88.58153 9.0044 73.9596 23.36992"/>
<path transform="matrix(1,0,0,-1,89.291,1250.0719)" stroke-width=".3985" stroke-linecap="round" stroke-linejoin="round" fill="none" stroke="#c0c0c0" d="M-26.12476-40.47144C-9.24167-41.83017 16.14125-24.81256 30.56926-2.46088 44.99725 19.8908 43.0079 39.11266 26.12482 40.4714"/>
<path transform="matrix(1,0,0,-1,89.291,1250.0719)" stroke-width=".3985" stroke-linecap="round" stroke-linejoin="round" fill="none" stroke="#c0c0c0" d="M13.2427-38.63991C3.758-40.23784-9.86002-24.23305-17.17383-2.89291-24.48766 18.4472-22.72745 37.04195-13.24274 38.63988"/>
<path transform="matrix(1,0,0,-1,89.291,1250.0719)" stroke-width=".3985" stroke-linecap="round" stroke-linejoin="round" fill="none" stroke="#c0c0c0" d="M59.05386-22.65338C37.40321-35.80348-6.58704-36.32117-39.20198-23.81003-71.81694-11.29889-80.70456 9.50327-59.05391 22.65335"/>
<path transform="matrix(1,0,0,-1,89.291,1250.0719)" stroke-width=".3985" stroke-linecap="round" stroke-linejoin="round" fill="none" stroke="#c0c0c0" d="M.00041-40.05968C22.50378-38.10208 40.7469-31.12953 40.7468-24.4862 40.74669-17.84288 22.50388-14.04419 .0005-16.00179-22.50284-17.9594-40.74596-24.93195-40.74585-31.57527-40.74574-38.2186-22.50293-42.01729 .00041-40.05968"/>
<path transform="matrix(1,0,0,-1,89.291,1250.0719)" stroke-width=".3985" stroke-linecap="round" stroke-linejoin="round" fill="none" stroke="#c0c0c0" d="M63.74486-19.58043C80.47293-7.73195 65.49484 3.39426 30.28897 5.27007-4.91687 7.14586-47.01888-.93834-63.74695-12.78682-72.85234-19.23602-72.855-25.80563-63.7504-30.6709"/>
<path transform="matrix(1,0,0,-1,89.291,1250.0719)" stroke-width=".3985" stroke-linecap="round" stroke-linejoin="round" fill="none" stroke="#c0c0c0" d="M81.49268 7.08907C81.49243 20.37572 45.00673 27.97311 0 24.05788-45.00676 20.14265-81.49301 6.19757-81.49277-7.08907"/>
<path transform="matrix(1,0,0,-1,89.291,1250.0719)" stroke-width=".3985" stroke-linecap="round" stroke-linejoin="round" fill="none" stroke="#c0c0c0" d="M63.74838 30.67061C47.02115 39.60956 4.91864 40.3692-30.28973 32.36829-44.95592 29.03535-56.77855 24.51587-63.74687 19.58014"/>
</g>
<path transform="matrix(1,0,0,-1,89.291,-59.528078)" stroke-width=".3985" stroke-linecap="butt" stroke-miterlimit="10" stroke-linejoin="miter" fill="none" stroke="#000000" d="M0-1428.673"/>
<g clip-path="url(#clip_11)">
<path transform="matrix(1,0,0,-1,89.291,1369.127)" d="M81.5027 7.0897C81.5027 28.79498 45.01326 43.21597 0 39.30038-45.01326 35.3848-81.5027 14.61555-81.5027-7.0897-81.5027-28.79498-45.01326-43.21597 0-39.30038 45.01326-35.3848 81.5027-14.61555 81.5027 7.0897ZM0 0" fill="#e6e8e9"/>
<path transform="matrix(1,0,0,-1,89.291,1369.127)" stroke-width=".3985" stroke-linecap="round" stroke-linejoin="round" fill="none" stroke="#c0c0c0" d="M-74.2928-22.61517C-60.19232-36.46799-15.49939-37.57263 25.53145-25.08266 66.56229-12.5927 88.3933 8.76234 74.2928 22.61517"/>
<path transform="matrix(1,0,0,-1,89.291,1369.127)" stroke-width=".3985" stroke-linecap="round" stroke-linejoin="round" fill="none" stroke="#c0c0c0" d="M-26.739-39.44498C-10.15228-40.78143 15.26624-24.20424 30.03357-2.41978 44.8009 19.36465 43.32578 38.10852 26.73906 39.44498"/>
<path transform="matrix(1,0,0,-1,89.291,1369.127)" stroke-width=".3985" stroke-linecap="round" stroke-linejoin="round" fill="none" stroke="#c0c0c0" d="M13.58159-37.56435C4.24414-39.13806-9.40628-23.5956-16.90709-2.84961-24.4079 17.89636-22.91904 35.99062-13.58159 37.56435"/>
<path transform="matrix(1,0,0,-1,89.291,1369.127)" stroke-width=".3985" stroke-linecap="round" stroke-linejoin="round" fill="none" stroke="#c0c0c0" d="M59.77531-21.50787C38.73795-34.28566-5.07817-35.01479-38.09116-23.13623-71.10413-11.25768-80.81268 8.73012-59.77531 21.5079"/>
<path transform="matrix(1,0,0,-1,89.291,1369.127)" stroke-width=".3985" stroke-linecap="round" stroke-linejoin="round" fill="none" stroke="#c0c0c0" d="M.00041-38.93726C22.50378-36.9798 40.7469-30.00749 40.7468-23.36436 40.74669-16.72124 22.50388-12.92258 .0005-14.88004-22.50284-16.83751-40.74596-23.8098-40.74585-30.45293-40.74574-37.09605-22.50293-40.89473 .00041-38.93726"/>
<path transform="matrix(1,0,0,-1,89.291,1369.127)" stroke-width=".3985" stroke-linecap="round" stroke-linejoin="round" fill="none" stroke="#c0c0c0" d="M63.13057-19.3584C80.55565-7.54985 66.41731 3.7344 31.55083 5.84558-3.31563 7.95676-45.70642 .09566-63.13152-11.71288-73.0568-18.43889-73.05756-25.34111-63.13252-30.3408"/>
<path transform="matrix(1,0,0,-1,89.291,1369.127)" stroke-width=".3985" stroke-linecap="round" stroke-linejoin="round" fill="none" stroke="#c0c0c0" d="M81.49268 7.0886C81.49243 20.3749 45.00673 27.97224 0 24.05728-45.00676 20.1423-81.49301 6.19772-81.49277-7.08856"/>
<path transform="matrix(1,0,0,-1,89.291,1369.127)" stroke-width=".3985" stroke-linecap="round" stroke-linejoin="round" fill="none" stroke="#c0c0c0" d="M63.1321 30.34073C45.70798 39.11823 3.31792 39.60495-31.54948 31.4283-45.2142 28.22401-56.30284 23.98601-63.131 19.35832"/>
</g>
<path transform="matrix(1,0,0,-1,89.291,-59.528078)" stroke-width=".3985" stroke-linecap="butt" stroke-miterlimit="10" stroke-linejoin="miter" fill="none" stroke="#000000" d="M0-1547.729"/>
<g clip-path="url(#clip_12)">
<path transform="matrix(1,0,0,-1,89.291,1488.1819)" d="M81.5027 7.08669C81.5027 28.2313 45.01326 42.19913 0 38.28522-45.01326 34.3713-81.5027 14.05792-81.5027-7.08669-81.5027-28.2313-45.01326-42.19913 0-38.28522 45.01326-34.3713 81.5027-14.05792 81.5027 7.08669ZM0 0" fill="#e6e8e9"/>
<path transform="matrix(1,0,0,-1,89.291,1488.1819)" stroke-width=".3985" stroke-linecap="round" stroke-linejoin="round" fill="none" stroke="#c0c0c0" d="M-74.61284-21.88382C-61.03978-35.2163-16.63095-36.22696 24.5761-24.14091 65.78314-12.05487 88.18596 8.55138 74.6129 21.88385"/>
<path transform="matrix(1,0,0,-1,89.291,1488.1819)" stroke-width=".3985" stroke-linecap="round" stroke-linejoin="round" fill="none" stroke="#c0c0c0" d="M-27.3698-38.43747C-11.09848-39.74791 14.34578-23.6014 29.46165-2.37292 44.57753 18.85553 43.64114 37.12709 27.36983 38.43753"/>
<path transform="matrix(1,0,0,-1,89.291,1488.1819)" stroke-width=".3985" stroke-linecap="round" stroke-linejoin="round" fill="none" stroke="#c0c0c0" d="M13.9327-36.50665C4.75409-38.05353-8.9248-22.96278-16.61952-2.80095-24.31425 17.36089-23.11133 34.95976-13.93272 36.50665"/>
<path transform="matrix(1,0,0,-1,89.291,1488.1819)" stroke-width=".3985" stroke-linecap="round" stroke-linejoin="round" fill="none" stroke="#c0c0c0" d="M60.49458-20.3902C40.0932-32.78148-3.5304-33.69768-36.94032-22.43658-70.35027-11.17548-80.89598 7.99893-60.49461 20.39023"/>
<path transform="matrix(1,0,0,-1,89.291,1488.1819)" stroke-width=".3985" stroke-linecap="round" stroke-linejoin="round" fill="none" stroke="#c0c0c0" d="M.00041-37.81674C22.50378-35.8601 40.7469-28.888 40.7468-22.2443 40.74669-15.60057 22.50388-11.80075 .0005-13.75739-22.50284-15.71402-40.74596-22.68611-40.74585-29.32983-40.74574-35.97356-22.50293-39.77338 .00041-37.81674"/>
<path transform="matrix(1,0,0,-1,89.291,1488.1819)" stroke-width=".3985" stroke-linecap="round" stroke-linejoin="round" fill="none" stroke="#c0c0c0" d="M62.42406-19.18156C80.60828-7.42201 67.40166 4.03336 32.92557 6.40436-1.55052 8.77536-44.241 1.1645-62.42522-10.59503-73.29057-17.62105-73.28984-24.89929-62.4258-30.03625"/>
<path transform="matrix(1,0,0,-1,89.291,1488.1819)" stroke-width=".3985" stroke-linecap="round" stroke-linejoin="round" fill="none" stroke="#c0c0c0" d="M81.49268 7.08556C81.49243 20.37305 45.00673 27.9727 0 24.05942-45.00676 20.14613-81.49301 6.20195-81.49277-7.08553"/>
<path transform="matrix(1,0,0,-1,89.291,1488.1819)" stroke-width=".3985" stroke-linecap="round" stroke-linejoin="round" fill="none" stroke="#c0c0c0" d="M62.42485 30.036C44.2416 38.63376 1.55234 38.82138-32.92448 30.45541-45.50235 27.40352-55.7906 23.47131-62.425 19.1813"/>
</g>
<path transform="matrix(1,0,0,-1,89.291,-59.528078)" stroke-width=".3985" stroke-linecap="butt" stroke-miterlimit="10" stroke-linejoin="miter" fill="none" stroke="#000000" d="M0-1666.7852"/>
<g clip-path="url(#clip_13)">
<path transform="matrix(1,0,0,-1,89.291,1607.236)" d="M81.5027 7.088C81.5027 27.68124 45.01326 41.20155 0 37.28691-45.01326 33.37228-81.5027 13.50525-81.5027-7.088-81.5027-27.68124-45.01326-41.20155 0-37.28691 45.01326-33.37228 81.5027-13.50525 81.5027 7.088ZM0 0" fill="#e6e8e9"/>
<path transform="matrix(1,0,0,-1,89.291,1607.236)" stroke-width=".3985" stroke-linecap="round" stroke-linejoin="round" fill="none" stroke="#c0c0c0" d="M-74.9257-21.1782C-61.89328-33.98544-17.78174-34.88506 23.59912-23.1889 64.97998-11.49277 87.95818 8.37099 74.92574 21.17824"/>
<path transform="matrix(1,0,0,-1,89.291,1607.236)" stroke-width=".3985" stroke-linecap="round" stroke-linejoin="round" fill="none" stroke="#c0c0c0" d="M-28.01595-37.44627C-12.08458-38.72878 13.37444-23.00294 28.84682-2.32237 44.31918 18.35818 43.94734 36.16382 28.01598 37.4463"/>
<path transform="matrix(1,0,0,-1,89.291,1607.236)" stroke-width=".3985" stroke-linecap="round" stroke-linejoin="round" fill="none" stroke="#c0c0c0" d="M14.29272-35.46173C5.28487-36.97858-8.41684-22.33105-16.31046-2.74637-24.20407 16.83832-23.30064 33.94484-14.29279 35.46169"/>
<path transform="matrix(1,0,0,-1,89.291,1607.236)" stroke-width=".3985" stroke-linecap="round" stroke-linejoin="round" fill="none" stroke="#c0c0c0" d="M61.2041-19.29344C41.45927-31.28517-1.95016-32.36868-35.75163-21.71336-69.55312-11.05803-80.94899 7.30171-61.20416 19.29344"/>
<path transform="matrix(1,0,0,-1,89.291,1607.236)" stroke-width=".3985" stroke-linecap="round" stroke-linejoin="round" fill="none" stroke="#c0c0c0" d="M.00041-36.69513C22.50378-34.73817 40.7469-27.76595 40.7468-21.12238 40.74669-14.4788 22.50388-10.67937 .0005-12.63634-22.50284-14.59329-40.74596-21.56552-40.74585-28.20909-40.74574-34.85266-22.50293-38.6521 .00041-36.69513"/>
<path transform="matrix(1,0,0,-1,89.291,1607.236)" stroke-width=".3985" stroke-linecap="round" stroke-linejoin="round" fill="none" stroke="#c0c0c0" d="M61.61125-19.0451C80.6221-7.34615 68.44847 4.28868 34.4212 6.94212 .39395 9.59557-42.6018 2.26257-61.61266-9.43636-73.56087-16.78929-73.56137-24.4855-61.61395-29.76057"/>
<path transform="matrix(1,0,0,-1,89.291,1607.236)" stroke-width=".3985" stroke-linecap="round" stroke-linejoin="round" fill="none" stroke="#c0c0c0" d="M81.49268 7.08672C81.49243 20.37387 45.00673 27.97273 0 24.05879-45.00676 20.14487-81.49301 6.2004-81.49277-7.08675"/>
<path transform="matrix(1,0,0,-1,89.291,1607.236)" stroke-width=".3985" stroke-linecap="round" stroke-linejoin="round" fill="none" stroke="#c0c0c0" d="M61.613 29.76062C42.60379 38.15372-.39201 38.0086-34.42075 29.43738-45.82329 26.5652-55.24231 22.96541-61.6122 19.04515"/>
</g>
<path transform="matrix(1,0,0,-1,89.291,-59.528078)" stroke-width=".3985" stroke-linecap="butt" stroke-miterlimit="10" stroke-linejoin="miter" fill="none" stroke="#000000" d="M0-1785.8412"/>
<g clip-path="url(#clip_14)">
<path transform="matrix(1,0,0,-1,89.291,1726.2909)" d="M81.5027 7.09447C81.5027 27.14665 45.01326 40.22545 0 36.30722-45.01326 32.389-81.5027 12.9577-81.5027-7.09447-81.5027-27.14665-45.01326-40.22545 0-36.30722 45.01326-32.389 81.5027-12.9577 81.5027 7.09447ZM0 0" fill="#e6e8e9"/>
<path transform="matrix(1,0,0,-1,89.291,1726.2909)" stroke-width=".3985" stroke-linecap="round" stroke-linejoin="round" fill="none" stroke="#c0c0c0" d="M-75.229-20.5063C-62.73839-32.77963-18.93011-33.5479 22.61736-22.22284 64.16486-10.89778 87.71962 8.233 75.229 20.50633"/>
<path transform="matrix(1,0,0,-1,89.291,1726.2909)" stroke-width=".3985" stroke-linecap="round" stroke-linejoin="round" fill="none" stroke="#c0c0c0" d="M-28.67621-36.47565C-13.10748-37.72644 12.35213-22.40968 28.18962-2.2647 44.0271 17.88028 44.24493 35.2249 28.67621 36.47568"/>
<path transform="matrix(1,0,0,-1,89.291,1726.2909)" stroke-width=".3985" stroke-linecap="round" stroke-linejoin="round" fill="none" stroke="#c0c0c0" d="M14.6667-34.4329C5.84418-35.92064-7.87476-21.71017-15.97487-2.69368-24.07498 16.32281-23.48924 32.94522-14.6667 34.43294"/>
<path transform="matrix(1,0,0,-1,89.291,1726.2909)" stroke-width=".3985" stroke-linecap="round" stroke-linejoin="round" fill="none" stroke="#c0c0c0" d="M61.91039-18.2186C42.84697-29.79929-.32559-31.03064-34.51753-20.96883-68.70947-10.90701-80.97386 6.63795-61.91045 18.21866"/>
<path transform="matrix(1,0,0,-1,89.291,1726.2909)" stroke-width=".3985" stroke-linecap="round" stroke-linejoin="round" fill="none" stroke="#c0c0c0" d="M.00041-35.57344C22.50378-33.6147 40.7469-26.6413 40.7468-19.99803 40.74669-13.35477 22.50388-9.55705 .0005-11.5158-22.50284-13.47453-40.74596-20.44795-40.74585-27.09122-40.74574-33.73448-22.50293-37.53218 .00041-35.57344"/>
<path transform="matrix(1,0,0,-1,89.291,1726.2909)" stroke-width=".3985" stroke-linecap="round" stroke-linejoin="round" fill="none" stroke="#c0c0c0" d="M60.66771-18.95825C80.58328-7.33336 69.56499 4.49232 36.05885 7.45528 2.55272 10.41821-40.75415 3.39603-60.66972-8.22885-73.87782-15.93857-73.87628-24.10837-60.66953-29.51892"/>
<path transform="matrix(1,0,0,-1,89.291,1726.2909)" stroke-width=".3985" stroke-linecap="round" stroke-linejoin="round" fill="none" stroke="#c0c0c0" d="M81.49268 7.09317C81.49243 20.3797 45.00673 27.97516 0 24.05765-45.00676 20.14015-81.49301 6.19334-81.49277-7.09317"/>
<path transform="matrix(1,0,0,-1,89.291,1726.2909)" stroke-width=".3985" stroke-linecap="round" stroke-linejoin="round" fill="none" stroke="#c0c0c0" d="M60.66827 29.5187C40.7542 37.67686-2.55182 37.16026-36.05812 28.36497-46.18378 25.7072-54.6512 22.47067-60.66896 18.95804"/>
</g>
<path transform="matrix(1,0,0,-1,89.291,-59.528078)" stroke-width=".3985" stroke-linecap="butt" stroke-miterlimit="10" stroke-linejoin="miter" fill="none" stroke="#000000" d="M0-1904.8973"/>
<g clip-path="url(#clip_15)">
<path transform="matrix(1,0,0,-1,89.291,1845.345)" d="M81.5027 7.08713C81.5027 26.60968 45.01326 39.26245 0 35.34828-45.01326 31.43413-81.5027 12.43542-81.5027-7.08713-81.5027-26.60968-45.01326-39.26245 0-35.34828 45.01326-31.43413 81.5027-12.43542 81.5027 7.08713ZM0 0" fill="#e6e8e9"/>
<path transform="matrix(1,0,0,-1,89.291,1845.345)" stroke-width=".3985" stroke-linecap="round" stroke-linejoin="round" fill="none" stroke="#c0c0c0" d="M-75.52145-19.85011C-63.57866-31.58536-20.08325-32.21089 21.62605-21.24829 63.33537-10.28568 87.46431 8.11487 75.52151 19.85011"/>
<path transform="matrix(1,0,0,-1,89.291,1845.345)" stroke-width=".3985" stroke-linecap="round" stroke-linejoin="round" fill="none" stroke="#c0c0c0" d="M-29.35672-35.52455C-14.17888-36.74535 11.2691-21.83005 27.48212-2.21059 43.69513 17.40886 44.53455 34.30382 29.35672 35.52461"/>
<path transform="matrix(1,0,0,-1,89.291,1845.345)" stroke-width=".3985" stroke-linecap="round" stroke-linejoin="round" fill="none" stroke="#c0c0c0" d="M15.05156-33.42816C6.42857-34.88072-7.30093-21.09183-15.61351-2.63028-23.92607 15.83124-23.67458 31.97562-15.05159 33.42819"/>
<path transform="matrix(1,0,0,-1,89.291,1845.345)" stroke-width=".3985" stroke-linecap="round" stroke-linejoin="round" fill="none" stroke="#c0c0c0" d="M62.60374-17.18448C44.24446-28.33543 1.33147-29.68118-33.24335-20.19069-67.81818-10.70018-80.96301 6.03352-62.60371 17.18448"/>
<path transform="matrix(1,0,0,-1,89.291,1845.345)" stroke-width=".3985" stroke-linecap="round" stroke-linejoin="round" fill="none" stroke="#c0c0c0" d="M.00041-34.45296C22.50378-32.49611 40.7469-25.52391 40.7468-18.88026 40.74669-12.23663 22.50388-8.43703 .0005-10.39388-22.50284-12.35072-40.74596-19.3229-40.74585-25.96655-40.74574-32.6102-22.50293-36.40979 .00041-34.45296"/>
<path transform="matrix(1,0,0,-1,89.291,1845.345)" stroke-width=".3985" stroke-linecap="round" stroke-linejoin="round" fill="none" stroke="#c0c0c0" d="M59.55829-18.94579C80.4699-7.41643 70.7564 4.61656 37.8635 7.93007 4.9706 11.24359-38.64847 4.58293-59.56009-6.94641-74.24672-15.04399-74.24895-23.76015-59.56198-29.30382"/>
<path transform="matrix(1,0,0,-1,89.291,1845.345)" stroke-width=".3985" stroke-linecap="round" stroke-linejoin="round" fill="none" stroke="#c0c0c0" d="M81.49268 7.08624C81.49243 20.37358 45.00673 27.97278 0 24.05908-45.00676 20.1454-81.49301 6.20105-81.49277-7.08627"/>
<path transform="matrix(1,0,0,-1,89.291,1845.345)" stroke-width=".3985" stroke-linecap="round" stroke-linejoin="round" fill="none" stroke="#c0c0c0" d="M59.56078 29.30382C38.64919 37.19693-4.96939 36.27197-37.86404 27.23787-46.59491 24.84023-54.0094 22.00594-59.5595 18.94579"/>
</g>
<path transform="matrix(1,0,0,-1,89.291,-59.528078)" stroke-width=".3985" stroke-linecap="butt" stroke-miterlimit="10" stroke-linejoin="miter" fill="none" stroke="#000000" d="M0-2023.9534"/>
<g clip-path="url(#clip_16)">
<path transform="matrix(1,0,0,-1,89.291,1964.4)" d="M81.5027 7.09189C81.5027 26.09654 45.01326 38.32735 0 34.41055-45.01326 30.49376-81.5027 11.91277-81.5027-7.09189-81.5027-26.09654-45.01326-38.32735 0-34.41055 45.01326-30.49376 81.5027-11.91277 81.5027 7.09189ZM0 0" fill="#e6e8e9"/>
<path transform="matrix(1,0,0,-1,89.291,1964.4)" stroke-width=".3985" stroke-linecap="round" stroke-linejoin="round" fill="none" stroke="#c0c0c0" d="M-75.80075-19.22969C-64.41176-30.4183-21.2424-30.87892 20.62154-20.25859 62.48549-9.63826 87.18983 8.04108 75.80084 19.22969"/>
<path transform="matrix(1,0,0,-1,89.291,1964.4)" stroke-width=".3985" stroke-linecap="round" stroke-linejoin="round" fill="none" stroke="#c0c0c0" d="M-30.04823-34.59506C-15.29012-35.7821 10.12718-21.25513 26.72249-2.1489 43.31778 16.9573 44.80643 33.40804 30.0483 34.5951"/>
<path transform="matrix(1,0,0,-1,89.291,1964.4)" stroke-width=".3985" stroke-linecap="round" stroke-linejoin="round" fill="none" stroke="#c0c0c0" d="M15.44537-32.43797C7.03783-33.8537-6.69302-20.4781-15.22334-2.56313-23.75366 15.35185-23.85295 31.02222-15.4454 32.43794"/>
<path transform="matrix(1,0,0,-1,89.291,1964.4)" stroke-width=".3985" stroke-linecap="round" stroke-linejoin="round" fill="none" stroke="#c0c0c0" d="M63.28621-16.17001C45.65593-26.87979 3.02959-28.322-31.92271-19.39157-66.87503-10.46114-80.91652 5.4602-63.28624 16.16998"/>
<path transform="matrix(1,0,0,-1,89.291,1964.4)" stroke-width=".3985" stroke-linecap="round" stroke-linejoin="round" fill="none" stroke="#c0c0c0" d="M.00041-33.33023C22.50378-31.37218 40.7469-24.39935 40.7468-17.75616 40.74669-11.11298 22.50388-7.31471 .0005-9.27275-22.50284-11.2308-40.74596-18.20363-40.74585-24.84682-40.74574-31.49-22.50293-35.28827 .00041-33.33023"/>
<path transform="matrix(1,0,0,-1,89.291,1964.4)" stroke-width=".3985" stroke-linecap="round" stroke-linejoin="round" fill="none" stroke="#c0c0c0" d="M58.24411-18.99655C80.25641-7.58502 72.02245 4.66455 39.85468 8.36389 7.68689 12.06323-36.23448 5.81088-58.24678-5.60063-74.68628-14.12352-74.68887-23.47073-58.24898-29.133"/>
<path transform="matrix(1,0,0,-1,89.291,1964.4)" stroke-width=".3985" stroke-linecap="round" stroke-linejoin="round" fill="none" stroke="#c0c0c0" d="M81.49268 7.09064C81.49243 20.37706 45.00673 27.97356 0 24.05746-45.00676 20.14136-81.49301 6.19574-81.49277-7.09067"/>
<path transform="matrix(1,0,0,-1,89.291,1964.4)" stroke-width=".3985" stroke-linecap="round" stroke-linejoin="round" fill="none" stroke="#c0c0c0" d="M58.24686 29.13252C44.00935 34.03627 19.74191 35.35938-5.39557 32.60307-26.72241 30.26462-46.1675 25.25806-58.24622 18.99606"/>
</g>
<path transform="matrix(1,0,0,-1,89.291,-59.528078)" stroke-width=".3985" stroke-linecap="butt" stroke-miterlimit="10" stroke-linejoin="miter" fill="none" stroke="#000000" d="M0-2143.0096"/>
<g clip-path="url(#clip_17)">
<path transform="matrix(1,0,0,-1,89.291,2083.454)" d="M81.5027 7.09447C81.5027 25.59459 45.01326 37.41524 0 33.49702-45.01326 29.5788-81.5027 11.40564-81.5027-7.09447-81.5027-25.59459-45.01326-37.41524 0-33.49702 45.01326-29.5788 81.5027-11.40564 81.5027 7.09447ZM0 0" fill="#e6e8e9"/>
<path transform="matrix(1,0,0,-1,89.291,2083.454)" stroke-width=".3985" stroke-linecap="round" stroke-linejoin="round" fill="none" stroke="#c0c0c0" d="M-76.06929-18.63676C-65.2413-29.2749-22.40518-29.5549 19.6062-19.26225 61.6176-8.9696 86.89731 7.99864 76.06932 18.63676"/>
<path transform="matrix(1,0,0,-1,89.291,2083.454)" stroke-width=".3985" stroke-linecap="round" stroke-linejoin="round" fill="none" stroke="#c0c0c0" d="M-30.75146-33.6935C-16.44128-34.84447 8.92691-20.69257 25.91064-2.084 42.89436 16.52454 45.06165 32.54248 30.75146 33.69347"/>
<path transform="matrix(1,0,0,-1,89.291,2083.454)" stroke-width=".3985" stroke-linecap="round" stroke-linejoin="round" fill="none" stroke="#c0c0c0" d="M15.85072-31.47487C7.67616-32.85246-6.04774-19.87697-14.80177-2.49423-23.5558 14.8885-24.02539 30.09721-15.85081 31.47481"/>
<path transform="matrix(1,0,0,-1,89.291,2083.454)" stroke-width=".3985" stroke-linecap="round" stroke-linejoin="round" fill="none" stroke="#c0c0c0" d="M63.95032-15.19365C47.06851-25.44794 4.75041-26.9578-30.56854-18.56679-65.88751-10.17578-80.83217 4.93938-63.95035 15.19365"/>
<path transform="matrix(1,0,0,-1,89.291,2083.454)" stroke-width=".3985" stroke-linecap="round" stroke-linejoin="round" fill="none" stroke="#c0c0c0" d="M.00041-32.21074C22.50378-30.25194 40.7469-23.27885 40.7468-16.63603 40.74669-9.99321 22.50388-6.19585 .0005-8.15463-22.50284-10.11343-40.74596-17.08652-40.74585-23.72934-40.74574-30.37216-22.50293-34.16953 .00041-32.21074"/>
<path transform="matrix(1,0,0,-1,89.291,2083.454)" stroke-width=".3985" stroke-linecap="round" stroke-linejoin="round" fill="none" stroke="#c0c0c0" d="M56.67001-19.13731C79.90225-7.87617 73.36252 4.60423 42.06456 8.73798 10.76662 12.87173-33.44037 7.09332-56.6726-4.1678-75.21078-13.15372-75.20943-23.24379-56.67212-29.00246"/>
<path transform="matrix(1,0,0,-1,89.291,2083.454)" stroke-width=".3985" stroke-linecap="round" stroke-linejoin="round" fill="none" stroke="#c0c0c0" d="M81.49268 7.09334C81.49243 20.37901 45.00673 27.97372 0 24.05614-45.00676 20.13853-81.49301 6.19235-81.49277-7.0933"/>
<path transform="matrix(1,0,0,-1,89.291,2083.454)" stroke-width=".3985" stroke-linecap="round" stroke-linejoin="round" fill="none" stroke="#c0c0c0" d="M56.67006 29.00201C41.64418 33.66983 16.95 34.67764-8.09448 31.64401-27.46016 29.29836-45.05281 24.76909-56.67207 19.13686"/>
</g>
<path transform="matrix(1,0,0,-1,89.291,-59.528078)" stroke-width=".3985" stroke-linecap="butt" stroke-miterlimit="10" stroke-linejoin="miter" fill="none" stroke="#000000" d="M0-2262.0655"/>
<g clip-path="url(#clip_18)">
<path transform="matrix(1,0,0,-1,89.291,2202.5089)" d="M81.5027 7.10226C81.5027 25.1122 45.01326 36.53197 0 32.60945-45.01326 28.68694-81.5027 10.90765-81.5027-7.10226-81.5027-25.1122-45.01326-36.53197 0-32.60945 45.01326-28.68694 81.5027-10.90765 81.5027 7.10226ZM0 0" fill="#e6e8e9"/>
<path transform="matrix(1,0,0,-1,89.291,2202.5089)" stroke-width=".3985" stroke-linecap="round" stroke-linejoin="round" fill="none" stroke="#c0c0c0" d="M-76.32582-18.07661C-66.06482-28.15665-23.57394-28.2345 18.58008-18.25111 60.73412-8.26773 86.58682 7.9966 76.32582 18.07661"/>
<path transform="matrix(1,0,0,-1,89.291,2202.5089)" stroke-width=".3985" stroke-linecap="round" stroke-linejoin="round" fill="none" stroke="#c0c0c0" d="M-31.46448-32.81764C-17.63599-33.92833 7.66226-20.13533 25.0393-2.011 42.41635 16.11331 45.29301 31.70699 31.46451 32.81767"/>
<path transform="matrix(1,0,0,-1,89.291,2202.5089)" stroke-width=".3985" stroke-linecap="round" stroke-linejoin="round" fill="none" stroke="#c0c0c0" d="M16.26408-30.53113C8.34169-31.86644-5.3627-19.27928-14.34506-2.41759-23.32742 14.44408-24.18652 29.19585-16.26411 30.53116"/>
<path transform="matrix(1,0,0,-1,89.291,2202.5089)" stroke-width=".3985" stroke-linecap="round" stroke-linejoin="round" fill="none" stroke="#c0c0c0" d="M64.60472-14.24442C48.49951-24.02965 6.51778-25.58434-29.16243-17.71759-64.84267-9.85086-80.70993 4.4592-64.60472 14.24445"/>
<path transform="matrix(1,0,0,-1,89.291,2202.5089)" stroke-width=".3985" stroke-linecap="round" stroke-linejoin="round" fill="none" stroke="#c0c0c0" d="M.00041-31.08861C22.50378-29.12758 40.7469-22.15288 40.7468-15.51028 40.74669-8.86769 22.50388-5.07236 .0005-7.03339-22.50284-8.99442-40.74596-15.9691-40.74585-22.61171-40.74574-29.2543-22.50293-33.04962 .00041-31.08861"/>
<path transform="matrix(1,0,0,-1,89.291,2202.5089)" stroke-width=".3985" stroke-linecap="round" stroke-linejoin="round" fill="none" stroke="#c0c0c0" d="M54.7463-19.38077C79.34325-8.3123 74.77254 4.41095 44.53683 9.03674 14.30113 13.66254-30.15111 8.4397-54.74805-2.62877-75.85063-12.12488-75.85135-23.10371-54.74901-28.92209"/>
<path transform="matrix(1,0,0,-1,89.291,2202.5089)" stroke-width=".3985" stroke-linecap="round" stroke-linejoin="round" fill="none" stroke="#c0c0c0" d="M81.49268 7.10141C81.49243 20.38661 45.00673 27.97728 0 24.0552-45.00676 20.13315-81.49301 6.18373-81.49277-7.10144"/>
<path transform="matrix(1,0,0,-1,89.291,2202.5089)" stroke-width=".3985" stroke-linecap="round" stroke-linejoin="round" fill="none" stroke="#c0c0c0" d="M54.74771 28.92192C38.83873 33.30853 13.69366 33.94783-11.19785 30.59787-28.30559 28.29536-43.81325 24.30075-54.7476 19.3806"/>
</g>
<path transform="matrix(1,0,0,-1,89.291,-59.528078)" stroke-width=".3985" stroke-linecap="butt" stroke-miterlimit="10" stroke-linejoin="miter" fill="none" stroke="#000000" d="M0-2381.1217"/>
<g clip-path="url(#clip_19)">
<path transform="matrix(1,0,0,-1,89.291,2321.563)" d="M81.5027 7.09923C81.5027 24.63449 45.01326 35.67084 0 31.75002-45.01326 27.82918-81.5027 10.43604-81.5027-7.09923-81.5027-24.63449-45.01326-35.67084 0-31.75002 45.01326-27.82918 81.5027-10.43604 81.5027 7.09923ZM0 0" fill="#e6e8e9"/>
<path transform="matrix(1,0,0,-1,89.291,2321.563)" stroke-width=".3985" stroke-linecap="round" stroke-linejoin="round" fill="none" stroke="#c0c0c0" d="M-76.57274-17.53596C-66.88353-27.05379-24.74504-26.91835 17.54443-17.23367 59.83391-7.549 86.26201 8.01814 76.5728 17.53596"/>
<path transform="matrix(1,0,0,-1,89.291,2321.563)" stroke-width=".3985" stroke-linecap="round" stroke-linejoin="round" fill="none" stroke="#c0c0c0" d="M-32.18794-31.96866C-18.8755-33.03986 6.32762-19.59488 24.10475-1.93909 41.88188 15.7167 45.5004 30.89743 32.18794 31.96863"/>
<path transform="matrix(1,0,0,-1,89.291,2321.563)" stroke-width=".3985" stroke-linecap="round" stroke-linejoin="round" fill="none" stroke="#c0c0c0" d="M16.68636-29.61935C9.0363-30.90823-4.63599-18.69199-13.85165-2.33362-23.06732 14.02473-24.33643 28.33049-16.68639 29.61935"/>
<path transform="matrix(1,0,0,-1,89.291,2321.563)" stroke-width=".3985" stroke-linecap="round" stroke-linejoin="round" fill="none" stroke="#c0c0c0" d="M65.23856-13.34366C49.9305-22.64297 8.31221-24.20697-27.71846-16.83757-63.74915-9.46817-80.54659 4.04436-65.23853 13.34366"/>
<path transform="matrix(1,0,0,-1,89.291,2321.563)" stroke-width=".3985" stroke-linecap="round" stroke-linejoin="round" fill="none" stroke="#c0c0c0" d="M.00041-29.9677C22.50378-28.0076 40.7469-21.0335 40.7468-14.39073 40.74669-7.74797 22.50388-3.95172 .0005-5.91182-22.50284-7.87192-40.74596-14.84602-40.74585-21.48878-40.74574-28.13155-22.50293-31.9278 .00041-29.9677"/>
<path transform="matrix(1,0,0,-1,89.291,2321.563)" stroke-width=".3985" stroke-linecap="round" stroke-linejoin="round" fill="none" stroke="#c0c0c0" d="M52.35876-19.76651C78.49414-8.95425 76.23949 4.02377 47.32309 9.22005 18.40668 14.41634-26.22354 9.86346-52.35892-.94878-76.64497-10.99579-76.64427-23.07057-52.35939-28.8871"/>
<path transform="matrix(1,0,0,-1,89.291,2321.563)" stroke-width=".3985" stroke-linecap="round" stroke-linejoin="round" fill="none" stroke="#c0c0c0" d="M81.49268 7.09807C81.49243 20.38362 45.00673 27.97609 0 24.0559-45.00676 20.1357-81.49301 6.1875-81.49277-7.09804"/>
<path transform="matrix(1,0,0,-1,89.291,2321.563)" stroke-width=".3985" stroke-linecap="round" stroke-linejoin="round" fill="none" stroke="#c0c0c0" d="M52.35855 28.88669C35.45505 32.9356 9.84682 33.1457-14.80324 29.43773-29.28503 27.25903-42.42857 23.87463-52.3596 19.76611"/>
</g>
<path transform="matrix(1,0,0,-1,89.291,-59.528078)" stroke-width=".3985" stroke-linecap="butt" stroke-miterlimit="10" stroke-linejoin="miter" fill="none" stroke="#000000" d="M0-2500.1778"/>
<g clip-path="url(#clip_20)">
<path transform="matrix(1,0,0,-1,89.291,2440.6182)" d="M81.5027 7.09923C81.5027 24.1763 45.01326 34.84122 0 30.9204-45.01326 26.99956-81.5027 9.97784-81.5027-7.09923-81.5027-24.1763-45.01326-34.84122 0-30.9204 45.01326-26.99956 81.5027-9.97784 81.5027 7.09923ZM0 0" fill="#e6e8e9"/>
<path transform="matrix(1,0,0,-1,89.291,2440.6182)" stroke-width=".3985" stroke-linecap="round" stroke-linejoin="round" fill="none" stroke="#c0c0c0" d="M-76.8065-17.02617C-67.69865-25.97673-25.92702-25.60953 16.49193-16.20636 58.9109-6.80319 85.91437 8.07556 76.80653 17.02614"/>
<path transform="matrix(1,0,0,-1,89.291,2440.6182)" stroke-width=".3985" stroke-linecap="round" stroke-linejoin="round" fill="none" stroke="#c0c0c0" d="M-32.91203-31.14975C-20.15123-32.1763 4.92917-19.06206 23.10577-1.85873 41.28236 15.34456 45.6728 30.12318 32.912 31.14975"/>
<path transform="matrix(1,0,0,-1,89.291,2440.6182)" stroke-width=".3985" stroke-linecap="round" stroke-linejoin="round" fill="none" stroke="#c0c0c0" d="M17.11623-28.73631C9.76135-29.97708-3.8646-18.11674-13.31754-2.2464-22.77048 13.62393-24.47112 27.49551-17.11626 28.73628"/>
<path transform="matrix(1,0,0,-1,89.291,2440.6182)" stroke-width=".3985" stroke-linecap="round" stroke-linejoin="round" fill="none" stroke="#c0c0c0" d="M65.85074-12.47725C51.36687-21.27692 10.14227-22.82416-26.22585-15.93324-62.59398-9.04234-80.33461 3.67761-65.85074 12.47728"/>
<path transform="matrix(1,0,0,-1,89.291,2440.6182)" stroke-width=".3985" stroke-linecap="round" stroke-linejoin="round" fill="none" stroke="#c0c0c0" d="M.00041-28.84618C22.50378-26.88605 40.7469-19.91182 40.7468-13.26897 40.74669-6.62611 22.50388-2.82982 .0005-4.78995-22.50284-6.75008-40.74596-13.7243-40.74585-20.36716-40.74574-27.01001-22.50293-30.8063 .00041-28.84618"/>
<path transform="matrix(1,0,0,-1,89.291,2440.6182)" stroke-width=".3985" stroke-linecap="round" stroke-linejoin="round" fill="none" stroke="#c0c0c0" d="M49.32378-20.31505C77.20328-9.84543 77.71996 3.39029 50.47945 9.24748 23.23895 15.10466-21.44582 11.36502-49.32532 .8954-67.35779-5.8765-74.62325-14.1586-68.37961-20.82498-65.17479-24.24625-58.57805-27.04356-49.32468-28.90685"/>
<path transform="matrix(1,0,0,-1,89.291,2440.6182)" stroke-width=".3985" stroke-linecap="round" stroke-linejoin="round" fill="none" stroke="#c0c0c0" d="M81.49268 7.0982C81.49243 20.38396 45.00673 27.97653 0 24.05626-45.00676 20.13599-81.49301 6.18756-81.49277-7.09818"/>
<path transform="matrix(1,0,0,-1,89.291,2440.6182)" stroke-width=".3985" stroke-linecap="round" stroke-linejoin="round" fill="none" stroke="#c0c0c0" d="M49.32378 28.90671C21.90358 34.42787-21.90274 30.61273-49.32468 20.31491"/>
</g>
</svg>
