<svg xmlns="http://www.w3.org/2000/svg" xmlns:xlink="http://www.w3.org/1999/xlink" version="1.1" width="178.582" height="2500.144" viewBox="0 0 178.582 2500.144">
<defs>
<clipPath id="clip_21">
<path transform="matrix(1,0,0,-1,0,119.05292)" d="M0 0H178.582V119.053H0Z"/>
</clipPath>
<clipPath id="clip_22">
<path transform="matrix(1,0,0,-1,0,238.10791)" d="M0 0H178.582V119.053H0Z"/>
</clipPath>
<clipPath id="clip_23">
<path transform="matrix(1,0,0,-1,0,357.16194)" d="M0 0H178.582V119.053H0Z"/>
</clipPath>
<clipPath id="clip_24">
<path transform="matrix(1,0,0,-1,0,476.21693)" d="M0 0H178.582V119.053H0Z"/>
</clipPath>
<clipPath id="clip_25">
<path transform="matrix(1,0,0,-1,0,595.27096)" d="M0 0H178.582V119.053H0Z"/>
</clipPath>
<clipPath id="clip_26">
<path transform="matrix(1,0,0,-1,0,714.3259)" d="M0 0H178.582V119.053H0Z"/>
</clipPath>
<clipPath id="clip_27">
<path transform="matrix(1,0,0,-1,0,833.37997)" d="M0 0H178.582V119.053H0Z"/>
</clipPath>
<clipPath id="clip_28">
<path transform="matrix(1,0,0,-1,0,952.43496)" d="M0 0H178.582V119.053H0Z"/>
</clipPath>
<clipPath id="clip_29">
<path transform="matrix(1,0,0,-1,0,1071.4889)" d="M0 0H178.582V119.053H0Z"/>
</clipPath>
<clipPath id="clip_30">
<path transform="matrix(1,0,0,-1,0,1190.544)" d="M0 0H178.582V119.053H0Z"/>
</clipPath>
<clipPath id="clip_31">
<path transform="matrix(1,0,0,-1,0,1309.5979)" d="M0 0H178.582V119.053H0Z"/>
</clipPath>
<clipPath id="clip_32">
<path transform="matrix(1,0,0,-1,0,1428.653)" d="M0 0H178.582V119.053H0Z"/>
</clipPath>
<clipPath id="clip_33">
<path transform="matrix(1,0,0,-1,0,1547.7079)" d="M0 0H178.582V119.053H0Z"/>
</clipPath>
<clipPath id="clip_34">
<path transform="matrix(1,0,0,-1,0,1666.762)" d="M0 0H178.582V119.053H0Z"/>
</clipPath>
<clipPath id="clip_35">
<path transform="matrix(1,0,0,-1,0,1785.8169)" d="M0 0H178.582V119.053H0Z"/>
</clipPath>
<clipPath id="clip_36">
<path transform="matrix(1,0,0,-1,0,1904.871)" d="M0 0H178.582V119.053H0Z"/>
</clipPath>
<clipPath id="clip_37">
<path transform="matrix(1,0,0,-1,0,2023.926)" d="M0 0H178.582V119.053H0Z"/>
</clipPath>
<clipPath id="clip_38">
<path transform="matrix(1,0,0,-1,0,2142.98)" d="M0 0H178.582V119.053H0Z"/>
</clipPath>
<clipPath id="clip_39">
<path transform="matrix(1,0,0,-1,0,2262.035)" d="M0 0H178.582V119.053H0Z"/>
</clipPath>
<clipPath id="clip_40">
<path transform="matrix(1,0,0,-1,0,2381.0889)" d="M0 0H178.582V119.053H0Z"/>
</clipPath>
<clipPath id="clip_41">
<path transform="matrix(1,0,0,-1,0,2500.144)" d="M0 0H178.582V119.053H0Z"/>
</clipPath>
</defs>
<path transform="matrix(1,0,0,-1,89.291,-59.528078)" stroke-width=".3985" stroke-linecap="butt" stroke-miterlimit="10" stroke-linejoin="miter" fill="none" stroke="#000000" d="M0-119.05606"/>
<g clip-path="url(#clip_21)">
<path transform="matrix(1,0,0,-1,89.291,59.526918)" stroke-width=".3985" stroke-linecap="round" stroke-linejoin="round" fill="none" stroke="#000000" d="M76.8065 17.02641C67.69865 25.97737 25.92702 25.61037-16.49193 16.20708-58.9109 6.80379-85.91437-8.07544-76.80653-17.02641"/>
<path transform="matrix(1,0,0,-1,89.291,59.526918)" stroke-width=".3985" stroke-linecap="round" stroke-linejoin="round" fill="none" stroke="#000000" d="M32.91014 31.15047C20.14812 32.17624-4.9323 19.06068-23.10828 1.8568-41.28426-15.34709-45.67224-30.12474-32.9102-31.1505"/>
<path transform="matrix(1,0,0,-1,89.291,59.526918)" stroke-width=".3985" stroke-linecap="round" stroke-linejoin="round" fill="none" stroke="#000000" d="M-17.11623 28.73701C-9.76135 29.97803 3.8646 18.11755 13.31754 2.24681 22.77048-13.62392 24.47112-27.49602 17.11626-28.73701"/>
<path transform="matrix(1,0,0,-1,89.291,59.526918)" stroke-width=".3985" stroke-linecap="round" stroke-linejoin="round" fill="none" stroke="#000000" d="M-65.85074 12.47769C-51.36687 21.2777-10.14227 22.82504 26.22585 15.9339 62.59398 9.04276 80.33461-3.67767 65.85074-12.47769"/>
<path transform="matrix(1,0,0,-1,89.291,59.526918)" stroke-width=".3985" stroke-linecap="round" stroke-linejoin="round" fill="none" stroke="#000000" d="M49.32378-20.31564C21.90182-30.61359-21.9045-34.42871-49.32468-28.90744"/>
<path transform="matrix(1,0,0,-1,89.291,59.526918)" stroke-width=".3985" stroke-linecap="round" stroke-linejoin="round" fill="none" stroke="#000000" d="M81.49268 7.0982C81.49292-6.18771 45.00667-20.1363-.00006-24.05658-45.00682-27.97685-81.49252-20.38414-81.49277-7.0982"/>
<path transform="matrix(1,0,0,-1,89.291,59.526918)" stroke-width=".3985" stroke-linecap="round" stroke-linejoin="round" fill="none" stroke="#000000" d="M49.32378 28.9073C77.20139 23.29396 77.71878 10.1486 50.47769-.45358 23.2366-11.0558-21.44643-15.10054-49.32404-9.4872-67.35489-5.85643-74.62053 1.15918-68.378 8.91335-65.1742 12.89272-58.57939 16.84-49.32468 20.3155"/>
<path transform="matrix(1,0,0,-1,89.291,59.526918)" stroke-width=".3985" stroke-linecap="round" stroke-linejoin="round" fill="none" stroke="#000000" d="M-.00041 28.847C22.50293 30.80711 40.74574 27.01076 40.74585 20.36781 40.74596 13.72487 22.50284 6.75056-.0005 4.79044-22.50388 2.8303-40.74669 6.62668-40.7468 13.26962-40.7469 19.91257-22.50378 26.88687-.00041 28.847"/>
<path transform="matrix(1,0,0,-1,89.291,59.526918)" stroke-width=".3985" stroke-linecap="round" stroke-linejoin="round" fill="none" stroke="#000000" d="M81.5027 7.09923C81.5027 24.17654 45.01326 34.84166 0 30.92084-45.01326 27-81.5027 9.97809-81.5027-7.09923-81.5027-24.17654-45.01326-34.84166 0-30.92084 45.01326-27 81.5027-9.97809 81.5027 7.09923ZM0 0"/>
</g>
<path transform="matrix(1,0,0,-1,89.291,-59.528078)" stroke-width=".3985" stroke-linecap="butt" stroke-miterlimit="10" stroke-linejoin="miter" fill="none" stroke="#000000" d="M0-238.11215"/>
<g clip-path="url(#clip_22)">
<path transform="matrix(1,0,0,-1,89.291,178.58191)" stroke-width=".3985" stroke-linecap="round" stroke-linejoin="round" fill="none" stroke="#000000" d="M76.57274 17.53299C66.88353 27.0515 24.74504 26.91795-17.54443 17.2349-59.83391 7.55185-86.26201-8.01453-76.5728-17.53302"/>
<path transform="matrix(1,0,0,-1,89.291,178.58191)" stroke-width=".3985" stroke-linecap="round" stroke-linejoin="round" fill="none" stroke="#000000" d="M32.18794 31.96808C18.8755 33.0399-6.32762 19.59569-24.10475 1.9402-41.88188-15.71527-45.5004-30.89624-32.18794-31.96805"/>
<path transform="matrix(1,0,0,-1,89.291,178.58191)" stroke-width=".3985" stroke-linecap="round" stroke-linejoin="round" fill="none" stroke="#000000" d="M-16.68636 29.62091C-9.0363 30.90947 4.63599 18.6923 13.85165 2.33307 23.06732-14.02614 24.33643-28.33235 16.68639-29.62091"/>
<path transform="matrix(1,0,0,-1,89.291,178.58191)" stroke-width=".3985" stroke-linecap="round" stroke-linejoin="round" fill="none" stroke="#000000" d="M-65.23856 13.34695C-49.9305 22.64581-8.31221 24.20802 27.71846 16.83679 63.74915 9.46556 80.54659-4.04808 65.23853-13.34695"/>
<path transform="matrix(1,0,0,-1,89.291,178.58191)" stroke-width=".3985" stroke-linecap="round" stroke-linejoin="round" fill="none" stroke="#000000" d="M52.35876-19.76941C35.45425-26.76207 9.8466-31.43158-14.8024-32.01672-29.28368-32.36035-42.42915-31.26479-52.35939-28.88556"/>
<path transform="matrix(1,0,0,-1,89.291,178.58191)" stroke-width=".3985" stroke-linecap="round" stroke-linejoin="round" fill="none" stroke="#000000" d="M81.49268 7.0946C81.49292-6.19128 45.00667-20.13824-.00006-24.05653-45.00682-27.97481-81.49252-20.38051-81.49277-7.0946"/>
<path transform="matrix(1,0,0,-1,89.291,178.58191)" stroke-width=".3985" stroke-linecap="round" stroke-linejoin="round" fill="none" stroke="#000000" d="M52.35855 28.88513C78.49356 22.62398 76.23853 9.25339 47.32092-.97913 18.40332-11.21165-26.22507-14.43123-52.36008-8.17007-76.64496-2.35231-76.64566 9.7228-52.3596 19.76898"/>
<path transform="matrix(1,0,0,-1,89.291,178.58191)" stroke-width=".3985" stroke-linecap="round" stroke-linejoin="round" fill="none" stroke="#000000" d="M-.00041 29.96852C22.50293 31.92766 40.74574 28.13051 40.74585 21.48756 40.74596 14.84462 22.50284 7.87114-.0005 5.912-22.50388 3.95285-40.74669 7.75-40.7468 14.39294-40.7469 21.0359-22.50378 28.00938-.00041 29.96852"/>
<path transform="matrix(1,0,0,-1,89.291,178.58191)" stroke-width=".3985" stroke-linecap="round" stroke-linejoin="round" fill="none" stroke="#000000" d="M81.5027 7.09578C81.5027 24.63152 45.01326 35.66982 0 31.75087-45.01326 27.83194-81.5027 10.43996-81.5027-7.09578-81.5027-24.63152-45.01326-35.66982 0-31.75087 45.01326-27.83194 81.5027-10.43996 81.5027 7.09578ZM0 0"/>
</g>
<path transform="matrix(1,0,0,-1,89.291,-59.528078)" stroke-width=".3985" stroke-linecap="butt" stroke-miterlimit="10" stroke-linejoin="miter" fill="none" stroke="#000000" d="M0-357.16825"/>
<g clip-path="url(#clip_23)">
<path transform="matrix(1,0,0,-1,89.291,297.63594)" stroke-width=".3985" stroke-linecap="round" stroke-linejoin="round" fill="none" stroke="#000000" d="M76.32582 18.07664C66.06482 28.15654 23.57394 28.23427-18.58008 18.25089-60.73412 8.2675-86.58682-7.99677-76.32582-18.07664"/>
<path transform="matrix(1,0,0,-1,89.291,297.63594)" stroke-width=".3985" stroke-linecap="round" stroke-linejoin="round" fill="none" stroke="#000000" d="M31.46448 32.81772C17.63599 33.92822-7.66226 20.13504-25.0393 2.01067-42.41635-16.1137-45.29301-31.70724-31.46451-32.81775"/>
<path transform="matrix(1,0,0,-1,89.291,297.63594)" stroke-width=".3985" stroke-linecap="round" stroke-linejoin="round" fill="none" stroke="#000000" d="M-16.26408 30.53122C-8.34169 31.86633 5.3627 19.27898 14.34506 2.41724 23.32742-14.44447 24.18652-29.1961 16.26411-30.53122"/>
<path transform="matrix(1,0,0,-1,89.291,297.63594)" stroke-width=".3985" stroke-linecap="round" stroke-linejoin="round" fill="none" stroke="#000000" d="M-64.60472 14.24448C-48.49951 24.02957-6.51778 25.58412 29.16243 17.71735 64.84267 9.85059 80.70993-4.45937 64.60472-14.24448"/>
<path transform="matrix(1,0,0,-1,89.291,297.63594)" stroke-width=".3985" stroke-linecap="round" stroke-linejoin="round" fill="none" stroke="#000000" d="M54.74426-19.38155C38.83382-26.54053 13.69127-31.56137-11.20015-32.54967-28.30771-33.2289-43.81313-31.93724-54.74768-28.92264"/>
<path transform="matrix(1,0,0,-1,89.291,297.63594)" stroke-width=".3985" stroke-linecap="round" stroke-linejoin="round" fill="none" stroke="#000000" d="M81.49268 7.10141C81.49292-6.18393 45.00667-20.13351-.00006-24.05556-45.00682-27.9776-81.49252-20.38678-81.49277-7.10141"/>
<path transform="matrix(1,0,0,-1,89.291,297.63594)" stroke-width=".3985" stroke-linecap="round" stroke-linejoin="round" fill="none" stroke="#000000" d="M54.74583 28.92244C79.34322 22.14067 74.77368 8.62088 44.5378-1.27473 14.30191-11.17038-30.14986-13.69511-54.74725-6.91335-75.85092-1.09476-75.85107 9.88507-54.74612 19.38135"/>
<path transform="matrix(1,0,0,-1,89.291,297.63594)" stroke-width=".3985" stroke-linecap="round" stroke-linejoin="round" fill="none" stroke="#000000" d="M-.00041 31.08858C22.50293 33.04959 40.74574 29.25418 40.74585 22.61151 40.74596 15.96884 22.50284 8.99408-.0005 7.03305-22.50388 5.07202-40.74669 8.86745-40.7468 15.51012-40.7469 22.15279-22.50378 29.12755-.00041 31.08858"/>
<path transform="matrix(1,0,0,-1,89.291,297.63594)" stroke-width=".3985" stroke-linecap="round" stroke-linejoin="round" fill="none" stroke="#000000" d="M81.5027 7.10226C81.5027 25.11244 45.01326 36.53241 0 32.6099-45.01326 28.68738-81.5027 10.9079-81.5027-7.10226-81.5027-25.11244-45.01326-36.53241 0-32.6099 45.01326-28.68738 81.5027-10.9079 81.5027 7.10226ZM0 0"/>
</g>
<path transform="matrix(1,0,0,-1,89.291,-59.528078)" stroke-width=".3985" stroke-linecap="butt" stroke-miterlimit="10" stroke-linejoin="miter" fill="none" stroke="#000000" d="M0-476.22434"/>
<g clip-path="url(#clip_24)">
<path transform="matrix(1,0,0,-1,89.291,416.69093)" stroke-width=".3985" stroke-linecap="round" stroke-linejoin="round" fill="none" stroke="#000000" d="M76.06929 18.63748C65.2413 29.27583 22.40518 29.55571-19.6062 19.26265-61.6176 8.96959-86.89731-7.99915-76.06932-18.63751"/>
<path transform="matrix(1,0,0,-1,89.291,416.69093)" stroke-width=".3985" stroke-linecap="round" stroke-linejoin="round" fill="none" stroke="#000000" d="M30.75146 33.69405C16.44128 34.84518-8.92691 20.69316-25.91064 2.08429-42.89436-16.52457-45.06165-32.54292-30.75146-33.69405"/>
<path transform="matrix(1,0,0,-1,89.291,416.69093)" stroke-width=".3985" stroke-linecap="round" stroke-linejoin="round" fill="none" stroke="#000000" d="M-15.85072 31.47525C-7.67616 32.85307 6.04774 19.87764 14.80177 2.49467 23.5558-14.88829 24.02539-30.09738 15.85081-31.47522"/>
<path transform="matrix(1,0,0,-1,89.291,416.69093)" stroke-width=".3985" stroke-linecap="round" stroke-linejoin="round" fill="none" stroke="#000000" d="M-63.95032 15.19339C-47.06851 25.4481-4.75041 26.95845 30.56854 18.5676 65.88751 10.17674 80.83217-4.93869 63.95035-15.19339"/>
<path transform="matrix(1,0,0,-1,89.291,416.69093)" stroke-width=".3985" stroke-linecap="round" stroke-linejoin="round" fill="none" stroke="#000000" d="M56.6709-19.13676C41.64442-26.42085 16.95164-31.7271-8.0938-33.054-27.46034-34.08008-45.05511-32.61264-56.67332-29.00307"/>
<path transform="matrix(1,0,0,-1,89.291,416.69093)" stroke-width=".3985" stroke-linecap="round" stroke-linejoin="round" fill="none" stroke="#000000" d="M81.49268 7.0939C81.49292-6.19183 45.00667-20.13835-.00006-24.05626-45.00682-27.97415-81.49252-20.37965-81.49277-7.0939"/>
<path transform="matrix(1,0,0,-1,89.291,416.69093)" stroke-width=".3985" stroke-linecap="round" stroke-linejoin="round" fill="none" stroke="#000000" d="M56.6713 29.00298C79.90204 21.78584 73.36191 8.16714 42.06276-1.41501 10.7636-10.99718-33.44226-12.9147-56.673-5.69756-75.20956 .06146-75.21082 10.15031-56.67293 19.13667"/>
<path transform="matrix(1,0,0,-1,89.291,416.69093)" stroke-width=".3985" stroke-linecap="round" stroke-linejoin="round" fill="none" stroke="#000000" d="M-.00041 32.21132C22.50293 34.17027 40.74574 30.37303 40.74585 23.73016 40.74596 17.0873 22.50284 10.11401-.0005 8.15506-22.50388 6.1961-40.74669 9.99335-40.7468 16.63622-40.7469 23.27908-22.50378 30.25235-.00041 32.21132"/>
<path transform="matrix(1,0,0,-1,89.291,416.69093)" stroke-width=".3985" stroke-linecap="round" stroke-linejoin="round" fill="none" stroke="#000000" d="M81.5027 7.09491C81.5027 25.59552 45.01326 37.41635 0 33.49788-45.01326 29.57942-81.5027 11.40569-81.5027-7.09491-81.5027-25.59552-45.01326-37.41635 0-33.49788 45.01326-29.57942 81.5027-11.40569 81.5027 7.09491ZM0 0"/>
</g>
<path transform="matrix(1,0,0,-1,89.291,-59.528078)" stroke-width=".3985" stroke-linecap="butt" stroke-miterlimit="10" stroke-linejoin="miter" fill="none" stroke="#000000" d="M0-595.2804"/>
<g clip-path="url(#clip_25)">
<path transform="matrix(1,0,0,-1,89.291,535.74496)" stroke-width=".3985" stroke-linecap="round" stroke-linejoin="round" fill="none" stroke="#000000" d="M75.80075 19.22679C64.41176 30.41618 21.2424 30.87875-20.62154 20.26003-62.48549 9.64128-87.18983-8.03741-75.80084-19.22682"/>
<path transform="matrix(1,0,0,-1,89.291,535.74496)" stroke-width=".3985" stroke-linecap="round" stroke-linejoin="round" fill="none" stroke="#000000" d="M30.04823 34.59459C15.29012 35.78232-10.12718 21.2561-26.72249 2.15013-43.31778-16.95583-44.80643-33.40692-30.0483-34.59465"/>
<path transform="matrix(1,0,0,-1,89.291,535.74496)" stroke-width=".3985" stroke-linecap="round" stroke-linejoin="round" fill="none" stroke="#000000" d="M-15.44537 32.43948C-7.03783 33.85487 6.69302 20.47833 15.22334 2.56253 23.75366-15.35326 23.85295-31.02405 15.4454-32.43945"/>
<path transform="matrix(1,0,0,-1,89.291,535.74496)" stroke-width=".3985" stroke-linecap="round" stroke-linejoin="round" fill="none" stroke="#000000" d="M-63.28621 16.17325C-45.65593 26.88254-3.02959 28.32285 31.92271 19.39064 66.87503 10.45842 80.91652-5.46397 63.28624-16.17325"/>
<path transform="matrix(1,0,0,-1,89.291,535.74496)" stroke-width=".3985" stroke-linecap="round" stroke-linejoin="round" fill="none" stroke="#000000" d="M58.24411-18.99962C44.00732-26.38011 19.7409-31.92542-5.396-33.54265-26.7229-34.91478-46.17052-33.29213-58.24898-29.13112"/>
<path transform="matrix(1,0,0,-1,89.291,535.74496)" stroke-width=".3985" stroke-linecap="round" stroke-linejoin="round" fill="none" stroke="#000000" d="M81.49268 7.08719C81.49292-6.19954 45.00667-20.14386-.00006-24.05806-45.00682-27.97227-81.49252-20.37396-81.49277-7.08722"/>
<path transform="matrix(1,0,0,-1,89.291,535.74496)" stroke-width=".3985" stroke-linecap="round" stroke-linejoin="round" fill="none" stroke="#000000" d="M58.24686 29.13066C80.25879 21.54793 72.02628 7.86497 39.85661-1.431 7.68695-10.72699-36.23648-12.11653-58.24841-4.5338-74.68831 1.12933-74.68571 10.47679-58.24622 18.99916"/>
<path transform="matrix(1,0,0,-1,89.291,535.74496)" stroke-width=".3985" stroke-linecap="round" stroke-linejoin="round" fill="none" stroke="#000000" d="M-.00041 33.33105C22.50293 35.28816 40.74574 31.489 40.74585 24.84566 40.74596 18.2023 22.50284 11.23012-.0005 9.27301-22.50388 7.31592-40.74669 11.11507-40.7468 17.75842-40.7469 24.40178-22.50378 31.37396-.00041 33.33105"/>
<path transform="matrix(1,0,0,-1,89.291,535.74496)" stroke-width=".3985" stroke-linecap="round" stroke-linejoin="round" fill="none" stroke="#000000" d="M81.5027 7.08841C81.5027 26.09355 45.01326 38.32628 0 34.4114-45.01326 30.49654-81.5027 11.9167-81.5027-7.08841-81.5027-26.09355-45.01326-38.32628 0-34.4114 45.01326-30.49654 81.5027-11.9167 81.5027 7.08841ZM0 0"/>
</g>
<path transform="matrix(1,0,0,-1,89.291,-59.528078)" stroke-width=".3985" stroke-linecap="butt" stroke-miterlimit="10" stroke-linejoin="miter" fill="none" stroke="#000000" d="M0-714.3365"/>
<g clip-path="url(#clip_26)">
<path transform="matrix(1,0,0,-1,89.291,654.7999)" stroke-width=".3985" stroke-linecap="round" stroke-linejoin="round" fill="none" stroke="#000000" d="M75.52145 19.85011C63.57866 31.58536 20.08325 32.21089-21.62605 21.24829-63.33537 10.28568-87.46431-8.11487-75.52151-19.85011"/>
<path transform="matrix(1,0,0,-1,89.291,654.7999)" stroke-width=".3985" stroke-linecap="round" stroke-linejoin="round" fill="none" stroke="#000000" d="M29.35672 35.52455C14.17888 36.74535-11.2691 21.83005-27.48212 2.21059-43.69513-17.40886-44.53455-34.30382-29.35672-35.52461"/>
<path transform="matrix(1,0,0,-1,89.291,654.7999)" stroke-width=".3985" stroke-linecap="round" stroke-linejoin="round" fill="none" stroke="#000000" d="M-15.05156 33.42816C-6.42857 34.88072 7.30093 21.09183 15.61351 2.63028 23.92607-15.83124 23.67458-31.97562 15.05159-33.42819"/>
<path transform="matrix(1,0,0,-1,89.291,654.7999)" stroke-width=".3985" stroke-linecap="round" stroke-linejoin="round" fill="none" stroke="#000000" d="M-62.60374 17.18448C-44.24446 28.33543-1.33147 29.68118 33.24335 20.19069 67.81818 10.70018 80.96301-6.03352 62.60371-17.18448"/>
<path transform="matrix(1,0,0,-1,89.291,654.7999)" stroke-width=".3985" stroke-linecap="round" stroke-linejoin="round" fill="none" stroke="#000000" d="M59.55829-18.94579C38.64667-30.47516-4.9724-37.1358-37.8653-33.8223-46.59587-32.94292-54.01224-31.39885-59.56198-29.30382"/>
<path transform="matrix(1,0,0,-1,89.291,654.7999)" stroke-width=".3985" stroke-linecap="round" stroke-linejoin="round" fill="none" stroke="#000000" d="M81.49268 7.08624C81.49292-6.20108 45.00667-20.14543-.00006-24.05911-45.00682-27.97281-81.49252-20.37361-81.49277-7.08627"/>
<path transform="matrix(1,0,0,-1,89.291,654.7999)" stroke-width=".3985" stroke-linecap="round" stroke-linejoin="round" fill="none" stroke="#000000" d="M59.56078 29.30382C80.47238 21.4107 70.75809 7.68846 37.86343-1.34564 4.9688-10.37975-38.6498-11.3047-59.56139-3.41159-74.24835 2.13205-74.24612 10.84822-59.5595 18.94579"/>
<path transform="matrix(1,0,0,-1,89.291,654.7999)" stroke-width=".3985" stroke-linecap="round" stroke-linejoin="round" fill="none" stroke="#000000" d="M-.00041 34.45296C22.50293 36.40979 40.74574 32.6102 40.74585 25.96655 40.74596 19.3229 22.50284 12.35072-.0005 10.39388-22.50388 8.43703-40.74669 12.23663-40.7468 18.88026-40.7469 25.52391-22.50378 32.49611-.00041 34.45296"/>
<path transform="matrix(1,0,0,-1,89.291,654.7999)" stroke-width=".3985" stroke-linecap="round" stroke-linejoin="round" fill="none" stroke="#000000" d="M81.5027 7.08713C81.5027 26.60968 45.01326 39.26245 0 35.34828-45.01326 31.43413-81.5027 12.43542-81.5027-7.08713-81.5027-26.60968-45.01326-39.26245 0-35.34828 45.01326-31.43413 81.5027-12.43542 81.5027 7.08713ZM0 0"/>
</g>
<path transform="matrix(1,0,0,-1,89.291,-59.528078)" stroke-width=".3985" stroke-linecap="butt" stroke-miterlimit="10" stroke-linejoin="miter" fill="none" stroke="#000000" d="M0-833.3926"/>
<g clip-path="url(#clip_27)">
<path transform="matrix(1,0,0,-1,89.291,773.85397)" stroke-width=".3985" stroke-linecap="round" stroke-linejoin="round" fill="none" stroke="#000000" d="M75.229 20.50288C62.73839 32.77696 18.93011 33.54735-22.61736 22.2242-64.16486 10.90103-87.71962-8.22884-75.229-20.50291"/>
<path transform="matrix(1,0,0,-1,89.291,773.85397)" stroke-width=".3985" stroke-linecap="round" stroke-linejoin="round" fill="none" stroke="#000000" d="M28.67621 36.47469C13.10748 37.72624-12.35213 22.41055-28.18962 2.2661-44.0271-17.87836-44.24493-35.22318-28.67621-36.47472"/>
<path transform="matrix(1,0,0,-1,89.291,773.85397)" stroke-width=".3985" stroke-linecap="round" stroke-linejoin="round" fill="none" stroke="#000000" d="M-14.6667 34.43404C-5.84418 35.92134 7.87476 21.71004 15.97487 2.6929 24.07498-16.32423 23.48924-32.94676 14.6667-34.43407"/>
<path transform="matrix(1,0,0,-1,89.291,773.85397)" stroke-width=".3985" stroke-linecap="round" stroke-linejoin="round" fill="none" stroke="#000000" d="M-61.91039 18.22185C-42.84697 29.80176 .32559 31.03105 34.51753 20.96744 68.70947 10.90384 80.97386-6.64194 61.91045-18.22185"/>
<path transform="matrix(1,0,0,-1,89.291,773.85397)" stroke-width=".3985" stroke-linecap="round" stroke-linejoin="round" fill="none" stroke="#000000" d="M60.66771-18.96146C40.75215-30.58551-2.55473-37.60567-36.06087-34.64105-46.18524-33.74527-54.65205-31.9821-60.66953-29.51633"/>
<path transform="matrix(1,0,0,-1,89.291,773.85397)" stroke-width=".3985" stroke-linecap="round" stroke-linejoin="round" fill="none" stroke="#000000" d="M81.49268 7.08928C81.49292-6.1974 45.00667-20.14261-.00006-24.05795-45.00682-27.97331-81.49252-20.37595-81.49277-7.08925"/>
<path transform="matrix(1,0,0,-1,89.291,773.85397)" stroke-width=".3985" stroke-linecap="round" stroke-linejoin="round" fill="none" stroke="#000000" d="M60.66827 29.51611C80.58235 21.35687 69.56395 7.61375 36.05765-1.18001 2.55133-9.97377-40.75468-10.48828-60.66876-2.32904-73.87553 3.0822-73.87706 11.25208-60.66896 18.96124"/>
<path transform="matrix(1,0,0,-1,89.291,773.85397)" stroke-width=".3985" stroke-linecap="round" stroke-linejoin="round" fill="none" stroke="#000000" d="M-.00041 35.57387C22.50293 37.53154 40.74574 33.73288 40.74585 27.08954 40.74596 20.4462 22.50284 13.47362-.0005 11.51595-22.50388 9.55829-40.74669 13.35693-40.7468 20.00027-40.7469 26.64362-22.50378 33.6162-.00041 35.57387"/>
<path transform="matrix(1,0,0,-1,89.291,773.85397)" stroke-width=".3985" stroke-linecap="round" stroke-linejoin="round" fill="none" stroke="#000000" d="M81.5027 7.09058C81.5027 27.14299 45.01326 40.22371 0 36.30765-45.01326 32.39159-81.5027 12.96182-81.5027-7.09058-81.5027-27.14299-45.01326-40.22371 0-36.30765 45.01326-32.39159 81.5027-12.96182 81.5027 7.09058ZM0 0"/>
</g>
<path transform="matrix(1,0,0,-1,89.291,-59.528078)" stroke-width=".3985" stroke-linecap="butt" stroke-miterlimit="10" stroke-linejoin="miter" fill="none" stroke="#000000" d="M0-952.44869"/>
<g clip-path="url(#clip_28)">
<path transform="matrix(1,0,0,-1,89.291,892.90896)" stroke-width=".3985" stroke-linecap="round" stroke-linejoin="round" fill="none" stroke="#000000" d="M74.9257 21.17838C61.89328 33.98578 17.78174 34.8854-23.59912 23.18918-64.97998 11.49297-87.95818-8.37102-74.92574-21.17844"/>
<path transform="matrix(1,0,0,-1,89.291,892.90896)" stroke-width=".3985" stroke-linecap="round" stroke-linejoin="round" fill="none" stroke="#000000" d="M28.01595 37.44669C12.08458 38.72922-13.37444 23.0032-28.84682 2.32242-44.31918-18.35835-43.94734-36.16415-28.01598-37.44669"/>
<path transform="matrix(1,0,0,-1,89.291,892.90896)" stroke-width=".3985" stroke-linecap="round" stroke-linejoin="round" fill="none" stroke="#000000" d="M-14.29272 35.46216C-5.28487 36.979 8.41684 22.3313 16.31046 2.74637 24.20407-16.83856 23.30064-33.94527 14.29279-35.4621"/>
<path transform="matrix(1,0,0,-1,89.291,892.90896)" stroke-width=".3985" stroke-linecap="round" stroke-linejoin="round" fill="none" stroke="#000000" d="M-61.2041 19.29372C-41.45927 31.28555 1.95016 32.36903 35.75163 21.71355 69.55312 11.05804 80.94899-7.30191 61.20416-19.29375"/>
<path transform="matrix(1,0,0,-1,89.291,892.90896)" stroke-width=".3985" stroke-linecap="round" stroke-linejoin="round" fill="none" stroke="#000000" d="M61.61125-19.0454C42.6004-30.74448-.39536-38.07748-34.4226-35.424-45.82512-34.53499-55.24396-32.5733-61.61395-29.76088"/>
<path transform="matrix(1,0,0,-1,89.291,892.90896)" stroke-width=".3985" stroke-linecap="round" stroke-linejoin="round" fill="none" stroke="#000000" d="M81.49268 7.08672C81.49292-6.20059 45.00667-20.14516-.00006-24.05908-45.00682-27.97302-81.49252-20.37404-81.49277-7.08672"/>
<path transform="matrix(1,0,0,-1,89.291,892.90896)" stroke-width=".3985" stroke-linecap="round" stroke-linejoin="round" fill="none" stroke="#000000" d="M61.613 29.7609C80.62221 21.36766 68.449 7.6154 34.42027-.95586 .39154-9.52715-42.60428-9.67224-61.6135-1.279-73.56093 3.99612-73.56041 11.69241-61.6122 19.04541"/>
<path transform="matrix(1,0,0,-1,89.291,892.90896)" stroke-width=".3985" stroke-linecap="round" stroke-linejoin="round" fill="none" stroke="#000000" d="M-.00041 36.69556C22.50293 38.65251 40.74574 34.85303 40.74585 28.20938 40.74596 21.56573 22.50284 14.59343-.0005 12.63649-22.50388 10.67953-40.74669 14.47902-40.7468 21.12267-40.7469 27.76631-22.50378 34.73862-.00041 36.69556"/>
<path transform="matrix(1,0,0,-1,89.291,892.90896)" stroke-width=".3985" stroke-linecap="round" stroke-linejoin="round" fill="none" stroke="#000000" d="M81.5027 7.088C81.5027 27.68149 45.01326 41.202 0 37.28735-45.01326 33.37273-81.5027 13.5055-81.5027-7.088-81.5027-27.68149-45.01326-41.202 0-37.28735 45.01326-33.37273 81.5027-13.5055 81.5027 7.088ZM0 0"/>
</g>
<path transform="matrix(1,0,0,-1,89.291,-59.528078)" stroke-width=".3985" stroke-linecap="butt" stroke-miterlimit="10" stroke-linejoin="miter" fill="none" stroke="#000000" d="M0-1071.5048"/>
<g clip-path="url(#clip_29)">
<path transform="matrix(1,0,0,-1,89.291,1011.9629)" stroke-width=".3985" stroke-linecap="round" stroke-linejoin="round" fill="none" stroke="#000000" d="M74.61284 21.884C61.03978 35.21664 16.63095 36.22737-24.5761 24.14124-65.78314 12.0551-88.18596-8.55136-74.6129-21.884"/>
<path transform="matrix(1,0,0,-1,89.291,1011.9629)" stroke-width=".3985" stroke-linecap="round" stroke-linejoin="round" fill="none" stroke="#000000" d="M27.3698 38.43788C11.09848 39.74837-14.34578 23.60168-29.46165 2.37299-44.57753-18.8557-43.64114-37.12743-27.36983-38.43791"/>
<path transform="matrix(1,0,0,-1,89.291,1011.9629)" stroke-width=".3985" stroke-linecap="round" stroke-linejoin="round" fill="none" stroke="#000000" d="M-13.9327 36.50706C-4.75409 38.05396 8.9248 22.96301 16.61952 2.80093 24.31425-17.36115 23.11133-34.96022 13.93272-36.5071"/>
<path transform="matrix(1,0,0,-1,89.291,1011.9629)" stroke-width=".3985" stroke-linecap="round" stroke-linejoin="round" fill="none" stroke="#000000" d="M-60.49458 20.39049C-40.0932 32.78188 3.5304 33.69804 36.94032 22.4368 70.35027 11.17555 80.89598-7.99908 60.49461-20.39049"/>
<path transform="matrix(1,0,0,-1,89.291,1011.9629)" stroke-width=".3985" stroke-linecap="round" stroke-linejoin="round" fill="none" stroke="#000000" d="M62.42406-19.18185C44.23985-30.94153 1.54936-38.5524-32.92671-36.18134-45.50386-35.31616-55.79277-33.17328-62.4258-30.03654"/>
<path transform="matrix(1,0,0,-1,89.291,1011.9629)" stroke-width=".3985" stroke-linecap="round" stroke-linejoin="round" fill="none" stroke="#000000" d="M81.49268 7.08556C81.49292-6.20209 45.00667-20.14638-.00006-24.05966-45.00682-27.97295-81.49252-20.37318-81.49277-7.08553"/>
<path transform="matrix(1,0,0,-1,89.291,1011.9629)" stroke-width=".3985" stroke-linecap="round" stroke-linejoin="round" fill="none" stroke="#000000" d="M62.42485 30.03629C80.60811 21.43843 67.40059 7.68663 32.92375-.67937-1.55307-9.04538-44.24232-8.85773-62.42558-.25987-73.28963 4.87714-73.29036 12.1555-62.425 19.1816"/>
<path transform="matrix(1,0,0,-1,89.291,1011.9629)" stroke-width=".3985" stroke-linecap="round" stroke-linejoin="round" fill="none" stroke="#000000" d="M-.00041 37.81717C22.50293 39.77379 40.74574 35.9739 40.74585 29.33011 40.74596 22.68631 22.50284 15.71417-.0005 13.75754-22.50388 11.8009-40.74669 15.6008-40.7468 22.2446-40.7469 28.88838-22.50378 35.86053-.00041 37.81717"/>
<path transform="matrix(1,0,0,-1,89.291,1011.9629)" stroke-width=".3985" stroke-linecap="round" stroke-linejoin="round" fill="none" stroke="#000000" d="M81.5027 7.08669C81.5027 28.23154 45.01326 42.19957 0 38.28566-45.01326 34.37173-81.5027 14.05815-81.5027-7.08669-81.5027-28.23154-45.01326-42.19957 0-38.28566 45.01326-34.37173 81.5027-14.05815 81.5027 7.08669ZM0 0"/>
</g>
<path transform="matrix(1,0,0,-1,89.291,-59.528078)" stroke-width=".3985" stroke-linecap="butt" stroke-miterlimit="10" stroke-linejoin="miter" fill="none" stroke="#000000" d="M0-1190.5608"/>
<g clip-path="url(#clip_30)">
<path transform="matrix(1,0,0,-1,89.291,1131.018)" stroke-width=".3985" stroke-linecap="round" stroke-linejoin="round" fill="none" stroke="#000000" d="M74.2928 22.61554C60.19232 36.4687 15.49939 37.57344-25.53145 25.08328-66.56229 12.59312-88.3933-8.76233-74.2928-22.61551"/>
<path transform="matrix(1,0,0,-1,89.291,1131.018)" stroke-width=".3985" stroke-linecap="round" stroke-linejoin="round" fill="none" stroke="#000000" d="M26.739 39.4458C10.15228 40.7823-15.26624 24.20476-30.03357 2.41986-44.8009-19.36504-43.32578-38.10931-26.73906-39.44583"/>
<path transform="matrix(1,0,0,-1,89.291,1131.018)" stroke-width=".3985" stroke-linecap="round" stroke-linejoin="round" fill="none" stroke="#000000" d="M-13.58159 37.56519C-4.24414 39.13893 9.40628 23.59615 16.90709 2.84967 24.4079-17.89679 22.91904-35.99142 13.58159-37.56516"/>
<path transform="matrix(1,0,0,-1,89.291,1131.018)" stroke-width=".3985" stroke-linecap="round" stroke-linejoin="round" fill="none" stroke="#000000" d="M-59.77531 21.50847C-38.73795 34.28647 5.07817 35.01556 38.09116 23.13667 71.10413 11.25778 80.81268-8.73048 59.77531-21.5085"/>
<path transform="matrix(1,0,0,-1,89.291,1131.018)" stroke-width=".3985" stroke-linecap="round" stroke-linejoin="round" fill="none" stroke="#000000" d="M63.13057-19.35895C45.70549-31.16772 3.3147-39.02892-31.55177-36.91763-45.21587-36.09044-56.30447-33.78143-63.13252-30.34135"/>
<path transform="matrix(1,0,0,-1,89.291,1131.018)" stroke-width=".3985" stroke-linecap="round" stroke-linejoin="round" fill="none" stroke="#000000" d="M81.49268 7.0886C81.49292-6.19798 45.00667-20.14279-.00006-24.05775-45.00682-27.97273-81.49252-20.37515-81.49277-7.08856"/>
<path transform="matrix(1,0,0,-1,89.291,1131.018)" stroke-width=".3985" stroke-linecap="round" stroke-linejoin="round" fill="none" stroke="#000000" d="M63.1321 30.34128C80.5562 21.56354 66.41698 7.81952 31.54958-.35721-3.31783-8.53395-45.70789-8.04716-63.132 .73056-73.05704 5.73038-73.05627 12.63274-63.131 19.35887"/>
<path transform="matrix(1,0,0,-1,89.291,1131.018)" stroke-width=".3985" stroke-linecap="round" stroke-linejoin="round" fill="none" stroke="#000000" d="M-.00041 38.93811C22.50293 40.8956 40.74574 37.09679 40.74585 30.4535 40.74596 23.81023 22.50284 16.83783-.0005 14.88034-22.50388 12.92287-40.74669 16.72166-40.7468 23.36494-40.7469 30.00822-22.50378 36.98064-.00041 38.93811"/>
<path transform="matrix(1,0,0,-1,89.291,1131.018)" stroke-width=".3985" stroke-linecap="round" stroke-linejoin="round" fill="none" stroke="#000000" d="M81.5027 7.0897C81.5027 28.79547 45.01326 43.21684 0 39.30125-45.01326 35.38567-81.5027 14.61604-81.5027-7.0897-81.5027-28.79547-45.01326-43.21684 0-39.30125 45.01326-35.38567 81.5027-14.61604 81.5027 7.0897ZM0 0"/>
</g>
<path transform="matrix(1,0,0,-1,89.291,-59.528078)" stroke-width=".3985" stroke-linecap="butt" stroke-miterlimit="10" stroke-linejoin="miter" fill="none" stroke="#000000" d="M0-1309.617"/>
<g clip-path="url(#clip_31)">
<path transform="matrix(1,0,0,-1,89.291,1250.0719)" stroke-width=".3985" stroke-linecap="round" stroke-linejoin="round" fill="none" stroke="#000000" d="M73.95953 23.36989C59.3376 37.73541 14.37016 38.91792-26.47606 26.01132-67.3223 13.10472-88.58153-9.0044-73.9596-23.36992"/>
<path transform="matrix(1,0,0,-1,89.291,1250.0719)" stroke-width=".3985" stroke-linecap="round" stroke-linejoin="round" fill="none" stroke="#000000" d="M26.12476 40.47144C9.24167 41.83017-16.14125 24.81256-30.56926 2.46088-44.99725-19.8908-43.0079-39.11266-26.12482-40.4714"/>
<path transform="matrix(1,0,0,-1,89.291,1250.0719)" stroke-width=".3985" stroke-linecap="round" stroke-linejoin="round" fill="none" stroke="#000000" d="M-13.2427 38.63991C-3.758 40.23784 9.86002 24.23305 17.17383 2.89291 24.48766-18.4472 22.72745-37.04195 13.24274-38.63988"/>
<path transform="matrix(1,0,0,-1,89.291,1250.0719)" stroke-width=".3985" stroke-linecap="round" stroke-linejoin="round" fill="none" stroke="#000000" d="M-59.05386 22.65338C-37.40321 35.80348 6.58704 36.32117 39.20198 23.81003 71.81694 11.29889 80.70456-9.50327 59.05391-22.65335"/>
<path transform="matrix(1,0,0,-1,89.291,1250.0719)" stroke-width=".3985" stroke-linecap="round" stroke-linejoin="round" fill="none" stroke="#000000" d="M63.74486-19.58043C47.01678-31.42891 4.91478-39.51312-30.29108-37.63733-44.95691-36.85596-56.78221-34.39442-63.7504-30.6709"/>
<path transform="matrix(1,0,0,-1,89.291,1250.0719)" stroke-width=".3985" stroke-linecap="round" stroke-linejoin="round" fill="none" stroke="#000000" d="M81.49268 7.08907C81.49292-6.19757 45.00667-20.14265-.00006-24.05788-45.00682-27.97311-81.49252-20.37572-81.49277-7.08907"/>
<path transform="matrix(1,0,0,-1,89.291,1250.0719)" stroke-width=".3985" stroke-linecap="round" stroke-linejoin="round" fill="none" stroke="#000000" d="M63.74838 30.67061C80.4756 21.73166 65.49619 7.99928 30.2878-.0016-4.92058-8.00252-47.0231-7.24287-63.75032 1.69606-72.85492 6.56133-72.85226 13.13094-63.74687 19.58014"/>
<path transform="matrix(1,0,0,-1,89.291,1250.0719)" stroke-width=".3985" stroke-linecap="round" stroke-linejoin="round" fill="none" stroke="#000000" d="M-.00041 40.05968C22.50293 42.01729 40.74574 38.2186 40.74585 31.57527 40.74596 24.93195 22.50284 17.9594-.0005 16.00179-22.50388 14.04419-40.74669 17.84288-40.7468 24.4862-40.7469 31.12953-22.50378 38.10208-.00041 40.05968"/>
<path transform="matrix(1,0,0,-1,89.291,1250.0719)" stroke-width=".3985" stroke-linecap="round" stroke-linejoin="round" fill="none" stroke="#000000" d="M81.5027 7.09015C81.5027 29.36566 45.01326 44.24867 0 40.33286-45.01326 36.41702-81.5027 15.18533-81.5027-7.09015-81.5027-29.36566-45.01326-44.24867 0-40.33286 45.01326-36.41702 81.5027-15.18533 81.5027 7.09015ZM0 0"/>
</g>
<path transform="matrix(1,0,0,-1,89.291,-59.528078)" stroke-width=".3985" stroke-linecap="butt" stroke-miterlimit="10" stroke-linejoin="miter" fill="none" stroke="#000000" d="M0-1428.673"/>
<g clip-path="url(#clip_32)">
<path transform="matrix(1,0,0,-1,89.291,1369.127)" stroke-width=".3985" stroke-linecap="round" stroke-linejoin="round" fill="none" stroke="#000000" d="M74.2928 22.61517C60.19232 36.46799 15.49939 37.57263-25.53145 25.08266-66.56229 12.5927-88.3933-8.76234-74.2928-22.61517"/>
<path transform="matrix(1,0,0,-1,89.291,1369.127)" stroke-width=".3985" stroke-linecap="round" stroke-linejoin="round" fill="none" stroke="#000000" d="M26.739 39.44498C10.15228 40.78143-15.26624 24.20424-30.03357 2.41978-44.8009-19.36465-43.32578-38.10852-26.73906-39.44498"/>
<path transform="matrix(1,0,0,-1,89.291,1369.127)" stroke-width=".3985" stroke-linecap="round" stroke-linejoin="round" fill="none" stroke="#000000" d="M-13.58159 37.56435C-4.24414 39.13806 9.40628 23.5956 16.90709 2.84961 24.4079-17.89636 22.91904-35.99062 13.58159-37.56435"/>
<path transform="matrix(1,0,0,-1,89.291,1369.127)" stroke-width=".3985" stroke-linecap="round" stroke-linejoin="round" fill="none" stroke="#000000" d="M-59.77531 21.50787C-38.73795 34.28566 5.07817 35.01479 38.09116 23.13623 71.10413 11.25768 80.81268-8.73012 59.77531-21.5079"/>
<path transform="matrix(1,0,0,-1,89.291,1369.127)" stroke-width=".3985" stroke-linecap="round" stroke-linejoin="round" fill="none" stroke="#000000" d="M63.13057-19.3584C45.70549-31.16695 3.3147-39.02805-31.55177-36.91687-45.21587-36.08972-56.30447-33.78079-63.13252-30.3408"/>
<path transform="matrix(1,0,0,-1,89.291,1369.127)" stroke-width=".3985" stroke-linecap="round" stroke-linejoin="round" fill="none" stroke="#000000" d="M81.49268 7.0886C81.49292-6.1977 45.00667-20.14227-.00006-24.05725-45.00682-27.97221-81.49252-20.37486-81.49277-7.08856"/>
<path transform="matrix(1,0,0,-1,89.291,1369.127)" stroke-width=".3985" stroke-linecap="round" stroke-linejoin="round" fill="none" stroke="#000000" d="M63.1321 30.34073C80.5562 21.56322 66.41698 7.81946 31.54958-.35716-3.31783-8.5338-45.70789-8.04709-63.132 .73041-73.05704 5.73009-73.05627 12.63232-63.131 19.35832"/>
<path transform="matrix(1,0,0,-1,89.291,1369.127)" stroke-width=".3985" stroke-linecap="round" stroke-linejoin="round" fill="none" stroke="#000000" d="M-.00041 38.93726C22.50293 40.89473 40.74574 37.09605 40.74585 30.45293 40.74596 23.8098 22.50284 16.83751-.0005 14.88004-22.50388 12.92258-40.74669 16.72124-40.7468 23.36436-40.7469 30.00749-22.50378 36.9798-.00041 38.93726"/>
<path transform="matrix(1,0,0,-1,89.291,1369.127)" stroke-width=".3985" stroke-linecap="round" stroke-linejoin="round" fill="none" stroke="#000000" d="M81.5027 7.0897C81.5027 28.79498 45.01326 43.21597 0 39.30038-45.01326 35.3848-81.5027 14.61555-81.5027-7.0897-81.5027-28.79498-45.01326-43.21597 0-39.30038 45.01326-35.3848 81.5027-14.61555 81.5027 7.0897ZM0 0"/>
</g>
<path transform="matrix(1,0,0,-1,89.291,-59.528078)" stroke-width=".3985" stroke-linecap="butt" stroke-miterlimit="10" stroke-linejoin="miter" fill="none" stroke="#000000" d="M0-1547.729"/>
<g clip-path="url(#clip_33)">
<path transform="matrix(1,0,0,-1,89.291,1488.1819)" stroke-width=".3985" stroke-linecap="round" stroke-linejoin="round" fill="none" stroke="#000000" d="M74.61284 21.88382C61.03978 35.2163 16.63095 36.22696-24.5761 24.14091-65.78314 12.05487-88.18596-8.55138-74.6129-21.88385"/>
<path transform="matrix(1,0,0,-1,89.291,1488.1819)" stroke-width=".3985" stroke-linecap="round" stroke-linejoin="round" fill="none" stroke="#000000" d="M27.3698 38.43747C11.09848 39.74791-14.34578 23.6014-29.46165 2.37292-44.57753-18.85553-43.64114-37.12709-27.36983-38.43753"/>
<path transform="matrix(1,0,0,-1,89.291,1488.1819)" stroke-width=".3985" stroke-linecap="round" stroke-linejoin="round" fill="none" stroke="#000000" d="M-13.9327 36.50665C-4.75409 38.05353 8.9248 22.96278 16.61952 2.80095 24.31425-17.36089 23.11133-34.95976 13.93272-36.50665"/>
<path transform="matrix(1,0,0,-1,89.291,1488.1819)" stroke-width=".3985" stroke-linecap="round" stroke-linejoin="round" fill="none" stroke="#000000" d="M-60.49458 20.3902C-40.0932 32.78148 3.5304 33.69768 36.94032 22.43658 70.35027 11.17548 80.89598-7.99893 60.49461-20.39023"/>
<path transform="matrix(1,0,0,-1,89.291,1488.1819)" stroke-width=".3985" stroke-linecap="round" stroke-linejoin="round" fill="none" stroke="#000000" d="M62.42406-19.18156C44.23985-30.94112 1.54936-38.55197-32.92671-36.18095-45.50386-35.3158-55.79277-33.17296-62.4258-30.03625"/>
<path transform="matrix(1,0,0,-1,89.291,1488.1819)" stroke-width=".3985" stroke-linecap="round" stroke-linejoin="round" fill="none" stroke="#000000" d="M81.49268 7.08556C81.49292-6.20192 45.00667-20.1461-.00006-24.05939-45.00682-27.97267-81.49252-20.37302-81.49277-7.08553"/>
<path transform="matrix(1,0,0,-1,89.291,1488.1819)" stroke-width=".3985" stroke-linecap="round" stroke-linejoin="round" fill="none" stroke="#000000" d="M62.42485 30.036C80.60811 21.43825 67.40059 7.68663 32.92375-.67932-1.55307-9.04529-44.24232-8.85767-62.42558-.25992-73.28963 4.87703-73.29036 12.15529-62.425 19.1813"/>
<path transform="matrix(1,0,0,-1,89.291,1488.1819)" stroke-width=".3985" stroke-linecap="round" stroke-linejoin="round" fill="none" stroke="#000000" d="M-.00041 37.81674C22.50293 39.77338 40.74574 35.97356 40.74585 29.32983 40.74596 22.68611 22.50284 15.71402-.0005 13.75739-22.50388 11.80075-40.74669 15.60057-40.7468 22.2443-40.7469 28.888-22.50378 35.8601-.00041 37.81674"/>
<path transform="matrix(1,0,0,-1,89.291,1488.1819)" stroke-width=".3985" stroke-linecap="round" stroke-linejoin="round" fill="none" stroke="#000000" d="M81.5027 7.08669C81.5027 28.2313 45.01326 42.19913 0 38.28522-45.01326 34.3713-81.5027 14.05792-81.5027-7.08669-81.5027-28.2313-45.01326-42.19913 0-38.28522 45.01326-34.3713 81.5027-14.05792 81.5027 7.08669ZM0 0"/>
</g>
<path transform="matrix(1,0,0,-1,89.291,-59.528078)" stroke-width=".3985" stroke-linecap="butt" stroke-miterlimit="10" stroke-linejoin="miter" fill="none" stroke="#000000" d="M0-1666.7852"/>
<g clip-path="url(#clip_34)">
<path transform="matrix(1,0,0,-1,89.291,1607.236)" stroke-width=".3985" stroke-linecap="round" stroke-linejoin="round" fill="none" stroke="#000000" d="M74.9257 21.1782C61.89328 33.98544 17.78174 34.88506-23.59912 23.1889-64.97998 11.49277-87.95818-8.37099-74.92574-21.17824"/>
<path transform="matrix(1,0,0,-1,89.291,1607.236)" stroke-width=".3985" stroke-linecap="round" stroke-linejoin="round" fill="none" stroke="#000000" d="M28.01595 37.44627C12.08458 38.72878-13.37444 23.00294-28.84682 2.32237-44.31918-18.35818-43.94734-36.16382-28.01598-37.4463"/>
<path transform="matrix(1,0,0,-1,89.291,1607.236)" stroke-width=".3985" stroke-linecap="round" stroke-linejoin="round" fill="none" stroke="#000000" d="M-14.29272 35.46173C-5.28487 36.97858 8.41684 22.33105 16.31046 2.74637 24.20407-16.83832 23.30064-33.94484 14.29279-35.46169"/>
<path transform="matrix(1,0,0,-1,89.291,1607.236)" stroke-width=".3985" stroke-linecap="round" stroke-linejoin="round" fill="none" stroke="#000000" d="M-61.2041 19.29344C-41.45927 31.28517 1.95016 32.36868 35.75163 21.71336 69.55312 11.05803 80.94899-7.30171 61.20416-19.29344"/>
<path transform="matrix(1,0,0,-1,89.291,1607.236)" stroke-width=".3985" stroke-linecap="round" stroke-linejoin="round" fill="none" stroke="#000000" d="M61.61125-19.0451C42.6004-30.74406-.39536-38.07706-34.4226-35.42361-45.82512-34.53465-55.24396-32.57295-61.61395-29.76057"/>
<path transform="matrix(1,0,0,-1,89.291,1607.236)" stroke-width=".3985" stroke-linecap="round" stroke-linejoin="round" fill="none" stroke="#000000" d="M81.49268 7.08672C81.49292-6.20042 45.00667-20.1449-.00006-24.05882-45.00682-27.97276-81.49252-20.3739-81.49277-7.08675"/>
<path transform="matrix(1,0,0,-1,89.291,1607.236)" stroke-width=".3985" stroke-linecap="round" stroke-linejoin="round" fill="none" stroke="#000000" d="M61.613 29.76062C80.62221 21.36751 68.449 7.6154 34.42027-.9558 .39154-9.52702-42.60428-9.67215-61.6135-1.27904-73.56093 3.99602-73.56041 11.69223-61.6122 19.04515"/>
<path transform="matrix(1,0,0,-1,89.291,1607.236)" stroke-width=".3985" stroke-linecap="round" stroke-linejoin="round" fill="none" stroke="#000000" d="M-.00041 36.69513C22.50293 38.6521 40.74574 34.85266 40.74585 28.20909 40.74596 21.56552 22.50284 14.59329-.0005 12.63634-22.50388 10.67937-40.74669 14.4788-40.7468 21.12238-40.7469 27.76595-22.50378 34.73817-.00041 36.69513"/>
<path transform="matrix(1,0,0,-1,89.291,1607.236)" stroke-width=".3985" stroke-linecap="round" stroke-linejoin="round" fill="none" stroke="#000000" d="M81.5027 7.088C81.5027 27.68124 45.01326 41.20155 0 37.28691-45.01326 33.37228-81.5027 13.50525-81.5027-7.088-81.5027-27.68124-45.01326-41.20155 0-37.28691 45.01326-33.37228 81.5027-13.50525 81.5027 7.088ZM0 0"/>
</g>
<path transform="matrix(1,0,0,-1,89.291,-59.528078)" stroke-width=".3985" stroke-linecap="butt" stroke-miterlimit="10" stroke-linejoin="miter" fill="none" stroke="#000000" d="M0-1785.8412"/>
<g clip-path="url(#clip_35)">
<path transform="matrix(1,0,0,-1,89.291,1726.2909)" stroke-width=".3985" stroke-linecap="round" stroke-linejoin="round" fill="none" stroke="#000000" d="M75.229 20.5063C62.73839 32.77963 18.93011 33.5479-22.61736 22.22284-64.16486 10.89778-87.71962-8.233-75.229-20.50633"/>
<path transform="matrix(1,0,0,-1,89.291,1726.2909)" stroke-width=".3985" stroke-linecap="round" stroke-linejoin="round" fill="none" stroke="#000000" d="M28.67621 36.47565C13.10748 37.72644-12.35213 22.40968-28.18962 2.2647-44.0271-17.88028-44.24493-35.2249-28.67621-36.47568"/>
<path transform="matrix(1,0,0,-1,89.291,1726.2909)" stroke-width=".3985" stroke-linecap="round" stroke-linejoin="round" fill="none" stroke="#000000" d="M-14.6667 34.4329C-5.84418 35.92064 7.87476 21.71017 15.97487 2.69368 24.07498-16.32281 23.48924-32.94522 14.6667-34.43294"/>
<path transform="matrix(1,0,0,-1,89.291,1726.2909)" stroke-width=".3985" stroke-linecap="round" stroke-linejoin="round" fill="none" stroke="#000000" d="M-61.91039 18.2186C-42.84697 29.79929 .32559 31.03064 34.51753 20.96883 68.70947 10.90701 80.97386-6.63795 61.91045-18.21866"/>
<path transform="matrix(1,0,0,-1,89.291,1726.2909)" stroke-width=".3985" stroke-linecap="round" stroke-linejoin="round" fill="none" stroke="#000000" d="M60.66771-18.95825C40.75215-30.58315-2.55473-37.60535-36.06087-34.6424-46.18524-33.74712-54.65205-31.98438-60.66953-29.51892"/>
<path transform="matrix(1,0,0,-1,89.291,1726.2909)" stroke-width=".3985" stroke-linecap="round" stroke-linejoin="round" fill="none" stroke="#000000" d="M81.49268 7.09317C81.49292-6.19334 45.00667-20.14015-.00006-24.05765-45.00682-27.97516-81.49252-20.3797-81.49277-7.09317"/>
<path transform="matrix(1,0,0,-1,89.291,1726.2909)" stroke-width=".3985" stroke-linecap="round" stroke-linejoin="round" fill="none" stroke="#000000" d="M60.66827 29.5187C80.58235 21.36055 69.56395 7.617 36.05765-1.17827 2.55133-9.97356-40.75468-10.49016-60.66876-2.332-73.87553 3.07854-73.87706 11.24834-60.66896 18.95804"/>
<path transform="matrix(1,0,0,-1,89.291,1726.2909)" stroke-width=".3985" stroke-linecap="round" stroke-linejoin="round" fill="none" stroke="#000000" d="M-.00041 35.57344C22.50293 37.53218 40.74574 33.73448 40.74585 27.09122 40.74596 20.44795 22.50284 13.47453-.0005 11.5158-22.50388 9.55705-40.74669 13.35477-40.7468 19.99803-40.7469 26.6413-22.50378 33.6147-.00041 35.57344"/>
<path transform="matrix(1,0,0,-1,89.291,1726.2909)" stroke-width=".3985" stroke-linecap="round" stroke-linejoin="round" fill="none" stroke="#000000" d="M81.5027 7.09447C81.5027 27.14665 45.01326 40.22545 0 36.30722-45.01326 32.389-81.5027 12.9577-81.5027-7.09447-81.5027-27.14665-45.01326-40.22545 0-36.30722 45.01326-32.389 81.5027-12.9577 81.5027 7.09447ZM0 0"/>
</g>
<path transform="matrix(1,0,0,-1,89.291,-59.528078)" stroke-width=".3985" stroke-linecap="butt" stroke-miterlimit="10" stroke-linejoin="miter" fill="none" stroke="#000000" d="M0-1904.8973"/>
<g clip-path="url(#clip_36)">
<path transform="matrix(1,0,0,-1,89.291,1845.345)" stroke-width=".3985" stroke-linecap="round" stroke-linejoin="round" fill="none" stroke="#000000" d="M75.52145 19.85011C63.57866 31.58536 20.08325 32.21089-21.62605 21.24829-63.33537 10.28568-87.46431-8.11487-75.52151-19.85011"/>
<path transform="matrix(1,0,0,-1,89.291,1845.345)" stroke-width=".3985" stroke-linecap="round" stroke-linejoin="round" fill="none" stroke="#000000" d="M29.35672 35.52455C14.17888 36.74535-11.2691 21.83005-27.48212 2.21059-43.69513-17.40886-44.53455-34.30382-29.35672-35.52461"/>
<path transform="matrix(1,0,0,-1,89.291,1845.345)" stroke-width=".3985" stroke-linecap="round" stroke-linejoin="round" fill="none" stroke="#000000" d="M-15.05156 33.42816C-6.42857 34.88072 7.30093 21.09183 15.61351 2.63028 23.92607-15.83124 23.67458-31.97562 15.05159-33.42819"/>
<path transform="matrix(1,0,0,-1,89.291,1845.345)" stroke-width=".3985" stroke-linecap="round" stroke-linejoin="round" fill="none" stroke="#000000" d="M-62.60374 17.18448C-44.24446 28.33543-1.33147 29.68118 33.24335 20.19069 67.81818 10.70018 80.96301-6.03352 62.60371-17.18448"/>
<path transform="matrix(1,0,0,-1,89.291,1845.345)" stroke-width=".3985" stroke-linecap="round" stroke-linejoin="round" fill="none" stroke="#000000" d="M59.55829-18.94579C38.64667-30.47516-4.9724-37.1358-37.8653-33.8223-46.59587-32.94292-54.01224-31.39885-59.56198-29.30382"/>
<path transform="matrix(1,0,0,-1,89.291,1845.345)" stroke-width=".3985" stroke-linecap="round" stroke-linejoin="round" fill="none" stroke="#000000" d="M81.49268 7.08624C81.49292-6.20108 45.00667-20.14543-.00006-24.05911-45.00682-27.97281-81.49252-20.37361-81.49277-7.08627"/>
<path transform="matrix(1,0,0,-1,89.291,1845.345)" stroke-width=".3985" stroke-linecap="round" stroke-linejoin="round" fill="none" stroke="#000000" d="M59.56078 29.30382C80.47238 21.4107 70.75809 7.68846 37.86343-1.34564 4.9688-10.37975-38.6498-11.3047-59.56139-3.41159-74.24835 2.13205-74.24612 10.84822-59.5595 18.94579"/>
<path transform="matrix(1,0,0,-1,89.291,1845.345)" stroke-width=".3985" stroke-linecap="round" stroke-linejoin="round" fill="none" stroke="#000000" d="M-.00041 34.45296C22.50293 36.40979 40.74574 32.6102 40.74585 25.96655 40.74596 19.3229 22.50284 12.35072-.0005 10.39388-22.50388 8.43703-40.74669 12.23663-40.7468 18.88026-40.7469 25.52391-22.50378 32.49611-.00041 34.45296"/>
<path transform="matrix(1,0,0,-1,89.291,1845.345)" stroke-width=".3985" stroke-linecap="round" stroke-linejoin="round" fill="none" stroke="#000000" d="M81.5027 7.08713C81.5027 26.60968 45.01326 39.26245 0 35.34828-45.01326 31.43413-81.5027 12.43542-81.5027-7.08713-81.5027-26.60968-45.01326-39.26245 0-35.34828 45.01326-31.43413 81.5027-12.43542 81.5027 7.08713ZM0 0"/>
</g>
<path transform="matrix(1,0,0,-1,89.291,-59.528078)" stroke-width=".3985" stroke-linecap="butt" stroke-miterlimit="10" stroke-linejoin="miter" fill="none" stroke="#000000" d="M0-2023.9534"/>
<g clip-path="url(#clip_37)">
<path transform="matrix(1,0,0,-1,89.291,1964.4)" stroke-width=".3985" stroke-linecap="round" stroke-linejoin="round" fill="none" stroke="#000000" d="M75.80075 19.22969C64.41176 30.4183 21.2424 30.87892-20.62154 20.25859-62.48549 9.63826-87.18983-8.04108-75.80084-19.22969"/>
<path transform="matrix(1,0,0,-1,89.291,1964.4)" stroke-width=".3985" stroke-linecap="round" stroke-linejoin="round" fill="none" stroke="#000000" d="M30.04823 34.59506C15.29012 35.7821-10.12718 21.25513-26.72249 2.1489-43.31778-16.9573-44.80643-33.40804-30.0483-34.5951"/>
<path transform="matrix(1,0,0,-1,89.291,1964.4)" stroke-width=".3985" stroke-linecap="round" stroke-linejoin="round" fill="none" stroke="#000000" d="M-15.44537 32.43797C-7.03783 33.8537 6.69302 20.4781 15.22334 2.56313 23.75366-15.35185 23.85295-31.02222 15.4454-32.43794"/>
<path transform="matrix(1,0,0,-1,89.291,1964.4)" stroke-width=".3985" stroke-linecap="round" stroke-linejoin="round" fill="none" stroke="#000000" d="M-63.28621 16.17001C-45.65593 26.87979-3.02959 28.322 31.92271 19.39157 66.87503 10.46114 80.91652-5.4602 63.28624-16.16998"/>
<path transform="matrix(1,0,0,-1,89.291,1964.4)" stroke-width=".3985" stroke-linecap="round" stroke-linejoin="round" fill="none" stroke="#000000" d="M58.24411-18.99655C44.00732-26.37747 19.7409-31.92372-5.396-33.54205-26.7229-34.91512-46.17052-33.29337-58.24898-29.133"/>
<path transform="matrix(1,0,0,-1,89.291,1964.4)" stroke-width=".3985" stroke-linecap="round" stroke-linejoin="round" fill="none" stroke="#000000" d="M81.49268 7.09064C81.49292-6.19577 45.00667-20.14139-.00006-24.0575-45.00682-27.97359-81.49252-20.37709-81.49277-7.09067"/>
<path transform="matrix(1,0,0,-1,89.291,1964.4)" stroke-width=".3985" stroke-linecap="round" stroke-linejoin="round" fill="none" stroke="#000000" d="M58.24686 29.13252C80.25879 21.55095 72.02628 7.86801 39.85661-1.42918 7.68695-10.7264-36.23648-12.11786-58.24841-4.5363-74.68831 1.12596-74.68571 10.47316-58.24622 18.99606"/>
<path transform="matrix(1,0,0,-1,89.291,1964.4)" stroke-width=".3985" stroke-linecap="round" stroke-linejoin="round" fill="none" stroke="#000000" d="M-.00041 33.33023C22.50293 35.28827 40.74574 31.49 40.74585 24.84682 40.74596 18.20363 22.50284 11.2308-.0005 9.27275-22.50388 7.31471-40.74669 11.11298-40.7468 17.75616-40.7469 24.39935-22.50378 31.37218-.00041 33.33023"/>
<path transform="matrix(1,0,0,-1,89.291,1964.4)" stroke-width=".3985" stroke-linecap="round" stroke-linejoin="round" fill="none" stroke="#000000" d="M81.5027 7.09189C81.5027 26.09654 45.01326 38.32735 0 34.41055-45.01326 30.49376-81.5027 11.91277-81.5027-7.09189-81.5027-26.09654-45.01326-38.32735 0-34.41055 45.01326-30.49376 81.5027-11.91277 81.5027 7.09189ZM0 0"/>
</g>
<path transform="matrix(1,0,0,-1,89.291,-59.528078)" stroke-width=".3985" stroke-linecap="butt" stroke-miterlimit="10" stroke-linejoin="miter" fill="none" stroke="#000000" d="M0-2143.0096"/>
<g clip-path="url(#clip_38)">
<path transform="matrix(1,0,0,-1,89.291,2083.454)" stroke-width=".3985" stroke-linecap="round" stroke-linejoin="round" fill="none" stroke="#000000" d="M76.06929 18.63676C65.2413 29.2749 22.40518 29.5549-19.6062 19.26225-61.6176 8.9696-86.89731-7.99864-76.06932-18.63676"/>
<path transform="matrix(1,0,0,-1,89.291,2083.454)" stroke-width=".3985" stroke-linecap="round" stroke-linejoin="round" fill="none" stroke="#000000" d="M30.75146 33.6935C16.44128 34.84447-8.92691 20.69257-25.91064 2.084-42.89436-16.52454-45.06165-32.54248-30.75146-33.69347"/>
<path transform="matrix(1,0,0,-1,89.291,2083.454)" stroke-width=".3985" stroke-linecap="round" stroke-linejoin="round" fill="none" stroke="#000000" d="M-15.85072 31.47487C-7.67616 32.85246 6.04774 19.87697 14.80177 2.49423 23.5558-14.8885 24.02539-30.09721 15.85081-31.47481"/>
<path transform="matrix(1,0,0,-1,89.291,2083.454)" stroke-width=".3985" stroke-linecap="round" stroke-linejoin="round" fill="none" stroke="#000000" d="M-63.95032 15.19365C-47.06851 25.44794-4.75041 26.9578 30.56854 18.56679 65.88751 10.17578 80.83217-4.93938 63.95035-15.19365"/>
<path transform="matrix(1,0,0,-1,89.291,2083.454)" stroke-width=".3985" stroke-linecap="round" stroke-linejoin="round" fill="none" stroke="#000000" d="M56.67001-19.13731C41.64326-26.42099 16.95152-31.72684-8.09392-33.05357-27.46046-34.0795-45.05289-32.61191-56.67212-29.00246"/>
<path transform="matrix(1,0,0,-1,89.291,2083.454)" stroke-width=".3985" stroke-linecap="round" stroke-linejoin="round" fill="none" stroke="#000000" d="M81.49268 7.09334C81.49292-6.19232 45.00667-20.1385-.00006-24.0561-45.00682-27.9737-81.49252-20.37898-81.49277-7.0933"/>
<path transform="matrix(1,0,0,-1,89.291,2083.454)" stroke-width=".3985" stroke-linecap="round" stroke-linejoin="round" fill="none" stroke="#000000" d="M56.67006 29.00201C79.90155 21.7852 73.36145 8.16664 42.06361-1.41537 10.76576-10.9974-33.44011-12.91461-56.67159-5.6978-75.2089 .06087-75.21027 10.15092-56.67207 19.13686"/>
<path transform="matrix(1,0,0,-1,89.291,2083.454)" stroke-width=".3985" stroke-linecap="round" stroke-linejoin="round" fill="none" stroke="#000000" d="M-.00041 32.21074C22.50293 34.16953 40.74574 30.37216 40.74585 23.72934 40.74596 17.08652 22.50284 10.11343-.0005 8.15463-22.50388 6.19585-40.74669 9.99321-40.7468 16.63603-40.7469 23.27885-22.50378 30.25194-.00041 32.21074"/>
<path transform="matrix(1,0,0,-1,89.291,2083.454)" stroke-width=".3985" stroke-linecap="round" stroke-linejoin="round" fill="none" stroke="#000000" d="M81.5027 7.09447C81.5027 25.59459 45.01326 37.41524 0 33.49702-45.01326 29.5788-81.5027 11.40564-81.5027-7.09447-81.5027-25.59459-45.01326-37.41524 0-33.49702 45.01326-29.5788 81.5027-11.40564 81.5027 7.09447ZM0 0"/>
</g>
<path transform="matrix(1,0,0,-1,89.291,-59.528078)" stroke-width=".3985" stroke-linecap="butt" stroke-miterlimit="10" stroke-linejoin="miter" fill="none" stroke="#000000" d="M0-2262.0655"/>
<g clip-path="url(#clip_39)">
<path transform="matrix(1,0,0,-1,89.291,2202.5089)" stroke-width=".3985" stroke-linecap="round" stroke-linejoin="round" fill="none" stroke="#000000" d="M76.32582 18.07661C66.06482 28.15665 23.57394 28.2345-18.58008 18.25111-60.73412 8.26773-86.58682-7.9966-76.32582-18.07661"/>
<path transform="matrix(1,0,0,-1,89.291,2202.5089)" stroke-width=".3985" stroke-linecap="round" stroke-linejoin="round" fill="none" stroke="#000000" d="M31.46448 32.81764C17.63599 33.92833-7.66226 20.13533-25.0393 2.011-42.41635-16.11331-45.29301-31.70699-31.46451-32.81767"/>
<path transform="matrix(1,0,0,-1,89.291,2202.5089)" stroke-width=".3985" stroke-linecap="round" stroke-linejoin="round" fill="none" stroke="#000000" d="M-16.26408 30.53113C-8.34169 31.86644 5.3627 19.27928 14.34506 2.41759 23.32742-14.44408 24.18652-29.19585 16.26411-30.53116"/>
<path transform="matrix(1,0,0,-1,89.291,2202.5089)" stroke-width=".3985" stroke-linecap="round" stroke-linejoin="round" fill="none" stroke="#000000" d="M-64.60472 14.24442C-48.49951 24.02965-6.51778 25.58434 29.16243 17.71759 64.84267 9.85086 80.70993-4.4592 64.60472-14.24445"/>
<path transform="matrix(1,0,0,-1,89.291,2202.5089)" stroke-width=".3985" stroke-linecap="round" stroke-linejoin="round" fill="none" stroke="#000000" d="M54.7463-19.38077C38.83719-26.5398 13.69363-31.56073-11.19751-32.54935-28.30476-33.22887-43.81549-31.93681-54.74901-28.92209"/>
<path transform="matrix(1,0,0,-1,89.291,2202.5089)" stroke-width=".3985" stroke-linecap="round" stroke-linejoin="round" fill="none" stroke="#000000" d="M81.49268 7.10141C81.49292-6.18376 45.00667-20.13318-.00006-24.05524-45.00682-27.97731-81.49252-20.38664-81.49277-7.10144"/>
<path transform="matrix(1,0,0,-1,89.291,2202.5089)" stroke-width=".3985" stroke-linecap="round" stroke-linejoin="round" fill="none" stroke="#000000" d="M54.74771 28.92192C79.34407 22.14009 74.77246 8.62015 44.53629-1.27509 14.30011-11.17035-30.1522-13.69455-54.74857-6.9127-75.8509-1.09433-75.85019 9.88449-54.7476 19.3806"/>
<path transform="matrix(1,0,0,-1,89.291,2202.5089)" stroke-width=".3985" stroke-linecap="round" stroke-linejoin="round" fill="none" stroke="#000000" d="M-.00041 31.08861C22.50293 33.04962 40.74574 29.2543 40.74585 22.61171 40.74596 15.9691 22.50284 8.99442-.0005 7.03339-22.50388 5.07236-40.74669 8.86769-40.7468 15.51028-40.7469 22.15288-22.50378 29.12758-.00041 31.08861"/>
<path transform="matrix(1,0,0,-1,89.291,2202.5089)" stroke-width=".3985" stroke-linecap="round" stroke-linejoin="round" fill="none" stroke="#000000" d="M81.5027 7.10226C81.5027 25.1122 45.01326 36.53197 0 32.60945-45.01326 28.68694-81.5027 10.90765-81.5027-7.10226-81.5027-25.1122-45.01326-36.53197 0-32.60945 45.01326-28.68694 81.5027-10.90765 81.5027 7.10226ZM0 0"/>
</g>
<path transform="matrix(1,0,0,-1,89.291,-59.528078)" stroke-width=".3985" stroke-linecap="butt" stroke-miterlimit="10" stroke-linejoin="miter" fill="none" stroke="#000000" d="M0-2381.1217"/>
<g clip-path="url(#clip_40)">
<path transform="matrix(1,0,0,-1,89.291,2321.563)" stroke-width=".3985" stroke-linecap="round" stroke-linejoin="round" fill="none" stroke="#000000" d="M76.57274 17.53596C66.88353 27.05379 24.74504 26.91835-17.54443 17.23367-59.83391 7.549-86.26201-8.01814-76.5728-17.53596"/>
<path transform="matrix(1,0,0,-1,89.291,2321.563)" stroke-width=".3985" stroke-linecap="round" stroke-linejoin="round" fill="none" stroke="#000000" d="M32.18794 31.96866C18.8755 33.03986-6.32762 19.59488-24.10475 1.93909-41.88188-15.7167-45.5004-30.89743-32.18794-31.96863"/>
<path transform="matrix(1,0,0,-1,89.291,2321.563)" stroke-width=".3985" stroke-linecap="round" stroke-linejoin="round" fill="none" stroke="#000000" d="M-16.68636 29.61935C-9.0363 30.90823 4.63599 18.69199 13.85165 2.33362 23.06732-14.02473 24.33643-28.33049 16.68639-29.61935"/>
<path transform="matrix(1,0,0,-1,89.291,2321.563)" stroke-width=".3985" stroke-linecap="round" stroke-linejoin="round" fill="none" stroke="#000000" d="M-65.23856 13.34366C-49.9305 22.64297-8.31221 24.20697 27.71846 16.83757 63.74915 9.46817 80.54659-4.04436 65.23853-13.34366"/>
<path transform="matrix(1,0,0,-1,89.291,2321.563)" stroke-width=".3985" stroke-linecap="round" stroke-linejoin="round" fill="none" stroke="#000000" d="M52.35876-19.76651C35.45425-26.75975 9.8466-31.43025-14.8024-32.0165-29.28368-32.36076-42.42915-31.26582-52.35939-28.8871"/>
<path transform="matrix(1,0,0,-1,89.291,2321.563)" stroke-width=".3985" stroke-linecap="round" stroke-linejoin="round" fill="none" stroke="#000000" d="M81.49268 7.09807C81.49292-6.18747 45.00667-20.13567-.00006-24.05586-45.00682-27.97606-81.49252-20.38359-81.49277-7.09804"/>
<path transform="matrix(1,0,0,-1,89.291,2321.563)" stroke-width=".3985" stroke-linecap="round" stroke-linejoin="round" fill="none" stroke="#000000" d="M52.35855 28.88669C78.49356 22.62685 76.23853 9.25655 47.32092-.97697 18.40332-11.21053-26.22507-14.43204-52.36008-8.1722-76.64496-2.35568-76.64566 9.7191-52.3596 19.76611"/>
<path transform="matrix(1,0,0,-1,89.291,2321.563)" stroke-width=".3985" stroke-linecap="round" stroke-linejoin="round" fill="none" stroke="#000000" d="M-.00041 29.9677C22.50293 31.9278 40.74574 28.13155 40.74585 21.48878 40.74596 14.84602 22.50284 7.87192-.0005 5.91182-22.50388 3.95172-40.74669 7.74797-40.7468 14.39073-40.7469 21.0335-22.50378 28.0076-.00041 29.9677"/>
<path transform="matrix(1,0,0,-1,89.291,2321.563)" stroke-width=".3985" stroke-linecap="round" stroke-linejoin="round" fill="none" stroke="#000000" d="M81.5027 7.09923C81.5027 24.63449 45.01326 35.67084 0 31.75002-45.01326 27.82918-81.5027 10.43604-81.5027-7.09923-81.5027-24.63449-45.01326-35.67084 0-31.75002 45.01326-27.82918 81.5027-10.43604 81.5027 7.09923ZM0 0"/>
</g>
<path transform="matrix(1,0,0,-1,89.291,-59.528078)" stroke-width=".3985" stroke-linecap="butt" stroke-miterlimit="10" stroke-linejoin="miter" fill="none" stroke="#000000" d="M0-2500.1778"/>
<g clip-path="url(#clip_41)">
<path transform="matrix(1,0,0,-1,89.291,2440.6182)" stroke-width=".3985" stroke-linecap="round" stroke-linejoin="round" fill="none" stroke="#000000" d="M76.8065 17.02617C67.69865 25.97673 25.92702 25.60953-16.49193 16.20636-58.9109 6.80319-85.91437-8.07556-76.80653-17.02614"/>
<path transform="matrix(1,0,0,-1,89.291,2440.6182)" stroke-width=".3985" stroke-linecap="round" stroke-linejoin="round" fill="none" stroke="#000000" d="M32.91203 31.14975C20.15123 32.1763-4.92917 19.06206-23.10577 1.85873-41.28236-15.34456-45.6728-30.12318-32.912-31.14975"/>
<path transform="matrix(1,0,0,-1,89.291,2440.6182)" stroke-width=".3985" stroke-linecap="round" stroke-linejoin="round" fill="none" stroke="#000000" d="M-17.11623 28.73631C-9.76135 29.97708 3.8646 18.11674 13.31754 2.2464 22.77048-13.62393 24.47112-27.49551 17.11626-28.73628"/>
<path transform="matrix(1,0,0,-1,89.291,2440.6182)" stroke-width=".3985" stroke-linecap="round" stroke-linejoin="round" fill="none" stroke="#000000" d="M-65.85074 12.47725C-51.36687 21.27692-10.14227 22.82416 26.22585 15.93324 62.59398 9.04234 80.33461-3.67761 65.85074-12.47728"/>
<path transform="matrix(1,0,0,-1,89.291,2440.6182)" stroke-width=".3985" stroke-linecap="round" stroke-linejoin="round" fill="none" stroke="#000000" d="M49.32378-20.31505C21.90182-30.61287-21.9045-34.42801-49.32468-28.90685"/>
<path transform="matrix(1,0,0,-1,89.291,2440.6182)" stroke-width=".3985" stroke-linecap="round" stroke-linejoin="round" fill="none" stroke="#000000" d="M81.49268 7.0982C81.49292-6.18753 45.00667-20.13596-.00006-24.05623-45.00682-27.9765-81.49252-20.38393-81.49277-7.09818"/>
<path transform="matrix(1,0,0,-1,89.291,2440.6182)" stroke-width=".3985" stroke-linecap="round" stroke-linejoin="round" fill="none" stroke="#000000" d="M49.32378 28.90671C77.20139 23.29347 77.71878 10.14832 50.47769-.45375 23.2366-11.05585-21.44643-15.10057-49.32404-9.48734-67.35489-5.85666-74.62053 1.15886-68.378 8.91292-65.1742 12.89224-58.57939 16.83945-49.32468 20.31491"/>
<path transform="matrix(1,0,0,-1,89.291,2440.6182)" stroke-width=".3985" stroke-linecap="round" stroke-linejoin="round" fill="none" stroke="#000000" d="M-.00041 28.84618C22.50293 30.8063 40.74574 27.01001 40.74585 20.36716 40.74596 13.7243 22.50284 6.75008-.0005 4.78995-22.50388 2.82982-40.74669 6.62611-40.7468 13.26897-40.7469 19.91182-22.50378 26.88605-.00041 28.84618"/>
<path transform="matrix(1,0,0,-1,89.291,2440.6182)" stroke-width=".3985" stroke-linecap="round" stroke-linejoin="round" fill="none" stroke="#000000" d="M81.5027 7.09923C81.5027 24.1763 45.01326 34.84122 0 30.9204-45.01326 26.99956-81.5027 9.97784-81.5027-7.09923-81.5027-24.1763-45.01326-34.84122 0-30.9204 45.01326-26.99956 81.5027-9.97784 81.5027 7.09923ZM0 0"/>
</g>
</svg>
