<svg xmlns="http://www.w3.org/2000/svg" xmlns:xlink="http://www.w3.org/1999/xlink" version="1.1" width="178.582" height="3452.58" viewBox="0 0 178.582 3452.58">
<defs>
<clipPath id="clip_0">
<path transform="matrix(1,0,0,-1,0,119.05316)" d="M0 0H178.582V119.053H0Z"/>
</clipPath>
<clipPath id="clip_1">
<path transform="matrix(1,0,0,-1,0,238.10718)" d="M0 0H178.582V119.053H0Z"/>
</clipPath>
<clipPath id="clip_2">
<path transform="matrix(1,0,0,-1,0,357.16218)" d="M0 0H178.582V119.053H0Z"/>
</clipPath>
<clipPath id="clip_3">
<path transform="matrix(1,0,0,-1,0,476.2162)" d="M0 0H178.582V119.053H0Z"/>
</clipPath>
<clipPath id="clip_4">
<path transform="matrix(1,0,0,-1,0,595.2712)" d="M0 0H178.582V119.053H0Z"/>
</clipPath>
<clipPath id="clip_5">
<path transform="matrix(1,0,0,-1,0,714.3252)" d="M0 0H178.582V119.053H0Z"/>
</clipPath>
<clipPath id="clip_6">
<path transform="matrix(1,0,0,-1,0,833.3802)" d="M0 0H178.582V119.053H0Z"/>
</clipPath>
<clipPath id="clip_7">
<path transform="matrix(1,0,0,-1,0,952.4352)" d="M0 0H178.582V119.053H0Z"/>
</clipPath>
<clipPath id="clip_8">
<path transform="matrix(1,0,0,-1,0,1071.4891)" d="M0 0H178.582V119.053H0Z"/>
</clipPath>
<clipPath id="clip_9">
<path transform="matrix(1,0,0,-1,0,1190.5442)" d="M0 0H178.582V119.053H0Z"/>
</clipPath>
<clipPath id="clip_10">
<path transform="matrix(1,0,0,-1,0,1309.5982)" d="M0 0H178.582V119.053H0Z"/>
</clipPath>
<clipPath id="clip_11">
<path transform="matrix(1,0,0,-1,0,1428.6532)" d="M0 0H178.582V119.053H0Z"/>
</clipPath>
<clipPath id="clip_12">
<path transform="matrix(1,0,0,-1,0,1547.7072)" d="M0 0H178.582V119.053H0Z"/>
</clipPath>
<clipPath id="clip_13">
<path transform="matrix(1,0,0,-1,0,1666.7622)" d="M0 0H178.582V119.053H0Z"/>
</clipPath>
<clipPath id="clip_14">
<path transform="matrix(1,0,0,-1,0,1785.8162)" d="M0 0H178.582V119.053H0Z"/>
</clipPath>
<clipPath id="clip_15">
<path transform="matrix(1,0,0,-1,0,1904.8712)" d="M0 0H178.582V119.053H0Z"/>
</clipPath>
<clipPath id="clip_16">
<path transform="matrix(1,0,0,-1,0,2023.9263)" d="M0 0H178.582V119.053H0Z"/>
</clipPath>
<clipPath id="clip_17">
<path transform="matrix(1,0,0,-1,0,2142.9803)" d="M0 0H178.582V119.053H0Z"/>
</clipPath>
<clipPath id="clip_18">
<path transform="matrix(1,0,0,-1,0,2262.0352)" d="M0 0H178.582V119.053H0Z"/>
</clipPath>
<clipPath id="clip_19">
<path transform="matrix(1,0,0,-1,0,2381.089)" d="M0 0H178.582V119.053H0Z"/>
</clipPath>
<clipPath id="clip_20">
<path transform="matrix(1,0,0,-1,0,2500.1444)" d="M0 0H178.582V119.053H0Z"/>
</clipPath>
<clipPath id="clip_21">
<path transform="matrix(1,0,0,-1,0,2619.1983)" d="M0 0H178.582V119.053H0Z"/>
</clipPath>
<clipPath id="clip_22">
<path transform="matrix(1,0,0,-1,0,2738.2532)" d="M0 0H178.582V119.053H0Z"/>
</clipPath>
<clipPath id="clip_23">
<path transform="matrix(1,0,0,-1,0,2857.3072)" d="M0 0H178.582V119.053H0Z"/>
</clipPath>
<clipPath id="clip_24">
<path transform="matrix(1,0,0,-1,0,2976.362)" d="M0 0H178.582V119.053H0Z"/>
</clipPath>
<clipPath id="clip_25">
<path transform="matrix(1,0,0,-1,0,3095.4173)" d="M0 0H178.582V119.053H0Z"/>
</clipPath>
<clipPath id="clip_26">
<path transform="matrix(1,0,0,-1,0,3214.4713)" d="M0 0H178.582V119.053H0Z"/>
</clipPath>
<clipPath id="clip_27">
<path transform="matrix(1,0,0,-1,0,3333.5262)" d="M0 0H178.582V119.053H0Z"/>
</clipPath>
<clipPath id="clip_28">
<path transform="matrix(1,0,0,-1,0,3452.58)" d="M0 0H178.582V119.053H0Z"/>
</clipPath>
</defs>
<path transform="matrix(1,0,0,-1,89.291,-59.527833)" stroke-width=".3985" stroke-linecap="butt" stroke-miterlimit="10" stroke-linejoin="miter" fill="none" stroke="#000000" d="M0-119.05606"/>
<g clip-path="url(#clip_0)">
<path transform="matrix(1,0,0,-1,89.291,59.52716)" d="M81.5027 7.09923C81.5027 24.17654 45.01326 34.84166 0 30.92084-45.01326 27-81.5027 9.97809-81.5027-7.09923-81.5027-24.17654-45.01326-34.84166 0-30.92084 45.01326-27 81.5027-9.97809 81.5027 7.09923ZM0 0" fill="#e6e8e9"/>
<path transform="matrix(1,0,0,-1,89.291,59.52716)" stroke-width=".3985" stroke-linecap="round" stroke-linejoin="round" fill="none" stroke="#c0c0c0" d="M-76.8065-17.02641C-67.69865-25.97737-25.92702-25.61037 16.49193-16.20708 58.9109-6.80379 85.91437 8.07544 76.80653 17.02641"/>
<path transform="matrix(1,0,0,-1,89.291,59.52716)" stroke-width=".3985" stroke-linecap="round" stroke-linejoin="round" fill="none" stroke="#c0c0c0" d="M-32.91014-31.15047C-20.14812-32.17624 4.9323-19.06068 23.10828-1.8568 41.28426 15.34709 45.67224 30.12474 32.9102 31.1505"/>
<path transform="matrix(1,0,0,-1,89.291,59.52716)" stroke-width=".3985" stroke-linecap="round" stroke-linejoin="round" fill="none" stroke="#c0c0c0" d="M17.11623-28.73701C9.76135-29.97803-3.8646-18.11755-13.31754-2.24681-22.77048 13.62392-24.47112 27.49602-17.11626 28.73701"/>
<path transform="matrix(1,0,0,-1,89.291,59.52716)" stroke-width=".3985" stroke-linecap="round" stroke-linejoin="round" fill="none" stroke="#c0c0c0" d="M65.85074-12.47769C51.36687-21.2777 10.14227-22.82504-26.22585-15.9339-62.59398-9.04276-80.33461 3.67767-65.85074 12.47769"/>
<path transform="matrix(1,0,0,-1,89.291,59.52716)" stroke-width=".3985" stroke-linecap="round" stroke-linejoin="round" fill="none" stroke="#c0c0c0" d="M.00041-28.847C22.50378-26.88687 40.7469-19.91257 40.7468-13.26962 40.74669-6.62668 22.50388-2.8303 .0005-4.79044-22.50284-6.75056-40.74596-13.72487-40.74585-20.36781-40.74574-27.01076-22.50293-30.80711 .00041-28.847"/>
<path transform="matrix(1,0,0,-1,89.291,59.52716)" stroke-width=".3985" stroke-linecap="round" stroke-linejoin="round" fill="none" stroke="#c0c0c0" d="M49.32378-20.31564C77.20328-9.8459 77.71996 3.39001 50.47945 9.24733 23.23895 15.10463-21.44582 11.365-49.32532 .89526-67.35779-5.87672-74.62325-14.15894-68.37961-20.82542-65.17479-24.24675-58.57805-27.04413-49.32468-28.90744"/>
<path transform="matrix(1,0,0,-1,89.291,59.52716)" stroke-width=".3985" stroke-linecap="round" stroke-linejoin="round" fill="none" stroke="#c0c0c0" d="M81.49268 7.0982C81.49243 20.38414 45.00673 27.97685 0 24.05658-45.00676 20.1363-81.49301 6.18771-81.49277-7.0982"/>
<path transform="matrix(1,0,0,-1,89.291,59.52716)" stroke-width=".3985" stroke-linecap="round" stroke-linejoin="round" fill="none" stroke="#c0c0c0" d="M49.32378 28.9073C21.90358 34.42859-21.90274 30.61345-49.32468 20.3155"/>
</g>
<path transform="matrix(1,0,0,-1,89.291,-59.527833)" stroke-width=".3985" stroke-linecap="butt" stroke-miterlimit="10" stroke-linejoin="miter" fill="none" stroke="#000000" d="M0-238.11215"/>
<g clip-path="url(#clip_1)">
<path transform="matrix(1,0,0,-1,89.291,178.58118)" d="M81.5027 7.09578C81.5027 24.63152 45.01326 35.66982 0 31.75087-45.01326 27.83194-81.5027 10.43996-81.5027-7.09578-81.5027-24.63152-45.01326-35.66982 0-31.75087 45.01326-27.83194 81.5027-10.43996 81.5027 7.09578ZM0 0" fill="#e6e8e9"/>
<path transform="matrix(1,0,0,-1,89.291,178.58118)" stroke-width=".3985" stroke-linecap="round" stroke-linejoin="round" fill="none" stroke="#c0c0c0" d="M-76.57274-17.53299C-66.88353-27.0515-24.74504-26.91795 17.54443-17.2349 59.83391-7.55185 86.26201 8.01453 76.5728 17.53302"/>
<path transform="matrix(1,0,0,-1,89.291,178.58118)" stroke-width=".3985" stroke-linecap="round" stroke-linejoin="round" fill="none" stroke="#c0c0c0" d="M-32.18794-31.96808C-18.8755-33.0399 6.32762-19.59569 24.10475-1.9402 41.88188 15.71527 45.5004 30.89624 32.18794 31.96805"/>
<path transform="matrix(1,0,0,-1,89.291,178.58118)" stroke-width=".3985" stroke-linecap="round" stroke-linejoin="round" fill="none" stroke="#c0c0c0" d="M16.68636-29.62091C9.0363-30.90947-4.63599-18.6923-13.85165-2.33307-23.06732 14.02614-24.33643 28.33235-16.68639 29.62091"/>
<path transform="matrix(1,0,0,-1,89.291,178.58118)" stroke-width=".3985" stroke-linecap="round" stroke-linejoin="round" fill="none" stroke="#c0c0c0" d="M65.23856-13.34695C49.9305-22.64581 8.31221-24.20802-27.71846-16.83679-63.74915-9.46556-80.54659 4.04808-65.23853 13.34695"/>
<path transform="matrix(1,0,0,-1,89.291,178.58118)" stroke-width=".3985" stroke-linecap="round" stroke-linejoin="round" fill="none" stroke="#c0c0c0" d="M.00041-29.96852C22.50378-28.00938 40.7469-21.0359 40.7468-14.39294 40.74669-7.75 22.50388-3.95285 .0005-5.912-22.50284-7.87114-40.74596-14.84462-40.74585-21.48756-40.74574-28.13051-22.50293-31.92766 .00041-29.96852"/>
<path transform="matrix(1,0,0,-1,89.291,178.58118)" stroke-width=".3985" stroke-linecap="round" stroke-linejoin="round" fill="none" stroke="#c0c0c0" d="M52.35876-19.76941C78.49414-8.95804 76.23949 4.02045 47.32309 9.21815 18.40668 14.41586-26.22354 9.86485-52.35892-.9465-76.64497-10.99268-76.64427-23.06781-52.35939-28.88556"/>
<path transform="matrix(1,0,0,-1,89.291,178.58118)" stroke-width=".3985" stroke-linecap="round" stroke-linejoin="round" fill="none" stroke="#c0c0c0" d="M81.49268 7.0946C81.49243 20.38051 45.00673 27.97481 0 24.05653-45.00676 20.13824-81.49301 6.19128-81.49277-7.0946"/>
<path transform="matrix(1,0,0,-1,89.291,178.58118)" stroke-width=".3985" stroke-linecap="round" stroke-linejoin="round" fill="none" stroke="#c0c0c0" d="M52.35855 28.88513C35.45505 32.9349 9.84682 33.14616-14.80324 29.43918-29.28503 27.2611-42.42857 23.87718-52.3596 19.76898"/>
</g>
<path transform="matrix(1,0,0,-1,89.291,-59.527833)" stroke-width=".3985" stroke-linecap="butt" stroke-miterlimit="10" stroke-linejoin="miter" fill="none" stroke="#000000" d="M0-357.16825"/>
<g clip-path="url(#clip_2)">
<path transform="matrix(1,0,0,-1,89.291,297.63618)" d="M81.5027 7.10226C81.5027 25.11244 45.01326 36.53241 0 32.6099-45.01326 28.68738-81.5027 10.9079-81.5027-7.10226-81.5027-25.11244-45.01326-36.53241 0-32.6099 45.01326-28.68738 81.5027-10.9079 81.5027 7.10226ZM0 0" fill="#e6e8e9"/>
<path transform="matrix(1,0,0,-1,89.291,297.63618)" stroke-width=".3985" stroke-linecap="round" stroke-linejoin="round" fill="none" stroke="#c0c0c0" d="M-76.32582-18.07664C-66.06482-28.15654-23.57394-28.23427 18.58008-18.25089 60.73412-8.2675 86.58682 7.99677 76.32582 18.07664"/>
<path transform="matrix(1,0,0,-1,89.291,297.63618)" stroke-width=".3985" stroke-linecap="round" stroke-linejoin="round" fill="none" stroke="#c0c0c0" d="M-31.46448-32.81772C-17.63599-33.92822 7.66226-20.13504 25.0393-2.01067 42.41635 16.1137 45.29301 31.70724 31.46451 32.81775"/>
<path transform="matrix(1,0,0,-1,89.291,297.63618)" stroke-width=".3985" stroke-linecap="round" stroke-linejoin="round" fill="none" stroke="#c0c0c0" d="M16.26408-30.53122C8.34169-31.86633-5.3627-19.27898-14.34506-2.41724-23.32742 14.44447-24.18652 29.1961-16.26411 30.53122"/>
<path transform="matrix(1,0,0,-1,89.291,297.63618)" stroke-width=".3985" stroke-linecap="round" stroke-linejoin="round" fill="none" stroke="#c0c0c0" d="M64.60472-14.24448C48.49951-24.02957 6.51778-25.58412-29.16243-17.71735-64.84267-9.85059-80.70993 4.45937-64.60472 14.24448"/>
<path transform="matrix(1,0,0,-1,89.291,297.63618)" stroke-width=".3985" stroke-linecap="round" stroke-linejoin="round" fill="none" stroke="#c0c0c0" d="M.00041-31.08858C22.50378-29.12755 40.7469-22.15279 40.7468-15.51012 40.74669-8.86745 22.50388-5.07202 .0005-7.03305-22.50284-8.99408-40.74596-15.96884-40.74585-22.61151-40.74574-29.25418-22.50293-33.04959 .00041-31.08858"/>
<path transform="matrix(1,0,0,-1,89.291,297.63618)" stroke-width=".3985" stroke-linecap="round" stroke-linejoin="round" fill="none" stroke="#c0c0c0" d="M54.74426-19.38155C79.34253-8.31305 74.77313 4.41025 44.5382 9.0366 14.30324 13.66296-30.14828 8.44055-54.74654-2.62793-75.8515-12.1242-75.85135-23.10405-54.74768-28.92264"/>
<path transform="matrix(1,0,0,-1,89.291,297.63618)" stroke-width=".3985" stroke-linecap="round" stroke-linejoin="round" fill="none" stroke="#c0c0c0" d="M81.49268 7.10141C81.49243 20.38678 45.00673 27.9776 0 24.05556-45.00676 20.13351-81.49301 6.18393-81.49277-7.10141"/>
<path transform="matrix(1,0,0,-1,89.291,297.63618)" stroke-width=".3985" stroke-linecap="round" stroke-linejoin="round" fill="none" stroke="#c0c0c0" d="M54.74583 28.92244C38.8361 33.30867 13.68997 33.94781-11.20125 30.59756-28.3087 28.29477-43.81175 24.30156-54.74612 19.38135"/>
</g>
<path transform="matrix(1,0,0,-1,89.291,-59.527833)" stroke-width=".3985" stroke-linecap="butt" stroke-miterlimit="10" stroke-linejoin="miter" fill="none" stroke="#000000" d="M0-476.22434"/>
<g clip-path="url(#clip_3)">
<path transform="matrix(1,0,0,-1,89.291,416.6902)" d="M81.5027 7.09491C81.5027 25.59552 45.01326 37.41635 0 33.49788-45.01326 29.57942-81.5027 11.40569-81.5027-7.09491-81.5027-25.59552-45.01326-37.41635 0-33.49788 45.01326-29.57942 81.5027-11.40569 81.5027 7.09491ZM0 0" fill="#e6e8e9"/>
<path transform="matrix(1,0,0,-1,89.291,416.6902)" stroke-width=".3985" stroke-linecap="round" stroke-linejoin="round" fill="none" stroke="#c0c0c0" d="M-76.06929-18.63748C-65.2413-29.27583-22.40518-29.55571 19.6062-19.26265 61.6176-8.96959 86.89731 7.99915 76.06932 18.63751"/>
<path transform="matrix(1,0,0,-1,89.291,416.6902)" stroke-width=".3985" stroke-linecap="round" stroke-linejoin="round" fill="none" stroke="#c0c0c0" d="M-30.75146-33.69405C-16.44128-34.84518 8.92691-20.69316 25.91064-2.08429 42.89436 16.52457 45.06165 32.54292 30.75146 33.69405"/>
<path transform="matrix(1,0,0,-1,89.291,416.6902)" stroke-width=".3985" stroke-linecap="round" stroke-linejoin="round" fill="none" stroke="#c0c0c0" d="M15.85072-31.47525C7.67616-32.85307-6.04774-19.87764-14.80177-2.49467-23.5558 14.88829-24.02539 30.09738-15.85081 31.47522"/>
<path transform="matrix(1,0,0,-1,89.291,416.6902)" stroke-width=".3985" stroke-linecap="round" stroke-linejoin="round" fill="none" stroke="#c0c0c0" d="M63.95032-15.19339C47.06851-25.4481 4.75041-26.95845-30.56854-18.5676-65.88751-10.17674-80.83217 4.93869-63.95035 15.19339"/>
<path transform="matrix(1,0,0,-1,89.291,416.6902)" stroke-width=".3985" stroke-linecap="round" stroke-linejoin="round" fill="none" stroke="#c0c0c0" d="M.00041-32.21132C22.50378-30.25235 40.7469-23.27908 40.7468-16.63622 40.74669-9.99335 22.50388-6.1961 .0005-8.15506-22.50284-10.11401-40.74596-17.0873-40.74585-23.73016-40.74574-30.37303-22.50293-34.17027 .00041-32.21132"/>
<path transform="matrix(1,0,0,-1,89.291,416.6902)" stroke-width=".3985" stroke-linecap="round" stroke-linejoin="round" fill="none" stroke="#c0c0c0" d="M56.6709-19.13676C79.90285-7.8751 73.36238 4.60484 42.06339 8.73822 10.76437 12.87161-33.44128 7.0928-56.67325-4.16884-75.21114-13.1552-75.20988-23.24403-56.67332-29.00307"/>
<path transform="matrix(1,0,0,-1,89.291,416.6902)" stroke-width=".3985" stroke-linecap="round" stroke-linejoin="round" fill="none" stroke="#c0c0c0" d="M81.49268 7.0939C81.49243 20.37965 45.00673 27.97415 0 24.05626-45.00676 20.13835-81.49301 6.19183-81.49277-7.0939"/>
<path transform="matrix(1,0,0,-1,89.291,416.6902)" stroke-width=".3985" stroke-linecap="round" stroke-linejoin="round" fill="none" stroke="#c0c0c0" d="M56.6713 29.00298C41.64616 33.67119 16.9499 34.67847-8.09457 31.64467-27.46025 29.29889-45.05365 24.76903-56.67293 19.13667"/>
</g>
<path transform="matrix(1,0,0,-1,89.291,-59.527833)" stroke-width=".3985" stroke-linecap="butt" stroke-miterlimit="10" stroke-linejoin="miter" fill="none" stroke="#000000" d="M0-595.2804"/>
<g clip-path="url(#clip_4)">
<path transform="matrix(1,0,0,-1,89.291,535.7452)" d="M81.5027 7.08841C81.5027 26.09355 45.01326 38.32628 0 34.4114-45.01326 30.49654-81.5027 11.9167-81.5027-7.08841-81.5027-26.09355-45.01326-38.32628 0-34.4114 45.01326-30.49654 81.5027-11.9167 81.5027 7.08841ZM0 0" fill="#e6e8e9"/>
<path transform="matrix(1,0,0,-1,89.291,535.7452)" stroke-width=".3985" stroke-linecap="round" stroke-linejoin="round" fill="none" stroke="#c0c0c0" d="M-75.80075-19.22679C-64.41176-30.41618-21.2424-30.87875 20.62154-20.26003 62.48549-9.64128 87.18983 8.03741 75.80084 19.22682"/>
<path transform="matrix(1,0,0,-1,89.291,535.7452)" stroke-width=".3985" stroke-linecap="round" stroke-linejoin="round" fill="none" stroke="#c0c0c0" d="M-30.04823-34.59459C-15.29012-35.78232 10.12718-21.2561 26.72249-2.15013 43.31778 16.95583 44.80643 33.40692 30.0483 34.59465"/>
<path transform="matrix(1,0,0,-1,89.291,535.7452)" stroke-width=".3985" stroke-linecap="round" stroke-linejoin="round" fill="none" stroke="#c0c0c0" d="M15.44537-32.43948C7.03783-33.85487-6.69302-20.47833-15.22334-2.56253-23.75366 15.35326-23.85295 31.02405-15.4454 32.43945"/>
<path transform="matrix(1,0,0,-1,89.291,535.7452)" stroke-width=".3985" stroke-linecap="round" stroke-linejoin="round" fill="none" stroke="#c0c0c0" d="M63.28621-16.17325C45.65593-26.88254 3.02959-28.32285-31.92271-19.39064-66.87503-10.45842-80.91652 5.46397-63.28624 16.17325"/>
<path transform="matrix(1,0,0,-1,89.291,535.7452)" stroke-width=".3985" stroke-linecap="round" stroke-linejoin="round" fill="none" stroke="#c0c0c0" d="M.00041-33.33105C22.50378-31.37396 40.7469-24.40178 40.7468-17.75842 40.74669-11.11507 22.50388-7.31592 .0005-9.27301-22.50284-11.23012-40.74596-18.2023-40.74585-24.84566-40.74574-31.489-22.50293-35.28816 .00041-33.33105"/>
<path transform="matrix(1,0,0,-1,89.291,535.7452)" stroke-width=".3985" stroke-linecap="round" stroke-linejoin="round" fill="none" stroke="#c0c0c0" d="M58.24411-18.99962C80.25641-7.58879 72.02245 4.6615 39.85468 8.36235 7.68689 12.06322-36.23448 5.81268-58.24678-5.59813-74.68628-14.12051-74.68887-23.46797-58.24898-29.13112"/>
<path transform="matrix(1,0,0,-1,89.291,535.7452)" stroke-width=".3985" stroke-linecap="round" stroke-linejoin="round" fill="none" stroke="#c0c0c0" d="M81.49268 7.08719C81.49243 20.37393 45.00673 27.97224 0 24.05803-45.00676 20.14383-81.49301 6.19951-81.49277-7.08722"/>
<path transform="matrix(1,0,0,-1,89.291,535.7452)" stroke-width=".3985" stroke-linecap="round" stroke-linejoin="round" fill="none" stroke="#c0c0c0" d="M58.24686 29.13066C44.00935 34.03517 19.74191 35.3594-5.39557 32.60416-26.72241 30.2666-46.1675 25.26079-58.24622 18.99916"/>
</g>
<path transform="matrix(1,0,0,-1,89.291,-59.527833)" stroke-width=".3985" stroke-linecap="butt" stroke-miterlimit="10" stroke-linejoin="miter" fill="none" stroke="#000000" d="M0-714.3365"/>
<g clip-path="url(#clip_5)">
<path transform="matrix(1,0,0,-1,89.291,654.7992)" d="M81.5027 7.08713C81.5027 26.60968 45.01326 39.26245 0 35.34828-45.01326 31.43413-81.5027 12.43542-81.5027-7.08713-81.5027-26.60968-45.01326-39.26245 0-35.34828 45.01326-31.43413 81.5027-12.43542 81.5027 7.08713ZM0 0" fill="#e6e8e9"/>
<path transform="matrix(1,0,0,-1,89.291,654.7992)" stroke-width=".3985" stroke-linecap="round" stroke-linejoin="round" fill="none" stroke="#c0c0c0" d="M-75.52145-19.85011C-63.57866-31.58536-20.08325-32.21089 21.62605-21.24829 63.33537-10.28568 87.46431 8.11487 75.52151 19.85011"/>
<path transform="matrix(1,0,0,-1,89.291,654.7992)" stroke-width=".3985" stroke-linecap="round" stroke-linejoin="round" fill="none" stroke="#c0c0c0" d="M-29.35672-35.52455C-14.17888-36.74535 11.2691-21.83005 27.48212-2.21059 43.69513 17.40886 44.53455 34.30382 29.35672 35.52461"/>
<path transform="matrix(1,0,0,-1,89.291,654.7992)" stroke-width=".3985" stroke-linecap="round" stroke-linejoin="round" fill="none" stroke="#c0c0c0" d="M15.05156-33.42816C6.42857-34.88072-7.30093-21.09183-15.61351-2.63028-23.92607 15.83124-23.67458 31.97562-15.05159 33.42819"/>
<path transform="matrix(1,0,0,-1,89.291,654.7992)" stroke-width=".3985" stroke-linecap="round" stroke-linejoin="round" fill="none" stroke="#c0c0c0" d="M62.60374-17.18448C44.24446-28.33543 1.33147-29.68118-33.24335-20.19069-67.81818-10.70018-80.96301 6.03352-62.60371 17.18448"/>
<path transform="matrix(1,0,0,-1,89.291,654.7992)" stroke-width=".3985" stroke-linecap="round" stroke-linejoin="round" fill="none" stroke="#c0c0c0" d="M.00041-34.45296C22.50378-32.49611 40.7469-25.52391 40.7468-18.88026 40.74669-12.23663 22.50388-8.43703 .0005-10.39388-22.50284-12.35072-40.74596-19.3229-40.74585-25.96655-40.74574-32.6102-22.50293-36.40979 .00041-34.45296"/>
<path transform="matrix(1,0,0,-1,89.291,654.7992)" stroke-width=".3985" stroke-linecap="round" stroke-linejoin="round" fill="none" stroke="#c0c0c0" d="M59.55829-18.94579C80.4699-7.41643 70.7564 4.61656 37.8635 7.93007 4.9706 11.24359-38.64847 4.58293-59.56009-6.94641-74.24672-15.04399-74.24895-23.76015-59.56198-29.30382"/>
<path transform="matrix(1,0,0,-1,89.291,654.7992)" stroke-width=".3985" stroke-linecap="round" stroke-linejoin="round" fill="none" stroke="#c0c0c0" d="M81.49268 7.08624C81.49243 20.37358 45.00673 27.97278 0 24.05908-45.00676 20.1454-81.49301 6.20105-81.49277-7.08627"/>
<path transform="matrix(1,0,0,-1,89.291,654.7992)" stroke-width=".3985" stroke-linecap="round" stroke-linejoin="round" fill="none" stroke="#c0c0c0" d="M59.56078 29.30382C38.64919 37.19693-4.96939 36.27197-37.86404 27.23787-46.59491 24.84023-54.0094 22.00594-59.5595 18.94579"/>
</g>
<path transform="matrix(1,0,0,-1,89.291,-59.527833)" stroke-width=".3985" stroke-linecap="butt" stroke-miterlimit="10" stroke-linejoin="miter" fill="none" stroke="#000000" d="M0-833.3926"/>
<g clip-path="url(#clip_6)">
<path transform="matrix(1,0,0,-1,89.291,773.8542)" d="M81.5027 7.09058C81.5027 27.14299 45.01326 40.22371 0 36.30765-45.01326 32.39159-81.5027 12.96182-81.5027-7.09058-81.5027-27.14299-45.01326-40.22371 0-36.30765 45.01326-32.39159 81.5027-12.96182 81.5027 7.09058ZM0 0" fill="#e6e8e9"/>
<path transform="matrix(1,0,0,-1,89.291,773.8542)" stroke-width=".3985" stroke-linecap="round" stroke-linejoin="round" fill="none" stroke="#c0c0c0" d="M-75.229-20.50288C-62.73839-32.77696-18.93011-33.54735 22.61736-22.2242 64.16486-10.90103 87.71962 8.22884 75.229 20.50291"/>
<path transform="matrix(1,0,0,-1,89.291,773.8542)" stroke-width=".3985" stroke-linecap="round" stroke-linejoin="round" fill="none" stroke="#c0c0c0" d="M-28.67621-36.47469C-13.10748-37.72624 12.35213-22.41055 28.18962-2.2661 44.0271 17.87836 44.24493 35.22318 28.67621 36.47472"/>
<path transform="matrix(1,0,0,-1,89.291,773.8542)" stroke-width=".3985" stroke-linecap="round" stroke-linejoin="round" fill="none" stroke="#c0c0c0" d="M14.6667-34.43404C5.84418-35.92134-7.87476-21.71004-15.97487-2.6929-24.07498 16.32423-23.48924 32.94676-14.6667 34.43407"/>
<path transform="matrix(1,0,0,-1,89.291,773.8542)" stroke-width=".3985" stroke-linecap="round" stroke-linejoin="round" fill="none" stroke="#c0c0c0" d="M61.91039-18.22185C42.84697-29.80176-.32559-31.03105-34.51753-20.96744-68.70947-10.90384-80.97386 6.64194-61.91045 18.22185"/>
<path transform="matrix(1,0,0,-1,89.291,773.8542)" stroke-width=".3985" stroke-linecap="round" stroke-linejoin="round" fill="none" stroke="#c0c0c0" d="M.00041-35.57387C22.50378-33.6162 40.7469-26.64362 40.7468-20.00027 40.74669-13.35693 22.50388-9.55829 .0005-11.51595-22.50284-13.47362-40.74596-20.4462-40.74585-27.08954-40.74574-33.73288-22.50293-37.53154 .00041-35.57387"/>
<path transform="matrix(1,0,0,-1,89.291,773.8542)" stroke-width=".3985" stroke-linecap="round" stroke-linejoin="round" fill="none" stroke="#c0c0c0" d="M60.66771-18.96146C80.58328-7.33739 69.56499 4.48895 36.05885 7.45357 2.55272 10.41818-40.75415 3.39801-60.66972-8.22603-73.87782-15.9352-73.87628-24.10507-60.66953-29.51633"/>
<path transform="matrix(1,0,0,-1,89.291,773.8542)" stroke-width=".3985" stroke-linecap="round" stroke-linejoin="round" fill="none" stroke="#c0c0c0" d="M81.49268 7.08928C81.49243 20.37598 45.00673 27.97333 0 24.05798-45.00676 20.14264-81.49301 6.19743-81.49277-7.08925"/>
<path transform="matrix(1,0,0,-1,89.291,773.8542)" stroke-width=".3985" stroke-linecap="round" stroke-linejoin="round" fill="none" stroke="#c0c0c0" d="M60.66827 29.51611C40.7542 37.67534-2.55182 37.16083-36.05812 28.36707-46.18378 25.70976-54.6512 22.4736-60.66896 18.96124"/>
</g>
<path transform="matrix(1,0,0,-1,89.291,-59.527833)" stroke-width=".3985" stroke-linecap="butt" stroke-miterlimit="10" stroke-linejoin="miter" fill="none" stroke="#000000" d="M0-952.44869"/>
<g clip-path="url(#clip_7)">
<path transform="matrix(1,0,0,-1,89.291,892.9092)" d="M81.5027 7.088C81.5027 27.68149 45.01326 41.202 0 37.28735-45.01326 33.37273-81.5027 13.5055-81.5027-7.088-81.5027-27.68149-45.01326-41.202 0-37.28735 45.01326-33.37273 81.5027-13.5055 81.5027 7.088ZM0 0" fill="#e6e8e9"/>
<path transform="matrix(1,0,0,-1,89.291,892.9092)" stroke-width=".3985" stroke-linecap="round" stroke-linejoin="round" fill="none" stroke="#c0c0c0" d="M-74.9257-21.17838C-61.89328-33.98578-17.78174-34.8854 23.59912-23.18918 64.97998-11.49297 87.95818 8.37102 74.92574 21.17844"/>
<path transform="matrix(1,0,0,-1,89.291,892.9092)" stroke-width=".3985" stroke-linecap="round" stroke-linejoin="round" fill="none" stroke="#c0c0c0" d="M-28.01595-37.44669C-12.08458-38.72922 13.37444-23.0032 28.84682-2.32242 44.31918 18.35835 43.94734 36.16415 28.01598 37.44669"/>
<path transform="matrix(1,0,0,-1,89.291,892.9092)" stroke-width=".3985" stroke-linecap="round" stroke-linejoin="round" fill="none" stroke="#c0c0c0" d="M14.29272-35.46216C5.28487-36.979-8.41684-22.3313-16.31046-2.74637-24.20407 16.83856-23.30064 33.94527-14.29279 35.4621"/>
<path transform="matrix(1,0,0,-1,89.291,892.9092)" stroke-width=".3985" stroke-linecap="round" stroke-linejoin="round" fill="none" stroke="#c0c0c0" d="M61.2041-19.29372C41.45927-31.28555-1.95016-32.36903-35.75163-21.71355-69.55312-11.05804-80.94899 7.30191-61.20416 19.29375"/>
<path transform="matrix(1,0,0,-1,89.291,892.9092)" stroke-width=".3985" stroke-linecap="round" stroke-linejoin="round" fill="none" stroke="#c0c0c0" d="M.00041-36.69556C22.50378-34.73862 40.7469-27.76631 40.7468-21.12267 40.74669-14.47902 22.50388-10.67953 .0005-12.63649-22.50284-14.59343-40.74596-21.56573-40.74585-28.20938-40.74574-34.85303-22.50293-38.65251 .00041-36.69556"/>
<path transform="matrix(1,0,0,-1,89.291,892.9092)" stroke-width=".3985" stroke-linecap="round" stroke-linejoin="round" fill="none" stroke="#c0c0c0" d="M61.61125-19.0454C80.6221-7.34631 68.44847 4.28865 34.4212 6.94214 .39395 9.59563-42.6018 2.26262-61.61266-9.43643-73.56087-16.78944-73.56137-24.48573-61.61395-29.76088"/>
<path transform="matrix(1,0,0,-1,89.291,892.9092)" stroke-width=".3985" stroke-linecap="round" stroke-linejoin="round" fill="none" stroke="#c0c0c0" d="M81.49268 7.08672C81.49243 20.37404 45.00673 27.97302 0 24.05908-45.00676 20.14516-81.49301 6.20059-81.49277-7.08672"/>
<path transform="matrix(1,0,0,-1,89.291,892.9092)" stroke-width=".3985" stroke-linecap="round" stroke-linejoin="round" fill="none" stroke="#c0c0c0" d="M61.613 29.7609C42.60379 38.15411-.39201 38.00903-34.42075 29.43774-45.82329 26.56555-55.24231 22.9657-61.6122 19.04541"/>
</g>
<path transform="matrix(1,0,0,-1,89.291,-59.527833)" stroke-width=".3985" stroke-linecap="butt" stroke-miterlimit="10" stroke-linejoin="miter" fill="none" stroke="#000000" d="M0-1071.5048"/>
<g clip-path="url(#clip_8)">
<path transform="matrix(1,0,0,-1,89.291,1011.96316)" d="M81.5027 7.08669C81.5027 28.23154 45.01326 42.19957 0 38.28566-45.01326 34.37173-81.5027 14.05815-81.5027-7.08669-81.5027-28.23154-45.01326-42.19957 0-38.28566 45.01326-34.37173 81.5027-14.05815 81.5027 7.08669ZM0 0" fill="#e6e8e9"/>
<path transform="matrix(1,0,0,-1,89.291,1011.96316)" stroke-width=".3985" stroke-linecap="round" stroke-linejoin="round" fill="none" stroke="#c0c0c0" d="M-74.61284-21.884C-61.03978-35.21664-16.63095-36.22737 24.5761-24.14124 65.78314-12.0551 88.18596 8.55136 74.6129 21.884"/>
<path transform="matrix(1,0,0,-1,89.291,1011.96316)" stroke-width=".3985" stroke-linecap="round" stroke-linejoin="round" fill="none" stroke="#c0c0c0" d="M-27.3698-38.43788C-11.09848-39.74837 14.34578-23.60168 29.46165-2.37299 44.57753 18.8557 43.64114 37.12743 27.36983 38.43791"/>
<path transform="matrix(1,0,0,-1,89.291,1011.96316)" stroke-width=".3985" stroke-linecap="round" stroke-linejoin="round" fill="none" stroke="#c0c0c0" d="M13.9327-36.50706C4.75409-38.05396-8.9248-22.96301-16.61952-2.80093-24.31425 17.36115-23.11133 34.96022-13.93272 36.5071"/>
<path transform="matrix(1,0,0,-1,89.291,1011.96316)" stroke-width=".3985" stroke-linecap="round" stroke-linejoin="round" fill="none" stroke="#c0c0c0" d="M60.49458-20.39049C40.0932-32.78188-3.5304-33.69804-36.94032-22.4368-70.35027-11.17555-80.89598 7.99908-60.49461 20.39049"/>
<path transform="matrix(1,0,0,-1,89.291,1011.96316)" stroke-width=".3985" stroke-linecap="round" stroke-linejoin="round" fill="none" stroke="#c0c0c0" d="M.00041-37.81717C22.50378-35.86053 40.7469-28.88838 40.7468-22.2446 40.74669-15.6008 22.50388-11.8009 .0005-13.75754-22.50284-15.71417-40.74596-22.68631-40.74585-29.33011-40.74574-35.9739-22.50293-39.77379 .00041-37.81717"/>
<path transform="matrix(1,0,0,-1,89.291,1011.96316)" stroke-width=".3985" stroke-linecap="round" stroke-linejoin="round" fill="none" stroke="#c0c0c0" d="M62.42406-19.18185C80.60828-7.42218 67.40166 4.03336 32.92557 6.4044-1.55052 8.77545-44.241 1.16458-62.42522-10.59508-73.29057-17.62115-73.28984-24.89952-62.4258-30.03654"/>
<path transform="matrix(1,0,0,-1,89.291,1011.96316)" stroke-width=".3985" stroke-linecap="round" stroke-linejoin="round" fill="none" stroke="#c0c0c0" d="M81.49268 7.08556C81.49243 20.37321 45.00673 27.97298 0 24.0597-45.00676 20.14641-81.49301 6.20212-81.49277-7.08553"/>
<path transform="matrix(1,0,0,-1,89.291,1011.96316)" stroke-width=".3985" stroke-linecap="round" stroke-linejoin="round" fill="none" stroke="#c0c0c0" d="M62.42485 30.03629C44.2416 38.63416 1.55234 38.82181-32.92448 30.4558-45.50235 27.40388-55.7906 23.47166-62.425 19.1816"/>
</g>
<path transform="matrix(1,0,0,-1,89.291,-59.527833)" stroke-width=".3985" stroke-linecap="butt" stroke-miterlimit="10" stroke-linejoin="miter" fill="none" stroke="#000000" d="M0-1190.5608"/>
<g clip-path="url(#clip_9)">
<path transform="matrix(1,0,0,-1,89.291,1131.0182)" d="M81.5027 7.0897C81.5027 28.79547 45.01326 43.21684 0 39.30125-45.01326 35.38567-81.5027 14.61604-81.5027-7.0897-81.5027-28.79547-45.01326-43.21684 0-39.30125 45.01326-35.38567 81.5027-14.61604 81.5027 7.0897ZM0 0" fill="#e6e8e9"/>
<path transform="matrix(1,0,0,-1,89.291,1131.0182)" stroke-width=".3985" stroke-linecap="round" stroke-linejoin="round" fill="none" stroke="#c0c0c0" d="M-74.2928-22.61554C-60.19232-36.4687-15.49939-37.57344 25.53145-25.08328 66.56229-12.59312 88.3933 8.76233 74.2928 22.61551"/>
<path transform="matrix(1,0,0,-1,89.291,1131.0182)" stroke-width=".3985" stroke-linecap="round" stroke-linejoin="round" fill="none" stroke="#c0c0c0" d="M-26.739-39.4458C-10.15228-40.7823 15.26624-24.20476 30.03357-2.41986 44.8009 19.36504 43.32578 38.10931 26.73906 39.44583"/>
<path transform="matrix(1,0,0,-1,89.291,1131.0182)" stroke-width=".3985" stroke-linecap="round" stroke-linejoin="round" fill="none" stroke="#c0c0c0" d="M13.58159-37.56519C4.24414-39.13893-9.40628-23.59615-16.90709-2.84967-24.4079 17.89679-22.91904 35.99142-13.58159 37.56516"/>
<path transform="matrix(1,0,0,-1,89.291,1131.0182)" stroke-width=".3985" stroke-linecap="round" stroke-linejoin="round" fill="none" stroke="#c0c0c0" d="M59.77531-21.50847C38.73795-34.28647-5.07817-35.01556-38.09116-23.13667-71.10413-11.25778-80.81268 8.73048-59.77531 21.5085"/>
<path transform="matrix(1,0,0,-1,89.291,1131.0182)" stroke-width=".3985" stroke-linecap="round" stroke-linejoin="round" fill="none" stroke="#c0c0c0" d="M.00041-38.93811C22.50378-36.98064 40.7469-30.00822 40.7468-23.36494 40.74669-16.72166 22.50388-12.92287 .0005-14.88034-22.50284-16.83783-40.74596-23.81023-40.74585-30.4535-40.74574-37.09679-22.50293-40.8956 .00041-38.93811"/>
<path transform="matrix(1,0,0,-1,89.291,1131.0182)" stroke-width=".3985" stroke-linecap="round" stroke-linejoin="round" fill="none" stroke="#c0c0c0" d="M63.13057-19.35895C80.55565-7.55017 66.41731 3.73436 31.55083 5.84564-3.31563 7.95692-45.70642 .09573-63.13152-11.71303-73.0568-18.43918-73.05756-25.34152-63.13252-30.34135"/>
<path transform="matrix(1,0,0,-1,89.291,1131.0182)" stroke-width=".3985" stroke-linecap="round" stroke-linejoin="round" fill="none" stroke="#c0c0c0" d="M81.49268 7.0886C81.49243 20.37518 45.00673 27.97276 0 24.05779-45.00676 20.14282-81.49301 6.19801-81.49277-7.08856"/>
<path transform="matrix(1,0,0,-1,89.291,1131.0182)" stroke-width=".3985" stroke-linecap="round" stroke-linejoin="round" fill="none" stroke="#c0c0c0" d="M63.1321 30.34128C45.70798 39.119 3.31792 39.6058-31.54948 31.42905-45.2142 28.22472-56.30284 23.98665-63.131 19.35887"/>
</g>
<path transform="matrix(1,0,0,-1,89.291,-59.527833)" stroke-width=".3985" stroke-linecap="butt" stroke-miterlimit="10" stroke-linejoin="miter" fill="none" stroke="#000000" d="M0-1309.617"/>
<g clip-path="url(#clip_10)">
<path transform="matrix(1,0,0,-1,89.291,1250.0722)" d="M81.5027 7.09015C81.5027 29.36566 45.01326 44.24867 0 40.33286-45.01326 36.41702-81.5027 15.18533-81.5027-7.09015-81.5027-29.36566-45.01326-44.24867 0-40.33286 45.01326-36.41702 81.5027-15.18533 81.5027 7.09015ZM0 0" fill="#e6e8e9"/>
<path transform="matrix(1,0,0,-1,89.291,1250.0722)" stroke-width=".3985" stroke-linecap="round" stroke-linejoin="round" fill="none" stroke="#c0c0c0" d="M-73.95953-23.36989C-59.3376-37.73541-14.37016-38.91792 26.47606-26.01132 67.3223-13.10472 88.58153 9.0044 73.9596 23.36992"/>
<path transform="matrix(1,0,0,-1,89.291,1250.0722)" stroke-width=".3985" stroke-linecap="round" stroke-linejoin="round" fill="none" stroke="#c0c0c0" d="M-26.12476-40.47144C-9.24167-41.83017 16.14125-24.81256 30.56926-2.46088 44.99725 19.8908 43.0079 39.11266 26.12482 40.4714"/>
<path transform="matrix(1,0,0,-1,89.291,1250.0722)" stroke-width=".3985" stroke-linecap="round" stroke-linejoin="round" fill="none" stroke="#c0c0c0" d="M13.2427-38.63991C3.758-40.23784-9.86002-24.23305-17.17383-2.89291-24.48766 18.4472-22.72745 37.04195-13.24274 38.63988"/>
<path transform="matrix(1,0,0,-1,89.291,1250.0722)" stroke-width=".3985" stroke-linecap="round" stroke-linejoin="round" fill="none" stroke="#c0c0c0" d="M59.05386-22.65338C37.40321-35.80348-6.58704-36.32117-39.20198-23.81003-71.81694-11.29889-80.70456 9.50327-59.05391 22.65335"/>
<path transform="matrix(1,0,0,-1,89.291,1250.0722)" stroke-width=".3985" stroke-linecap="round" stroke-linejoin="round" fill="none" stroke="#c0c0c0" d="M.00041-40.05968C22.50378-38.10208 40.7469-31.12953 40.7468-24.4862 40.74669-17.84288 22.50388-14.04419 .0005-16.00179-22.50284-17.9594-40.74596-24.93195-40.74585-31.57527-40.74574-38.2186-22.50293-42.01729 .00041-40.05968"/>
<path transform="matrix(1,0,0,-1,89.291,1250.0722)" stroke-width=".3985" stroke-linecap="round" stroke-linejoin="round" fill="none" stroke="#c0c0c0" d="M63.74486-19.58043C80.47293-7.73195 65.49484 3.39426 30.28897 5.27007-4.91687 7.14586-47.01888-.93834-63.74695-12.78682-72.85234-19.23602-72.855-25.80563-63.7504-30.6709"/>
<path transform="matrix(1,0,0,-1,89.291,1250.0722)" stroke-width=".3985" stroke-linecap="round" stroke-linejoin="round" fill="none" stroke="#c0c0c0" d="M81.49268 7.08907C81.49243 20.37572 45.00673 27.97311 0 24.05788-45.00676 20.14265-81.49301 6.19757-81.49277-7.08907"/>
<path transform="matrix(1,0,0,-1,89.291,1250.0722)" stroke-width=".3985" stroke-linecap="round" stroke-linejoin="round" fill="none" stroke="#c0c0c0" d="M63.74838 30.67061C47.02115 39.60956 4.91864 40.3692-30.28973 32.36829-44.95592 29.03535-56.77855 24.51587-63.74687 19.58014"/>
</g>
<path transform="matrix(1,0,0,-1,89.291,-59.527833)" stroke-width=".3985" stroke-linecap="butt" stroke-miterlimit="10" stroke-linejoin="miter" fill="none" stroke="#000000" d="M0-1428.673"/>
<g clip-path="url(#clip_11)">
<path transform="matrix(1,0,0,-1,89.291,1369.1272)" d="M81.5027 7.09232C81.5027 29.9459 45.01326 45.29662 0 41.3796-45.01326 37.46257-81.5027 15.76128-81.5027-7.09232-81.5027-29.9459-45.01326-45.29662 0-41.3796 45.01326-37.46257 81.5027-15.76128 81.5027 7.09232ZM0 0" fill="#e6e8e9"/>
<path transform="matrix(1,0,0,-1,89.291,1369.1272)" stroke-width=".3985" stroke-linecap="round" stroke-linejoin="round" fill="none" stroke="#c0c0c0" d="M-73.6179-24.14888C-58.48172-39.0203-13.25177-40.26422 27.40625-26.92711 68.0643-13.58998 88.75415 9.2775 73.61797 24.14891"/>
<path transform="matrix(1,0,0,-1,89.291,1369.1272)" stroke-width=".3985" stroke-linecap="round" stroke-linejoin="round" fill="none" stroke="#c0c0c0" d="M-25.52893-41.51169C-8.37033-42.89253 16.96902-25.42696 31.06813-2.50064 45.16724 20.42566 42.6876 40.13084 25.52899 41.51169"/>
<path transform="matrix(1,0,0,-1,89.291,1369.1272)" stroke-width=".3985" stroke-linecap="round" stroke-linejoin="round" fill="none" stroke="#c0c0c0" d="M12.91573-39.7271C3.29434-41.34787-10.28792-24.87546-17.42107-2.9348-24.55421 19.00586-22.53722 38.10632-12.91582 39.7271"/>
<path transform="matrix(1,0,0,-1,89.291,1369.1272)" stroke-width=".3985" stroke-linecap="round" stroke-linejoin="round" fill="none" stroke="#c0c0c0" d="M58.32811-23.81825C36.08585-37.32674-8.0591-37.61389-40.27275-24.45934-72.48642-11.30478-80.57039 10.30978-58.32811 23.81825"/>
<path transform="matrix(1,0,0,-1,89.291,1369.1272)" stroke-width=".3985" stroke-linecap="round" stroke-linejoin="round" fill="none" stroke="#c0c0c0" d="M.00041-41.18082C22.50378-39.22267 40.7469-32.24997 40.7468-25.607 40.74669-18.96402 22.50388-15.166 .0005-17.12415-22.50284-19.08228-40.74596-26.05498-40.74585-32.69795-40.74574-39.34093-22.50293-43.13895 .00041-41.18082"/>
<path transform="matrix(1,0,0,-1,89.291,1369.1272)" stroke-width=".3985" stroke-linecap="round" stroke-linejoin="round" fill="none" stroke="#c0c0c0" d="M64.28658-19.83397C80.3701-7.9534 64.62628 3.022 29.12129 4.68044-6.38367 6.33887-48.2039-1.94762-64.28743-13.82819-72.67049-20.02039-72.67244-26.2881-64.28983-31.02188"/>
<path transform="matrix(1,0,0,-1,89.291,1369.1272)" stroke-width=".3985" stroke-linecap="round" stroke-linejoin="round" fill="none" stroke="#c0c0c0" d="M81.49268 7.09099C81.49243 20.37697 45.00673 27.97298 0 24.05669-45.00676 20.1404-81.49301 6.19498-81.49277-7.09099"/>
<path transform="matrix(1,0,0,-1,89.291,1369.1272)" stroke-width=".3985" stroke-linecap="round" stroke-linejoin="round" fill="none" stroke="#c0c0c0" d="M64.28853 31.02191C48.20541 40.10378 6.38313 41.11261-29.1226 33.27538-44.72078 29.83266-57.2226 25.05318-64.28787 19.834"/>
</g>
<path transform="matrix(1,0,0,-1,89.291,-59.527833)" stroke-width=".3985" stroke-linecap="butt" stroke-miterlimit="10" stroke-linejoin="miter" fill="none" stroke="#000000" d="M0-1547.729"/>
<g clip-path="url(#clip_12)">
<path transform="matrix(1,0,0,-1,89.291,1488.1812)" d="M81.5027 7.08755C81.5027 30.52667 45.01326 46.35414 0 42.43976-45.01326 38.52536-81.5027 16.35156-81.5027-7.08755-81.5027-30.52667-45.01326-46.35414 0-42.43976 45.01326-38.52536 81.5027-16.35156 81.5027 7.08755ZM0 0" fill="#e6e8e9"/>
<path transform="matrix(1,0,0,-1,89.291,1488.1812)" stroke-width=".3985" stroke-linecap="round" stroke-linejoin="round" fill="none" stroke="#c0c0c0" d="M-73.27145-24.94743C-57.62823-40.31836-12.14055-41.60948 28.32568-27.83174 68.79195-14.05402 88.91478 9.57649 73.27155 24.94743"/>
<path transform="matrix(1,0,0,-1,89.291,1488.1812)" stroke-width=".3985" stroke-linecap="round" stroke-linejoin="round" fill="none" stroke="#c0c0c0" d="M-24.9546-42.56523C-7.54012-43.9687 17.75015-26.0492 31.53201-2.5413 45.31387 20.96657 42.36913 41.1618 24.95464 42.56529"/>
<path transform="matrix(1,0,0,-1,89.291,1488.1812)" stroke-width=".3985" stroke-linecap="round" stroke-linejoin="round" fill="none" stroke="#c0c0c0" d="M12.60138-40.82721C2.85391-42.4683-10.68996-25.51999-17.64937-2.97191-24.60878 19.57617-22.34886 39.1861-12.60138 40.82718"/>
<path transform="matrix(1,0,0,-1,89.291,1488.1812)" stroke-width=".3985" stroke-linecap="round" stroke-linejoin="round" fill="none" stroke="#c0c0c0" d="M57.6056-25.0056C34.79655-38.85811-9.48572-38.8922-41.30028-25.08226-73.11482-11.27231-80.41463 11.15308-57.60558 25.00557"/>
<path transform="matrix(1,0,0,-1,89.291,1488.1812)" stroke-width=".3985" stroke-linecap="round" stroke-linejoin="round" fill="none" stroke="#c0c0c0" d="M.00041-42.30208C22.50378-40.34515 40.7469-33.37306 40.7468-26.72958 40.74669-20.0861 22.50388-16.28673 .0005-18.24364-22.50284-20.20056-40.74596-27.17267-40.74585-33.81615-40.74574-40.45961-22.50293-44.259 .00041-42.30208"/>
<path transform="matrix(1,0,0,-1,89.291,1488.1812)" stroke-width=".3985" stroke-linecap="round" stroke-linejoin="round" fill="none" stroke="#c0c0c0" d="M64.76479-20.1256C80.25272-8.21912 63.81282 2.6187 28.04436 4.08066-7.72409 5.54262-49.27728-2.92426-64.76521-14.83073-72.51091-20.78525-72.51231-26.78154-64.76712-31.38939"/>
<path transform="matrix(1,0,0,-1,89.291,1488.1812)" stroke-width=".3985" stroke-linecap="round" stroke-linejoin="round" fill="none" stroke="#c0c0c0" d="M81.49268 7.08661C81.49243 20.37358 45.00673 27.97237 0 24.0585-45.00676 20.14465-81.49301 6.20041-81.49277-7.08655"/>
<path transform="matrix(1,0,0,-1,89.291,1488.1812)" stroke-width=".3985" stroke-linecap="round" stroke-linejoin="round" fill="none" stroke="#c0c0c0" d="M64.76675 31.38924C49.27895 40.60237 7.72578 41.84286-28.04373 34.15999-44.5021 30.62517-57.63908 25.60385-64.76515 20.12544"/>
</g>
<path transform="matrix(1,0,0,-1,89.291,-59.527833)" stroke-width=".3985" stroke-linecap="butt" stroke-miterlimit="10" stroke-linejoin="miter" fill="none" stroke="#000000" d="M0-1666.7852"/>
<g clip-path="url(#clip_13)">
<path transform="matrix(1,0,0,-1,89.291,1607.2362)" d="M81.5027 7.088C81.5027 31.11955 45.01326 47.42708 0 43.51245-45.01326 39.59782-81.5027 16.94356-81.5027-7.088-81.5027-31.11955-45.01326-47.42708 0-43.51245 45.01326-39.59782 81.5027-16.94356 81.5027 7.088ZM0 0" fill="#e6e8e9"/>
<path transform="matrix(1,0,0,-1,89.291,1607.2362)" stroke-width=".3985" stroke-linecap="round" stroke-linejoin="round" fill="none" stroke="#c0c0c0" d="M-72.91306-25.77467C-56.76637-41.63664-11.03175-42.9556 29.2367-28.72081 69.50516-14.48604 89.05981 9.9127 72.91312 25.77467"/>
<path transform="matrix(1,0,0,-1,89.291,1607.2362)" stroke-width=".3985" stroke-linecap="round" stroke-linejoin="round" fill="none" stroke="#c0c0c0" d="M-24.39194-43.6325C-6.7363-45.05382 18.49751-26.67036 31.96889-2.57301 45.44026 21.5243 42.04758 42.2112 24.39194 43.6325"/>
<path transform="matrix(1,0,0,-1,89.291,1607.2362)" stroke-width=".3985" stroke-linecap="round" stroke-linejoin="round" fill="none" stroke="#c0c0c0" d="M12.29791-41.93922C2.43263-43.60037-11.07054-26.17053-17.8625-3.00797-24.65445 20.15459-22.16321 40.2781-12.29794 41.93925"/>
<path transform="matrix(1,0,0,-1,89.291,1607.2362)" stroke-width=".3985" stroke-linecap="round" stroke-linejoin="round" fill="none" stroke="#c0c0c0" d="M56.87982-26.20981C33.52132-40.3943-10.88103-40.15909-42.2943-25.68385-73.70758-11.20862-80.23836 12.02528-56.87985 26.20978"/>
<path transform="matrix(1,0,0,-1,89.291,1607.2362)" stroke-width=".3985" stroke-linecap="round" stroke-linejoin="round" fill="none" stroke="#c0c0c0" d="M.00041-43.42372C22.50378-41.46672 40.7469-34.4946 40.7468-27.85115 40.74669-21.2077 22.50388-17.4084 .0005-19.3654-22.50284-21.32239-40.74596-28.29451-40.74585-34.93796-40.74574-41.5814-22.50293-45.3807 .00041-43.42372"/>
<path transform="matrix(1,0,0,-1,89.291,1607.2362)" stroke-width=".3985" stroke-linecap="round" stroke-linejoin="round" fill="none" stroke="#c0c0c0" d="M65.19102-20.43988C80.12556-8.51184 63.04532 2.19388 27.04083 3.4718-8.96364 4.74973-50.25851-3.88383-65.19304-15.81187-72.37183-21.54555-72.37207-27.29326-65.19315-31.77843"/>
<path transform="matrix(1,0,0,-1,89.291,1607.2362)" stroke-width=".3985" stroke-linecap="round" stroke-linejoin="round" fill="none" stroke="#c0c0c0" d="M81.49268 7.08687C81.49243 20.37378 45.00673 27.97237 0 24.05835-45.00676 20.14435-81.49301 6.20003-81.49277-7.08687"/>
<path transform="matrix(1,0,0,-1,89.291,1607.2362)" stroke-width=".3985" stroke-linecap="round" stroke-linejoin="round" fill="none" stroke="#c0c0c0" d="M65.19186 31.77805C50.25797 41.1088 8.96332 42.55989-27.0418 35.01997-44.30406 31.40508-58.03258 26.1584-65.1923 20.4395"/>
</g>
<path transform="matrix(1,0,0,-1,89.291,-59.527833)" stroke-width=".3985" stroke-linecap="butt" stroke-miterlimit="10" stroke-linejoin="miter" fill="none" stroke="#000000" d="M0-1785.8412"/>
<g clip-path="url(#clip_14)">
<path transform="matrix(1,0,0,-1,89.291,1726.2902)" d="M81.5027 7.09058C81.5027 31.72127 45.01326 48.5133 0 44.59724-45.01326 40.68118-81.5027 17.5401-81.5027-7.09058-81.5027-31.72127-45.01326-48.5133 0-44.59724 45.01326-40.68118 81.5027-17.5401 81.5027 7.09058ZM0 0" fill="#e6e8e9"/>
<path transform="matrix(1,0,0,-1,89.291,1726.2902)" stroke-width=".3985" stroke-linecap="round" stroke-linejoin="round" fill="none" stroke="#c0c0c0" d="M-72.54747-26.62335C-55.9081-42.96944-9.93852-44.30061 30.12854-29.59698 70.19562-14.89336 89.18687 10.27727 72.5475 26.62335"/>
<path transform="matrix(1,0,0,-1,89.291,1726.2902)" stroke-width=".3985" stroke-linecap="round" stroke-linejoin="round" fill="none" stroke="#c0c0c0" d="M-23.85068-44.71323C-5.97046-46.15248 19.20262-27.30014 32.37515-2.60567 45.5477 22.08879 41.73099 43.27402 23.85077 44.71329"/>
<path transform="matrix(1,0,0,-1,89.291,1726.2902)" stroke-width=".3985" stroke-linecap="round" stroke-linejoin="round" fill="none" stroke="#c0c0c0" d="M12.0047-43.06052C2.03021-44.73965-11.43092-26.82195-18.06071-3.04079-24.6905 20.74037-21.97923 41.38136-12.00473 43.06049"/>
<path transform="matrix(1,0,0,-1,89.291,1726.2902)" stroke-width=".3985" stroke-linecap="round" stroke-linejoin="round" fill="none" stroke="#c0c0c0" d="M56.15945-27.42686C32.2753-41.93347-12.22981-41.41373-43.24614-26.26627-74.26247-11.11879-80.04369 12.92023-56.15952 27.42683"/>
<path transform="matrix(1,0,0,-1,89.291,1726.2902)" stroke-width=".3985" stroke-linecap="round" stroke-linejoin="round" fill="none" stroke="#c0c0c0" d="M.00041-44.54512C22.50378-42.58746 40.7469-35.61488 40.7468-28.97153 40.74669-22.32817 22.50388-18.52945 .0005-20.4871-22.50284-22.44476-40.74596-29.41734-40.74585-36.0607-40.74574-42.70406-22.50293-46.50276 .00041-44.54512"/>
<path transform="matrix(1,0,0,-1,89.291,1726.2902)" stroke-width=".3985" stroke-linecap="round" stroke-linejoin="round" fill="none" stroke="#c0c0c0" d="M65.56873-20.77763C79.98868-8.83244 62.3232 1.74867 26.10995 2.85541-10.10327 3.96214-51.15053-4.8238-65.5705-16.769-72.24496-22.2981-72.24422-27.81734-65.57007-32.18509"/>
<path transform="matrix(1,0,0,-1,89.291,1726.2902)" stroke-width=".3985" stroke-linecap="round" stroke-linejoin="round" fill="none" stroke="#c0c0c0" d="M81.49268 7.08923C81.49243 20.37599 45.00673 27.97339 0 24.05807-45.00676 20.14276-81.49301 6.19754-81.49277-7.0892"/>
<path transform="matrix(1,0,0,-1,89.291,1726.2902)" stroke-width=".3985" stroke-linecap="round" stroke-linejoin="round" fill="none" stroke="#c0c0c0" d="M65.56943 32.18478C51.1501 41.62115 10.10454 43.26598-26.10855 35.8589-44.12068 32.1749-58.3973 26.71846-65.56937 20.77733"/>
</g>
<path transform="matrix(1,0,0,-1,89.291,-59.527833)" stroke-width=".3985" stroke-linecap="butt" stroke-miterlimit="10" stroke-linejoin="miter" fill="none" stroke="#000000" d="M0-1904.8973"/>
<g clip-path="url(#clip_15)">
<path transform="matrix(1,0,0,-1,89.291,1845.3452)" d="M81.5027 7.09189C81.5027 31.12297 45.01326 47.42838 0 43.51158-45.01326 39.59479-81.5027 16.9392-81.5027-7.09189-81.5027-31.12297-45.01326-47.42838 0-43.51158 45.01326-39.59479 81.5027-16.9392 81.5027 7.09189ZM0 0" fill="#e6e8e9"/>
<path transform="matrix(1,0,0,-1,89.291,1845.3452)" stroke-width=".3985" stroke-linecap="round" stroke-linejoin="round" fill="none" stroke="#c0c0c0" d="M-72.91306-25.77776C-56.76637-41.63863-11.03175-42.95526 29.2367-28.71877 69.50516-14.48227 89.05981 9.91696 72.91312 25.77782"/>
<path transform="matrix(1,0,0,-1,89.291,1845.3452)" stroke-width=".3985" stroke-linecap="round" stroke-linejoin="round" fill="none" stroke="#c0c0c0" d="M-24.39194-43.63286C-6.7363-45.05325 18.49751-26.66895 31.96889-2.5714 45.44026 21.52614 42.04758 42.21246 24.39194 43.63286"/>
<path transform="matrix(1,0,0,-1,89.291,1845.3452)" stroke-width=".3985" stroke-linecap="round" stroke-linejoin="round" fill="none" stroke="#c0c0c0" d="M12.29791-41.93779C2.43263-43.5994-11.07054-26.17058-17.8625-3.0088-24.65445 20.15297-22.16321 40.27618-12.29794 41.93779"/>
<path transform="matrix(1,0,0,-1,89.291,1845.3452)" stroke-width=".3985" stroke-linecap="round" stroke-linejoin="round" fill="none" stroke="#c0c0c0" d="M56.87982-26.20647C33.52132-40.39183-10.88103-40.15883-42.2943-25.68544-73.70758-11.21205-80.23836 12.02107-56.87985 26.20644"/>
<path transform="matrix(1,0,0,-1,89.291,1845.3452)" stroke-width=".3985" stroke-linecap="round" stroke-linejoin="round" fill="none" stroke="#c0c0c0" d="M.00041-43.42285C22.50378-41.46477 40.7469-34.49187 40.7468-27.84856 40.74669-21.20525 22.50388-17.4069 .0005-19.36499-22.50284-21.32306-40.74596-28.29596-40.74585-34.93927-40.74574-41.58258-22.50293-45.38092 .00041-43.42285"/>
<path transform="matrix(1,0,0,-1,89.291,1845.3452)" stroke-width=".3985" stroke-linecap="round" stroke-linejoin="round" fill="none" stroke="#c0c0c0" d="M65.19102-20.43622C80.12556-8.50769 63.04532 2.19698 27.04083 3.4731-8.96364 4.7492-50.25851-3.88623-65.19304-15.81476-72.37183-21.54868-72.37207-27.29625-65.19315-31.78098"/>
<path transform="matrix(1,0,0,-1,89.291,1845.3452)" stroke-width=".3985" stroke-linecap="round" stroke-linejoin="round" fill="none" stroke="#c0c0c0" d="M81.49268 7.09076C81.49243 20.37741 45.00673 27.97404 0 24.05788-45.00676 20.14172-81.49301 6.19588-81.49277-7.09076"/>
<path transform="matrix(1,0,0,-1,89.291,1845.3452)" stroke-width=".3985" stroke-linecap="round" stroke-linejoin="round" fill="none" stroke="#c0c0c0" d="M65.19186 31.78064C50.25797 41.11049 8.96332 42.55951-27.0418 35.01796-44.30406 31.40228-58.03258 26.15506-65.1923 20.4359"/>
</g>
<path transform="matrix(1,0,0,-1,89.291,-59.527833)" stroke-width=".3985" stroke-linecap="butt" stroke-miterlimit="10" stroke-linejoin="miter" fill="none" stroke="#000000" d="M0-2023.9534"/>
<g clip-path="url(#clip_16)">
<path transform="matrix(1,0,0,-1,89.291,1964.4003)" d="M81.5027 7.09102C81.5027 30.52942 45.01326 46.35475 0 42.43845-45.01326 38.52214-81.5027 16.34738-81.5027-7.09102-81.5027-30.52942-45.01326-46.35475 0-42.43845 45.01326-38.52214 81.5027-16.34738 81.5027 7.09102ZM0 0" fill="#e6e8e9"/>
<path transform="matrix(1,0,0,-1,89.291,1964.4003)" stroke-width=".3985" stroke-linecap="round" stroke-linejoin="round" fill="none" stroke="#c0c0c0" d="M-73.27145-24.94997C-57.62823-40.31973-12.14055-41.60876 28.32568-27.82962 68.79195-14.05046 88.91478 9.58023 73.27155 24.95"/>
<path transform="matrix(1,0,0,-1,89.291,1964.4003)" stroke-width=".3985" stroke-linecap="round" stroke-linejoin="round" fill="none" stroke="#c0c0c0" d="M-24.9546-42.56506C-7.54012-43.96771 17.75015-26.0476 31.53201-2.53981 45.31387 20.96796 42.36913 41.16246 24.95464 42.56512"/>
<path transform="matrix(1,0,0,-1,89.291,1964.4003)" stroke-width=".3985" stroke-linecap="round" stroke-linejoin="round" fill="none" stroke="#c0c0c0" d="M12.60138-40.8254C2.85391-42.46689-10.68996-25.51968-17.64937-2.9726-24.60878 19.57446-22.34886 39.1839-12.60138 40.8254"/>
<path transform="matrix(1,0,0,-1,89.291,1964.4003)" stroke-width=".3985" stroke-linecap="round" stroke-linejoin="round" fill="none" stroke="#c0c0c0" d="M57.6056-25.00223C34.79655-38.85535-9.48572-38.89145-41.30028-25.08333-73.11482-11.27522-80.41463 11.14911-57.60558 25.00223"/>
<path transform="matrix(1,0,0,-1,89.291,1964.4003)" stroke-width=".3985" stroke-linecap="round" stroke-linejoin="round" fill="none" stroke="#c0c0c0" d="M.00041-42.3008C22.50378-40.34291 40.7469-33.37018 40.7468-26.72691 40.74669-20.08365 22.50388-16.2852 .0005-18.24309-22.50284-20.20096-40.74596-27.17369-40.74585-33.81696-40.74574-40.46022-22.50293-44.25867 .00041-42.3008"/>
<path transform="matrix(1,0,0,-1,89.291,1964.4003)" stroke-width=".3985" stroke-linecap="round" stroke-linejoin="round" fill="none" stroke="#c0c0c0" d="M64.76479-20.12204C80.25272-8.21523 63.81282 2.6215 28.04436 4.0818-7.72409 5.54208-49.27728-2.9264-64.76521-14.83322-72.51091-20.78789-72.51231-26.784-64.76712-31.39134"/>
<path transform="matrix(1,0,0,-1,89.291,1964.4003)" stroke-width=".3985" stroke-linecap="round" stroke-linejoin="round" fill="none" stroke="#c0c0c0" d="M81.49268 7.09006C81.49243 20.37663 45.00673 27.9735 0 24.05772-45.00676 20.14195-81.49301 6.1965-81.49277-7.09006"/>
<path transform="matrix(1,0,0,-1,89.291,1964.4003)" stroke-width=".3985" stroke-linecap="round" stroke-linejoin="round" fill="none" stroke="#c0c0c0" d="M64.76675 31.39119C49.27895 40.60335 7.72578 41.8419-28.04373 34.15767-44.5021 30.62221-57.63908 25.60045-64.76515 20.12189"/>
</g>
<path transform="matrix(1,0,0,-1,89.291,-59.527833)" stroke-width=".3985" stroke-linecap="butt" stroke-miterlimit="10" stroke-linejoin="miter" fill="none" stroke="#000000" d="M0-2143.0096"/>
<g clip-path="url(#clip_17)">
<path transform="matrix(1,0,0,-1,89.291,2083.454)" d="M81.5027 7.08755C81.5027 29.94069 45.01326 45.29312 0 41.37872-45.01326 37.46434-81.5027 15.76556-81.5027-7.08755-81.5027-29.94069-45.01326-45.29312 0-41.37872 45.01326-37.46434 81.5027-15.76556 81.5027 7.08755ZM0 0" fill="#e6e8e9"/>
<path transform="matrix(1,0,0,-1,89.291,2083.454)" stroke-width=".3985" stroke-linecap="round" stroke-linejoin="round" fill="none" stroke="#c0c0c0" d="M-73.6179-24.14433C-58.48172-39.01552-13.25177-40.2613 27.40625-26.9267 68.0643-13.59209 88.75415 9.27321 73.61797 24.1444"/>
<path transform="matrix(1,0,0,-1,89.291,2083.454)" stroke-width=".3985" stroke-linecap="round" stroke-linejoin="round" fill="none" stroke="#c0c0c0" d="M-25.5308-41.50967C-8.37343-42.892 16.96654-25.42725 31.06688-2.50238 45.16722 20.42249 42.68819 40.1274 25.5308 41.5097"/>
<path transform="matrix(1,0,0,-1,89.291,2083.454)" stroke-width=".3985" stroke-linecap="round" stroke-linejoin="round" fill="none" stroke="#c0c0c0" d="M12.91708-39.72687C3.29636-41.34749-10.28624-24.8748-17.42004-2.93451-24.55385 19.00578-22.53784 38.10628-12.91711 39.7269"/>
<path transform="matrix(1,0,0,-1,89.291,2083.454)" stroke-width=".3985" stroke-linecap="round" stroke-linejoin="round" fill="none" stroke="#c0c0c0" d="M58.33134-23.81908C36.09232-37.32652-8.0526-37.61165-40.26843-24.45702-72.48427-11.30237-80.57042 10.31166-58.33138 23.8191"/>
<path transform="matrix(1,0,0,-1,89.291,2083.454)" stroke-width=".3985" stroke-linecap="round" stroke-linejoin="round" fill="none" stroke="#c0c0c0" d="M.00041-41.17986C22.50378-39.223 40.7469-32.25102 40.7468-25.60764 40.74669-18.96425 22.50388-15.16487 .0005-17.12172-22.50284-19.07857-40.74596-26.05055-40.74585-32.69394-40.74574-39.33733-22.50293-43.1367 .00041-41.17986"/>
<path transform="matrix(1,0,0,-1,89.291,2083.454)" stroke-width=".3985" stroke-linecap="round" stroke-linejoin="round" fill="none" stroke="#c0c0c0" d="M64.28604-19.83804C80.3709-7.95786 64.62782 3.01968 29.1236 4.68091-6.38063 6.34213-48.2022-1.94215-64.28705-13.82234-72.67085-20.0149-72.67146-26.28308-64.28856-31.01797"/>
<path transform="matrix(1,0,0,-1,89.291,2083.454)" stroke-width=".3985" stroke-linecap="round" stroke-linejoin="round" fill="none" stroke="#c0c0c0" d="M81.49268 7.08633C81.49243 20.37314 45.00673 27.9719 0 24.05817-45.00676 20.14445-81.49301 6.20049-81.49277-7.0863"/>
<path transform="matrix(1,0,0,-1,89.291,2083.454)" stroke-width=".3985" stroke-linecap="round" stroke-linejoin="round" fill="none" stroke="#c0c0c0" d="M64.28702 31.01788C48.2039 40.10132 6.3822 41.11226-29.12354 33.27676-44.71858 29.83533-57.2225 25.056-64.2876 19.83795"/>
</g>
<path transform="matrix(1,0,0,-1,89.291,-59.527833)" stroke-width=".3985" stroke-linecap="butt" stroke-miterlimit="10" stroke-linejoin="miter" fill="none" stroke="#000000" d="M0-2262.0655"/>
<g clip-path="url(#clip_18)">
<path transform="matrix(1,0,0,-1,89.291,2202.5093)" d="M81.5027 7.09015C81.5027 29.36519 45.01326 44.24783 0 40.332-45.01326 36.41617-81.5027 15.18488-81.5027-7.09015-81.5027-29.36519-45.01326-44.24783 0-40.332 45.01326-36.41617 81.5027-15.18488 81.5027 7.09015ZM0 0" fill="#e6e8e9"/>
<path transform="matrix(1,0,0,-1,89.291,2202.5093)" stroke-width=".3985" stroke-linecap="round" stroke-linejoin="round" fill="none" stroke="#c0c0c0" d="M-73.95953-23.36946C-59.3376-37.73358-14.37016-38.91516 26.47606-26.0088 67.3223-13.10245 88.58153 9.00534 73.9596 23.36946"/>
<path transform="matrix(1,0,0,-1,89.291,2202.5093)" stroke-width=".3985" stroke-linecap="round" stroke-linejoin="round" fill="none" stroke="#c0c0c0" d="M-26.1266-40.47014C-9.24474-41.82936 16.1388-24.81148 30.56802-2.46083 44.99725 19.8898 43.00851 39.11092 26.12666 40.47014"/>
<path transform="matrix(1,0,0,-1,89.291,2202.5093)" stroke-width=".3985" stroke-linecap="round" stroke-linejoin="round" fill="none" stroke="#c0c0c0" d="M13.24368-38.63785C3.7593-40.23541-9.8587-24.23232-17.17287-2.89323-24.48701 18.44583-22.72813 37.04024-13.24374 38.63782"/>
<path transform="matrix(1,0,0,-1,89.291,2202.5093)" stroke-width=".3985" stroke-linecap="round" stroke-linejoin="round" fill="none" stroke="#c0c0c0" d="M59.05605-22.65102C37.40758-35.80031-6.5816-36.31862-39.19763-23.80869-71.81364-11.29877-80.70451 9.5017-59.05605 22.65099"/>
<path transform="matrix(1,0,0,-1,89.291,2202.5093)" stroke-width=".3985" stroke-linecap="round" stroke-linejoin="round" fill="none" stroke="#c0c0c0" d="M.00041-40.05789C22.50378-38.10022 40.7469-31.12743 40.7468-24.48389 40.74669-17.84035 22.50388-14.04152 .0005-15.99918-22.50284-17.95685-40.74596-24.92964-40.74585-31.57318-40.74574-38.21672-22.50293-42.01555 .00041-40.05789"/>
<path transform="matrix(1,0,0,-1,89.291,2202.5093)" stroke-width=".3985" stroke-linecap="round" stroke-linejoin="round" fill="none" stroke="#c0c0c0" d="M63.74432-19.58014C80.47372-7.73135 65.49638 3.39566 30.29126 5.27199-4.91385 7.14833-47.01717-.93604-63.74657-12.78482-72.85301-19.23445-72.85478-25.80513-63.74887-30.67064"/>
<path transform="matrix(1,0,0,-1,89.291,2202.5093)" stroke-width=".3985" stroke-linecap="round" stroke-linejoin="round" fill="none" stroke="#c0c0c0" d="M81.49268 7.08931C81.49243 20.3764 45.00673 27.97406 0 24.0587-45.00676 20.14334-81.49301 6.19777-81.49277-7.08931"/>
<path transform="matrix(1,0,0,-1,89.291,2202.5093)" stroke-width=".3985" stroke-linecap="round" stroke-linejoin="round" fill="none" stroke="#c0c0c0" d="M63.74773 30.67053C47.0187 39.60915 4.9162 40.36884-30.29056 32.36725-44.9557 29.0344-56.77684 24.51566-63.74545 19.58003"/>
</g>
<path transform="matrix(1,0,0,-1,89.291,-59.527833)" stroke-width=".3985" stroke-linecap="butt" stroke-miterlimit="10" stroke-linejoin="miter" fill="none" stroke="#000000" d="M0-2381.1217"/>
<g clip-path="url(#clip_19)">
<path transform="matrix(1,0,0,-1,89.291,2321.563)" d="M81.5027 7.0897C81.5027 28.79498 45.01326 43.21597 0 39.30038-45.01326 35.3848-81.5027 14.61555-81.5027-7.0897-81.5027-28.79498-45.01326-43.21597 0-39.30038 45.01326-35.3848 81.5027-14.61555 81.5027 7.0897ZM0 0" fill="#e6e8e9"/>
<path transform="matrix(1,0,0,-1,89.291,2321.563)" stroke-width=".3985" stroke-linecap="round" stroke-linejoin="round" fill="none" stroke="#c0c0c0" d="M-74.2928-22.61517C-60.19232-36.46799-15.49939-37.57263 25.53145-25.08266 66.56229-12.5927 88.3933 8.76234 74.2928 22.61517"/>
<path transform="matrix(1,0,0,-1,89.291,2321.563)" stroke-width=".3985" stroke-linecap="round" stroke-linejoin="round" fill="none" stroke="#c0c0c0" d="M-26.739-39.44498C-10.15228-40.78143 15.26624-24.20424 30.03357-2.41978 44.8009 19.36465 43.32578 38.10852 26.73906 39.44498"/>
<path transform="matrix(1,0,0,-1,89.291,2321.563)" stroke-width=".3985" stroke-linecap="round" stroke-linejoin="round" fill="none" stroke="#c0c0c0" d="M13.58159-37.56435C4.24414-39.13806-9.40628-23.5956-16.90709-2.84961-24.4079 17.89636-22.91904 35.99062-13.58159 37.56435"/>
<path transform="matrix(1,0,0,-1,89.291,2321.563)" stroke-width=".3985" stroke-linecap="round" stroke-linejoin="round" fill="none" stroke="#c0c0c0" d="M59.77531-21.50787C38.73795-34.28566-5.07817-35.01479-38.09116-23.13623-71.10413-11.25768-80.81268 8.73012-59.77531 21.5079"/>
<path transform="matrix(1,0,0,-1,89.291,2321.563)" stroke-width=".3985" stroke-linecap="round" stroke-linejoin="round" fill="none" stroke="#c0c0c0" d="M.00041-38.93726C22.50378-36.9798 40.7469-30.00749 40.7468-23.36436 40.74669-16.72124 22.50388-12.92258 .0005-14.88004-22.50284-16.83751-40.74596-23.8098-40.74585-30.45293-40.74574-37.09605-22.50293-40.89473 .00041-38.93726"/>
<path transform="matrix(1,0,0,-1,89.291,2321.563)" stroke-width=".3985" stroke-linecap="round" stroke-linejoin="round" fill="none" stroke="#c0c0c0" d="M63.13057-19.3584C80.55565-7.54985 66.41731 3.7344 31.55083 5.84558-3.31563 7.95676-45.70642 .09566-63.13152-11.71288-73.0568-18.43889-73.05756-25.34111-63.13252-30.3408"/>
<path transform="matrix(1,0,0,-1,89.291,2321.563)" stroke-width=".3985" stroke-linecap="round" stroke-linejoin="round" fill="none" stroke="#c0c0c0" d="M81.49268 7.0886C81.49243 20.3749 45.00673 27.97224 0 24.05728-45.00676 20.1423-81.49301 6.19772-81.49277-7.08856"/>
<path transform="matrix(1,0,0,-1,89.291,2321.563)" stroke-width=".3985" stroke-linecap="round" stroke-linejoin="round" fill="none" stroke="#c0c0c0" d="M63.1321 30.34073C45.70798 39.11823 3.31792 39.60495-31.54948 31.4283-45.2142 28.22401-56.30284 23.98601-63.131 19.35832"/>
</g>
<path transform="matrix(1,0,0,-1,89.291,-59.527833)" stroke-width=".3985" stroke-linecap="butt" stroke-miterlimit="10" stroke-linejoin="miter" fill="none" stroke="#000000" d="M0-2500.1778"/>
<g clip-path="url(#clip_20)">
<path transform="matrix(1,0,0,-1,89.291,2440.6182)" d="M81.5027 7.09015C81.5027 28.23453 45.01326 42.20062 0 38.28479-45.01326 34.36896-81.5027 14.0542-81.5027-7.09015-81.5027-28.23453-45.01326-42.20062 0-38.28479 45.01326-34.36896 81.5027-14.0542 81.5027 7.09015ZM0 0" fill="#e6e8e9"/>
<path transform="matrix(1,0,0,-1,89.291,2440.6182)" stroke-width=".3985" stroke-linecap="round" stroke-linejoin="round" fill="none" stroke="#c0c0c0" d="M-74.61284-21.88681C-61.03978-35.21854-16.63095-36.22728 24.5761-24.13957 65.78314-12.05188 88.18596 8.55511 74.6129 21.88684"/>
<path transform="matrix(1,0,0,-1,89.291,2440.6182)" stroke-width=".3985" stroke-linecap="round" stroke-linejoin="round" fill="none" stroke="#c0c0c0" d="M-27.3698-38.43825C-11.09848-39.74797 14.34578-23.60051 29.46165-2.37164 44.57753 18.85722 43.64114 37.12854 27.36983 38.43828"/>
<path transform="matrix(1,0,0,-1,89.291,2440.6182)" stroke-width=".3985" stroke-linecap="round" stroke-linejoin="round" fill="none" stroke="#c0c0c0" d="M13.9327-36.50563C4.75409-38.0529-8.9248-22.96292-16.61952-2.80164-24.31425 17.35962-23.11133 34.95836-13.93272 36.50563"/>
<path transform="matrix(1,0,0,-1,89.291,2440.6182)" stroke-width=".3985" stroke-linecap="round" stroke-linejoin="round" fill="none" stroke="#c0c0c0" d="M60.49458-20.38734C40.0932-32.77936-3.5304-33.69746-36.94032-22.43796-70.35027-11.17847-80.89598 7.9953-60.49461 20.38731"/>
<path transform="matrix(1,0,0,-1,89.291,2440.6182)" stroke-width=".3985" stroke-linecap="round" stroke-linejoin="round" fill="none" stroke="#c0c0c0" d="M.00041-37.81631C22.50378-35.85872 40.7469-28.88593 40.7468-22.24226 40.74669-15.5986 22.50388-11.79962 .0005-13.7572-22.50284-15.7148-40.74596-22.68759-40.74585-29.33125-40.74574-35.97491-22.50293-39.7739 .00041-37.81631"/>
<path transform="matrix(1,0,0,-1,89.291,2440.6182)" stroke-width=".3985" stroke-linecap="round" stroke-linejoin="round" fill="none" stroke="#c0c0c0" d="M62.42406-19.17863C80.60828-7.41844 67.40166 4.03625 32.92557 6.40573-1.55052 8.77519-44.241 1.16258-62.42522-10.59761-73.29057-17.62402-73.28984-24.90222-62.4258-30.03865"/>
<path transform="matrix(1,0,0,-1,89.291,2440.6182)" stroke-width=".3985" stroke-linecap="round" stroke-linejoin="round" fill="none" stroke="#c0c0c0" d="M81.49268 7.08902C81.49243 20.37636 45.00673 27.97433 0 24.05916-45.00676 20.14398-81.49301 6.19835-81.49277-7.08896"/>
<path transform="matrix(1,0,0,-1,89.291,2440.6182)" stroke-width=".3985" stroke-linecap="round" stroke-linejoin="round" fill="none" stroke="#c0c0c0" d="M62.42485 30.03838C44.2416 38.63524 1.55234 38.821-32.92448 30.45363-45.50235 27.40125-55.7906 23.46864-62.425 19.17836"/>
</g>
<path transform="matrix(1,0,0,-1,89.291,-59.527833)" stroke-width=".3985" stroke-linecap="butt" stroke-miterlimit="10" stroke-linejoin="miter" fill="none" stroke="#000000" d="M0-2619.234"/>
<g clip-path="url(#clip_21)">
<path transform="matrix(1,0,0,-1,89.291,2559.6724)" d="M81.5027 7.08755C81.5027 27.68057 45.01326 41.20088 0 37.2865-45.01326 33.3721-81.5027 13.50546-81.5027-7.08755-81.5027-27.68057-45.01326-41.20088 0-37.2865 45.01326-33.3721 81.5027-13.50546 81.5027 7.08755ZM0 0" fill="#e6e8e9"/>
<path transform="matrix(1,0,0,-1,89.291,2559.6724)" stroke-width=".3985" stroke-linecap="round" stroke-linejoin="round" fill="none" stroke="#c0c0c0" d="M-74.9257-21.17764C-61.89328-33.9848-17.78174-34.88455 23.59912-23.18872 64.97998-11.4929 87.95818 8.37053 74.92574 21.1777"/>
<path transform="matrix(1,0,0,-1,89.291,2559.6724)" stroke-width=".3985" stroke-linecap="round" stroke-linejoin="round" fill="none" stroke="#c0c0c0" d="M-28.01595-37.44576C-12.08458-38.7283 13.37444-23.00273 28.84682-2.32248 44.31918 18.35776 43.94734 36.1632 28.01598 37.44576"/>
<path transform="matrix(1,0,0,-1,89.291,2559.6724)" stroke-width=".3985" stroke-linecap="round" stroke-linejoin="round" fill="none" stroke="#c0c0c0" d="M14.29272-35.4614C5.28487-36.97816-8.41684-22.33076-16.31046-2.74626-24.20407 16.83824-23.30064 33.94455-14.29279 35.46133"/>
<path transform="matrix(1,0,0,-1,89.291,2559.6724)" stroke-width=".3985" stroke-linecap="round" stroke-linejoin="round" fill="none" stroke="#c0c0c0" d="M61.2041-19.29349C41.45927-31.28497-1.95016-32.3683-35.75163-21.71295-69.55312-11.05759-80.94899 7.302-61.20416 19.29349"/>
<path transform="matrix(1,0,0,-1,89.291,2559.6724)" stroke-width=".3985" stroke-linecap="round" stroke-linejoin="round" fill="none" stroke="#c0c0c0" d="M.00041-36.69472C22.50378-34.73787 40.7469-27.76578 40.7468-21.12228 40.74669-14.47879 22.50388-10.67934 .0005-12.63618-22.50284-14.59302-40.74596-21.56511-40.74585-28.2086-40.74574-34.8521-22.50293-38.65155 .00041-36.69472"/>
<path transform="matrix(1,0,0,-1,89.291,2559.6724)" stroke-width=".3985" stroke-linecap="round" stroke-linejoin="round" fill="none" stroke="#c0c0c0" d="M61.61125-19.04515C80.6221-7.3464 68.44847 4.28835 34.4212 6.9419 .39395 9.59544-42.6018 2.26274-61.61266-9.43599-73.56087-16.78877-73.56137-24.4849-61.61395-29.75996"/>
<path transform="matrix(1,0,0,-1,89.291,2559.6724)" stroke-width=".3985" stroke-linecap="round" stroke-linejoin="round" fill="none" stroke="#c0c0c0" d="M81.49268 7.08629C81.49243 20.3733 45.00673 27.9722 0 24.0585-45.00676 20.14482-81.49301 6.20068-81.49277-7.08632"/>
<path transform="matrix(1,0,0,-1,89.291,2559.6724)" stroke-width=".3985" stroke-linecap="round" stroke-linejoin="round" fill="none" stroke="#c0c0c0" d="M61.613 29.76001C42.60379 38.1531-.39201 38.00816-34.42075 29.4372-45.82329 26.56511-55.24231 22.96538-61.6122 19.0452"/>
</g>
<path transform="matrix(1,0,0,-1,89.291,-59.527833)" stroke-width=".3985" stroke-linecap="butt" stroke-miterlimit="10" stroke-linejoin="miter" fill="none" stroke="#000000" d="M0-2738.2899"/>
<g clip-path="url(#clip_22)">
<path transform="matrix(1,0,0,-1,89.291,2678.727)" d="M81.5027 7.09447C81.5027 27.14641 45.01326 40.225 0 36.3068-45.01326 32.38857-81.5027 12.95746-81.5027-7.09447-81.5027-27.14641-45.01326-40.225 0-36.3068 45.01326-32.38857 81.5027-12.95746 81.5027 7.09447ZM0 0" fill="#e6e8e9"/>
<path transform="matrix(1,0,0,-1,89.291,2678.727)" stroke-width=".3985" stroke-linecap="round" stroke-linejoin="round" fill="none" stroke="#c0c0c0" d="M-75.229-20.50613C-62.73839-32.7793-18.93011-33.54747 22.61736-22.22252 64.16486-10.89757 87.71962 8.23303 75.229 20.5062"/>
<path transform="matrix(1,0,0,-1,89.291,2678.727)" stroke-width=".3985" stroke-linecap="round" stroke-linejoin="round" fill="none" stroke="#c0c0c0" d="M-28.67621-36.47523C-13.10748-37.72598 12.35213-22.40941 28.18962-2.26465 44.0271 17.8801 44.24493 35.2245 28.67621 36.47523"/>
<path transform="matrix(1,0,0,-1,89.291,2678.727)" stroke-width=".3985" stroke-linecap="round" stroke-linejoin="round" fill="none" stroke="#c0c0c0" d="M14.6667-34.43251C5.84418-35.92021-7.87476-21.70993-15.97487-2.69368-24.07498 16.32257-23.48924 32.94476-14.6667 34.43248"/>
<path transform="matrix(1,0,0,-1,89.291,2678.727)" stroke-width=".3985" stroke-linecap="round" stroke-linejoin="round" fill="none" stroke="#c0c0c0" d="M61.91039-18.21832C42.84697-29.79889-.32559-31.03027-34.51753-20.96861-68.70947-10.90695-80.97386 6.63777-61.91045 18.21835"/>
<path transform="matrix(1,0,0,-1,89.291,2678.727)" stroke-width=".3985" stroke-linecap="round" stroke-linejoin="round" fill="none" stroke="#c0c0c0" d="M.00041-35.57301C22.50378-33.61427 40.7469-26.64095 40.7468-19.99777 40.74669-13.3546 22.50388-9.55693 .0005-11.51567-22.50284-13.47441-40.74596-20.44775-40.74585-27.09093-40.74574-33.7341-22.50293-37.53177 .00041-35.57301"/>
<path transform="matrix(1,0,0,-1,89.291,2678.727)" stroke-width=".3985" stroke-linecap="round" stroke-linejoin="round" fill="none" stroke="#c0c0c0" d="M60.66771-18.95796C80.58328-7.3332 69.56499 4.49234 36.05885 7.45522 2.55272 10.41808-40.75415 3.39592-60.66972-8.22884-73.87782-15.93848-73.87628-24.10818-60.66953-29.51865"/>
<path transform="matrix(1,0,0,-1,89.291,2678.727)" stroke-width=".3985" stroke-linecap="round" stroke-linejoin="round" fill="none" stroke="#c0c0c0" d="M81.49268 7.09317C81.49243 20.37955 45.00673 27.97487 0 24.05737-45.00676 20.13986-81.49301 6.19319-81.49277-7.09317"/>
<path transform="matrix(1,0,0,-1,89.291,2678.727)" stroke-width=".3985" stroke-linecap="round" stroke-linejoin="round" fill="none" stroke="#c0c0c0" d="M60.66827 29.51842C40.7542 37.67647-2.55182 37.15982-36.05812 28.3646-46.18378 25.70685-54.6512 22.47032-60.66896 18.95775"/>
</g>
<path transform="matrix(1,0,0,-1,89.291,-59.527833)" stroke-width=".3985" stroke-linecap="butt" stroke-miterlimit="10" stroke-linejoin="miter" fill="none" stroke="#000000" d="M0-2857.346"/>
<g clip-path="url(#clip_23)">
<path transform="matrix(1,0,0,-1,89.291,2797.7813)" d="M81.5027 7.08713C81.5027 26.60947 45.01326 39.26202 0 35.34785-45.01326 31.4337-81.5027 12.4352-81.5027-7.08713-81.5027-26.60947-45.01326-39.26202 0-35.34785 45.01326-31.4337 81.5027-12.4352 81.5027 7.08713ZM0 0" fill="#e6e8e9"/>
<path transform="matrix(1,0,0,-1,89.291,2797.7813)" stroke-width=".3985" stroke-linecap="round" stroke-linejoin="round" fill="none" stroke="#c0c0c0" d="M-75.52145-19.84996C-63.57866-31.58505-20.08325-32.21051 21.62605-21.248 63.33537-10.28548 87.46431 8.11484 75.52151 19.84993"/>
<path transform="matrix(1,0,0,-1,89.291,2797.7813)" stroke-width=".3985" stroke-linecap="round" stroke-linejoin="round" fill="none" stroke="#c0c0c0" d="M-29.35672-35.52415C-14.17888-36.74493 11.2691-21.82977 27.48212-2.21054 43.69513 17.40868 44.53455 34.30344 29.35672 35.52422"/>
<path transform="matrix(1,0,0,-1,89.291,2797.7813)" stroke-width=".3985" stroke-linecap="round" stroke-linejoin="round" fill="none" stroke="#c0c0c0" d="M15.05156-33.42773C6.42857-34.88028-7.30093-21.09157-15.61351-2.63026-23.92607 15.83101-23.67458 31.97517-15.05159 33.42773"/>
<path transform="matrix(1,0,0,-1,89.291,2797.7813)" stroke-width=".3985" stroke-linecap="round" stroke-linejoin="round" fill="none" stroke="#c0c0c0" d="M62.60374-17.1842C44.24446-28.33504 1.33147-29.68083-33.24335-20.19048-67.81818-10.7001-80.96301 6.03337-62.60371 17.1842"/>
<path transform="matrix(1,0,0,-1,89.291,2797.7813)" stroke-width=".3985" stroke-linecap="round" stroke-linejoin="round" fill="none" stroke="#c0c0c0" d="M.00041-34.45253C22.50378-32.49568 40.7469-25.52354 40.7468-18.87999 40.74669-12.23642 22.50388-8.43687 .0005-10.39372-22.50284-12.35057-40.74596-19.3227-40.74585-25.96626-40.74574-32.60983-22.50293-36.40936 .00041-34.45253"/>
<path transform="matrix(1,0,0,-1,89.291,2797.7813)" stroke-width=".3985" stroke-linecap="round" stroke-linejoin="round" fill="none" stroke="#c0c0c0" d="M59.55829-18.9455C80.4699-7.41624 70.7564 4.61662 37.8635 7.93004 4.9706 11.24347-38.64847 4.58284-59.56009-6.94638-74.24672-15.04388-74.24895-23.75992-59.56198-29.30351"/>
<path transform="matrix(1,0,0,-1,89.291,2797.7813)" stroke-width=".3985" stroke-linecap="round" stroke-linejoin="round" fill="none" stroke="#c0c0c0" d="M81.49268 7.08624C81.49243 20.3734 45.00673 27.97246 0 24.05878-45.00676 20.14511-81.49301 6.20084-81.49277-7.0863"/>
<path transform="matrix(1,0,0,-1,89.291,2797.7813)" stroke-width=".3985" stroke-linecap="round" stroke-linejoin="round" fill="none" stroke="#c0c0c0" d="M59.56078 29.30351C38.64919 37.1965-4.96939 36.27151-37.86404 27.23749-46.59491 24.83987-54.0094 22.00558-59.5595 18.9455"/>
</g>
<path transform="matrix(1,0,0,-1,89.291,-59.527833)" stroke-width=".3985" stroke-linecap="butt" stroke-miterlimit="10" stroke-linejoin="miter" fill="none" stroke="#000000" d="M0-2976.402"/>
<g clip-path="url(#clip_24)">
<path transform="matrix(1,0,0,-1,89.291,2916.836)" d="M81.5027 7.09534C81.5027 26.09975 45.01326 38.3288 0 34.41011-45.01326 30.49142-81.5027 11.90907-81.5027-7.09534-81.5027-26.09975-45.01326-38.3288 0-34.41011 45.01326-30.49142 81.5027-11.90907 81.5027 7.09534ZM0 0" fill="#e6e8e9"/>
<path transform="matrix(1,0,0,-1,89.291,2916.836)" stroke-width=".3985" stroke-linecap="round" stroke-linejoin="round" fill="none" stroke="#c0c0c0" d="M-75.80075-19.23274C-64.41176-30.42072-21.2424-30.87946 20.62154-20.25743 62.48549-9.63542 87.18983 8.0448 75.80084 19.23277"/>
<path transform="matrix(1,0,0,-1,89.291,2916.836)" stroke-width=".3985" stroke-linecap="round" stroke-linejoin="round" fill="none" stroke="#c0c0c0" d="M-30.04823-34.59595C-15.29012-35.78233 10.12718-21.25441 26.72249-2.1477 43.31778 16.959 44.80643 33.40958 30.0483 34.59598"/>
<path transform="matrix(1,0,0,-1,89.291,2916.836)" stroke-width=".3985" stroke-linecap="round" stroke-linejoin="round" fill="none" stroke="#c0c0c0" d="M15.44537-32.43689C7.03783-33.85298-6.69302-20.47813-15.22334-2.56377-23.75366 15.3506-23.85295 31.02078-15.4454 32.43686"/>
<path transform="matrix(1,0,0,-1,89.291,2916.836)" stroke-width=".3985" stroke-linecap="round" stroke-linejoin="round" fill="none" stroke="#c0c0c0" d="M63.28621-16.16705C45.65593-26.87747 3.02959-28.3215-31.92271-19.3927-66.87503-10.4639-80.91652 5.45667-63.28624 16.16708"/>
<path transform="matrix(1,0,0,-1,89.291,2916.836)" stroke-width=".3985" stroke-linecap="round" stroke-linejoin="round" fill="none" stroke="#c0c0c0" d="M.00041-33.3298C22.50378-31.37079 40.7469-24.39728 40.7468-17.75417 40.74669-11.11105 22.50388-7.31363 .0005-9.27264-22.50284-11.23164-40.74596-18.20515-40.74585-24.84827-40.74574-31.49138-22.50293-35.2888 .00041-33.3298"/>
<path transform="matrix(1,0,0,-1,89.291,2916.836)" stroke-width=".3985" stroke-linecap="round" stroke-linejoin="round" fill="none" stroke="#c0c0c0" d="M58.24411-18.99377C80.25641-7.58142 72.02245 4.66766 39.85468 8.36557 7.68689 12.06346-36.23448 5.80933-58.24678-5.60301-74.68628-14.12653-74.68887-23.47365-58.24898-29.13513"/>
<path transform="matrix(1,0,0,-1,89.291,2916.836)" stroke-width=".3985" stroke-linecap="round" stroke-linejoin="round" fill="none" stroke="#c0c0c0" d="M81.49268 7.0941C81.49243 20.38036 45.00673 27.97516 0 24.05714-45.00676 20.13911-81.49301 6.19211-81.49277-7.09413"/>
<path transform="matrix(1,0,0,-1,89.291,2916.836)" stroke-width=".3985" stroke-linecap="round" stroke-linejoin="round" fill="none" stroke="#c0c0c0" d="M58.24686 29.1347C44.00935 34.03778 19.74191 35.3598-5.39557 32.60246-26.72241 30.2631-46.1675 25.25578-58.24622 18.99335"/>
</g>
<path transform="matrix(1,0,0,-1,89.291,-59.527833)" stroke-width=".3985" stroke-linecap="butt" stroke-miterlimit="10" stroke-linejoin="miter" fill="none" stroke="#000000" d="M0-3095.4583"/>
<g clip-path="url(#clip_25)">
<path transform="matrix(1,0,0,-1,89.291,3035.891)" d="M81.5027 7.09447C81.5027 25.59459 45.01326 37.41524 0 33.49702-45.01326 29.5788-81.5027 11.40564-81.5027-7.09447-81.5027-25.59459-45.01326-37.41524 0-33.49702 45.01326-29.5788 81.5027-11.40564 81.5027 7.09447ZM0 0" fill="#e6e8e9"/>
<path transform="matrix(1,0,0,-1,89.291,3035.891)" stroke-width=".3985" stroke-linecap="round" stroke-linejoin="round" fill="none" stroke="#c0c0c0" d="M-76.06929-18.63715C-65.2413-29.27493-22.40518-29.55449 19.6062-19.26163 61.6176-8.96877 86.89731 7.99936 76.06932 18.63715"/>
<path transform="matrix(1,0,0,-1,89.291,3035.891)" stroke-width=".3985" stroke-linecap="round" stroke-linejoin="round" fill="none" stroke="#c0c0c0" d="M-30.75146-33.69356C-16.44128-34.84412 8.92691-20.69188 25.91064-2.08325 42.89436 16.52534 45.06165 32.54301 30.75146 33.69359"/>
<path transform="matrix(1,0,0,-1,89.291,3035.891)" stroke-width=".3985" stroke-linecap="round" stroke-linejoin="round" fill="none" stroke="#c0c0c0" d="M15.85072-31.47488C7.67616-32.85208-6.04774-19.87627-14.80177-2.49348-23.5558 14.88928-24.02539 30.09769-15.85081 31.47488"/>
<path transform="matrix(1,0,0,-1,89.291,3035.891)" stroke-width=".3985" stroke-linecap="round" stroke-linejoin="round" fill="none" stroke="#c0c0c0" d="M63.95032-15.193C47.06851-25.44713 4.75041-26.9572-30.56854-18.56657-65.88751-10.17595-80.83217 4.93884-63.95035 15.193"/>
<path transform="matrix(1,0,0,-1,89.291,3035.891)" stroke-width=".3985" stroke-linecap="round" stroke-linejoin="round" fill="none" stroke="#c0c0c0" d="M.00041-32.21063C22.50378-30.25174 40.7469-23.27841 40.7468-16.6354 40.74669-9.9924 22.50388-6.195 .0005-8.1539-22.50284-10.11278-40.74596-17.0861-40.74585-23.72911-40.74574-30.37212-22.50293-34.16951 .00041-32.21063"/>
<path transform="matrix(1,0,0,-1,89.291,3035.891)" stroke-width=".3985" stroke-linecap="round" stroke-linejoin="round" fill="none" stroke="#c0c0c0" d="M56.67036-19.13747C79.90364-7.87578 73.36523 4.60483 42.067 8.73889 10.76875 12.87297-33.43748 7.09482-56.67076-4.16685-75.21149-13.15413-75.20891-23.2433-56.66968-29.00276"/>
<path transform="matrix(1,0,0,-1,89.291,3035.891)" stroke-width=".3985" stroke-linecap="round" stroke-linejoin="round" fill="none" stroke="#c0c0c0" d="M81.49268 7.09367C81.49243 20.3797 45.00673 27.97453 0 24.05675-45.00676 20.13895-81.49301 6.1923-81.49277-7.0937"/>
<path transform="matrix(1,0,0,-1,89.291,3035.891)" stroke-width=".3985" stroke-linecap="round" stroke-linejoin="round" fill="none" stroke="#c0c0c0" d="M56.66975 29.00267C41.64388 33.6706 16.94894 34.6779-8.09554 31.64415-27.46092 29.29813-45.05074 24.76952-56.67029 19.13737"/>
</g>
<path transform="matrix(1,0,0,-1,89.291,-59.527833)" stroke-width=".3985" stroke-linecap="butt" stroke-miterlimit="10" stroke-linejoin="miter" fill="none" stroke="#000000" d="M0-3214.5142"/>
<g clip-path="url(#clip_26)">
<path transform="matrix(1,0,0,-1,89.291,3154.9454)" d="M81.5027 7.10226C81.5027 25.1122 45.01326 36.53197 0 32.60945-45.01326 28.68694-81.5027 10.90765-81.5027-7.10226-81.5027-25.1122-45.01326-36.53197 0-32.60945 45.01326-28.68694 81.5027-10.90765 81.5027 7.10226ZM0 0" fill="#e6e8e9"/>
<path transform="matrix(1,0,0,-1,89.291,3154.9454)" stroke-width=".3985" stroke-linecap="round" stroke-linejoin="round" fill="none" stroke="#c0c0c0" d="M-76.32582-18.07649C-66.06482-28.15623-23.57394-28.23393 18.58008-18.25061 60.73412-8.26729 86.58682 7.99677 76.32582 18.07649"/>
<path transform="matrix(1,0,0,-1,89.291,3154.9454)" stroke-width=".3985" stroke-linecap="round" stroke-linejoin="round" fill="none" stroke="#c0c0c0" d="M-31.46448-32.81732C-17.63599-33.92778 7.66226-20.13474 25.0393-2.01059 42.41635 16.11354 45.29301 31.7069 31.46451 32.81735"/>
<path transform="matrix(1,0,0,-1,89.291,3154.9454)" stroke-width=".3985" stroke-linecap="round" stroke-linejoin="round" fill="none" stroke="#c0c0c0" d="M16.26474-30.53116C8.34267-31.86674-5.3617-19.27994-14.34439-2.41824-23.32709 14.44342-24.18684 29.19551-16.26477 30.5311"/>
<path transform="matrix(1,0,0,-1,89.291,3154.9454)" stroke-width=".3985" stroke-linecap="round" stroke-linejoin="round" fill="none" stroke="#c0c0c0" d="M64.60472-14.2442C48.49951-24.02917 6.51778-25.58374-29.16243-17.71712-64.84267-9.85051-80.70993 4.45924-64.60472 14.24423"/>
<path transform="matrix(1,0,0,-1,89.291,3154.9454)" stroke-width=".3985" stroke-linecap="round" stroke-linejoin="round" fill="none" stroke="#c0c0c0" d="M.00041-31.08841C22.50378-29.12741 40.7469-22.15263 40.7468-15.50992 40.74669-8.8672 22.50388-5.0717 .0005-7.0327-22.50284-8.9937-40.74596-15.96848-40.74585-22.61119-40.74574-29.2539-22.50293-33.0494 .00041-31.08841"/>
<path transform="matrix(1,0,0,-1,89.291,3154.9454)" stroke-width=".3985" stroke-linecap="round" stroke-linejoin="round" fill="none" stroke="#c0c0c0" d="M54.74338-19.38213C79.34296-8.31372 74.77357 4.40968 44.53937 9.03658 14.30518 13.66348-30.14632 8.44112-54.74591-2.62726-75.85086-12.12355-75.85222-23.10435-54.74751-28.92285"/>
<path transform="matrix(1,0,0,-1,89.291,3154.9454)" stroke-width=".3985" stroke-linecap="round" stroke-linejoin="round" fill="none" stroke="#c0c0c0" d="M81.49268 7.1013C81.49243 20.38676 45.00673 27.97769 0 24.05571-45.00676 20.13373-81.49301 6.18416-81.49277-7.10127"/>
<path transform="matrix(1,0,0,-1,89.291,3154.9454)" stroke-width=".3985" stroke-linecap="round" stroke-linejoin="round" fill="none" stroke="#c0c0c0" d="M54.74553 28.92262C38.8358 33.30891 13.68892 33.94768-11.2023 30.59746-28.30872 28.29485-43.81073 24.30183-54.74538 19.3819"/>
</g>
<path transform="matrix(1,0,0,-1,89.291,-59.527833)" stroke-width=".3985" stroke-linecap="butt" stroke-miterlimit="10" stroke-linejoin="miter" fill="none" stroke="#000000" d="M0-3333.5704"/>
<g clip-path="url(#clip_27)">
<path transform="matrix(1,0,0,-1,89.291,3274)" d="M81.5027 7.09923C81.5027 24.63425 45.01326 35.6704 0 31.74957-45.01326 27.82874-81.5027 10.43579-81.5027-7.09923-81.5027-24.63425-45.01326-35.6704 0-31.74957 45.01326-27.82874 81.5027-10.43579 81.5027 7.09923ZM0 0" fill="#e6e8e9"/>
<path transform="matrix(1,0,0,-1,89.291,3274)" stroke-width=".3985" stroke-linecap="round" stroke-linejoin="round" fill="none" stroke="#c0c0c0" d="M-76.57397-17.53433C-66.88835-27.05266-24.75227-26.91805 17.53839-17.23425 59.82909-7.55045 86.2596 8.016 76.57397 17.53433"/>
<path transform="matrix(1,0,0,-1,89.291,3274)" stroke-width=".3985" stroke-linecap="round" stroke-linejoin="round" fill="none" stroke="#c0c0c0" d="M-32.18794-31.96794C-18.8755-33.03888 6.32762-19.59401 24.10475-1.93858 41.88188 15.71683 45.5004 30.89706 32.18794 31.968"/>
<path transform="matrix(1,0,0,-1,89.291,3274)" stroke-width=".3985" stroke-linecap="round" stroke-linejoin="round" fill="none" stroke="#c0c0c0" d="M16.68636-29.61899C9.0363-30.90749-4.63599-18.69112-13.85165-2.33295-23.06732 14.0252-24.33643 28.33047-16.68639 29.61896"/>
<path transform="matrix(1,0,0,-1,89.291,3274)" stroke-width=".3985" stroke-linecap="round" stroke-linejoin="round" fill="none" stroke="#c0c0c0" d="M65.23856-13.34322C49.9305-22.64215 8.31221-24.20607-27.71846-16.83691-63.74915-9.46776-80.54659 4.0443-65.23853 13.34325"/>
<path transform="matrix(1,0,0,-1,89.291,3274)" stroke-width=".3985" stroke-linecap="round" stroke-linejoin="round" fill="none" stroke="#c0c0c0" d="M.00041-29.96709C22.50378-28.00702 40.7469-21.03291 40.7468-14.3901 40.74669-7.7473 22.50388-3.95102 .0005-5.91109-22.50284-7.87115-40.74596-14.84526-40.74585-21.48807-40.74574-28.13087-22.50293-31.92715 .00041-29.96709"/>
<path transform="matrix(1,0,0,-1,89.291,3274)" stroke-width=".3985" stroke-linecap="round" stroke-linejoin="round" fill="none" stroke="#c0c0c0" d="M52.35518-19.76688C78.49187-8.95471 76.23987 4.02318 47.32422 9.22 18.40857 14.41684-26.22017 9.86494-52.35686-.9472-76.64423-10.9941-76.64415-23.07072-52.35721-28.88698"/>
<path transform="matrix(1,0,0,-1,89.291,3274)" stroke-width=".3985" stroke-linecap="round" stroke-linejoin="round" fill="none" stroke="#c0c0c0" d="M81.49268 7.09793C81.49243 20.38354 45.00673 27.97614 0 24.056-45.00676 20.13586-81.49301 6.18764-81.49277-7.09796"/>
<path transform="matrix(1,0,0,-1,89.291,3274)" stroke-width=".3985" stroke-linecap="round" stroke-linejoin="round" fill="none" stroke="#c0c0c0" d="M52.35637 28.88708C35.45212 32.9356 9.84254 33.14587-14.80693 29.43736-29.28532 27.25893-42.42651 23.8746-52.35602 19.76698"/>
</g>
<path transform="matrix(1,0,0,-1,89.291,-59.527833)" stroke-width=".3985" stroke-linecap="butt" stroke-miterlimit="10" stroke-linejoin="miter" fill="none" stroke="#000000" d="M0-3452.6265"/>
<g clip-path="url(#clip_28)">
<path transform="matrix(1,0,0,-1,89.291,3393.0543)" d="M81.5027 7.10226C81.5027 24.17911 45.01326 34.84248 0 30.91997-45.01326 26.99745-81.5027 9.97456-81.5027-7.10226-81.5027-24.17911-45.01326-34.84248 0-30.91997 45.01326-26.99745 81.5027-9.97456 81.5027 7.10226ZM0 0" fill="#e6e8e9"/>
<path transform="matrix(1,0,0,-1,89.291,3393.0543)" stroke-width=".3985" stroke-linecap="round" stroke-linejoin="round" fill="none" stroke="#c0c0c0" d="M-76.8065-17.02878C-67.69865-25.97862-25.92702-25.60966 16.49193-16.20506 58.9109-6.80045 85.91437 8.0789 76.80653 17.02875"/>
<path transform="matrix(1,0,0,-1,89.291,3393.0543)" stroke-width=".3985" stroke-linecap="round" stroke-linejoin="round" fill="none" stroke="#c0c0c0" d="M-32.91203-31.15031C-20.15123-32.17618 4.92917-19.06111 23.10577-1.8575 41.28236 15.34612 45.6728 30.1244 32.912 31.15025"/>
<path transform="matrix(1,0,0,-1,89.291,3393.0543)" stroke-width=".3985" stroke-linecap="round" stroke-linejoin="round" fill="none" stroke="#c0c0c0" d="M17.11623-28.73497C9.76135-29.9758-3.8646-18.11612-13.31754-2.2465-22.77048 13.62308-24.47112 27.49414-17.11626 28.73497"/>
<path transform="matrix(1,0,0,-1,89.291,3393.0543)" stroke-width=".3985" stroke-linecap="round" stroke-linejoin="round" fill="none" stroke="#c0c0c0" d="M65.85074-12.47435C51.36687-21.27422 10.14227-22.8229-26.22585-15.93358-62.59398-9.04425-80.33461 3.67456-65.85074 12.47441"/>
<path transform="matrix(1,0,0,-1,89.291,3393.0543)" stroke-width=".3985" stroke-linecap="round" stroke-linejoin="round" fill="none" stroke="#c0c0c0" d="M.00041-28.84537C22.50378-26.8844 40.7469-19.9096 40.7468-13.26683 40.74669-6.62405 22.50388-2.82852 .0005-4.78947-22.50284-6.75044-40.74596-13.72523-40.74585-20.36801-40.74574-27.01079-22.50293-30.80634 .00041-28.84537"/>
<path transform="matrix(1,0,0,-1,89.291,3393.0543)" stroke-width=".3985" stroke-linecap="round" stroke-linejoin="round" fill="none" stroke="#c0c0c0" d="M49.31927-20.31378C77.20038-9.84363 77.71971 3.39174 50.481 9.24841 23.2423 15.1051-21.44095 11.36473-49.32207 .89456-67.35509-5.87737-74.62323-14.15944-68.38167-20.82584-65.17703-24.24796-58.5781-27.04593-49.32208-28.90903"/>
<path transform="matrix(1,0,0,-1,89.291,3393.0543)" stroke-width=".3985" stroke-linecap="round" stroke-linejoin="round" fill="none" stroke="#c0c0c0" d="M81.49268 7.10123C81.49243 20.38681 45.00673 27.97787 0 24.05594-45.00676 20.13399-81.49301 6.18436-81.49277-7.1012"/>
<path transform="matrix(1,0,0,-1,89.291,3393.0543)" stroke-width=".3985" stroke-linecap="round" stroke-linejoin="round" fill="none" stroke="#c0c0c0" d="M49.32005 28.90889C21.9013 34.42752-21.90134 30.61073-49.32129 20.31364"/>
</g>
</svg>
