<svg xmlns="http://www.w3.org/2000/svg" xmlns:xlink="http://www.w3.org/1999/xlink" version="1.1" width="178.582" height="3452.58" viewBox="0 0 178.582 3452.58">
<defs>
<clipPath id="clip_29">
<path transform="matrix(1,0,0,-1,0,119.05316)" d="M0 0H178.582V119.053H0Z"/>
</clipPath>
<clipPath id="clip_30">
<path transform="matrix(1,0,0,-1,0,238.10718)" d="M0 0H178.582V119.053H0Z"/>
</clipPath>
<clipPath id="clip_31">
<path transform="matrix(1,0,0,-1,0,357.16218)" d="M0 0H178.582V119.053H0Z"/>
</clipPath>
<clipPath id="clip_32">
<path transform="matrix(1,0,0,-1,0,476.2162)" d="M0 0H178.582V119.053H0Z"/>
</clipPath>
<clipPath id="clip_33">
<path transform="matrix(1,0,0,-1,0,595.2712)" d="M0 0H178.582V119.053H0Z"/>
</clipPath>
<clipPath id="clip_34">
<path transform="matrix(1,0,0,-1,0,714.3252)" d="M0 0H178.582V119.053H0Z"/>
</clipPath>
<clipPath id="clip_35">
<path transform="matrix(1,0,0,-1,0,833.3802)" d="M0 0H178.582V119.053H0Z"/>
</clipPath>
<clipPath id="clip_36">
<path transform="matrix(1,0,0,-1,0,952.4352)" d="M0 0H178.582V119.053H0Z"/>
</clipPath>
<clipPath id="clip_37">
<path transform="matrix(1,0,0,-1,0,1071.4891)" d="M0 0H178.582V119.053H0Z"/>
</clipPath>
<clipPath id="clip_38">
<path transform="matrix(1,0,0,-1,0,1190.5442)" d="M0 0H178.582V119.053H0Z"/>
</clipPath>
<clipPath id="clip_39">
<path transform="matrix(1,0,0,-1,0,1309.5982)" d="M0 0H178.582V119.053H0Z"/>
</clipPath>
<clipPath id="clip_40">
<path transform="matrix(1,0,0,-1,0,1428.6532)" d="M0 0H178.582V119.053H0Z"/>
</clipPath>
<clipPath id="clip_41">
<path transform="matrix(1,0,0,-1,0,1547.7072)" d="M0 0H178.582V119.053H0Z"/>
</clipPath>
<clipPath id="clip_42">
<path transform="matrix(1,0,0,-1,0,1666.7622)" d="M0 0H178.582V119.053H0Z"/>
</clipPath>
<clipPath id="clip_43">
<path transform="matrix(1,0,0,-1,0,1785.8162)" d="M0 0H178.582V119.053H0Z"/>
</clipPath>
<clipPath id="clip_44">
<path transform="matrix(1,0,0,-1,0,1904.8712)" d="M0 0H178.582V119.053H0Z"/>
</clipPath>
<clipPath id="clip_45">
<path transform="matrix(1,0,0,-1,0,2023.9263)" d="M0 0H178.582V119.053H0Z"/>
</clipPath>
<clipPath id="clip_46">
<path transform="matrix(1,0,0,-1,0,2142.9803)" d="M0 0H178.582V119.053H0Z"/>
</clipPath>
<clipPath id="clip_47">
<path transform="matrix(1,0,0,-1,0,2262.0352)" d="M0 0H178.582V119.053H0Z"/>
</clipPath>
<clipPath id="clip_48">
<path transform="matrix(1,0,0,-1,0,2381.089)" d="M0 0H178.582V119.053H0Z"/>
</clipPath>
<clipPath id="clip_49">
<path transform="matrix(1,0,0,-1,0,2500.1444)" d="M0 0H178.582V119.053H0Z"/>
</clipPath>
<clipPath id="clip_50">
<path transform="matrix(1,0,0,-1,0,2619.1983)" d="M0 0H178.582V119.053H0Z"/>
</clipPath>
<clipPath id="clip_51">
<path transform="matrix(1,0,0,-1,0,2738.2532)" d="M0 0H178.582V119.053H0Z"/>
</clipPath>
<clipPath id="clip_52">
<path transform="matrix(1,0,0,-1,0,2857.3072)" d="M0 0H178.582V119.053H0Z"/>
</clipPath>
<clipPath id="clip_53">
<path transform="matrix(1,0,0,-1,0,2976.362)" d="M0 0H178.582V119.053H0Z"/>
</clipPath>
<clipPath id="clip_54">
<path transform="matrix(1,0,0,-1,0,3095.4173)" d="M0 0H178.582V119.053H0Z"/>
</clipPath>
<clipPath id="clip_55">
<path transform="matrix(1,0,0,-1,0,3214.4713)" d="M0 0H178.582V119.053H0Z"/>
</clipPath>
<clipPath id="clip_56">
<path transform="matrix(1,0,0,-1,0,3333.5262)" d="M0 0H178.582V119.053H0Z"/>
</clipPath>
<clipPath id="clip_57">
<path transform="matrix(1,0,0,-1,0,3452.58)" d="M0 0H178.582V119.053H0Z"/>
</clipPath>
</defs>
<path transform="matrix(1,0,0,-1,89.291,-59.527833)" stroke-width=".3985" stroke-linecap="butt" stroke-miterlimit="10" stroke-linejoin="miter" fill="none" stroke="#000000" d="M0-119.05606"/>
<g clip-path="url(#clip_29)">
<path transform="matrix(1,0,0,-1,89.291,59.52716)" stroke-width=".3985" stroke-linecap="round" stroke-linejoin="round" fill="none" stroke="#000000" d="M76.8065 17.02641C67.69865 25.97737 25.92702 25.61037-16.49193 16.20708-58.9109 6.80379-85.91437-8.07544-76.80653-17.02641"/>
<path transform="matrix(1,0,0,-1,89.291,59.52716)" stroke-width=".3985" stroke-linecap="round" stroke-linejoin="round" fill="none" stroke="#000000" d="M32.91014 31.15047C20.14812 32.17624-4.9323 19.06068-23.10828 1.8568-41.28426-15.34709-45.67224-30.12474-32.9102-31.1505"/>
<path transform="matrix(1,0,0,-1,89.291,59.52716)" stroke-width=".3985" stroke-linecap="round" stroke-linejoin="round" fill="none" stroke="#000000" d="M-17.11623 28.73701C-9.76135 29.97803 3.8646 18.11755 13.31754 2.24681 22.77048-13.62392 24.47112-27.49602 17.11626-28.73701"/>
<path transform="matrix(1,0,0,-1,89.291,59.52716)" stroke-width=".3985" stroke-linecap="round" stroke-linejoin="round" fill="none" stroke="#000000" d="M-65.85074 12.47769C-51.36687 21.2777-10.14227 22.82504 26.22585 15.9339 62.59398 9.04276 80.33461-3.67767 65.85074-12.47769"/>
<path transform="matrix(1,0,0,-1,89.291,59.52716)" stroke-width=".3985" stroke-linecap="round" stroke-linejoin="round" fill="none" stroke="#000000" d="M49.32378-20.31564C21.90182-30.61359-21.9045-34.42871-49.32468-28.90744"/>
<path transform="matrix(1,0,0,-1,89.291,59.52716)" stroke-width=".3985" stroke-linecap="round" stroke-linejoin="round" fill="none" stroke="#000000" d="M81.49268 7.0982C81.49292-6.18771 45.00667-20.1363-.00006-24.05658-45.00682-27.97685-81.49252-20.38414-81.49277-7.0982"/>
<path transform="matrix(1,0,0,-1,89.291,59.52716)" stroke-width=".3985" stroke-linecap="round" stroke-linejoin="round" fill="none" stroke="#000000" d="M49.32378 28.9073C77.20139 23.29396 77.71878 10.1486 50.47769-.45358 23.2366-11.0558-21.44643-15.10054-49.32404-9.4872-67.35489-5.85643-74.62053 1.15918-68.378 8.91335-65.1742 12.89272-58.57939 16.84-49.32468 20.3155"/>
<path transform="matrix(1,0,0,-1,89.291,59.52716)" stroke-width=".3985" stroke-linecap="round" stroke-linejoin="round" fill="none" stroke="#000000" d="M-.00041 28.847C22.50293 30.80711 40.74574 27.01076 40.74585 20.36781 40.74596 13.72487 22.50284 6.75056-.0005 4.79044-22.50388 2.8303-40.74669 6.62668-40.7468 13.26962-40.7469 19.91257-22.50378 26.88687-.00041 28.847"/>
<path transform="matrix(1,0,0,-1,89.291,59.52716)" stroke-width=".3985" stroke-linecap="round" stroke-linejoin="round" fill="none" stroke="#000000" d="M81.5027 7.09923C81.5027 24.17654 45.01326 34.84166 0 30.92084-45.01326 27-81.5027 9.97809-81.5027-7.09923-81.5027-24.17654-45.01326-34.84166 0-30.92084 45.01326-27 81.5027-9.97809 81.5027 7.09923ZM0 0"/>
</g>
<path transform="matrix(1,0,0,-1,89.291,-59.527833)" stroke-width=".3985" stroke-linecap="butt" stroke-miterlimit="10" stroke-linejoin="miter" fill="none" stroke="#000000" d="M0-238.11215"/>
<g clip-path="url(#clip_30)">
<path transform="matrix(1,0,0,-1,89.291,178.58118)" stroke-width=".3985" stroke-linecap="round" stroke-linejoin="round" fill="none" stroke="#000000" d="M76.57274 17.53299C66.88353 27.0515 24.74504 26.91795-17.54443 17.2349-59.83391 7.55185-86.26201-8.01453-76.5728-17.53302"/>
<path transform="matrix(1,0,0,-1,89.291,178.58118)" stroke-width=".3985" stroke-linecap="round" stroke-linejoin="round" fill="none" stroke="#000000" d="M32.18794 31.96808C18.8755 33.0399-6.32762 19.59569-24.10475 1.9402-41.88188-15.71527-45.5004-30.89624-32.18794-31.96805"/>
<path transform="matrix(1,0,0,-1,89.291,178.58118)" stroke-width=".3985" stroke-linecap="round" stroke-linejoin="round" fill="none" stroke="#000000" d="M-16.68636 29.62091C-9.0363 30.90947 4.63599 18.6923 13.85165 2.33307 23.06732-14.02614 24.33643-28.33235 16.68639-29.62091"/>
<path transform="matrix(1,0,0,-1,89.291,178.58118)" stroke-width=".3985" stroke-linecap="round" stroke-linejoin="round" fill="none" stroke="#000000" d="M-65.23856 13.34695C-49.9305 22.64581-8.31221 24.20802 27.71846 16.83679 63.74915 9.46556 80.54659-4.04808 65.23853-13.34695"/>
<path transform="matrix(1,0,0,-1,89.291,178.58118)" stroke-width=".3985" stroke-linecap="round" stroke-linejoin="round" fill="none" stroke="#000000" d="M52.35876-19.76941C35.45425-26.76207 9.8466-31.43158-14.8024-32.01672-29.28368-32.36035-42.42915-31.26479-52.35939-28.88556"/>
<path transform="matrix(1,0,0,-1,89.291,178.58118)" stroke-width=".3985" stroke-linecap="round" stroke-linejoin="round" fill="none" stroke="#000000" d="M81.49268 7.0946C81.49292-6.19128 45.00667-20.13824-.00006-24.05653-45.00682-27.97481-81.49252-20.38051-81.49277-7.0946"/>
<path transform="matrix(1,0,0,-1,89.291,178.58118)" stroke-width=".3985" stroke-linecap="round" stroke-linejoin="round" fill="none" stroke="#000000" d="M52.35855 28.88513C78.49356 22.62398 76.23853 9.25339 47.32092-.97913 18.40332-11.21165-26.22507-14.43123-52.36008-8.17007-76.64496-2.35231-76.64566 9.7228-52.3596 19.76898"/>
<path transform="matrix(1,0,0,-1,89.291,178.58118)" stroke-width=".3985" stroke-linecap="round" stroke-linejoin="round" fill="none" stroke="#000000" d="M-.00041 29.96852C22.50293 31.92766 40.74574 28.13051 40.74585 21.48756 40.74596 14.84462 22.50284 7.87114-.0005 5.912-22.50388 3.95285-40.74669 7.75-40.7468 14.39294-40.7469 21.0359-22.50378 28.00938-.00041 29.96852"/>
<path transform="matrix(1,0,0,-1,89.291,178.58118)" stroke-width=".3985" stroke-linecap="round" stroke-linejoin="round" fill="none" stroke="#000000" d="M81.5027 7.09578C81.5027 24.63152 45.01326 35.66982 0 31.75087-45.01326 27.83194-81.5027 10.43996-81.5027-7.09578-81.5027-24.63152-45.01326-35.66982 0-31.75087 45.01326-27.83194 81.5027-10.43996 81.5027 7.09578ZM0 0"/>
</g>
<path transform="matrix(1,0,0,-1,89.291,-59.527833)" stroke-width=".3985" stroke-linecap="butt" stroke-miterlimit="10" stroke-linejoin="miter" fill="none" stroke="#000000" d="M0-357.16825"/>
<g clip-path="url(#clip_31)">
<path transform="matrix(1,0,0,-1,89.291,297.63618)" stroke-width=".3985" stroke-linecap="round" stroke-linejoin="round" fill="none" stroke="#000000" d="M76.32582 18.07664C66.06482 28.15654 23.57394 28.23427-18.58008 18.25089-60.73412 8.2675-86.58682-7.99677-76.32582-18.07664"/>
<path transform="matrix(1,0,0,-1,89.291,297.63618)" stroke-width=".3985" stroke-linecap="round" stroke-linejoin="round" fill="none" stroke="#000000" d="M31.46448 32.81772C17.63599 33.92822-7.66226 20.13504-25.0393 2.01067-42.41635-16.1137-45.29301-31.70724-31.46451-32.81775"/>
<path transform="matrix(1,0,0,-1,89.291,297.63618)" stroke-width=".3985" stroke-linecap="round" stroke-linejoin="round" fill="none" stroke="#000000" d="M-16.26408 30.53122C-8.34169 31.86633 5.3627 19.27898 14.34506 2.41724 23.32742-14.44447 24.18652-29.1961 16.26411-30.53122"/>
<path transform="matrix(1,0,0,-1,89.291,297.63618)" stroke-width=".3985" stroke-linecap="round" stroke-linejoin="round" fill="none" stroke="#000000" d="M-64.60472 14.24448C-48.49951 24.02957-6.51778 25.58412 29.16243 17.71735 64.84267 9.85059 80.70993-4.45937 64.60472-14.24448"/>
<path transform="matrix(1,0,0,-1,89.291,297.63618)" stroke-width=".3985" stroke-linecap="round" stroke-linejoin="round" fill="none" stroke="#000000" d="M54.74426-19.38155C38.83382-26.54053 13.69127-31.56137-11.20015-32.54967-28.30771-33.2289-43.81313-31.93724-54.74768-28.92264"/>
<path transform="matrix(1,0,0,-1,89.291,297.63618)" stroke-width=".3985" stroke-linecap="round" stroke-linejoin="round" fill="none" stroke="#000000" d="M81.49268 7.10141C81.49292-6.18393 45.00667-20.13351-.00006-24.05556-45.00682-27.9776-81.49252-20.38678-81.49277-7.10141"/>
<path transform="matrix(1,0,0,-1,89.291,297.63618)" stroke-width=".3985" stroke-linecap="round" stroke-linejoin="round" fill="none" stroke="#000000" d="M54.74583 28.92244C79.34322 22.14067 74.77368 8.62088 44.5378-1.27473 14.30191-11.17038-30.14986-13.69511-54.74725-6.91335-75.85092-1.09476-75.85107 9.88507-54.74612 19.38135"/>
<path transform="matrix(1,0,0,-1,89.291,297.63618)" stroke-width=".3985" stroke-linecap="round" stroke-linejoin="round" fill="none" stroke="#000000" d="M-.00041 31.08858C22.50293 33.04959 40.74574 29.25418 40.74585 22.61151 40.74596 15.96884 22.50284 8.99408-.0005 7.03305-22.50388 5.07202-40.74669 8.86745-40.7468 15.51012-40.7469 22.15279-22.50378 29.12755-.00041 31.08858"/>
<path transform="matrix(1,0,0,-1,89.291,297.63618)" stroke-width=".3985" stroke-linecap="round" stroke-linejoin="round" fill="none" stroke="#000000" d="M81.5027 7.10226C81.5027 25.11244 45.01326 36.53241 0 32.6099-45.01326 28.68738-81.5027 10.9079-81.5027-7.10226-81.5027-25.11244-45.01326-36.53241 0-32.6099 45.01326-28.68738 81.5027-10.9079 81.5027 7.10226ZM0 0"/>
</g>
<path transform="matrix(1,0,0,-1,89.291,-59.527833)" stroke-width=".3985" stroke-linecap="butt" stroke-miterlimit="10" stroke-linejoin="miter" fill="none" stroke="#000000" d="M0-476.22434"/>
<g clip-path="url(#clip_32)">
<path transform="matrix(1,0,0,-1,89.291,416.6902)" stroke-width=".3985" stroke-linecap="round" stroke-linejoin="round" fill="none" stroke="#000000" d="M76.06929 18.63748C65.2413 29.27583 22.40518 29.55571-19.6062 19.26265-61.6176 8.96959-86.89731-7.99915-76.06932-18.63751"/>
<path transform="matrix(1,0,0,-1,89.291,416.6902)" stroke-width=".3985" stroke-linecap="round" stroke-linejoin="round" fill="none" stroke="#000000" d="M30.75146 33.69405C16.44128 34.84518-8.92691 20.69316-25.91064 2.08429-42.89436-16.52457-45.06165-32.54292-30.75146-33.69405"/>
<path transform="matrix(1,0,0,-1,89.291,416.6902)" stroke-width=".3985" stroke-linecap="round" stroke-linejoin="round" fill="none" stroke="#000000" d="M-15.85072 31.47525C-7.67616 32.85307 6.04774 19.87764 14.80177 2.49467 23.5558-14.88829 24.02539-30.09738 15.85081-31.47522"/>
<path transform="matrix(1,0,0,-1,89.291,416.6902)" stroke-width=".3985" stroke-linecap="round" stroke-linejoin="round" fill="none" stroke="#000000" d="M-63.95032 15.19339C-47.06851 25.4481-4.75041 26.95845 30.56854 18.5676 65.88751 10.17674 80.83217-4.93869 63.95035-15.19339"/>
<path transform="matrix(1,0,0,-1,89.291,416.6902)" stroke-width=".3985" stroke-linecap="round" stroke-linejoin="round" fill="none" stroke="#000000" d="M56.6709-19.13676C41.64442-26.42085 16.95164-31.7271-8.0938-33.054-27.46034-34.08008-45.05511-32.61264-56.67332-29.00307"/>
<path transform="matrix(1,0,0,-1,89.291,416.6902)" stroke-width=".3985" stroke-linecap="round" stroke-linejoin="round" fill="none" stroke="#000000" d="M81.49268 7.0939C81.49292-6.19183 45.00667-20.13835-.00006-24.05626-45.00682-27.97415-81.49252-20.37965-81.49277-7.0939"/>
<path transform="matrix(1,0,0,-1,89.291,416.6902)" stroke-width=".3985" stroke-linecap="round" stroke-linejoin="round" fill="none" stroke="#000000" d="M56.6713 29.00298C79.90204 21.78584 73.36191 8.16714 42.06276-1.41501 10.7636-10.99718-33.44226-12.9147-56.673-5.69756-75.20956 .06146-75.21082 10.15031-56.67293 19.13667"/>
<path transform="matrix(1,0,0,-1,89.291,416.6902)" stroke-width=".3985" stroke-linecap="round" stroke-linejoin="round" fill="none" stroke="#000000" d="M-.00041 32.21132C22.50293 34.17027 40.74574 30.37303 40.74585 23.73016 40.74596 17.0873 22.50284 10.11401-.0005 8.15506-22.50388 6.1961-40.74669 9.99335-40.7468 16.63622-40.7469 23.27908-22.50378 30.25235-.00041 32.21132"/>
<path transform="matrix(1,0,0,-1,89.291,416.6902)" stroke-width=".3985" stroke-linecap="round" stroke-linejoin="round" fill="none" stroke="#000000" d="M81.5027 7.09491C81.5027 25.59552 45.01326 37.41635 0 33.49788-45.01326 29.57942-81.5027 11.40569-81.5027-7.09491-81.5027-25.59552-45.01326-37.41635 0-33.49788 45.01326-29.57942 81.5027-11.40569 81.5027 7.09491ZM0 0"/>
</g>
<path transform="matrix(1,0,0,-1,89.291,-59.527833)" stroke-width=".3985" stroke-linecap="butt" stroke-miterlimit="10" stroke-linejoin="miter" fill="none" stroke="#000000" d="M0-595.2804"/>
<g clip-path="url(#clip_33)">
<path transform="matrix(1,0,0,-1,89.291,535.7452)" stroke-width=".3985" stroke-linecap="round" stroke-linejoin="round" fill="none" stroke="#000000" d="M75.80075 19.22679C64.41176 30.41618 21.2424 30.87875-20.62154 20.26003-62.48549 9.64128-87.18983-8.03741-75.80084-19.22682"/>
<path transform="matrix(1,0,0,-1,89.291,535.7452)" stroke-width=".3985" stroke-linecap="round" stroke-linejoin="round" fill="none" stroke="#000000" d="M30.04823 34.59459C15.29012 35.78232-10.12718 21.2561-26.72249 2.15013-43.31778-16.95583-44.80643-33.40692-30.0483-34.59465"/>
<path transform="matrix(1,0,0,-1,89.291,535.7452)" stroke-width=".3985" stroke-linecap="round" stroke-linejoin="round" fill="none" stroke="#000000" d="M-15.44537 32.43948C-7.03783 33.85487 6.69302 20.47833 15.22334 2.56253 23.75366-15.35326 23.85295-31.02405 15.4454-32.43945"/>
<path transform="matrix(1,0,0,-1,89.291,535.7452)" stroke-width=".3985" stroke-linecap="round" stroke-linejoin="round" fill="none" stroke="#000000" d="M-63.28621 16.17325C-45.65593 26.88254-3.02959 28.32285 31.92271 19.39064 66.87503 10.45842 80.91652-5.46397 63.28624-16.17325"/>
<path transform="matrix(1,0,0,-1,89.291,535.7452)" stroke-width=".3985" stroke-linecap="round" stroke-linejoin="round" fill="none" stroke="#000000" d="M58.24411-18.99962C44.00732-26.38011 19.7409-31.92542-5.396-33.54265-26.7229-34.91478-46.17052-33.29213-58.24898-29.13112"/>
<path transform="matrix(1,0,0,-1,89.291,535.7452)" stroke-width=".3985" stroke-linecap="round" stroke-linejoin="round" fill="none" stroke="#000000" d="M81.49268 7.08719C81.49292-6.19954 45.00667-20.14386-.00006-24.05806-45.00682-27.97227-81.49252-20.37396-81.49277-7.08722"/>
<path transform="matrix(1,0,0,-1,89.291,535.7452)" stroke-width=".3985" stroke-linecap="round" stroke-linejoin="round" fill="none" stroke="#000000" d="M58.24686 29.13066C80.25879 21.54793 72.02628 7.86497 39.85661-1.431 7.68695-10.72699-36.23648-12.11653-58.24841-4.5338-74.68831 1.12933-74.68571 10.47679-58.24622 18.99916"/>
<path transform="matrix(1,0,0,-1,89.291,535.7452)" stroke-width=".3985" stroke-linecap="round" stroke-linejoin="round" fill="none" stroke="#000000" d="M-.00041 33.33105C22.50293 35.28816 40.74574 31.489 40.74585 24.84566 40.74596 18.2023 22.50284 11.23012-.0005 9.27301-22.50388 7.31592-40.74669 11.11507-40.7468 17.75842-40.7469 24.40178-22.50378 31.37396-.00041 33.33105"/>
<path transform="matrix(1,0,0,-1,89.291,535.7452)" stroke-width=".3985" stroke-linecap="round" stroke-linejoin="round" fill="none" stroke="#000000" d="M81.5027 7.08841C81.5027 26.09355 45.01326 38.32628 0 34.4114-45.01326 30.49654-81.5027 11.9167-81.5027-7.08841-81.5027-26.09355-45.01326-38.32628 0-34.4114 45.01326-30.49654 81.5027-11.9167 81.5027 7.08841ZM0 0"/>
</g>
<path transform="matrix(1,0,0,-1,89.291,-59.527833)" stroke-width=".3985" stroke-linecap="butt" stroke-miterlimit="10" stroke-linejoin="miter" fill="none" stroke="#000000" d="M0-714.3365"/>
<g clip-path="url(#clip_34)">
<path transform="matrix(1,0,0,-1,89.291,654.7992)" stroke-width=".3985" stroke-linecap="round" stroke-linejoin="round" fill="none" stroke="#000000" d="M75.52145 19.85011C63.57866 31.58536 20.08325 32.21089-21.62605 21.24829-63.33537 10.28568-87.46431-8.11487-75.52151-19.85011"/>
<path transform="matrix(1,0,0,-1,89.291,654.7992)" stroke-width=".3985" stroke-linecap="round" stroke-linejoin="round" fill="none" stroke="#000000" d="M29.35672 35.52455C14.17888 36.74535-11.2691 21.83005-27.48212 2.21059-43.69513-17.40886-44.53455-34.30382-29.35672-35.52461"/>
<path transform="matrix(1,0,0,-1,89.291,654.7992)" stroke-width=".3985" stroke-linecap="round" stroke-linejoin="round" fill="none" stroke="#000000" d="M-15.05156 33.42816C-6.42857 34.88072 7.30093 21.09183 15.61351 2.63028 23.92607-15.83124 23.67458-31.97562 15.05159-33.42819"/>
<path transform="matrix(1,0,0,-1,89.291,654.7992)" stroke-width=".3985" stroke-linecap="round" stroke-linejoin="round" fill="none" stroke="#000000" d="M-62.60374 17.18448C-44.24446 28.33543-1.33147 29.68118 33.24335 20.19069 67.81818 10.70018 80.96301-6.03352 62.60371-17.18448"/>
<path transform="matrix(1,0,0,-1,89.291,654.7992)" stroke-width=".3985" stroke-linecap="round" stroke-linejoin="round" fill="none" stroke="#000000" d="M59.55829-18.94579C38.64667-30.47516-4.9724-37.1358-37.8653-33.8223-46.59587-32.94292-54.01224-31.39885-59.56198-29.30382"/>
<path transform="matrix(1,0,0,-1,89.291,654.7992)" stroke-width=".3985" stroke-linecap="round" stroke-linejoin="round" fill="none" stroke="#000000" d="M81.49268 7.08624C81.49292-6.20108 45.00667-20.14543-.00006-24.05911-45.00682-27.97281-81.49252-20.37361-81.49277-7.08627"/>
<path transform="matrix(1,0,0,-1,89.291,654.7992)" stroke-width=".3985" stroke-linecap="round" stroke-linejoin="round" fill="none" stroke="#000000" d="M59.56078 29.30382C80.47238 21.4107 70.75809 7.68846 37.86343-1.34564 4.9688-10.37975-38.6498-11.3047-59.56139-3.41159-74.24835 2.13205-74.24612 10.84822-59.5595 18.94579"/>
<path transform="matrix(1,0,0,-1,89.291,654.7992)" stroke-width=".3985" stroke-linecap="round" stroke-linejoin="round" fill="none" stroke="#000000" d="M-.00041 34.45296C22.50293 36.40979 40.74574 32.6102 40.74585 25.96655 40.74596 19.3229 22.50284 12.35072-.0005 10.39388-22.50388 8.43703-40.74669 12.23663-40.7468 18.88026-40.7469 25.52391-22.50378 32.49611-.00041 34.45296"/>
<path transform="matrix(1,0,0,-1,89.291,654.7992)" stroke-width=".3985" stroke-linecap="round" stroke-linejoin="round" fill="none" stroke="#000000" d="M81.5027 7.08713C81.5027 26.60968 45.01326 39.26245 0 35.34828-45.01326 31.43413-81.5027 12.43542-81.5027-7.08713-81.5027-26.60968-45.01326-39.26245 0-35.34828 45.01326-31.43413 81.5027-12.43542 81.5027 7.08713ZM0 0"/>
</g>
<path transform="matrix(1,0,0,-1,89.291,-59.527833)" stroke-width=".3985" stroke-linecap="butt" stroke-miterlimit="10" stroke-linejoin="miter" fill="none" stroke="#000000" d="M0-833.3926"/>
<g clip-path="url(#clip_35)">
<path transform="matrix(1,0,0,-1,89.291,773.8542)" stroke-width=".3985" stroke-linecap="round" stroke-linejoin="round" fill="none" stroke="#000000" d="M75.229 20.50288C62.73839 32.77696 18.93011 33.54735-22.61736 22.2242-64.16486 10.90103-87.71962-8.22884-75.229-20.50291"/>
<path transform="matrix(1,0,0,-1,89.291,773.8542)" stroke-width=".3985" stroke-linecap="round" stroke-linejoin="round" fill="none" stroke="#000000" d="M28.67621 36.47469C13.10748 37.72624-12.35213 22.41055-28.18962 2.2661-44.0271-17.87836-44.24493-35.22318-28.67621-36.47472"/>
<path transform="matrix(1,0,0,-1,89.291,773.8542)" stroke-width=".3985" stroke-linecap="round" stroke-linejoin="round" fill="none" stroke="#000000" d="M-14.6667 34.43404C-5.84418 35.92134 7.87476 21.71004 15.97487 2.6929 24.07498-16.32423 23.48924-32.94676 14.6667-34.43407"/>
<path transform="matrix(1,0,0,-1,89.291,773.8542)" stroke-width=".3985" stroke-linecap="round" stroke-linejoin="round" fill="none" stroke="#000000" d="M-61.91039 18.22185C-42.84697 29.80176 .32559 31.03105 34.51753 20.96744 68.70947 10.90384 80.97386-6.64194 61.91045-18.22185"/>
<path transform="matrix(1,0,0,-1,89.291,773.8542)" stroke-width=".3985" stroke-linecap="round" stroke-linejoin="round" fill="none" stroke="#000000" d="M60.66771-18.96146C40.75215-30.58551-2.55473-37.60567-36.06087-34.64105-46.18524-33.74527-54.65205-31.9821-60.66953-29.51633"/>
<path transform="matrix(1,0,0,-1,89.291,773.8542)" stroke-width=".3985" stroke-linecap="round" stroke-linejoin="round" fill="none" stroke="#000000" d="M81.49268 7.08928C81.49292-6.1974 45.00667-20.14261-.00006-24.05795-45.00682-27.97331-81.49252-20.37595-81.49277-7.08925"/>
<path transform="matrix(1,0,0,-1,89.291,773.8542)" stroke-width=".3985" stroke-linecap="round" stroke-linejoin="round" fill="none" stroke="#000000" d="M60.66827 29.51611C80.58235 21.35687 69.56395 7.61375 36.05765-1.18001 2.55133-9.97377-40.75468-10.48828-60.66876-2.32904-73.87553 3.0822-73.87706 11.25208-60.66896 18.96124"/>
<path transform="matrix(1,0,0,-1,89.291,773.8542)" stroke-width=".3985" stroke-linecap="round" stroke-linejoin="round" fill="none" stroke="#000000" d="M-.00041 35.57387C22.50293 37.53154 40.74574 33.73288 40.74585 27.08954 40.74596 20.4462 22.50284 13.47362-.0005 11.51595-22.50388 9.55829-40.74669 13.35693-40.7468 20.00027-40.7469 26.64362-22.50378 33.6162-.00041 35.57387"/>
<path transform="matrix(1,0,0,-1,89.291,773.8542)" stroke-width=".3985" stroke-linecap="round" stroke-linejoin="round" fill="none" stroke="#000000" d="M81.5027 7.09058C81.5027 27.14299 45.01326 40.22371 0 36.30765-45.01326 32.39159-81.5027 12.96182-81.5027-7.09058-81.5027-27.14299-45.01326-40.22371 0-36.30765 45.01326-32.39159 81.5027-12.96182 81.5027 7.09058ZM0 0"/>
</g>
<path transform="matrix(1,0,0,-1,89.291,-59.527833)" stroke-width=".3985" stroke-linecap="butt" stroke-miterlimit="10" stroke-linejoin="miter" fill="none" stroke="#000000" d="M0-952.44869"/>
<g clip-path="url(#clip_36)">
<path transform="matrix(1,0,0,-1,89.291,892.9092)" stroke-width=".3985" stroke-linecap="round" stroke-linejoin="round" fill="none" stroke="#000000" d="M74.9257 21.17838C61.89328 33.98578 17.78174 34.8854-23.59912 23.18918-64.97998 11.49297-87.95818-8.37102-74.92574-21.17844"/>
<path transform="matrix(1,0,0,-1,89.291,892.9092)" stroke-width=".3985" stroke-linecap="round" stroke-linejoin="round" fill="none" stroke="#000000" d="M28.01595 37.44669C12.08458 38.72922-13.37444 23.0032-28.84682 2.32242-44.31918-18.35835-43.94734-36.16415-28.01598-37.44669"/>
<path transform="matrix(1,0,0,-1,89.291,892.9092)" stroke-width=".3985" stroke-linecap="round" stroke-linejoin="round" fill="none" stroke="#000000" d="M-14.29272 35.46216C-5.28487 36.979 8.41684 22.3313 16.31046 2.74637 24.20407-16.83856 23.30064-33.94527 14.29279-35.4621"/>
<path transform="matrix(1,0,0,-1,89.291,892.9092)" stroke-width=".3985" stroke-linecap="round" stroke-linejoin="round" fill="none" stroke="#000000" d="M-61.2041 19.29372C-41.45927 31.28555 1.95016 32.36903 35.75163 21.71355 69.55312 11.05804 80.94899-7.30191 61.20416-19.29375"/>
<path transform="matrix(1,0,0,-1,89.291,892.9092)" stroke-width=".3985" stroke-linecap="round" stroke-linejoin="round" fill="none" stroke="#000000" d="M61.61125-19.0454C42.6004-30.74448-.39536-38.07748-34.4226-35.424-45.82512-34.53499-55.24396-32.5733-61.61395-29.76088"/>
<path transform="matrix(1,0,0,-1,89.291,892.9092)" stroke-width=".3985" stroke-linecap="round" stroke-linejoin="round" fill="none" stroke="#000000" d="M81.49268 7.08672C81.49292-6.20059 45.00667-20.14516-.00006-24.05908-45.00682-27.97302-81.49252-20.37404-81.49277-7.08672"/>
<path transform="matrix(1,0,0,-1,89.291,892.9092)" stroke-width=".3985" stroke-linecap="round" stroke-linejoin="round" fill="none" stroke="#000000" d="M61.613 29.7609C80.62221 21.36766 68.449 7.6154 34.42027-.95586 .39154-9.52715-42.60428-9.67224-61.6135-1.279-73.56093 3.99612-73.56041 11.69241-61.6122 19.04541"/>
<path transform="matrix(1,0,0,-1,89.291,892.9092)" stroke-width=".3985" stroke-linecap="round" stroke-linejoin="round" fill="none" stroke="#000000" d="M-.00041 36.69556C22.50293 38.65251 40.74574 34.85303 40.74585 28.20938 40.74596 21.56573 22.50284 14.59343-.0005 12.63649-22.50388 10.67953-40.74669 14.47902-40.7468 21.12267-40.7469 27.76631-22.50378 34.73862-.00041 36.69556"/>
<path transform="matrix(1,0,0,-1,89.291,892.9092)" stroke-width=".3985" stroke-linecap="round" stroke-linejoin="round" fill="none" stroke="#000000" d="M81.5027 7.088C81.5027 27.68149 45.01326 41.202 0 37.28735-45.01326 33.37273-81.5027 13.5055-81.5027-7.088-81.5027-27.68149-45.01326-41.202 0-37.28735 45.01326-33.37273 81.5027-13.5055 81.5027 7.088ZM0 0"/>
</g>
<path transform="matrix(1,0,0,-1,89.291,-59.527833)" stroke-width=".3985" stroke-linecap="butt" stroke-miterlimit="10" stroke-linejoin="miter" fill="none" stroke="#000000" d="M0-1071.5048"/>
<g clip-path="url(#clip_37)">
<path transform="matrix(1,0,0,-1,89.291,1011.96316)" stroke-width=".3985" stroke-linecap="round" stroke-linejoin="round" fill="none" stroke="#000000" d="M74.61284 21.884C61.03978 35.21664 16.63095 36.22737-24.5761 24.14124-65.78314 12.0551-88.18596-8.55136-74.6129-21.884"/>
<path transform="matrix(1,0,0,-1,89.291,1011.96316)" stroke-width=".3985" stroke-linecap="round" stroke-linejoin="round" fill="none" stroke="#000000" d="M27.3698 38.43788C11.09848 39.74837-14.34578 23.60168-29.46165 2.37299-44.57753-18.8557-43.64114-37.12743-27.36983-38.43791"/>
<path transform="matrix(1,0,0,-1,89.291,1011.96316)" stroke-width=".3985" stroke-linecap="round" stroke-linejoin="round" fill="none" stroke="#000000" d="M-13.9327 36.50706C-4.75409 38.05396 8.9248 22.96301 16.61952 2.80093 24.31425-17.36115 23.11133-34.96022 13.93272-36.5071"/>
<path transform="matrix(1,0,0,-1,89.291,1011.96316)" stroke-width=".3985" stroke-linecap="round" stroke-linejoin="round" fill="none" stroke="#000000" d="M-60.49458 20.39049C-40.0932 32.78188 3.5304 33.69804 36.94032 22.4368 70.35027 11.17555 80.89598-7.99908 60.49461-20.39049"/>
<path transform="matrix(1,0,0,-1,89.291,1011.96316)" stroke-width=".3985" stroke-linecap="round" stroke-linejoin="round" fill="none" stroke="#000000" d="M62.42406-19.18185C44.23985-30.94153 1.54936-38.5524-32.92671-36.18134-45.50386-35.31616-55.79277-33.17328-62.4258-30.03654"/>
<path transform="matrix(1,0,0,-1,89.291,1011.96316)" stroke-width=".3985" stroke-linecap="round" stroke-linejoin="round" fill="none" stroke="#000000" d="M81.49268 7.08556C81.49292-6.20209 45.00667-20.14638-.00006-24.05966-45.00682-27.97295-81.49252-20.37318-81.49277-7.08553"/>
<path transform="matrix(1,0,0,-1,89.291,1011.96316)" stroke-width=".3985" stroke-linecap="round" stroke-linejoin="round" fill="none" stroke="#000000" d="M62.42485 30.03629C80.60811 21.43843 67.40059 7.68663 32.92375-.67937-1.55307-9.04538-44.24232-8.85773-62.42558-.25987-73.28963 4.87714-73.29036 12.1555-62.425 19.1816"/>
<path transform="matrix(1,0,0,-1,89.291,1011.96316)" stroke-width=".3985" stroke-linecap="round" stroke-linejoin="round" fill="none" stroke="#000000" d="M-.00041 37.81717C22.50293 39.77379 40.74574 35.9739 40.74585 29.33011 40.74596 22.68631 22.50284 15.71417-.0005 13.75754-22.50388 11.8009-40.74669 15.6008-40.7468 22.2446-40.7469 28.88838-22.50378 35.86053-.00041 37.81717"/>
<path transform="matrix(1,0,0,-1,89.291,1011.96316)" stroke-width=".3985" stroke-linecap="round" stroke-linejoin="round" fill="none" stroke="#000000" d="M81.5027 7.08669C81.5027 28.23154 45.01326 42.19957 0 38.28566-45.01326 34.37173-81.5027 14.05815-81.5027-7.08669-81.5027-28.23154-45.01326-42.19957 0-38.28566 45.01326-34.37173 81.5027-14.05815 81.5027 7.08669ZM0 0"/>
</g>
<path transform="matrix(1,0,0,-1,89.291,-59.527833)" stroke-width=".3985" stroke-linecap="butt" stroke-miterlimit="10" stroke-linejoin="miter" fill="none" stroke="#000000" d="M0-1190.5608"/>
<g clip-path="url(#clip_38)">
<path transform="matrix(1,0,0,-1,89.291,1131.0182)" stroke-width=".3985" stroke-linecap="round" stroke-linejoin="round" fill="none" stroke="#000000" d="M74.2928 22.61554C60.19232 36.4687 15.49939 37.57344-25.53145 25.08328-66.56229 12.59312-88.3933-8.76233-74.2928-22.61551"/>
<path transform="matrix(1,0,0,-1,89.291,1131.0182)" stroke-width=".3985" stroke-linecap="round" stroke-linejoin="round" fill="none" stroke="#000000" d="M26.739 39.4458C10.15228 40.7823-15.26624 24.20476-30.03357 2.41986-44.8009-19.36504-43.32578-38.10931-26.73906-39.44583"/>
<path transform="matrix(1,0,0,-1,89.291,1131.0182)" stroke-width=".3985" stroke-linecap="round" stroke-linejoin="round" fill="none" stroke="#000000" d="M-13.58159 37.56519C-4.24414 39.13893 9.40628 23.59615 16.90709 2.84967 24.4079-17.89679 22.91904-35.99142 13.58159-37.56516"/>
<path transform="matrix(1,0,0,-1,89.291,1131.0182)" stroke-width=".3985" stroke-linecap="round" stroke-linejoin="round" fill="none" stroke="#000000" d="M-59.77531 21.50847C-38.73795 34.28647 5.07817 35.01556 38.09116 23.13667 71.10413 11.25778 80.81268-8.73048 59.77531-21.5085"/>
<path transform="matrix(1,0,0,-1,89.291,1131.0182)" stroke-width=".3985" stroke-linecap="round" stroke-linejoin="round" fill="none" stroke="#000000" d="M63.13057-19.35895C45.70549-31.16772 3.3147-39.02892-31.55177-36.91763-45.21587-36.09044-56.30447-33.78143-63.13252-30.34135"/>
<path transform="matrix(1,0,0,-1,89.291,1131.0182)" stroke-width=".3985" stroke-linecap="round" stroke-linejoin="round" fill="none" stroke="#000000" d="M81.49268 7.0886C81.49292-6.19798 45.00667-20.14279-.00006-24.05775-45.00682-27.97273-81.49252-20.37515-81.49277-7.08856"/>
<path transform="matrix(1,0,0,-1,89.291,1131.0182)" stroke-width=".3985" stroke-linecap="round" stroke-linejoin="round" fill="none" stroke="#000000" d="M63.1321 30.34128C80.5562 21.56354 66.41698 7.81952 31.54958-.35721-3.31783-8.53395-45.70789-8.04716-63.132 .73056-73.05704 5.73038-73.05627 12.63274-63.131 19.35887"/>
<path transform="matrix(1,0,0,-1,89.291,1131.0182)" stroke-width=".3985" stroke-linecap="round" stroke-linejoin="round" fill="none" stroke="#000000" d="M-.00041 38.93811C22.50293 40.8956 40.74574 37.09679 40.74585 30.4535 40.74596 23.81023 22.50284 16.83783-.0005 14.88034-22.50388 12.92287-40.74669 16.72166-40.7468 23.36494-40.7469 30.00822-22.50378 36.98064-.00041 38.93811"/>
<path transform="matrix(1,0,0,-1,89.291,1131.0182)" stroke-width=".3985" stroke-linecap="round" stroke-linejoin="round" fill="none" stroke="#000000" d="M81.5027 7.0897C81.5027 28.79547 45.01326 43.21684 0 39.30125-45.01326 35.38567-81.5027 14.61604-81.5027-7.0897-81.5027-28.79547-45.01326-43.21684 0-39.30125 45.01326-35.38567 81.5027-14.61604 81.5027 7.0897ZM0 0"/>
</g>
<path transform="matrix(1,0,0,-1,89.291,-59.527833)" stroke-width=".3985" stroke-linecap="butt" stroke-miterlimit="10" stroke-linejoin="miter" fill="none" stroke="#000000" d="M0-1309.617"/>
<g clip-path="url(#clip_39)">
<path transform="matrix(1,0,0,-1,89.291,1250.0722)" stroke-width=".3985" stroke-linecap="round" stroke-linejoin="round" fill="none" stroke="#000000" d="M73.95953 23.36989C59.3376 37.73541 14.37016 38.91792-26.47606 26.01132-67.3223 13.10472-88.58153-9.0044-73.9596-23.36992"/>
<path transform="matrix(1,0,0,-1,89.291,1250.0722)" stroke-width=".3985" stroke-linecap="round" stroke-linejoin="round" fill="none" stroke="#000000" d="M26.12476 40.47144C9.24167 41.83017-16.14125 24.81256-30.56926 2.46088-44.99725-19.8908-43.0079-39.11266-26.12482-40.4714"/>
<path transform="matrix(1,0,0,-1,89.291,1250.0722)" stroke-width=".3985" stroke-linecap="round" stroke-linejoin="round" fill="none" stroke="#000000" d="M-13.2427 38.63991C-3.758 40.23784 9.86002 24.23305 17.17383 2.89291 24.48766-18.4472 22.72745-37.04195 13.24274-38.63988"/>
<path transform="matrix(1,0,0,-1,89.291,1250.0722)" stroke-width=".3985" stroke-linecap="round" stroke-linejoin="round" fill="none" stroke="#000000" d="M-59.05386 22.65338C-37.40321 35.80348 6.58704 36.32117 39.20198 23.81003 71.81694 11.29889 80.70456-9.50327 59.05391-22.65335"/>
<path transform="matrix(1,0,0,-1,89.291,1250.0722)" stroke-width=".3985" stroke-linecap="round" stroke-linejoin="round" fill="none" stroke="#000000" d="M63.74486-19.58043C47.01678-31.42891 4.91478-39.51312-30.29108-37.63733-44.95691-36.85596-56.78221-34.39442-63.7504-30.6709"/>
<path transform="matrix(1,0,0,-1,89.291,1250.0722)" stroke-width=".3985" stroke-linecap="round" stroke-linejoin="round" fill="none" stroke="#000000" d="M81.49268 7.08907C81.49292-6.19757 45.00667-20.14265-.00006-24.05788-45.00682-27.97311-81.49252-20.37572-81.49277-7.08907"/>
<path transform="matrix(1,0,0,-1,89.291,1250.0722)" stroke-width=".3985" stroke-linecap="round" stroke-linejoin="round" fill="none" stroke="#000000" d="M63.74838 30.67061C80.4756 21.73166 65.49619 7.99928 30.2878-.0016-4.92058-8.00252-47.0231-7.24287-63.75032 1.69606-72.85492 6.56133-72.85226 13.13094-63.74687 19.58014"/>
<path transform="matrix(1,0,0,-1,89.291,1250.0722)" stroke-width=".3985" stroke-linecap="round" stroke-linejoin="round" fill="none" stroke="#000000" d="M-.00041 40.05968C22.50293 42.01729 40.74574 38.2186 40.74585 31.57527 40.74596 24.93195 22.50284 17.9594-.0005 16.00179-22.50388 14.04419-40.74669 17.84288-40.7468 24.4862-40.7469 31.12953-22.50378 38.10208-.00041 40.05968"/>
<path transform="matrix(1,0,0,-1,89.291,1250.0722)" stroke-width=".3985" stroke-linecap="round" stroke-linejoin="round" fill="none" stroke="#000000" d="M81.5027 7.09015C81.5027 29.36566 45.01326 44.24867 0 40.33286-45.01326 36.41702-81.5027 15.18533-81.5027-7.09015-81.5027-29.36566-45.01326-44.24867 0-40.33286 45.01326-36.41702 81.5027-15.18533 81.5027 7.09015ZM0 0"/>
</g>
<path transform="matrix(1,0,0,-1,89.291,-59.527833)" stroke-width=".3985" stroke-linecap="butt" stroke-miterlimit="10" stroke-linejoin="miter" fill="none" stroke="#000000" d="M0-1428.673"/>
<g clip-path="url(#clip_40)">
<path transform="matrix(1,0,0,-1,89.291,1369.1272)" stroke-width=".3985" stroke-linecap="round" stroke-linejoin="round" fill="none" stroke="#000000" d="M73.6179 24.14888C58.48172 39.0203 13.25177 40.26422-27.40625 26.92711-68.0643 13.58998-88.75415-9.2775-73.61797-24.14891"/>
<path transform="matrix(1,0,0,-1,89.291,1369.1272)" stroke-width=".3985" stroke-linecap="round" stroke-linejoin="round" fill="none" stroke="#000000" d="M25.52893 41.51169C8.37033 42.89253-16.96902 25.42696-31.06813 2.50064-45.16724-20.42566-42.6876-40.13084-25.52899-41.51169"/>
<path transform="matrix(1,0,0,-1,89.291,1369.1272)" stroke-width=".3985" stroke-linecap="round" stroke-linejoin="round" fill="none" stroke="#000000" d="M-12.91573 39.7271C-3.29434 41.34787 10.28792 24.87546 17.42107 2.9348 24.55421-19.00586 22.53722-38.10632 12.91582-39.7271"/>
<path transform="matrix(1,0,0,-1,89.291,1369.1272)" stroke-width=".3985" stroke-linecap="round" stroke-linejoin="round" fill="none" stroke="#000000" d="M-58.32811 23.81825C-36.08585 37.32674 8.0591 37.61389 40.27275 24.45934 72.48642 11.30478 80.57039-10.30978 58.32811-23.81825"/>
<path transform="matrix(1,0,0,-1,89.291,1369.1272)" stroke-width=".3985" stroke-linecap="round" stroke-linejoin="round" fill="none" stroke="#000000" d="M64.28658-19.83397C48.20305-31.71454 6.38281-40.00104-29.12215-38.3426-44.71971-37.61414-57.22522-35.01175-64.28983-31.02188"/>
<path transform="matrix(1,0,0,-1,89.291,1369.1272)" stroke-width=".3985" stroke-linecap="round" stroke-linejoin="round" fill="none" stroke="#000000" d="M81.49268 7.09099C81.49292-6.19498 45.00667-20.1404-.00006-24.05669-45.00682-27.97298-81.49252-20.37697-81.49277-7.09099"/>
<path transform="matrix(1,0,0,-1,89.291,1369.1272)" stroke-width=".3985" stroke-linecap="round" stroke-linejoin="round" fill="none" stroke="#000000" d="M64.28853 31.02191C80.37166 21.94005 64.62663 8.22406 29.12086 .38684-6.38487-7.45038-48.20715-6.44154-64.29027 2.6403-72.67288 7.37407-72.67093 13.64178-64.28787 19.834"/>
<path transform="matrix(1,0,0,-1,89.291,1369.1272)" stroke-width=".3985" stroke-linecap="round" stroke-linejoin="round" fill="none" stroke="#000000" d="M-.00041 41.18082C22.50293 43.13895 40.74574 39.34093 40.74585 32.69795 40.74596 26.05498 22.50284 19.08228-.0005 17.12415-22.50388 15.166-40.74669 18.96402-40.7468 25.607-40.7469 32.24997-22.50378 39.22267-.00041 41.18082"/>
<path transform="matrix(1,0,0,-1,89.291,1369.1272)" stroke-width=".3985" stroke-linecap="round" stroke-linejoin="round" fill="none" stroke="#000000" d="M81.5027 7.09232C81.5027 29.9459 45.01326 45.29662 0 41.3796-45.01326 37.46257-81.5027 15.76128-81.5027-7.09232-81.5027-29.9459-45.01326-45.29662 0-41.3796 45.01326-37.46257 81.5027-15.76128 81.5027 7.09232ZM0 0"/>
</g>
<path transform="matrix(1,0,0,-1,89.291,-59.527833)" stroke-width=".3985" stroke-linecap="butt" stroke-miterlimit="10" stroke-linejoin="miter" fill="none" stroke="#000000" d="M0-1547.729"/>
<g clip-path="url(#clip_41)">
<path transform="matrix(1,0,0,-1,89.291,1488.1812)" stroke-width=".3985" stroke-linecap="round" stroke-linejoin="round" fill="none" stroke="#000000" d="M73.27145 24.94743C57.62823 40.31836 12.14055 41.60948-28.32568 27.83174-68.79195 14.05402-88.91478-9.57649-73.27155-24.94743"/>
<path transform="matrix(1,0,0,-1,89.291,1488.1812)" stroke-width=".3985" stroke-linecap="round" stroke-linejoin="round" fill="none" stroke="#000000" d="M24.9546 42.56523C7.54012 43.9687-17.75015 26.0492-31.53201 2.5413-45.31387-20.96657-42.36913-41.1618-24.95464-42.56529"/>
<path transform="matrix(1,0,0,-1,89.291,1488.1812)" stroke-width=".3985" stroke-linecap="round" stroke-linejoin="round" fill="none" stroke="#000000" d="M-12.60138 40.82721C-2.85391 42.4683 10.68996 25.51999 17.64937 2.97191 24.60878-19.57617 22.34886-39.1861 12.60138-40.82718"/>
<path transform="matrix(1,0,0,-1,89.291,1488.1812)" stroke-width=".3985" stroke-linecap="round" stroke-linejoin="round" fill="none" stroke="#000000" d="M-57.6056 25.0056C-34.79655 38.85811 9.48572 38.8922 41.30028 25.08226 73.11482 11.27231 80.41463-11.15308 57.60558-25.00557"/>
<path transform="matrix(1,0,0,-1,89.291,1488.1812)" stroke-width=".3985" stroke-linecap="round" stroke-linejoin="round" fill="none" stroke="#000000" d="M64.76479-20.1256C49.27686-32.03206 7.72366-40.49896-28.04478-39.037-44.50266-38.3644-57.64156-35.62865-64.76712-31.38939"/>
<path transform="matrix(1,0,0,-1,89.291,1488.1812)" stroke-width=".3985" stroke-linecap="round" stroke-linejoin="round" fill="none" stroke="#000000" d="M81.49268 7.08661C81.49292-6.20035 45.00667-20.14459-.00006-24.05844-45.00682-27.9723-81.49252-20.37352-81.49277-7.08655"/>
<path transform="matrix(1,0,0,-1,89.291,1488.1812)" stroke-width=".3985" stroke-linecap="round" stroke-linejoin="round" fill="none" stroke="#000000" d="M64.76675 31.38924C80.25458 22.17609 63.81297 8.4789 28.04343 .79604-7.72609-6.88683-49.27924-5.64635-64.76706 3.56679-72.51225 8.17462-72.51085 14.17093-64.76515 20.12544"/>
<path transform="matrix(1,0,0,-1,89.291,1488.1812)" stroke-width=".3985" stroke-linecap="round" stroke-linejoin="round" fill="none" stroke="#000000" d="M-.00041 42.30208C22.50293 44.259 40.74574 40.45961 40.74585 33.81615 40.74596 27.17267 22.50284 20.20056-.0005 18.24364-22.50388 16.28673-40.74669 20.0861-40.7468 26.72958-40.7469 33.37306-22.50378 40.34515-.00041 42.30208"/>
<path transform="matrix(1,0,0,-1,89.291,1488.1812)" stroke-width=".3985" stroke-linecap="round" stroke-linejoin="round" fill="none" stroke="#000000" d="M81.5027 7.08755C81.5027 30.52667 45.01326 46.35414 0 42.43976-45.01326 38.52536-81.5027 16.35156-81.5027-7.08755-81.5027-30.52667-45.01326-46.35414 0-42.43976 45.01326-38.52536 81.5027-16.35156 81.5027 7.08755ZM0 0"/>
</g>
<path transform="matrix(1,0,0,-1,89.291,-59.527833)" stroke-width=".3985" stroke-linecap="butt" stroke-miterlimit="10" stroke-linejoin="miter" fill="none" stroke="#000000" d="M0-1666.7852"/>
<g clip-path="url(#clip_42)">
<path transform="matrix(1,0,0,-1,89.291,1607.2362)" stroke-width=".3985" stroke-linecap="round" stroke-linejoin="round" fill="none" stroke="#000000" d="M72.91306 25.77467C56.76637 41.63664 11.03175 42.9556-29.2367 28.72081-69.50516 14.48604-89.05981-9.9127-72.91312-25.77467"/>
<path transform="matrix(1,0,0,-1,89.291,1607.2362)" stroke-width=".3985" stroke-linecap="round" stroke-linejoin="round" fill="none" stroke="#000000" d="M24.39194 43.6325C6.7363 45.05382-18.49751 26.67036-31.96889 2.57301-45.44026-21.5243-42.04758-42.2112-24.39194-43.6325"/>
<path transform="matrix(1,0,0,-1,89.291,1607.2362)" stroke-width=".3985" stroke-linecap="round" stroke-linejoin="round" fill="none" stroke="#000000" d="M-12.29791 41.93922C-2.43263 43.60037 11.07054 26.17053 17.8625 3.00797 24.65445-20.15459 22.16321-40.2781 12.29794-41.93925"/>
<path transform="matrix(1,0,0,-1,89.291,1607.2362)" stroke-width=".3985" stroke-linecap="round" stroke-linejoin="round" fill="none" stroke="#000000" d="M-56.87982 26.20981C-33.52132 40.3943 10.88103 40.15909 42.2943 25.68385 73.70758 11.20862 80.23836-12.02528 56.87985-26.20978"/>
<path transform="matrix(1,0,0,-1,89.291,1607.2362)" stroke-width=".3985" stroke-linecap="round" stroke-linejoin="round" fill="none" stroke="#000000" d="M65.19102-20.43988C50.2565-32.3679 8.96164-41.0015-27.04283-39.72357-44.30548-39.11108-58.03334-36.25197-65.19315-31.77843"/>
<path transform="matrix(1,0,0,-1,89.291,1607.2362)" stroke-width=".3985" stroke-linecap="round" stroke-linejoin="round" fill="none" stroke="#000000" d="M81.49268 7.08687C81.49292-6.20003 45.00667-20.14435-.00006-24.05835-45.00682-27.97237-81.49252-20.37378-81.49277-7.08687"/>
<path transform="matrix(1,0,0,-1,89.291,1607.2362)" stroke-width=".3985" stroke-linecap="round" stroke-linejoin="round" fill="none" stroke="#000000" d="M65.19186 31.77805C80.12578 22.44728 63.04637 8.77094 27.04124 1.23102-8.96387-6.30888-50.25851-4.8578-65.19241 4.47295-72.37134 8.95811-72.3711 14.70583-65.1923 20.4395"/>
<path transform="matrix(1,0,0,-1,89.291,1607.2362)" stroke-width=".3985" stroke-linecap="round" stroke-linejoin="round" fill="none" stroke="#000000" d="M-.00041 43.42372C22.50293 45.3807 40.74574 41.5814 40.74585 34.93796 40.74596 28.29451 22.50284 21.32239-.0005 19.3654-22.50388 17.4084-40.74669 21.2077-40.7468 27.85115-40.7469 34.4946-22.50378 41.46672-.00041 43.42372"/>
<path transform="matrix(1,0,0,-1,89.291,1607.2362)" stroke-width=".3985" stroke-linecap="round" stroke-linejoin="round" fill="none" stroke="#000000" d="M81.5027 7.088C81.5027 31.11955 45.01326 47.42708 0 43.51245-45.01326 39.59782-81.5027 16.94356-81.5027-7.088-81.5027-31.11955-45.01326-47.42708 0-43.51245 45.01326-39.59782 81.5027-16.94356 81.5027 7.088ZM0 0"/>
</g>
<path transform="matrix(1,0,0,-1,89.291,-59.527833)" stroke-width=".3985" stroke-linecap="butt" stroke-miterlimit="10" stroke-linejoin="miter" fill="none" stroke="#000000" d="M0-1785.8412"/>
<g clip-path="url(#clip_43)">
<path transform="matrix(1,0,0,-1,89.291,1726.2902)" stroke-width=".3985" stroke-linecap="round" stroke-linejoin="round" fill="none" stroke="#000000" d="M72.54747 26.62335C55.9081 42.96944 9.93852 44.30061-30.12854 29.59698-70.19562 14.89336-89.18687-10.27727-72.5475-26.62335"/>
<path transform="matrix(1,0,0,-1,89.291,1726.2902)" stroke-width=".3985" stroke-linecap="round" stroke-linejoin="round" fill="none" stroke="#000000" d="M23.85068 44.71323C5.97046 46.15248-19.20262 27.30014-32.37515 2.60567-45.5477-22.08879-41.73099-43.27402-23.85077-44.71329"/>
<path transform="matrix(1,0,0,-1,89.291,1726.2902)" stroke-width=".3985" stroke-linecap="round" stroke-linejoin="round" fill="none" stroke="#000000" d="M-12.0047 43.06052C-2.03021 44.73965 11.43092 26.82195 18.06071 3.04079 24.6905-20.74037 21.97923-41.38136 12.00473-43.06049"/>
<path transform="matrix(1,0,0,-1,89.291,1726.2902)" stroke-width=".3985" stroke-linecap="round" stroke-linejoin="round" fill="none" stroke="#000000" d="M-56.15945 27.42686C-32.2753 41.93347 12.22981 41.41373 43.24614 26.26627 74.26247 11.11879 80.04369-12.92023 56.15952-27.42683"/>
<path transform="matrix(1,0,0,-1,89.291,1726.2902)" stroke-width=".3985" stroke-linecap="round" stroke-linejoin="round" fill="none" stroke="#000000" d="M65.56873-20.77763C51.14877-32.72281 10.10152-41.50879-26.11171-40.40205-44.12296-39.85158-58.39879-36.87872-65.57007-32.18509"/>
<path transform="matrix(1,0,0,-1,89.291,1726.2902)" stroke-width=".3985" stroke-linecap="round" stroke-linejoin="round" fill="none" stroke="#000000" d="M81.49268 7.08923C81.49292-6.19751 45.00667-20.14273-.00006-24.05804-45.00682-27.97336-81.49252-20.37596-81.49277-7.0892"/>
<path transform="matrix(1,0,0,-1,89.291,1726.2902)" stroke-width=".3985" stroke-linecap="round" stroke-linejoin="round" fill="none" stroke="#000000" d="M65.56943 32.18478C79.98874 22.74841 62.32214 9.09418 26.10904 1.6871-10.10405-5.71996-51.14961-4.07512-65.56894 5.36122-72.24309 9.72899-72.24384 15.24821-65.56937 20.77733"/>
<path transform="matrix(1,0,0,-1,89.291,1726.2902)" stroke-width=".3985" stroke-linecap="round" stroke-linejoin="round" fill="none" stroke="#000000" d="M-.00041 44.54512C22.50293 46.50276 40.74574 42.70406 40.74585 36.0607 40.74596 29.41734 22.50284 22.44476-.0005 20.4871-22.50388 18.52945-40.74669 22.32817-40.7468 28.97153-40.7469 35.61488-22.50378 42.58746-.00041 44.54512"/>
<path transform="matrix(1,0,0,-1,89.291,1726.2902)" stroke-width=".3985" stroke-linecap="round" stroke-linejoin="round" fill="none" stroke="#000000" d="M81.5027 7.09058C81.5027 31.72127 45.01326 48.5133 0 44.59724-45.01326 40.68118-81.5027 17.5401-81.5027-7.09058-81.5027-31.72127-45.01326-48.5133 0-44.59724 45.01326-40.68118 81.5027-17.5401 81.5027 7.09058ZM0 0"/>
</g>
<path transform="matrix(1,0,0,-1,89.291,-59.527833)" stroke-width=".3985" stroke-linecap="butt" stroke-miterlimit="10" stroke-linejoin="miter" fill="none" stroke="#000000" d="M0-1904.8973"/>
<g clip-path="url(#clip_44)">
<path transform="matrix(1,0,0,-1,89.291,1845.3452)" stroke-width=".3985" stroke-linecap="round" stroke-linejoin="round" fill="none" stroke="#000000" d="M72.91306 25.77776C56.76637 41.63863 11.03175 42.95526-29.2367 28.71877-69.50516 14.48227-89.05981-9.91696-72.91312-25.77782"/>
<path transform="matrix(1,0,0,-1,89.291,1845.3452)" stroke-width=".3985" stroke-linecap="round" stroke-linejoin="round" fill="none" stroke="#000000" d="M24.39194 43.63286C6.7363 45.05325-18.49751 26.66895-31.96889 2.5714-45.44026-21.52614-42.04758-42.21246-24.39194-43.63286"/>
<path transform="matrix(1,0,0,-1,89.291,1845.3452)" stroke-width=".3985" stroke-linecap="round" stroke-linejoin="round" fill="none" stroke="#000000" d="M-12.29791 41.93779C-2.43263 43.5994 11.07054 26.17058 17.8625 3.0088 24.65445-20.15297 22.16321-40.27618 12.29794-41.93779"/>
<path transform="matrix(1,0,0,-1,89.291,1845.3452)" stroke-width=".3985" stroke-linecap="round" stroke-linejoin="round" fill="none" stroke="#000000" d="M-56.87982 26.20647C-33.52132 40.39183 10.88103 40.15883 42.2943 25.68544 73.70758 11.21205 80.23836-12.02107 56.87985-26.20644"/>
<path transform="matrix(1,0,0,-1,89.291,1845.3452)" stroke-width=".3985" stroke-linecap="round" stroke-linejoin="round" fill="none" stroke="#000000" d="M65.19102-20.43622C50.2565-32.36476 8.96164-41.00021-27.04283-39.7241-44.30548-39.11247-58.03334-36.25407-65.19315-31.78098"/>
<path transform="matrix(1,0,0,-1,89.291,1845.3452)" stroke-width=".3985" stroke-linecap="round" stroke-linejoin="round" fill="none" stroke="#000000" d="M81.49268 7.09076C81.49292-6.19588 45.00667-20.14172-.00006-24.05788-45.00682-27.97404-81.49252-20.37741-81.49277-7.09076"/>
<path transform="matrix(1,0,0,-1,89.291,1845.3452)" stroke-width=".3985" stroke-linecap="round" stroke-linejoin="round" fill="none" stroke="#000000" d="M65.19186 31.78064C80.12578 22.45079 63.04637 8.77391 27.04124 1.23236-8.96387-6.30917-50.25851-4.86015-65.19241 4.46968-72.37134 8.95439-72.3711 14.70198-65.1923 20.4359"/>
<path transform="matrix(1,0,0,-1,89.291,1845.3452)" stroke-width=".3985" stroke-linecap="round" stroke-linejoin="round" fill="none" stroke="#000000" d="M-.00041 43.42285C22.50293 45.38092 40.74574 41.58258 40.74585 34.93927 40.74596 28.29596 22.50284 21.32306-.0005 19.36499-22.50388 17.4069-40.74669 21.20525-40.7468 27.84856-40.7469 34.49187-22.50378 41.46477-.00041 43.42285"/>
<path transform="matrix(1,0,0,-1,89.291,1845.3452)" stroke-width=".3985" stroke-linecap="round" stroke-linejoin="round" fill="none" stroke="#000000" d="M81.5027 7.09189C81.5027 31.12297 45.01326 47.42838 0 43.51158-45.01326 39.59479-81.5027 16.9392-81.5027-7.09189-81.5027-31.12297-45.01326-47.42838 0-43.51158 45.01326-39.59479 81.5027-16.9392 81.5027 7.09189ZM0 0"/>
</g>
<path transform="matrix(1,0,0,-1,89.291,-59.527833)" stroke-width=".3985" stroke-linecap="butt" stroke-miterlimit="10" stroke-linejoin="miter" fill="none" stroke="#000000" d="M0-2023.9534"/>
<g clip-path="url(#clip_45)">
<path transform="matrix(1,0,0,-1,89.291,1964.4003)" stroke-width=".3985" stroke-linecap="round" stroke-linejoin="round" fill="none" stroke="#000000" d="M73.27145 24.94997C57.62823 40.31973 12.14055 41.60876-28.32568 27.82962-68.79195 14.05046-88.91478-9.58023-73.27155-24.95"/>
<path transform="matrix(1,0,0,-1,89.291,1964.4003)" stroke-width=".3985" stroke-linecap="round" stroke-linejoin="round" fill="none" stroke="#000000" d="M24.9546 42.56506C7.54012 43.96771-17.75015 26.0476-31.53201 2.53981-45.31387-20.96796-42.36913-41.16246-24.95464-42.56512"/>
<path transform="matrix(1,0,0,-1,89.291,1964.4003)" stroke-width=".3985" stroke-linecap="round" stroke-linejoin="round" fill="none" stroke="#000000" d="M-12.60138 40.8254C-2.85391 42.46689 10.68996 25.51968 17.64937 2.9726 24.60878-19.57446 22.34886-39.1839 12.60138-40.8254"/>
<path transform="matrix(1,0,0,-1,89.291,1964.4003)" stroke-width=".3985" stroke-linecap="round" stroke-linejoin="round" fill="none" stroke="#000000" d="M-57.6056 25.00223C-34.79655 38.85535 9.48572 38.89145 41.30028 25.08333 73.11482 11.27522 80.41463-11.14911 57.60558-25.00223"/>
<path transform="matrix(1,0,0,-1,89.291,1964.4003)" stroke-width=".3985" stroke-linecap="round" stroke-linejoin="round" fill="none" stroke="#000000" d="M64.76479-20.12204C49.27686-32.02885 7.72366-40.49736-28.04478-39.03708-44.50266-38.36523-57.64156-35.63013-64.76712-31.39134"/>
<path transform="matrix(1,0,0,-1,89.291,1964.4003)" stroke-width=".3985" stroke-linecap="round" stroke-linejoin="round" fill="none" stroke="#000000" d="M81.49268 7.09006C81.49292-6.1965 45.00667-20.14195-.00006-24.05772-45.00682-27.9735-81.49252-20.37663-81.49277-7.09006"/>
<path transform="matrix(1,0,0,-1,89.291,1964.4003)" stroke-width=".3985" stroke-linecap="round" stroke-linejoin="round" fill="none" stroke="#000000" d="M64.76675 31.39119C80.25458 22.17905 63.81297 8.48152 28.04343 .79729-7.72609-6.88693-49.27924-5.64838-64.76706 3.56377-72.51225 8.17111-72.51085 14.16722-64.76515 20.12189"/>
<path transform="matrix(1,0,0,-1,89.291,1964.4003)" stroke-width=".3985" stroke-linecap="round" stroke-linejoin="round" fill="none" stroke="#000000" d="M-.00041 42.3008C22.50293 44.25867 40.74574 40.46022 40.74585 33.81696 40.74596 27.17369 22.50284 20.20096-.0005 18.24309-22.50388 16.2852-40.74669 20.08365-40.7468 26.72691-40.7469 33.37018-22.50378 40.34291-.00041 42.3008"/>
<path transform="matrix(1,0,0,-1,89.291,1964.4003)" stroke-width=".3985" stroke-linecap="round" stroke-linejoin="round" fill="none" stroke="#000000" d="M81.5027 7.09102C81.5027 30.52942 45.01326 46.35475 0 42.43845-45.01326 38.52214-81.5027 16.34738-81.5027-7.09102-81.5027-30.52942-45.01326-46.35475 0-42.43845 45.01326-38.52214 81.5027-16.34738 81.5027 7.09102ZM0 0"/>
</g>
<path transform="matrix(1,0,0,-1,89.291,-59.527833)" stroke-width=".3985" stroke-linecap="butt" stroke-miterlimit="10" stroke-linejoin="miter" fill="none" stroke="#000000" d="M0-2143.0096"/>
<g clip-path="url(#clip_46)">
<path transform="matrix(1,0,0,-1,89.291,2083.454)" stroke-width=".3985" stroke-linecap="round" stroke-linejoin="round" fill="none" stroke="#000000" d="M73.6179 24.14433C58.48172 39.01552 13.25177 40.2613-27.40625 26.9267-68.0643 13.59209-88.75415-9.27321-73.61797-24.1444"/>
<path transform="matrix(1,0,0,-1,89.291,2083.454)" stroke-width=".3985" stroke-linecap="round" stroke-linejoin="round" fill="none" stroke="#000000" d="M25.5308 41.50967C8.37343 42.892-16.96654 25.42725-31.06688 2.50238-45.16722-20.42249-42.68819-40.1274-25.5308-41.5097"/>
<path transform="matrix(1,0,0,-1,89.291,2083.454)" stroke-width=".3985" stroke-linecap="round" stroke-linejoin="round" fill="none" stroke="#000000" d="M-12.91708 39.72687C-3.29636 41.34749 10.28624 24.8748 17.42004 2.93451 24.55385-19.00578 22.53784-38.10628 12.91711-39.7269"/>
<path transform="matrix(1,0,0,-1,89.291,2083.454)" stroke-width=".3985" stroke-linecap="round" stroke-linejoin="round" fill="none" stroke="#000000" d="M-58.33134 23.81908C-36.09232 37.32652 8.0526 37.61165 40.26843 24.45702 72.48427 11.30237 80.57042-10.31166 58.33138-23.8191"/>
<path transform="matrix(1,0,0,-1,89.291,2083.454)" stroke-width=".3985" stroke-linecap="round" stroke-linejoin="round" fill="none" stroke="#000000" d="M64.28604-19.83804C48.20119-31.71823 6.37962-40.00253-29.1246-38.34131-44.71875-37.61159-57.22481-35.00769-64.28856-31.01797"/>
<path transform="matrix(1,0,0,-1,89.291,2083.454)" stroke-width=".3985" stroke-linecap="round" stroke-linejoin="round" fill="none" stroke="#000000" d="M81.49268 7.08633C81.49292-6.20045 45.00667-20.14442-.00006-24.05814-45.00682-27.97186-81.49252-20.37311-81.49277-7.0863"/>
<path transform="matrix(1,0,0,-1,89.291,2083.454)" stroke-width=".3985" stroke-linecap="round" stroke-linejoin="round" fill="none" stroke="#000000" d="M64.28702 31.01788C80.37013 21.93443 64.6272 8.21895 29.12143 .38345-6.38431-7.45203-48.206-6.4411-64.28911 2.64232-72.67201 7.37721-72.67139 13.64542-64.2876 19.83795"/>
<path transform="matrix(1,0,0,-1,89.291,2083.454)" stroke-width=".3985" stroke-linecap="round" stroke-linejoin="round" fill="none" stroke="#000000" d="M-.00041 41.17986C22.50293 43.1367 40.74574 39.33733 40.74585 32.69394 40.74596 26.05055 22.50284 19.07857-.0005 17.12172-22.50388 15.16487-40.74669 18.96425-40.7468 25.60764-40.7469 32.25102-22.50378 39.223-.00041 41.17986"/>
<path transform="matrix(1,0,0,-1,89.291,2083.454)" stroke-width=".3985" stroke-linecap="round" stroke-linejoin="round" fill="none" stroke="#000000" d="M81.5027 7.08755C81.5027 29.94069 45.01326 45.29312 0 41.37872-45.01326 37.46434-81.5027 15.76556-81.5027-7.08755-81.5027-29.94069-45.01326-45.29312 0-41.37872 45.01326-37.46434 81.5027-15.76556 81.5027 7.08755ZM0 0"/>
</g>
<path transform="matrix(1,0,0,-1,89.291,-59.527833)" stroke-width=".3985" stroke-linecap="butt" stroke-miterlimit="10" stroke-linejoin="miter" fill="none" stroke="#000000" d="M0-2262.0655"/>
<g clip-path="url(#clip_47)">
<path transform="matrix(1,0,0,-1,89.291,2202.5093)" stroke-width=".3985" stroke-linecap="round" stroke-linejoin="round" fill="none" stroke="#000000" d="M73.95953 23.36946C59.3376 37.73358 14.37016 38.91516-26.47606 26.0088-67.3223 13.10245-88.58153-9.00534-73.9596-23.36946"/>
<path transform="matrix(1,0,0,-1,89.291,2202.5093)" stroke-width=".3985" stroke-linecap="round" stroke-linejoin="round" fill="none" stroke="#000000" d="M26.1266 40.47014C9.24474 41.82936-16.1388 24.81148-30.56802 2.46083-44.99725-19.8898-43.00851-39.11092-26.12666-40.47014"/>
<path transform="matrix(1,0,0,-1,89.291,2202.5093)" stroke-width=".3985" stroke-linecap="round" stroke-linejoin="round" fill="none" stroke="#000000" d="M-13.24368 38.63785C-3.7593 40.23541 9.8587 24.23232 17.17287 2.89323 24.48701-18.44583 22.72813-37.04024 13.24374-38.63782"/>
<path transform="matrix(1,0,0,-1,89.291,2202.5093)" stroke-width=".3985" stroke-linecap="round" stroke-linejoin="round" fill="none" stroke="#000000" d="M-59.05605 22.65102C-37.40758 35.80031 6.5816 36.31862 39.19763 23.80869 71.81364 11.29877 80.70451-9.5017 59.05605-22.65099"/>
<path transform="matrix(1,0,0,-1,89.291,2202.5093)" stroke-width=".3985" stroke-linecap="round" stroke-linejoin="round" fill="none" stroke="#000000" d="M63.74432-19.58014C47.01492-31.42892 4.9116-39.5133-30.2935-37.63698-44.95831-36.85541-56.78096-34.394-63.74887-30.67064"/>
<path transform="matrix(1,0,0,-1,89.291,2202.5093)" stroke-width=".3985" stroke-linecap="round" stroke-linejoin="round" fill="none" stroke="#000000" d="M81.49268 7.08931C81.49292-6.19777 45.00667-20.14334-.00006-24.0587-45.00682-27.97406-81.49252-20.3764-81.49277-7.08931"/>
<path transform="matrix(1,0,0,-1,89.291,2202.5093)" stroke-width=".3985" stroke-linecap="round" stroke-linejoin="round" fill="none" stroke="#000000" d="M63.74773 30.67053C80.47675 21.73192 65.4973 7.99907 30.29053-.00249-4.91623-8.00406-47.01874-7.24437-63.74776 1.69423-72.85368 6.55974-72.8519 13.13042-63.74545 19.58003"/>
<path transform="matrix(1,0,0,-1,89.291,2202.5093)" stroke-width=".3985" stroke-linecap="round" stroke-linejoin="round" fill="none" stroke="#000000" d="M-.00041 40.05789C22.50293 42.01555 40.74574 38.21672 40.74585 31.57318 40.74596 24.92964 22.50284 17.95685-.0005 15.99918-22.50388 14.04152-40.74669 17.84035-40.7468 24.48389-40.7469 31.12743-22.50378 38.10022-.00041 40.05789"/>
<path transform="matrix(1,0,0,-1,89.291,2202.5093)" stroke-width=".3985" stroke-linecap="round" stroke-linejoin="round" fill="none" stroke="#000000" d="M81.5027 7.09015C81.5027 29.36519 45.01326 44.24783 0 40.332-45.01326 36.41617-81.5027 15.18488-81.5027-7.09015-81.5027-29.36519-45.01326-44.24783 0-40.332 45.01326-36.41617 81.5027-15.18488 81.5027 7.09015ZM0 0"/>
</g>
<path transform="matrix(1,0,0,-1,89.291,-59.527833)" stroke-width=".3985" stroke-linecap="butt" stroke-miterlimit="10" stroke-linejoin="miter" fill="none" stroke="#000000" d="M0-2381.1217"/>
<g clip-path="url(#clip_48)">
<path transform="matrix(1,0,0,-1,89.291,2321.563)" stroke-width=".3985" stroke-linecap="round" stroke-linejoin="round" fill="none" stroke="#000000" d="M74.2928 22.61517C60.19232 36.46799 15.49939 37.57263-25.53145 25.08266-66.56229 12.5927-88.3933-8.76234-74.2928-22.61517"/>
<path transform="matrix(1,0,0,-1,89.291,2321.563)" stroke-width=".3985" stroke-linecap="round" stroke-linejoin="round" fill="none" stroke="#000000" d="M26.739 39.44498C10.15228 40.78143-15.26624 24.20424-30.03357 2.41978-44.8009-19.36465-43.32578-38.10852-26.73906-39.44498"/>
<path transform="matrix(1,0,0,-1,89.291,2321.563)" stroke-width=".3985" stroke-linecap="round" stroke-linejoin="round" fill="none" stroke="#000000" d="M-13.58159 37.56435C-4.24414 39.13806 9.40628 23.5956 16.90709 2.84961 24.4079-17.89636 22.91904-35.99062 13.58159-37.56435"/>
<path transform="matrix(1,0,0,-1,89.291,2321.563)" stroke-width=".3985" stroke-linecap="round" stroke-linejoin="round" fill="none" stroke="#000000" d="M-59.77531 21.50787C-38.73795 34.28566 5.07817 35.01479 38.09116 23.13623 71.10413 11.25768 80.81268-8.73012 59.77531-21.5079"/>
<path transform="matrix(1,0,0,-1,89.291,2321.563)" stroke-width=".3985" stroke-linecap="round" stroke-linejoin="round" fill="none" stroke="#000000" d="M63.13057-19.3584C45.70549-31.16695 3.3147-39.02805-31.55177-36.91687-45.21587-36.08972-56.30447-33.78079-63.13252-30.3408"/>
<path transform="matrix(1,0,0,-1,89.291,2321.563)" stroke-width=".3985" stroke-linecap="round" stroke-linejoin="round" fill="none" stroke="#000000" d="M81.49268 7.0886C81.49292-6.1977 45.00667-20.14227-.00006-24.05725-45.00682-27.97221-81.49252-20.37486-81.49277-7.08856"/>
<path transform="matrix(1,0,0,-1,89.291,2321.563)" stroke-width=".3985" stroke-linecap="round" stroke-linejoin="round" fill="none" stroke="#000000" d="M63.1321 30.34073C80.5562 21.56322 66.41698 7.81946 31.54958-.35716-3.31783-8.5338-45.70789-8.04709-63.132 .73041-73.05704 5.73009-73.05627 12.63232-63.131 19.35832"/>
<path transform="matrix(1,0,0,-1,89.291,2321.563)" stroke-width=".3985" stroke-linecap="round" stroke-linejoin="round" fill="none" stroke="#000000" d="M-.00041 38.93726C22.50293 40.89473 40.74574 37.09605 40.74585 30.45293 40.74596 23.8098 22.50284 16.83751-.0005 14.88004-22.50388 12.92258-40.74669 16.72124-40.7468 23.36436-40.7469 30.00749-22.50378 36.9798-.00041 38.93726"/>
<path transform="matrix(1,0,0,-1,89.291,2321.563)" stroke-width=".3985" stroke-linecap="round" stroke-linejoin="round" fill="none" stroke="#000000" d="M81.5027 7.0897C81.5027 28.79498 45.01326 43.21597 0 39.30038-45.01326 35.3848-81.5027 14.61555-81.5027-7.0897-81.5027-28.79498-45.01326-43.21597 0-39.30038 45.01326-35.3848 81.5027-14.61555 81.5027 7.0897ZM0 0"/>
</g>
<path transform="matrix(1,0,0,-1,89.291,-59.527833)" stroke-width=".3985" stroke-linecap="butt" stroke-miterlimit="10" stroke-linejoin="miter" fill="none" stroke="#000000" d="M0-2500.1778"/>
<g clip-path="url(#clip_49)">
<path transform="matrix(1,0,0,-1,89.291,2440.6182)" stroke-width=".3985" stroke-linecap="round" stroke-linejoin="round" fill="none" stroke="#000000" d="M74.61284 21.88681C61.03978 35.21854 16.63095 36.22728-24.5761 24.13957-65.78314 12.05188-88.18596-8.55511-74.6129-21.88684"/>
<path transform="matrix(1,0,0,-1,89.291,2440.6182)" stroke-width=".3985" stroke-linecap="round" stroke-linejoin="round" fill="none" stroke="#000000" d="M27.3698 38.43825C11.09848 39.74797-14.34578 23.60051-29.46165 2.37164-44.57753-18.85722-43.64114-37.12854-27.36983-38.43828"/>
<path transform="matrix(1,0,0,-1,89.291,2440.6182)" stroke-width=".3985" stroke-linecap="round" stroke-linejoin="round" fill="none" stroke="#000000" d="M-13.9327 36.50563C-4.75409 38.0529 8.9248 22.96292 16.61952 2.80164 24.31425-17.35962 23.11133-34.95836 13.93272-36.50563"/>
<path transform="matrix(1,0,0,-1,89.291,2440.6182)" stroke-width=".3985" stroke-linecap="round" stroke-linejoin="round" fill="none" stroke="#000000" d="M-60.49458 20.38734C-40.0932 32.77936 3.5304 33.69746 36.94032 22.43796 70.35027 11.17847 80.89598-7.9953 60.49461-20.38731"/>
<path transform="matrix(1,0,0,-1,89.291,2440.6182)" stroke-width=".3985" stroke-linecap="round" stroke-linejoin="round" fill="none" stroke="#000000" d="M62.42406-19.17863C44.23985-30.93884 1.54936-38.55147-32.92671-36.18199-45.50386-35.3174-55.79277-33.17503-62.4258-30.03865"/>
<path transform="matrix(1,0,0,-1,89.291,2440.6182)" stroke-width=".3985" stroke-linecap="round" stroke-linejoin="round" fill="none" stroke="#000000" d="M81.49268 7.08902C81.49292-6.19829 45.00667-20.14392-.00006-24.0591-45.00682-27.97427-81.49252-20.3763-81.49277-7.08896"/>
<path transform="matrix(1,0,0,-1,89.291,2440.6182)" stroke-width=".3985" stroke-linecap="round" stroke-linejoin="round" fill="none" stroke="#000000" d="M62.42485 30.03838C80.60811 21.4415 67.40059 7.68944 32.92375-.6779-1.55307-9.04527-44.24232-8.85953-62.42558-.26265-73.28963 4.87376-73.29036 12.15195-62.425 19.17836"/>
<path transform="matrix(1,0,0,-1,89.291,2440.6182)" stroke-width=".3985" stroke-linecap="round" stroke-linejoin="round" fill="none" stroke="#000000" d="M-.00041 37.81631C22.50293 39.7739 40.74574 35.97491 40.74585 29.33125 40.74596 22.68759 22.50284 15.7148-.0005 13.7572-22.50388 11.79962-40.74669 15.5986-40.7468 22.24226-40.7469 28.88593-22.50378 35.85872-.00041 37.81631"/>
<path transform="matrix(1,0,0,-1,89.291,2440.6182)" stroke-width=".3985" stroke-linecap="round" stroke-linejoin="round" fill="none" stroke="#000000" d="M81.5027 7.09015C81.5027 28.23453 45.01326 42.20062 0 38.28479-45.01326 34.36896-81.5027 14.0542-81.5027-7.09015-81.5027-28.23453-45.01326-42.20062 0-38.28479 45.01326-34.36896 81.5027-14.0542 81.5027 7.09015ZM0 0"/>
</g>
<path transform="matrix(1,0,0,-1,89.291,-59.527833)" stroke-width=".3985" stroke-linecap="butt" stroke-miterlimit="10" stroke-linejoin="miter" fill="none" stroke="#000000" d="M0-2619.234"/>
<g clip-path="url(#clip_50)">
<path transform="matrix(1,0,0,-1,89.291,2559.6724)" stroke-width=".3985" stroke-linecap="round" stroke-linejoin="round" fill="none" stroke="#000000" d="M74.9257 21.17764C61.89328 33.9848 17.78174 34.88455-23.59912 23.18872-64.97998 11.4929-87.95818-8.37053-74.92574-21.1777"/>
<path transform="matrix(1,0,0,-1,89.291,2559.6724)" stroke-width=".3985" stroke-linecap="round" stroke-linejoin="round" fill="none" stroke="#000000" d="M28.01595 37.44576C12.08458 38.7283-13.37444 23.00273-28.84682 2.32248-44.31918-18.35776-43.94734-36.1632-28.01598-37.44576"/>
<path transform="matrix(1,0,0,-1,89.291,2559.6724)" stroke-width=".3985" stroke-linecap="round" stroke-linejoin="round" fill="none" stroke="#000000" d="M-14.29272 35.4614C-5.28487 36.97816 8.41684 22.33076 16.31046 2.74626 24.20407-16.83824 23.30064-33.94455 14.29279-35.46133"/>
<path transform="matrix(1,0,0,-1,89.291,2559.6724)" stroke-width=".3985" stroke-linecap="round" stroke-linejoin="round" fill="none" stroke="#000000" d="M-61.2041 19.29349C-41.45927 31.28497 1.95016 32.3683 35.75163 21.71295 69.55312 11.05759 80.94899-7.302 61.20416-19.29349"/>
<path transform="matrix(1,0,0,-1,89.291,2559.6724)" stroke-width=".3985" stroke-linecap="round" stroke-linejoin="round" fill="none" stroke="#000000" d="M61.61125-19.04515C42.6004-30.7439-.39536-38.0766-34.4226-35.42305-45.82512-34.53404-55.24396-32.57234-61.61395-29.75996"/>
<path transform="matrix(1,0,0,-1,89.291,2559.6724)" stroke-width=".3985" stroke-linecap="round" stroke-linejoin="round" fill="none" stroke="#000000" d="M81.49268 7.08629C81.49292-6.20071 45.00667-20.14485-.00006-24.05853-45.00682-27.97223-81.49252-20.37334-81.49277-7.08632"/>
<path transform="matrix(1,0,0,-1,89.291,2559.6724)" stroke-width=".3985" stroke-linecap="round" stroke-linejoin="round" fill="none" stroke="#000000" d="M61.613 29.76001C80.62221 21.3669 68.449 7.61499 34.42027-.95595 .39154-9.52692-42.60428-9.67188-61.6135-1.27876-73.56093 3.99629-73.56041 11.69241-61.6122 19.0452"/>
<path transform="matrix(1,0,0,-1,89.291,2559.6724)" stroke-width=".3985" stroke-linecap="round" stroke-linejoin="round" fill="none" stroke="#000000" d="M-.00041 36.69472C22.50293 38.65155 40.74574 34.8521 40.74585 28.2086 40.74596 21.56511 22.50284 14.59302-.0005 12.63618-22.50388 10.67934-40.74669 14.47879-40.7468 21.12228-40.7469 27.76578-22.50378 34.73787-.00041 36.69472"/>
<path transform="matrix(1,0,0,-1,89.291,2559.6724)" stroke-width=".3985" stroke-linecap="round" stroke-linejoin="round" fill="none" stroke="#000000" d="M81.5027 7.08755C81.5027 27.68057 45.01326 41.20088 0 37.2865-45.01326 33.3721-81.5027 13.50546-81.5027-7.08755-81.5027-27.68057-45.01326-41.20088 0-37.2865 45.01326-33.3721 81.5027-13.50546 81.5027 7.08755ZM0 0"/>
</g>
<path transform="matrix(1,0,0,-1,89.291,-59.527833)" stroke-width=".3985" stroke-linecap="butt" stroke-miterlimit="10" stroke-linejoin="miter" fill="none" stroke="#000000" d="M0-2738.2899"/>
<g clip-path="url(#clip_51)">
<path transform="matrix(1,0,0,-1,89.291,2678.727)" stroke-width=".3985" stroke-linecap="round" stroke-linejoin="round" fill="none" stroke="#000000" d="M75.229 20.50613C62.73839 32.7793 18.93011 33.54747-22.61736 22.22252-64.16486 10.89757-87.71962-8.23303-75.229-20.5062"/>
<path transform="matrix(1,0,0,-1,89.291,2678.727)" stroke-width=".3985" stroke-linecap="round" stroke-linejoin="round" fill="none" stroke="#000000" d="M28.67621 36.47523C13.10748 37.72598-12.35213 22.40941-28.18962 2.26465-44.0271-17.8801-44.24493-35.2245-28.67621-36.47523"/>
<path transform="matrix(1,0,0,-1,89.291,2678.727)" stroke-width=".3985" stroke-linecap="round" stroke-linejoin="round" fill="none" stroke="#000000" d="M-14.6667 34.43251C-5.84418 35.92021 7.87476 21.70993 15.97487 2.69368 24.07498-16.32257 23.48924-32.94476 14.6667-34.43248"/>
<path transform="matrix(1,0,0,-1,89.291,2678.727)" stroke-width=".3985" stroke-linecap="round" stroke-linejoin="round" fill="none" stroke="#000000" d="M-61.91039 18.21832C-42.84697 29.79889 .32559 31.03027 34.51753 20.96861 68.70947 10.90695 80.97386-6.63777 61.91045-18.21835"/>
<path transform="matrix(1,0,0,-1,89.291,2678.727)" stroke-width=".3985" stroke-linecap="round" stroke-linejoin="round" fill="none" stroke="#000000" d="M60.66771-18.95796C40.75215-30.58273-2.55473-37.6049-36.06087-34.64203-46.18524-33.74678-54.65205-31.98407-60.66953-29.51865"/>
<path transform="matrix(1,0,0,-1,89.291,2678.727)" stroke-width=".3985" stroke-linecap="round" stroke-linejoin="round" fill="none" stroke="#000000" d="M81.49268 7.09317C81.49292-6.19319 45.00667-20.13986-.00006-24.05737-45.00682-27.97487-81.49252-20.37955-81.49277-7.09317"/>
<path transform="matrix(1,0,0,-1,89.291,2678.727)" stroke-width=".3985" stroke-linecap="round" stroke-linejoin="round" fill="none" stroke="#000000" d="M60.66827 29.51842C80.58235 21.36037 69.56395 7.61699 36.05765-1.17822 2.55133-9.97345-40.75468-10.4901-60.66876-2.33205-73.87553 3.0784-73.87706 11.24811-60.66896 18.95775"/>
<path transform="matrix(1,0,0,-1,89.291,2678.727)" stroke-width=".3985" stroke-linecap="round" stroke-linejoin="round" fill="none" stroke="#000000" d="M-.00041 35.57301C22.50293 37.53177 40.74574 33.7341 40.74585 27.09093 40.74596 20.44775 22.50284 13.47441-.0005 11.51567-22.50388 9.55693-40.74669 13.3546-40.7468 19.99777-40.7469 26.64095-22.50378 33.61427-.00041 35.57301"/>
<path transform="matrix(1,0,0,-1,89.291,2678.727)" stroke-width=".3985" stroke-linecap="round" stroke-linejoin="round" fill="none" stroke="#000000" d="M81.5027 7.09447C81.5027 27.14641 45.01326 40.225 0 36.3068-45.01326 32.38857-81.5027 12.95746-81.5027-7.09447-81.5027-27.14641-45.01326-40.225 0-36.3068 45.01326-32.38857 81.5027-12.95746 81.5027 7.09447ZM0 0"/>
</g>
<path transform="matrix(1,0,0,-1,89.291,-59.527833)" stroke-width=".3985" stroke-linecap="butt" stroke-miterlimit="10" stroke-linejoin="miter" fill="none" stroke="#000000" d="M0-2857.346"/>
<g clip-path="url(#clip_52)">
<path transform="matrix(1,0,0,-1,89.291,2797.7813)" stroke-width=".3985" stroke-linecap="round" stroke-linejoin="round" fill="none" stroke="#000000" d="M75.52145 19.84996C63.57866 31.58505 20.08325 32.21051-21.62605 21.248-63.33537 10.28548-87.46431-8.11484-75.52151-19.84993"/>
<path transform="matrix(1,0,0,-1,89.291,2797.7813)" stroke-width=".3985" stroke-linecap="round" stroke-linejoin="round" fill="none" stroke="#000000" d="M29.35672 35.52415C14.17888 36.74493-11.2691 21.82977-27.48212 2.21054-43.69513-17.40868-44.53455-34.30344-29.35672-35.52422"/>
<path transform="matrix(1,0,0,-1,89.291,2797.7813)" stroke-width=".3985" stroke-linecap="round" stroke-linejoin="round" fill="none" stroke="#000000" d="M-15.05156 33.42773C-6.42857 34.88028 7.30093 21.09157 15.61351 2.63026 23.92607-15.83101 23.67458-31.97517 15.05159-33.42773"/>
<path transform="matrix(1,0,0,-1,89.291,2797.7813)" stroke-width=".3985" stroke-linecap="round" stroke-linejoin="round" fill="none" stroke="#000000" d="M-62.60374 17.1842C-44.24446 28.33504-1.33147 29.68083 33.24335 20.19048 67.81818 10.7001 80.96301-6.03337 62.60371-17.1842"/>
<path transform="matrix(1,0,0,-1,89.291,2797.7813)" stroke-width=".3985" stroke-linecap="round" stroke-linejoin="round" fill="none" stroke="#000000" d="M59.55829-18.9455C38.64667-30.47473-4.9724-37.13536-37.8653-33.82193-46.59587-32.94255-54.01224-31.39851-59.56198-29.30351"/>
<path transform="matrix(1,0,0,-1,89.291,2797.7813)" stroke-width=".3985" stroke-linecap="round" stroke-linejoin="round" fill="none" stroke="#000000" d="M81.49268 7.08624C81.49292-6.2009 45.00667-20.14517-.00006-24.05884-45.00682-27.97252-81.49252-20.37346-81.49277-7.0863"/>
<path transform="matrix(1,0,0,-1,89.291,2797.7813)" stroke-width=".3985" stroke-linecap="round" stroke-linejoin="round" fill="none" stroke="#000000" d="M59.56078 29.30351C80.47238 21.41052 70.75809 7.68843 37.86343-1.3456 4.9688-10.37962-38.6498-11.30461-59.56139-3.41162-74.24835 2.13194-74.24612 10.84799-59.5595 18.9455"/>
<path transform="matrix(1,0,0,-1,89.291,2797.7813)" stroke-width=".3985" stroke-linecap="round" stroke-linejoin="round" fill="none" stroke="#000000" d="M-.00041 34.45253C22.50293 36.40936 40.74574 32.60983 40.74585 25.96626 40.74596 19.3227 22.50284 12.35057-.0005 10.39372-22.50388 8.43687-40.74669 12.23642-40.7468 18.87999-40.7469 25.52354-22.50378 32.49568-.00041 34.45253"/>
<path transform="matrix(1,0,0,-1,89.291,2797.7813)" stroke-width=".3985" stroke-linecap="round" stroke-linejoin="round" fill="none" stroke="#000000" d="M81.5027 7.08713C81.5027 26.60947 45.01326 39.26202 0 35.34785-45.01326 31.4337-81.5027 12.4352-81.5027-7.08713-81.5027-26.60947-45.01326-39.26202 0-35.34785 45.01326-31.4337 81.5027-12.4352 81.5027 7.08713ZM0 0"/>
</g>
<path transform="matrix(1,0,0,-1,89.291,-59.527833)" stroke-width=".3985" stroke-linecap="butt" stroke-miterlimit="10" stroke-linejoin="miter" fill="none" stroke="#000000" d="M0-2976.402"/>
<g clip-path="url(#clip_53)">
<path transform="matrix(1,0,0,-1,89.291,2916.836)" stroke-width=".3985" stroke-linecap="round" stroke-linejoin="round" fill="none" stroke="#000000" d="M75.80075 19.23274C64.41176 30.42072 21.2424 30.87946-20.62154 20.25743-62.48549 9.63542-87.18983-8.0448-75.80084-19.23277"/>
<path transform="matrix(1,0,0,-1,89.291,2916.836)" stroke-width=".3985" stroke-linecap="round" stroke-linejoin="round" fill="none" stroke="#000000" d="M30.04823 34.59595C15.29012 35.78233-10.12718 21.25441-26.72249 2.1477-43.31778-16.959-44.80643-33.40958-30.0483-34.59598"/>
<path transform="matrix(1,0,0,-1,89.291,2916.836)" stroke-width=".3985" stroke-linecap="round" stroke-linejoin="round" fill="none" stroke="#000000" d="M-15.44537 32.43689C-7.03783 33.85298 6.69302 20.47813 15.22334 2.56377 23.75366-15.3506 23.85295-31.02078 15.4454-32.43686"/>
<path transform="matrix(1,0,0,-1,89.291,2916.836)" stroke-width=".3985" stroke-linecap="round" stroke-linejoin="round" fill="none" stroke="#000000" d="M-63.28621 16.16705C-45.65593 26.87747-3.02959 28.3215 31.92271 19.3927 66.87503 10.4639 80.91652-5.45667 63.28624-16.16708"/>
<path transform="matrix(1,0,0,-1,89.291,2916.836)" stroke-width=".3985" stroke-linecap="round" stroke-linejoin="round" fill="none" stroke="#000000" d="M58.24411-18.99377C44.00732-26.37523 19.7409-31.92244-5.396-33.54184-26.7229-34.9158-46.17052-33.29492-58.24898-29.13513"/>
<path transform="matrix(1,0,0,-1,89.291,2916.836)" stroke-width=".3985" stroke-linecap="round" stroke-linejoin="round" fill="none" stroke="#000000" d="M81.49268 7.0941C81.49292-6.19214 45.00667-20.13914-.00006-24.05717-45.00682-27.97519-81.49252-20.38039-81.49277-7.09413"/>
<path transform="matrix(1,0,0,-1,89.291,2916.836)" stroke-width=".3985" stroke-linecap="round" stroke-linejoin="round" fill="none" stroke="#000000" d="M58.24686 29.1347C80.25879 21.55418 72.02628 7.87106 39.85661-1.42743 7.68695-10.72594-36.23648-12.11928-58.24841-4.53876-74.68831 1.12273-74.68571 10.46983-58.24622 18.99335"/>
<path transform="matrix(1,0,0,-1,89.291,2916.836)" stroke-width=".3985" stroke-linecap="round" stroke-linejoin="round" fill="none" stroke="#000000" d="M-.00041 33.3298C22.50293 35.2888 40.74574 31.49138 40.74585 24.84827 40.74596 18.20515 22.50284 11.23164-.0005 9.27264-22.50388 7.31363-40.74669 11.11105-40.7468 17.75417-40.7469 24.39728-22.50378 31.37079-.00041 33.3298"/>
<path transform="matrix(1,0,0,-1,89.291,2916.836)" stroke-width=".3985" stroke-linecap="round" stroke-linejoin="round" fill="none" stroke="#000000" d="M81.5027 7.09534C81.5027 26.09975 45.01326 38.3288 0 34.41011-45.01326 30.49142-81.5027 11.90907-81.5027-7.09534-81.5027-26.09975-45.01326-38.3288 0-34.41011 45.01326-30.49142 81.5027-11.90907 81.5027 7.09534ZM0 0"/>
</g>
<path transform="matrix(1,0,0,-1,89.291,-59.527833)" stroke-width=".3985" stroke-linecap="butt" stroke-miterlimit="10" stroke-linejoin="miter" fill="none" stroke="#000000" d="M0-3095.4583"/>
<g clip-path="url(#clip_54)">
<path transform="matrix(1,0,0,-1,89.291,3035.891)" stroke-width=".3985" stroke-linecap="round" stroke-linejoin="round" fill="none" stroke="#000000" d="M76.06929 18.63715C65.2413 29.27493 22.40518 29.55449-19.6062 19.26163-61.6176 8.96877-86.89731-7.99936-76.06932-18.63715"/>
<path transform="matrix(1,0,0,-1,89.291,3035.891)" stroke-width=".3985" stroke-linecap="round" stroke-linejoin="round" fill="none" stroke="#000000" d="M30.75146 33.69356C16.44128 34.84412-8.92691 20.69188-25.91064 2.08325-42.89436-16.52534-45.06165-32.54301-30.75146-33.69359"/>
<path transform="matrix(1,0,0,-1,89.291,3035.891)" stroke-width=".3985" stroke-linecap="round" stroke-linejoin="round" fill="none" stroke="#000000" d="M-15.85072 31.47488C-7.67616 32.85208 6.04774 19.87627 14.80177 2.49348 23.5558-14.88928 24.02539-30.09769 15.85081-31.47488"/>
<path transform="matrix(1,0,0,-1,89.291,3035.891)" stroke-width=".3985" stroke-linecap="round" stroke-linejoin="round" fill="none" stroke="#000000" d="M-63.95032 15.193C-47.06851 25.44713-4.75041 26.9572 30.56854 18.56657 65.88751 10.17595 80.83217-4.93884 63.95035-15.193"/>
<path transform="matrix(1,0,0,-1,89.291,3035.891)" stroke-width=".3985" stroke-linecap="round" stroke-linejoin="round" fill="none" stroke="#000000" d="M56.67036-19.13747C41.6436-26.42137 16.94919-31.72719-8.0952-33.05383-27.46071-34.07965-45.05177-32.61218-56.66968-29.00276"/>
<path transform="matrix(1,0,0,-1,89.291,3035.891)" stroke-width=".3985" stroke-linecap="round" stroke-linejoin="round" fill="none" stroke="#000000" d="M81.49268 7.09367C81.49292-6.19234 45.00667-20.13898-.00006-24.05678-45.00682-27.97456-81.49252-20.37973-81.49277-7.0937"/>
<path transform="matrix(1,0,0,-1,89.291,3035.891)" stroke-width=".3985" stroke-linecap="round" stroke-linejoin="round" fill="none" stroke="#000000" d="M56.66975 29.00267C79.90125 21.78574 73.36324 8.16713 42.06538-1.4152 10.76753-10.99756-33.43773-12.91547-56.66922-5.69853-75.20844 .06093-75.21101 10.1501-56.67029 19.13737"/>
<path transform="matrix(1,0,0,-1,89.291,3035.891)" stroke-width=".3985" stroke-linecap="round" stroke-linejoin="round" fill="none" stroke="#000000" d="M-.00041 32.21063C22.50293 34.16951 40.74574 30.37212 40.74585 23.72911 40.74596 17.0861 22.50284 10.11278-.0005 8.1539-22.50388 6.195-40.74669 9.9924-40.7468 16.6354-40.7469 23.27841-22.50378 30.25174-.00041 32.21063"/>
<path transform="matrix(1,0,0,-1,89.291,3035.891)" stroke-width=".3985" stroke-linecap="round" stroke-linejoin="round" fill="none" stroke="#000000" d="M81.5027 7.09447C81.5027 25.59459 45.01326 37.41524 0 33.49702-45.01326 29.5788-81.5027 11.40564-81.5027-7.09447-81.5027-25.59459-45.01326-37.41524 0-33.49702 45.01326-29.5788 81.5027-11.40564 81.5027 7.09447ZM0 0"/>
</g>
<path transform="matrix(1,0,0,-1,89.291,-59.527833)" stroke-width=".3985" stroke-linecap="butt" stroke-miterlimit="10" stroke-linejoin="miter" fill="none" stroke="#000000" d="M0-3214.5142"/>
<g clip-path="url(#clip_55)">
<path transform="matrix(1,0,0,-1,89.291,3154.9454)" stroke-width=".3985" stroke-linecap="round" stroke-linejoin="round" fill="none" stroke="#000000" d="M76.32582 18.07649C66.06482 28.15623 23.57394 28.23393-18.58008 18.25061-60.73412 8.26729-86.58682-7.99677-76.32582-18.07649"/>
<path transform="matrix(1,0,0,-1,89.291,3154.9454)" stroke-width=".3985" stroke-linecap="round" stroke-linejoin="round" fill="none" stroke="#000000" d="M31.46448 32.81732C17.63599 33.92778-7.66226 20.13474-25.0393 2.01059-42.41635-16.11354-45.29301-31.7069-31.46451-32.81735"/>
<path transform="matrix(1,0,0,-1,89.291,3154.9454)" stroke-width=".3985" stroke-linecap="round" stroke-linejoin="round" fill="none" stroke="#000000" d="M-16.26474 30.53116C-8.34267 31.86674 5.3617 19.27994 14.34439 2.41824 23.32709-14.44342 24.18684-29.19551 16.26477-30.5311"/>
<path transform="matrix(1,0,0,-1,89.291,3154.9454)" stroke-width=".3985" stroke-linecap="round" stroke-linejoin="round" fill="none" stroke="#000000" d="M-64.60472 14.2442C-48.49951 24.02917-6.51778 25.58374 29.16243 17.71712 64.84267 9.85051 80.70993-4.45924 64.60472-14.24423"/>
<path transform="matrix(1,0,0,-1,89.291,3154.9454)" stroke-width=".3985" stroke-linecap="round" stroke-linejoin="round" fill="none" stroke="#000000" d="M54.74338-19.38213C38.83293-26.54112 13.6888-31.56155-11.2016-32.54964-28.30707-33.22849-43.81429-31.9374-54.74751-28.92285"/>
<path transform="matrix(1,0,0,-1,89.291,3154.9454)" stroke-width=".3985" stroke-linecap="round" stroke-linejoin="round" fill="none" stroke="#000000" d="M81.49268 7.1013C81.49292-6.18413 45.00667-20.1337-.00006-24.05568-45.00682-27.97766-81.49252-20.38673-81.49277-7.10127"/>
<path transform="matrix(1,0,0,-1,89.291,3154.9454)" stroke-width=".3985" stroke-linecap="round" stroke-linejoin="round" fill="none" stroke="#000000" d="M54.74553 28.92262C79.34396 22.14093 74.7744 8.62108 44.5388-1.27481 14.3032-11.17073-30.14854-13.69537-54.74698-6.91368-75.8517-1.09518-75.85033 9.88559-54.74538 19.3819"/>
<path transform="matrix(1,0,0,-1,89.291,3154.9454)" stroke-width=".3985" stroke-linecap="round" stroke-linejoin="round" fill="none" stroke="#000000" d="M-.00041 31.08841C22.50293 33.0494 40.74574 29.2539 40.74585 22.61119 40.74596 15.96848 22.50284 8.9937-.0005 7.0327-22.50388 5.0717-40.74669 8.8672-40.7468 15.50992-40.7469 22.15263-22.50378 29.12741-.00041 31.08841"/>
<path transform="matrix(1,0,0,-1,89.291,3154.9454)" stroke-width=".3985" stroke-linecap="round" stroke-linejoin="round" fill="none" stroke="#000000" d="M81.5027 7.10226C81.5027 25.1122 45.01326 36.53197 0 32.60945-45.01326 28.68694-81.5027 10.90765-81.5027-7.10226-81.5027-25.1122-45.01326-36.53197 0-32.60945 45.01326-28.68694 81.5027-10.90765 81.5027 7.10226ZM0 0"/>
</g>
<path transform="matrix(1,0,0,-1,89.291,-59.527833)" stroke-width=".3985" stroke-linecap="butt" stroke-miterlimit="10" stroke-linejoin="miter" fill="none" stroke="#000000" d="M0-3333.5704"/>
<g clip-path="url(#clip_56)">
<path transform="matrix(1,0,0,-1,89.291,3274)" stroke-width=".3985" stroke-linecap="round" stroke-linejoin="round" fill="none" stroke="#000000" d="M76.57397 17.53433C66.88835 27.05266 24.75227 26.91805-17.53839 17.23425-59.82909 7.55045-86.2596-8.016-76.57397-17.53433"/>
<path transform="matrix(1,0,0,-1,89.291,3274)" stroke-width=".3985" stroke-linecap="round" stroke-linejoin="round" fill="none" stroke="#000000" d="M32.18794 31.96794C18.8755 33.03888-6.32762 19.59401-24.10475 1.93858-41.88188-15.71683-45.5004-30.89706-32.18794-31.968"/>
<path transform="matrix(1,0,0,-1,89.291,3274)" stroke-width=".3985" stroke-linecap="round" stroke-linejoin="round" fill="none" stroke="#000000" d="M-16.68636 29.61899C-9.0363 30.90749 4.63599 18.69112 13.85165 2.33295 23.06732-14.0252 24.33643-28.33047 16.68639-29.61896"/>
<path transform="matrix(1,0,0,-1,89.291,3274)" stroke-width=".3985" stroke-linecap="round" stroke-linejoin="round" fill="none" stroke="#000000" d="M-65.23856 13.34322C-49.9305 22.64215-8.31221 24.20607 27.71846 16.83691 63.74915 9.46776 80.54659-4.0443 65.23853-13.34325"/>
<path transform="matrix(1,0,0,-1,89.291,3274)" stroke-width=".3985" stroke-linecap="round" stroke-linejoin="round" fill="none" stroke="#000000" d="M52.35518-19.76688C35.44936-26.76003 9.84273-31.43031-14.80656-32.01624-29.28442-32.36023-42.42781-31.26488-52.35721-28.88698"/>
<path transform="matrix(1,0,0,-1,89.291,3274)" stroke-width=".3985" stroke-linecap="round" stroke-linejoin="round" fill="none" stroke="#000000" d="M81.49268 7.09793C81.49292-6.18767 45.00667-20.1359-.00006-24.05603-45.00682-27.97617-81.49252-20.38358-81.49277-7.09796"/>
<path transform="matrix(1,0,0,-1,89.291,3274)" stroke-width=".3985" stroke-linecap="round" stroke-linejoin="round" fill="none" stroke="#000000" d="M52.35637 28.88708C78.49214 22.62761 76.2405 9.25748 47.32422-.97615 18.40794-11.20981-26.2206-14.43225-52.35637-8.17278-76.64333-2.35652-76.6434 9.7201-52.35602 19.76698"/>
<path transform="matrix(1,0,0,-1,89.291,3274)" stroke-width=".3985" stroke-linecap="round" stroke-linejoin="round" fill="none" stroke="#000000" d="M-.00041 29.96709C22.50293 31.92715 40.74574 28.13087 40.74585 21.48807 40.74596 14.84526 22.50284 7.87115-.0005 5.91109-22.50388 3.95102-40.74669 7.7473-40.7468 14.3901-40.7469 21.03291-22.50378 28.00702-.00041 29.96709"/>
<path transform="matrix(1,0,0,-1,89.291,3274)" stroke-width=".3985" stroke-linecap="round" stroke-linejoin="round" fill="none" stroke="#000000" d="M81.5027 7.09923C81.5027 24.63425 45.01326 35.6704 0 31.74957-45.01326 27.82874-81.5027 10.43579-81.5027-7.09923-81.5027-24.63425-45.01326-35.6704 0-31.74957 45.01326-27.82874 81.5027-10.43579 81.5027 7.09923ZM0 0"/>
</g>
<path transform="matrix(1,0,0,-1,89.291,-59.527833)" stroke-width=".3985" stroke-linecap="butt" stroke-miterlimit="10" stroke-linejoin="miter" fill="none" stroke="#000000" d="M0-3452.6265"/>
<g clip-path="url(#clip_57)">
<path transform="matrix(1,0,0,-1,89.291,3393.0543)" stroke-width=".3985" stroke-linecap="round" stroke-linejoin="round" fill="none" stroke="#000000" d="M76.8065 17.02878C67.69865 25.97862 25.92702 25.60966-16.49193 16.20506-58.9109 6.80045-85.91437-8.0789-76.80653-17.02875"/>
<path transform="matrix(1,0,0,-1,89.291,3393.0543)" stroke-width=".3985" stroke-linecap="round" stroke-linejoin="round" fill="none" stroke="#000000" d="M32.91203 31.15031C20.15123 32.17618-4.92917 19.06111-23.10577 1.8575-41.28236-15.34612-45.6728-30.1244-32.912-31.15025"/>
<path transform="matrix(1,0,0,-1,89.291,3393.0543)" stroke-width=".3985" stroke-linecap="round" stroke-linejoin="round" fill="none" stroke="#000000" d="M-17.11623 28.73497C-9.76135 29.9758 3.8646 18.11612 13.31754 2.2465 22.77048-13.62308 24.47112-27.49414 17.11626-28.73497"/>
<path transform="matrix(1,0,0,-1,89.291,3393.0543)" stroke-width=".3985" stroke-linecap="round" stroke-linejoin="round" fill="none" stroke="#000000" d="M-65.85074 12.47435C-51.36687 21.27422-10.14227 22.8229 26.22585 15.93358 62.59398 9.04425 80.33461-3.67456 65.85074-12.47441"/>
<path transform="matrix(1,0,0,-1,89.291,3393.0543)" stroke-width=".3985" stroke-linecap="round" stroke-linejoin="round" fill="none" stroke="#000000" d="M49.31927-20.31378C21.8993-30.61087-21.90332-34.42766-49.32208-28.90903"/>
<path transform="matrix(1,0,0,-1,89.291,3393.0543)" stroke-width=".3985" stroke-linecap="round" stroke-linejoin="round" fill="none" stroke="#000000" d="M81.49268 7.10123C81.49292-6.18433 45.00667-20.13396-.00006-24.05591-45.00682-27.97784-81.49252-20.38678-81.49277-7.1012"/>
<path transform="matrix(1,0,0,-1,89.291,3393.0543)" stroke-width=".3985" stroke-linecap="round" stroke-linejoin="round" fill="none" stroke="#000000" d="M49.32005 28.90889C77.19946 23.29744 77.72028 10.15274 50.4808-.45062 23.24133-11.054-21.4419-15.10141-49.3213-9.48994-67.35396-5.86066-74.62064 1.15431-68.37944 8.90862-65.17545 12.88904-58.57808 16.83754-49.32129 20.31364"/>
<path transform="matrix(1,0,0,-1,89.291,3393.0543)" stroke-width=".3985" stroke-linecap="round" stroke-linejoin="round" fill="none" stroke="#000000" d="M-.00041 28.84537C22.50293 30.80634 40.74574 27.01079 40.74585 20.36801 40.74596 13.72523 22.50284 6.75044-.0005 4.78947-22.50388 2.82852-40.74669 6.62405-40.7468 13.26683-40.7469 19.9096-22.50378 26.8844-.00041 28.84537"/>
<path transform="matrix(1,0,0,-1,89.291,3393.0543)" stroke-width=".3985" stroke-linecap="round" stroke-linejoin="round" fill="none" stroke="#000000" d="M81.5027 7.10226C81.5027 24.17911 45.01326 34.84248 0 30.91997-45.01326 26.99745-81.5027 9.97456-81.5027-7.10226-81.5027-24.17911-45.01326-34.84248 0-30.91997 45.01326-26.99745 81.5027-9.97456 81.5027 7.10226ZM0 0"/>
</g>
</svg>
