<svg xmlns="http://www.w3.org/2000/svg" xmlns:xlink="http://www.w3.org/1999/xlink" version="1.1" width="178.582" height="1785.816" viewBox="0 0 178.582 1785.816">
<defs>
<clipPath id="clip_15">
<path transform="matrix(1,0,0,-1,0,119.05206)" d="M0 0H178.582V119.053H0Z"/>
</clipPath>
<clipPath id="clip_16">
<path transform="matrix(1,0,0,-1,0,238.10706)" d="M0 0H178.582V119.053H0Z"/>
</clipPath>
<clipPath id="clip_17">
<path transform="matrix(1,0,0,-1,0,357.16108)" d="M0 0H178.582V119.053H0Z"/>
</clipPath>
<clipPath id="clip_18">
<path transform="matrix(1,0,0,-1,0,476.21607)" d="M0 0H178.582V119.053H0Z"/>
</clipPath>
<clipPath id="clip_19">
<path transform="matrix(1,0,0,-1,0,595.2701)" d="M0 0H178.582V119.053H0Z"/>
</clipPath>
<clipPath id="clip_20">
<path transform="matrix(1,0,0,-1,0,714.3251)" d="M0 0H178.582V119.053H0Z"/>
</clipPath>
<clipPath id="clip_21">
<path transform="matrix(1,0,0,-1,0,833.38009)" d="M0 0H178.582V119.053H0Z"/>
</clipPath>
<clipPath id="clip_22">
<path transform="matrix(1,0,0,-1,0,952.4341)" d="M0 0H178.582V119.053H0Z"/>
</clipPath>
<clipPath id="clip_23">
<path transform="matrix(1,0,0,-1,0,1071.489)" d="M0 0H178.582V119.053H0Z"/>
</clipPath>
<clipPath id="clip_24">
<path transform="matrix(1,0,0,-1,0,1190.5431)" d="M0 0H178.582V119.053H0Z"/>
</clipPath>
<clipPath id="clip_25">
<path transform="matrix(1,0,0,-1,0,1309.598)" d="M0 0H178.582V119.053H0Z"/>
</clipPath>
<clipPath id="clip_26">
<path transform="matrix(1,0,0,-1,0,1428.6521)" d="M0 0H178.582V119.053H0Z"/>
</clipPath>
<clipPath id="clip_27">
<path transform="matrix(1,0,0,-1,0,1547.707)" d="M0 0H178.582V119.053H0Z"/>
</clipPath>
<clipPath id="clip_28">
<path transform="matrix(1,0,0,-1,0,1666.7611)" d="M0 0H178.582V119.053H0Z"/>
</clipPath>
<clipPath id="clip_29">
<path transform="matrix(1,0,0,-1,0,1785.816)" d="M0 0H178.582V119.053H0Z"/>
</clipPath>
</defs>
<path transform="matrix(1,0,0,-1,89.291,-59.52893)" stroke-width=".3985" stroke-linecap="butt" stroke-miterlimit="10" stroke-linejoin="miter" fill="none" stroke="#000000" d="M0-119.05606"/>
<g clip-path="url(#clip_15)">
<path transform="matrix(1,0,0,-1,89.291,59.526063)" stroke-width=".3985" stroke-linecap="round" stroke-linejoin="round" fill="none" stroke="#000000" d="M76.8065 17.02641C67.69865 25.97737 25.92702 25.61037-16.49193 16.20708-58.9109 6.80379-85.91437-8.07544-76.80653-17.02641"/>
<path transform="matrix(1,0,0,-1,89.291,59.526063)" stroke-width=".3985" stroke-linecap="round" stroke-linejoin="round" fill="none" stroke="#000000" d="M32.91014 31.15047C20.14812 32.17624-4.9323 19.06068-23.10828 1.8568-41.28426-15.34709-45.67224-30.12474-32.9102-31.1505"/>
<path transform="matrix(1,0,0,-1,89.291,59.526063)" stroke-width=".3985" stroke-linecap="round" stroke-linejoin="round" fill="none" stroke="#000000" d="M-17.11623 28.73701C-9.76135 29.97803 3.8646 18.11755 13.31754 2.24681 22.77048-13.62392 24.47112-27.49602 17.11626-28.73701"/>
<path transform="matrix(1,0,0,-1,89.291,59.526063)" stroke-width=".3985" stroke-linecap="round" stroke-linejoin="round" fill="none" stroke="#000000" d="M-65.85074 12.47769C-51.36687 21.2777-10.14227 22.82504 26.22585 15.9339 62.59398 9.04276 80.33461-3.67767 65.85074-12.47769"/>
<path transform="matrix(1,0,0,-1,89.291,59.526063)" stroke-width=".3985" stroke-linecap="round" stroke-linejoin="round" fill="none" stroke="#000000" d="M49.32378-20.31564C21.90182-30.61359-21.9045-34.42871-49.32468-28.90744"/>
<path transform="matrix(1,0,0,-1,89.291,59.526063)" stroke-width=".3985" stroke-linecap="round" stroke-linejoin="round" fill="none" stroke="#000000" d="M81.49268 7.0982C81.49292-6.18771 45.00667-20.1363-.00006-24.05658-45.00682-27.97685-81.49252-20.38414-81.49277-7.0982"/>
<path transform="matrix(1,0,0,-1,89.291,59.526063)" stroke-width=".3985" stroke-linecap="round" stroke-linejoin="round" fill="none" stroke="#000000" d="M49.32378 28.9073C77.20139 23.29396 77.71878 10.1486 50.47769-.45358 23.2366-11.0558-21.44643-15.10054-49.32404-9.4872-67.35489-5.85643-74.62053 1.15918-68.378 8.91335-65.1742 12.89272-58.57939 16.84-49.32468 20.3155"/>
<path transform="matrix(1,0,0,-1,89.291,59.526063)" stroke-width=".3985" stroke-linecap="round" stroke-linejoin="round" fill="none" stroke="#000000" d="M-.00041 28.847C22.50293 30.80711 40.74574 27.01076 40.74585 20.36781 40.74596 13.72487 22.50284 6.75056-.0005 4.79044-22.50388 2.8303-40.74669 6.62668-40.7468 13.26962-40.7469 19.91257-22.50378 26.88687-.00041 28.847"/>
<path transform="matrix(1,0,0,-1,89.291,59.526063)" stroke-width=".3985" stroke-linecap="round" stroke-linejoin="round" fill="none" stroke="#000000" d="M81.5027 7.09923C81.5027 24.17654 45.01326 34.84166 0 30.92084-45.01326 27-81.5027 9.97809-81.5027-7.09923-81.5027-24.17654-45.01326-34.84166 0-30.92084 45.01326-27 81.5027-9.97809 81.5027 7.09923ZM0 0"/>
</g>
<path transform="matrix(1,0,0,-1,89.291,-59.52893)" stroke-width=".3985" stroke-linecap="butt" stroke-miterlimit="10" stroke-linejoin="miter" fill="none" stroke="#000000" d="M0-238.11215"/>
<g clip-path="url(#clip_16)">
<path transform="matrix(1,0,0,-1,89.291,178.58106)" stroke-width=".3985" stroke-linecap="round" stroke-linejoin="round" fill="none" stroke="#000000" d="M76.57274 17.53299C66.88353 27.0515 24.74504 26.91795-17.54443 17.2349-59.83391 7.55185-86.26201-8.01453-76.5728-17.53302"/>
<path transform="matrix(1,0,0,-1,89.291,178.58106)" stroke-width=".3985" stroke-linecap="round" stroke-linejoin="round" fill="none" stroke="#000000" d="M32.18794 31.96808C18.8755 33.0399-6.32762 19.59569-24.10475 1.9402-41.88188-15.71527-45.5004-30.89624-32.18794-31.96805"/>
<path transform="matrix(1,0,0,-1,89.291,178.58106)" stroke-width=".3985" stroke-linecap="round" stroke-linejoin="round" fill="none" stroke="#000000" d="M-16.68636 29.62091C-9.0363 30.90947 4.63599 18.6923 13.85165 2.33307 23.06732-14.02614 24.33643-28.33235 16.68639-29.62091"/>
<path transform="matrix(1,0,0,-1,89.291,178.58106)" stroke-width=".3985" stroke-linecap="round" stroke-linejoin="round" fill="none" stroke="#000000" d="M-65.23856 13.34695C-49.9305 22.64581-8.31221 24.20802 27.71846 16.83679 63.74915 9.46556 80.54659-4.04808 65.23853-13.34695"/>
<path transform="matrix(1,0,0,-1,89.291,178.58106)" stroke-width=".3985" stroke-linecap="round" stroke-linejoin="round" fill="none" stroke="#000000" d="M52.35876-19.76941C35.45425-26.76207 9.8466-31.43158-14.8024-32.01672-29.28368-32.36035-42.42915-31.26479-52.35939-28.88556"/>
<path transform="matrix(1,0,0,-1,89.291,178.58106)" stroke-width=".3985" stroke-linecap="round" stroke-linejoin="round" fill="none" stroke="#000000" d="M81.49268 7.0946C81.49292-6.19128 45.00667-20.13824-.00006-24.05653-45.00682-27.97481-81.49252-20.38051-81.49277-7.0946"/>
<path transform="matrix(1,0,0,-1,89.291,178.58106)" stroke-width=".3985" stroke-linecap="round" stroke-linejoin="round" fill="none" stroke="#000000" d="M52.35855 28.88513C78.49356 22.62398 76.23853 9.25339 47.32092-.97913 18.40332-11.21165-26.22507-14.43123-52.36008-8.17007-76.64496-2.35231-76.64566 9.7228-52.3596 19.76898"/>
<path transform="matrix(1,0,0,-1,89.291,178.58106)" stroke-width=".3985" stroke-linecap="round" stroke-linejoin="round" fill="none" stroke="#000000" d="M-.00041 29.96852C22.50293 31.92766 40.74574 28.13051 40.74585 21.48756 40.74596 14.84462 22.50284 7.87114-.0005 5.912-22.50388 3.95285-40.74669 7.75-40.7468 14.39294-40.7469 21.0359-22.50378 28.00938-.00041 29.96852"/>
<path transform="matrix(1,0,0,-1,89.291,178.58106)" stroke-width=".3985" stroke-linecap="round" stroke-linejoin="round" fill="none" stroke="#000000" d="M81.5027 7.09578C81.5027 24.63152 45.01326 35.66982 0 31.75087-45.01326 27.83194-81.5027 10.43996-81.5027-7.09578-81.5027-24.63152-45.01326-35.66982 0-31.75087 45.01326-27.83194 81.5027-10.43996 81.5027 7.09578ZM0 0"/>
</g>
<path transform="matrix(1,0,0,-1,89.291,-59.52893)" stroke-width=".3985" stroke-linecap="butt" stroke-miterlimit="10" stroke-linejoin="miter" fill="none" stroke="#000000" d="M0-357.16825"/>
<g clip-path="url(#clip_17)">
<path transform="matrix(1,0,0,-1,89.291,297.63508)" stroke-width=".3985" stroke-linecap="round" stroke-linejoin="round" fill="none" stroke="#000000" d="M76.32582 18.07664C66.06482 28.15654 23.57394 28.23427-18.58008 18.25089-60.73412 8.2675-86.58682-7.99677-76.32582-18.07664"/>
<path transform="matrix(1,0,0,-1,89.291,297.63508)" stroke-width=".3985" stroke-linecap="round" stroke-linejoin="round" fill="none" stroke="#000000" d="M31.46448 32.81772C17.63599 33.92822-7.66226 20.13504-25.0393 2.01067-42.41635-16.1137-45.29301-31.70724-31.46451-32.81775"/>
<path transform="matrix(1,0,0,-1,89.291,297.63508)" stroke-width=".3985" stroke-linecap="round" stroke-linejoin="round" fill="none" stroke="#000000" d="M-16.26408 30.53122C-8.34169 31.86633 5.3627 19.27898 14.34506 2.41724 23.32742-14.44447 24.18652-29.1961 16.26411-30.53122"/>
<path transform="matrix(1,0,0,-1,89.291,297.63508)" stroke-width=".3985" stroke-linecap="round" stroke-linejoin="round" fill="none" stroke="#000000" d="M-64.60472 14.24448C-48.49951 24.02957-6.51778 25.58412 29.16243 17.71735 64.84267 9.85059 80.70993-4.45937 64.60472-14.24448"/>
<path transform="matrix(1,0,0,-1,89.291,297.63508)" stroke-width=".3985" stroke-linecap="round" stroke-linejoin="round" fill="none" stroke="#000000" d="M54.74426-19.38155C38.83382-26.54053 13.69127-31.56137-11.20015-32.54967-28.30771-33.2289-43.81313-31.93724-54.74768-28.92264"/>
<path transform="matrix(1,0,0,-1,89.291,297.63508)" stroke-width=".3985" stroke-linecap="round" stroke-linejoin="round" fill="none" stroke="#000000" d="M81.49268 7.10141C81.49292-6.18393 45.00667-20.13351-.00006-24.05556-45.00682-27.9776-81.49252-20.38678-81.49277-7.10141"/>
<path transform="matrix(1,0,0,-1,89.291,297.63508)" stroke-width=".3985" stroke-linecap="round" stroke-linejoin="round" fill="none" stroke="#000000" d="M54.74583 28.92244C79.34322 22.14067 74.77368 8.62088 44.5378-1.27473 14.30191-11.17038-30.14986-13.69511-54.74725-6.91335-75.85092-1.09476-75.85107 9.88507-54.74612 19.38135"/>
<path transform="matrix(1,0,0,-1,89.291,297.63508)" stroke-width=".3985" stroke-linecap="round" stroke-linejoin="round" fill="none" stroke="#000000" d="M-.00041 31.08858C22.50293 33.04959 40.74574 29.25418 40.74585 22.61151 40.74596 15.96884 22.50284 8.99408-.0005 7.03305-22.50388 5.07202-40.74669 8.86745-40.7468 15.51012-40.7469 22.15279-22.50378 29.12755-.00041 31.08858"/>
<path transform="matrix(1,0,0,-1,89.291,297.63508)" stroke-width=".3985" stroke-linecap="round" stroke-linejoin="round" fill="none" stroke="#000000" d="M81.5027 7.10226C81.5027 25.11244 45.01326 36.53241 0 32.6099-45.01326 28.68738-81.5027 10.9079-81.5027-7.10226-81.5027-25.11244-45.01326-36.53241 0-32.6099 45.01326-28.68738 81.5027-10.9079 81.5027 7.10226ZM0 0"/>
</g>
<path transform="matrix(1,0,0,-1,89.291,-59.52893)" stroke-width=".3985" stroke-linecap="butt" stroke-miterlimit="10" stroke-linejoin="miter" fill="none" stroke="#000000" d="M0-476.22434"/>
<g clip-path="url(#clip_18)">
<path transform="matrix(1,0,0,-1,89.291,416.69007)" stroke-width=".3985" stroke-linecap="round" stroke-linejoin="round" fill="none" stroke="#000000" d="M76.06929 18.63748C65.2413 29.27583 22.40518 29.55571-19.6062 19.26265-61.6176 8.96959-86.89731-7.99915-76.06932-18.63751"/>
<path transform="matrix(1,0,0,-1,89.291,416.69007)" stroke-width=".3985" stroke-linecap="round" stroke-linejoin="round" fill="none" stroke="#000000" d="M30.75146 33.69405C16.44128 34.84518-8.92691 20.69316-25.91064 2.08429-42.89436-16.52457-45.06165-32.54292-30.75146-33.69405"/>
<path transform="matrix(1,0,0,-1,89.291,416.69007)" stroke-width=".3985" stroke-linecap="round" stroke-linejoin="round" fill="none" stroke="#000000" d="M-15.85072 31.47525C-7.67616 32.85307 6.04774 19.87764 14.80177 2.49467 23.5558-14.88829 24.02539-30.09738 15.85081-31.47522"/>
<path transform="matrix(1,0,0,-1,89.291,416.69007)" stroke-width=".3985" stroke-linecap="round" stroke-linejoin="round" fill="none" stroke="#000000" d="M-63.95032 15.19339C-47.06851 25.4481-4.75041 26.95845 30.56854 18.5676 65.88751 10.17674 80.83217-4.93869 63.95035-15.19339"/>
<path transform="matrix(1,0,0,-1,89.291,416.69007)" stroke-width=".3985" stroke-linecap="round" stroke-linejoin="round" fill="none" stroke="#000000" d="M56.6709-19.13676C41.64442-26.42085 16.95164-31.7271-8.0938-33.054-27.46034-34.08008-45.05511-32.61264-56.67332-29.00307"/>
<path transform="matrix(1,0,0,-1,89.291,416.69007)" stroke-width=".3985" stroke-linecap="round" stroke-linejoin="round" fill="none" stroke="#000000" d="M81.49268 7.0939C81.49292-6.19183 45.00667-20.13835-.00006-24.05626-45.00682-27.97415-81.49252-20.37965-81.49277-7.0939"/>
<path transform="matrix(1,0,0,-1,89.291,416.69007)" stroke-width=".3985" stroke-linecap="round" stroke-linejoin="round" fill="none" stroke="#000000" d="M56.6713 29.00298C79.90204 21.78584 73.36191 8.16714 42.06276-1.41501 10.7636-10.99718-33.44226-12.9147-56.673-5.69756-75.20956 .06146-75.21082 10.15031-56.67293 19.13667"/>
<path transform="matrix(1,0,0,-1,89.291,416.69007)" stroke-width=".3985" stroke-linecap="round" stroke-linejoin="round" fill="none" stroke="#000000" d="M-.00041 32.21132C22.50293 34.17027 40.74574 30.37303 40.74585 23.73016 40.74596 17.0873 22.50284 10.11401-.0005 8.15506-22.50388 6.1961-40.74669 9.99335-40.7468 16.63622-40.7469 23.27908-22.50378 30.25235-.00041 32.21132"/>
<path transform="matrix(1,0,0,-1,89.291,416.69007)" stroke-width=".3985" stroke-linecap="round" stroke-linejoin="round" fill="none" stroke="#000000" d="M81.5027 7.09491C81.5027 25.59552 45.01326 37.41635 0 33.49788-45.01326 29.57942-81.5027 11.40569-81.5027-7.09491-81.5027-25.59552-45.01326-37.41635 0-33.49788 45.01326-29.57942 81.5027-11.40569 81.5027 7.09491ZM0 0"/>
</g>
<path transform="matrix(1,0,0,-1,89.291,-59.52893)" stroke-width=".3985" stroke-linecap="butt" stroke-miterlimit="10" stroke-linejoin="miter" fill="none" stroke="#000000" d="M0-595.2804"/>
<g clip-path="url(#clip_19)">
<path transform="matrix(1,0,0,-1,89.291,535.7441)" stroke-width=".3985" stroke-linecap="round" stroke-linejoin="round" fill="none" stroke="#000000" d="M75.80075 19.22679C64.41176 30.41618 21.2424 30.87875-20.62154 20.26003-62.48549 9.64128-87.18983-8.03741-75.80084-19.22682"/>
<path transform="matrix(1,0,0,-1,89.291,535.7441)" stroke-width=".3985" stroke-linecap="round" stroke-linejoin="round" fill="none" stroke="#000000" d="M30.04823 34.59459C15.29012 35.78232-10.12718 21.2561-26.72249 2.15013-43.31778-16.95583-44.80643-33.40692-30.0483-34.59465"/>
<path transform="matrix(1,0,0,-1,89.291,535.7441)" stroke-width=".3985" stroke-linecap="round" stroke-linejoin="round" fill="none" stroke="#000000" d="M-15.44537 32.43948C-7.03783 33.85487 6.69302 20.47833 15.22334 2.56253 23.75366-15.35326 23.85295-31.02405 15.4454-32.43945"/>
<path transform="matrix(1,0,0,-1,89.291,535.7441)" stroke-width=".3985" stroke-linecap="round" stroke-linejoin="round" fill="none" stroke="#000000" d="M-63.28621 16.17325C-45.65593 26.88254-3.02959 28.32285 31.92271 19.39064 66.87503 10.45842 80.91652-5.46397 63.28624-16.17325"/>
<path transform="matrix(1,0,0,-1,89.291,535.7441)" stroke-width=".3985" stroke-linecap="round" stroke-linejoin="round" fill="none" stroke="#000000" d="M58.24411-18.99962C44.00732-26.38011 19.7409-31.92542-5.396-33.54265-26.7229-34.91478-46.17052-33.29213-58.24898-29.13112"/>
<path transform="matrix(1,0,0,-1,89.291,535.7441)" stroke-width=".3985" stroke-linecap="round" stroke-linejoin="round" fill="none" stroke="#000000" d="M81.49268 7.08719C81.49292-6.19954 45.00667-20.14386-.00006-24.05806-45.00682-27.97227-81.49252-20.37396-81.49277-7.08722"/>
<path transform="matrix(1,0,0,-1,89.291,535.7441)" stroke-width=".3985" stroke-linecap="round" stroke-linejoin="round" fill="none" stroke="#000000" d="M58.24686 29.13066C80.25879 21.54793 72.02628 7.86497 39.85661-1.431 7.68695-10.72699-36.23648-12.11653-58.24841-4.5338-74.68831 1.12933-74.68571 10.47679-58.24622 18.99916"/>
<path transform="matrix(1,0,0,-1,89.291,535.7441)" stroke-width=".3985" stroke-linecap="round" stroke-linejoin="round" fill="none" stroke="#000000" d="M-.00041 33.33105C22.50293 35.28816 40.74574 31.489 40.74585 24.84566 40.74596 18.2023 22.50284 11.23012-.0005 9.27301-22.50388 7.31592-40.74669 11.11507-40.7468 17.75842-40.7469 24.40178-22.50378 31.37396-.00041 33.33105"/>
<path transform="matrix(1,0,0,-1,89.291,535.7441)" stroke-width=".3985" stroke-linecap="round" stroke-linejoin="round" fill="none" stroke="#000000" d="M81.5027 7.08841C81.5027 26.09355 45.01326 38.32628 0 34.4114-45.01326 30.49654-81.5027 11.9167-81.5027-7.08841-81.5027-26.09355-45.01326-38.32628 0-34.4114 45.01326-30.49654 81.5027-11.9167 81.5027 7.08841ZM0 0"/>
</g>
<path transform="matrix(1,0,0,-1,89.291,-59.52893)" stroke-width=".3985" stroke-linecap="butt" stroke-miterlimit="10" stroke-linejoin="miter" fill="none" stroke="#000000" d="M0-714.3365"/>
<g clip-path="url(#clip_20)">
<path transform="matrix(1,0,0,-1,89.291,654.7991)" stroke-width=".3985" stroke-linecap="round" stroke-linejoin="round" fill="none" stroke="#000000" d="M75.52145 19.85011C63.57866 31.58536 20.08325 32.21089-21.62605 21.24829-63.33537 10.28568-87.46431-8.11487-75.52151-19.85011"/>
<path transform="matrix(1,0,0,-1,89.291,654.7991)" stroke-width=".3985" stroke-linecap="round" stroke-linejoin="round" fill="none" stroke="#000000" d="M29.35672 35.52455C14.17888 36.74535-11.2691 21.83005-27.48212 2.21059-43.69513-17.40886-44.53455-34.30382-29.35672-35.52461"/>
<path transform="matrix(1,0,0,-1,89.291,654.7991)" stroke-width=".3985" stroke-linecap="round" stroke-linejoin="round" fill="none" stroke="#000000" d="M-15.05156 33.42816C-6.42857 34.88072 7.30093 21.09183 15.61351 2.63028 23.92607-15.83124 23.67458-31.97562 15.05159-33.42819"/>
<path transform="matrix(1,0,0,-1,89.291,654.7991)" stroke-width=".3985" stroke-linecap="round" stroke-linejoin="round" fill="none" stroke="#000000" d="M-62.60374 17.18448C-44.24446 28.33543-1.33147 29.68118 33.24335 20.19069 67.81818 10.70018 80.96301-6.03352 62.60371-17.18448"/>
<path transform="matrix(1,0,0,-1,89.291,654.7991)" stroke-width=".3985" stroke-linecap="round" stroke-linejoin="round" fill="none" stroke="#000000" d="M59.55829-18.94579C38.64667-30.47516-4.9724-37.1358-37.8653-33.8223-46.59587-32.94292-54.01224-31.39885-59.56198-29.30382"/>
<path transform="matrix(1,0,0,-1,89.291,654.7991)" stroke-width=".3985" stroke-linecap="round" stroke-linejoin="round" fill="none" stroke="#000000" d="M81.49268 7.08624C81.49292-6.20108 45.00667-20.14543-.00006-24.05911-45.00682-27.97281-81.49252-20.37361-81.49277-7.08627"/>
<path transform="matrix(1,0,0,-1,89.291,654.7991)" stroke-width=".3985" stroke-linecap="round" stroke-linejoin="round" fill="none" stroke="#000000" d="M59.56078 29.30382C80.47238 21.4107 70.75809 7.68846 37.86343-1.34564 4.9688-10.37975-38.6498-11.3047-59.56139-3.41159-74.24835 2.13205-74.24612 10.84822-59.5595 18.94579"/>
<path transform="matrix(1,0,0,-1,89.291,654.7991)" stroke-width=".3985" stroke-linecap="round" stroke-linejoin="round" fill="none" stroke="#000000" d="M-.00041 34.45296C22.50293 36.40979 40.74574 32.6102 40.74585 25.96655 40.74596 19.3229 22.50284 12.35072-.0005 10.39388-22.50388 8.43703-40.74669 12.23663-40.7468 18.88026-40.7469 25.52391-22.50378 32.49611-.00041 34.45296"/>
<path transform="matrix(1,0,0,-1,89.291,654.7991)" stroke-width=".3985" stroke-linecap="round" stroke-linejoin="round" fill="none" stroke="#000000" d="M81.5027 7.08713C81.5027 26.60968 45.01326 39.26245 0 35.34828-45.01326 31.43413-81.5027 12.43542-81.5027-7.08713-81.5027-26.60968-45.01326-39.26245 0-35.34828 45.01326-31.43413 81.5027-12.43542 81.5027 7.08713ZM0 0"/>
</g>
<path transform="matrix(1,0,0,-1,89.291,-59.52893)" stroke-width=".3985" stroke-linecap="butt" stroke-miterlimit="10" stroke-linejoin="miter" fill="none" stroke="#000000" d="M0-833.3926"/>
<g clip-path="url(#clip_21)">
<path transform="matrix(1,0,0,-1,89.291,773.85409)" stroke-width=".3985" stroke-linecap="round" stroke-linejoin="round" fill="none" stroke="#000000" d="M75.229 20.50288C62.73839 32.77696 18.93011 33.54735-22.61736 22.2242-64.16486 10.90103-87.71962-8.22884-75.229-20.50291"/>
<path transform="matrix(1,0,0,-1,89.291,773.85409)" stroke-width=".3985" stroke-linecap="round" stroke-linejoin="round" fill="none" stroke="#000000" d="M28.67621 36.47469C13.10748 37.72624-12.35213 22.41055-28.18962 2.2661-44.0271-17.87836-44.24493-35.22318-28.67621-36.47472"/>
<path transform="matrix(1,0,0,-1,89.291,773.85409)" stroke-width=".3985" stroke-linecap="round" stroke-linejoin="round" fill="none" stroke="#000000" d="M-14.6667 34.43404C-5.84418 35.92134 7.87476 21.71004 15.97487 2.6929 24.07498-16.32423 23.48924-32.94676 14.6667-34.43407"/>
<path transform="matrix(1,0,0,-1,89.291,773.85409)" stroke-width=".3985" stroke-linecap="round" stroke-linejoin="round" fill="none" stroke="#000000" d="M-61.91039 18.22185C-42.84697 29.80176 .32559 31.03105 34.51753 20.96744 68.70947 10.90384 80.97386-6.64194 61.91045-18.22185"/>
<path transform="matrix(1,0,0,-1,89.291,773.85409)" stroke-width=".3985" stroke-linecap="round" stroke-linejoin="round" fill="none" stroke="#000000" d="M60.66771-18.96146C40.75215-30.58551-2.55473-37.60567-36.06087-34.64105-46.18524-33.74527-54.65205-31.9821-60.66953-29.51633"/>
<path transform="matrix(1,0,0,-1,89.291,773.85409)" stroke-width=".3985" stroke-linecap="round" stroke-linejoin="round" fill="none" stroke="#000000" d="M81.49268 7.08928C81.49292-6.1974 45.00667-20.14261-.00006-24.05795-45.00682-27.97331-81.49252-20.37595-81.49277-7.08925"/>
<path transform="matrix(1,0,0,-1,89.291,773.85409)" stroke-width=".3985" stroke-linecap="round" stroke-linejoin="round" fill="none" stroke="#000000" d="M60.66827 29.51611C80.58235 21.35687 69.56395 7.61375 36.05765-1.18001 2.55133-9.97377-40.75468-10.48828-60.66876-2.32904-73.87553 3.0822-73.87706 11.25208-60.66896 18.96124"/>
<path transform="matrix(1,0,0,-1,89.291,773.85409)" stroke-width=".3985" stroke-linecap="round" stroke-linejoin="round" fill="none" stroke="#000000" d="M-.00041 35.57387C22.50293 37.53154 40.74574 33.73288 40.74585 27.08954 40.74596 20.4462 22.50284 13.47362-.0005 11.51595-22.50388 9.55829-40.74669 13.35693-40.7468 20.00027-40.7469 26.64362-22.50378 33.6162-.00041 35.57387"/>
<path transform="matrix(1,0,0,-1,89.291,773.85409)" stroke-width=".3985" stroke-linecap="round" stroke-linejoin="round" fill="none" stroke="#000000" d="M81.5027 7.09058C81.5027 27.14299 45.01326 40.22371 0 36.30765-45.01326 32.39159-81.5027 12.96182-81.5027-7.09058-81.5027-27.14299-45.01326-40.22371 0-36.30765 45.01326-32.39159 81.5027-12.96182 81.5027 7.09058ZM0 0"/>
</g>
<path transform="matrix(1,0,0,-1,89.291,-59.52893)" stroke-width=".3985" stroke-linecap="butt" stroke-miterlimit="10" stroke-linejoin="miter" fill="none" stroke="#000000" d="M0-952.44869"/>
<g clip-path="url(#clip_22)">
<path transform="matrix(1,0,0,-1,89.291,892.9081)" stroke-width=".3985" stroke-linecap="round" stroke-linejoin="round" fill="none" stroke="#000000" d="M74.9257 21.17838C61.89328 33.98578 17.78174 34.8854-23.59912 23.18918-64.97998 11.49297-87.95818-8.37102-74.92574-21.17844"/>
<path transform="matrix(1,0,0,-1,89.291,892.9081)" stroke-width=".3985" stroke-linecap="round" stroke-linejoin="round" fill="none" stroke="#000000" d="M28.01595 37.44669C12.08458 38.72922-13.37444 23.0032-28.84682 2.32242-44.31918-18.35835-43.94734-36.16415-28.01598-37.44669"/>
<path transform="matrix(1,0,0,-1,89.291,892.9081)" stroke-width=".3985" stroke-linecap="round" stroke-linejoin="round" fill="none" stroke="#000000" d="M-14.29272 35.46216C-5.28487 36.979 8.41684 22.3313 16.31046 2.74637 24.20407-16.83856 23.30064-33.94527 14.29279-35.4621"/>
<path transform="matrix(1,0,0,-1,89.291,892.9081)" stroke-width=".3985" stroke-linecap="round" stroke-linejoin="round" fill="none" stroke="#000000" d="M-61.2041 19.29372C-41.45927 31.28555 1.95016 32.36903 35.75163 21.71355 69.55312 11.05804 80.94899-7.30191 61.20416-19.29375"/>
<path transform="matrix(1,0,0,-1,89.291,892.9081)" stroke-width=".3985" stroke-linecap="round" stroke-linejoin="round" fill="none" stroke="#000000" d="M61.61125-19.0454C42.6004-30.74448-.39536-38.07748-34.4226-35.424-45.82512-34.53499-55.24396-32.5733-61.61395-29.76088"/>
<path transform="matrix(1,0,0,-1,89.291,892.9081)" stroke-width=".3985" stroke-linecap="round" stroke-linejoin="round" fill="none" stroke="#000000" d="M81.49268 7.08672C81.49292-6.20059 45.00667-20.14516-.00006-24.05908-45.00682-27.97302-81.49252-20.37404-81.49277-7.08672"/>
<path transform="matrix(1,0,0,-1,89.291,892.9081)" stroke-width=".3985" stroke-linecap="round" stroke-linejoin="round" fill="none" stroke="#000000" d="M61.613 29.7609C80.62221 21.36766 68.449 7.6154 34.42027-.95586 .39154-9.52715-42.60428-9.67224-61.6135-1.279-73.56093 3.99612-73.56041 11.69241-61.6122 19.04541"/>
<path transform="matrix(1,0,0,-1,89.291,892.9081)" stroke-width=".3985" stroke-linecap="round" stroke-linejoin="round" fill="none" stroke="#000000" d="M-.00041 36.69556C22.50293 38.65251 40.74574 34.85303 40.74585 28.20938 40.74596 21.56573 22.50284 14.59343-.0005 12.63649-22.50388 10.67953-40.74669 14.47902-40.7468 21.12267-40.7469 27.76631-22.50378 34.73862-.00041 36.69556"/>
<path transform="matrix(1,0,0,-1,89.291,892.9081)" stroke-width=".3985" stroke-linecap="round" stroke-linejoin="round" fill="none" stroke="#000000" d="M81.5027 7.088C81.5027 27.68149 45.01326 41.202 0 37.28735-45.01326 33.37273-81.5027 13.5055-81.5027-7.088-81.5027-27.68149-45.01326-41.202 0-37.28735 45.01326-33.37273 81.5027-13.5055 81.5027 7.088ZM0 0"/>
</g>
<path transform="matrix(1,0,0,-1,89.291,-59.52893)" stroke-width=".3985" stroke-linecap="butt" stroke-miterlimit="10" stroke-linejoin="miter" fill="none" stroke="#000000" d="M0-1071.5048"/>
<g clip-path="url(#clip_23)">
<path transform="matrix(1,0,0,-1,89.291,1011.963)" stroke-width=".3985" stroke-linecap="round" stroke-linejoin="round" fill="none" stroke="#000000" d="M75.229 20.5063C62.73839 32.77963 18.93011 33.5479-22.61736 22.22284-64.16486 10.89778-87.71962-8.233-75.229-20.50633"/>
<path transform="matrix(1,0,0,-1,89.291,1011.963)" stroke-width=".3985" stroke-linecap="round" stroke-linejoin="round" fill="none" stroke="#000000" d="M28.67621 36.47565C13.10748 37.72644-12.35213 22.40968-28.18962 2.2647-44.0271-17.88028-44.24493-35.2249-28.67621-36.47568"/>
<path transform="matrix(1,0,0,-1,89.291,1011.963)" stroke-width=".3985" stroke-linecap="round" stroke-linejoin="round" fill="none" stroke="#000000" d="M-14.6667 34.4329C-5.84418 35.92064 7.87476 21.71017 15.97487 2.69368 24.07498-16.32281 23.48924-32.94522 14.6667-34.43294"/>
<path transform="matrix(1,0,0,-1,89.291,1011.963)" stroke-width=".3985" stroke-linecap="round" stroke-linejoin="round" fill="none" stroke="#000000" d="M-61.91039 18.2186C-42.84697 29.79929 .32559 31.03064 34.51753 20.96883 68.70947 10.90701 80.97386-6.63795 61.91045-18.21866"/>
<path transform="matrix(1,0,0,-1,89.291,1011.963)" stroke-width=".3985" stroke-linecap="round" stroke-linejoin="round" fill="none" stroke="#000000" d="M60.66771-18.95825C40.75215-30.58315-2.55473-37.60535-36.06087-34.6424-46.18524-33.74712-54.65205-31.98438-60.66953-29.51892"/>
<path transform="matrix(1,0,0,-1,89.291,1011.963)" stroke-width=".3985" stroke-linecap="round" stroke-linejoin="round" fill="none" stroke="#000000" d="M81.49268 7.09317C81.49292-6.19334 45.00667-20.14015-.00006-24.05765-45.00682-27.97516-81.49252-20.3797-81.49277-7.09317"/>
<path transform="matrix(1,0,0,-1,89.291,1011.963)" stroke-width=".3985" stroke-linecap="round" stroke-linejoin="round" fill="none" stroke="#000000" d="M60.66827 29.5187C80.58235 21.36055 69.56395 7.617 36.05765-1.17827 2.55133-9.97356-40.75468-10.49016-60.66876-2.332-73.87553 3.07854-73.87706 11.24834-60.66896 18.95804"/>
<path transform="matrix(1,0,0,-1,89.291,1011.963)" stroke-width=".3985" stroke-linecap="round" stroke-linejoin="round" fill="none" stroke="#000000" d="M-.00041 35.57344C22.50293 37.53218 40.74574 33.73448 40.74585 27.09122 40.74596 20.44795 22.50284 13.47453-.0005 11.5158-22.50388 9.55705-40.74669 13.35477-40.7468 19.99803-40.7469 26.6413-22.50378 33.6147-.00041 35.57344"/>
<path transform="matrix(1,0,0,-1,89.291,1011.963)" stroke-width=".3985" stroke-linecap="round" stroke-linejoin="round" fill="none" stroke="#000000" d="M81.5027 7.09447C81.5027 27.14665 45.01326 40.22545 0 36.30722-45.01326 32.389-81.5027 12.9577-81.5027-7.09447-81.5027-27.14665-45.01326-40.22545 0-36.30722 45.01326-32.389 81.5027-12.9577 81.5027 7.09447ZM0 0"/>
</g>
<path transform="matrix(1,0,0,-1,89.291,-59.52893)" stroke-width=".3985" stroke-linecap="butt" stroke-miterlimit="10" stroke-linejoin="miter" fill="none" stroke="#000000" d="M0-1190.5608"/>
<g clip-path="url(#clip_24)">
<path transform="matrix(1,0,0,-1,89.291,1131.0171)" stroke-width=".3985" stroke-linecap="round" stroke-linejoin="round" fill="none" stroke="#000000" d="M75.52145 19.85011C63.57866 31.58536 20.08325 32.21089-21.62605 21.24829-63.33537 10.28568-87.46431-8.11487-75.52151-19.85011"/>
<path transform="matrix(1,0,0,-1,89.291,1131.0171)" stroke-width=".3985" stroke-linecap="round" stroke-linejoin="round" fill="none" stroke="#000000" d="M29.35672 35.52455C14.17888 36.74535-11.2691 21.83005-27.48212 2.21059-43.69513-17.40886-44.53455-34.30382-29.35672-35.52461"/>
<path transform="matrix(1,0,0,-1,89.291,1131.0171)" stroke-width=".3985" stroke-linecap="round" stroke-linejoin="round" fill="none" stroke="#000000" d="M-15.05156 33.42816C-6.42857 34.88072 7.30093 21.09183 15.61351 2.63028 23.92607-15.83124 23.67458-31.97562 15.05159-33.42819"/>
<path transform="matrix(1,0,0,-1,89.291,1131.0171)" stroke-width=".3985" stroke-linecap="round" stroke-linejoin="round" fill="none" stroke="#000000" d="M-62.60374 17.18448C-44.24446 28.33543-1.33147 29.68118 33.24335 20.19069 67.81818 10.70018 80.96301-6.03352 62.60371-17.18448"/>
<path transform="matrix(1,0,0,-1,89.291,1131.0171)" stroke-width=".3985" stroke-linecap="round" stroke-linejoin="round" fill="none" stroke="#000000" d="M59.55829-18.94579C38.64667-30.47516-4.9724-37.1358-37.8653-33.8223-46.59587-32.94292-54.01224-31.39885-59.56198-29.30382"/>
<path transform="matrix(1,0,0,-1,89.291,1131.0171)" stroke-width=".3985" stroke-linecap="round" stroke-linejoin="round" fill="none" stroke="#000000" d="M81.49268 7.08624C81.49292-6.20108 45.00667-20.14543-.00006-24.05911-45.00682-27.97281-81.49252-20.37361-81.49277-7.08627"/>
<path transform="matrix(1,0,0,-1,89.291,1131.0171)" stroke-width=".3985" stroke-linecap="round" stroke-linejoin="round" fill="none" stroke="#000000" d="M59.56078 29.30382C80.47238 21.4107 70.75809 7.68846 37.86343-1.34564 4.9688-10.37975-38.6498-11.3047-59.56139-3.41159-74.24835 2.13205-74.24612 10.84822-59.5595 18.94579"/>
<path transform="matrix(1,0,0,-1,89.291,1131.0171)" stroke-width=".3985" stroke-linecap="round" stroke-linejoin="round" fill="none" stroke="#000000" d="M-.00041 34.45296C22.50293 36.40979 40.74574 32.6102 40.74585 25.96655 40.74596 19.3229 22.50284 12.35072-.0005 10.39388-22.50388 8.43703-40.74669 12.23663-40.7468 18.88026-40.7469 25.52391-22.50378 32.49611-.00041 34.45296"/>
<path transform="matrix(1,0,0,-1,89.291,1131.0171)" stroke-width=".3985" stroke-linecap="round" stroke-linejoin="round" fill="none" stroke="#000000" d="M81.5027 7.08713C81.5027 26.60968 45.01326 39.26245 0 35.34828-45.01326 31.43413-81.5027 12.43542-81.5027-7.08713-81.5027-26.60968-45.01326-39.26245 0-35.34828 45.01326-31.43413 81.5027-12.43542 81.5027 7.08713ZM0 0"/>
</g>
<path transform="matrix(1,0,0,-1,89.291,-59.52893)" stroke-width=".3985" stroke-linecap="butt" stroke-miterlimit="10" stroke-linejoin="miter" fill="none" stroke="#000000" d="M0-1309.617"/>
<g clip-path="url(#clip_25)">
<path transform="matrix(1,0,0,-1,89.291,1250.072)" stroke-width=".3985" stroke-linecap="round" stroke-linejoin="round" fill="none" stroke="#000000" d="M75.80075 19.22664C64.41176 30.41588 21.2424 30.8784-20.62154 20.25977-62.48549 9.64111-87.18983-8.03735-75.80084-19.22661"/>
<path transform="matrix(1,0,0,-1,89.291,1250.072)" stroke-width=".3985" stroke-linecap="round" stroke-linejoin="round" fill="none" stroke="#000000" d="M30.04823 34.5942C15.29012 35.7819-10.12718 21.25584-26.72249 2.1501-43.31778-16.95563-44.80643-33.40651-30.0483-34.59422"/>
<path transform="matrix(1,0,0,-1,89.291,1250.072)" stroke-width=".3985" stroke-linecap="round" stroke-linejoin="round" fill="none" stroke="#000000" d="M-15.44537 32.43906C-7.03783 33.85443 6.69302 20.47807 15.22334 2.5625 23.75366-15.35306 23.85295-31.02364 15.4454-32.43903"/>
<path transform="matrix(1,0,0,-1,89.291,1250.072)" stroke-width=".3985" stroke-linecap="round" stroke-linejoin="round" fill="none" stroke="#000000" d="M-63.28621 16.17299C-45.65593 26.88214-3.02959 28.3225 31.92271 19.39044 66.87503 10.45837 80.91652-5.46382 63.28624-16.17299"/>
<path transform="matrix(1,0,0,-1,89.291,1250.072)" stroke-width=".3985" stroke-linecap="round" stroke-linejoin="round" fill="none" stroke="#000000" d="M58.24411-18.99931C44.00732-26.37973 19.7409-31.92499-5.396-33.54222-26.7229-34.91438-46.17052-33.29173-58.24898-29.13078"/>
<path transform="matrix(1,0,0,-1,89.291,1250.072)" stroke-width=".3985" stroke-linecap="round" stroke-linejoin="round" fill="none" stroke="#000000" d="M81.49268 7.08719C81.49292-6.19937 45.00667-20.14357-.00006-24.05775-45.00682-27.97195-81.49252-20.37376-81.49277-7.08719"/>
<path transform="matrix(1,0,0,-1,89.291,1250.072)" stroke-width=".3985" stroke-linecap="round" stroke-linejoin="round" fill="none" stroke="#000000" d="M58.24686 29.13036C80.25879 21.54773 72.02628 7.86496 39.85661-1.43094 7.68695-10.72685-36.23648-12.1164-58.24841-4.53377-74.68831 1.12929-74.68571 10.47661-58.24622 18.99889"/>
<path transform="matrix(1,0,0,-1,89.291,1250.072)" stroke-width=".3985" stroke-linecap="round" stroke-linejoin="round" fill="none" stroke="#000000" d="M-.00041 33.33064C22.50293 35.28773 40.74574 31.48866 40.74585 24.84538 40.74596 18.2021 22.50284 11.23-.0005 9.2729-22.50388 7.31583-40.74669 11.1149-40.7468 17.75818-40.7469 24.40146-22.50378 31.37357-.00041 33.33064"/>
<path transform="matrix(1,0,0,-1,89.291,1250.072)" stroke-width=".3985" stroke-linecap="round" stroke-linejoin="round" fill="none" stroke="#000000" d="M81.5027 7.08841C81.5027 26.09332 45.01326 38.32585 0 34.41098-45.01326 30.49611-81.5027 11.91647-81.5027-7.08841-81.5027-26.09332-45.01326-38.32585 0-34.41098 45.01326-30.49611 81.5027-11.91647 81.5027 7.08841ZM0 0"/>
</g>
<path transform="matrix(1,0,0,-1,89.291,-59.52893)" stroke-width=".3985" stroke-linecap="butt" stroke-miterlimit="10" stroke-linejoin="miter" fill="none" stroke="#000000" d="M0-1428.673"/>
<g clip-path="url(#clip_26)">
<path transform="matrix(1,0,0,-1,89.291,1369.1261)" stroke-width=".3985" stroke-linecap="round" stroke-linejoin="round" fill="none" stroke="#000000" d="M76.06929 18.63733C65.2413 29.27554 22.40518 29.55536-19.6062 19.26239-61.6176 8.96942-86.89731-7.99915-76.06932-18.63736"/>
<path transform="matrix(1,0,0,-1,89.291,1369.1261)" stroke-width=".3985" stroke-linecap="round" stroke-linejoin="round" fill="none" stroke="#000000" d="M30.75146 33.69405C16.44128 34.84497-8.92691 20.6928-25.91064 2.08391-42.89436-16.52495-45.06165-32.54314-30.75146-33.69405"/>
<path transform="matrix(1,0,0,-1,89.291,1369.1261)" stroke-width=".3985" stroke-linecap="round" stroke-linejoin="round" fill="none" stroke="#000000" d="M-15.85072 31.4752C-7.67616 32.85283 6.04774 19.87726 14.80177 2.49432 23.5558-14.88861 24.02539-30.09753 15.85081-31.47517"/>
<path transform="matrix(1,0,0,-1,89.291,1369.1261)" stroke-width=".3985" stroke-linecap="round" stroke-linejoin="round" fill="none" stroke="#000000" d="M-63.95032 15.19357C-47.06851 25.44807-4.75041 26.95813 30.56854 18.56718 65.88751 10.17624 80.83217-4.93906 63.95035-15.19354"/>
<path transform="matrix(1,0,0,-1,89.291,1369.1261)" stroke-width=".3985" stroke-linecap="round" stroke-linejoin="round" fill="none" stroke="#000000" d="M56.67001-19.13731C41.64326-26.42113 16.95152-31.72717-8.09392-33.05403-27.46046-34.08006-45.05289-32.61252-56.67212-29.00307"/>
<path transform="matrix(1,0,0,-1,89.291,1369.1261)" stroke-width=".3985" stroke-linecap="round" stroke-linejoin="round" fill="none" stroke="#000000" d="M81.49268 7.09378C81.49292-6.19205 45.00667-20.1386-.00006-24.05644-45.00682-27.97427-81.49252-20.37962-81.49277-7.09378"/>
<path transform="matrix(1,0,0,-1,89.291,1369.1261)" stroke-width=".3985" stroke-linecap="round" stroke-linejoin="round" fill="none" stroke="#000000" d="M56.67006 29.0026C79.90155 21.78581 73.36145 8.16705 42.06361-1.4152 10.76576-10.99748-33.44011-12.9149-56.67159-5.69812-75.2089 .06055-75.21027 10.15071-56.67207 19.13684"/>
<path transform="matrix(1,0,0,-1,89.291,1369.1261)" stroke-width=".3985" stroke-linecap="round" stroke-linejoin="round" fill="none" stroke="#000000" d="M-.00041 32.21117C22.50293 34.17007 40.74574 30.37277 40.74585 23.72986 40.74596 17.08694 22.50284 10.11368-.0005 8.15475-22.50388 6.19585-40.74669 9.99315-40.7468 16.63606-40.7469 23.27898-22.50378 30.25224-.00041 32.21117"/>
<path transform="matrix(1,0,0,-1,89.291,1369.1261)" stroke-width=".3985" stroke-linecap="round" stroke-linejoin="round" fill="none" stroke="#000000" d="M81.5027 7.09491C81.5027 25.59528 45.01326 37.41592 0 33.49747-45.01326 29.579-81.5027 11.40544-81.5027-7.09491-81.5027-25.59528-45.01326-37.41592 0-33.49747 45.01326-29.579 81.5027-11.40544 81.5027 7.09491ZM0 0"/>
</g>
<path transform="matrix(1,0,0,-1,89.291,-59.52893)" stroke-width=".3985" stroke-linecap="butt" stroke-miterlimit="10" stroke-linejoin="miter" fill="none" stroke="#000000" d="M0-1547.729"/>
<g clip-path="url(#clip_27)">
<path transform="matrix(1,0,0,-1,89.291,1488.181)" stroke-width=".3985" stroke-linecap="round" stroke-linejoin="round" fill="none" stroke="#000000" d="M76.32582 18.07661C66.06482 28.15665 23.57394 28.2345-18.58008 18.25111-60.73412 8.26773-86.58682-7.9966-76.32582-18.07661"/>
<path transform="matrix(1,0,0,-1,89.291,1488.181)" stroke-width=".3985" stroke-linecap="round" stroke-linejoin="round" fill="none" stroke="#000000" d="M31.46448 32.81764C17.63599 33.92833-7.66226 20.13533-25.0393 2.011-42.41635-16.11331-45.29301-31.70699-31.46451-32.81767"/>
<path transform="matrix(1,0,0,-1,89.291,1488.181)" stroke-width=".3985" stroke-linecap="round" stroke-linejoin="round" fill="none" stroke="#000000" d="M-16.26408 30.53113C-8.34169 31.86644 5.3627 19.27928 14.34506 2.41759 23.32742-14.44408 24.18652-29.19585 16.26411-30.53116"/>
<path transform="matrix(1,0,0,-1,89.291,1488.181)" stroke-width=".3985" stroke-linecap="round" stroke-linejoin="round" fill="none" stroke="#000000" d="M-64.60472 14.24442C-48.49951 24.02965-6.51778 25.58434 29.16243 17.71759 64.84267 9.85086 80.70993-4.4592 64.60472-14.24445"/>
<path transform="matrix(1,0,0,-1,89.291,1488.181)" stroke-width=".3985" stroke-linecap="round" stroke-linejoin="round" fill="none" stroke="#000000" d="M54.7463-19.38077C38.83719-26.5398 13.69363-31.56073-11.19751-32.54935-28.30476-33.22887-43.81549-31.93681-54.74901-28.92209"/>
<path transform="matrix(1,0,0,-1,89.291,1488.181)" stroke-width=".3985" stroke-linecap="round" stroke-linejoin="round" fill="none" stroke="#000000" d="M81.49268 7.10141C81.49292-6.18376 45.00667-20.13318-.00006-24.05524-45.00682-27.97731-81.49252-20.38664-81.49277-7.10144"/>
<path transform="matrix(1,0,0,-1,89.291,1488.181)" stroke-width=".3985" stroke-linecap="round" stroke-linejoin="round" fill="none" stroke="#000000" d="M54.74771 28.92192C79.34407 22.14009 74.77246 8.62015 44.53629-1.27509 14.30011-11.17035-30.1522-13.69455-54.74857-6.9127-75.8509-1.09433-75.85019 9.88449-54.7476 19.3806"/>
<path transform="matrix(1,0,0,-1,89.291,1488.181)" stroke-width=".3985" stroke-linecap="round" stroke-linejoin="round" fill="none" stroke="#000000" d="M-.00041 31.08861C22.50293 33.04962 40.74574 29.2543 40.74585 22.61171 40.74596 15.9691 22.50284 8.99442-.0005 7.03339-22.50388 5.07236-40.74669 8.86769-40.7468 15.51028-40.7469 22.15288-22.50378 29.12758-.00041 31.08861"/>
<path transform="matrix(1,0,0,-1,89.291,1488.181)" stroke-width=".3985" stroke-linecap="round" stroke-linejoin="round" fill="none" stroke="#000000" d="M81.5027 7.10226C81.5027 25.1122 45.01326 36.53197 0 32.60945-45.01326 28.68694-81.5027 10.90765-81.5027-7.10226-81.5027-25.1122-45.01326-36.53197 0-32.60945 45.01326-28.68694 81.5027-10.90765 81.5027 7.10226ZM0 0"/>
</g>
<path transform="matrix(1,0,0,-1,89.291,-59.52893)" stroke-width=".3985" stroke-linecap="butt" stroke-miterlimit="10" stroke-linejoin="miter" fill="none" stroke="#000000" d="M0-1666.7852"/>
<g clip-path="url(#clip_28)">
<path transform="matrix(1,0,0,-1,89.291,1607.2351)" stroke-width=".3985" stroke-linecap="round" stroke-linejoin="round" fill="none" stroke="#000000" d="M76.57274 17.53596C66.88353 27.05379 24.74504 26.91835-17.54443 17.23367-59.83391 7.549-86.26201-8.01814-76.5728-17.53596"/>
<path transform="matrix(1,0,0,-1,89.291,1607.2351)" stroke-width=".3985" stroke-linecap="round" stroke-linejoin="round" fill="none" stroke="#000000" d="M32.18794 31.96866C18.8755 33.03986-6.32762 19.59488-24.10475 1.93909-41.88188-15.7167-45.5004-30.89743-32.18794-31.96863"/>
<path transform="matrix(1,0,0,-1,89.291,1607.2351)" stroke-width=".3985" stroke-linecap="round" stroke-linejoin="round" fill="none" stroke="#000000" d="M-16.68636 29.61935C-9.0363 30.90823 4.63599 18.69199 13.85165 2.33362 23.06732-14.02473 24.33643-28.33049 16.68639-29.61935"/>
<path transform="matrix(1,0,0,-1,89.291,1607.2351)" stroke-width=".3985" stroke-linecap="round" stroke-linejoin="round" fill="none" stroke="#000000" d="M-65.23856 13.34366C-49.9305 22.64297-8.31221 24.20697 27.71846 16.83757 63.74915 9.46817 80.54659-4.04436 65.23853-13.34366"/>
<path transform="matrix(1,0,0,-1,89.291,1607.2351)" stroke-width=".3985" stroke-linecap="round" stroke-linejoin="round" fill="none" stroke="#000000" d="M52.35876-19.76651C35.45425-26.75975 9.8466-31.43025-14.8024-32.0165-29.28368-32.36076-42.42915-31.26582-52.35939-28.8871"/>
<path transform="matrix(1,0,0,-1,89.291,1607.2351)" stroke-width=".3985" stroke-linecap="round" stroke-linejoin="round" fill="none" stroke="#000000" d="M81.49268 7.09807C81.49292-6.18747 45.00667-20.13567-.00006-24.05586-45.00682-27.97606-81.49252-20.38359-81.49277-7.09804"/>
<path transform="matrix(1,0,0,-1,89.291,1607.2351)" stroke-width=".3985" stroke-linecap="round" stroke-linejoin="round" fill="none" stroke="#000000" d="M52.35855 28.88669C78.49356 22.62685 76.23853 9.25655 47.32092-.97697 18.40332-11.21053-26.22507-14.43204-52.36008-8.1722-76.64496-2.35568-76.64566 9.7191-52.3596 19.76611"/>
<path transform="matrix(1,0,0,-1,89.291,1607.2351)" stroke-width=".3985" stroke-linecap="round" stroke-linejoin="round" fill="none" stroke="#000000" d="M-.00041 29.9677C22.50293 31.9278 40.74574 28.13155 40.74585 21.48878 40.74596 14.84602 22.50284 7.87192-.0005 5.91182-22.50388 3.95172-40.74669 7.74797-40.7468 14.39073-40.7469 21.0335-22.50378 28.0076-.00041 29.9677"/>
<path transform="matrix(1,0,0,-1,89.291,1607.2351)" stroke-width=".3985" stroke-linecap="round" stroke-linejoin="round" fill="none" stroke="#000000" d="M81.5027 7.09923C81.5027 24.63449 45.01326 35.67084 0 31.75002-45.01326 27.82918-81.5027 10.43604-81.5027-7.09923-81.5027-24.63449-45.01326-35.67084 0-31.75002 45.01326-27.82918 81.5027-10.43604 81.5027 7.09923ZM0 0"/>
</g>
<path transform="matrix(1,0,0,-1,89.291,-59.52893)" stroke-width=".3985" stroke-linecap="butt" stroke-miterlimit="10" stroke-linejoin="miter" fill="none" stroke="#000000" d="M0-1785.8412"/>
<g clip-path="url(#clip_29)">
<path transform="matrix(1,0,0,-1,89.291,1726.29)" stroke-width=".3985" stroke-linecap="round" stroke-linejoin="round" fill="none" stroke="#000000" d="M76.8065 17.0263C67.69865 25.97699 25.92702 25.60985-16.49193 16.2066-58.9109 6.80336-85.91437-8.0756-76.80653-17.0263"/>
<path transform="matrix(1,0,0,-1,89.291,1726.29)" stroke-width=".3985" stroke-linecap="round" stroke-linejoin="round" fill="none" stroke="#000000" d="M32.91203 31.15013C20.15123 32.17673-4.92917 19.06233-23.10577 1.8588-41.28236-15.34471-45.6728-30.12355-32.912-31.15013"/>
<path transform="matrix(1,0,0,-1,89.291,1726.29)" stroke-width=".3985" stroke-linecap="round" stroke-linejoin="round" fill="none" stroke="#000000" d="M-17.11623 28.73674C-9.76135 29.97752 3.8646 18.11702 13.31754 2.24643 22.77048-13.62415 24.47112-27.49591 17.11626-28.73671"/>
<path transform="matrix(1,0,0,-1,89.291,1726.29)" stroke-width=".3985" stroke-linecap="round" stroke-linejoin="round" fill="none" stroke="#000000" d="M-65.85074 12.47751C-51.36687 21.27725-10.14227 22.8245 26.22585 15.93344 62.59398 9.0424 80.33461-3.67775 65.85074-12.47751"/>
<path transform="matrix(1,0,0,-1,89.291,1726.29)" stroke-width=".3985" stroke-linecap="round" stroke-linejoin="round" fill="none" stroke="#000000" d="M49.32378-20.3154C21.90182-30.61334-21.9045-34.42848-49.32468-28.9072"/>
<path transform="matrix(1,0,0,-1,89.291,1726.29)" stroke-width=".3985" stroke-linecap="round" stroke-linejoin="round" fill="none" stroke="#000000" d="M81.49268 7.0982C81.49292-6.18771 45.00667-20.1363-.00006-24.05658-45.00682-27.97685-81.49252-20.38414-81.49277-7.0982"/>
<path transform="matrix(1,0,0,-1,89.291,1726.29)" stroke-width=".3985" stroke-linecap="round" stroke-linejoin="round" fill="none" stroke="#000000" d="M49.32378 28.90706C77.20139 23.29372 77.71878 10.14836 50.47769-.45383 23.2366-11.05605-21.44643-15.10078-49.32404-9.48744-67.35489-5.85667-74.62053 1.15894-68.378 8.9131-65.1742 12.89247-58.57939 16.83975-49.32468 20.31526"/>
<path transform="matrix(1,0,0,-1,89.291,1726.29)" stroke-width=".3985" stroke-linecap="round" stroke-linejoin="round" fill="none" stroke="#000000" d="M-.00041 28.84657C22.50293 30.8067 40.74574 27.01033 40.74585 20.36739 40.74596 13.72444 22.50284 6.75014-.0005 4.79001-22.50388 2.82988-40.74669 6.62625-40.7468 13.2692-40.7469 19.91214-22.50378 26.88644-.00041 28.84657"/>
<path transform="matrix(1,0,0,-1,89.291,1726.29)" stroke-width=".3985" stroke-linecap="round" stroke-linejoin="round" fill="none" stroke="#000000" d="M81.5027 7.09923C81.5027 24.17654 45.01326 34.84166 0 30.92084-45.01326 27-81.5027 9.97809-81.5027-7.09923-81.5027-24.17654-45.01326-34.84166 0-30.92084 45.01326-27 81.5027-9.97809 81.5027 7.09923ZM0 0"/>
</g>
</svg>
