<svg xmlns="http://www.w3.org/2000/svg" xmlns:xlink="http://www.w3.org/1999/xlink" version="1.1" width="178.582" height="1785.816" viewBox="0 0 178.582 1785.816">
<defs>
<clipPath id="clip_0">
<path transform="matrix(1,0,0,-1,0,119.05206)" d="M0 0H178.582V119.053H0Z"/>
</clipPath>
<clipPath id="clip_1">
<path transform="matrix(1,0,0,-1,0,238.10706)" d="M0 0H178.582V119.053H0Z"/>
</clipPath>
<clipPath id="clip_2">
<path transform="matrix(1,0,0,-1,0,357.16108)" d="M0 0H178.582V119.053H0Z"/>
</clipPath>
<clipPath id="clip_3">
<path transform="matrix(1,0,0,-1,0,476.21607)" d="M0 0H178.582V119.053H0Z"/>
</clipPath>
<clipPath id="clip_4">
<path transform="matrix(1,0,0,-1,0,595.2701)" d="M0 0H178.582V119.053H0Z"/>
</clipPath>
<clipPath id="clip_5">
<path transform="matrix(1,0,0,-1,0,714.3251)" d="M0 0H178.582V119.053H0Z"/>
</clipPath>
<clipPath id="clip_6">
<path transform="matrix(1,0,0,-1,0,833.38009)" d="M0 0H178.582V119.053H0Z"/>
</clipPath>
<clipPath id="clip_7">
<path transform="matrix(1,0,0,-1,0,952.4341)" d="M0 0H178.582V119.053H0Z"/>
</clipPath>
<clipPath id="clip_8">
<path transform="matrix(1,0,0,-1,0,1071.489)" d="M0 0H178.582V119.053H0Z"/>
</clipPath>
<clipPath id="clip_9">
<path transform="matrix(1,0,0,-1,0,1190.5431)" d="M0 0H178.582V119.053H0Z"/>
</clipPath>
<clipPath id="clip_10">
<path transform="matrix(1,0,0,-1,0,1309.598)" d="M0 0H178.582V119.053H0Z"/>
</clipPath>
<clipPath id="clip_11">
<path transform="matrix(1,0,0,-1,0,1428.6521)" d="M0 0H178.582V119.053H0Z"/>
</clipPath>
<clipPath id="clip_12">
<path transform="matrix(1,0,0,-1,0,1547.707)" d="M0 0H178.582V119.053H0Z"/>
</clipPath>
<clipPath id="clip_13">
<path transform="matrix(1,0,0,-1,0,1666.7611)" d="M0 0H178.582V119.053H0Z"/>
</clipPath>
<clipPath id="clip_14">
<path transform="matrix(1,0,0,-1,0,1785.816)" d="M0 0H178.582V119.053H0Z"/>
</clipPath>
</defs>
<path transform="matrix(1,0,0,-1,89.291,-59.52893)" stroke-width=".3985" stroke-linecap="butt" stroke-miterlimit="10" stroke-linejoin="miter" fill="none" stroke="#000000" d="M0-119.05606"/>
<g clip-path="url(#clip_0)">
<path transform="matrix(1,0,0,-1,89.291,59.526063)" d="M81.5027 7.09923C81.5027 24.17654 45.01326 34.84166 0 30.92084-45.01326 27-81.5027 9.97809-81.5027-7.09923-81.5027-24.17654-45.01326-34.84166 0-30.92084 45.01326-27 81.5027-9.97809 81.5027 7.09923ZM0 0" fill="#e6e8e9"/>
<path transform="matrix(1,0,0,-1,89.291,59.526063)" stroke-width=".3985" stroke-linecap="round" stroke-linejoin="round" fill="none" stroke="#c0c0c0" d="M-76.8065-17.02641C-67.69865-25.97737-25.92702-25.61037 16.49193-16.20708 58.9109-6.80379 85.91437 8.07544 76.80653 17.02641"/>
<path transform="matrix(1,0,0,-1,89.291,59.526063)" stroke-width=".3985" stroke-linecap="round" stroke-linejoin="round" fill="none" stroke="#c0c0c0" d="M-32.91014-31.15047C-20.14812-32.17624 4.9323-19.06068 23.10828-1.8568 41.28426 15.34709 45.67224 30.12474 32.9102 31.1505"/>
<path transform="matrix(1,0,0,-1,89.291,59.526063)" stroke-width=".3985" stroke-linecap="round" stroke-linejoin="round" fill="none" stroke="#c0c0c0" d="M17.11623-28.73701C9.76135-29.97803-3.8646-18.11755-13.31754-2.24681-22.77048 13.62392-24.47112 27.49602-17.11626 28.73701"/>
<path transform="matrix(1,0,0,-1,89.291,59.526063)" stroke-width=".3985" stroke-linecap="round" stroke-linejoin="round" fill="none" stroke="#c0c0c0" d="M65.85074-12.47769C51.36687-21.2777 10.14227-22.82504-26.22585-15.9339-62.59398-9.04276-80.33461 3.67767-65.85074 12.47769"/>
<path transform="matrix(1,0,0,-1,89.291,59.526063)" stroke-width=".3985" stroke-linecap="round" stroke-linejoin="round" fill="none" stroke="#c0c0c0" d="M.00041-28.847C22.50378-26.88687 40.7469-19.91257 40.7468-13.26962 40.74669-6.62668 22.50388-2.8303 .0005-4.79044-22.50284-6.75056-40.74596-13.72487-40.74585-20.36781-40.74574-27.01076-22.50293-30.80711 .00041-28.847"/>
<path transform="matrix(1,0,0,-1,89.291,59.526063)" stroke-width=".3985" stroke-linecap="round" stroke-linejoin="round" fill="none" stroke="#c0c0c0" d="M49.32378-20.31564C77.20328-9.8459 77.71996 3.39001 50.47945 9.24733 23.23895 15.10463-21.44582 11.365-49.32532 .89526-67.35779-5.87672-74.62325-14.15894-68.37961-20.82542-65.17479-24.24675-58.57805-27.04413-49.32468-28.90744"/>
<path transform="matrix(1,0,0,-1,89.291,59.526063)" stroke-width=".3985" stroke-linecap="round" stroke-linejoin="round" fill="none" stroke="#c0c0c0" d="M81.49268 7.0982C81.49243 20.38414 45.00673 27.97685 0 24.05658-45.00676 20.1363-81.49301 6.18771-81.49277-7.0982"/>
<path transform="matrix(1,0,0,-1,89.291,59.526063)" stroke-width=".3985" stroke-linecap="round" stroke-linejoin="round" fill="none" stroke="#c0c0c0" d="M49.32378 28.9073C21.90358 34.42859-21.90274 30.61345-49.32468 20.3155"/>
</g>
<path transform="matrix(1,0,0,-1,89.291,-59.52893)" stroke-width=".3985" stroke-linecap="butt" stroke-miterlimit="10" stroke-linejoin="miter" fill="none" stroke="#000000" d="M0-238.11215"/>
<g clip-path="url(#clip_1)">
<path transform="matrix(1,0,0,-1,89.291,178.58106)" d="M81.5027 7.09578C81.5027 24.63152 45.01326 35.66982 0 31.75087-45.01326 27.83194-81.5027 10.43996-81.5027-7.09578-81.5027-24.63152-45.01326-35.66982 0-31.75087 45.01326-27.83194 81.5027-10.43996 81.5027 7.09578ZM0 0" fill="#e6e8e9"/>
<path transform="matrix(1,0,0,-1,89.291,178.58106)" stroke-width=".3985" stroke-linecap="round" stroke-linejoin="round" fill="none" stroke="#c0c0c0" d="M-76.57274-17.53299C-66.88353-27.0515-24.74504-26.91795 17.54443-17.2349 59.83391-7.55185 86.26201 8.01453 76.5728 17.53302"/>
<path transform="matrix(1,0,0,-1,89.291,178.58106)" stroke-width=".3985" stroke-linecap="round" stroke-linejoin="round" fill="none" stroke="#c0c0c0" d="M-32.18794-31.96808C-18.8755-33.0399 6.32762-19.59569 24.10475-1.9402 41.88188 15.71527 45.5004 30.89624 32.18794 31.96805"/>
<path transform="matrix(1,0,0,-1,89.291,178.58106)" stroke-width=".3985" stroke-linecap="round" stroke-linejoin="round" fill="none" stroke="#c0c0c0" d="M16.68636-29.62091C9.0363-30.90947-4.63599-18.6923-13.85165-2.33307-23.06732 14.02614-24.33643 28.33235-16.68639 29.62091"/>
<path transform="matrix(1,0,0,-1,89.291,178.58106)" stroke-width=".3985" stroke-linecap="round" stroke-linejoin="round" fill="none" stroke="#c0c0c0" d="M65.23856-13.34695C49.9305-22.64581 8.31221-24.20802-27.71846-16.83679-63.74915-9.46556-80.54659 4.04808-65.23853 13.34695"/>
<path transform="matrix(1,0,0,-1,89.291,178.58106)" stroke-width=".3985" stroke-linecap="round" stroke-linejoin="round" fill="none" stroke="#c0c0c0" d="M.00041-29.96852C22.50378-28.00938 40.7469-21.0359 40.7468-14.39294 40.74669-7.75 22.50388-3.95285 .0005-5.912-22.50284-7.87114-40.74596-14.84462-40.74585-21.48756-40.74574-28.13051-22.50293-31.92766 .00041-29.96852"/>
<path transform="matrix(1,0,0,-1,89.291,178.58106)" stroke-width=".3985" stroke-linecap="round" stroke-linejoin="round" fill="none" stroke="#c0c0c0" d="M52.35876-19.76941C78.49414-8.95804 76.23949 4.02045 47.32309 9.21815 18.40668 14.41586-26.22354 9.86485-52.35892-.9465-76.64497-10.99268-76.64427-23.06781-52.35939-28.88556"/>
<path transform="matrix(1,0,0,-1,89.291,178.58106)" stroke-width=".3985" stroke-linecap="round" stroke-linejoin="round" fill="none" stroke="#c0c0c0" d="M81.49268 7.0946C81.49243 20.38051 45.00673 27.97481 0 24.05653-45.00676 20.13824-81.49301 6.19128-81.49277-7.0946"/>
<path transform="matrix(1,0,0,-1,89.291,178.58106)" stroke-width=".3985" stroke-linecap="round" stroke-linejoin="round" fill="none" stroke="#c0c0c0" d="M52.35855 28.88513C35.45505 32.9349 9.84682 33.14616-14.80324 29.43918-29.28503 27.2611-42.42857 23.87718-52.3596 19.76898"/>
</g>
<path transform="matrix(1,0,0,-1,89.291,-59.52893)" stroke-width=".3985" stroke-linecap="butt" stroke-miterlimit="10" stroke-linejoin="miter" fill="none" stroke="#000000" d="M0-357.16825"/>
<g clip-path="url(#clip_2)">
<path transform="matrix(1,0,0,-1,89.291,297.63508)" d="M81.5027 7.10226C81.5027 25.11244 45.01326 36.53241 0 32.6099-45.01326 28.68738-81.5027 10.9079-81.5027-7.10226-81.5027-25.11244-45.01326-36.53241 0-32.6099 45.01326-28.68738 81.5027-10.9079 81.5027 7.10226ZM0 0" fill="#e6e8e9"/>
<path transform="matrix(1,0,0,-1,89.291,297.63508)" stroke-width=".3985" stroke-linecap="round" stroke-linejoin="round" fill="none" stroke="#c0c0c0" d="M-76.32582-18.07664C-66.06482-28.15654-23.57394-28.23427 18.58008-18.25089 60.73412-8.2675 86.58682 7.99677 76.32582 18.07664"/>
<path transform="matrix(1,0,0,-1,89.291,297.63508)" stroke-width=".3985" stroke-linecap="round" stroke-linejoin="round" fill="none" stroke="#c0c0c0" d="M-31.46448-32.81772C-17.63599-33.92822 7.66226-20.13504 25.0393-2.01067 42.41635 16.1137 45.29301 31.70724 31.46451 32.81775"/>
<path transform="matrix(1,0,0,-1,89.291,297.63508)" stroke-width=".3985" stroke-linecap="round" stroke-linejoin="round" fill="none" stroke="#c0c0c0" d="M16.26408-30.53122C8.34169-31.86633-5.3627-19.27898-14.34506-2.41724-23.32742 14.44447-24.18652 29.1961-16.26411 30.53122"/>
<path transform="matrix(1,0,0,-1,89.291,297.63508)" stroke-width=".3985" stroke-linecap="round" stroke-linejoin="round" fill="none" stroke="#c0c0c0" d="M64.60472-14.24448C48.49951-24.02957 6.51778-25.58412-29.16243-17.71735-64.84267-9.85059-80.70993 4.45937-64.60472 14.24448"/>
<path transform="matrix(1,0,0,-1,89.291,297.63508)" stroke-width=".3985" stroke-linecap="round" stroke-linejoin="round" fill="none" stroke="#c0c0c0" d="M.00041-31.08858C22.50378-29.12755 40.7469-22.15279 40.7468-15.51012 40.74669-8.86745 22.50388-5.07202 .0005-7.03305-22.50284-8.99408-40.74596-15.96884-40.74585-22.61151-40.74574-29.25418-22.50293-33.04959 .00041-31.08858"/>
<path transform="matrix(1,0,0,-1,89.291,297.63508)" stroke-width=".3985" stroke-linecap="round" stroke-linejoin="round" fill="none" stroke="#c0c0c0" d="M54.74426-19.38155C79.34253-8.31305 74.77313 4.41025 44.5382 9.0366 14.30324 13.66296-30.14828 8.44055-54.74654-2.62793-75.8515-12.1242-75.85135-23.10405-54.74768-28.92264"/>
<path transform="matrix(1,0,0,-1,89.291,297.63508)" stroke-width=".3985" stroke-linecap="round" stroke-linejoin="round" fill="none" stroke="#c0c0c0" d="M81.49268 7.10141C81.49243 20.38678 45.00673 27.9776 0 24.05556-45.00676 20.13351-81.49301 6.18393-81.49277-7.10141"/>
<path transform="matrix(1,0,0,-1,89.291,297.63508)" stroke-width=".3985" stroke-linecap="round" stroke-linejoin="round" fill="none" stroke="#c0c0c0" d="M54.74583 28.92244C38.8361 33.30867 13.68997 33.94781-11.20125 30.59756-28.3087 28.29477-43.81175 24.30156-54.74612 19.38135"/>
</g>
<path transform="matrix(1,0,0,-1,89.291,-59.52893)" stroke-width=".3985" stroke-linecap="butt" stroke-miterlimit="10" stroke-linejoin="miter" fill="none" stroke="#000000" d="M0-476.22434"/>
<g clip-path="url(#clip_3)">
<path transform="matrix(1,0,0,-1,89.291,416.69007)" d="M81.5027 7.09491C81.5027 25.59552 45.01326 37.41635 0 33.49788-45.01326 29.57942-81.5027 11.40569-81.5027-7.09491-81.5027-25.59552-45.01326-37.41635 0-33.49788 45.01326-29.57942 81.5027-11.40569 81.5027 7.09491ZM0 0" fill="#e6e8e9"/>
<path transform="matrix(1,0,0,-1,89.291,416.69007)" stroke-width=".3985" stroke-linecap="round" stroke-linejoin="round" fill="none" stroke="#c0c0c0" d="M-76.06929-18.63748C-65.2413-29.27583-22.40518-29.55571 19.6062-19.26265 61.6176-8.96959 86.89731 7.99915 76.06932 18.63751"/>
<path transform="matrix(1,0,0,-1,89.291,416.69007)" stroke-width=".3985" stroke-linecap="round" stroke-linejoin="round" fill="none" stroke="#c0c0c0" d="M-30.75146-33.69405C-16.44128-34.84518 8.92691-20.69316 25.91064-2.08429 42.89436 16.52457 45.06165 32.54292 30.75146 33.69405"/>
<path transform="matrix(1,0,0,-1,89.291,416.69007)" stroke-width=".3985" stroke-linecap="round" stroke-linejoin="round" fill="none" stroke="#c0c0c0" d="M15.85072-31.47525C7.67616-32.85307-6.04774-19.87764-14.80177-2.49467-23.5558 14.88829-24.02539 30.09738-15.85081 31.47522"/>
<path transform="matrix(1,0,0,-1,89.291,416.69007)" stroke-width=".3985" stroke-linecap="round" stroke-linejoin="round" fill="none" stroke="#c0c0c0" d="M63.95032-15.19339C47.06851-25.4481 4.75041-26.95845-30.56854-18.5676-65.88751-10.17674-80.83217 4.93869-63.95035 15.19339"/>
<path transform="matrix(1,0,0,-1,89.291,416.69007)" stroke-width=".3985" stroke-linecap="round" stroke-linejoin="round" fill="none" stroke="#c0c0c0" d="M.00041-32.21132C22.50378-30.25235 40.7469-23.27908 40.7468-16.63622 40.74669-9.99335 22.50388-6.1961 .0005-8.15506-22.50284-10.11401-40.74596-17.0873-40.74585-23.73016-40.74574-30.37303-22.50293-34.17027 .00041-32.21132"/>
<path transform="matrix(1,0,0,-1,89.291,416.69007)" stroke-width=".3985" stroke-linecap="round" stroke-linejoin="round" fill="none" stroke="#c0c0c0" d="M56.6709-19.13676C79.90285-7.8751 73.36238 4.60484 42.06339 8.73822 10.76437 12.87161-33.44128 7.0928-56.67325-4.16884-75.21114-13.1552-75.20988-23.24403-56.67332-29.00307"/>
<path transform="matrix(1,0,0,-1,89.291,416.69007)" stroke-width=".3985" stroke-linecap="round" stroke-linejoin="round" fill="none" stroke="#c0c0c0" d="M81.49268 7.0939C81.49243 20.37965 45.00673 27.97415 0 24.05626-45.00676 20.13835-81.49301 6.19183-81.49277-7.0939"/>
<path transform="matrix(1,0,0,-1,89.291,416.69007)" stroke-width=".3985" stroke-linecap="round" stroke-linejoin="round" fill="none" stroke="#c0c0c0" d="M56.6713 29.00298C41.64616 33.67119 16.9499 34.67847-8.09457 31.64467-27.46025 29.29889-45.05365 24.76903-56.67293 19.13667"/>
</g>
<path transform="matrix(1,0,0,-1,89.291,-59.52893)" stroke-width=".3985" stroke-linecap="butt" stroke-miterlimit="10" stroke-linejoin="miter" fill="none" stroke="#000000" d="M0-595.2804"/>
<g clip-path="url(#clip_4)">
<path transform="matrix(1,0,0,-1,89.291,535.7441)" d="M81.5027 7.08841C81.5027 26.09355 45.01326 38.32628 0 34.4114-45.01326 30.49654-81.5027 11.9167-81.5027-7.08841-81.5027-26.09355-45.01326-38.32628 0-34.4114 45.01326-30.49654 81.5027-11.9167 81.5027 7.08841ZM0 0" fill="#e6e8e9"/>
<path transform="matrix(1,0,0,-1,89.291,535.7441)" stroke-width=".3985" stroke-linecap="round" stroke-linejoin="round" fill="none" stroke="#c0c0c0" d="M-75.80075-19.22679C-64.41176-30.41618-21.2424-30.87875 20.62154-20.26003 62.48549-9.64128 87.18983 8.03741 75.80084 19.22682"/>
<path transform="matrix(1,0,0,-1,89.291,535.7441)" stroke-width=".3985" stroke-linecap="round" stroke-linejoin="round" fill="none" stroke="#c0c0c0" d="M-30.04823-34.59459C-15.29012-35.78232 10.12718-21.2561 26.72249-2.15013 43.31778 16.95583 44.80643 33.40692 30.0483 34.59465"/>
<path transform="matrix(1,0,0,-1,89.291,535.7441)" stroke-width=".3985" stroke-linecap="round" stroke-linejoin="round" fill="none" stroke="#c0c0c0" d="M15.44537-32.43948C7.03783-33.85487-6.69302-20.47833-15.22334-2.56253-23.75366 15.35326-23.85295 31.02405-15.4454 32.43945"/>
<path transform="matrix(1,0,0,-1,89.291,535.7441)" stroke-width=".3985" stroke-linecap="round" stroke-linejoin="round" fill="none" stroke="#c0c0c0" d="M63.28621-16.17325C45.65593-26.88254 3.02959-28.32285-31.92271-19.39064-66.87503-10.45842-80.91652 5.46397-63.28624 16.17325"/>
<path transform="matrix(1,0,0,-1,89.291,535.7441)" stroke-width=".3985" stroke-linecap="round" stroke-linejoin="round" fill="none" stroke="#c0c0c0" d="M.00041-33.33105C22.50378-31.37396 40.7469-24.40178 40.7468-17.75842 40.74669-11.11507 22.50388-7.31592 .0005-9.27301-22.50284-11.23012-40.74596-18.2023-40.74585-24.84566-40.74574-31.489-22.50293-35.28816 .00041-33.33105"/>
<path transform="matrix(1,0,0,-1,89.291,535.7441)" stroke-width=".3985" stroke-linecap="round" stroke-linejoin="round" fill="none" stroke="#c0c0c0" d="M58.24411-18.99962C80.25641-7.58879 72.02245 4.6615 39.85468 8.36235 7.68689 12.06322-36.23448 5.81268-58.24678-5.59813-74.68628-14.12051-74.68887-23.46797-58.24898-29.13112"/>
<path transform="matrix(1,0,0,-1,89.291,535.7441)" stroke-width=".3985" stroke-linecap="round" stroke-linejoin="round" fill="none" stroke="#c0c0c0" d="M81.49268 7.08719C81.49243 20.37393 45.00673 27.97224 0 24.05803-45.00676 20.14383-81.49301 6.19951-81.49277-7.08722"/>
<path transform="matrix(1,0,0,-1,89.291,535.7441)" stroke-width=".3985" stroke-linecap="round" stroke-linejoin="round" fill="none" stroke="#c0c0c0" d="M58.24686 29.13066C44.00935 34.03517 19.74191 35.3594-5.39557 32.60416-26.72241 30.2666-46.1675 25.26079-58.24622 18.99916"/>
</g>
<path transform="matrix(1,0,0,-1,89.291,-59.52893)" stroke-width=".3985" stroke-linecap="butt" stroke-miterlimit="10" stroke-linejoin="miter" fill="none" stroke="#000000" d="M0-714.3365"/>
<g clip-path="url(#clip_5)">
<path transform="matrix(1,0,0,-1,89.291,654.7991)" d="M81.5027 7.08713C81.5027 26.60968 45.01326 39.26245 0 35.34828-45.01326 31.43413-81.5027 12.43542-81.5027-7.08713-81.5027-26.60968-45.01326-39.26245 0-35.34828 45.01326-31.43413 81.5027-12.43542 81.5027 7.08713ZM0 0" fill="#e6e8e9"/>
<path transform="matrix(1,0,0,-1,89.291,654.7991)" stroke-width=".3985" stroke-linecap="round" stroke-linejoin="round" fill="none" stroke="#c0c0c0" d="M-75.52145-19.85011C-63.57866-31.58536-20.08325-32.21089 21.62605-21.24829 63.33537-10.28568 87.46431 8.11487 75.52151 19.85011"/>
<path transform="matrix(1,0,0,-1,89.291,654.7991)" stroke-width=".3985" stroke-linecap="round" stroke-linejoin="round" fill="none" stroke="#c0c0c0" d="M-29.35672-35.52455C-14.17888-36.74535 11.2691-21.83005 27.48212-2.21059 43.69513 17.40886 44.53455 34.30382 29.35672 35.52461"/>
<path transform="matrix(1,0,0,-1,89.291,654.7991)" stroke-width=".3985" stroke-linecap="round" stroke-linejoin="round" fill="none" stroke="#c0c0c0" d="M15.05156-33.42816C6.42857-34.88072-7.30093-21.09183-15.61351-2.63028-23.92607 15.83124-23.67458 31.97562-15.05159 33.42819"/>
<path transform="matrix(1,0,0,-1,89.291,654.7991)" stroke-width=".3985" stroke-linecap="round" stroke-linejoin="round" fill="none" stroke="#c0c0c0" d="M62.60374-17.18448C44.24446-28.33543 1.33147-29.68118-33.24335-20.19069-67.81818-10.70018-80.96301 6.03352-62.60371 17.18448"/>
<path transform="matrix(1,0,0,-1,89.291,654.7991)" stroke-width=".3985" stroke-linecap="round" stroke-linejoin="round" fill="none" stroke="#c0c0c0" d="M.00041-34.45296C22.50378-32.49611 40.7469-25.52391 40.7468-18.88026 40.74669-12.23663 22.50388-8.43703 .0005-10.39388-22.50284-12.35072-40.74596-19.3229-40.74585-25.96655-40.74574-32.6102-22.50293-36.40979 .00041-34.45296"/>
<path transform="matrix(1,0,0,-1,89.291,654.7991)" stroke-width=".3985" stroke-linecap="round" stroke-linejoin="round" fill="none" stroke="#c0c0c0" d="M59.55829-18.94579C80.4699-7.41643 70.7564 4.61656 37.8635 7.93007 4.9706 11.24359-38.64847 4.58293-59.56009-6.94641-74.24672-15.04399-74.24895-23.76015-59.56198-29.30382"/>
<path transform="matrix(1,0,0,-1,89.291,654.7991)" stroke-width=".3985" stroke-linecap="round" stroke-linejoin="round" fill="none" stroke="#c0c0c0" d="M81.49268 7.08624C81.49243 20.37358 45.00673 27.97278 0 24.05908-45.00676 20.1454-81.49301 6.20105-81.49277-7.08627"/>
<path transform="matrix(1,0,0,-1,89.291,654.7991)" stroke-width=".3985" stroke-linecap="round" stroke-linejoin="round" fill="none" stroke="#c0c0c0" d="M59.56078 29.30382C38.64919 37.19693-4.96939 36.27197-37.86404 27.23787-46.59491 24.84023-54.0094 22.00594-59.5595 18.94579"/>
</g>
<path transform="matrix(1,0,0,-1,89.291,-59.52893)" stroke-width=".3985" stroke-linecap="butt" stroke-miterlimit="10" stroke-linejoin="miter" fill="none" stroke="#000000" d="M0-833.3926"/>
<g clip-path="url(#clip_6)">
<path transform="matrix(1,0,0,-1,89.291,773.85409)" d="M81.5027 7.09058C81.5027 27.14299 45.01326 40.22371 0 36.30765-45.01326 32.39159-81.5027 12.96182-81.5027-7.09058-81.5027-27.14299-45.01326-40.22371 0-36.30765 45.01326-32.39159 81.5027-12.96182 81.5027 7.09058ZM0 0" fill="#e6e8e9"/>
<path transform="matrix(1,0,0,-1,89.291,773.85409)" stroke-width=".3985" stroke-linecap="round" stroke-linejoin="round" fill="none" stroke="#c0c0c0" d="M-75.229-20.50288C-62.73839-32.77696-18.93011-33.54735 22.61736-22.2242 64.16486-10.90103 87.71962 8.22884 75.229 20.50291"/>
<path transform="matrix(1,0,0,-1,89.291,773.85409)" stroke-width=".3985" stroke-linecap="round" stroke-linejoin="round" fill="none" stroke="#c0c0c0" d="M-28.67621-36.47469C-13.10748-37.72624 12.35213-22.41055 28.18962-2.2661 44.0271 17.87836 44.24493 35.22318 28.67621 36.47472"/>
<path transform="matrix(1,0,0,-1,89.291,773.85409)" stroke-width=".3985" stroke-linecap="round" stroke-linejoin="round" fill="none" stroke="#c0c0c0" d="M14.6667-34.43404C5.84418-35.92134-7.87476-21.71004-15.97487-2.6929-24.07498 16.32423-23.48924 32.94676-14.6667 34.43407"/>
<path transform="matrix(1,0,0,-1,89.291,773.85409)" stroke-width=".3985" stroke-linecap="round" stroke-linejoin="round" fill="none" stroke="#c0c0c0" d="M61.91039-18.22185C42.84697-29.80176-.32559-31.03105-34.51753-20.96744-68.70947-10.90384-80.97386 6.64194-61.91045 18.22185"/>
<path transform="matrix(1,0,0,-1,89.291,773.85409)" stroke-width=".3985" stroke-linecap="round" stroke-linejoin="round" fill="none" stroke="#c0c0c0" d="M.00041-35.57387C22.50378-33.6162 40.7469-26.64362 40.7468-20.00027 40.74669-13.35693 22.50388-9.55829 .0005-11.51595-22.50284-13.47362-40.74596-20.4462-40.74585-27.08954-40.74574-33.73288-22.50293-37.53154 .00041-35.57387"/>
<path transform="matrix(1,0,0,-1,89.291,773.85409)" stroke-width=".3985" stroke-linecap="round" stroke-linejoin="round" fill="none" stroke="#c0c0c0" d="M60.66771-18.96146C80.58328-7.33739 69.56499 4.48895 36.05885 7.45357 2.55272 10.41818-40.75415 3.39801-60.66972-8.22603-73.87782-15.9352-73.87628-24.10507-60.66953-29.51633"/>
<path transform="matrix(1,0,0,-1,89.291,773.85409)" stroke-width=".3985" stroke-linecap="round" stroke-linejoin="round" fill="none" stroke="#c0c0c0" d="M81.49268 7.08928C81.49243 20.37598 45.00673 27.97333 0 24.05798-45.00676 20.14264-81.49301 6.19743-81.49277-7.08925"/>
<path transform="matrix(1,0,0,-1,89.291,773.85409)" stroke-width=".3985" stroke-linecap="round" stroke-linejoin="round" fill="none" stroke="#c0c0c0" d="M60.66827 29.51611C40.7542 37.67534-2.55182 37.16083-36.05812 28.36707-46.18378 25.70976-54.6512 22.4736-60.66896 18.96124"/>
</g>
<path transform="matrix(1,0,0,-1,89.291,-59.52893)" stroke-width=".3985" stroke-linecap="butt" stroke-miterlimit="10" stroke-linejoin="miter" fill="none" stroke="#000000" d="M0-952.44869"/>
<g clip-path="url(#clip_7)">
<path transform="matrix(1,0,0,-1,89.291,892.9081)" d="M81.5027 7.088C81.5027 27.68149 45.01326 41.202 0 37.28735-45.01326 33.37273-81.5027 13.5055-81.5027-7.088-81.5027-27.68149-45.01326-41.202 0-37.28735 45.01326-33.37273 81.5027-13.5055 81.5027 7.088ZM0 0" fill="#e6e8e9"/>
<path transform="matrix(1,0,0,-1,89.291,892.9081)" stroke-width=".3985" stroke-linecap="round" stroke-linejoin="round" fill="none" stroke="#c0c0c0" d="M-74.9257-21.17838C-61.89328-33.98578-17.78174-34.8854 23.59912-23.18918 64.97998-11.49297 87.95818 8.37102 74.92574 21.17844"/>
<path transform="matrix(1,0,0,-1,89.291,892.9081)" stroke-width=".3985" stroke-linecap="round" stroke-linejoin="round" fill="none" stroke="#c0c0c0" d="M-28.01595-37.44669C-12.08458-38.72922 13.37444-23.0032 28.84682-2.32242 44.31918 18.35835 43.94734 36.16415 28.01598 37.44669"/>
<path transform="matrix(1,0,0,-1,89.291,892.9081)" stroke-width=".3985" stroke-linecap="round" stroke-linejoin="round" fill="none" stroke="#c0c0c0" d="M14.29272-35.46216C5.28487-36.979-8.41684-22.3313-16.31046-2.74637-24.20407 16.83856-23.30064 33.94527-14.29279 35.4621"/>
<path transform="matrix(1,0,0,-1,89.291,892.9081)" stroke-width=".3985" stroke-linecap="round" stroke-linejoin="round" fill="none" stroke="#c0c0c0" d="M61.2041-19.29372C41.45927-31.28555-1.95016-32.36903-35.75163-21.71355-69.55312-11.05804-80.94899 7.30191-61.20416 19.29375"/>
<path transform="matrix(1,0,0,-1,89.291,892.9081)" stroke-width=".3985" stroke-linecap="round" stroke-linejoin="round" fill="none" stroke="#c0c0c0" d="M.00041-36.69556C22.50378-34.73862 40.7469-27.76631 40.7468-21.12267 40.74669-14.47902 22.50388-10.67953 .0005-12.63649-22.50284-14.59343-40.74596-21.56573-40.74585-28.20938-40.74574-34.85303-22.50293-38.65251 .00041-36.69556"/>
<path transform="matrix(1,0,0,-1,89.291,892.9081)" stroke-width=".3985" stroke-linecap="round" stroke-linejoin="round" fill="none" stroke="#c0c0c0" d="M61.61125-19.0454C80.6221-7.34631 68.44847 4.28865 34.4212 6.94214 .39395 9.59563-42.6018 2.26262-61.61266-9.43643-73.56087-16.78944-73.56137-24.48573-61.61395-29.76088"/>
<path transform="matrix(1,0,0,-1,89.291,892.9081)" stroke-width=".3985" stroke-linecap="round" stroke-linejoin="round" fill="none" stroke="#c0c0c0" d="M81.49268 7.08672C81.49243 20.37404 45.00673 27.97302 0 24.05908-45.00676 20.14516-81.49301 6.20059-81.49277-7.08672"/>
<path transform="matrix(1,0,0,-1,89.291,892.9081)" stroke-width=".3985" stroke-linecap="round" stroke-linejoin="round" fill="none" stroke="#c0c0c0" d="M61.613 29.7609C42.60379 38.15411-.39201 38.00903-34.42075 29.43774-45.82329 26.56555-55.24231 22.9657-61.6122 19.04541"/>
</g>
<path transform="matrix(1,0,0,-1,89.291,-59.52893)" stroke-width=".3985" stroke-linecap="butt" stroke-miterlimit="10" stroke-linejoin="miter" fill="none" stroke="#000000" d="M0-1071.5048"/>
<g clip-path="url(#clip_8)">
<path transform="matrix(1,0,0,-1,89.291,1011.963)" d="M81.5027 7.09447C81.5027 27.14665 45.01326 40.22545 0 36.30722-45.01326 32.389-81.5027 12.9577-81.5027-7.09447-81.5027-27.14665-45.01326-40.22545 0-36.30722 45.01326-32.389 81.5027-12.9577 81.5027 7.09447ZM0 0" fill="#e6e8e9"/>
<path transform="matrix(1,0,0,-1,89.291,1011.963)" stroke-width=".3985" stroke-linecap="round" stroke-linejoin="round" fill="none" stroke="#c0c0c0" d="M-75.229-20.5063C-62.73839-32.77963-18.93011-33.5479 22.61736-22.22284 64.16486-10.89778 87.71962 8.233 75.229 20.50633"/>
<path transform="matrix(1,0,0,-1,89.291,1011.963)" stroke-width=".3985" stroke-linecap="round" stroke-linejoin="round" fill="none" stroke="#c0c0c0" d="M-28.67621-36.47565C-13.10748-37.72644 12.35213-22.40968 28.18962-2.2647 44.0271 17.88028 44.24493 35.2249 28.67621 36.47568"/>
<path transform="matrix(1,0,0,-1,89.291,1011.963)" stroke-width=".3985" stroke-linecap="round" stroke-linejoin="round" fill="none" stroke="#c0c0c0" d="M14.6667-34.4329C5.84418-35.92064-7.87476-21.71017-15.97487-2.69368-24.07498 16.32281-23.48924 32.94522-14.6667 34.43294"/>
<path transform="matrix(1,0,0,-1,89.291,1011.963)" stroke-width=".3985" stroke-linecap="round" stroke-linejoin="round" fill="none" stroke="#c0c0c0" d="M61.91039-18.2186C42.84697-29.79929-.32559-31.03064-34.51753-20.96883-68.70947-10.90701-80.97386 6.63795-61.91045 18.21866"/>
<path transform="matrix(1,0,0,-1,89.291,1011.963)" stroke-width=".3985" stroke-linecap="round" stroke-linejoin="round" fill="none" stroke="#c0c0c0" d="M.00041-35.57344C22.50378-33.6147 40.7469-26.6413 40.7468-19.99803 40.74669-13.35477 22.50388-9.55705 .0005-11.5158-22.50284-13.47453-40.74596-20.44795-40.74585-27.09122-40.74574-33.73448-22.50293-37.53218 .00041-35.57344"/>
<path transform="matrix(1,0,0,-1,89.291,1011.963)" stroke-width=".3985" stroke-linecap="round" stroke-linejoin="round" fill="none" stroke="#c0c0c0" d="M60.66771-18.95825C80.58328-7.33336 69.56499 4.49232 36.05885 7.45528 2.55272 10.41821-40.75415 3.39603-60.66972-8.22885-73.87782-15.93857-73.87628-24.10837-60.66953-29.51892"/>
<path transform="matrix(1,0,0,-1,89.291,1011.963)" stroke-width=".3985" stroke-linecap="round" stroke-linejoin="round" fill="none" stroke="#c0c0c0" d="M81.49268 7.09317C81.49243 20.3797 45.00673 27.97516 0 24.05765-45.00676 20.14015-81.49301 6.19334-81.49277-7.09317"/>
<path transform="matrix(1,0,0,-1,89.291,1011.963)" stroke-width=".3985" stroke-linecap="round" stroke-linejoin="round" fill="none" stroke="#c0c0c0" d="M60.66827 29.5187C40.7542 37.67686-2.55182 37.16026-36.05812 28.36497-46.18378 25.7072-54.6512 22.47067-60.66896 18.95804"/>
</g>
<path transform="matrix(1,0,0,-1,89.291,-59.52893)" stroke-width=".3985" stroke-linecap="butt" stroke-miterlimit="10" stroke-linejoin="miter" fill="none" stroke="#000000" d="M0-1190.5608"/>
<g clip-path="url(#clip_9)">
<path transform="matrix(1,0,0,-1,89.291,1131.0171)" d="M81.5027 7.08713C81.5027 26.60968 45.01326 39.26245 0 35.34828-45.01326 31.43413-81.5027 12.43542-81.5027-7.08713-81.5027-26.60968-45.01326-39.26245 0-35.34828 45.01326-31.43413 81.5027-12.43542 81.5027 7.08713ZM0 0" fill="#e6e8e9"/>
<path transform="matrix(1,0,0,-1,89.291,1131.0171)" stroke-width=".3985" stroke-linecap="round" stroke-linejoin="round" fill="none" stroke="#c0c0c0" d="M-75.52145-19.85011C-63.57866-31.58536-20.08325-32.21089 21.62605-21.24829 63.33537-10.28568 87.46431 8.11487 75.52151 19.85011"/>
<path transform="matrix(1,0,0,-1,89.291,1131.0171)" stroke-width=".3985" stroke-linecap="round" stroke-linejoin="round" fill="none" stroke="#c0c0c0" d="M-29.35672-35.52455C-14.17888-36.74535 11.2691-21.83005 27.48212-2.21059 43.69513 17.40886 44.53455 34.30382 29.35672 35.52461"/>
<path transform="matrix(1,0,0,-1,89.291,1131.0171)" stroke-width=".3985" stroke-linecap="round" stroke-linejoin="round" fill="none" stroke="#c0c0c0" d="M15.05156-33.42816C6.42857-34.88072-7.30093-21.09183-15.61351-2.63028-23.92607 15.83124-23.67458 31.97562-15.05159 33.42819"/>
<path transform="matrix(1,0,0,-1,89.291,1131.0171)" stroke-width=".3985" stroke-linecap="round" stroke-linejoin="round" fill="none" stroke="#c0c0c0" d="M62.60374-17.18448C44.24446-28.33543 1.33147-29.68118-33.24335-20.19069-67.81818-10.70018-80.96301 6.03352-62.60371 17.18448"/>
<path transform="matrix(1,0,0,-1,89.291,1131.0171)" stroke-width=".3985" stroke-linecap="round" stroke-linejoin="round" fill="none" stroke="#c0c0c0" d="M.00041-34.45296C22.50378-32.49611 40.7469-25.52391 40.7468-18.88026 40.74669-12.23663 22.50388-8.43703 .0005-10.39388-22.50284-12.35072-40.74596-19.3229-40.74585-25.96655-40.74574-32.6102-22.50293-36.40979 .00041-34.45296"/>
<path transform="matrix(1,0,0,-1,89.291,1131.0171)" stroke-width=".3985" stroke-linecap="round" stroke-linejoin="round" fill="none" stroke="#c0c0c0" d="M59.55829-18.94579C80.4699-7.41643 70.7564 4.61656 37.8635 7.93007 4.9706 11.24359-38.64847 4.58293-59.56009-6.94641-74.24672-15.04399-74.24895-23.76015-59.56198-29.30382"/>
<path transform="matrix(1,0,0,-1,89.291,1131.0171)" stroke-width=".3985" stroke-linecap="round" stroke-linejoin="round" fill="none" stroke="#c0c0c0" d="M81.49268 7.08624C81.49243 20.37358 45.00673 27.97278 0 24.05908-45.00676 20.1454-81.49301 6.20105-81.49277-7.08627"/>
<path transform="matrix(1,0,0,-1,89.291,1131.0171)" stroke-width=".3985" stroke-linecap="round" stroke-linejoin="round" fill="none" stroke="#c0c0c0" d="M59.56078 29.30382C38.64919 37.19693-4.96939 36.27197-37.86404 27.23787-46.59491 24.84023-54.0094 22.00594-59.5595 18.94579"/>
</g>
<path transform="matrix(1,0,0,-1,89.291,-59.52893)" stroke-width=".3985" stroke-linecap="butt" stroke-miterlimit="10" stroke-linejoin="miter" fill="none" stroke="#000000" d="M0-1309.617"/>
<g clip-path="url(#clip_10)">
<path transform="matrix(1,0,0,-1,89.291,1250.072)" d="M81.5027 7.08841C81.5027 26.09332 45.01326 38.32585 0 34.41098-45.01326 30.49611-81.5027 11.91647-81.5027-7.08841-81.5027-26.09332-45.01326-38.32585 0-34.41098 45.01326-30.49611 81.5027-11.91647 81.5027 7.08841ZM0 0" fill="#e6e8e9"/>
<path transform="matrix(1,0,0,-1,89.291,1250.072)" stroke-width=".3985" stroke-linecap="round" stroke-linejoin="round" fill="none" stroke="#c0c0c0" d="M-75.80075-19.22664C-64.41176-30.41588-21.2424-30.8784 20.62154-20.25977 62.48549-9.64111 87.18983 8.03735 75.80084 19.22661"/>
<path transform="matrix(1,0,0,-1,89.291,1250.072)" stroke-width=".3985" stroke-linecap="round" stroke-linejoin="round" fill="none" stroke="#c0c0c0" d="M-30.04823-34.5942C-15.29012-35.7819 10.12718-21.25584 26.72249-2.1501 43.31778 16.95563 44.80643 33.40651 30.0483 34.59422"/>
<path transform="matrix(1,0,0,-1,89.291,1250.072)" stroke-width=".3985" stroke-linecap="round" stroke-linejoin="round" fill="none" stroke="#c0c0c0" d="M15.44537-32.43906C7.03783-33.85443-6.69302-20.47807-15.22334-2.5625-23.75366 15.35306-23.85295 31.02364-15.4454 32.43903"/>
<path transform="matrix(1,0,0,-1,89.291,1250.072)" stroke-width=".3985" stroke-linecap="round" stroke-linejoin="round" fill="none" stroke="#c0c0c0" d="M63.28621-16.17299C45.65593-26.88214 3.02959-28.3225-31.92271-19.39044-66.87503-10.45837-80.91652 5.46382-63.28624 16.17299"/>
<path transform="matrix(1,0,0,-1,89.291,1250.072)" stroke-width=".3985" stroke-linecap="round" stroke-linejoin="round" fill="none" stroke="#c0c0c0" d="M.00041-33.33064C22.50378-31.37357 40.7469-24.40146 40.7468-17.75818 40.74669-11.1149 22.50388-7.31583 .0005-9.2729-22.50284-11.23-40.74596-18.2021-40.74585-24.84538-40.74574-31.48866-22.50293-35.28773 .00041-33.33064"/>
<path transform="matrix(1,0,0,-1,89.291,1250.072)" stroke-width=".3985" stroke-linecap="round" stroke-linejoin="round" fill="none" stroke="#c0c0c0" d="M58.24411-18.99931C80.25641-7.58861 72.02245 4.6615 39.85468 8.36229 7.68689 12.0631-36.23448 5.81259-58.24678-5.5981-74.68628-14.12039-74.68887-23.46771-58.24898-29.13078"/>
<path transform="matrix(1,0,0,-1,89.291,1250.072)" stroke-width=".3985" stroke-linecap="round" stroke-linejoin="round" fill="none" stroke="#c0c0c0" d="M81.49268 7.08719C81.49243 20.37376 45.00673 27.97195 0 24.05775-45.00676 20.14357-81.49301 6.19937-81.49277-7.08719"/>
<path transform="matrix(1,0,0,-1,89.291,1250.072)" stroke-width=".3985" stroke-linecap="round" stroke-linejoin="round" fill="none" stroke="#c0c0c0" d="M58.24686 29.13036C44.00935 34.0348 19.74191 35.35901-5.39557 32.60376-26.72241 30.26622-46.1675 25.26045-58.24622 18.99889"/>
</g>
<path transform="matrix(1,0,0,-1,89.291,-59.52893)" stroke-width=".3985" stroke-linecap="butt" stroke-miterlimit="10" stroke-linejoin="miter" fill="none" stroke="#000000" d="M0-1428.673"/>
<g clip-path="url(#clip_11)">
<path transform="matrix(1,0,0,-1,89.291,1369.1261)" d="M81.5027 7.09491C81.5027 25.59528 45.01326 37.41592 0 33.49747-45.01326 29.579-81.5027 11.40544-81.5027-7.09491-81.5027-25.59528-45.01326-37.41592 0-33.49747 45.01326-29.579 81.5027-11.40544 81.5027 7.09491ZM0 0" fill="#e6e8e9"/>
<path transform="matrix(1,0,0,-1,89.291,1369.1261)" stroke-width=".3985" stroke-linecap="round" stroke-linejoin="round" fill="none" stroke="#c0c0c0" d="M-76.06929-18.63733C-65.2413-29.27554-22.40518-29.55536 19.6062-19.26239 61.6176-8.96942 86.89731 7.99915 76.06932 18.63736"/>
<path transform="matrix(1,0,0,-1,89.291,1369.1261)" stroke-width=".3985" stroke-linecap="round" stroke-linejoin="round" fill="none" stroke="#c0c0c0" d="M-30.75146-33.69405C-16.44128-34.84497 8.92691-20.6928 25.91064-2.08391 42.89436 16.52495 45.06165 32.54314 30.75146 33.69405"/>
<path transform="matrix(1,0,0,-1,89.291,1369.1261)" stroke-width=".3985" stroke-linecap="round" stroke-linejoin="round" fill="none" stroke="#c0c0c0" d="M15.85072-31.4752C7.67616-32.85283-6.04774-19.87726-14.80177-2.49432-23.5558 14.88861-24.02539 30.09753-15.85081 31.47517"/>
<path transform="matrix(1,0,0,-1,89.291,1369.1261)" stroke-width=".3985" stroke-linecap="round" stroke-linejoin="round" fill="none" stroke="#c0c0c0" d="M63.95032-15.19357C47.06851-25.44807 4.75041-26.95813-30.56854-18.56718-65.88751-10.17624-80.83217 4.93906-63.95035 15.19354"/>
<path transform="matrix(1,0,0,-1,89.291,1369.1261)" stroke-width=".3985" stroke-linecap="round" stroke-linejoin="round" fill="none" stroke="#c0c0c0" d="M.00041-32.21117C22.50378-30.25224 40.7469-23.27898 40.7468-16.63606 40.74669-9.99315 22.50388-6.19585 .0005-8.15475-22.50284-10.11368-40.74596-17.08694-40.74585-23.72986-40.74574-30.37277-22.50293-34.17007 .00041-32.21117"/>
<path transform="matrix(1,0,0,-1,89.291,1369.1261)" stroke-width=".3985" stroke-linecap="round" stroke-linejoin="round" fill="none" stroke="#c0c0c0" d="M56.67001-19.13731C79.90225-7.87592 73.36252 4.60458 42.06456 8.73825 10.76662 12.87193-33.44037 7.09328-56.6726-4.1681-75.21078-13.15422-75.20943-23.2444-56.67212-29.00307"/>
<path transform="matrix(1,0,0,-1,89.291,1369.1261)" stroke-width=".3985" stroke-linecap="round" stroke-linejoin="round" fill="none" stroke="#c0c0c0" d="M81.49268 7.09378C81.49243 20.37962 45.00673 27.97427 0 24.05644-45.00676 20.1386-81.49301 6.19205-81.49277-7.09378"/>
<path transform="matrix(1,0,0,-1,89.291,1369.1261)" stroke-width=".3985" stroke-linecap="round" stroke-linejoin="round" fill="none" stroke="#c0c0c0" d="M56.67006 29.0026C41.64418 33.67043 16.95 34.67813-8.09448 31.64436-27.46016 29.2986-45.05281 24.76921-56.67207 19.13684"/>
</g>
<path transform="matrix(1,0,0,-1,89.291,-59.52893)" stroke-width=".3985" stroke-linecap="butt" stroke-miterlimit="10" stroke-linejoin="miter" fill="none" stroke="#000000" d="M0-1547.729"/>
<g clip-path="url(#clip_12)">
<path transform="matrix(1,0,0,-1,89.291,1488.181)" d="M81.5027 7.10226C81.5027 25.1122 45.01326 36.53197 0 32.60945-45.01326 28.68694-81.5027 10.90765-81.5027-7.10226-81.5027-25.1122-45.01326-36.53197 0-32.60945 45.01326-28.68694 81.5027-10.90765 81.5027 7.10226ZM0 0" fill="#e6e8e9"/>
<path transform="matrix(1,0,0,-1,89.291,1488.181)" stroke-width=".3985" stroke-linecap="round" stroke-linejoin="round" fill="none" stroke="#c0c0c0" d="M-76.32582-18.07661C-66.06482-28.15665-23.57394-28.2345 18.58008-18.25111 60.73412-8.26773 86.58682 7.9966 76.32582 18.07661"/>
<path transform="matrix(1,0,0,-1,89.291,1488.181)" stroke-width=".3985" stroke-linecap="round" stroke-linejoin="round" fill="none" stroke="#c0c0c0" d="M-31.46448-32.81764C-17.63599-33.92833 7.66226-20.13533 25.0393-2.011 42.41635 16.11331 45.29301 31.70699 31.46451 32.81767"/>
<path transform="matrix(1,0,0,-1,89.291,1488.181)" stroke-width=".3985" stroke-linecap="round" stroke-linejoin="round" fill="none" stroke="#c0c0c0" d="M16.26408-30.53113C8.34169-31.86644-5.3627-19.27928-14.34506-2.41759-23.32742 14.44408-24.18652 29.19585-16.26411 30.53116"/>
<path transform="matrix(1,0,0,-1,89.291,1488.181)" stroke-width=".3985" stroke-linecap="round" stroke-linejoin="round" fill="none" stroke="#c0c0c0" d="M64.60472-14.24442C48.49951-24.02965 6.51778-25.58434-29.16243-17.71759-64.84267-9.85086-80.70993 4.4592-64.60472 14.24445"/>
<path transform="matrix(1,0,0,-1,89.291,1488.181)" stroke-width=".3985" stroke-linecap="round" stroke-linejoin="round" fill="none" stroke="#c0c0c0" d="M.00041-31.08861C22.50378-29.12758 40.7469-22.15288 40.7468-15.51028 40.74669-8.86769 22.50388-5.07236 .0005-7.03339-22.50284-8.99442-40.74596-15.9691-40.74585-22.61171-40.74574-29.2543-22.50293-33.04962 .00041-31.08861"/>
<path transform="matrix(1,0,0,-1,89.291,1488.181)" stroke-width=".3985" stroke-linecap="round" stroke-linejoin="round" fill="none" stroke="#c0c0c0" d="M54.7463-19.38077C79.34325-8.3123 74.77254 4.41095 44.53683 9.03674 14.30113 13.66254-30.15111 8.4397-54.74805-2.62877-75.85063-12.12488-75.85135-23.10371-54.74901-28.92209"/>
<path transform="matrix(1,0,0,-1,89.291,1488.181)" stroke-width=".3985" stroke-linecap="round" stroke-linejoin="round" fill="none" stroke="#c0c0c0" d="M81.49268 7.10141C81.49243 20.38661 45.00673 27.97728 0 24.0552-45.00676 20.13315-81.49301 6.18373-81.49277-7.10144"/>
<path transform="matrix(1,0,0,-1,89.291,1488.181)" stroke-width=".3985" stroke-linecap="round" stroke-linejoin="round" fill="none" stroke="#c0c0c0" d="M54.74771 28.92192C38.83873 33.30853 13.69366 33.94783-11.19785 30.59787-28.30559 28.29536-43.81325 24.30075-54.7476 19.3806"/>
</g>
<path transform="matrix(1,0,0,-1,89.291,-59.52893)" stroke-width=".3985" stroke-linecap="butt" stroke-miterlimit="10" stroke-linejoin="miter" fill="none" stroke="#000000" d="M0-1666.7852"/>
<g clip-path="url(#clip_13)">
<path transform="matrix(1,0,0,-1,89.291,1607.2351)" d="M81.5027 7.09923C81.5027 24.63449 45.01326 35.67084 0 31.75002-45.01326 27.82918-81.5027 10.43604-81.5027-7.09923-81.5027-24.63449-45.01326-35.67084 0-31.75002 45.01326-27.82918 81.5027-10.43604 81.5027 7.09923ZM0 0" fill="#e6e8e9"/>
<path transform="matrix(1,0,0,-1,89.291,1607.2351)" stroke-width=".3985" stroke-linecap="round" stroke-linejoin="round" fill="none" stroke="#c0c0c0" d="M-76.57274-17.53596C-66.88353-27.05379-24.74504-26.91835 17.54443-17.23367 59.83391-7.549 86.26201 8.01814 76.5728 17.53596"/>
<path transform="matrix(1,0,0,-1,89.291,1607.2351)" stroke-width=".3985" stroke-linecap="round" stroke-linejoin="round" fill="none" stroke="#c0c0c0" d="M-32.18794-31.96866C-18.8755-33.03986 6.32762-19.59488 24.10475-1.93909 41.88188 15.7167 45.5004 30.89743 32.18794 31.96863"/>
<path transform="matrix(1,0,0,-1,89.291,1607.2351)" stroke-width=".3985" stroke-linecap="round" stroke-linejoin="round" fill="none" stroke="#c0c0c0" d="M16.68636-29.61935C9.0363-30.90823-4.63599-18.69199-13.85165-2.33362-23.06732 14.02473-24.33643 28.33049-16.68639 29.61935"/>
<path transform="matrix(1,0,0,-1,89.291,1607.2351)" stroke-width=".3985" stroke-linecap="round" stroke-linejoin="round" fill="none" stroke="#c0c0c0" d="M65.23856-13.34366C49.9305-22.64297 8.31221-24.20697-27.71846-16.83757-63.74915-9.46817-80.54659 4.04436-65.23853 13.34366"/>
<path transform="matrix(1,0,0,-1,89.291,1607.2351)" stroke-width=".3985" stroke-linecap="round" stroke-linejoin="round" fill="none" stroke="#c0c0c0" d="M.00041-29.9677C22.50378-28.0076 40.7469-21.0335 40.7468-14.39073 40.74669-7.74797 22.50388-3.95172 .0005-5.91182-22.50284-7.87192-40.74596-14.84602-40.74585-21.48878-40.74574-28.13155-22.50293-31.9278 .00041-29.9677"/>
<path transform="matrix(1,0,0,-1,89.291,1607.2351)" stroke-width=".3985" stroke-linecap="round" stroke-linejoin="round" fill="none" stroke="#c0c0c0" d="M52.35876-19.76651C78.49414-8.95425 76.23949 4.02377 47.32309 9.22005 18.40668 14.41634-26.22354 9.86346-52.35892-.94878-76.64497-10.99579-76.64427-23.07057-52.35939-28.8871"/>
<path transform="matrix(1,0,0,-1,89.291,1607.2351)" stroke-width=".3985" stroke-linecap="round" stroke-linejoin="round" fill="none" stroke="#c0c0c0" d="M81.49268 7.09807C81.49243 20.38362 45.00673 27.97609 0 24.0559-45.00676 20.1357-81.49301 6.1875-81.49277-7.09804"/>
<path transform="matrix(1,0,0,-1,89.291,1607.2351)" stroke-width=".3985" stroke-linecap="round" stroke-linejoin="round" fill="none" stroke="#c0c0c0" d="M52.35855 28.88669C35.45505 32.9356 9.84682 33.1457-14.80324 29.43773-29.28503 27.25903-42.42857 23.87463-52.3596 19.76611"/>
</g>
<path transform="matrix(1,0,0,-1,89.291,-59.52893)" stroke-width=".3985" stroke-linecap="butt" stroke-miterlimit="10" stroke-linejoin="miter" fill="none" stroke="#000000" d="M0-1785.8412"/>
<g clip-path="url(#clip_14)">
<path transform="matrix(1,0,0,-1,89.291,1726.29)" d="M81.5027 7.09923C81.5027 24.17654 45.01326 34.84166 0 30.92084-45.01326 27-81.5027 9.97809-81.5027-7.09923-81.5027-24.17654-45.01326-34.84166 0-30.92084 45.01326-27 81.5027-9.97809 81.5027 7.09923ZM0 0" fill="#e6e8e9"/>
<path transform="matrix(1,0,0,-1,89.291,1726.29)" stroke-width=".3985" stroke-linecap="round" stroke-linejoin="round" fill="none" stroke="#c0c0c0" d="M-76.8065-17.0263C-67.69865-25.97699-25.92702-25.60985 16.49193-16.2066 58.9109-6.80336 85.91437 8.0756 76.80653 17.0263"/>
<path transform="matrix(1,0,0,-1,89.291,1726.29)" stroke-width=".3985" stroke-linecap="round" stroke-linejoin="round" fill="none" stroke="#c0c0c0" d="M-32.91203-31.15013C-20.15123-32.17673 4.92917-19.06233 23.10577-1.8588 41.28236 15.34471 45.6728 30.12355 32.912 31.15013"/>
<path transform="matrix(1,0,0,-1,89.291,1726.29)" stroke-width=".3985" stroke-linecap="round" stroke-linejoin="round" fill="none" stroke="#c0c0c0" d="M17.11623-28.73674C9.76135-29.97752-3.8646-18.11702-13.31754-2.24643-22.77048 13.62415-24.47112 27.49591-17.11626 28.73671"/>
<path transform="matrix(1,0,0,-1,89.291,1726.29)" stroke-width=".3985" stroke-linecap="round" stroke-linejoin="round" fill="none" stroke="#c0c0c0" d="M65.85074-12.47751C51.36687-21.27725 10.14227-22.8245-26.22585-15.93344-62.59398-9.0424-80.33461 3.67775-65.85074 12.47751"/>
<path transform="matrix(1,0,0,-1,89.291,1726.29)" stroke-width=".3985" stroke-linecap="round" stroke-linejoin="round" fill="none" stroke="#c0c0c0" d="M.00041-28.84657C22.50378-26.88644 40.7469-19.91214 40.7468-13.2692 40.74669-6.62625 22.50388-2.82988 .0005-4.79001-22.50284-6.75014-40.74596-13.72444-40.74585-20.36739-40.74574-27.01033-22.50293-30.8067 .00041-28.84657"/>
<path transform="matrix(1,0,0,-1,89.291,1726.29)" stroke-width=".3985" stroke-linecap="round" stroke-linejoin="round" fill="none" stroke="#c0c0c0" d="M49.32378-20.3154C77.20328-9.84566 77.71996 3.39026 50.47945 9.24757 23.23895 15.10487-21.44582 11.36525-49.32532 .89551-67.35779-5.87648-74.62325-14.15869-68.37961-20.82518-65.17479-24.2465-58.57805-27.04388-49.32468-28.9072"/>
<path transform="matrix(1,0,0,-1,89.291,1726.29)" stroke-width=".3985" stroke-linecap="round" stroke-linejoin="round" fill="none" stroke="#c0c0c0" d="M81.49268 7.0982C81.49243 20.38414 45.00673 27.97685 0 24.05658-45.00676 20.1363-81.49301 6.18771-81.49277-7.0982"/>
<path transform="matrix(1,0,0,-1,89.291,1726.29)" stroke-width=".3985" stroke-linecap="round" stroke-linejoin="round" fill="none" stroke="#c0c0c0" d="M49.32378 28.90706C21.90358 34.42834-21.90274 30.6132-49.32468 20.31526"/>
</g>
</svg>
