<svg xmlns="http://www.w3.org/2000/svg" xmlns:xlink="http://www.w3.org/1999/xlink" xmlns:inkscape="http://www.inkscape.org/namespaces/inkscape" version="1.1" width="170.079" height="76.535" viewBox="0 0 170.079 76.535">
<path transform="matrix(1,0,0,-1,85.039,38.268007)" d="M81.5027 7.08713C81.5027 26.60968 45.01326 39.26245 0 35.34828-45.01326 31.43413-81.5027 12.43542-81.5027-7.08713-81.5027-26.60968-45.01326-39.26245 0-35.34828 45.01326-31.43413 81.5027-12.43542 81.5027 7.08713ZM0 0" fill="#e6e8e9"/>
<path transform="matrix(1,0,0,-1,85.039,38.268007)" stroke-width=".3985" stroke-linecap="round" stroke-linejoin="round" fill="none" stroke="#b2b3b2" d="M-75.52145-19.85011C-63.57866-31.58536-20.08325-32.21089 21.62605-21.24829 63.33537-10.28568 87.46431 8.11487 75.52151 19.85011"/>
<path transform="matrix(1,0,0,-1,85.039,38.268007)" stroke-width=".3985" stroke-linecap="round" stroke-linejoin="round" fill="none" stroke="#b2b3b2" d="M-29.35672-35.52455C-14.17888-36.74535 11.2691-21.83005 27.48212-2.21059 43.69513 17.40886 44.53455 34.30382 29.35672 35.52461"/>
<path transform="matrix(1,0,0,-1,85.039,38.268007)" stroke-width=".3985" stroke-linecap="round" stroke-linejoin="round" fill="none" stroke="#b2b3b2" d="M15.05156-33.42816C6.42857-34.88072-7.30093-21.09183-15.61351-2.63028-23.92607 15.83124-23.67458 31.97562-15.05159 33.42819"/>
<path transform="matrix(1,0,0,-1,85.039,38.268007)" stroke-width=".3985" stroke-linecap="round" stroke-linejoin="round" fill="none" stroke="#b2b3b2" d="M62.60374-17.18448C44.24446-28.33543 1.33147-29.68118-33.24335-20.19069-67.81818-10.70018-80.96301 6.03352-62.60371 17.18448"/>
<path transform="matrix(1,0,0,-1,85.039,38.268007)" stroke-width=".3985" stroke-linecap="round" stroke-linejoin="round" fill="none" stroke="#b2b3b2" d="M.00041-34.45296C22.50378-32.49611 40.7469-25.52391 40.7468-18.88026 40.74669-12.23663 22.50388-8.43703 .0005-10.39388-22.50284-12.35072-40.74596-19.3229-40.74585-25.96655-40.74574-32.6102-22.50293-36.40979 .00041-34.45296"/>
<path transform="matrix(1,0,0,-1,85.039,38.268007)" stroke-width=".3985" stroke-linecap="round" stroke-linejoin="round" fill="none" stroke="#b2b3b2" d="M59.55829-18.94579C80.4699-7.41643 70.7564 4.61656 37.8635 7.93007 4.9706 11.24359-38.64847 4.58293-59.56009-6.94641-74.24672-15.04399-74.24895-23.76015-59.56198-29.30382"/>
<path transform="matrix(1,0,0,-1,85.039,38.268007)" stroke-width=".3985" stroke-linecap="round" stroke-linejoin="round" fill="none" stroke="#b2b3b2" d="M81.49268 7.08624C81.49243 20.37358 45.00673 27.97278 0 24.05908-45.00676 20.1454-81.49301 6.20105-81.49277-7.08627"/>
<path transform="matrix(1,0,0,-1,85.039,38.268007)" stroke-width=".3985" stroke-linecap="round" stroke-linejoin="round" fill="none" stroke="#b2b3b2" d="M59.56078 29.30382C38.64919 37.19693-4.96939 36.27197-37.86404 27.23787-46.59491 24.84023-54.0094 22.00594-59.5595 18.94579"/>
</svg>
