<svg xmlns="http://www.w3.org/2000/svg" xmlns:xlink="http://www.w3.org/1999/xlink" xmlns:inkscape="http://www.inkscape.org/namespaces/inkscape" version="1.1" width="170.079" height="76.535" viewBox="0 0 170.079 76.535">
<path transform="matrix(1,0,0,-1,85.039,38.268007)" stroke-width=".3985" stroke-linecap="round" stroke-linejoin="round" fill="none" stroke="#000000" d="M75.52145 19.85011C63.57866 31.58536 20.08325 32.21089-21.62605 21.24829-63.33537 10.28568-87.46431-8.11487-75.52151-19.85011"/>
<path transform="matrix(1,0,0,-1,85.039,38.268007)" stroke-width=".3985" stroke-linecap="round" stroke-linejoin="round" fill="none" stroke="#000000" d="M29.35672 35.52455C14.17888 36.74535-11.2691 21.83005-27.48212 2.21059-43.69513-17.40886-44.53455-34.30382-29.35672-35.52461"/>
<path transform="matrix(1,0,0,-1,85.039,38.268007)" stroke-width=".3985" stroke-linecap="round" stroke-linejoin="round" fill="none" stroke="#000000" d="M-15.05156 33.42816C-6.42857 34.88072 7.30093 21.09183 15.61351 2.63028 23.92607-15.83124 23.67458-31.97562 15.05159-33.42819"/>
<path transform="matrix(1,0,0,-1,85.039,38.268007)" stroke-width=".3985" stroke-linecap="round" stroke-linejoin="round" fill="none" stroke="#000000" d="M-62.60374 17.18448C-44.24446 28.33543-1.33147 29.68118 33.24335 20.19069 67.81818 10.70018 80.96301-6.03352 62.60371-17.18448"/>
<path transform="matrix(1,0,0,-1,85.039,38.268007)" stroke-width=".3985" stroke-linecap="round" stroke-linejoin="round" fill="none" stroke="#000000" d="M59.55829-18.94579C38.64667-30.47516-4.9724-37.1358-37.8653-33.8223-46.59587-32.94292-54.01224-31.39885-59.56198-29.30382"/>
<path transform="matrix(1,0,0,-1,85.039,38.268007)" stroke-width=".3985" stroke-linecap="round" stroke-linejoin="round" fill="none" stroke="#000000" d="M81.49268 7.08624C81.49292-6.20108 45.00667-20.14543-.00006-24.05911-45.00682-27.97281-81.49252-20.37361-81.49277-7.08627"/>
<path transform="matrix(1,0,0,-1,85.039,38.268007)" stroke-width=".3985" stroke-linecap="round" stroke-linejoin="round" fill="none" stroke="#000000" d="M59.56078 29.30382C80.47238 21.4107 70.75809 7.68846 37.86343-1.34564 4.9688-10.37975-38.6498-11.3047-59.56139-3.41159-74.24835 2.13205-74.24612 10.84822-59.5595 18.94579"/>
<path transform="matrix(1,0,0,-1,85.039,38.268007)" stroke-width=".3985" stroke-linecap="round" stroke-linejoin="round" fill="none" stroke="#000000" d="M-.00041 34.45296C22.50293 36.40979 40.74574 32.6102 40.74585 25.96655 40.74596 19.3229 22.50284 12.35072-.0005 10.39388-22.50388 8.43703-40.74669 12.23663-40.7468 18.88026-40.7469 25.52391-22.50378 32.49611-.00041 34.45296"/>
<path transform="matrix(1,0,0,-1,85.039,38.268007)" stroke-width=".3985" stroke-linecap="round" stroke-linejoin="round" fill="none" stroke="#000000" d="M81.5027 7.08713C81.5027 26.60968 45.01326 39.26245 0 35.34828-45.01326 31.43413-81.5027 12.43542-81.5027-7.08713-81.5027-26.60968-45.01326-39.26245 0-35.34828 45.01326-31.43413 81.5027-12.43542 81.5027 7.08713ZM0 0"/>
</svg>
