<svg xmlns="http://www.w3.org/2000/svg" xmlns:xlink="http://www.w3.org/1999/xlink" version="1.1" width="178.582" height="3750.226" viewBox="0 0 178.582 3750.226">
<defs>
<clipPath id="clip_42">
<path transform="matrix(1,0,0,-1,0,267.87199)" d="M0 0H178.582V267.873H0Z"/>
</clipPath>
<clipPath id="clip_43">
<path transform="matrix(1,0,0,-1,0,535.745)" d="M0 0H178.582V267.873H0Z"/>
</clipPath>
<clipPath id="clip_44">
<path transform="matrix(1,0,0,-1,0,803.619)" d="M0 0H178.582V267.873H0Z"/>
</clipPath>
<clipPath id="clip_45">
<path transform="matrix(1,0,0,-1,0,1071.492)" d="M0 0H178.582V267.873H0Z"/>
</clipPath>
<clipPath id="clip_46">
<path transform="matrix(1,0,0,-1,0,1339.366)" d="M0 0H178.582V267.873H0Z"/>
</clipPath>
<clipPath id="clip_47">
<path transform="matrix(1,0,0,-1,0,1607.239)" d="M0 0H178.582V267.873H0Z"/>
</clipPath>
<clipPath id="clip_48">
<path transform="matrix(1,0,0,-1,0,1875.1119)" d="M0 0H178.582V267.873H0Z"/>
</clipPath>
<clipPath id="clip_49">
<path transform="matrix(1,0,0,-1,0,2142.986)" d="M0 0H178.582V267.873H0Z"/>
</clipPath>
<clipPath id="clip_50">
<path transform="matrix(1,0,0,-1,0,2410.859)" d="M0 0H178.582V267.873H0Z"/>
</clipPath>
<clipPath id="clip_51">
<path transform="matrix(1,0,0,-1,0,2678.733)" d="M0 0H178.582V267.873H0Z"/>
</clipPath>
<clipPath id="clip_52">
<path transform="matrix(1,0,0,-1,0,2946.606)" d="M0 0H178.582V267.873H0Z"/>
</clipPath>
<clipPath id="clip_53">
<path transform="matrix(1,0,0,-1,0,3214.479)" d="M0 0H178.582V267.873H0Z"/>
</clipPath>
<clipPath id="clip_54">
<path transform="matrix(1,0,0,-1,0,3482.353)" d="M0 0H178.582V267.873H0Z"/>
</clipPath>
<clipPath id="clip_55">
<path transform="matrix(1,0,0,-1,0,3750.226)" d="M0 0H178.582V267.873H0Z"/>
</clipPath>
</defs>
<path transform="matrix(1,0,0,-1,89.291,-133.93701)" stroke-width=".3985" stroke-linecap="butt" stroke-miterlimit="10" stroke-linejoin="miter" fill="none" stroke="#000000" d="M0-267.87684"/>
<g clip-path="url(#clip_42)">
<path transform="matrix(1,0,0,-1,89.291,133.93498)" stroke-width=".59776" stroke-linecap="round" stroke-linejoin="round" fill="none" stroke="#000000" d="M3.43486 129.59168C-7.28899 131.39116-17.52032 74.83363-19.4171 3.2616-21.31387-68.31042-14.1588-127.79219-3.43492-129.59168"/>
<path transform="matrix(1,0,0,-1,89.291,133.93498)" stroke-width=".59776" stroke-linecap="round" stroke-linejoin="round" fill="none" stroke="#000000" d="M-8.161 130.20105C14.37334 131.61328 36.29495 74.4672 40.80183 2.55893 45.3087-69.34932 30.69534-128.78897 8.161-130.2012"/>
<path transform="matrix(1,0,0,-1,89.291,133.93498)" stroke-width=".59776" stroke-linecap="round" stroke-linejoin="round" fill="none" stroke="#000000" d="M-45.26973 112.36862C-9.80656 147.19715 39.20963 125.12166 64.21162 63.06198 89.21364 1.0023 80.73297-77.54019 45.26979-112.36871"/>
<path transform="matrix(1,0,0,-1,89.291,133.93498)" stroke-width=".59776" stroke-linecap="round" stroke-linejoin="round" fill="none" stroke="#000000" d="M-22.01915-122.94894C-58.42224-102.80133-78.07344-31.42035-65.91328 36.4828-53.75311 104.38599-14.38391 143.09664 22.01918 122.94904"/>
<path transform="matrix(1,0,0,-1,89.291,133.93498)" stroke-width=".59776" stroke-linecap="round" stroke-linejoin="round" fill="none" stroke="#000000" d="M38.67067-118.14047C32.02448-123.27559 9.32288-124.2446-12.03494-120.30524-24.7509-117.95995-34.71262-114.25916-38.67047-110.41089"/>
<path transform="matrix(1,0,0,-1,89.291,133.93498)" stroke-width=".59776" stroke-linecap="round" stroke-linejoin="round" fill="none" stroke="#000000" d="M69.80315-72.95338C65.96577-83.03792 31.60391-87.24542-6.94754-82.35027-40.19287-78.12889-66.49585-68.35847-69.80522-59.00041"/>
<path transform="matrix(1,0,0,-1,89.291,133.93498)" stroke-width=".59776" stroke-linecap="round" stroke-linejoin="round" fill="none" stroke="#000000" d="M81.00249-8.09613C81.00175-20.24358 44.73642-26.4666 0-21.99501-44.73642-17.52342-81.00328-4.05124-81.00255 8.09619"/>
<path transform="matrix(1,0,0,-1,89.291,133.93498)" stroke-width=".59776" stroke-linecap="round" stroke-linejoin="round" fill="none" stroke="#000000" d="M69.80397 59.0001C73.6412 48.1484 45.50084 41.62982 6.94905 44.4411-17.98601 46.25922-42.36137 51.68608-56.9784 58.67366-66.93214 63.43202-71.49458 68.51132-69.80441 72.95308"/>
<path transform="matrix(1,0,0,-1,89.291,133.93498)" stroke-width=".59776" stroke-linecap="round" stroke-linejoin="round" fill="none" stroke="#000000" d="M38.67001 110.41112C45.31766 103.9476 33.3933 98.97499 12.03659 99.30452-9.32011 99.63403-32.0224 105.14096-38.67004 111.60446-41.10889 113.9759-41.10939 116.25655-38.67111 118.1407"/>
<path transform="matrix(1,0,0,-1,89.291,133.93498)" stroke-width=".59776" stroke-linecap="round" stroke-linejoin="round" fill="none" stroke="#000000" d="M81.00656-8.09666C81.00656 63.73431 44.73924 125.58812 0 130.05983-44.73924 134.53154-81.00656 79.92764-81.00656 8.09666-81.00656-63.73431-44.73924-125.58812 0-130.05983 44.73924-134.53154 81.00656-79.92764 81.00656-8.09666ZM0 0"/>
</g>
<path transform="matrix(1,0,0,-1,89.291,-133.93701)" stroke-width=".3985" stroke-linecap="butt" stroke-miterlimit="10" stroke-linejoin="miter" fill="none" stroke="#000000" d="M0-535.75369"/>
<g clip-path="url(#clip_43)">
<path transform="matrix(1,0,0,-1,89.291,401.80799)" stroke-width=".59776" stroke-linecap="round" stroke-linejoin="round" fill="none" stroke="#000000" d="M3.76067 125.838C-7.27475 127.69458-17.90466 72.86014-19.98157 3.36221-22.05846-66.1357-14.79614-123.98158-3.7607-125.83815"/>
<path transform="matrix(1,0,0,-1,89.291,401.80799)" stroke-width=".59776" stroke-linecap="round" stroke-linejoin="round" fill="none" stroke="#000000" d="M-8.51898 126.45908C13.72946 127.98027 35.5796 72.59744 40.28424 2.75586 44.98889-67.08571 30.76747-124.93802 8.51901-126.4592"/>
<path transform="matrix(1,0,0,-1,89.291,401.80799)" stroke-width=".59776" stroke-linecap="round" stroke-linejoin="round" fill="none" stroke="#000000" d="M-46.20833 108.29335C-11.11868 142.76451 38.01588 122.22523 63.53561 62.41669 89.05534 2.60814 81.29802-73.82233 46.20839-108.29347"/>
<path transform="matrix(1,0,0,-1,89.291,401.80799)" stroke-width=".59776" stroke-linecap="round" stroke-linejoin="round" fill="none" stroke="#000000" d="M-23.63397-118.59001C-59.98074-97.87311-78.86426-27.98174-65.81215 37.51318-52.76006 103.00813-12.71277 139.30702 23.63397 118.5901"/>
<path transform="matrix(1,0,0,-1,89.291,401.80799)" stroke-width=".59776" stroke-linecap="round" stroke-linejoin="round" fill="none" stroke="#000000" d="M38.50102-114.9123C31.43013-120.16733 8.46019-121.17264-12.80362-117.15779-24.93903-114.86664-34.46571-111.29369-38.50182-107.5196"/>
<path transform="matrix(1,0,0,-1,89.291,401.80799)" stroke-width=".59776" stroke-linecap="round" stroke-linejoin="round" fill="none" stroke="#000000" d="M69.88579-70.92032C65.80284-81.29909 31.2045-85.78569-7.39192-80.94048-40.34833-76.80333-66.40134-67.03218-69.88693-57.50035"/>
<path transform="matrix(1,0,0,-1,89.291,401.80799)" stroke-width=".59776" stroke-linecap="round" stroke-linejoin="round" fill="none" stroke="#000000" d="M81.149-7.7915C81.14827-20.29837 44.81769-26.94902 0-22.64566-44.81766-18.3423-81.14973-4.71538-81.149 7.79147"/>
<path transform="matrix(1,0,0,-1,89.291,401.80799)" stroke-width=".59776" stroke-linecap="round" stroke-linejoin="round" fill="none" stroke="#000000" d="M69.88618 57.50006C73.96806 46.33714 45.98912 39.36809 7.39194 41.93488-17.57257 43.59514-42.05606 48.98256-56.82564 56.06528-67.05968 60.97289-71.71625 66.26831-69.88654 70.92003"/>
<path transform="matrix(1,0,0,-1,89.291,401.80799)" stroke-width=".59776" stroke-linecap="round" stroke-linejoin="round" fill="none" stroke="#000000" d="M38.50063 107.51984C45.57266 100.90698 34.0684 95.6011 12.80493 95.66917-8.45851 95.73724-31.42984 101.15323-38.50188 107.76607-41.26602 110.35045-41.26503 112.85875-38.50221 114.91252"/>
<path transform="matrix(1,0,0,-1,89.291,401.80799)" stroke-width=".59776" stroke-linecap="round" stroke-linejoin="round" fill="none" stroke="#000000" d="M81.15536-7.79259C81.15536 61.9885 44.82143 122.04443 0 126.34822-44.82143 130.65201-81.15536 77.57368-81.15536 7.79259-81.15536-61.9885-44.82143-122.04443 0-126.34822 44.82143-130.65201 81.15536-77.57368 81.15536-7.79259ZM0 0"/>
</g>
<path transform="matrix(1,0,0,-1,89.291,-133.93701)" stroke-width=".3985" stroke-linecap="butt" stroke-miterlimit="10" stroke-linejoin="miter" fill="none" stroke="#000000" d="M0-803.6305"/>
<g clip-path="url(#clip_44)">
<path transform="matrix(1,0,0,-1,89.291,669.682)" stroke-width=".59776" stroke-linecap="round" stroke-linejoin="round" fill="none" stroke="#000000" d="M4.12682 122.11142C-7.23962 124.02586-18.30214 70.90735-20.58113 3.46817-22.86012-63.971-15.49333-120.19713-4.12688-122.11157"/>
<path transform="matrix(1,0,0,-1,89.291,669.682)" stroke-width=".59776" stroke-linecap="round" stroke-linejoin="round" fill="none" stroke="#000000" d="M-8.89081 122.72961C13.04834 124.35587 34.81482 70.72838 39.72455 2.94727 44.6343-64.83385 30.83-121.10347 8.89084-122.72974"/>
<path transform="matrix(1,0,0,-1,89.291,669.682)" stroke-width=".59776" stroke-linecap="round" stroke-linejoin="round" fill="none" stroke="#000000" d="M-47.15746 104.25266C-12.45528 138.32498 36.78926 119.26985 62.8339 61.69264 88.87851 4.11545 81.85966-70.18037 47.15749-104.25272"/>
<path transform="matrix(1,0,0,-1,89.291,669.682)" stroke-width=".59776" stroke-linecap="round" stroke-linejoin="round" fill="none" stroke="#000000" d="M-25.40582-114.17564C-61.66168-92.86035-79.67844-24.45978-65.64787 38.59685-51.6173 101.65347-10.84998 135.49102 25.40585 114.17574"/>
<path transform="matrix(1,0,0,-1,89.291,669.682)" stroke-width=".59776" stroke-linecap="round" stroke-linejoin="round" fill="none" stroke="#000000" d="M38.30017-111.71344C30.7672-117.08937 7.51228-118.12032-13.64093-114.0167-25.14578-111.78482-34.20316-108.35455-38.30042-104.67819"/>
<path transform="matrix(1,0,0,-1,89.291,669.682)" stroke-width=".59776" stroke-linecap="round" stroke-linejoin="round" fill="none" stroke="#000000" d="M69.9781-68.89372C65.62898-79.58046 30.77246-84.35524-7.87552-79.5581-40.52924-75.50482-66.30684-65.74358-69.98051-56.03934"/>
<path transform="matrix(1,0,0,-1,89.291,669.682)" stroke-width=".59776" stroke-linecap="round" stroke-linejoin="round" fill="none" stroke="#000000" d="M81.31679-7.46848C81.31673-20.351 44.91025-27.45055 0-23.32579-44.91022-19.20103-81.31685-5.41406-81.31679 7.46844"/>
<path transform="matrix(1,0,0,-1,89.291,669.682)" stroke-width=".59776" stroke-linecap="round" stroke-linejoin="round" fill="none" stroke="#000000" d="M69.97858 56.03937C74.32744 44.55362 46.52206 37.10876 7.87358 39.41092-17.1238 40.89986-41.72964 46.24088-56.6651 53.41882-67.20561 58.48462-71.9655 64.01546-69.98006 68.89375"/>
<path transform="matrix(1,0,0,-1,89.291,669.682)" stroke-width=".59776" stroke-linecap="round" stroke-linejoin="round" fill="none" stroke="#000000" d="M38.29927 104.67847C45.83267 97.91899 34.79242 92.26228 13.64001 92.04407-7.51239 91.82584-30.76732 97.12856-38.30072 103.88802-41.44212 106.70683-41.44235 109.47188-38.30133 111.7137"/>
<path transform="matrix(1,0,0,-1,89.291,669.682)" stroke-width=".59776" stroke-linecap="round" stroke-linejoin="round" fill="none" stroke="#000000" d="M81.32146-7.46948C81.32146 60.2734 44.91318 118.53247 0 122.6578-44.91318 126.78314-81.32146 75.21239-81.32146 7.46948-81.32146-60.2734-44.91318-118.53247 0-122.6578 44.91318-126.78314 81.32146-75.21239 81.32146-7.46948ZM0 0"/>
</g>
<path transform="matrix(1,0,0,-1,89.291,-133.93701)" stroke-width=".3985" stroke-linecap="butt" stroke-miterlimit="10" stroke-linejoin="miter" fill="none" stroke="#000000" d="M0-1071.5073"/>
<g clip-path="url(#clip_45)">
<path transform="matrix(1,0,0,-1,89.291,937.55496)" stroke-width=".59776" stroke-linecap="round" stroke-linejoin="round" fill="none" stroke="#000000" d="M4.54228 118.40233C-7.17212 120.37187-18.70218 68.95807-21.21083 3.5662-23.71947-61.82567-16.25673-116.43283-4.54231-118.40236"/>
<path transform="matrix(1,0,0,-1,89.291,937.55496)" stroke-width=".59776" stroke-linecap="round" stroke-linejoin="round" fill="none" stroke="#000000" d="M-9.28452 119.00583C12.3231 120.75117 33.99704 68.88655 39.12434 3.16208 44.25166-62.56238 30.89215-117.2605 9.28452-119.00586"/>
<path transform="matrix(1,0,0,-1,89.291,937.55496)" stroke-width=".59776" stroke-linecap="round" stroke-linejoin="round" fill="none" stroke="#000000" d="M-48.1427 100.17178C-13.8578 133.84632 35.49088 116.29436 62.07965 60.97202 88.66844 5.64967 82.42763-66.49739 48.14273-100.1719"/>
<path transform="matrix(1,0,0,-1,89.291,937.55496)" stroke-width=".59776" stroke-linecap="round" stroke-linejoin="round" fill="none" stroke="#000000" d="M-27.3584-109.70381C-63.47427-87.78569-80.50352-20.89958-65.39432 39.68745-50.2851 100.27449-8.75746 131.62194 27.3584 109.70381"/>
<path transform="matrix(1,0,0,-1,89.291,937.55496)" stroke-width=".59776" stroke-linecap="round" stroke-linejoin="round" fill="none" stroke="#000000" d="M38.05511-108.51138C30.00952-114.01744 6.44908-115.08044-14.56851-110.88573-25.37521-108.72897-33.91956-105.46768-38.05666-101.91997"/>
<path transform="matrix(1,0,0,-1,89.291,937.55496)" stroke-width=".59776" stroke-linecap="round" stroke-linejoin="round" fill="none" stroke="#000000" d="M70.0762-66.81566C65.43031-77.83517 30.28966-82.93993-8.41193-78.217-40.72302-74.27382-66.19914-64.54852-70.07649-54.6769"/>
<path transform="matrix(1,0,0,-1,89.291,937.55496)" stroke-width=".59776" stroke-linecap="round" stroke-linejoin="round" fill="none" stroke="#000000" d="M81.49855-7.0583C81.4987-20.34201 45.01012-27.95059 0-24.05249-45.01009-20.15437-81.49844-6.22546-81.49861 7.05824"/>
<path transform="matrix(1,0,0,-1,89.291,937.55496)" stroke-width=".59776" stroke-linecap="round" stroke-linejoin="round" fill="none" stroke="#000000" d="M70.07498 54.67667C74.71964 42.85254 47.10973 34.8731 8.4082 36.8541-16.6244 38.13576-41.3657 43.40097-56.48402 50.66498-67.37071 55.8957-72.24129 61.68315-70.07771 66.81541"/>
<path transform="matrix(1,0,0,-1,89.291,937.55496)" stroke-width=".59776" stroke-linecap="round" stroke-linejoin="round" fill="none" stroke="#000000" d="M38.056 101.92012C46.10205 95.02048 35.58646 88.97751 14.56902 88.42316-6.4484 87.86879-30.01009 93.01282-38.05612 99.91246-41.64659 102.99113-41.64583 106.05461-38.05577 108.51154"/>
<path transform="matrix(1,0,0,-1,89.291,937.55496)" stroke-width=".59776" stroke-linecap="round" stroke-linejoin="round" fill="none" stroke="#000000" d="M81.50659-7.059C81.50659 58.65909 45.01541 115.093 0 118.99162-45.01541 122.89024-81.50659 72.77711-81.50659 7.059-81.50659-58.65909-45.01541-115.093 0-118.99162 45.01541-122.89024 81.50659-72.77711 81.50659-7.059ZM0 0"/>
</g>
<path transform="matrix(1,0,0,-1,89.291,-133.93701)" stroke-width=".3985" stroke-linecap="butt" stroke-miterlimit="10" stroke-linejoin="miter" fill="none" stroke="#000000" d="M0-1339.3842"/>
<g clip-path="url(#clip_46)">
<path transform="matrix(1,0,0,-1,89.291,1205.429)" stroke-width=".59776" stroke-linecap="round" stroke-linejoin="round" fill="none" stroke="#000000" d="M5.01111 114.7185C-7.06781 116.74777-19.1036 67.0313-21.87108 3.67477-24.63855-59.68175-17.09004-112.68933-5.01111-114.7186"/>
<path transform="matrix(1,0,0,-1,89.291,1205.429)" stroke-width=".59776" stroke-linecap="round" stroke-linejoin="round" fill="none" stroke="#000000" d="M-9.69905 115.31557C11.55461 117.17416 33.12683 67.05325 38.48323 3.36641 43.83965-60.32042 30.95276-113.4571 9.69908-115.31569"/>
<path transform="matrix(1,0,0,-1,89.291,1205.429)" stroke-width=".59776" stroke-linecap="round" stroke-linejoin="round" fill="none" stroke="#000000" d="M-49.16187 96.12079C-15.31955 129.36034 34.12646 113.27332 61.27704 60.18742 88.42763 7.10153 83.00423-62.88141 49.1619-96.12094"/>
<path transform="matrix(1,0,0,-1,89.291,1205.429)" stroke-width=".59776" stroke-linecap="round" stroke-linejoin="round" fill="none" stroke="#000000" d="M-29.50081-105.15767C-65.41928-82.60104-81.32866-17.23517-65.03568 40.84218-48.7427 98.91954-6.41754 127.71443 29.5009 105.15779"/>
<path transform="matrix(1,0,0,-1,89.291,1205.429)" stroke-width=".59776" stroke-linecap="round" stroke-linejoin="round" fill="none" stroke="#000000" d="M37.76016-105.35904C29.15196-110.99336 5.26678-112.0659-15.5874-107.7551-25.63062-105.6791-33.61337-102.6052-37.75958-99.2174"/>
<path transform="matrix(1,0,0,-1,89.291,1205.429)" stroke-width=".59776" stroke-linecap="round" stroke-linejoin="round" fill="none" stroke="#000000" d="M70.18025-64.76372C65.20993-76.13261 29.75896-81.56989-9.00055-76.90778-40.93669-73.06615-66.08746-63.38155-70.18263-53.34778"/>
<path transform="matrix(1,0,0,-1,89.291,1205.429)" stroke-width=".59776" stroke-linecap="round" stroke-linejoin="round" fill="none" stroke="#000000" d="M81.70348-6.64508C81.70282-20.35133 45.1238-28.48753 0-24.8173-45.12383-21.1471-81.70418-7.0611-81.7035 6.64514"/>
<path transform="matrix(1,0,0,-1,89.291,1205.429)" stroke-width=".59776" stroke-linecap="round" stroke-linejoin="round" fill="none" stroke="#000000" d="M70.1808 53.34766C75.15126 41.1701 47.7588 32.62999 8.99883 34.27264-16.07127 35.33531-40.96129 40.52068-56.28052 47.87299-67.5518 53.2826-72.54735 59.35335-70.18207 64.7636"/>
<path transform="matrix(1,0,0,-1,89.291,1205.429)" stroke-width=".59776" stroke-linecap="round" stroke-linejoin="round" fill="none" stroke="#000000" d="M37.75902 99.21745C46.36824 92.18282 36.44247 85.73494 15.58826 84.81598-5.26596 83.89702-29.15128 88.85458-37.76051 95.88922-41.88153 99.25623-41.88087 102.66223-37.76071 105.35909"/>
<path transform="matrix(1,0,0,-1,89.291,1205.429)" stroke-width=".59776" stroke-linecap="round" stroke-linejoin="round" fill="none" stroke="#000000" d="M81.70944-6.64594C81.70944 57.06287 45.12744 111.68306 0 115.35355-45.12744 119.02403-81.70944 70.35475-81.70944 6.64594-81.70944-57.06287-45.12744-111.68306 0-115.35355 45.12744-119.02403 81.70944-70.35475 81.70944-6.64594ZM0 0"/>
</g>
<path transform="matrix(1,0,0,-1,89.291,-133.93701)" stroke-width=".3985" stroke-linecap="butt" stroke-miterlimit="10" stroke-linejoin="miter" fill="none" stroke="#000000" d="M0-1607.261"/>
<g clip-path="url(#clip_47)">
<path transform="matrix(1,0,0,-1,89.291,1473.302)" stroke-width=".59776" stroke-linecap="round" stroke-linejoin="round" fill="none" stroke="#000000" d="M5.5463 111.06123C-6.91689 113.15779-19.50385 65.13339-22.5669 3.7967-25.62993-57.53996-18.00954-108.96475-5.54633-111.0613"/>
<path transform="matrix(1,0,0,-1,89.291,1473.302)" stroke-width=".59776" stroke-linecap="round" stroke-linejoin="round" fill="none" stroke="#000000" d="M-10.13686 111.64932C10.72845 113.61806 32.18231 65.22711 37.78049 3.56572 43.37866-58.09564 31.00224-109.68068 10.13692-111.64941"/>
<path transform="matrix(1,0,0,-1,89.291,1473.302)" stroke-width=".59776" stroke-linecap="round" stroke-linejoin="round" fill="none" stroke="#000000" d="M-50.20644 92.09785C-16.83856 124.86655 32.6894 110.19875 60.41727 59.33403 88.14511 8.46931 83.57436-59.32933 50.20647-92.09804"/>
<path transform="matrix(1,0,0,-1,89.291,1473.302)" stroke-width=".59776" stroke-linecap="round" stroke-linejoin="round" fill="none" stroke="#000000" d="M-31.8632-100.52C-67.50807-77.29066-82.13704-13.45305-64.54033 42.06288-46.9436 97.57881-3.78162 123.74944 31.86324 100.5201"/>
<path transform="matrix(1,0,0,-1,89.291,1473.302)" stroke-width=".59776" stroke-linecap="round" stroke-linejoin="round" fill="none" stroke="#000000" d="M37.3915-102.25777C28.15646-108.01968 3.92923-109.0786-16.72206-104.62299-25.91658-102.6393-33.27968-99.7769-37.39165-96.58821"/>
<path transform="matrix(1,0,0,-1,89.291,1473.302)" stroke-width=".59776" stroke-linecap="round" stroke-linejoin="round" fill="none" stroke="#000000" d="M70.28537-62.7309C64.95325-74.47324 29.1625-80.2541-9.65497-75.6424-41.17-71.89821-65.95694-62.26237-70.28604-52.07268"/>
<path transform="matrix(1,0,0,-1,89.291,1473.302)" stroke-width=".59776" stroke-linecap="round" stroke-linejoin="round" fill="none" stroke="#000000" d="M81.91992-6.21135C81.91927-20.36876 45.24347-29.06483-.00002-25.63419-45.24353-22.20355-81.92067-7.94612-81.92001 6.21126"/>
<path transform="matrix(1,0,0,-1,89.291,1473.302)" stroke-width=".59776" stroke-linecap="round" stroke-linejoin="round" fill="none" stroke="#000000" d="M70.2849 52.07274C75.61702 39.52171 48.47212 30.38051 9.65436 31.65524-15.45245 32.4798-40.50095 37.57378-56.042 45.01642-67.7459 50.62135-72.8847 57.01122-70.28651 62.73096"/>
<path transform="matrix(1,0,0,-1,89.291,1473.302)" stroke-width=".59776" stroke-linecap="round" stroke-linejoin="round" fill="none" stroke="#000000" d="M37.3904 96.58842C46.62605 89.42633 37.37311 82.54642 16.72273 81.22218-3.92764 79.89796-28.15602 84.63039-37.39168 91.79247-42.14986 95.48221-42.14986 99.28958-37.39275 102.25798"/>
<path transform="matrix(1,0,0,-1,89.291,1473.302)" stroke-width=".59776" stroke-linecap="round" stroke-linejoin="round" fill="none" stroke="#000000" d="M81.93047-6.2134C81.93047 55.50453 45.24951 108.31717 0 111.74878-45.24951 115.18037-81.93047 67.93132-81.93047 6.2134-81.93047-55.50453-45.24951-108.31717 0-111.74878 45.24951-115.18037 81.93047-67.93132 81.93047-6.2134ZM0 0"/>
</g>
<path transform="matrix(1,0,0,-1,89.291,-133.93701)" stroke-width=".3985" stroke-linecap="butt" stroke-miterlimit="10" stroke-linejoin="miter" fill="none" stroke="#000000" d="M0-1875.1378"/>
<g clip-path="url(#clip_48)">
<path transform="matrix(1,0,0,-1,89.291,1741.1749)" stroke-width=".59776" stroke-linecap="round" stroke-linejoin="round" fill="none" stroke="#000000" d="M6.1597 107.44072C-6.70882 109.61209-19.89879 63.26974-23.30063 3.93208-26.70247-55.40555-19.02826-105.26947-6.15973-107.44084"/>
<path transform="matrix(1,0,0,-1,89.291,1741.1749)" stroke-width=".59776" stroke-linecap="round" stroke-linejoin="round" fill="none" stroke="#000000" d="M-10.59137 108.01003C9.85512 110.0855 31.17244 63.40948 37.02193 3.75754 42.87143-55.89438 31.03786-105.93466 10.59137-108.01015"/>
<path transform="matrix(1,0,0,-1,89.291,1741.1749)" stroke-width=".59776" stroke-linecap="round" stroke-linejoin="round" fill="none" stroke="#000000" d="M-51.28055 88.09813C-18.41293 120.36383 31.19177 107.07881 59.51248 58.42393 87.83319 9.76906 84.14821-55.83255 51.28058-88.09825"/>
<path transform="matrix(1,0,0,-1,89.291,1741.1749)" stroke-width=".59776" stroke-linecap="round" stroke-linejoin="round" fill="none" stroke="#000000" d="M-34.4556-95.80179C-69.74086-71.88763-82.91898-9.60803-63.89008 43.30138-44.86118 96.21082-.82965 119.7159 34.4556 95.80176"/>
<path transform="matrix(1,0,0,-1,89.291,1741.1749)" stroke-width=".59776" stroke-linecap="round" stroke-linejoin="round" fill="none" stroke="#000000" d="M36.94205-99.20456C27.01082-105.09305 2.42-106.11682-17.98306-101.49174-26.24342-99.61922-32.9221-97-36.94322-94.05551"/>
<path transform="matrix(1,0,0,-1,89.291,1741.1749)" stroke-width=".59776" stroke-linecap="round" stroke-linejoin="round" fill="none" stroke="#000000" d="M70.40038-60.69553C64.66599-72.83623 28.49854-78.98297-10.38252-74.42368-41.43394-70.78256-65.8239-61.21619-70.40198-50.88232"/>
<path transform="matrix(1,0,0,-1,89.291,1741.1749)" stroke-width=".59776" stroke-linecap="round" stroke-linejoin="round" fill="none" stroke="#000000" d="M82.17355-5.72699C82.17291-20.36452 45.38335-29.66673 0-26.50357-45.38335-23.34042-82.17426-8.91052-82.17361 5.72699"/>
<path transform="matrix(1,0,0,-1,89.291,1741.1749)" stroke-width=".59776" stroke-linecap="round" stroke-linejoin="round" fill="none" stroke="#000000" d="M70.40094 50.88237C76.1342 37.94234 49.26233 28.15001 10.3809 29.01064-14.76784 29.56738-39.99171 34.54877-55.77774 42.07503-67.97047 47.88855-73.26659 54.63022-70.4014 60.69557"/>
<path transform="matrix(1,0,0,-1,89.291,1741.1749)" stroke-width=".59776" stroke-linecap="round" stroke-linejoin="round" fill="none" stroke="#000000" d="M36.94257 94.05566C46.87477 86.78296 38.38602 79.44307 17.98335 77.66156-2.4193 75.88007-27.0108 80.33182-36.94302 87.60452-42.46779 91.65012-42.46739 95.9292-36.9427 99.20471"/>
<path transform="matrix(1,0,0,-1,89.291,1741.1749)" stroke-width=".59776" stroke-linecap="round" stroke-linejoin="round" fill="none" stroke="#000000" d="M82.17831-5.72766C82.17831 54.02087 45.38641 105.01959 0 108.18292-45.38641 111.34625-82.17831 65.47621-82.17831 5.72766-82.17831-54.02087-45.38641-105.01959 0-108.18292 45.38641-111.34625 82.17831-65.47621 82.17831-5.72766ZM0 0"/>
</g>
<path transform="matrix(1,0,0,-1,89.291,-133.93701)" stroke-width=".3985" stroke-linecap="butt" stroke-miterlimit="10" stroke-linejoin="miter" fill="none" stroke="#000000" d="M0-2143.0147"/>
<g clip-path="url(#clip_49)">
<path transform="matrix(1,0,0,-1,89.291,2009.0491)" stroke-width=".59776" stroke-linecap="round" stroke-linejoin="round" fill="none" stroke="#000000" d="M6.86148 103.85915C-6.43112 106.1062-20.27864 61.429-24.06818 4.06857-27.85771-53.29184-20.15414-101.61215-6.86151-103.8592"/>
<path transform="matrix(1,0,0,-1,89.291,2009.0491)" stroke-width=".59776" stroke-linecap="round" stroke-linejoin="round" fill="none" stroke="#000000" d="M-11.06862 104.40407C8.9224 106.58635 30.08359 61.61284 36.19664 3.95154 42.30968-53.70975 31.05968-102.2219 11.06865-104.40419"/>
<path transform="matrix(1,0,0,-1,89.291,2009.0491)" stroke-width=".59776" stroke-linecap="round" stroke-linejoin="round" fill="none" stroke="#000000" d="M-52.38602 84.10962C-20.05681 115.84346 29.60573 103.91096 58.53778 57.4589 87.46983 11.00682 84.71521-52.3759 52.38602-84.10974"/>
<path transform="matrix(1,0,0,-1,89.291,2009.0491)" stroke-width=".59776" stroke-linecap="round" stroke-linejoin="round" fill="none" stroke="#000000" d="M-37.29335-90.98645C-72.10779-66.38156-83.63289-5.6975-63.03705 44.5529-42.44121 94.80331 2.47893 115.5914 37.29338 90.98651"/>
<path transform="matrix(1,0,0,-1,89.291,2009.0491)" stroke-width=".59776" stroke-linecap="round" stroke-linejoin="round" fill="none" stroke="#000000" d="M36.37662-96.20926C25.66753-102.21968 .69887-103.17764-19.39201-98.34961-26.613-96.61446-32.52725-94.27394-36.37663-91.62927"/>
<path transform="matrix(1,0,0,-1,89.291,2009.0491)" stroke-width=".59776" stroke-linecap="round" stroke-linejoin="round" fill="none" stroke="#000000" d="M70.51541-58.66376C64.33199-71.23224 27.74887-77.76573-11.19608-73.25642-41.72438-69.72179-65.66963-60.24722-70.51633-49.78482"/>
<path transform="matrix(1,0,0,-1,89.291,2009.0491)" stroke-width=".59776" stroke-linecap="round" stroke-linejoin="round" fill="none" stroke="#000000" d="M82.44565-5.19075C82.44502-20.34047 45.53297-30.29831 0-27.43137-45.533-24.56442-82.44632-9.95897-82.44571 5.19072"/>
<path transform="matrix(1,0,0,-1,89.291,2009.0491)" stroke-width=".59776" stroke-linecap="round" stroke-linejoin="round" fill="none" stroke="#000000" d="M70.51537 49.78462C76.69885 36.43768 50.1406 25.9375 11.19609 26.33203-13.99268 26.5874-39.41359 31.43-55.47174 39.034-68.22134 45.07112-73.69171 52.2095-70.51637 58.66356"/>
<path transform="matrix(1,0,0,-1,89.291,2009.0491)" stroke-width=".59776" stroke-linecap="round" stroke-linejoin="round" fill="none" stroke="#000000" d="M36.37521 91.62927C47.08559 84.27066 39.48203 76.44173 19.39215 74.143-.69771 71.84428-25.66653 75.94617-36.3769 83.3048-42.83676 87.74295-42.83713 92.58409-36.37805 96.20926"/>
<path transform="matrix(1,0,0,-1,89.291,2009.0491)" stroke-width=".59776" stroke-linecap="round" stroke-linejoin="round" fill="none" stroke="#000000" d="M82.45255-5.19174C82.45255 52.612 45.53786 101.79428 0 104.66164-45.53786 107.52898-82.45255 62.9955-82.45255 5.19174-82.45255-52.612-45.53786-101.79428 0-104.66164 45.53786-107.52898 82.45255-62.9955 82.45255-5.19174ZM0 0"/>
</g>
<path transform="matrix(1,0,0,-1,89.291,-133.93701)" stroke-width=".3985" stroke-linecap="butt" stroke-miterlimit="10" stroke-linejoin="miter" fill="none" stroke="#000000" d="M0-2410.8917"/>
<g clip-path="url(#clip_50)">
<path transform="matrix(1,0,0,-1,89.291,2276.9219)" stroke-width=".59776" stroke-linecap="round" stroke-linejoin="round" fill="none" stroke="#000000" d="M7.67137 100.32211C-6.06488 102.6483-20.63521 59.61877-24.87186 4.2128-29.1085-51.19318-21.4077-97.996-7.67143-100.32217"/>
<path transform="matrix(1,0,0,-1,89.291,2276.9219)" stroke-width=".59776" stroke-linecap="round" stroke-linejoin="round" fill="none" stroke="#000000" d="M-11.56357 100.8316C7.93015 103.11664 28.90993 59.82657 35.29619 4.13838 41.68245-51.54979 31.05737-98.54662 11.56363-100.83167"/>
<path transform="matrix(1,0,0,-1,89.291,2276.9219)" stroke-width=".59776" stroke-linecap="round" stroke-linejoin="round" fill="none" stroke="#000000" d="M-53.51917 80.1403C-21.76103 111.30544 27.94629 100.69032 57.50362 56.43042 87.06094 12.17052 85.2773-48.97527 53.51917-80.1404"/>
<path transform="matrix(1,0,0,-1,89.291,2276.9219)" stroke-width=".59776" stroke-linecap="round" stroke-linejoin="round" fill="none" stroke="#000000" d="M-40.39728-86.07071C-74.60522-60.78015-84.25092-1.74292-61.93988 45.79198-39.62883 93.32687 6.18939 111.36133 40.39734 86.07077"/>
<path transform="matrix(1,0,0,-1,89.291,2276.9219)" stroke-width=".59776" stroke-linecap="round" stroke-linejoin="round" fill="none" stroke="#000000" d="M35.66472-93.28273C24.0785-99.40738-1.28166-100.26164-20.97885-95.19095-27.04143-93.63033-32.09737-91.61346-35.66386-89.33344"/>
<path transform="matrix(1,0,0,-1,89.291,2276.9219)" stroke-width=".59776" stroke-linecap="round" stroke-linejoin="round" fill="none" stroke="#000000" d="M70.63454-56.62799C63.94505-69.658 26.89793-76.6075-12.1123-72.1494-42.04735-68.72853-65.50612-59.37253-70.63869-48.80475"/>
<path transform="matrix(1,0,0,-1,89.291,2276.9219)" stroke-width=".59776" stroke-linecap="round" stroke-linejoin="round" fill="none" stroke="#000000" d="M82.7547-4.58253C82.75409-20.2821 45.70322-30.95827-.00002-28.42726-45.70328-25.89626-82.7554-11.11711-82.75479 4.58244"/>
<path transform="matrix(1,0,0,-1,89.291,2276.9219)" stroke-width=".59776" stroke-linecap="round" stroke-linejoin="round" fill="none" stroke="#000000" d="M70.63739 48.80417C77.32622 35.03265 51.12231 23.75734 12.11014 23.61993-13.12265 23.53117-38.75508 28.20282-55.11832 35.87231-68.50414 42.14601-74.17534 49.73318-70.63585 56.62741"/>
<path transform="matrix(1,0,0,-1,89.291,2276.9219)" stroke-width=".59776" stroke-linecap="round" stroke-linejoin="round" fill="none" stroke="#000000" d="M35.66325 89.33357C47.2503 81.92604 40.67583 73.57843 20.97952 70.68881 1.28323 67.7992-24.0774 71.46191-35.66444 78.86943-43.28027 83.73833-43.28078 89.25723-35.66533 93.28287"/>
<path transform="matrix(1,0,0,-1,89.291,2276.9219)" stroke-width=".59776" stroke-linecap="round" stroke-linejoin="round" fill="none" stroke="#000000" d="M82.76009-4.58403C82.76009 51.30385 45.7077 98.66095 0 101.19267-45.7077 103.7244-82.76009 60.47191-82.76009 4.58403-82.76009-51.30385-45.7077-98.66095 0-101.19267 45.7077-103.7244 82.76009-60.47191 82.76009-4.58403ZM0 0"/>
</g>
<path transform="matrix(1,0,0,-1,89.291,-133.93701)" stroke-width=".3985" stroke-linecap="butt" stroke-miterlimit="10" stroke-linejoin="miter" fill="none" stroke="#000000" d="M0-2678.7684"/>
<g clip-path="url(#clip_51)">
<path transform="matrix(1,0,0,-1,89.291,2544.796)" stroke-width=".59776" stroke-linecap="round" stroke-linejoin="round" fill="none" stroke="#000000" d="M8.60445 96.84998C-5.59512 99.24904-20.95851 57.8341-25.71045 4.34511-30.46239-49.14388-22.80408-94.45102-8.60448-96.8501"/>
<path transform="matrix(1,0,0,-1,89.291,2544.796)" stroke-width=".59776" stroke-linecap="round" stroke-linejoin="round" fill="none" stroke="#000000" d="M-12.07376 97.29918C6.87674 99.69226 27.64455 58.07143 34.31256 4.3341 40.98058-49.4032 31.02435-94.90613 12.07382-97.29921"/>
<path transform="matrix(1,0,0,-1,89.291,2544.796)" stroke-width=".59776" stroke-linecap="round" stroke-linejoin="round" fill="none" stroke="#000000" d="M-54.68214 76.1708C-23.53519 106.74542 26.19756 97.42772 56.39754 55.3604 86.59752 13.29308 85.82916-45.59616 54.6822-76.17078"/>
<path transform="matrix(1,0,0,-1,89.291,2544.796)" stroke-width=".59776" stroke-linecap="round" stroke-linejoin="round" fill="none" stroke="#000000" d="M-43.76483-81.08247C-77.20929-55.14714-84.72844 2.18019-60.55775 46.95995-36.38708 91.73972 10.32047 107.01788 43.76492 81.08253"/>
<path transform="matrix(1,0,0,-1,89.291,2544.796)" stroke-width=".59776" stroke-linecap="round" stroke-linejoin="round" fill="none" stroke="#000000" d="M34.75891-90.43373C26.6268-94.4618 12.48022-96.33669-2.33904-95.35037-15.50104-94.47446-27.53465-91.44862-34.75768-87.19897"/>
<path transform="matrix(1,0,0,-1,89.291,2544.796)" stroke-width=".59776" stroke-linecap="round" stroke-linejoin="round" fill="none" stroke="#000000" d="M70.75572-54.5706C63.49672-68.10112 25.9334-75.50728-13.14427-71.11267-42.41232-67.82114-65.32146-58.625-70.75732-47.98502"/>
<path transform="matrix(1,0,0,-1,89.291,2544.796)" stroke-width=".59776" stroke-linecap="round" stroke-linejoin="round" fill="none" stroke="#000000" d="M83.10378-3.86716C83.1035-20.15529 45.89621-31.62862 .00002-29.49277-45.89615-27.35692-83.10402-12.42091-83.10374 3.86719"/>
<path transform="matrix(1,0,0,-1,89.291,2544.796)" stroke-width=".59776" stroke-linecap="round" stroke-linejoin="round" fill="none" stroke="#000000" d="M70.75577 47.98486C78.01424 33.77885 52.21922 21.64839 13.1417 20.89085-12.13339 20.40082-38.0034 24.85175-54.70688 32.56401-68.8241 39.08217-74.72594 47.17418-70.75728 54.57045"/>
<path transform="matrix(1,0,0,-1,89.291,2544.796)" stroke-width=".59776" stroke-linecap="round" stroke-linejoin="round" fill="none" stroke="#000000" d="M34.7573 87.19922C47.33133 79.80162 41.96243 70.91132 22.76637 67.3422 3.5703 63.77306-22.18446 66.8769-34.75851 74.2745-43.81389 79.602-43.81422 85.94893-34.7593 90.43398"/>
<path transform="matrix(1,0,0,-1,89.291,2544.796)" stroke-width=".59776" stroke-linecap="round" stroke-linejoin="round" fill="none" stroke="#000000" d="M83.10654-3.8686C83.10654 50.13803 45.89905 95.64986 0 97.78644-45.89905 99.92303-83.10654 57.87526-83.10654 3.8686-83.10654-50.13803-45.89905-95.64986 0-97.78644 45.89905-99.92303 83.10654-57.87526 83.10654-3.8686ZM0 0"/>
</g>
<path transform="matrix(1,0,0,-1,89.291,-133.93701)" stroke-width=".3985" stroke-linecap="butt" stroke-miterlimit="10" stroke-linejoin="miter" fill="none" stroke="#000000" d="M0-2946.6453"/>
<g clip-path="url(#clip_52)">
<path transform="matrix(1,0,0,-1,89.291,2812.669)" stroke-width=".59776" stroke-linecap="round" stroke-linejoin="round" fill="none" stroke="#000000" d="M9.68773 93.45888C-4.99258 95.93605-21.23091 56.10327-26.58095 4.48747-31.93097-47.1283-24.36804-90.98172-9.68773-93.45888"/>
<path transform="matrix(1,0,0,-1,89.291,2812.669)" stroke-width=".59776" stroke-linecap="round" stroke-linejoin="round" fill="none" stroke="#000000" d="M-12.59517 93.8251C5.76042 96.32718 26.28004 56.34998 33.2358 4.5321 40.19153-47.28577 30.95082-91.32314 12.59523-93.82523"/>
<path transform="matrix(1,0,0,-1,89.291,2812.669)" stroke-width=".59776" stroke-linecap="round" stroke-linejoin="round" fill="none" stroke="#000000" d="M-55.86801 72.22496C-25.37057 102.17505 24.36723 94.11777 55.22188 54.22998 86.07652 14.3422 86.36542-42.2749 55.86798-72.22499"/>
<path transform="matrix(1,0,0,-1,89.291,2812.669)" stroke-width=".59776" stroke-linecap="round" stroke-linejoin="round" fill="none" stroke="#000000" d="M-47.39291-76.02788C-79.88745-49.49783-85.01077 6.04736-58.83623 48.03665-32.66167 90.02592 14.89845 102.55797 47.39297 76.02791"/>
<path transform="matrix(1,0,0,-1,89.291,2812.669)" stroke-width=".59776" stroke-linecap="round" stroke-linejoin="round" fill="none" stroke="#000000" d="M33.59024-87.6954C24.73589-91.77422 10.1456-93.57767-4.67305-92.42451-16.21158-91.52658-26.69398-88.92438-33.58919-85.2454"/>
<path transform="matrix(1,0,0,-1,89.291,2812.669)" stroke-width=".59776" stroke-linecap="round" stroke-linejoin="round" fill="none" stroke="#000000" d="M70.87611-52.50925C62.97224-66.58092 24.8326-74.4806-14.31131-70.15297-42.82661-67.00037-65.1197-58.00891-70.87743-47.33827"/>
<path transform="matrix(1,0,0,-1,89.291,2812.669)" stroke-width=".59776" stroke-linecap="round" stroke-linejoin="round" fill="none" stroke="#000000" d="M83.49431-3.04611C83.49384-19.9625 46.11212-32.31265-.00003-30.63016-46.11221-28.94766-83.49487-13.87029-83.4944 3.04608"/>
<path transform="matrix(1,0,0,-1,89.291,2812.669)" stroke-width=".59776" stroke-linecap="round" stroke-linejoin="round" fill="none" stroke="#000000" d="M70.87639 47.3379C78.78032 32.68977 53.45503 19.62146 14.31183 18.14993-11.00653 17.19824-37.13924 21.37448-54.22577 29.10391-69.19127 35.87386-75.35454 44.53708-70.87715 52.50888"/>
<path transform="matrix(1,0,0,-1,89.291,2812.669)" stroke-width=".59776" stroke-linecap="round" stroke-linejoin="round" fill="none" stroke="#000000" d="M33.58858 85.24565C47.27986 77.94067 43.34041 68.49585 24.7894 64.14996 6.2384 59.8041-19.89891 62.20288-33.5902 69.50786-44.46391 75.30945-44.46344 82.68707-33.59085 87.69565"/>
<path transform="matrix(1,0,0,-1,89.291,2812.669)" stroke-width=".59776" stroke-linecap="round" stroke-linejoin="round" fill="none" stroke="#000000" d="M83.50058-3.04678C83.50058 49.1197 46.11668 92.7719 0 94.45459-46.11668 96.1373-83.50058 55.21329-83.50058 3.04678-83.50058-49.1197-46.11668-92.7719 0-94.45459 46.11668-96.1373 83.50058-55.21329 83.50058-3.04678ZM0 0"/>
</g>
<path transform="matrix(1,0,0,-1,89.291,-133.93701)" stroke-width=".3985" stroke-linecap="butt" stroke-miterlimit="10" stroke-linejoin="miter" fill="none" stroke="#000000" d="M0-3214.522"/>
<g clip-path="url(#clip_53)">
<path transform="matrix(1,0,0,-1,89.291,3080.542)" stroke-width=".59776" stroke-linecap="round" stroke-linejoin="round" fill="none" stroke="#000000" d="M10.93988 90.13785C-4.23503 92.69623-21.43495 54.41331-27.47693 4.63193-33.5189-45.14944-26.11491-87.57948-10.93997-90.13788"/>
<path transform="matrix(1,0,0,-1,89.291,3080.542)" stroke-width=".59776" stroke-linecap="round" stroke-linejoin="round" fill="none" stroke="#000000" d="M-13.11377 90.41687C4.58936 93.00299 24.81178 54.61974 32.05411 4.68367 39.29643-45.25238 30.81693-87.83086 13.1138-90.41696"/>
<path transform="matrix(1,0,0,-1,89.291,3080.542)" stroke-width=".59776" stroke-linecap="round" stroke-linejoin="round" fill="none" stroke="#000000" d="M-57.0765 68.34206C-27.26942 97.60713 22.4494 90.73242 53.97185 52.98895 85.4943 15.24548 86.88359-39.07703 57.0765-68.34212"/>
<path transform="matrix(1,0,0,-1,89.291,3080.542)" stroke-width=".59776" stroke-linecap="round" stroke-linejoin="round" fill="none" stroke="#000000" d="M-51.25134-70.90176C-82.58693-43.8402-85.04404 9.84091-56.73842 48.99872-28.43279 88.15652 19.9158 97.9634 51.25137 70.90182"/>
<path transform="matrix(1,0,0,-1,89.291,3080.542)" stroke-width=".59776" stroke-linecap="round" stroke-linejoin="round" fill="none" stroke="#000000" d="M32.05637-85.11797C22.38028-89.21245 7.32283-90.8805-7.43237-89.492-17.04187-88.58772-25.75328-86.45477-32.05592-83.46269"/>
<path transform="matrix(1,0,0,-1,89.291,3080.542)" stroke-width=".59776" stroke-linecap="round" stroke-linejoin="round" fill="none" stroke="#000000" d="M70.99023-50.49818C62.35359-65.15007 23.56828-73.55075-15.63847-69.26126-43.29167-66.23564-64.90028-57.48021-70.99263-46.83115"/>
<path transform="matrix(1,0,0,-1,89.291,3080.542)" stroke-width=".59776" stroke-linecap="round" stroke-linejoin="round" fill="none" stroke="#000000" d="M83.93727-2.16823C83.9368-19.75624 46.35762-33.04338 0-31.8457-46.35762-30.64803-83.93774-15.41978-83.93727 2.1682"/>
<path transform="matrix(1,0,0,-1,89.291,3080.542)" stroke-width=".59776" stroke-linecap="round" stroke-linejoin="round" fill="none" stroke="#000000" d="M70.99178 46.83093C79.62875 31.73248 54.847 17.65698 15.63925 15.39293-9.71977 13.92865-36.14342 17.78656-53.66078 25.51147-69.61195 32.54547-76.07759 41.86891-70.99109 50.49797"/>
<path transform="matrix(1,0,0,-1,89.291,3080.542)" stroke-width=".59776" stroke-linecap="round" stroke-linejoin="round" fill="none" stroke="#000000" d="M32.05591 83.46272C47.01743 76.35938 44.79417 66.3701 27.09016 61.15103 9.38615 55.93196-17.0944 57.45949-32.05594 64.56284-45.27203 70.8375-45.2711 79.52597-32.05638 85.118"/>
<path transform="matrix(1,0,0,-1,89.291,3080.542)" stroke-width=".59776" stroke-linecap="round" stroke-linejoin="round" fill="none" stroke="#000000" d="M83.94609-2.16959C83.94609 48.2043 46.36273 90.0106 0 91.20883-46.36273 92.40707-83.94609 52.54349-83.94609 2.16959-83.94609-48.2043-46.36273-90.0106 0-91.20883 46.36273-92.40707 83.94609-52.54349 83.94609-2.16959ZM0 0"/>
</g>
<path transform="matrix(1,0,0,-1,89.291,-133.93701)" stroke-width=".3985" stroke-linecap="butt" stroke-miterlimit="10" stroke-linejoin="miter" fill="none" stroke="#000000" d="M0-3482.399"/>
<g clip-path="url(#clip_54)">
<path transform="matrix(1,0,0,-1,89.291,3348.416)" stroke-width=".59776" stroke-linecap="round" stroke-linejoin="round" fill="none" stroke="#000000" d="M12.40697 86.93289C-3.27101 89.57372-21.53548 52.79353-28.3876 4.78194-35.23973-43.22963-28.08502-84.29208-12.40703-86.93292"/>
<path transform="matrix(1,0,0,-1,89.291,3348.416)" stroke-width=".59776" stroke-linecap="round" stroke-linejoin="round" fill="none" stroke="#000000" d="M-13.63222 87.08798C3.35251 89.75746 23.22522 52.92989 30.75409 4.83315 38.28297-43.2636 30.61702-84.41855 13.63228-87.08804"/>
<path transform="matrix(1,0,0,-1,89.291,3348.416)" stroke-width=".59776" stroke-linecap="round" stroke-linejoin="round" fill="none" stroke="#000000" d="M-58.31636 64.47481C-29.24927 93.02461 20.42455 87.30348 52.63103 51.69536 84.8375 16.08723 87.38351-35.92506 58.31642-64.47487"/>
<path transform="matrix(1,0,0,-1,89.291,3348.416)" stroke-width=".59776" stroke-linecap="round" stroke-linejoin="round" fill="none" stroke="#000000" d="M-55.31584-65.78627C-85.25594-38.31334-84.76074 13.4115-54.2108 49.74454-23.66086 86.07759 25.37575 93.25922 55.31584 65.7863"/>
<path transform="matrix(1,0,0,-1,89.291,3348.416)" stroke-width=".59776" stroke-linecap="round" stroke-linejoin="round" fill="none" stroke="#000000" d="M29.97678-82.73012C19.35616-86.79247 3.82277-88.24455-10.76118-86.53773-18.03897-85.68591-24.67627-84.0911-29.97661-81.92093"/>
<path transform="matrix(1,0,0,-1,89.291,3348.416)" stroke-width=".59776" stroke-linecap="round" stroke-linejoin="round" fill="none" stroke="#000000" d="M71.08673-48.4898C61.60677-63.78105 22.09508-72.73027-17.16476-68.47697-43.82375-65.589-64.65154-57.12817-71.08832-46.57076"/>
<path transform="matrix(1,0,0,-1,89.291,3348.416)" stroke-width=".59776" stroke-linecap="round" stroke-linejoin="round" fill="none" stroke="#000000" d="M84.44113-1.14008C84.44061-19.45586 46.63478-33.794-.00002-33.16415-46.63484-32.5343-84.44174-17.17567-84.44122 1.14008"/>
<path transform="matrix(1,0,0,-1,89.291,3348.416)" stroke-width=".59776" stroke-linecap="round" stroke-linejoin="round" fill="none" stroke="#000000" d="M71.08582 46.57027C80.56496 31.02289 56.42372 15.83028 17.16345 12.63742-22.0968 9.44456-61.6094 19.45947-71.08855 35.00685-73.81075 39.47269-73.81287 44.09723-71.08923 48.48932"/>
<path transform="matrix(1,0,0,-1,89.291,3348.416)" stroke-width=".59776" stroke-linecap="round" stroke-linejoin="round" fill="none" stroke="#000000" d="M29.97542 81.92111C46.39655 75.19733 46.28712 64.6997 29.73177 58.47386 13.17639 52.248-13.55592 52.6519-29.97707 59.3757-46.30142 66.06006-46.30234 76.4865-29.97797 82.7303"/>
<path transform="matrix(1,0,0,-1,89.291,3348.416)" stroke-width=".59776" stroke-linecap="round" stroke-linejoin="round" fill="none" stroke="#000000" d="M84.45172-1.14058C84.45172 47.49803 46.64198 87.43695 0 88.06688-46.64198 88.69681-84.45172 49.7792-84.45172 1.14058-84.45172-47.49803-46.64198-87.43695 0-88.06688 46.64198-88.69681 84.45172-49.7792 84.45172-1.14058ZM0 0"/>
</g>
<path transform="matrix(1,0,0,-1,89.291,-133.93701)" stroke-width=".3985" stroke-linecap="butt" stroke-miterlimit="10" stroke-linejoin="miter" fill="none" stroke="#000000" d="M0-3750.2757"/>
<g clip-path="url(#clip_55)">
<path transform="matrix(1,0,0,-1,89.291,3616.289)" stroke-width=".59776" stroke-linecap="round" stroke-linejoin="round" fill="none" stroke="#000000" d="M14.11925 83.74403C-2.06548 86.60141-21.50749 51.42409-29.30524 5.1739-37.103-41.07625-30.30397-80.88667-14.11925-83.74406"/>
<path transform="matrix(1,0,0,-1,89.291,3616.289)" stroke-width=".59776" stroke-linecap="round" stroke-linejoin="round" fill="none" stroke="#000000" d="M-14.12599 83.97206C2.06645 86.56805 21.51778 51.07675 29.31924 4.70064 37.12071-41.67546 30.31845-81.37607 14.12599-83.97206"/>
<path transform="matrix(1,0,0,-1,89.291,3616.289)" stroke-width=".59776" stroke-linecap="round" stroke-linejoin="round" fill="none" stroke="#000000" d="M-59.57397 61.15959C-31.29497 88.70572 18.30327 83.65443 51.20454 49.87746 84.10582 16.10048 87.85301-33.61351 59.574-61.15965"/>
<path transform="matrix(1,0,0,-1,89.291,3616.289)" stroke-width=".59776" stroke-linecap="round" stroke-linejoin="round" fill="none" stroke="#000000" d="M-59.55608-60.20763C-87.83946-32.21141-84.10463 17.44012-51.21262 50.69133-18.3206 83.94252 31.2727 88.20384 59.5561 60.20763"/>
<path transform="matrix(1,0,0,-1,89.291,3616.289)" stroke-width=".59776" stroke-linecap="round" stroke-linejoin="round" fill="none" stroke="#000000" d="M27.07225-80.83809C11.35909-85.9893-11.3585-85.8046-27.07198-80.3984"/>
<path transform="matrix(1,0,0,-1,89.291,3616.289)" stroke-width=".59776" stroke-linecap="round" stroke-linejoin="round" fill="none" stroke="#000000" d="M71.15965-47.12311C60.70804-63.02394 20.37659-72.20912-18.92442-67.63844-44.43945-64.67084-64.37666-56.39987-71.16164-45.96643"/>
<path transform="matrix(1,0,0,-1,89.291,3616.289)" stroke-width=".59776" stroke-linecap="round" stroke-linejoin="round" fill="none" stroke="#000000" d="M85.02312-.69112C85.02309-19.7912 46.95746-34.9651 0-34.5834-46.95746-34.20169-85.02318-18.40898-85.02315 .69109"/>
<path transform="matrix(1,0,0,-1,89.291,3616.289)" stroke-width=".59776" stroke-linecap="round" stroke-linejoin="round" fill="none" stroke="#000000" d="M71.1606 45.96625C81.61224 29.8957 58.2243 13.68045 18.9238 9.74867-20.3767 5.8169-60.70918 15.65784-71.16081 31.72838-74.45657 36.79741-74.45769 42.10742-71.16068 47.12294"/>
<path transform="matrix(1,0,0,-1,89.291,3616.289)" stroke-width=".59776" stroke-linecap="round" stroke-linejoin="round" fill="none" stroke="#000000" d="M27.07143 80.39859C45.17482 74.17003 47.73013 63.24977 32.779 56.00769 17.82787 48.7656-8.9685 47.94403-27.07188 54.17259-38.78123 58.2012-44.44366 64.42572-41.92297 70.49652-40.22617 74.58194-34.95232 78.25517-27.0728 80.83827"/>
<path transform="matrix(1,0,0,-1,89.291,3616.289)" stroke-width=".59776" stroke-linecap="round" stroke-linejoin="round" fill="none" stroke="#000000" d="M85.03394-.6916C85.03394 46.28029 46.96355 84.66711 0 85.04907-46.96355 85.43103-85.03394 47.66351-85.03394 .6916-85.03394-46.28029-46.96355-84.66711 0-85.04907 46.96355-85.43103 85.03394-47.66351 85.03394-.6916ZM0 0"/>
</g>
</svg>
