<svg xmlns="http://www.w3.org/2000/svg" xmlns:xlink="http://www.w3.org/1999/xlink" version="1.1" width="178.582" height="5000.302" viewBox="0 0 178.582 5000.302">
<defs>
<clipPath id="clip_42">
<path transform="matrix(1,0,0,-1,0,357.16297)" d="M0 0H178.582V357.164H0Z"/>
</clipPath>
<clipPath id="clip_43">
<path transform="matrix(1,0,0,-1,0,714.328)" d="M0 0H178.582V357.164H0Z"/>
</clipPath>
<clipPath id="clip_44">
<path transform="matrix(1,0,0,-1,0,1071.492)" d="M0 0H178.582V357.164H0Z"/>
</clipPath>
<clipPath id="clip_45">
<path transform="matrix(1,0,0,-1,0,1428.657)" d="M0 0H178.582V357.164H0Z"/>
</clipPath>
<clipPath id="clip_46">
<path transform="matrix(1,0,0,-1,0,1785.821)" d="M0 0H178.582V357.164H0Z"/>
</clipPath>
<clipPath id="clip_47">
<path transform="matrix(1,0,0,-1,0,2142.986)" d="M0 0H178.582V357.164H0Z"/>
</clipPath>
<clipPath id="clip_48">
<path transform="matrix(1,0,0,-1,0,2500.15)" d="M0 0H178.582V357.164H0Z"/>
</clipPath>
<clipPath id="clip_49">
<path transform="matrix(1,0,0,-1,0,2857.315)" d="M0 0H178.582V357.164H0Z"/>
</clipPath>
<clipPath id="clip_50">
<path transform="matrix(1,0,0,-1,0,3214.479)" d="M0 0H178.582V357.164H0Z"/>
</clipPath>
<clipPath id="clip_51">
<path transform="matrix(1,0,0,-1,0,3571.644)" d="M0 0H178.582V357.164H0Z"/>
</clipPath>
<clipPath id="clip_52">
<path transform="matrix(1,0,0,-1,0,3928.808)" d="M0 0H178.582V357.164H0Z"/>
</clipPath>
<clipPath id="clip_53">
<path transform="matrix(1,0,0,-1,0,4285.973)" d="M0 0H178.582V357.164H0Z"/>
</clipPath>
<clipPath id="clip_54">
<path transform="matrix(1,0,0,-1,0,4643.137)" d="M0 0H178.582V357.164H0Z"/>
</clipPath>
<clipPath id="clip_55">
<path transform="matrix(1,0,0,-1,0,5000.302)" d="M0 0H178.582V357.164H0Z"/>
</clipPath>
</defs>
<path transform="matrix(1,0,0,-1,89.291,-178.58301)" stroke-width=".3985" stroke-linecap="butt" stroke-miterlimit="10" stroke-linejoin="miter" fill="none" stroke="#000000" d="M0-357.1691"/>
<g clip-path="url(#clip_42)">
<path transform="matrix(1,0,0,-1,89.291,178.58097)" stroke-width=".59776" stroke-linecap="round" stroke-linejoin="round" fill="none" stroke="#000000" d="M3.86449 156.95217C-8.66113 159.06493-20.54538 90.5108-22.67949 3.82799-24.8136-82.85481-16.39015-154.83943-3.86452-156.9522"/>
<path transform="matrix(1,0,0,-1,89.291,178.58097)" stroke-width=".59776" stroke-linecap="round" stroke-linejoin="round" fill="none" stroke="#000000" d="M-3.86511 156.95174C8.66252 159.06577 20.54866 90.51288 22.68312 3.83028 24.81758-82.8523 16.39279-154.8378 3.86514-156.95183"/>
<path transform="matrix(1,0,0,-1,89.291,178.58097)" stroke-width=".59776" stroke-linecap="round" stroke-linejoin="round" fill="none" stroke="#000000" d="M-21.13313 147.238C7.23796 175.10337 39.6989 131.77513 51.36993 50.45703 63.04099-30.86105 49.50429-119.37294 21.1332-147.23828"/>
<path transform="matrix(1,0,0,-1,89.291,178.58097)" stroke-width=".59776" stroke-linecap="round" stroke-linejoin="round" fill="none" stroke="#000000" d="M-21.12784-147.244C-49.49837-119.38837-63.03691-30.88045-51.369 50.4406-39.70108 131.76166-7.24261 175.09967 21.1279 147.24404"/>
<path transform="matrix(1,0,0,-1,89.291,178.58097)" stroke-width=".59776" stroke-linecap="round" stroke-linejoin="round" fill="none" stroke="#000000" d="M28.92284-137.88852C24.39682-144.38472 7.77832-148.15912-8.19536-146.31885-18.23134-145.16255-26.0792-141.9713-28.92293-137.88994"/>
<path transform="matrix(1,0,0,-1,89.291,178.58097)" stroke-width=".59776" stroke-linecap="round" stroke-linejoin="round" fill="none" stroke="#000000" d="M51.85199-79.60878C49.23874-91.25491 23.90536-99.83543-4.73195-98.77335-29.74539-97.84555-49.57199-89.78368-51.85393-79.61128"/>
<path transform="matrix(1,0,0,-1,89.291,178.58097)" stroke-width=".59776" stroke-linecap="round" stroke-linejoin="round" fill="none" stroke="#000000" d="M60.12318 .00133C60.12314-13.50233 33.20502-24.44997 0-24.4507-33.20502-24.45143-60.12326-13.50507-60.12321-.00139"/>
<path transform="matrix(1,0,0,-1,89.291,178.58097)" stroke-width=".59776" stroke-linecap="round" stroke-linejoin="round" fill="none" stroke="#000000" d="M51.85251 79.61116C54.46547 67.96516 33.3682 57.6619 4.73093 56.59862-13.79167 55.91077-31.8151 59.29512-42.54079 65.47456-49.67403 69.58463-52.97763 74.59845-51.85341 79.60866"/>
<path transform="matrix(1,0,0,-1,89.291,178.58097)" stroke-width=".59776" stroke-linecap="round" stroke-linejoin="round" fill="none" stroke="#000000" d="M28.92229 137.88996C33.44833 131.394 24.16872 124.63544 8.1951 122.79446-7.77849 120.95349-24.39706 124.72691-28.92311 131.22287-30.4409 133.40116-30.44151 135.71006-28.92348 137.88854"/>
<path transform="matrix(1,0,0,-1,89.291,178.58097)" stroke-width=".59776" stroke-linecap="round" stroke-linejoin="round" fill="none" stroke="#000000" d="M60.12968 0C60.12968 86.86964 33.20912 157.2894 0 157.2894-33.20912 157.2894-60.12968 86.86964-60.12968 0-60.12968-86.86964-33.20912-157.2894 0-157.2894 33.20912-157.2894 60.12968-86.86964 60.12968 0ZM0 0"/>
</g>
<path transform="matrix(1,0,0,-1,89.291,-178.58301)" stroke-width=".3985" stroke-linecap="butt" stroke-miterlimit="10" stroke-linejoin="miter" fill="none" stroke="#000000" d="M0-714.3382"/>
<g clip-path="url(#clip_43)">
<path transform="matrix(1,0,0,-1,89.291,535.746)" stroke-width=".59776" stroke-linecap="round" stroke-linejoin="round" fill="none" stroke="#000000" d="M4.06142 153.15143C-8.61037 155.28731-20.70154 88.45326-22.94435 3.87039-25.18716-80.71248-16.73323-151.0157-4.06145-153.15158"/>
<path transform="matrix(1,0,0,-1,89.291,535.746)" stroke-width=".59776" stroke-linecap="round" stroke-linejoin="round" fill="none" stroke="#000000" d="M-4.06207 153.1506C8.61172 155.28903 20.70486 88.45743 22.94801 3.87498 25.19118-80.70743 16.73592-151.01233 4.0621-153.15076"/>
<path transform="matrix(1,0,0,-1,89.291,535.746)" stroke-width=".59776" stroke-linecap="round" stroke-linejoin="round" fill="none" stroke="#000000" d="M-22.1105 143.01259C6.45992 171.07819 39.52013 129.80432 51.73087 50.81996 63.9416-28.16438 50.68095-114.94717 22.1105-143.01277"/>
<path transform="matrix(1,0,0,-1,89.291,535.746)" stroke-width=".59776" stroke-linecap="round" stroke-linejoin="round" fill="none" stroke="#000000" d="M-22.10512-143.01596C-50.67413-114.95738-63.93755-28.1809-51.72913 50.80418-39.5207 129.78928-6.46385 171.07485 22.10515 143.01627"/>
<path transform="matrix(1,0,0,-1,89.291,535.746)" stroke-width=".59776" stroke-linecap="round" stroke-linejoin="round" fill="none" stroke="#000000" d="M29.19907-134.6956C24.43683-141.255 7.5035-145.00263-8.62303-143.0659-18.5256-141.8767-26.276-138.72446-29.20012-134.69676"/>
<path transform="matrix(1,0,0,-1,89.291,535.746)" stroke-width=".59776" stroke-linecap="round" stroke-linejoin="round" fill="none" stroke="#000000" d="M52.498-77.76509C49.74896-89.55823 24.0162-98.21288-4.97765-97.09523-30.16492-96.12422-50.11192-88.01213-52.49995-77.7673"/>
<path transform="matrix(1,0,0,-1,89.291,535.746)" stroke-width=".59776" stroke-linecap="round" stroke-linejoin="round" fill="none" stroke="#000000" d="M60.89128 .00105C60.89124-13.67741 33.6292-24.76659 0-24.76715-33.62923-24.76772-60.89134-13.6795-60.8913-.00102"/>
<path transform="matrix(1,0,0,-1,89.291,535.746)" stroke-width=".59776" stroke-linecap="round" stroke-linejoin="round" fill="none" stroke="#000000" d="M52.4984 77.76721C55.24767 65.97398 33.97137 55.50658 4.97702 54.38782-13.77643 53.66434-32.0602 57.06651-42.97717 63.31035-50.3125 67.50583-53.69464 72.63956-52.49956 77.765"/>
<path transform="matrix(1,0,0,-1,89.291,535.746)" stroke-width=".59776" stroke-linecap="round" stroke-linejoin="round" fill="none" stroke="#000000" d="M29.1989 134.6965C33.96092 128.13735 24.74837 121.24942 8.6221 119.31223-7.50417 117.37502-24.4381 121.12184-29.20012 127.681-30.86186 129.96962-30.86209 132.40654-29.20029 134.69535"/>
<path transform="matrix(1,0,0,-1,89.291,535.746)" stroke-width=".59776" stroke-linecap="round" stroke-linejoin="round" fill="none" stroke="#000000" d="M60.89787 0C60.89787 84.77818 33.63338 153.50254 0 153.50254-33.63338 153.50254-60.89787 84.77818-60.89787 0-60.89787-84.77818-33.63338-153.50254 0-153.50254 33.63338-153.50254 60.89787-84.77818 60.89787 0ZM0 0"/>
</g>
<path transform="matrix(1,0,0,-1,89.291,-178.58301)" stroke-width=".3985" stroke-linecap="butt" stroke-miterlimit="10" stroke-linejoin="miter" fill="none" stroke="#000000" d="M0-1071.5073"/>
<g clip-path="url(#clip_44)">
<path transform="matrix(1,0,0,-1,89.291,892.9099)" stroke-width=".59776" stroke-linecap="round" stroke-linejoin="round" fill="none" stroke="#000000" d="M4.27127 149.35079C-8.54909 151.50942-20.8548 86.39383-23.21356 3.91052-25.57234-78.57277-17.09169-147.19226-4.2713-149.3509"/>
<path transform="matrix(1,0,0,-1,89.291,892.9099)" stroke-width=".59776" stroke-linecap="round" stroke-linejoin="round" fill="none" stroke="#000000" d="M-4.27267 149.34877C8.54974 151.51093 20.85739 86.40106 23.2169 3.91763 25.57643-78.56578 17.09514-147.18682 4.2727-149.34896"/>
<path transform="matrix(1,0,0,-1,89.291,892.9099)" stroke-width=".59776" stroke-linecap="round" stroke-linejoin="round" fill="none" stroke="#000000" d="M-23.13895 138.77907C5.62477 167.02997 39.30188 127.7996 52.08102 51.15356 64.86017-25.49245 51.90276-110.52823 23.139-138.77913"/>
<path transform="matrix(1,0,0,-1,89.291,892.9099)" stroke-width=".59776" stroke-linecap="round" stroke-linejoin="round" fill="none" stroke="#000000" d="M-23.13608-138.78508C-51.89925-110.53891-64.85777-25.50446-52.08012 51.1447-39.30249 127.79385-5.62703 167.03142 23.13611 138.78524"/>
<path transform="matrix(1,0,0,-1,89.291,892.9099)" stroke-width=".59776" stroke-linecap="round" stroke-linejoin="round" fill="none" stroke="#000000" d="M29.47426-131.51824C24.45877-138.13939 7.19719-141.85385-9.0807-139.81414-18.83168-138.59226-26.47021-135.48577-29.47449-131.51952"/>
<path transform="matrix(1,0,0,-1,89.291,892.9099)" stroke-width=".59776" stroke-linecap="round" stroke-linejoin="round" fill="none" stroke="#000000" d="M53.1617-75.93108C50.26653-87.87349 24.11827-96.60075-5.24223-95.42377-30.59802-94.40707-50.6625-86.24673-53.16269-75.93347"/>
<path transform="matrix(1,0,0,-1,89.291,892.9099)" stroke-width=".59776" stroke-linecap="round" stroke-linejoin="round" fill="none" stroke="#000000" d="M61.68318 .00127C61.68312-13.8553 34.06657-25.089 0-25.0897-34.06657-25.09041-61.68324-13.85793-61.68318-.00133"/>
<path transform="matrix(1,0,0,-1,89.291,892.9099)" stroke-width=".59776" stroke-linecap="round" stroke-linejoin="round" fill="none" stroke="#000000" d="M53.1619 75.93309C56.05724 63.9907 34.60245 53.35428 5.24178 52.17598-13.74901 51.41391-32.30168 54.83145-43.41913 61.13983-50.96992 65.42447-54.43454 70.68427-53.16249 75.93068"/>
<path transform="matrix(1,0,0,-1,89.291,892.9099)" stroke-width=".59776" stroke-linecap="round" stroke-linejoin="round" fill="none" stroke="#000000" d="M29.47426 131.51944C34.4893 124.89842 25.35875 117.87682 9.08066 115.83662-7.19743 113.79642-24.45961 117.50993-29.47466 124.13094-31.29715 126.53683-31.29727 129.11215-29.47449 131.51816"/>
<path transform="matrix(1,0,0,-1,89.291,892.9099)" stroke-width=".59776" stroke-linecap="round" stroke-linejoin="round" fill="none" stroke="#000000" d="M61.68985 0C61.68985 82.6915 34.07079 149.7243 0 149.7243-34.07079 149.7243-61.68985 82.6915-61.68985 0-61.68985-82.6915-34.07079-149.7243 0-149.7243 34.07079-149.7243 61.68985-82.6915 61.68985 0ZM0 0"/>
</g>
<path transform="matrix(1,0,0,-1,89.291,-178.58301)" stroke-width=".3985" stroke-linecap="butt" stroke-miterlimit="10" stroke-linejoin="miter" fill="none" stroke="#000000" d="M0-1428.6764"/>
<g clip-path="url(#clip_45)">
<path transform="matrix(1,0,0,-1,89.291,1250.075)" stroke-width=".59776" stroke-linecap="round" stroke-linejoin="round" fill="none" stroke="#000000" d="M4.49915 145.5681C-8.47603 147.75528-21.00919 84.35622-23.49384 3.96187-25.97847-76.43245-17.47435-143.38105-4.49918-145.56822"/>
<path transform="matrix(1,0,0,-1,89.291,1250.075)" stroke-width=".59776" stroke-linecap="round" stroke-linejoin="round" fill="none" stroke="#000000" d="M-4.49985 145.56725C8.47737 147.75685 21.01253 84.3601 23.49759 3.96622 25.98264-76.42764 17.47716-143.3778 4.49991-145.5674"/>
<path transform="matrix(1,0,0,-1,89.291,1250.075)" stroke-width=".59776" stroke-linecap="round" stroke-linejoin="round" fill="none" stroke="#000000" d="M-24.23523 134.53026C4.71768 162.95899 39.03958 125.77454 52.4241 51.47577 65.80862-22.82297 53.18819-106.10161 24.23526-134.53032"/>
<path transform="matrix(1,0,0,-1,89.291,1250.075)" stroke-width=".59776" stroke-linecap="round" stroke-linejoin="round" fill="none" stroke="#000000" d="M-24.22963-134.53488C-53.182-106.11403-65.80443-22.8385-52.42322 51.46252-39.04202 125.76357-4.72272 162.95581 24.22963 134.53495"/>
<path transform="matrix(1,0,0,-1,89.291,1250.075)" stroke-width=".59776" stroke-linecap="round" stroke-linejoin="round" fill="none" stroke="#000000" d="M29.75288-128.36016C24.46396-135.04271 6.85567-138.71657-9.57632-136.56586-19.15623-135.3118-26.66953-132.25659-29.75276-128.36077"/>
<path transform="matrix(1,0,0,-1,89.291,1250.075)" stroke-width=".59776" stroke-linecap="round" stroke-linejoin="round" fill="none" stroke="#000000" d="M53.85431-74.10785C50.80118-86.20348 24.21469-95.00319-5.5278-93.76186-31.05045-92.6967-51.23473-84.4888-53.8547-74.10933"/>
<path transform="matrix(1,0,0,-1,89.291,1250.075)" stroke-width=".59776" stroke-linecap="round" stroke-linejoin="round" fill="none" stroke="#000000" d="M62.51227 .00053C62.51222-14.03978 34.52444-25.42209 0-25.4224-34.52448-25.4227-62.51233-14.04097-62.51228-.00063"/>
<path transform="matrix(1,0,0,-1,89.291,1250.075)" stroke-width=".59776" stroke-linecap="round" stroke-linejoin="round" fill="none" stroke="#000000" d="M53.85423 74.10886C56.90724 62.01318 35.27101 51.20045 5.52824 49.95856-13.70938 49.15535-32.54611 52.58788-43.87566 58.9615-51.65771 63.33981-55.21118 68.73328-53.85478 74.10738"/>
<path transform="matrix(1,0,0,-1,89.291,1250.075)" stroke-width=".59776" stroke-linecap="round" stroke-linejoin="round" fill="none" stroke="#000000" d="M29.75278 128.36077C35.04184 121.67842 26.0082 114.51744 9.57646 112.36633-6.85526 110.21521-24.46367 113.88884-29.75275 120.57118-31.75594 123.10248-31.75618 125.82889-29.75287 128.36016"/>
<path transform="matrix(1,0,0,-1,89.291,1250.075)" stroke-width=".59776" stroke-linecap="round" stroke-linejoin="round" fill="none" stroke="#000000" d="M62.51903 0C62.51903 80.60936 34.52873 145.95432 0 145.95432-34.52873 145.95432-62.51903 80.60936-62.51903 0-62.51903-80.60936-34.52873-145.95432 0-145.95432 34.52873-145.95432 62.51903-80.60936 62.51903 0ZM0 0"/>
</g>
<path transform="matrix(1,0,0,-1,89.291,-178.58301)" stroke-width=".3985" stroke-linecap="butt" stroke-miterlimit="10" stroke-linejoin="miter" fill="none" stroke="#000000" d="M0-1785.8456"/>
<g clip-path="url(#clip_46)">
<path transform="matrix(1,0,0,-1,89.291,1607.239)" stroke-width=".59776" stroke-linecap="round" stroke-linejoin="round" fill="none" stroke="#000000" d="M4.74568 141.78125C-8.389 143.99542-21.1618 82.3141-23.7826 4.01093-26.40338-74.29222-17.88042-139.56713-4.74571-141.78131"/>
<path transform="matrix(1,0,0,-1,89.291,1607.239)" stroke-width=".59776" stroke-linecap="round" stroke-linejoin="round" fill="none" stroke="#000000" d="M-4.74586 141.78041C8.38934 143.99692 21.16263 82.31784 23.78352 4.01512 26.40442-74.28758 17.88112-139.56397 4.7459-141.78047"/>
<path transform="matrix(1,0,0,-1,89.291,1607.239)" stroke-width=".59776" stroke-linecap="round" stroke-linejoin="round" fill="none" stroke="#000000" d="M-25.4035 130.2539C3.72914 158.85218 38.71999 123.72145 52.74936 51.78427 66.77873-20.1529 54.5362-101.65573 25.40353-130.254"/>
<path transform="matrix(1,0,0,-1,89.291,1607.239)" stroke-width=".59776" stroke-linecap="round" stroke-linejoin="round" fill="none" stroke="#000000" d="M-25.40309-130.2558C-54.53528-101.6597-66.77763-20.15778-52.74847 51.78043-38.71931 123.71863-3.72905 158.85198 25.40312 130.25586"/>
<path transform="matrix(1,0,0,-1,89.291,1607.239)" stroke-width=".59776" stroke-linecap="round" stroke-linejoin="round" fill="none" stroke="#000000" d="M30.02756-125.21104C24.44003-131.95557 6.467-135.58187-10.11684-133.31005-19.49911-132.02487-26.8685-129.02846-30.02913-125.2129"/>
<path transform="matrix(1,0,0,-1,89.291,1607.239)" stroke-width=".59776" stroke-linecap="round" stroke-linejoin="round" fill="none" stroke="#000000" d="M54.56973-72.2892C51.34389-84.54605 24.29793-93.41962-5.84053-92.10866-31.52539-90.99149-51.82349-82.7377-54.57114-72.29198"/>
<path transform="matrix(1,0,0,-1,89.291,1607.239)" stroke-width=".59776" stroke-linecap="round" stroke-linejoin="round" fill="none" stroke="#000000" d="M63.37173 .00197C63.37175-14.23137 34.9987-25.77106 0-25.77216-34.99867-25.77324-63.37169-14.23529-63.3717-.00194"/>
<path transform="matrix(1,0,0,-1,89.291,1607.239)" stroke-width=".59776" stroke-linecap="round" stroke-linejoin="round" fill="none" stroke="#000000" d="M54.57045 72.2918C57.7949 60.03497 35.97731 49.03516 5.83846 47.7229-13.65517 46.87424-32.78569 50.32036-44.33939 56.76115-52.37169 61.23933-56.02077 66.77724-54.57043 72.28902"/>
<path transform="matrix(1,0,0,-1,89.291,1607.239)" stroke-width=".59776" stroke-linecap="round" stroke-linejoin="round" fill="none" stroke="#000000" d="M30.02821 125.21303C35.61508 118.46866 26.7001 111.15883 10.11572 108.88622-6.46864 106.6136-24.44223 110.23859-30.0291 116.98296-32.23938 119.65108-32.2388 122.54305-30.02847 125.21117"/>
<path transform="matrix(1,0,0,-1,89.291,1607.239)" stroke-width=".59776" stroke-linecap="round" stroke-linejoin="round" fill="none" stroke="#000000" d="M63.3789 0C63.3789 78.53271 35.00365 142.19425 0 142.19425-35.00365 142.19425-63.3789 78.53271-63.3789 0-63.3789-78.53271-35.00365-142.19425 0-142.19425 35.00365-142.19425 63.3789-78.53271 63.3789 0ZM0 0"/>
</g>
<path transform="matrix(1,0,0,-1,89.291,-178.58301)" stroke-width=".3985" stroke-linecap="butt" stroke-miterlimit="10" stroke-linejoin="miter" fill="none" stroke="#000000" d="M0-2143.0147"/>
<g clip-path="url(#clip_47)">
<path transform="matrix(1,0,0,-1,89.291,1964.404)" stroke-width=".59776" stroke-linecap="round" stroke-linejoin="round" fill="none" stroke="#000000" d="M5.01205 138.00827C-8.28586 140.24758-21.31021 80.27724-24.07803 4.05748-26.84584-72.16226-18.31004-135.76908-5.01212-138.00839"/>
<path transform="matrix(1,0,0,-1,89.291,1964.404)" stroke-width=".59776" stroke-linecap="round" stroke-linejoin="round" fill="none" stroke="#000000" d="M-5.01361 138.01065C8.28644 140.25316 21.31361 80.28317 24.08223 4.0633 26.85086-72.15657 18.31372-135.76827 5.01367-138.01078"/>
<path transform="matrix(1,0,0,-1,89.291,1964.404)" stroke-width=".59776" stroke-linecap="round" stroke-linejoin="round" fill="none" stroke="#000000" d="M-26.66684 125.9529C2.63599 154.73221 38.32985 121.67218 53.05737 52.11014 67.7849-17.45187 55.96973-97.1738 26.66687-125.95311"/>
<path transform="matrix(1,0,0,-1,89.291,1964.404)" stroke-width=".59776" stroke-linecap="round" stroke-linejoin="round" fill="none" stroke="#000000" d="M-26.661-125.96025C-55.96419-97.18958-67.78151-17.47101-53.05743 52.09575-38.33336 121.6625-2.64218 154.73113 26.661 125.96043"/>
<path transform="matrix(1,0,0,-1,89.291,1964.404)" stroke-width=".59776" stroke-linecap="round" stroke-linejoin="round" fill="none" stroke="#000000" d="M30.3025-122.0868C24.39021-128.89379 6.03128-132.46315-10.70433-130.05879-19.86148-128.7433-27.06718-125.81264-30.30215-122.0882"/>
<path transform="matrix(1,0,0,-1,89.291,1964.404)" stroke-width=".59776" stroke-linecap="round" stroke-linejoin="round" fill="none" stroke="#000000" d="M55.31792-70.4857C51.90482-82.91194 24.37135-91.8611-6.18016-90.47351-32.02547-89.2998-52.43393-81.00012-55.32042-70.48814"/>
<path transform="matrix(1,0,0,-1,89.291,1964.404)" stroke-width=".59776" stroke-linecap="round" stroke-linejoin="round" fill="none" stroke="#000000" d="M64.27336 .00131C64.27332-14.43637 35.4971-26.14111 0-26.1418-35.49707-26.14249-64.2734-14.43892-64.27336-.00122"/>
<path transform="matrix(1,0,0,-1,89.291,1964.404)" stroke-width=".59776" stroke-linecap="round" stroke-linejoin="round" fill="none" stroke="#000000" d="M55.31865 70.48769C58.73172 58.06152 36.73041 46.86208 6.17871 45.47327-13.5822 44.57518-33.0271 48.03397-44.81923 54.54544-53.12294 59.13069-56.87411 64.82553-55.31969 70.48524"/>
<path transform="matrix(1,0,0,-1,89.291,1964.404)" stroke-width=".59776" stroke-linecap="round" stroke-linejoin="round" fill="none" stroke="#000000" d="M30.30212 122.08813C36.21434 115.2815 27.44008 107.81409 10.7047 105.40907-6.03069 103.00406-24.38994 106.57243-30.30215 113.37907-32.74847 116.19543-32.7491 119.27025-30.30254 122.08675"/>
<path transform="matrix(1,0,0,-1,89.291,1964.404)" stroke-width=".59776" stroke-linecap="round" stroke-linejoin="round" fill="none" stroke="#000000" d="M64.28032 0C64.28032 76.46132 35.5015 138.44371 0 138.44371-35.5015 138.44371-64.28032 76.46132-64.28032 0-64.28032-76.46132-35.5015-138.44371 0-138.44371 35.5015-138.44371 64.28032-76.46132 64.28032 0ZM0 0"/>
</g>
<path transform="matrix(1,0,0,-1,89.291,-178.58301)" stroke-width=".3985" stroke-linecap="butt" stroke-miterlimit="10" stroke-linejoin="miter" fill="none" stroke="#000000" d="M0-2500.1839"/>
<g clip-path="url(#clip_48)">
<path transform="matrix(1,0,0,-1,89.291,2321.5679)" stroke-width=".59776" stroke-linecap="round" stroke-linejoin="round" fill="none" stroke="#000000" d="M5.30104 134.24657C-8.16653 136.51645-21.45784 78.25287-24.38539 4.11105-27.31294-70.03076-18.76865-131.97687-5.30104-134.24675"/>
<path transform="matrix(1,0,0,-1,89.291,2321.5679)" stroke-width=".59776" stroke-linecap="round" stroke-linejoin="round" fill="none" stroke="#000000" d="M-5.30087 134.24332C8.16724 136.51342 21.45868 78.25438 24.38597 4.11342 27.31326-70.02753 18.76901-131.9734 5.30087-134.2435"/>
<path transform="matrix(1,0,0,-1,89.291,2321.5679)" stroke-width=".59776" stroke-linecap="round" stroke-linejoin="round" fill="none" stroke="#000000" d="M-27.99536 121.64673C1.46724 150.5741 37.88551 119.5619 53.34676 52.37822 68.80801-14.80544 57.45798-92.71947 27.99536-121.64685"/>
<path transform="matrix(1,0,0,-1,89.291,2321.5679)" stroke-width=".59776" stroke-linecap="round" stroke-linejoin="round" fill="none" stroke="#000000" d="M-27.9949-121.64767C-57.45706-92.72128-68.8069-14.80763-53.34589 52.37656-37.88489 119.56076-1.46722 150.57418 27.9949 121.6478"/>
<path transform="matrix(1,0,0,-1,89.291,2321.5679)" stroke-width=".59776" stroke-linecap="round" stroke-linejoin="round" fill="none" stroke="#000000" d="M30.56877-118.9796C24.3055-125.8451 5.54158-129.34633-11.34103-126.79955-20.24321-125.45653-27.26752-122.60028-30.57011-118.98009"/>
<path transform="matrix(1,0,0,-1,89.291,2321.5679)" stroke-width=".59776" stroke-linecap="round" stroke-linejoin="round" fill="none" stroke="#000000" d="M56.0922-68.69225C52.47601-81.29007 24.4309-90.3112-6.54811-88.84103-32.5481-87.60715-53.0601-79.26642-56.09447-68.69334"/>
<path transform="matrix(1,0,0,-1,89.291,2321.5679)" stroke-width=".59776" stroke-linecap="round" stroke-linejoin="round" fill="none" stroke="#000000" d="M65.20938 .0007C65.20941-14.64441 36.0136-26.51738 0-26.5178-36.01357-26.51823-65.20935-14.6459-65.20938-.00076"/>
<path transform="matrix(1,0,0,-1,89.291,2321.5679)" stroke-width=".59776" stroke-linecap="round" stroke-linejoin="round" fill="none" stroke="#000000" d="M56.09271 68.69312C59.70811 56.09526 37.52504 44.69014 6.54572 43.21954-13.49133 42.2683-33.26213 45.73787-45.3062 52.31892-53.90308 57.01607-57.76353 62.87616-56.09395 68.69202"/>
<path transform="matrix(1,0,0,-1,89.291,2321.5679)" stroke-width=".59776" stroke-linecap="round" stroke-linejoin="round" fill="none" stroke="#000000" d="M30.56915 118.98018C36.83195 112.11473 28.2223 104.48419 11.3394 101.93718-5.54347 99.39017-24.30734 102.89108-30.57016 109.75653-33.28365 112.73111-33.28343 116.0051-30.56973 118.97969"/>
<path transform="matrix(1,0,0,-1,89.291,2321.5679)" stroke-width=".59776" stroke-linecap="round" stroke-linejoin="round" fill="none" stroke="#000000" d="M65.21677 0C65.21677 74.39711 36.01868 134.70615 0 134.70615-36.01868 134.70615-65.21677 74.39711-65.21677 0-65.21677-74.39711-36.01868-134.70615 0-134.70615 36.01868-134.70615 65.21677-74.39711 65.21677 0ZM0 0"/>
</g>
<path transform="matrix(1,0,0,-1,89.291,-178.58301)" stroke-width=".3985" stroke-linecap="butt" stroke-miterlimit="10" stroke-linejoin="miter" fill="none" stroke="#000000" d="M0-2857.3529"/>
<g clip-path="url(#clip_49)">
<path transform="matrix(1,0,0,-1,89.291,2678.733)" stroke-width=".59776" stroke-linecap="round" stroke-linejoin="round" fill="none" stroke="#000000" d="M5.61505 130.4957C-8.0263 132.79541-21.59888 76.23465-24.69998 4.16405-27.8011-67.90654-19.25648-128.19609-5.61511-130.49582"/>
<path transform="matrix(1,0,0,-1,89.291,2678.733)" stroke-width=".59776" stroke-linecap="round" stroke-linejoin="round" fill="none" stroke="#000000" d="M-5.61569 130.49562C8.0262 132.7964 21.59969 76.23824 24.70093 4.16788 27.80215-67.90247 19.2576-128.195 5.61569-130.4958"/>
<path transform="matrix(1,0,0,-1,89.291,2678.733)" stroke-width=".59776" stroke-linecap="round" stroke-linejoin="round" fill="none" stroke="#000000" d="M-29.42557 117.31644C.18199 146.39078 37.35757 117.43727 53.6087 52.64453 69.85983-12.14818 59.0332-88.24208 29.42563-117.3164"/>
<path transform="matrix(1,0,0,-1,89.291,2678.733)" stroke-width=".59776" stroke-linecap="round" stroke-linejoin="round" fill="none" stroke="#000000" d="M-29.42046-117.31946C-59.02849-88.25114-69.85776-12.15965-53.60968 52.63454-37.3616 117.42874-.18756 146.38797 29.42046 117.31967"/>
<path transform="matrix(1,0,0,-1,89.291,2678.733)" stroke-width=".59776" stroke-linecap="round" stroke-linejoin="round" fill="none" stroke="#000000" d="M30.8288-115.90237C24.17967-122.82602 4.9874-126.24704-12.03902-123.54326-20.65051-122.1757-27.46666-119.40408-30.82928-115.90222"/>
<path transform="matrix(1,0,0,-1,89.291,2678.733)" stroke-width=".59776" stroke-linecap="round" stroke-linejoin="round" fill="none" stroke="#000000" d="M56.89993-66.91597C53.06079-79.6946 24.47395-88.78885-6.95088-87.22774-33.09938-85.92894-53.70753-77.54855-56.90086-66.91576"/>
<path transform="matrix(1,0,0,-1,89.291,2678.733)" stroke-width=".59776" stroke-linecap="round" stroke-linejoin="round" fill="none" stroke="#000000" d="M66.19115 .00005C66.19116-14.86505 36.5558-26.91605 0-26.91609-36.55577-26.91614-66.19109-14.86517-66.19112-.00005"/>
<path transform="matrix(1,0,0,-1,89.291,2678.733)" stroke-width=".59776" stroke-linecap="round" stroke-linejoin="round" fill="none" stroke="#000000" d="M56.89926 66.91548C60.73749 54.13658 38.37396 42.5122 6.94844 40.95139-13.37749 39.94197-33.49127 43.42027-45.80374 50.07341-54.72038 54.89134-58.6999 60.93025-56.90154 66.9157"/>
<path transform="matrix(1,0,0,-1,89.291,2678.733)" stroke-width=".59776" stroke-linecap="round" stroke-linejoin="round" fill="none" stroke="#000000" d="M30.82893 115.90181C37.47726 108.97815 29.06451 101.17368 12.03804 98.47015-4.98842 95.76663-24.18097 99.18756-30.8293 106.11122-33.85172 109.25858-33.85185 112.75475-30.82915 115.90196"/>
<path transform="matrix(1,0,0,-1,89.291,2678.733)" stroke-width=".59776" stroke-linecap="round" stroke-linejoin="round" fill="none" stroke="#000000" d="M66.19864 0C66.19864 72.33981 36.56096 130.98114 0 130.98114-36.56096 130.98114-66.19864 72.33981-66.19864 0-66.19864-72.33981-36.56096-130.98114 0-130.98114 36.56096-130.98114 66.19864-72.33981 66.19864 0ZM0 0"/>
</g>
<path transform="matrix(1,0,0,-1,89.291,-178.58301)" stroke-width=".3985" stroke-linecap="butt" stroke-miterlimit="10" stroke-linejoin="miter" fill="none" stroke="#000000" d="M0-3214.522"/>
<g clip-path="url(#clip_50)">
<path transform="matrix(1,0,0,-1,89.291,3035.897)" stroke-width=".59776" stroke-linecap="round" stroke-linejoin="round" fill="none" stroke="#000000" d="M5.95905 126.75644C-7.8604 129.08347-21.73169 74.22105-25.02248 4.21599-28.31326-65.78906-19.77853-124.4295-5.95908-126.75653"/>
<path transform="matrix(1,0,0,-1,89.291,3035.897)" stroke-width=".59776" stroke-linecap="round" stroke-linejoin="round" fill="none" stroke="#000000" d="M-5.95984 126.7563C7.85962 129.08731 21.7313 74.22852 25.02248 4.22356 28.31366-65.78139 19.77933-124.42538 5.95987-126.7564"/>
<path transform="matrix(1,0,0,-1,89.291,3035.897)" stroke-width=".59776" stroke-linecap="round" stroke-linejoin="round" fill="none" stroke="#000000" d="M-30.95494 112.96103C-1.22331 142.16674 36.7391 115.26895 53.83461 52.88315 70.93011-9.50264 60.68665-83.75533 30.955-112.96103"/>
<path transform="matrix(1,0,0,-1,89.291,3035.897)" stroke-width=".59776" stroke-linecap="round" stroke-linejoin="round" fill="none" stroke="#000000" d="M-30.95444-112.96294C-60.68558-83.75908-70.9289-9.50706-53.83368 52.8798-36.73846 115.26668 1.22331 142.16684 30.95444 112.963"/>
<path transform="matrix(1,0,0,-1,89.291,3035.897)" stroke-width=".59776" stroke-linecap="round" stroke-linejoin="round" fill="none" stroke="#000000" d="M31.07208-112.84888C23.99841-119.83041 4.3529-123.15808-12.80731-120.28075-21.08424-118.89294-27.66066-116.21764-31.0721-112.85051"/>
<path transform="matrix(1,0,0,-1,89.291,3035.897)" stroke-width=".59776" stroke-linecap="round" stroke-linejoin="round" fill="none" stroke="#000000" d="M57.73807-65.15213C53.65459-78.12524 24.493-87.29619-7.39488-85.63574-33.67754-84.26692-54.3742-75.84775-57.73978-65.15512"/>
<path transform="matrix(1,0,0,-1,89.291,3035.897)" stroke-width=".59776" stroke-linecap="round" stroke-linejoin="round" fill="none" stroke="#000000" d="M67.21336 .00175C67.21318-15.1002 37.12085-27.3437 0-27.34459-37.12088-27.34549-67.21361-15.10376-67.21342-.00179"/>
<path transform="matrix(1,0,0,-1,89.291,3035.897)" stroke-width=".59776" stroke-linecap="round" stroke-linejoin="round" fill="none" stroke="#000000" d="M57.73882 65.15492C61.82172 52.18192 39.28194 40.31738 7.39374 38.65549-13.23106 37.58038-33.70619 41.06503-46.30646 47.79417-55.5735 52.74329-59.68217 58.98083-57.73904 65.15193"/>
<path transform="matrix(1,0,0,-1,89.291,3035.897)" stroke-width=".59776" stroke-linecap="round" stroke-linejoin="round" fill="none" stroke="#000000" d="M31.07195 112.85017C38.14508 105.8689 29.96758 97.8762 12.80699 94.99815-4.35358 92.1201-23.99913 95.44646-31.07228 102.42773-34.45235 105.76407-34.45262 109.512-31.07224 112.84856"/>
<path transform="matrix(1,0,0,-1,89.291,3035.897)" stroke-width=".59776" stroke-linecap="round" stroke-linejoin="round" fill="none" stroke="#000000" d="M67.22289 0C67.22289 70.2911 37.12665 127.2717 0 127.2717-37.12665 127.2717-67.22289 70.2911-67.22289 0-67.22289-70.2911-37.12665-127.2717 0-127.2717 37.12665-127.2717 67.22289-70.2911 67.22289 0ZM0 0"/>
</g>
<path transform="matrix(1,0,0,-1,89.291,-178.58301)" stroke-width=".3985" stroke-linecap="butt" stroke-miterlimit="10" stroke-linejoin="miter" fill="none" stroke="#000000" d="M0-3571.6912"/>
<g clip-path="url(#clip_51)">
<path transform="matrix(1,0,0,-1,89.291,3393.062)" stroke-width=".59776" stroke-linecap="round" stroke-linejoin="round" fill="none" stroke="#000000" d="M6.33214 123.03943C-7.67213 125.39949-21.85988 72.22678-25.35695 4.2739-28.85403-63.67899-20.33644-120.67943-6.33217-123.03949"/>
<path transform="matrix(1,0,0,-1,89.291,3393.062)" stroke-width=".59776" stroke-linecap="round" stroke-linejoin="round" fill="none" stroke="#000000" d="M-6.3324 123.0385C7.67241 125.40057 21.86072 72.22995 25.35793 4.27756 28.85515-63.67482 20.33722-120.6765 6.3324-123.03859"/>
<path transform="matrix(1,0,0,-1,89.291,3393.062)" stroke-width=".59776" stroke-linecap="round" stroke-linejoin="round" fill="none" stroke="#000000" d="M-32.57808 108.60336C-2.73528 137.9099 36.04324 113.04646 54.035 53.06633 72.02675-6.91379 62.42094-79.29697 32.57814-108.60349"/>
<path transform="matrix(1,0,0,-1,89.291,3393.062)" stroke-width=".59776" stroke-linecap="round" stroke-linejoin="round" fill="none" stroke="#000000" d="M-32.57373-108.60735C-62.41702-79.30554-72.02556-6.92499-54.03601 53.05717-36.04648 113.03937 2.73044 137.90929 32.57373 108.60747"/>
<path transform="matrix(1,0,0,-1,89.291,3393.062)" stroke-width=".59776" stroke-linecap="round" stroke-linejoin="round" fill="none" stroke="#000000" d="M31.30205-109.82756C23.76672-116.85907 3.64256-120.07448-13.64536-117.00986-21.54771-115.60915-27.8583-113.04239-31.3029-109.82852"/>
<path transform="matrix(1,0,0,-1,89.291,3393.062)" stroke-width=".59776" stroke-linecap="round" stroke-linejoin="round" fill="none" stroke="#000000" d="M58.61653-63.40878C54.26474-76.5757 24.49411-85.8158-7.8789-84.04619-34.28731-82.60274-55.06874-74.15102-58.61792-63.41011"/>
<path transform="matrix(1,0,0,-1,89.291,3393.062)" stroke-width=".59776" stroke-linecap="round" stroke-linejoin="round" fill="none" stroke="#000000" d="M68.2926 .0007C68.29262-15.33945 37.71635-27.77586 0-27.77628-37.71635-27.77669-68.29259-15.3409-68.2926-.00073"/>
<path transform="matrix(1,0,0,-1,89.291,3393.062)" stroke-width=".59776" stroke-linecap="round" stroke-linejoin="round" fill="none" stroke="#000000" d="M58.61665 63.40977C62.96768 50.24286 40.25096 38.13383 7.87775 36.36382-13.06139 35.21918-33.9197 38.70633-46.82573 45.50916-56.47424 50.59471-60.7225 57.04166-58.6178 63.40845"/>
<path transform="matrix(1,0,0,-1,89.291,3393.062)" stroke-width=".59776" stroke-linecap="round" stroke-linejoin="round" fill="none" stroke="#000000" d="M31.30246 109.82863C38.83865 102.7973 30.93346 94.61235 13.64557 91.54701-3.6423 88.48166-23.7662 91.69667-31.3024 98.728-35.09474 102.26607-35.09433 106.28928-31.30249 109.82767"/>
<path transform="matrix(1,0,0,-1,89.291,3393.062)" stroke-width=".59776" stroke-linecap="round" stroke-linejoin="round" fill="none" stroke="#000000" d="M68.30032 0C68.30032 68.251 37.7217 123.57782 0 123.57782-37.7217 123.57782-68.30032 68.251-68.30032 0-68.30032-68.251-37.7217-123.57782 0-123.57782 37.7217-123.57782 68.30032-68.251 68.30032 0ZM0 0"/>
</g>
<path transform="matrix(1,0,0,-1,89.291,-178.58301)" stroke-width=".3985" stroke-linecap="butt" stroke-miterlimit="10" stroke-linejoin="miter" fill="none" stroke="#000000" d="M0-3928.86"/>
<g clip-path="url(#clip_52)">
<path transform="matrix(1,0,0,-1,89.291,3750.226)" stroke-width=".59776" stroke-linecap="round" stroke-linejoin="round" fill="none" stroke="#000000" d="M6.74065 119.32448C-7.45087 121.71637-21.97359 70.23251-25.69618 4.33195-29.41878-61.5686-20.93216-116.9327-6.74065-119.32458"/>
<path transform="matrix(1,0,0,-1,89.291,3750.226)" stroke-width=".59776" stroke-linecap="round" stroke-linejoin="round" fill="none" stroke="#000000" d="M-6.74065 119.32404C7.45087 121.71689 21.97359 70.23401 25.69618 4.3337 29.41878-61.5666 20.93216-116.93127 6.74065-119.32413"/>
<path transform="matrix(1,0,0,-1,89.291,3750.226)" stroke-width=".59776" stroke-linecap="round" stroke-linejoin="round" fill="none" stroke="#000000" d="M-34.31387 104.22125C-4.3893 133.60944 35.23283 110.77191 54.18365 53.21257 73.13449-4.34676 64.23845-74.83311 34.31387-104.22128"/>
<path transform="matrix(1,0,0,-1,89.291,3750.226)" stroke-width=".59776" stroke-linecap="round" stroke-linejoin="round" fill="none" stroke="#000000" d="M-34.31326-104.22125C-64.23734-74.83308-73.13322-4.34673-54.18272 53.2126-35.23221 110.77194 4.38925 133.60947 34.31332 104.22128"/>
<path transform="matrix(1,0,0,-1,89.291,3750.226)" stroke-width=".59776" stroke-linecap="round" stroke-linejoin="round" fill="none" stroke="#000000" d="M31.50414-106.83812C23.45937-113.91539 2.8321-116.99971-14.56744-113.72769-22.0419-112.32204-28.04773-109.8789-31.50395-106.83888"/>
<path transform="matrix(1,0,0,-1,89.291,3750.226)" stroke-width=".59776" stroke-linecap="round" stroke-linejoin="round" fill="none" stroke="#000000" d="M59.52625-61.68292C54.8811-75.05495 24.46385-84.36374-8.41159-82.47461-34.9287-80.95073-55.77985-72.46967-59.52666-61.68391"/>
<path transform="matrix(1,0,0,-1,89.291,3750.226)" stroke-width=".59776" stroke-linecap="round" stroke-linejoin="round" fill="none" stroke="#000000" d="M69.41725 .00056C69.41705-15.5933 38.33803-28.23503 0-28.23529-38.33806-28.23555-69.41751-15.59451-69.41731-.00063"/>
<path transform="matrix(1,0,0,-1,89.291,3750.226)" stroke-width=".59776" stroke-linecap="round" stroke-linejoin="round" fill="none" stroke="#000000" d="M59.52522 61.68387C64.1705 48.31213 41.28511 35.93996 8.41014 34.05022-12.85359 32.82797-34.11281 36.31384-47.3469 43.19295-57.41382 48.42577-61.81415 55.10347-59.52766 61.68288"/>
<path transform="matrix(1,0,0,-1,89.291,3750.226)" stroke-width=".59776" stroke-linecap="round" stroke-linejoin="round" fill="none" stroke="#000000" d="M31.50298 106.839C39.54845 99.7622 31.96573 91.37216 14.56696 88.09955-2.8318 84.82692-23.45891 87.91098-31.50438 94.9878-35.7768 98.74571-35.77727 103.07994-31.50511 106.83824"/>
<path transform="matrix(1,0,0,-1,89.291,3750.226)" stroke-width=".59776" stroke-linecap="round" stroke-linejoin="round" fill="none" stroke="#000000" d="M69.4271 0C69.4271 66.22191 38.34401 119.90385 0 119.90385-38.34401 119.90385-69.4271 66.22191-69.4271 0-69.4271-66.22191-38.34401-119.90385 0-119.90385 38.34401-119.90385 69.4271-66.22191 69.4271 0ZM0 0"/>
</g>
<path transform="matrix(1,0,0,-1,89.291,-178.58301)" stroke-width=".3985" stroke-linecap="butt" stroke-miterlimit="10" stroke-linejoin="miter" fill="none" stroke="#000000" d="M0-4286.0295"/>
<g clip-path="url(#clip_53)">
<path transform="matrix(1,0,0,-1,89.291,4107.391)" stroke-width=".59776" stroke-linecap="round" stroke-linejoin="round" fill="none" stroke="#000000" d="M7.19078 115.633C-7.19292 118.06056-22.07306 68.2582-26.04427 4.39645-30.01547-59.46529-21.57457-113.20557-7.19084-115.63315"/>
<path transform="matrix(1,0,0,-1,89.291,4107.391)" stroke-width=".59776" stroke-linecap="round" stroke-linejoin="round" fill="none" stroke="#000000" d="M-7.19078 115.63257C7.19292 118.06105 22.07306 68.25964 26.04427 4.39815 30.01547-59.46332 21.57457-113.20416 7.19084-115.63266"/>
<path transform="matrix(1,0,0,-1,89.291,4107.391)" stroke-width=".59776" stroke-linecap="round" stroke-linejoin="round" fill="none" stroke="#000000" d="M-36.17625 99.82024C-6.19908 129.26876 34.29803 108.45055 54.27782 53.3207 74.25761-1.80914 66.15341-70.37177 36.17625-99.82027"/>
<path transform="matrix(1,0,0,-1,89.291,4107.391)" stroke-width=".59776" stroke-linecap="round" stroke-linejoin="round" fill="none" stroke="#000000" d="M-36.17561-99.82124C-66.15227-70.37355-74.25633-1.81116-54.27687 53.31923-34.29742 108.44963 6.19897 129.26897 36.17564 99.82127"/>
<path transform="matrix(1,0,0,-1,89.291,4107.391)" stroke-width=".59776" stroke-linecap="round" stroke-linejoin="round" fill="none" stroke="#000000" d="M31.67213-103.89113C23.06117-111.00735 1.90024-113.93628-15.5916-110.43317-22.57635-109.03438-28.23177-106.73303-31.67046-103.8918"/>
<path transform="matrix(1,0,0,-1,89.291,4107.391)" stroke-width=".59776" stroke-linecap="round" stroke-linejoin="round" fill="none" stroke="#000000" d="M60.4793-59.98195C55.5074-73.57104 24.39941-82.94737-9.00296-80.92476-35.61792-79.31296-56.51804-70.81056-60.47964-59.98283"/>
<path transform="matrix(1,0,0,-1,89.291,4107.391)" stroke-width=".59776" stroke-linecap="round" stroke-linejoin="round" fill="none" stroke="#000000" d="M70.60138 .00023C70.60117-15.86288 38.99199-28.72273-.00002-28.72276-38.99205-28.7228-70.60165-15.86331-70.60144-.00017"/>
<path transform="matrix(1,0,0,-1,89.291,4107.391)" stroke-width=".59776" stroke-linecap="round" stroke-linejoin="round" fill="none" stroke="#000000" d="M60.47829 59.98245C65.45049 46.39397 42.40373 33.73764 9.00276 31.71468-12.60104 30.40639-34.28932 33.88734-47.87633 40.8447-58.40594 46.23627-62.97328 53.17009-60.48067 59.98157"/>
<path transform="matrix(1,0,0,-1,89.291,4107.391)" stroke-width=".59776" stroke-linecap="round" stroke-linejoin="round" fill="none" stroke="#000000" d="M31.67068 103.89194C40.28204 96.77605 33.08406 88.1671 15.59285 84.66368-1.89836 81.16026-23.05936 84.08853-31.67072 91.20442-36.50995 95.20299-36.51059 99.89249-31.6719 103.89127"/>
<path transform="matrix(1,0,0,-1,89.291,4107.391)" stroke-width=".59776" stroke-linecap="round" stroke-linejoin="round" fill="none" stroke="#000000" d="M70.61137 0C70.61137 64.20403 38.99808 116.25018 0 116.25018-38.99808 116.25018-70.61137 64.20403-70.61137 0-70.61137-64.20403-38.99808-116.25018 0-116.25018 38.99808-116.25018 70.61137-64.20403 70.61137 0ZM0 0"/>
</g>
<path transform="matrix(1,0,0,-1,89.291,-178.58301)" stroke-width=".3985" stroke-linecap="butt" stroke-miterlimit="10" stroke-linejoin="miter" fill="none" stroke="#000000" d="M0-4643.198"/>
<g clip-path="url(#clip_54)">
<path transform="matrix(1,0,0,-1,89.291,4464.555)" stroke-width=".59776" stroke-linecap="round" stroke-linejoin="round" fill="none" stroke="#000000" d="M7.68803 111.96606C-6.89336 114.43617-22.15578 66.31007-26.4018 4.47246-30.64781-57.36514-22.26949-109.49617-7.6881-111.96628"/>
<path transform="matrix(1,0,0,-1,89.291,4464.555)" stroke-width=".59776" stroke-linecap="round" stroke-linejoin="round" fill="none" stroke="#000000" d="M-7.68332 111.96565C6.89906 114.42467 22.16084 66.28917 26.40408 4.45306 30.64732-57.38304 22.26573-109.50673 7.68335-111.96574"/>
<path transform="matrix(1,0,0,-1,89.291,4464.555)" stroke-width=".59776" stroke-linecap="round" stroke-linejoin="round" fill="none" stroke="#000000" d="M-38.16188 95.42035C-8.15996 124.89041 33.24768 106.05927 54.32378 53.36055 75.39987 .66182 68.1638-65.95026 38.16188-95.42032"/>
<path transform="matrix(1,0,0,-1,89.291,4464.555)" stroke-width=".59776" stroke-linecap="round" stroke-linejoin="round" fill="none" stroke="#000000" d="M-38.16122-95.42131C-68.16267-65.95201-75.39862 .65988-54.32286 53.35915-33.2471 106.05843 8.15985 124.8906 38.16129 95.42131"/>
<path transform="matrix(1,0,0,-1,89.291,4464.555)" stroke-width=".59776" stroke-linecap="round" stroke-linejoin="round" fill="none" stroke="#000000" d="M31.79617-100.99106C22.55756-108.1356 .8322-110.88034-16.72845-107.12192-23.15714-105.74606-28.41388-103.60724-31.79626-100.99191"/>
<path transform="matrix(1,0,0,-1,89.291,4464.555)" stroke-width=".59776" stroke-linecap="round" stroke-linejoin="round" fill="none" stroke="#000000" d="M61.47435-58.30705C56.1396-72.12003 24.29129-81.55861-9.66022-79.38866-36.34581-77.68283-57.2843-69.16501-61.47649-58.30806"/>
<path transform="matrix(1,0,0,-1,89.291,4464.555)" stroke-width=".59776" stroke-linecap="round" stroke-linejoin="round" fill="none" stroke="#000000" d="M71.85588 .00095C71.8559-16.14432 39.68428-29.23352 0-29.23404-39.68428-29.23456-71.85587-16.14616-71.85588-.00089"/>
<path transform="matrix(1,0,0,-1,89.291,4464.555)" stroke-width=".59776" stroke-linecap="round" stroke-linejoin="round" fill="none" stroke="#000000" d="M61.4755 58.30809C66.80951 44.49507 43.60966 31.53763 9.6577 29.36708-12.30215 27.9633-34.44258 31.434-48.41019 38.46898-59.45642 44.03233-64.20477 51.24171-61.47533 58.30708"/>
<path transform="matrix(1,0,0,-1,89.291,4464.555)" stroke-width=".59776" stroke-linecap="round" stroke-linejoin="round" fill="none" stroke="#000000" d="M31.79575 100.992C41.03455 93.84787 34.28818 85.00887 16.7279 81.24988-.83237 77.4909-22.558 80.23532-31.79678 87.37946-37.3053 91.63911-37.30502 96.73128-31.79669 100.99115"/>
<path transform="matrix(1,0,0,-1,89.291,4464.555)" stroke-width=".59776" stroke-linecap="round" stroke-linejoin="round" fill="none" stroke="#000000" d="M71.86401 0C71.86401 62.19952 39.6899 112.62076 0 112.62076-39.6899 112.62076-71.86401 62.19952-71.86401 0-71.86401-62.19952-39.6899-112.62076 0-112.62076 39.6899-112.62076 71.86401-62.19952 71.86401 0ZM0 0"/>
</g>
<path transform="matrix(1,0,0,-1,89.291,-178.58301)" stroke-width=".3985" stroke-linecap="butt" stroke-miterlimit="10" stroke-linejoin="miter" fill="none" stroke="#000000" d="M0-5000.3679"/>
<g clip-path="url(#clip_55)">
<path transform="matrix(1,0,0,-1,89.291,4821.7199)" stroke-width=".59776" stroke-linecap="round" stroke-linejoin="round" fill="none" stroke="#000000" d="M8.22752 108.31943C-6.5559 110.81209-22.22389 64.339-26.76755 4.5156-31.3112-55.30782-23.011-105.82681-8.22755-108.31949"/>
<path transform="matrix(1,0,0,-1,89.291,4821.7199)" stroke-width=".59776" stroke-linecap="round" stroke-linejoin="round" fill="none" stroke="#000000" d="M-8.22752 108.31844C6.5559 110.81287 22.22389 64.34166 26.76755 4.51878 31.3112-55.3041 23.011-105.82407 8.22755-108.3185"/>
<path transform="matrix(1,0,0,-1,89.291,4821.7199)" stroke-width=".59776" stroke-linecap="round" stroke-linejoin="round" fill="none" stroke="#000000" d="M-40.28383 91.00162C-10.2997 120.45833 32.04326 103.59515 54.29123 53.33649 76.5392 3.07782 70.26797-61.54503 40.28386-91.00174"/>
<path transform="matrix(1,0,0,-1,89.291,4821.7199)" stroke-width=".59776" stroke-linecap="round" stroke-linejoin="round" fill="none" stroke="#000000" d="M-40.28316-91.00362C-70.26677-61.54839-76.5379 3.07417-54.2903 53.33392-32.0427 103.59369 10.29953 120.45897 40.28316 91.00374"/>
<path transform="matrix(1,0,0,-1,89.291,4821.7199)" stroke-width=".59776" stroke-linecap="round" stroke-linejoin="round" fill="none" stroke="#000000" d="M31.85898-98.14038C21.92209-105.29979-.39754-107.82605-17.99263-103.78322-23.78792-102.4518-28.5844-100.5001-31.8578-98.14218"/>
<path transform="matrix(1,0,0,-1,89.291,4821.7199)" stroke-width=".59776" stroke-linecap="round" stroke-linejoin="round" fill="none" stroke="#000000" d="M62.51466-56.66045C56.77747-70.70879 24.13725-80.20557-10.38881-77.87187-37.1216-76.06488-58.0742-67.54039-62.51634-56.6633"/>
<path transform="matrix(1,0,0,-1,89.291,4821.7199)" stroke-width=".59776" stroke-linecap="round" stroke-linejoin="round" fill="none" stroke="#000000" d="M73.17375 .00145C73.17354-16.44196 40.41269-29.77277 0-29.77348-40.41272-29.77419-73.17403-16.44487-73.17381-.00145"/>
<path transform="matrix(1,0,0,-1,89.291,4821.7199)" stroke-width=".59776" stroke-linecap="round" stroke-linejoin="round" fill="none" stroke="#000000" d="M62.51509 56.6629C68.25287 42.61479 44.91452 29.33327 10.38837 26.99792-11.94272 25.48737-34.56717 28.9406-48.94687 36.05415-60.56651 41.80228-65.51454 49.31795-62.51591 56.66005"/>
<path transform="matrix(1,0,0,-1,89.291,4821.7199)" stroke-width=".59776" stroke-linecap="round" stroke-linejoin="round" fill="none" stroke="#000000" d="M31.85783 98.14224C41.7958 90.98352 35.58841 81.90175 17.99397 77.85776 .39952 73.81378-21.92029 76.33905-31.85826 83.49779-38.16405 88.04019-38.16417 93.5975-31.85895 98.14044"/>
<path transform="matrix(1,0,0,-1,89.291,4821.7199)" stroke-width=".59776" stroke-linecap="round" stroke-linejoin="round" fill="none" stroke="#000000" d="M73.18411 0C73.18411 60.21103 40.41898 109.02032 0 109.02032-40.41898 109.02032-73.18411 60.21103-73.18411 0-73.18411-60.21103-40.41898-109.02032 0-109.02032 40.41898-109.02032 73.18411-60.21103 73.18411 0ZM0 0"/>
</g>
</svg>
