<svg xmlns="http://www.w3.org/2000/svg" xmlns:xlink="http://www.w3.org/1999/xlink" version="1.1" width="178.582" height="5000.302" viewBox="0 0 178.582 5000.302">
<defs>
<clipPath id="clip_42">
<path transform="matrix(1,0,0,-1,0,357.16297)" d="M0 0H178.582V357.164H0Z"/>
</clipPath>
<clipPath id="clip_43">
<path transform="matrix(1,0,0,-1,0,714.328)" d="M0 0H178.582V357.164H0Z"/>
</clipPath>
<clipPath id="clip_44">
<path transform="matrix(1,0,0,-1,0,1071.492)" d="M0 0H178.582V357.164H0Z"/>
</clipPath>
<clipPath id="clip_45">
<path transform="matrix(1,0,0,-1,0,1428.657)" d="M0 0H178.582V357.164H0Z"/>
</clipPath>
<clipPath id="clip_46">
<path transform="matrix(1,0,0,-1,0,1785.821)" d="M0 0H178.582V357.164H0Z"/>
</clipPath>
<clipPath id="clip_47">
<path transform="matrix(1,0,0,-1,0,2142.986)" d="M0 0H178.582V357.164H0Z"/>
</clipPath>
<clipPath id="clip_48">
<path transform="matrix(1,0,0,-1,0,2500.15)" d="M0 0H178.582V357.164H0Z"/>
</clipPath>
<clipPath id="clip_49">
<path transform="matrix(1,0,0,-1,0,2857.315)" d="M0 0H178.582V357.164H0Z"/>
</clipPath>
<clipPath id="clip_50">
<path transform="matrix(1,0,0,-1,0,3214.479)" d="M0 0H178.582V357.164H0Z"/>
</clipPath>
<clipPath id="clip_51">
<path transform="matrix(1,0,0,-1,0,3571.644)" d="M0 0H178.582V357.164H0Z"/>
</clipPath>
<clipPath id="clip_52">
<path transform="matrix(1,0,0,-1,0,3928.808)" d="M0 0H178.582V357.164H0Z"/>
</clipPath>
<clipPath id="clip_53">
<path transform="matrix(1,0,0,-1,0,4285.973)" d="M0 0H178.582V357.164H0Z"/>
</clipPath>
<clipPath id="clip_54">
<path transform="matrix(1,0,0,-1,0,4643.137)" d="M0 0H178.582V357.164H0Z"/>
</clipPath>
<clipPath id="clip_55">
<path transform="matrix(1,0,0,-1,0,5000.302)" d="M0 0H178.582V357.164H0Z"/>
</clipPath>
</defs>
<path transform="matrix(1,0,0,-1,89.291,-178.58301)" stroke-width=".3985" stroke-linecap="butt" stroke-miterlimit="10" stroke-linejoin="miter" fill="none" stroke="#000000" d="M0-357.1691"/>
<g clip-path="url(#clip_42)">
<path transform="matrix(1,0,0,-1,89.291,178.58097)" stroke-width=".59776" stroke-linecap="round" stroke-linejoin="round" fill="none" stroke="#000000" d="M3.0656 176.03948C-8.7937 178.03542-19.78018 100.83891-21.47318 3.61513-23.16618-93.60864-14.9249-174.04364-3.0656-176.03957"/>
<path transform="matrix(1,0,0,-1,89.291,178.58097)" stroke-width=".59776" stroke-linecap="round" stroke-linejoin="round" fill="none" stroke="#000000" d="M-3.0664 176.03636C8.79443 178.03549 19.78299 100.84404 21.47627 3.62332 23.16954-93.59737 14.92728-174.03739 3.0664-176.03652"/>
<path transform="matrix(1,0,0,-1,89.291,178.58097)" stroke-width=".59776" stroke-linecap="round" stroke-linejoin="round" fill="none" stroke="#000000" d="M-17.0692 168.11609C10.27559 194.9711 40.08578 141.47336 49.51265 48.62633 58.93953-44.22067 44.41403-141.26126 17.06923-168.11627"/>
<path transform="matrix(1,0,0,-1,89.291,178.58097)" stroke-width=".59776" stroke-linecap="round" stroke-linejoin="round" fill="none" stroke="#000000" d="M-17.06674-168.1194C-44.41096-141.2686-58.93654-44.2316-49.51096 48.61844-40.08536 141.46849-10.27744 194.97035 17.06677 168.11956"/>
<path transform="matrix(1,0,0,-1,89.291,178.58097)" stroke-width=".59776" stroke-linecap="round" stroke-linejoin="round" fill="none" stroke="#000000" d="M27.59247-154.0055C24.0161-160.20362 8.76324-164.04927-6.47586-162.59496-16.95232-161.59519-25.13484-158.26735-27.59349-154.00652"/>
<path transform="matrix(1,0,0,-1,89.291,178.58097)" stroke-width=".59776" stroke-linecap="round" stroke-linejoin="round" fill="none" stroke="#000000" d="M48.94893-88.91415C46.88455-99.90927 23.29556-108.14267-3.73811-107.30357-27.89743-106.55353-47.10477-98.74214-48.94954-88.91621"/>
<path transform="matrix(1,0,0,-1,89.291,178.58097)" stroke-width=".59776" stroke-linecap="round" stroke-linejoin="round" fill="none" stroke="#000000" d="M56.68488 .00102C56.68484-12.73175 31.30609-23.05428 0-23.05482-31.30609-23.05537-56.68494-12.73383-56.6849-.00102"/>
<path transform="matrix(1,0,0,-1,89.291,178.58097)" stroke-width=".59776" stroke-linecap="round" stroke-linejoin="round" fill="none" stroke="#000000" d="M48.94826 88.91577C51.01254 77.92076 30.77089 68.3262 3.73723 67.48608-13.74783 66.9428-30.624 70.23575-40.5232 76.12282-46.82591 79.87103-49.80061 84.38574-48.95021 88.91371"/>
<path transform="matrix(1,0,0,-1,89.291,178.58097)" stroke-width=".59776" stroke-linecap="round" stroke-linejoin="round" fill="none" stroke="#000000" d="M27.59265 154.0066C31.1687 147.80861 21.7143 141.60459 6.47513 140.14986-8.76404 138.69513-24.01741 142.54016-27.59348 148.73816-28.59276 150.46997-28.59282 152.2738-27.5933 154.00559"/>
<path transform="matrix(1,0,0,-1,89.291,178.58097)" stroke-width=".59776" stroke-linecap="round" stroke-linejoin="round" fill="none" stroke="#000000" d="M56.69101 0C56.69101 97.37567 31.30997 176.312 0 176.312-31.30997 176.312-56.69101 97.37567-56.69101 0-56.69101-97.37567-31.30997-176.312 0-176.312 31.30997-176.312 56.69101-97.37567 56.69101 0ZM0 0"/>
</g>
<path transform="matrix(1,0,0,-1,89.291,-178.58301)" stroke-width=".3985" stroke-linecap="butt" stroke-miterlimit="10" stroke-linejoin="miter" fill="none" stroke="#000000" d="M0-714.3382"/>
<g clip-path="url(#clip_43)">
<path transform="matrix(1,0,0,-1,89.291,535.746)" stroke-width=".59776" stroke-linecap="round" stroke-linejoin="round" fill="none" stroke="#000000" d="M3.20398 172.20851C-8.78061 174.22798-19.93074 98.76654-21.70012 3.65872-23.4695-91.44908-15.18864-170.18909-3.20404-172.20858"/>
<path transform="matrix(1,0,0,-1,89.291,535.746)" stroke-width=".59776" stroke-linecap="round" stroke-linejoin="round" fill="none" stroke="#000000" d="M-3.20485 172.21063C8.782 174.23528 19.9339 98.77652 21.70389 3.66621 23.47386-91.44409 15.1917-170.18611 3.20485-172.21076"/>
<path transform="matrix(1,0,0,-1,89.291,535.746)" stroke-width=".59776" stroke-linecap="round" stroke-linejoin="round" fill="none" stroke="#000000" d="M-17.78415 163.97034C9.76778 191.02458 40.06596 139.54322 49.88786 48.986 59.70978-41.5712 45.33615-136.91622 17.78421-163.97046"/>
<path transform="matrix(1,0,0,-1,89.291,535.746)" stroke-width=".59776" stroke-linecap="round" stroke-linejoin="round" fill="none" stroke="#000000" d="M-17.78003-163.97414C-45.3314-136.9306-59.70512-41.58977-49.88614 48.97061-40.06715 139.531-9.77127 191.01787 17.78009 163.97432"/>
<path transform="matrix(1,0,0,-1,89.291,535.746)" stroke-width=".59776" stroke-linecap="round" stroke-linejoin="round" fill="none" stroke="#000000" d="M27.85149-150.76242C24.11143-157.01665 8.61043-160.85463-6.7716-159.33452-17.18594-158.30527-25.32011-154.99845-27.85194-150.76433"/>
<path transform="matrix(1,0,0,-1,89.291,535.746)" stroke-width=".59776" stroke-linecap="round" stroke-linejoin="round" fill="none" stroke="#000000" d="M49.49236-87.0412C47.33295-98.15489 23.42416-106.45398-3.9099-105.57689-28.24121-104.79633-47.57135-96.93742-49.49364-87.04485"/>
<path transform="matrix(1,0,0,-1,89.291,535.746)" stroke-width=".59776" stroke-linecap="round" stroke-linejoin="round" fill="none" stroke="#000000" d="M57.3254 .00192C57.32535-12.87048 31.65984-23.3066 0-23.30763-31.65984-23.30867-57.32544-12.87428-57.3254-.00186"/>
<path transform="matrix(1,0,0,-1,89.291,535.746)" stroke-width=".59776" stroke-linecap="round" stroke-linejoin="round" fill="none" stroke="#000000" d="M49.49257 87.04471C51.65184 75.93105 31.244 66.2094 3.90962 65.33054-13.77007 64.7622-30.85858 68.07301-40.9075 74.0139-47.35684 77.8265-50.38966 82.42784-49.49342 87.04106"/>
<path transform="matrix(1,0,0,-1,89.291,535.746)" stroke-width=".59776" stroke-linecap="round" stroke-linejoin="round" fill="none" stroke="#000000" d="M27.85173 150.7641C31.59158 144.51013 22.15341 138.20722 6.77141 136.68611-8.61058 135.16503-24.11191 139.0019-27.85176 145.25588-28.93297 147.06418-28.93303 148.95381-27.8517 150.76219"/>
<path transform="matrix(1,0,0,-1,89.291,535.746)" stroke-width=".59776" stroke-linecap="round" stroke-linejoin="round" fill="none" stroke="#000000" d="M57.33159 0C57.33159 95.26843 31.66377 172.49657 0 172.49657-31.66377 172.49657-57.33159 95.26843-57.33159 0-57.33159-95.26843-31.66377-172.49657 0-172.49657 31.66377-172.49657 57.33159-95.26843 57.33159 0ZM0 0"/>
</g>
<path transform="matrix(1,0,0,-1,89.291,-178.58301)" stroke-width=".3985" stroke-linecap="butt" stroke-miterlimit="10" stroke-linejoin="miter" fill="none" stroke="#000000" d="M0-1071.5073"/>
<g clip-path="url(#clip_44)">
<path transform="matrix(1,0,0,-1,89.291,892.9099)" stroke-width=".59776" stroke-linecap="round" stroke-linejoin="round" fill="none" stroke="#000000" d="M3.35236 168.39107C-8.76143 170.43231-20.0826 96.69647-21.93402 3.6967-23.78543-89.30305-15.46623-166.34993-3.35242-168.39119"/>
<path transform="matrix(1,0,0,-1,89.291,892.9099)" stroke-width=".59776" stroke-linecap="round" stroke-linejoin="round" fill="none" stroke="#000000" d="M-3.35289 168.39072C8.76282 170.43334 20.0858 96.6988 21.93752 3.69925 23.78922-89.30031 15.46869-166.34815 3.35295-168.39078"/>
<path transform="matrix(1,0,0,-1,89.291,892.9099)" stroke-width=".59776" stroke-linecap="round" stroke-linejoin="round" fill="none" stroke="#000000" d="M-18.54698 159.81536C9.21179 187.07141 40.01915 137.618 50.26183 49.35449 60.50449-38.909 46.30585-132.5595 18.54704-159.81557"/>
<path transform="matrix(1,0,0,-1,89.291,892.9099)" stroke-width=".59776" stroke-linecap="round" stroke-linejoin="round" fill="none" stroke="#000000" d="M-18.54362-159.81752C-46.30186-132.56415-60.50143-38.91902-50.26009 49.3469-40.01874 137.61281-9.2146 187.07106 18.54362 159.81768"/>
<path transform="matrix(1,0,0,-1,89.291,892.9099)" stroke-width=".59776" stroke-linecap="round" stroke-linejoin="round" fill="none" stroke="#000000" d="M28.11275-147.53278C24.19666-153.84708 8.43594-157.675-7.09064-156.08242-17.42992-155.02198-25.50632-151.73772-28.11404-147.53287"/>
<path transform="matrix(1,0,0,-1,89.291,892.9099)" stroke-width=".59776" stroke-linecap="round" stroke-linejoin="round" fill="none" stroke="#000000" d="M50.05177-85.17801C47.79068-96.41962 23.54851-104.788-4.09416-103.86842-28.59688-103.0534-48.04945-95.14258-50.05318-85.17783"/>
<path transform="matrix(1,0,0,-1,89.291,892.9099)" stroke-width=".59776" stroke-linecap="round" stroke-linejoin="round" fill="none" stroke="#000000" d="M57.9871 0C57.98706-13.02394 32.0253-23.582 0-23.58194-32.0253-23.58188-57.98718-13.02379-57.98714 .00014"/>
<path transform="matrix(1,0,0,-1,89.291,892.9099)" stroke-width=".59776" stroke-linecap="round" stroke-linejoin="round" fill="none" stroke="#000000" d="M50.05205 85.17747C52.31204 73.93567 31.73595 64.07684 4.0928 63.15779-13.78644 62.56342-31.09355 65.89441-41.2994 71.89392-47.9037 75.77599-50.99931 80.47269-50.0529 85.17764"/>
<path transform="matrix(1,0,0,-1,89.291,892.9099)" stroke-width=".59776" stroke-linecap="round" stroke-linejoin="round" fill="none" stroke="#000000" d="M28.1129 147.5326C32.02887 141.21833 22.61626 134.80855 7.08974 133.21604-8.43675 131.62352-24.19809 135.4514-28.11406 141.76566-29.2875 143.6576-29.28746 145.64054-28.11389 147.5325"/>
<path transform="matrix(1,0,0,-1,89.291,892.9099)" stroke-width=".59776" stroke-linecap="round" stroke-linejoin="round" fill="none" stroke="#000000" d="M57.99338 0C57.99338 93.1641 32.02927 168.68634 0 168.68634-32.02927 168.68634-57.99338 93.1641-57.99338 0-57.99338-93.1641-32.02927-168.68634 0-168.68634 32.02927-168.68634 57.99338-93.1641 57.99338 0ZM0 0"/>
</g>
<path transform="matrix(1,0,0,-1,89.291,-178.58301)" stroke-width=".3985" stroke-linecap="butt" stroke-miterlimit="10" stroke-linejoin="miter" fill="none" stroke="#000000" d="M0-1428.6764"/>
<g clip-path="url(#clip_45)">
<path transform="matrix(1,0,0,-1,89.291,1250.075)" stroke-width=".59776" stroke-linecap="round" stroke-linejoin="round" fill="none" stroke="#000000" d="M3.5089 164.5723C-8.73756 166.6335-20.2362 94.6236-22.17412 3.7324-24.11201-87.15875-15.7554-162.51122-3.50893-164.57242"/>
<path transform="matrix(1,0,0,-1,89.291,1250.075)" stroke-width=".59776" stroke-linecap="round" stroke-linejoin="round" fill="none" stroke="#000000" d="M-3.51031 164.57149C8.74104 166.63545 20.24428 94.62813 22.18297 3.73738 24.12164-87.15335 15.76167-162.50768 3.51031-164.57164"/>
<path transform="matrix(1,0,0,-1,89.291,1250.075)" stroke-width=".59776" stroke-linecap="round" stroke-linejoin="round" fill="none" stroke="#000000" d="M-19.3514 155.64041C8.61646 183.09186 39.95282 135.66654 50.63982 49.7079 61.32683-36.2507 47.31929-128.18915 19.35143-155.6406"/>
<path transform="matrix(1,0,0,-1,89.291,1250.075)" stroke-width=".59776" stroke-linecap="round" stroke-linejoin="round" fill="none" stroke="#000000" d="M-19.34486-155.64644C-47.31125-128.20522-61.3209-36.2736-50.63728 49.68808-39.95364 135.64978-8.62152 183.08766 19.34486 155.64644"/>
<path transform="matrix(1,0,0,-1,89.291,1250.075)" stroke-width=".59776" stroke-linecap="round" stroke-linejoin="round" fill="none" stroke="#000000" d="M28.3813-144.30062C24.27844-150.672 8.24553-154.48529-7.4293-152.81774-17.68552-151.72661-25.69855-148.46979-28.38266-144.3009"/>
<path transform="matrix(1,0,0,-1,89.291,1250.075)" stroke-width=".59776" stroke-linecap="round" stroke-linejoin="round" fill="none" stroke="#000000" d="M50.63179-83.31105C48.26338-94.67749 23.67447-103.11166-4.28918-102.14922-28.96413-101.29991-48.54482-93.3415-50.6343-83.3118"/>
<path transform="matrix(1,0,0,-1,89.291,1250.075)" stroke-width=".59776" stroke-linecap="round" stroke-linejoin="round" fill="none" stroke="#000000" d="M58.67477 .0005C58.6743-13.17136 32.40536-23.8496 .00003-23.84969-32.40527-23.84978-58.67522-13.17241-58.67474-.00053"/>
<path transform="matrix(1,0,0,-1,89.291,1250.075)" stroke-width=".59776" stroke-linecap="round" stroke-linejoin="round" fill="none" stroke="#000000" d="M50.63255 83.31183C53.00087 71.94536 32.25102 61.95042 4.28717 60.98753-13.79941 60.36493-31.33575 63.71265-41.70578 69.76799-48.47414 73.71988-51.6334 78.51312-50.63353 83.31108"/>
<path transform="matrix(1,0,0,-1,89.291,1250.075)" stroke-width=".59776" stroke-linecap="round" stroke-linejoin="round" fill="none" stroke="#000000" d="M28.38191 144.30062C32.48447 137.92934 23.10284 131.41223 7.42815 129.74454-8.24654 128.07683-24.27974 131.89005-28.38228 138.26132-29.65637 140.24007-29.65662 142.32157-28.38203 144.30031"/>
<path transform="matrix(1,0,0,-1,89.291,1250.075)" stroke-width=".59776" stroke-linecap="round" stroke-linejoin="round" fill="none" stroke="#000000" d="M58.68155 0C58.68155 91.0621 32.40933 164.88043 0 164.88043-32.40933 164.88043-58.68155 91.0621-58.68155 0-58.68155-91.0621-32.40933-164.88043 0-164.88043 32.40933-164.88043 58.68155-91.0621 58.68155 0ZM0 0"/>
</g>
<path transform="matrix(1,0,0,-1,89.291,-178.58301)" stroke-width=".3985" stroke-linecap="butt" stroke-miterlimit="10" stroke-linejoin="miter" fill="none" stroke="#000000" d="M0-1785.8456"/>
<g clip-path="url(#clip_46)">
<path transform="matrix(1,0,0,-1,89.291,1607.239)" stroke-width=".59776" stroke-linecap="round" stroke-linejoin="round" fill="none" stroke="#000000" d="M3.67981 160.75241C-8.70476 162.83626-20.39233 92.55717-22.42436 3.77667-24.45638-85.00383-16.06439-158.6688-3.67981-160.75263"/>
<path transform="matrix(1,0,0,-1,89.291,1607.239)" stroke-width=".59776" stroke-linecap="round" stroke-linejoin="round" fill="none" stroke="#000000" d="M-3.68037 160.75206C8.70616 162.83724 20.39563 92.55939 22.42798 3.7791 24.46031-85.00117 16.067-158.66703 3.68044-160.75218"/>
<path transform="matrix(1,0,0,-1,89.291,1607.239)" stroke-width=".59776" stroke-linecap="round" stroke-linejoin="round" fill="none" stroke="#000000" d="M-20.21019 151.44499C7.9605 179.09654 39.84688 133.70975 51.00815 50.06998 62.16942-33.5698 48.38087-123.79369 20.21019-151.44524"/>
<path transform="matrix(1,0,0,-1,89.291,1607.239)" stroke-width=".59776" stroke-linecap="round" stroke-linejoin="round" fill="none" stroke="#000000" d="M-20.20833-151.44915C-48.37845-123.80026-62.16714-33.58018-51.00642 50.063-39.84572 133.70623-7.96178 179.09816 20.20833 151.4493"/>
<path transform="matrix(1,0,0,-1,89.291,1607.239)" stroke-width=".59776" stroke-linecap="round" stroke-linejoin="round" fill="none" stroke="#000000" d="M28.65121-141.08409C24.34464-147.51667 8.0261-151.31249-7.79765-149.56223-17.952-148.43898-25.88806-145.21308-28.65149-141.0854"/>
<path transform="matrix(1,0,0,-1,89.291,1607.239)" stroke-width=".59776" stroke-linecap="round" stroke-linejoin="round" fill="none" stroke="#000000" d="M51.23177-81.45338C48.74547-92.95557 23.79327-101.46141-4.50174-100.45137-29.34879-99.56458-49.05055-91.55661-51.2336-81.45593"/>
<path transform="matrix(1,0,0,-1,89.291,1607.239)" stroke-width=".59776" stroke-linecap="round" stroke-linejoin="round" fill="none" stroke="#000000" d="M59.3862 .00136C59.38615-13.33124 32.798-24.14018 0-24.14093-32.79797-24.14168-59.38625-13.334-59.3862-.00139"/>
<path transform="matrix(1,0,0,-1,89.291,1607.239)" stroke-width=".59776" stroke-linecap="round" stroke-linejoin="round" fill="none" stroke="#000000" d="M51.23203 81.45598C53.71754 69.95387 32.79575 59.80957 4.50061 58.79854-13.80074 58.14453-31.57584 61.51042-42.11876 67.62608-49.06285 71.65385-52.29253 76.55363-51.23334 81.45343"/>
<path transform="matrix(1,0,0,-1,89.291,1607.239)" stroke-width=".59776" stroke-linecap="round" stroke-linejoin="round" fill="none" stroke="#000000" d="M28.65112 141.08496C32.95755 134.65267 23.6207 128.01885 7.79709 126.26787-8.0265 124.51689-24.34508 128.31198-28.65149 134.74428-30.0403 136.81897-30.0406 139.00888-28.65158 141.08365"/>
<path transform="matrix(1,0,0,-1,89.291,1607.239)" stroke-width=".59776" stroke-linecap="round" stroke-linejoin="round" fill="none" stroke="#000000" d="M59.39265 0C59.39265 88.96373 32.80206 161.08103 0 161.08103-32.80206 161.08103-59.39265 88.96373-59.39265 0-59.39265-88.96373-32.80206-161.08103 0-161.08103 32.80206-161.08103 59.39265-88.96373 59.39265 0ZM0 0"/>
</g>
<path transform="matrix(1,0,0,-1,89.291,-178.58301)" stroke-width=".3985" stroke-linecap="butt" stroke-miterlimit="10" stroke-linejoin="miter" fill="none" stroke="#000000" d="M0-2143.0147"/>
<g clip-path="url(#clip_47)">
<path transform="matrix(1,0,0,-1,89.291,1964.404)" stroke-width=".59776" stroke-linecap="round" stroke-linejoin="round" fill="none" stroke="#000000" d="M3.86449 156.95085C-8.66113 159.06359-20.54538 90.51006-22.67949 3.82796-24.8136-82.85413-16.39015-154.83817-3.86452-156.95088"/>
<path transform="matrix(1,0,0,-1,89.291,1964.404)" stroke-width=".59776" stroke-linecap="round" stroke-linejoin="round" fill="none" stroke="#000000" d="M-3.86511 156.95044C8.66252 159.06447 20.54866 90.51213 22.68312 3.83026 24.81758-82.85158 16.39279-154.83649 3.86514-156.9505"/>
<path transform="matrix(1,0,0,-1,89.291,1964.404)" stroke-width=".59776" stroke-linecap="round" stroke-linejoin="round" fill="none" stroke="#000000" d="M-21.13313 147.23679C7.23796 175.10192 39.6989 131.77404 51.36993 50.45662 63.04099-30.86078 49.50429-119.37195 21.1332-147.23706"/>
<path transform="matrix(1,0,0,-1,89.291,1964.404)" stroke-width=".59776" stroke-linecap="round" stroke-linejoin="round" fill="none" stroke="#000000" d="M-21.12784-147.24279C-49.49837-119.38739-63.03691-30.8802-51.369 50.44016-39.70108 131.76053-7.24261 175.09818 21.1279 147.24279"/>
<path transform="matrix(1,0,0,-1,89.291,1964.404)" stroke-width=".59776" stroke-linecap="round" stroke-linejoin="round" fill="none" stroke="#000000" d="M28.92284-137.88738C24.39682-144.38353 7.77832-148.1579-8.19536-146.31766-18.23134-145.16138-26.0792-141.97013-28.92293-137.88881"/>
<path transform="matrix(1,0,0,-1,89.291,1964.404)" stroke-width=".59776" stroke-linecap="round" stroke-linejoin="round" fill="none" stroke="#000000" d="M51.85199-79.60814C49.23874-91.25417 23.90536-99.83463-4.73195-98.77254-29.74539-97.84476-49.57199-89.78297-51.85393-79.61064"/>
<path transform="matrix(1,0,0,-1,89.291,1964.404)" stroke-width=".59776" stroke-linecap="round" stroke-linejoin="round" fill="none" stroke="#000000" d="M60.12318 .00133C60.12314-13.50223 33.20502-24.44975 0-24.4505-33.20502-24.45125-60.12326-13.50496-60.12321-.00139"/>
<path transform="matrix(1,0,0,-1,89.291,1964.404)" stroke-width=".59776" stroke-linecap="round" stroke-linejoin="round" fill="none" stroke="#000000" d="M51.85251 79.6105C54.46547 67.96461 33.3682 57.66144 4.73093 56.59816-13.79167 55.91031-31.8151 59.29466-42.54079 65.47403-49.67403 69.58408-52.97763 74.59782-51.85341 79.608"/>
<path transform="matrix(1,0,0,-1,89.291,1964.404)" stroke-width=".59776" stroke-linecap="round" stroke-linejoin="round" fill="none" stroke="#000000" d="M28.92229 137.88883C33.44833 131.39293 24.16872 124.6344 8.1951 122.79344-7.77849 120.95248-24.39706 124.72589-28.92311 131.22179-30.4409 133.40006-30.44151 135.70894-28.92348 137.88739"/>
<path transform="matrix(1,0,0,-1,89.291,1964.404)" stroke-width=".59776" stroke-linecap="round" stroke-linejoin="round" fill="none" stroke="#000000" d="M60.12968 0C60.12968 86.86893 33.20912 157.2881 0 157.2881-33.20912 157.2881-60.12968 86.86893-60.12968 0-60.12968-86.86893-33.20912-157.2881 0-157.2881 33.20912-157.2881 60.12968-86.86893 60.12968 0ZM0 0"/>
</g>
<path transform="matrix(1,0,0,-1,89.291,-178.58301)" stroke-width=".3985" stroke-linecap="butt" stroke-miterlimit="10" stroke-linejoin="miter" fill="none" stroke="#000000" d="M0-2500.1839"/>
<g clip-path="url(#clip_48)">
<path transform="matrix(1,0,0,-1,89.291,2321.5679)" stroke-width=".59776" stroke-linecap="round" stroke-linejoin="round" fill="none" stroke="#000000" d="M4.06142 153.15056C-8.61037 155.28643-20.70154 88.45277-22.94435 3.87038-25.18716-80.71202-16.73323-151.01482-4.06145-153.15068"/>
<path transform="matrix(1,0,0,-1,89.291,2321.5679)" stroke-width=".59776" stroke-linecap="round" stroke-linejoin="round" fill="none" stroke="#000000" d="M-4.06207 153.14974C8.61172 155.28816 20.70486 88.45692 22.94801 3.87497 25.19118-80.70695 16.73592-151.01148 4.0621-153.14989"/>
<path transform="matrix(1,0,0,-1,89.291,2321.5679)" stroke-width=".59776" stroke-linecap="round" stroke-linejoin="round" fill="none" stroke="#000000" d="M-22.1105 143.01178C6.45992 171.07723 39.52013 129.80359 51.73087 50.81967 63.9416-28.16423 50.68095-114.9465 22.1105-143.01194"/>
<path transform="matrix(1,0,0,-1,89.291,2321.5679)" stroke-width=".59776" stroke-linecap="round" stroke-linejoin="round" fill="none" stroke="#000000" d="M-22.10512-143.01515C-50.67413-114.95673-63.93755-28.18077-51.72913 50.80386-39.5207 129.78852-6.46385 171.07386 22.10515 143.01543"/>
<path transform="matrix(1,0,0,-1,89.291,2321.5679)" stroke-width=".59776" stroke-linecap="round" stroke-linejoin="round" fill="none" stroke="#000000" d="M29.19907-134.69484C24.43683-141.25423 7.5035-145.00182-8.62303-143.06511-18.5256-141.8759-26.276-138.72368-29.20012-134.696"/>
<path transform="matrix(1,0,0,-1,89.291,2321.5679)" stroke-width=".59776" stroke-linecap="round" stroke-linejoin="round" fill="none" stroke="#000000" d="M52.498-77.76465C49.74896-89.55772 24.0162-98.2123-4.97765-97.09465-30.16492-96.12366-50.11192-88.01158-52.49995-77.76683"/>
<path transform="matrix(1,0,0,-1,89.291,2321.5679)" stroke-width=".59776" stroke-linecap="round" stroke-linejoin="round" fill="none" stroke="#000000" d="M60.89128 .00105C60.89124-13.67734 33.6292-24.76646 0-24.76701-33.62923-24.76756-60.89134-13.6794-60.8913-.00099"/>
<path transform="matrix(1,0,0,-1,89.291,2321.5679)" stroke-width=".59776" stroke-linecap="round" stroke-linejoin="round" fill="none" stroke="#000000" d="M52.4984 77.76678C55.24767 65.97363 33.97137 55.5063 4.97702 54.38756-13.77643 53.6641-32.0602 57.06622-42.97717 63.31003-50.3125 67.50548-53.69464 72.63919-52.49956 77.7646"/>
<path transform="matrix(1,0,0,-1,89.291,2321.5679)" stroke-width=".59776" stroke-linecap="round" stroke-linejoin="round" fill="none" stroke="#000000" d="M29.1989 134.69574C33.96092 128.13663 24.74837 121.24875 8.6221 119.31157-7.50417 117.37437-24.4381 121.12119-29.20012 127.6803-30.86186 129.96892-30.86209 132.40579-29.20029 134.69458"/>
<path transform="matrix(1,0,0,-1,89.291,2321.5679)" stroke-width=".59776" stroke-linecap="round" stroke-linejoin="round" fill="none" stroke="#000000" d="M60.89787 0C60.89787 84.77771 33.63338 153.50167 0 153.50167-33.63338 153.50167-60.89787 84.77771-60.89787 0-60.89787-84.77771-33.63338-153.50167 0-153.50167 33.63338-153.50167 60.89787-84.77771 60.89787 0ZM0 0"/>
</g>
<path transform="matrix(1,0,0,-1,89.291,-178.58301)" stroke-width=".3985" stroke-linecap="butt" stroke-miterlimit="10" stroke-linejoin="miter" fill="none" stroke="#000000" d="M0-2857.3529"/>
<g clip-path="url(#clip_49)">
<path transform="matrix(1,0,0,-1,89.291,2678.733)" stroke-width=".59776" stroke-linecap="round" stroke-linejoin="round" fill="none" stroke="#000000" d="M4.2724 149.34839C-8.54916 151.50926-20.85602 86.39856-23.21536 3.91537-25.5747-78.56781-17.09398-147.18762-4.2724-149.34848"/>
<path transform="matrix(1,0,0,-1,89.291,2678.733)" stroke-width=".59776" stroke-linecap="round" stroke-linejoin="round" fill="none" stroke="#000000" d="M-4.2724 149.3479C8.54916 151.51004 20.85602 86.40056 23.21536 3.91759 25.5747-78.56537 17.09398-147.18599 4.2724-149.34812"/>
<path transform="matrix(1,0,0,-1,89.291,2678.733)" stroke-width=".59776" stroke-linecap="round" stroke-linejoin="round" fill="none" stroke="#000000" d="M-23.13766 138.78122C5.6255 167.02857 39.30287 127.79471 52.08089 51.14876 64.85892-25.4972 51.90086-110.53406 23.1377-138.7814"/>
<path transform="matrix(1,0,0,-1,89.291,2678.733)" stroke-width=".59776" stroke-linecap="round" stroke-linejoin="round" fill="none" stroke="#000000" d="M-23.13727-138.7822C-51.89996-110.53603-64.85779-25.49966-52.07997 51.14679-39.30217 127.79326-5.62538 167.02849 23.1373 138.78232"/>
<path transform="matrix(1,0,0,-1,89.291,2678.733)" stroke-width=".59776" stroke-linecap="round" stroke-linejoin="round" fill="none" stroke="#000000" d="M29.47418-131.51827C24.45892-138.13957 7.19704-141.85358-9.08096-139.8136-18.832-138.59156-26.47018-135.48471-29.47423-131.51842"/>
<path transform="matrix(1,0,0,-1,89.291,2678.733)" stroke-width=".59776" stroke-linecap="round" stroke-linejoin="round" fill="none" stroke="#000000" d="M53.16206-75.93184C50.26651-87.87462 24.1179-96.60167-5.24272-95.42397-30.59868-94.4067-50.66263-86.24579-53.16257-75.93204"/>
<path transform="matrix(1,0,0,-1,89.291,2678.733)" stroke-width=".59776" stroke-linecap="round" stroke-linejoin="round" fill="none" stroke="#000000" d="M61.68199 .00014C61.68181-13.85663 34.06596-25.09 0-25.09006-34.06596-25.09012-61.6822-13.85709-61.68202-.00029"/>
<path transform="matrix(1,0,0,-1,89.291,2678.733)" stroke-width=".59776" stroke-linecap="round" stroke-linejoin="round" fill="none" stroke="#000000" d="M53.1618 75.93176C56.05675 63.98883 34.60248 53.35257 5.24146 52.1749-13.7486 51.41331-32.302 54.83142-43.41911 61.14003-50.96979 65.42473-54.43541 70.68504-53.16284 75.93156"/>
<path transform="matrix(1,0,0,-1,89.291,2678.733)" stroke-width=".59776" stroke-linecap="round" stroke-linejoin="round" fill="none" stroke="#000000" d="M29.47404 131.51827C34.48901 124.897 25.35866 117.87538 9.08067 115.83542-7.19731 113.79546-24.45944 117.5093-29.47441 124.13055-31.29668 126.53658-31.29697 129.11203-29.47437 131.51811"/>
<path transform="matrix(1,0,0,-1,89.291,2678.733)" stroke-width=".59776" stroke-linecap="round" stroke-linejoin="round" fill="none" stroke="#000000" d="M61.69072 0C61.69072 82.69102 34.07127 149.72344 0 149.72344-34.07127 149.72344-61.69072 82.69102-61.69072 0-61.69072-82.69102-34.07127-149.72344 0-149.72344 34.07127-149.72344 61.69072-82.69102 61.69072 0ZM0 0"/>
</g>
<path transform="matrix(1,0,0,-1,89.291,-178.58301)" stroke-width=".3985" stroke-linecap="butt" stroke-miterlimit="10" stroke-linejoin="miter" fill="none" stroke="#000000" d="M0-3214.522"/>
<g clip-path="url(#clip_50)">
<path transform="matrix(1,0,0,-1,89.291,3035.897)" stroke-width=".59776" stroke-linecap="round" stroke-linejoin="round" fill="none" stroke="#000000" d="M4.49915 145.56725C-8.47603 147.75443-21.00919 84.35573-23.49384 3.96185-25.97847-76.43199-17.47435-143.38018-4.49918-145.56734"/>
<path transform="matrix(1,0,0,-1,89.291,3035.897)" stroke-width=".59776" stroke-linecap="round" stroke-linejoin="round" fill="none" stroke="#000000" d="M-4.49985 145.56639C8.47737 147.75598 21.01253 84.35963 23.49759 3.96622 25.98264-76.42719 17.47716-143.37694 4.49991-145.56655"/>
<path transform="matrix(1,0,0,-1,89.291,3035.897)" stroke-width=".59776" stroke-linecap="round" stroke-linejoin="round" fill="none" stroke="#000000" d="M-24.23523 134.52947C4.71768 162.958 39.03958 125.77379 52.4241 51.47546 65.80862-22.82286 53.18819-106.10101 24.23526-134.52956"/>
<path transform="matrix(1,0,0,-1,89.291,3035.897)" stroke-width=".59776" stroke-linecap="round" stroke-linejoin="round" fill="none" stroke="#000000" d="M-24.22963-134.53409C-53.182-106.11339-65.80443-22.83836-52.42322 51.46222-39.04202 125.76282-4.72272 162.95484 24.22963 134.53414"/>
<path transform="matrix(1,0,0,-1,89.291,3035.897)" stroke-width=".59776" stroke-linecap="round" stroke-linejoin="round" fill="none" stroke="#000000" d="M29.75288-128.35939C24.46396-135.0419 6.85567-138.71575-9.57632-136.56505-19.15623-135.31099-26.66953-132.25582-29.75276-128.36003"/>
<path transform="matrix(1,0,0,-1,89.291,3035.897)" stroke-width=".59776" stroke-linecap="round" stroke-linejoin="round" fill="none" stroke="#000000" d="M53.85431-74.1074C50.80118-86.20296 24.21469-95.00262-5.5278-93.7613-31.05045-92.69615-51.23473-84.48831-53.8547-74.10889"/>
<path transform="matrix(1,0,0,-1,89.291,3035.897)" stroke-width=".59776" stroke-linecap="round" stroke-linejoin="round" fill="none" stroke="#000000" d="M62.51227 .00053C62.51222-14.03969 34.52444-25.42194 0-25.42224-34.52448-25.42255-62.51233-14.04085-62.51228-.0006"/>
<path transform="matrix(1,0,0,-1,89.291,3035.897)" stroke-width=".59776" stroke-linecap="round" stroke-linejoin="round" fill="none" stroke="#000000" d="M53.85423 74.10841C56.90724 62.0128 35.27101 51.20015 5.52824 49.95824-13.70938 49.15503-32.54611 52.58757-43.87566 58.96115-51.65771 63.33945-55.21118 68.73285-53.85478 74.10693"/>
<path transform="matrix(1,0,0,-1,89.291,3035.897)" stroke-width=".59776" stroke-linecap="round" stroke-linejoin="round" fill="none" stroke="#000000" d="M29.75278 128.36002C35.04184 121.6777 26.0082 114.51674 9.57646 112.36565-6.85526 110.21455-24.46367 113.88812-29.75275 120.57042-31.75594 123.1017-31.75618 125.82813-29.75287 128.35938"/>
<path transform="matrix(1,0,0,-1,89.291,3035.897)" stroke-width=".59776" stroke-linecap="round" stroke-linejoin="round" fill="none" stroke="#000000" d="M62.51903 0C62.51903 80.60889 34.52873 145.95345 0 145.95345-34.52873 145.95345-62.51903 80.60889-62.51903 0-62.51903-80.60889-34.52873-145.95345 0-145.95345 34.52873-145.95345 62.51903-80.60889 62.51903 0ZM0 0"/>
</g>
<path transform="matrix(1,0,0,-1,89.291,-178.58301)" stroke-width=".3985" stroke-linecap="butt" stroke-miterlimit="10" stroke-linejoin="miter" fill="none" stroke="#000000" d="M0-3571.6912"/>
<g clip-path="url(#clip_51)">
<path transform="matrix(1,0,0,-1,89.291,3393.062)" stroke-width=".59776" stroke-linecap="round" stroke-linejoin="round" fill="none" stroke="#000000" d="M4.74403 141.77838C-8.38913 143.98828-21.16005 82.30594-23.7798 4.00444-26.39954-74.29704-17.8772-139.56864-4.74403-141.77854"/>
<path transform="matrix(1,0,0,-1,89.291,3393.062)" stroke-width=".59776" stroke-linecap="round" stroke-linejoin="round" fill="none" stroke="#000000" d="M-4.7474 141.77869C8.39203 143.99515 21.16942 82.31685 23.79115 4.01508 26.41289-74.28668 17.88686-139.56229 4.7474-141.77875"/>
<path transform="matrix(1,0,0,-1,89.291,3393.062)" stroke-width=".59776" stroke-linecap="round" stroke-linejoin="round" fill="none" stroke="#000000" d="M-25.41638 130.24227C3.71812 158.8545 38.71619 123.73798 52.75313 51.80768 66.79005-20.12259 54.55095-101.63004 25.41644-130.2423"/>
<path transform="matrix(1,0,0,-1,89.291,3393.062)" stroke-width=".59776" stroke-linecap="round" stroke-linejoin="round" fill="none" stroke="#000000" d="M-25.40048-130.25986C-54.53658-101.66867-66.78339-20.1726-52.755 51.76869-38.72662 123.70999-3.73558 158.85112 25.40051 130.25992"/>
<path transform="matrix(1,0,0,-1,89.291,3393.062)" stroke-width=".59776" stroke-linecap="round" stroke-linejoin="round" fill="none" stroke="#000000" d="M30.03091-125.20952C24.44345-131.95377 6.46838-135.57971-10.11754-133.30817-19.50085-132.02298-26.87117-129.0268-30.03246-125.21141"/>
<path transform="matrix(1,0,0,-1,89.291,3393.062)" stroke-width=".59776" stroke-linecap="round" stroke-linejoin="round" fill="none" stroke="#000000" d="M54.57605-72.28816C51.35042-84.54417 24.30139-93.41754-5.8399-92.10666-31.52814-90.98961-51.82806-82.73613-54.57663-72.29094"/>
<path transform="matrix(1,0,0,-1,89.291,3393.062)" stroke-width=".59776" stroke-linecap="round" stroke-linejoin="round" fill="none" stroke="#000000" d="M63.37863 .00143C63.3786-14.23155 35.00343-25.77008 0-25.77087-35.00343-25.77167-63.3787-14.23447-63.37866-.00146"/>
<path transform="matrix(1,0,0,-1,89.291,3393.062)" stroke-width=".59776" stroke-linecap="round" stroke-linejoin="round" fill="none" stroke="#000000" d="M54.57558 72.29092C57.80067 60.03482 35.98114 49.0355 5.83928 47.7234-13.65575 46.8748-32.79054 50.32071-44.3457 56.76135-52.3789 61.23926-56.02785 66.77684-54.5771 72.28815"/>
<path transform="matrix(1,0,0,-1,89.291,3393.062)" stroke-width=".59776" stroke-linecap="round" stroke-linejoin="round" fill="none" stroke="#000000" d="M30.03175 125.21129C35.61981 118.46733 26.70375 111.15785 10.11792 108.88525-6.46791 106.61267-24.44374 110.23766-30.03178 116.9816-32.24252 119.64948-32.24199 122.54141-30.0316 125.2094"/>
<path transform="matrix(1,0,0,-1,89.291,3393.062)" stroke-width=".59776" stroke-linecap="round" stroke-linejoin="round" fill="none" stroke="#000000" d="M63.38669 0C63.38669 78.53175 35.00795 142.19252 0 142.19252-35.00795 142.19252-63.38669 78.53175-63.38669 0-63.38669-78.53175-35.00795-142.19252 0-142.19252 35.00795-142.19252 63.38669-78.53175 63.38669 0ZM0 0"/>
</g>
<path transform="matrix(1,0,0,-1,89.291,-178.58301)" stroke-width=".3985" stroke-linecap="butt" stroke-miterlimit="10" stroke-linejoin="miter" fill="none" stroke="#000000" d="M0-3928.86"/>
<g clip-path="url(#clip_52)">
<path transform="matrix(1,0,0,-1,89.291,3750.226)" stroke-width=".59776" stroke-linecap="round" stroke-linejoin="round" fill="none" stroke="#000000" d="M5.01205 138.00742C-8.28586 140.2467-21.31021 80.27673-24.07803 4.05746-26.84584-72.16179-18.31004-135.7682-5.01212-138.0075"/>
<path transform="matrix(1,0,0,-1,89.291,3750.226)" stroke-width=".59776" stroke-linecap="round" stroke-linejoin="round" fill="none" stroke="#000000" d="M-5.01361 138.00978C8.28644 140.25229 21.31361 80.28267 24.08223 4.06326 26.85086-72.15613 18.31372-135.7674 5.01367-138.0099"/>
<path transform="matrix(1,0,0,-1,89.291,3750.226)" stroke-width=".59776" stroke-linecap="round" stroke-linejoin="round" fill="none" stroke="#000000" d="M-26.66684 125.95212C2.63599 154.73125 38.32985 121.67146 53.05737 52.10985 67.7849-17.45174 55.96973-97.17316 26.66687-125.95227"/>
<path transform="matrix(1,0,0,-1,89.291,3750.226)" stroke-width=".59776" stroke-linecap="round" stroke-linejoin="round" fill="none" stroke="#000000" d="M-26.661-125.95947C-55.96419-97.18896-67.78151-17.47092-53.05743 52.09541-38.33336 121.66174-2.64218 154.73015 26.661 125.95964"/>
<path transform="matrix(1,0,0,-1,89.291,3750.226)" stroke-width=".59776" stroke-linecap="round" stroke-linejoin="round" fill="none" stroke="#000000" d="M30.3025-122.08603C24.39021-128.89298 6.03128-132.46231-10.70433-130.05797-19.86148-128.7425-27.06718-125.81187-30.30215-122.08743"/>
<path transform="matrix(1,0,0,-1,89.291,3750.226)" stroke-width=".59776" stroke-linecap="round" stroke-linejoin="round" fill="none" stroke="#000000" d="M55.31792-70.48526C51.90482-82.91142 24.37135-91.8605-6.18016-90.47295-32.02547-89.29922-52.43393-80.99959-55.32042-70.48769"/>
<path transform="matrix(1,0,0,-1,89.291,3750.226)" stroke-width=".59776" stroke-linecap="round" stroke-linejoin="round" fill="none" stroke="#000000" d="M64.27336 .00131C64.27332-14.43628 35.4971-26.14095 0-26.14162-35.49707-26.14229-64.2734-14.4388-64.27336-.00119"/>
<path transform="matrix(1,0,0,-1,89.291,3750.226)" stroke-width=".59776" stroke-linecap="round" stroke-linejoin="round" fill="none" stroke="#000000" d="M55.31865 70.48726C58.73172 58.06117 36.73041 46.86183 6.17871 45.47302-13.5822 44.57494-33.0271 48.03369-44.81923 54.54514-53.12294 59.13036-56.87411 64.82516-55.31969 70.48483"/>
<path transform="matrix(1,0,0,-1,89.291,3750.226)" stroke-width=".59776" stroke-linecap="round" stroke-linejoin="round" fill="none" stroke="#000000" d="M30.30212 122.08737C36.21434 115.28078 27.44008 107.81342 10.7047 105.40842-6.03069 103.00342-24.38994 106.57175-30.30215 113.37834-32.74847 116.19469-32.7491 119.26949-30.30254 122.08597"/>
<path transform="matrix(1,0,0,-1,89.291,3750.226)" stroke-width=".59776" stroke-linecap="round" stroke-linejoin="round" fill="none" stroke="#000000" d="M64.28032 0C64.28032 76.46085 35.5015 138.44286 0 138.44286-35.5015 138.44286-64.28032 76.46085-64.28032 0-64.28032-76.46085-35.5015-138.44286 0-138.44286 35.5015-138.44286 64.28032-76.46085 64.28032 0ZM0 0"/>
</g>
<path transform="matrix(1,0,0,-1,89.291,-178.58301)" stroke-width=".3985" stroke-linecap="butt" stroke-miterlimit="10" stroke-linejoin="miter" fill="none" stroke="#000000" d="M0-4286.0295"/>
<g clip-path="url(#clip_53)">
<path transform="matrix(1,0,0,-1,89.291,4107.391)" stroke-width=".59776" stroke-linecap="round" stroke-linejoin="round" fill="none" stroke="#000000" d="M5.30104 134.24483C-8.16653 136.51467-21.45784 78.25185-24.38539 4.111-27.31294-70.02985-18.76865-131.97518-5.30104-134.24501"/>
<path transform="matrix(1,0,0,-1,89.291,4107.391)" stroke-width=".59776" stroke-linecap="round" stroke-linejoin="round" fill="none" stroke="#000000" d="M-5.30087 134.24158C8.16724 136.51165 21.45868 78.25339 24.38597 4.11339 27.31326-70.0266 18.76901-131.97167 5.30087-134.24173"/>
<path transform="matrix(1,0,0,-1,89.291,4107.391)" stroke-width=".59776" stroke-linecap="round" stroke-linejoin="round" fill="none" stroke="#000000" d="M-27.99536 121.64516C1.46724 150.57216 37.88551 119.56035 53.34676 52.37753 68.80801-14.80528 57.45798-92.71832 27.99536-121.64531"/>
<path transform="matrix(1,0,0,-1,89.291,4107.391)" stroke-width=".59776" stroke-linecap="round" stroke-linejoin="round" fill="none" stroke="#000000" d="M-27.9949-121.6461C-57.45706-92.7201-68.8069-14.80743-53.34589 52.37589-37.88489 119.55922-1.46722 150.57227 27.9949 121.64626"/>
<path transform="matrix(1,0,0,-1,89.291,4107.391)" stroke-width=".59776" stroke-linecap="round" stroke-linejoin="round" fill="none" stroke="#000000" d="M30.56877-118.97806C24.3055-125.84346 5.54158-129.34467-11.34103-126.79793-20.24321-125.45493-27.26752-122.59875-30.57011-118.97859"/>
<path transform="matrix(1,0,0,-1,89.291,4107.391)" stroke-width=".59776" stroke-linecap="round" stroke-linejoin="round" fill="none" stroke="#000000" d="M56.0922-68.69135C52.47601-81.289 24.4309-90.31004-6.54811-88.83992-32.5481-87.60603-53.0601-79.2654-56.09447-68.69246"/>
<path transform="matrix(1,0,0,-1,89.291,4107.391)" stroke-width=".59776" stroke-linecap="round" stroke-linejoin="round" fill="none" stroke="#000000" d="M65.20938 .0007C65.20941-14.64423 36.0136-26.51707 0-26.51749-36.01357-26.5179-65.20935-14.64575-65.20938-.0008"/>
<path transform="matrix(1,0,0,-1,89.291,4107.391)" stroke-width=".59776" stroke-linecap="round" stroke-linejoin="round" fill="none" stroke="#000000" d="M56.09271 68.69221C59.70811 56.09451 37.52504 44.68954 6.54572 43.21896-13.49133 42.26775-33.26213 45.73724-45.3062 52.31822-53.90308 57.0153-57.76353 62.87534-56.09395 68.6911"/>
<path transform="matrix(1,0,0,-1,89.291,4107.391)" stroke-width=".59776" stroke-linecap="round" stroke-linejoin="round" fill="none" stroke="#000000" d="M30.56915 118.97864C36.83195 112.1133 28.2223 104.48282 11.3394 101.93584-5.54347 99.38885-24.30734 102.88971-30.57016 109.75505-33.28365 112.7296-33.28343 116.00357-30.56973 118.9781"/>
<path transform="matrix(1,0,0,-1,89.291,4107.391)" stroke-width=".59776" stroke-linecap="round" stroke-linejoin="round" fill="none" stroke="#000000" d="M65.21677 0C65.21677 74.39615 36.01868 134.70444 0 134.70444-36.01868 134.70444-65.21677 74.39615-65.21677 0-65.21677-74.39615-36.01868-134.70444 0-134.70444 36.01868-134.70444 65.21677-74.39615 65.21677 0ZM0 0"/>
</g>
<path transform="matrix(1,0,0,-1,89.291,-178.58301)" stroke-width=".3985" stroke-linecap="butt" stroke-miterlimit="10" stroke-linejoin="miter" fill="none" stroke="#000000" d="M0-4643.198"/>
<g clip-path="url(#clip_54)">
<path transform="matrix(1,0,0,-1,89.291,4464.555)" stroke-width=".59776" stroke-linecap="round" stroke-linejoin="round" fill="none" stroke="#000000" d="M5.61505 130.49483C-8.0263 132.79454-21.59888 76.23413-24.69998 4.164-27.8011-67.90611-19.25648-128.19524-5.61511-130.49495"/>
<path transform="matrix(1,0,0,-1,89.291,4464.555)" stroke-width=".59776" stroke-linecap="round" stroke-linejoin="round" fill="none" stroke="#000000" d="M-5.61569 130.49477C8.0262 132.79553 21.59969 76.23776 24.70093 4.16788 27.80215-67.902 19.2576-128.1941 5.61569-130.49489"/>
<path transform="matrix(1,0,0,-1,89.291,4464.555)" stroke-width=".59776" stroke-linecap="round" stroke-linejoin="round" fill="none" stroke="#000000" d="M-29.42557 117.31567C.18199 146.3898 37.35757 117.43646 53.6087 52.64417 69.85983-12.1481 59.0332-88.2415 29.42563-117.31564"/>
<path transform="matrix(1,0,0,-1,89.291,4464.555)" stroke-width=".59776" stroke-linecap="round" stroke-linejoin="round" fill="none" stroke="#000000" d="M-29.42046-117.31868C-59.02849-88.25058-69.85776-12.15956-53.60968 52.63419-37.3616 117.42795-.18756 146.387 29.42046 117.3189"/>
<path transform="matrix(1,0,0,-1,89.291,4464.555)" stroke-width=".59776" stroke-linecap="round" stroke-linejoin="round" fill="none" stroke="#000000" d="M30.8288-115.90161C24.17967-122.82521 4.9874-126.2462-12.03902-123.54243-20.65051-122.1749-27.46666-119.40327-30.82928-115.90144"/>
<path transform="matrix(1,0,0,-1,89.291,4464.555)" stroke-width=".59776" stroke-linecap="round" stroke-linejoin="round" fill="none" stroke="#000000" d="M56.89993-66.91553C53.06079-79.69408 24.47395-88.78827-6.95088-87.22719-33.09938-85.92838-53.70753-77.54808-56.90086-66.91533"/>
<path transform="matrix(1,0,0,-1,89.291,4464.555)" stroke-width=".59776" stroke-linecap="round" stroke-linejoin="round" fill="none" stroke="#000000" d="M66.19115 .00005C66.19116-14.86496 36.5558-26.9159 0-26.91594-36.55577-26.91599-66.19109-14.86511-66.19112-.00008"/>
<path transform="matrix(1,0,0,-1,89.291,4464.555)" stroke-width=".59776" stroke-linecap="round" stroke-linejoin="round" fill="none" stroke="#000000" d="M56.89926 66.91504C60.73749 54.13623 38.37396 42.5119 6.94844 40.9511-13.37749 39.94167-33.49127 43.41998-45.80374 50.07307-54.72038 54.89098-58.6999 60.92982-56.90154 66.91524"/>
<path transform="matrix(1,0,0,-1,89.291,4464.555)" stroke-width=".59776" stroke-linecap="round" stroke-linejoin="round" fill="none" stroke="#000000" d="M30.82893 115.90105C37.47726 108.97745 29.06451 101.17302 12.03804 98.46951-4.98842 95.766-24.18097 99.18694-30.8293 106.11055-33.85172 109.25789-33.85185 112.75403-30.82915 115.90121"/>
<path transform="matrix(1,0,0,-1,89.291,4464.555)" stroke-width=".59776" stroke-linecap="round" stroke-linejoin="round" fill="none" stroke="#000000" d="M66.19864 0C66.19864 72.33932 36.56096 130.98027 0 130.98027-36.56096 130.98027-66.19864 72.33932-66.19864 0-66.19864-72.33932-36.56096-130.98027 0-130.98027 36.56096-130.98027 66.19864-72.33932 66.19864 0ZM0 0"/>
</g>
<path transform="matrix(1,0,0,-1,89.291,-178.58301)" stroke-width=".3985" stroke-linecap="butt" stroke-miterlimit="10" stroke-linejoin="miter" fill="none" stroke="#000000" d="M0-5000.3679"/>
<g clip-path="url(#clip_55)">
<path transform="matrix(1,0,0,-1,89.291,4821.7199)" stroke-width=".59776" stroke-linecap="round" stroke-linejoin="round" fill="none" stroke="#000000" d="M5.95905 126.75516C-7.8604 129.08216-21.73169 74.22032-25.02248 4.21596-28.31326-65.78839-19.77853-124.42825-5.95908-126.75525"/>
<path transform="matrix(1,0,0,-1,89.291,4821.7199)" stroke-width=".59776" stroke-linecap="round" stroke-linejoin="round" fill="none" stroke="#000000" d="M-5.95984 126.75502C7.85962 129.086 21.7313 74.22777 25.02248 4.22351 28.31366-65.78073 19.77933-124.42413 5.95987-126.75511"/>
<path transform="matrix(1,0,0,-1,89.291,4821.7199)" stroke-width=".59776" stroke-linecap="round" stroke-linejoin="round" fill="none" stroke="#000000" d="M-30.95494 112.95987C-1.22331 142.1653 36.7391 115.26779 53.83461 52.88261 70.93011-9.50255 60.68665-83.75446 30.955-112.95987"/>
<path transform="matrix(1,0,0,-1,89.291,4821.7199)" stroke-width=".59776" stroke-linecap="round" stroke-linejoin="round" fill="none" stroke="#000000" d="M-30.95444-112.96179C-60.68558-83.75824-70.9289-9.50696-53.83368 52.87929-36.73846 115.26555 1.22331 142.1654 30.95444 112.96185"/>
<path transform="matrix(1,0,0,-1,89.291,4821.7199)" stroke-width=".59776" stroke-linecap="round" stroke-linejoin="round" fill="none" stroke="#000000" d="M31.07208-112.84773C23.99841-119.8292 4.3529-123.15683-12.80731-120.27954-21.08424-118.89175-27.66066-116.21648-31.0721-112.84937"/>
<path transform="matrix(1,0,0,-1,89.291,4821.7199)" stroke-width=".59776" stroke-linecap="round" stroke-linejoin="round" fill="none" stroke="#000000" d="M57.73807-65.15147C53.65459-78.12447 24.493-87.2953-7.39488-85.63489-33.67754-84.26608-54.3742-75.84705-57.73978-65.1545"/>
<path transform="matrix(1,0,0,-1,89.291,4821.7199)" stroke-width=".59776" stroke-linecap="round" stroke-linejoin="round" fill="none" stroke="#000000" d="M67.21336 .00175C67.21318-15.10004 37.12085-27.34343 0-27.34433-37.12088-27.34521-67.21361-15.10359-67.21342-.00179"/>
<path transform="matrix(1,0,0,-1,89.291,4821.7199)" stroke-width=".59776" stroke-linecap="round" stroke-linejoin="round" fill="none" stroke="#000000" d="M57.73882 65.15427C61.82172 52.18138 39.28194 40.31696 7.39374 38.65508-13.23106 37.57997-33.70619 41.06459-46.30646 47.79366-55.5735 52.7427-59.68217 58.98024-57.73904 65.15125"/>
<path transform="matrix(1,0,0,-1,89.291,4821.7199)" stroke-width=".59776" stroke-linecap="round" stroke-linejoin="round" fill="none" stroke="#000000" d="M31.07195 112.84903C38.14508 105.86781 29.96758 97.87523 12.80699 94.99721-4.35358 92.11917-23.99913 95.44547-31.07228 102.42668-34.45235 105.76299-34.45262 109.51086-31.07224 112.8474"/>
<path transform="matrix(1,0,0,-1,89.291,4821.7199)" stroke-width=".59776" stroke-linecap="round" stroke-linejoin="round" fill="none" stroke="#000000" d="M67.22289 0C67.22289 70.2904 37.12665 127.27039 0 127.27039-37.12665 127.27039-67.22289 70.2904-67.22289 0-67.22289-70.2904-37.12665-127.27039 0-127.27039 37.12665-127.27039 67.22289-70.2904 67.22289 0ZM0 0"/>
</g>
</svg>
