<svg xmlns="http://www.w3.org/2000/svg" xmlns:xlink="http://www.w3.org/1999/xlink" version="1.1" width="178.582" height="7143.289" viewBox="0 0 178.582 7143.289">
<defs>
<clipPath id="clip_60">
<path transform="matrix(1,0,0,-1,0,357.16297)" d="M0 0H178.582V357.164H0Z"/>
</clipPath>
<clipPath id="clip_61">
<path transform="matrix(1,0,0,-1,0,714.328)" d="M0 0H178.582V357.164H0Z"/>
</clipPath>
<clipPath id="clip_62">
<path transform="matrix(1,0,0,-1,0,1071.492)" d="M0 0H178.582V357.164H0Z"/>
</clipPath>
<clipPath id="clip_63">
<path transform="matrix(1,0,0,-1,0,1428.657)" d="M0 0H178.582V357.164H0Z"/>
</clipPath>
<clipPath id="clip_64">
<path transform="matrix(1,0,0,-1,0,1785.821)" d="M0 0H178.582V357.164H0Z"/>
</clipPath>
<clipPath id="clip_65">
<path transform="matrix(1,0,0,-1,0,2142.986)" d="M0 0H178.582V357.164H0Z"/>
</clipPath>
<clipPath id="clip_66">
<path transform="matrix(1,0,0,-1,0,2500.15)" d="M0 0H178.582V357.164H0Z"/>
</clipPath>
<clipPath id="clip_67">
<path transform="matrix(1,0,0,-1,0,2857.315)" d="M0 0H178.582V357.164H0Z"/>
</clipPath>
<clipPath id="clip_68">
<path transform="matrix(1,0,0,-1,0,3214.479)" d="M0 0H178.582V357.164H0Z"/>
</clipPath>
<clipPath id="clip_69">
<path transform="matrix(1,0,0,-1,0,3571.644)" d="M0 0H178.582V357.164H0Z"/>
</clipPath>
<clipPath id="clip_70">
<path transform="matrix(1,0,0,-1,0,3928.808)" d="M0 0H178.582V357.164H0Z"/>
</clipPath>
<clipPath id="clip_71">
<path transform="matrix(1,0,0,-1,0,4285.973)" d="M0 0H178.582V357.164H0Z"/>
</clipPath>
<clipPath id="clip_72">
<path transform="matrix(1,0,0,-1,0,4643.137)" d="M0 0H178.582V357.164H0Z"/>
</clipPath>
<clipPath id="clip_73">
<path transform="matrix(1,0,0,-1,0,5000.302)" d="M0 0H178.582V357.164H0Z"/>
</clipPath>
<clipPath id="clip_74">
<path transform="matrix(1,0,0,-1,0,5357.466)" d="M0 0H178.582V357.164H0Z"/>
</clipPath>
<clipPath id="clip_75">
<path transform="matrix(1,0,0,-1,0,5714.631)" d="M0 0H178.582V357.164H0Z"/>
</clipPath>
<clipPath id="clip_76">
<path transform="matrix(1,0,0,-1,0,6071.795)" d="M0 0H178.582V357.164H0Z"/>
</clipPath>
<clipPath id="clip_77">
<path transform="matrix(1,0,0,-1,0,6428.96)" d="M0 0H178.582V357.164H0Z"/>
</clipPath>
<clipPath id="clip_78">
<path transform="matrix(1,0,0,-1,0,6786.124)" d="M0 0H178.582V357.164H0Z"/>
</clipPath>
<clipPath id="clip_79">
<path transform="matrix(1,0,0,-1,0,7143.289)" d="M0 0H178.582V357.164H0Z"/>
</clipPath>
</defs>
<path transform="matrix(1,0,0,-1,89.291,-178.58301)" stroke-width=".3985" stroke-linecap="butt" stroke-miterlimit="10" stroke-linejoin="miter" fill="none" stroke="#000000" d="M0-357.1691"/>
<g clip-path="url(#clip_60)">
<path transform="matrix(1,0,0,-1,89.291,178.58097)" stroke-width=".59776" stroke-linecap="round" stroke-linejoin="round" fill="none" stroke="#000000" d="M-1.56764 167.65932C6.74513 169.05568 14.18594 95.12595 15.05165 2.53043 15.91736-90.06508 9.88051-166.26299 1.56773-167.65935"/>
<path transform="matrix(1,0,0,-1,89.291,178.58097)" stroke-width=".59776" stroke-linecap="round" stroke-linejoin="round" fill="none" stroke="#000000" d="M-11.88919 164.51522C24.10803 180.43254 58.61305 119.68462 65.17842 28.82483 71.74377-62.03494 47.88646-148.59803 11.88922-164.51537"/>
<path transform="matrix(1,0,0,-1,89.291,178.58097)" stroke-width=".59776" stroke-linecap="round" stroke-linejoin="round" fill="none" stroke="#000000" d="M-37.37178-153.18813C-75.53725-115.7265-89.74484-16.77055-69.10541 67.832-48.46597 152.43456-.79361 190.65 37.37184 153.18837"/>
<path transform="matrix(1,0,0,-1,89.291,178.58097)" stroke-width=".59776" stroke-linecap="round" stroke-linejoin="round" fill="none" stroke="#000000" d="M-5.4981-168.19281C-30.08397-167.76006-47.55301-92.10394-44.51683 .78587-41.48064 93.6757-19.0877 168.62572 5.49815 168.19297"/>
<path transform="matrix(1,0,0,-1,89.291,178.58097)" stroke-width=".59776" stroke-linecap="round" stroke-linejoin="round" fill="none" stroke="#000000" d="M39.37201-141.16075C35.45885-146.29975 14.65895-152.02617-7.08588-153.9513-23.53267-155.40734-36.41225-154.29259-39.37187-151.15717"/>
<path transform="matrix(1,0,0,-1,89.291,178.58097)" stroke-width=".59776" stroke-linecap="round" stroke-linejoin="round" fill="none" stroke="#000000" d="M69.16841-75.60365C66.90999-84.04578 34.10986-94.42996-4.09132-98.7975-39.13612-102.80418-67.09723-100.38446-69.17004-93.16591"/>
<path transform="matrix(1,0,0,-1,89.291,178.58097)" stroke-width=".59776" stroke-linecap="round" stroke-linejoin="round" fill="none" stroke="#000000" d="M80.00952 10.1573C80.01016 .72388 44.18774-11.47108-.00006-17.0809-44.1879-22.69072-80.00894-19.59064-80.00958-10.15721"/>
<path transform="matrix(1,0,0,-1,89.291,178.58097)" stroke-width=".59776" stroke-linecap="round" stroke-linejoin="round" fill="none" stroke="#000000" d="M69.16794 93.16583C71.42757 85.29733 42.29077 74.59622 4.0898 69.2642-20.61797 65.81543-44.23854 65.34415-57.85738 68.02736-66.08116 69.64778-70.05217 72.30617-69.17052 75.60358"/>
<path transform="matrix(1,0,0,-1,89.291,178.58097)" stroke-width=".59776" stroke-linecap="round" stroke-linejoin="round" fill="none" stroke="#000000" d="M39.37172 151.15734C43.28519 147.01207 28.8292 140.73656 7.08496 137.14064-6.97939 134.81478-21.33038 134.09586-30.55446 135.25498-38.24953 136.22196-41.48369 138.38794-39.37216 141.16092"/>
<path transform="matrix(1,0,0,-1,89.291,178.58097)" stroke-width=".59776" stroke-linecap="round" stroke-linejoin="round" fill="none" stroke="#000000" d="M80.01476 10.15814C80.01476 102.8889 44.19148 173.51198 0 167.90172-44.19148 162.29146-80.01476 82.5726-80.01476-10.15814-80.01476-102.8889-44.19148-173.51198 0-167.90172 44.19148-162.29146 80.01476-82.5726 80.01476 10.15814ZM0 0"/>
</g>
<path transform="matrix(1,0,0,-1,89.291,-178.58301)" stroke-width=".3985" stroke-linecap="butt" stroke-miterlimit="10" stroke-linejoin="miter" fill="none" stroke="#000000" d="M0-714.3382"/>
<g clip-path="url(#clip_61)">
<path transform="matrix(1,0,0,-1,89.291,535.746)" stroke-width=".59776" stroke-linecap="round" stroke-linejoin="round" fill="none" stroke="#000000" d="M-1.68214 163.82341C6.82309 165.24907 14.47119 93.05833 15.40022 2.58147 16.32924-87.89539 10.18744-162.398 1.6822-163.82366"/>
<path transform="matrix(1,0,0,-1,89.291,535.746)" stroke-width=".59776" stroke-linecap="round" stroke-linejoin="round" fill="none" stroke="#000000" d="M-12.56891 160.46956C23.49991 176.71286 58.36719 118.0357 65.30876 29.41121 72.25034-59.21326 48.63779-144.22646 12.56894-160.46977"/>
<path transform="matrix(1,0,0,-1,89.291,535.746)" stroke-width=".59776" stroke-linecap="round" stroke-linejoin="round" fill="none" stroke="#000000" d="M-38.07904-149.08437C-76.03346-111.78337-89.7519-14.79735-68.72168 67.54059-47.69144 149.87854 .12473 186.38547 38.07913 149.08449"/>
<path transform="matrix(1,0,0,-1,89.291,535.746)" stroke-width=".59776" stroke-linecap="round" stroke-linejoin="round" fill="none" stroke="#000000" d="M-5.70851-164.36254C-30.13737-163.83174-47.3849-89.81068-44.23253 .96362-41.08015 91.73796-18.72023 164.89357 5.7086 164.36278"/>
<path transform="matrix(1,0,0,-1,89.291,535.746)" stroke-width=".59776" stroke-linecap="round" stroke-linejoin="round" fill="none" stroke="#000000" d="M39.3425-138.0017C35.23766-143.25798 14.29568-148.98888-7.43312-150.80216-23.61923-152.15296-36.28584-150.96639-39.34357-147.81356"/>
<path transform="matrix(1,0,0,-1,89.291,535.746)" stroke-width=".59776" stroke-linecap="round" stroke-linejoin="round" fill="none" stroke="#000000" d="M69.2145-73.87642C66.84528-82.5186 33.93466-92.96918-4.29234-97.21877-39.20973-101.10039-67.05196-98.49283-69.21724-91.13867"/>
<path transform="matrix(1,0,0,-1,89.291,535.746)" stroke-width=".59776" stroke-linecap="round" stroke-linejoin="round" fill="none" stroke="#000000" d="M80.0771 9.98569C80.0781 .32944 44.22496-11.96942 0-17.4845-44.22499-22.99959-80.07613-19.64182-80.07713-9.98557"/>
<path transform="matrix(1,0,0,-1,89.291,535.746)" stroke-width=".59776" stroke-linecap="round" stroke-linejoin="round" fill="none" stroke="#000000" d="M69.21497 91.13881C71.58505 83.08772 42.51593 72.27711 4.28935 66.99275-20.4353 63.57492-44.10953 63.19522-57.79854 65.9962-66.13918 67.70293-70.1506 70.47058-69.21677 73.87656"/>
<path transform="matrix(1,0,0,-1,89.291,535.746)" stroke-width=".59776" stroke-linecap="round" stroke-linejoin="round" fill="none" stroke="#000000" d="M39.34224 147.81357C43.44682 143.58107 29.15945 137.22702 7.43091 133.62126-6.62311 131.28907-21.0314 130.59439-30.35716 131.79915-38.29486 132.82463-41.60321 135.10805-39.34383 138.00171"/>
<path transform="matrix(1,0,0,-1,89.291,535.746)" stroke-width=".59776" stroke-linecap="round" stroke-linejoin="round" fill="none" stroke="#000000" d="M80.0844 9.98686C80.0844 100.60704 44.22995 169.5959 0 164.08025-44.22995 158.56459-80.0844 80.6333-80.0844-9.98686-80.0844-100.60704-44.22995-169.5959 0-164.08025 44.22995-158.56459 80.0844-80.6333 80.0844 9.98686ZM0 0"/>
</g>
<path transform="matrix(1,0,0,-1,89.291,-178.58301)" stroke-width=".3985" stroke-linecap="butt" stroke-miterlimit="10" stroke-linejoin="miter" fill="none" stroke="#000000" d="M0-1071.5073"/>
<g clip-path="url(#clip_62)">
<path transform="matrix(1,0,0,-1,89.291,892.9099)" stroke-width=".59776" stroke-linecap="round" stroke-linejoin="round" fill="none" stroke="#000000" d="M-1.8063 159.98506C6.90276 161.44255 14.77165 91.00133 15.76901 2.64323 16.76639-85.71484 10.51541-158.52773 1.80634-159.98522"/>
<path transform="matrix(1,0,0,-1,89.291,892.9099)" stroke-width=".59776" stroke-linecap="round" stroke-linejoin="round" fill="none" stroke="#000000" d="M-13.28767 156.39958C22.85503 172.97808 58.10411 116.39899 65.44188 30.02147 72.77965-56.35603 49.43039-139.8212 13.28767-156.39968"/>
<path transform="matrix(1,0,0,-1,89.291,892.9099)" stroke-width=".59776" stroke-linecap="round" stroke-linejoin="round" fill="none" stroke="#000000" d="M-38.75609-145.02202C-76.49913-107.9694-89.74432-12.99954-68.34077 67.09268-46.93723 147.1849 1.01306 182.07466 38.75612 145.02205"/>
<path transform="matrix(1,0,0,-1,89.291,892.9099)" stroke-width=".59776" stroke-linecap="round" stroke-linejoin="round" fill="none" stroke="#000000" d="M-5.92183-160.53424C-30.18561-159.9159-47.20367-87.53743-43.93361 1.12267-40.66354 89.78276-18.34192 161.15267 5.92183 160.53433"/>
<path transform="matrix(1,0,0,-1,89.291,892.9099)" stroke-width=".59776" stroke-linecap="round" stroke-linejoin="round" fill="none" stroke="#000000" d="M39.31082-134.83579C35.00647-140.20729 13.91603-145.94223-7.7944-147.64493-23.7094-148.89305-36.15561-147.64313-39.31157-144.4796"/>
<path transform="matrix(1,0,0,-1,89.291,892.9099)" stroke-width=".59776" stroke-linecap="round" stroke-linejoin="round" fill="none" stroke="#000000" d="M69.2687-72.13437C66.78423-80.97398 33.75694-91.49457-4.49913-95.63278-39.28624-99.39574-67.00967-96.6114-69.26976-89.12764"/>
<path transform="matrix(1,0,0,-1,89.291,892.9099)" stroke-width=".59776" stroke-linecap="round" stroke-linejoin="round" fill="none" stroke="#000000" d="M80.15286 9.83165C80.15285-.04433 44.26715-12.45213-.00005-17.88196-44.26727-23.31178-80.15297-19.70747-80.15295-9.8315"/>
<path transform="matrix(1,0,0,-1,89.291,892.9099)" stroke-width=".59776" stroke-linecap="round" stroke-linejoin="round" fill="none" stroke="#000000" d="M69.26866 89.12776C71.75401 80.89778 42.75462 69.97221 4.49866 64.72527-20.2451 61.3315-43.97742 61.03566-57.7402 63.94894-66.20404 65.74059-70.2579 68.6186-69.2698 72.13449"/>
<path transform="matrix(1,0,0,-1,89.291,892.9099)" stroke-width=".59776" stroke-linecap="round" stroke-linejoin="round" fill="none" stroke="#000000" d="M39.31094 144.47959C43.61598 140.16393 29.50519 133.72798 7.79399 130.10443-6.24841 127.76077-20.71591 127.0842-30.14813 128.32982-38.3436 129.41207-41.73055 131.81711-39.31145 134.83577"/>
<path transform="matrix(1,0,0,-1,89.291,892.9099)" stroke-width=".59776" stroke-linecap="round" stroke-linejoin="round" fill="none" stroke="#000000" d="M80.16095 9.83287C80.16095 98.34558 44.27223 165.695 0 160.26439-44.27223 154.83377-80.16095 78.67982-80.16095-9.83287-80.16095-98.34558-44.27223-165.695 0-160.26439 44.27223-154.83377 80.16095-78.67982 80.16095 9.83287ZM0 0"/>
</g>
<path transform="matrix(1,0,0,-1,89.291,-178.58301)" stroke-width=".3985" stroke-linecap="butt" stroke-miterlimit="10" stroke-linejoin="miter" fill="none" stroke="#000000" d="M0-1428.6764"/>
<g clip-path="url(#clip_63)">
<path transform="matrix(1,0,0,-1,89.291,1250.075)" stroke-width=".59776" stroke-linecap="round" stroke-linejoin="round" fill="none" stroke="#000000" d="M-1.94487 156.16707C6.97618 157.66323 15.07922 88.95895 16.1532 2.71135 17.22717-83.53622 10.86594-154.67102 1.94487-156.16716"/>
<path transform="matrix(1,0,0,-1,89.291,1250.075)" stroke-width=".59776" stroke-linecap="round" stroke-linejoin="round" fill="none" stroke="#000000" d="M-14.0795 152.31945C22.12827 169.27074 57.78557 114.81728 65.56105 30.69487 73.33653-53.42752 50.28738-135.36817 14.07959-152.31948"/>
<path transform="matrix(1,0,0,-1,89.291,1250.075)" stroke-width=".59776" stroke-linecap="round" stroke-linejoin="round" fill="none" stroke="#000000" d="M-39.49315-140.93869C-77.00104-104.10022-89.72665-11.13571-67.91508 66.70146-46.10352 144.53864 1.98526 177.77729 39.49315 140.93881"/>
<path transform="matrix(1,0,0,-1,89.291,1250.075)" stroke-width=".59776" stroke-linecap="round" stroke-linejoin="round" fill="none" stroke="#000000" d="M-6.15288-156.72753C-30.2422-156.02017-47.01514-85.27481-43.6174 1.28357-40.21967 87.84196-17.93642 157.43503 6.15291 156.72768"/>
<path transform="matrix(1,0,0,-1,89.291,1250.075)" stroke-width=".59776" stroke-linecap="round" stroke-linejoin="round" fill="none" stroke="#000000" d="M39.26956-131.69286C34.74664-137.19007 13.49774-142.92917-8.19044-144.5117-23.80653-145.65114-36.01476-144.3365-39.2713-141.16355"/>
<path transform="matrix(1,0,0,-1,89.291,1250.075)" stroke-width=".59776" stroke-linecap="round" stroke-linejoin="round" fill="none" stroke="#000000" d="M69.31863-70.40779C66.70734-79.46365 33.55475-90.06395-4.72946-94.0841-39.36955-97.72173-66.95865-94.74944-69.32158-87.12534"/>
<path transform="matrix(1,0,0,-1,89.291,1250.075)" stroke-width=".59776" stroke-linecap="round" stroke-linejoin="round" fill="none" stroke="#000000" d="M80.22942 9.67422C80.22986-.44249 44.30975-12.97487-.00006-18.31793-44.30989-23.66101-80.22906-19.79099-80.2295-9.67426"/>
<path transform="matrix(1,0,0,-1,89.291,1250.075)" stroke-width=".59776" stroke-linecap="round" stroke-linejoin="round" fill="none" stroke="#000000" d="M69.3193 87.1256C71.9312 78.69955 43.0119 67.64304 4.72768 62.43033-20.03465 59.05878-43.82817 58.85075-57.6712 61.88507-66.26999 63.7701-70.37006 66.76952-69.32089 70.40805"/>
<path transform="matrix(1,0,0,-1,89.291,1250.075)" stroke-width=".59776" stroke-linecap="round" stroke-linejoin="round" fill="none" stroke="#000000" d="M39.27074 141.16342C43.79408 136.75685 29.87915 130.22727 8.19022 126.57922-5.83801 124.2197-20.36734 123.5597-29.9148 124.84825-38.39696 125.99292-41.86922 128.53408-39.27014 131.69274"/>
<path transform="matrix(1,0,0,-1,89.291,1250.075)" stroke-width=".59776" stroke-linecap="round" stroke-linejoin="round" fill="none" stroke="#000000" d="M80.23795 9.67543C80.23795 96.0845 44.31476 161.79914 0 156.45548-44.31476 151.1118-80.23795 76.73364-80.23795-9.67543-80.23795-96.0845-44.31476-161.79914 0-156.45548 44.31476-151.1118 80.23795-76.73364 80.23795 9.67543ZM0 0"/>
</g>
<path transform="matrix(1,0,0,-1,89.291,-178.58301)" stroke-width=".3985" stroke-linecap="butt" stroke-miterlimit="10" stroke-linejoin="miter" fill="none" stroke="#000000" d="M0-1785.8456"/>
<g clip-path="url(#clip_64)">
<path transform="matrix(1,0,0,-1,89.291,1607.239)" stroke-width=".59776" stroke-linecap="round" stroke-linejoin="round" fill="none" stroke="#000000" d="M-2.09653 152.34716C7.04475 153.88037 15.39401 86.91469 16.5519 2.77621 17.70976-81.36226 11.23782-150.81407 2.09653-152.3473"/>
<path transform="matrix(1,0,0,-1,89.291,1607.239)" stroke-width=".59776" stroke-linecap="round" stroke-linejoin="round" fill="none" stroke="#000000" d="M-14.93622 148.21849C21.33508 165.54843 57.42552 113.23996 65.67424 31.3801 73.92296-50.47974 51.20764-130.88861 14.93631-148.21855"/>
<path transform="matrix(1,0,0,-1,89.291,1607.239)" stroke-width=".59776" stroke-linecap="round" stroke-linejoin="round" fill="none" stroke="#000000" d="M-40.24977-136.85263C-77.51549-100.24466-89.70482-9.2954-67.47583 66.28586-45.24684 141.86714 2.98412 173.46074 40.24983 136.85279"/>
<path transform="matrix(1,0,0,-1,89.291,1607.239)" stroke-width=".59776" stroke-linecap="round" stroke-linejoin="round" fill="none" stroke="#000000" d="M-6.39755-152.91426C-30.3045-152.10564-46.82095-82.98517-43.28798 1.46573-39.75499 85.91663-17.50935 153.723 6.39758 152.91439"/>
<path transform="matrix(1,0,0,-1,89.291,1607.239)" stroke-width=".59776" stroke-linecap="round" stroke-linejoin="round" fill="none" stroke="#000000" d="M39.22382-128.57854C34.46423-134.2032 13.04381-139.93598-8.61899-141.38288-23.914-142.40453-35.8649-141.02338-39.22495-137.84601"/>
<path transform="matrix(1,0,0,-1,89.291,1607.239)" stroke-width=".59776" stroke-linecap="round" stroke-linejoin="round" fill="none" stroke="#000000" d="M69.3819-68.71283C66.63531-77.99207 33.34418-88.6636-4.97476-92.54865-39.46474-96.04544-66.91037-92.874-69.3829-85.10605"/>
<path transform="matrix(1,0,0,-1,89.291,1607.239)" stroke-width=".59776" stroke-linecap="round" stroke-linejoin="round" fill="none" stroke="#000000" d="M80.32303 9.48921C80.32338-.87761 44.36137-13.52994-.00003-18.77078-44.36147-24.01164-80.32275-19.856-80.32309-9.48915"/>
<path transform="matrix(1,0,0,-1,89.291,1607.239)" stroke-width=".59776" stroke-linecap="round" stroke-linejoin="round" fill="none" stroke="#000000" d="M69.38213 85.10622C72.12941 76.47604 43.2924 65.28967 4.97357 60.12077-19.81044 56.77747-43.67029 56.66637-57.60043 59.82907-66.34631 61.81458-70.49821 64.94508-69.38268 68.713"/>
<path transform="matrix(1,0,0,-1,89.291,1607.239)" stroke-width=".59776" stroke-linecap="round" stroke-linejoin="round" fill="none" stroke="#000000" d="M39.22372 137.84589C43.98302 133.34569 30.28003 126.72137 8.61687 123.04996-5.39488 120.67532-19.98889 120.03363-29.66069 121.36696-38.4566 122.5796-42.02467 125.26984-39.22504 128.57842"/>
<path transform="matrix(1,0,0,-1,89.291,1607.239)" stroke-width=".59776" stroke-linecap="round" stroke-linejoin="round" fill="none" stroke="#000000" d="M80.32445 9.49161C80.32445 93.80133 44.36253 157.89646 0 152.65433-44.36253 147.4122-80.32445 74.81812-80.32445-9.49161-80.32445-93.80133-44.36253-157.89646 0-152.65433 44.36253-147.4122 80.32445-74.81812 80.32445 9.49161ZM0 0"/>
</g>
<path transform="matrix(1,0,0,-1,89.291,-178.58301)" stroke-width=".3985" stroke-linecap="butt" stroke-miterlimit="10" stroke-linejoin="miter" fill="none" stroke="#000000" d="M0-2143.0147"/>
<g clip-path="url(#clip_65)">
<path transform="matrix(1,0,0,-1,89.291,1964.404)" stroke-width=".59776" stroke-linecap="round" stroke-linejoin="round" fill="none" stroke="#000000" d="M-2.26515 148.527C7.1089 150.09754 15.72234 84.87639 16.97318 2.84682 18.224-79.18274 11.63928-146.95659 2.26521-148.52712"/>
<path transform="matrix(1,0,0,-1,89.291,1964.404)" stroke-width=".59776" stroke-linecap="round" stroke-linejoin="round" fill="none" stroke="#000000" d="M-15.87485 144.08092C20.44861 161.82509 57.00233 111.7016 65.76985 32.12834 74.53735-47.44492 52.19835-126.33682 15.87488-144.08098"/>
<path transform="matrix(1,0,0,-1,89.291,1964.404)" stroke-width=".59776" stroke-linecap="round" stroke-linejoin="round" fill="none" stroke="#000000" d="M-41.02834-132.75392C-78.02864-96.39307-89.65479-7.47826-66.99593 65.83868-44.33708 139.15564 4.02803 169.11495 41.02834 132.75408"/>
<path transform="matrix(1,0,0,-1,89.291,1964.404)" stroke-width=".59776" stroke-linecap="round" stroke-linejoin="round" fill="none" stroke="#000000" d="M-6.65375-149.10707C-30.36397-148.20249-46.60567-80.7104-42.93108 1.63919-39.25648 83.9888-17.0564 150.01186 6.65381 149.10726"/>
<path transform="matrix(1,0,0,-1,89.291,1964.404)" stroke-width=".59776" stroke-linecap="round" stroke-linejoin="round" fill="none" stroke="#000000" d="M39.1639-125.47493C34.1486-131.23259 12.54773-136.95475-9.08163-138.2555-24.02518-139.15419-35.7005-137.70978-39.16492-134.53313"/>
<path transform="matrix(1,0,0,-1,89.291,1964.404)" stroke-width=".59776" stroke-linecap="round" stroke-linejoin="round" fill="none" stroke="#000000" d="M69.4351-67.02763C66.53972-76.54214 33.10475-87.28859-5.24301-91.03023-39.56033-94.37871-66.84662-91.00317-69.43839-83.08766"/>
<path transform="matrix(1,0,0,-1,89.291,1964.404)" stroke-width=".59776" stroke-linecap="round" stroke-linejoin="round" fill="none" stroke="#000000" d="M80.40575 9.29855C80.4065-1.33138 44.40637-14.11198-.00003-19.24757-44.40646-24.38315-80.40503-19.92845-80.40578-9.2985"/>
<path transform="matrix(1,0,0,-1,89.291,1964.404)" stroke-width=".59776" stroke-linecap="round" stroke-linejoin="round" fill="none" stroke="#000000" d="M69.43777 83.08783C72.33382 74.24274 43.5916 62.915 5.24243 57.78685-19.56158 54.47003-43.49216 54.4574-57.51547 57.75375-66.42163 59.84755-70.62518 63.11923-69.43571 67.0278"/>
<path transform="matrix(1,0,0,-1,89.291,1964.404)" stroke-width=".59776" stroke-linecap="round" stroke-linejoin="round" fill="none" stroke="#000000" d="M39.16493 134.533C44.17961 129.93508 30.71115 123.2067 9.08101 119.50485-12.5491 115.80302-34.1499 116.52908-39.1646 121.12701-40.54915 122.39648-40.54826 123.8851-39.16388 125.47481"/>
<path transform="matrix(1,0,0,-1,89.291,1964.404)" stroke-width=".59776" stroke-linecap="round" stroke-linejoin="round" fill="none" stroke="#000000" d="M80.41486 9.30128C80.41486 91.5162 44.41246 153.99842 0 148.8614-44.41246 143.72438-80.41486 72.91364-80.41486-9.30128-80.41486-91.5162-44.41246-153.99842 0-148.8614 44.41246-143.72438 80.41486-72.91364 80.41486 9.30128ZM0 0"/>
</g>
<path transform="matrix(1,0,0,-1,89.291,-178.58301)" stroke-width=".3985" stroke-linecap="butt" stroke-miterlimit="10" stroke-linejoin="miter" fill="none" stroke="#000000" d="M0-2500.1839"/>
<g clip-path="url(#clip_66)">
<path transform="matrix(1,0,0,-1,89.291,2321.5679)" stroke-width=".59776" stroke-linecap="round" stroke-linejoin="round" fill="none" stroke="#000000" d="M-2.45033 144.72284C7.16653 146.34183 16.06 82.85995 17.41318 2.93298 18.76634-76.99397 12.06726-143.10396 2.45036-144.72293"/>
<path transform="matrix(1,0,0,-1,89.291,2321.5679)" stroke-width=".59776" stroke-linecap="round" stroke-linejoin="round" fill="none" stroke="#000000" d="M-16.88153 139.92436C19.4886 158.1034 56.53098 110.19534 65.85406 32.91734 75.17715-44.36066 53.25174-121.74538 16.88159-139.9244"/>
<path transform="matrix(1,0,0,-1,89.291,2321.5679)" stroke-width=".59776" stroke-linecap="round" stroke-linejoin="round" fill="none" stroke="#000000" d="M-41.81534-128.70853C-78.54779-92.64288-89.60432-5.77948-66.51064 65.30356-43.41695 136.38661 5.0829 164.77429 41.81534 128.70865"/>
<path transform="matrix(1,0,0,-1,89.291,2321.5679)" stroke-width=".59776" stroke-linecap="round" stroke-linejoin="round" fill="none" stroke="#000000" d="M-6.91956-145.3134C-30.42392-144.32479-46.3797-78.46266-42.55836 1.79163-38.73705 82.04591-16.58475 146.30213 6.91962 145.3135"/>
<path transform="matrix(1,0,0,-1,89.291,2321.5679)" stroke-width=".59776" stroke-linecap="round" stroke-linejoin="round" fill="none" stroke="#000000" d="M39.09651-122.38069C33.80963-128.27283 12.01917-133.98412-9.57344-135.13706-24.1465-135.9152-35.53183-134.41605-39.09923-131.24837"/>
<path transform="matrix(1,0,0,-1,89.291,2321.5679)" stroke-width=".59776" stroke-linecap="round" stroke-linejoin="round" fill="none" stroke="#000000" d="M69.4998-65.33406C66.4478-75.08838 32.85693-85.9185-5.52663-89.52353-39.66676-92.7301-66.78595-89.158-69.50075-81.09799"/>
<path transform="matrix(1,0,0,-1,89.291,2321.5679)" stroke-width=".59776" stroke-linecap="round" stroke-linejoin="round" fill="none" stroke="#000000" d="M80.50415 9.13005C80.50471-1.76785 44.46155-14.6898 0-19.73236-44.46155-24.77492-80.50352-20.02788-80.50409-9.12996"/>
<path transform="matrix(1,0,0,-1,89.291,2321.5679)" stroke-width=".59776" stroke-linecap="round" stroke-linejoin="round" fill="none" stroke="#000000" d="M69.49976 81.098C72.55177 72.03601 43.90808 60.55421 5.52472 55.45305-19.30211 52.15344-43.30621 52.23177-57.42845 55.65834-66.50456 57.86095-70.76865 61.27919-69.5008 65.33408"/>
<path transform="matrix(1,0,0,-1,89.291,2321.5679)" stroke-width=".59776" stroke-linecap="round" stroke-linejoin="round" fill="none" stroke="#000000" d="M39.09802 131.24819C44.38383 126.55489 31.1638 119.71457 9.57039 115.97006-12.02303 112.22556-33.81335 112.99472-39.09918 117.68802-40.63786 119.05444-40.637 120.6651-39.09772 122.38051"/>
<path transform="matrix(1,0,0,-1,89.291,2321.5679)" stroke-width=".59776" stroke-linecap="round" stroke-linejoin="round" fill="none" stroke="#000000" d="M80.51305 9.13129C80.51305 89.25667 44.46669 150.12113 0 145.07799-44.46669 140.03485-80.51305 70.99408-80.51305-9.13129-80.51305-89.25667-44.46669-150.12113 0-145.07799 44.46669-140.03485 80.51305-70.99408 80.51305 9.13129ZM0 0"/>
</g>
<path transform="matrix(1,0,0,-1,89.291,-178.58301)" stroke-width=".3985" stroke-linecap="butt" stroke-miterlimit="10" stroke-linejoin="miter" fill="none" stroke="#000000" d="M0-2857.3529"/>
<g clip-path="url(#clip_67)">
<path transform="matrix(1,0,0,-1,89.291,2678.733)" stroke-width=".59776" stroke-linecap="round" stroke-linejoin="round" fill="none" stroke="#000000" d="M-2.65799 140.92317C7.21489 142.57794 16.40881 80.829 17.87654 2.99973 19.34428-74.82953 12.53098-139.26842 2.65808-140.9232"/>
<path transform="matrix(1,0,0,-1,89.291,2678.733)" stroke-width=".59776" stroke-linecap="round" stroke-linejoin="round" fill="none" stroke="#000000" d="M-18.00441 135.74309C18.40065 154.36765 55.97356 108.69318 65.91681 33.72388 75.86005-41.2454 54.40948-117.11864 18.00441-135.74318"/>
<path transform="matrix(1,0,0,-1,89.291,2678.733)" stroke-width=".59776" stroke-linecap="round" stroke-linejoin="round" fill="none" stroke="#000000" d="M-42.65013-124.59514C-79.09027-88.78688-89.53581-3.97488-65.98088 64.83687-42.42595 133.64864 6.21005 160.40343 42.65019 124.59517"/>
<path transform="matrix(1,0,0,-1,89.291,2678.733)" stroke-width=".59776" stroke-linecap="round" stroke-linejoin="round" fill="none" stroke="#000000" d="M-7.20789-141.5202C-30.4935-140.41895-46.14299-76.16113-42.16273 1.99721-38.1825 80.15556-16.07765 142.62157 7.20795 141.52031"/>
<path transform="matrix(1,0,0,-1,89.291,2678.733)" stroke-width=".59776" stroke-linecap="round" stroke-linejoin="round" fill="none" stroke="#000000" d="M39.01692-119.35478C33.43016-125.38573 11.43172-131.05826-10.11697-132.02478-24.28004-132.66007-35.34738-131.09561-39.01834-127.93947"/>
<path transform="matrix(1,0,0,-1,89.291,2678.733)" stroke-width=".59776" stroke-linecap="round" stroke-linejoin="round" fill="none" stroke="#000000" d="M69.57011-63.73322C66.34473-73.74568 32.58125-84.63214-5.84145-88.04868-39.78307-91.06673-66.72246-87.25911-69.57205-79.04114"/>
<path transform="matrix(1,0,0,-1,89.291,2678.733)" stroke-width=".59776" stroke-linecap="round" stroke-linejoin="round" fill="none" stroke="#000000" d="M80.61737 8.86952C80.61748-2.32149 44.52338-15.3648-.00005-20.26332-44.5235-25.16182-80.6173-20.06055-80.6174-8.86952"/>
<path transform="matrix(1,0,0,-1,89.291,2678.733)" stroke-width=".59776" stroke-linecap="round" stroke-linejoin="round" fill="none" stroke="#000000" d="M69.57086 79.04138C72.79643 69.73854 44.26187 58.11319 5.83864 53.07515-19.01352 49.81644-43.10127 50.01575-57.33298 53.5976-66.60036 55.93016-70.92955 59.51637-69.57132 63.73346"/>
<path transform="matrix(1,0,0,-1,89.291,2678.733)" stroke-width=".59776" stroke-linecap="round" stroke-linejoin="round" fill="none" stroke="#000000" d="M39.01732 127.93915C44.60243 123.1373 31.66196 116.18446 10.11325 112.40987-11.43546 108.63527-33.4331 109.46771-39.01822 114.26956-40.7372 115.74765-40.73752 117.49818-39.01796 119.35446"/>
<path transform="matrix(1,0,0,-1,89.291,2678.733)" stroke-width=".59776" stroke-linecap="round" stroke-linejoin="round" fill="none" stroke="#000000" d="M80.62204 8.87004C80.62204 86.91187 44.52689 146.20424 0 141.30539-44.52689 136.40654-80.62204 69.17177-80.62204-8.87004-80.62204-86.91187-44.52689-146.20424 0-141.30539 44.52689-136.40654 80.62204-69.17177 80.62204 8.87004ZM0 0"/>
</g>
<path transform="matrix(1,0,0,-1,89.291,-178.58301)" stroke-width=".3985" stroke-linecap="butt" stroke-miterlimit="10" stroke-linejoin="miter" fill="none" stroke="#000000" d="M0-3214.522"/>
<g clip-path="url(#clip_68)">
<path transform="matrix(1,0,0,-1,89.291,3035.897)" stroke-width=".59776" stroke-linecap="round" stroke-linejoin="round" fill="none" stroke="#000000" d="M-2.88943 137.13809C7.2529 138.84159 16.76862 78.8262 18.36426 3.08669 19.9599-72.65283 13.03181-135.43463 2.88947-137.13813"/>
<path transform="matrix(1,0,0,-1,89.291,3035.897)" stroke-width=".59776" stroke-linecap="round" stroke-linejoin="round" fill="none" stroke="#000000" d="M-19.22478 131.52014C17.19757 150.62866 55.33171 107.23425 65.9494 34.59859 76.56708-38.03706 55.64723-112.41168 19.22487-131.5202"/>
<path transform="matrix(1,0,0,-1,89.291,3035.897)" stroke-width=".59776" stroke-linecap="round" stroke-linejoin="round" fill="none" stroke="#000000" d="M-43.49257-120.5118C-79.62451-85.00967-89.44272-2.27522-65.42229 64.28197-41.40186 130.83917 7.36069 156.01404 43.49263 120.51192"/>
<path transform="matrix(1,0,0,-1,89.291,3035.897)" stroke-width=".59776" stroke-linecap="round" stroke-linejoin="round" fill="none" stroke="#000000" d="M-7.50937-137.73909C-30.55916-136.53122-45.88275-73.88269-41.7356 2.18791-37.58844 78.25851-15.54033 138.9471 7.50943 137.73925"/>
<path transform="matrix(1,0,0,-1,89.291,3035.897)" stroke-width=".59776" stroke-linecap="round" stroke-linejoin="round" fill="none" stroke="#000000" d="M38.9205-116.34091C33.00917-122.5137 10.79199-128.14417-10.70337-128.91703-24.42453-129.41036-35.14955-127.79181-38.92188-124.65756"/>
<path transform="matrix(1,0,0,-1,89.291,3035.897)" stroke-width=".59776" stroke-linecap="round" stroke-linejoin="round" fill="none" stroke="#000000" d="M69.64136-62.12921C66.22797-72.40894 32.28067-83.36047-6.1815-86.59015-39.90877-89.42244-66.64868-85.3852-69.64204-77.01088"/>
<path transform="matrix(1,0,0,-1,89.291,3035.897)" stroke-width=".59776" stroke-linecap="round" stroke-linejoin="round" fill="none" stroke="#000000" d="M80.72948 8.62582C80.7295-2.86781 44.58595-16.047 0-20.81094-44.58598-25.57487-80.72945-20.11942-80.72948-8.62576"/>
<path transform="matrix(1,0,0,-1,89.291,3035.897)" stroke-width=".59776" stroke-linecap="round" stroke-linejoin="round" fill="none" stroke="#000000" d="M69.64114 77.01122C73.05449 67.46103 44.64055 55.67444 6.17886 50.68498-18.6985 47.45787-42.87416 47.7716-57.22281 51.50792-66.69763 53.97514-71.09981 57.73918-69.64226 62.12955"/>
<path transform="matrix(1,0,0,-1,89.291,3035.897)" stroke-width=".59776" stroke-linecap="round" stroke-linejoin="round" fill="none" stroke="#000000" d="M38.92184 124.65762C44.83183 119.74779 32.19707 112.6705 10.70123 108.85025-10.7946 105.02998-33.01189 105.9132-38.92188 110.82304-40.84694 112.42287-40.8466 114.3299-38.92053 116.34097"/>
<path transform="matrix(1,0,0,-1,89.291,3035.897)" stroke-width=".59776" stroke-linecap="round" stroke-linejoin="round" fill="none" stroke="#000000" d="M80.73924 8.6278C80.73924 84.59299 44.59161 142.31041 0 137.54534-44.59161 132.78026-80.73924 67.33734-80.73924-8.6278-80.73924-84.59299-44.59161-142.31041 0-137.54534 44.59161-132.78026 80.73924-67.33734 80.73924 8.6278ZM0 0"/>
</g>
<path transform="matrix(1,0,0,-1,89.291,-178.58301)" stroke-width=".3985" stroke-linecap="butt" stroke-miterlimit="10" stroke-linejoin="miter" fill="none" stroke="#000000" d="M0-3571.6912"/>
<g clip-path="url(#clip_69)">
<path transform="matrix(1,0,0,-1,89.291,3393.062)" stroke-width=".59776" stroke-linecap="round" stroke-linejoin="round" fill="none" stroke="#000000" d="M-3.14554 133.3556C7.2794 135.11376 17.13902 76.83374 18.8762 3.184 20.6134-70.46573 13.57059-131.59754 3.14563-133.35567"/>
<path transform="matrix(1,0,0,-1,89.291,3393.062)" stroke-width=".59776" stroke-linecap="round" stroke-linejoin="round" fill="none" stroke="#000000" d="M-20.54932 127.25227C15.87534 146.88306 54.60434 105.82448 65.95319 35.54549 77.30202-34.73349 56.97404-107.62155 20.54938-127.25233"/>
<path transform="matrix(1,0,0,-1,89.291,3393.062)" stroke-width=".59776" stroke-linecap="round" stroke-linejoin="round" fill="none" stroke="#000000" d="M-44.35568-116.47401C-80.16415-81.32628-89.33476-.68515-64.83789 63.64082-40.34102 127.96681 8.54724 151.62187 44.35571 116.47414"/>
<path transform="matrix(1,0,0,-1,89.291,3393.062)" stroke-width=".59776" stroke-linecap="round" stroke-linejoin="round" fill="none" stroke="#000000" d="M-7.82294-133.9735C-30.62305-132.67879-45.60405-71.64476-41.28383 2.34564-36.96361 76.33606-14.97716 135.26848 7.82294 133.97377"/>
<path transform="matrix(1,0,0,-1,89.291,3393.062)" stroke-width=".59776" stroke-linecap="round" stroke-linejoin="round" fill="none" stroke="#000000" d="M38.80673-113.33623C32.54524-119.65523 10.09476-125.24423-11.33815-125.8198-24.57942-126.17543-34.93924-124.51366-38.80658-121.41518"/>
<path transform="matrix(1,0,0,-1,89.291,3393.062)" stroke-width=".59776" stroke-linecap="round" stroke-linejoin="round" fill="none" stroke="#000000" d="M69.71849-60.50905C66.10321-71.06667 31.95808-82.09967-6.54688-85.1522-40.04668-87.80795-66.57278-83.55408-69.71788-75.02403"/>
<path transform="matrix(1,0,0,-1,89.291,3393.062)" stroke-width=".59776" stroke-linecap="round" stroke-linejoin="round" fill="none" stroke="#000000" d="M80.85606 8.41731C80.85583-3.39012 44.65494-16.73091-.00002-21.37953-44.655-26.02817-80.85635-20.22476-80.85612-8.41731"/>
<path transform="matrix(1,0,0,-1,89.291,3393.062)" stroke-width=".59776" stroke-linecap="round" stroke-linejoin="round" fill="none" stroke="#000000" d="M69.7161 75.02412C73.33037 65.2195 45.04602 53.247 6.5425 48.283-18.36188 45.0721-42.63144 45.48917-57.10704 49.3761-66.80832 51.98112-71.28735 55.93257-69.72026 60.50914"/>
<path transform="matrix(1,0,0,-1,89.291,3393.062)" stroke-width=".59776" stroke-linecap="round" stroke-linejoin="round" fill="none" stroke="#000000" d="M38.8054 121.41501C45.0649 116.39972 32.76628 109.18344 11.33438 105.29726-10.0975 101.41107-32.54706 102.32597-38.80655 107.34125-40.9681 109.07312-40.96982 111.15419-38.80792 113.33604"/>
<path transform="matrix(1,0,0,-1,89.291,3393.062)" stroke-width=".59776" stroke-linecap="round" stroke-linejoin="round" fill="none" stroke="#000000" d="M80.86383 8.41934C80.86383 82.31573 44.66043 138.44948 0 133.79955-44.66043 129.14963-80.86383 65.47705-80.86383-8.41934-80.86383-82.31573-44.66043-138.44948 0-133.79955 44.66043-129.14963 80.86383-65.47705 80.86383 8.41934ZM0 0"/>
</g>
<path transform="matrix(1,0,0,-1,89.291,-178.58301)" stroke-width=".3985" stroke-linecap="butt" stroke-miterlimit="10" stroke-linejoin="miter" fill="none" stroke="#000000" d="M0-3928.86"/>
<g clip-path="url(#clip_70)">
<path transform="matrix(1,0,0,-1,89.291,3750.226)" stroke-width=".59776" stroke-linecap="round" stroke-linejoin="round" fill="none" stroke="#000000" d="M-3.4347 129.5997C7.28864 131.4025 17.5195 74.84406 19.41618 3.26758 21.31288-68.30888 14.15814-127.79694 3.43478-129.59973"/>
<path transform="matrix(1,0,0,-1,89.291,3750.226)" stroke-width=".59776" stroke-linecap="round" stroke-linejoin="round" fill="none" stroke="#000000" d="M-22.0181 122.95097C14.38324 143.11083 53.75053 104.40916 65.91011 36.50487 78.06969-31.39941 58.41945-102.79126 22.0181-122.9511"/>
<path transform="matrix(1,0,0,-1,89.291,3750.226)" stroke-width=".59776" stroke-linecap="round" stroke-linejoin="round" fill="none" stroke="#000000" d="M-45.26756-112.38994C-80.72903-77.56953-89.20929 .97589-64.20848 63.04735-39.20767 125.1188 9.80612 147.2104 45.2676 112.39"/>
<path transform="matrix(1,0,0,-1,89.291,3750.226)" stroke-width=".59776" stroke-linecap="round" stroke-linejoin="round" fill="none" stroke="#000000" d="M-8.1606-130.21257C-30.69386-128.80692-45.30652-69.36748-40.79988 2.54713-36.29324 74.46175-14.37265 131.61835 8.1606 130.21269"/>
<path transform="matrix(1,0,0,-1,89.291,3750.226)" stroke-width=".59776" stroke-linecap="round" stroke-linejoin="round" fill="none" stroke="#000000" d="M38.66815-110.40732C32.02084-116.87325 9.31967-122.3873-12.03601-122.7232-24.75096-122.92322-34.71272-121.21683-38.66922-118.16045"/>
<path transform="matrix(1,0,0,-1,89.291,3750.226)" stroke-width=".59776" stroke-linecap="round" stroke-linejoin="round" fill="none" stroke="#000000" d="M69.80061-58.98347C65.96355-69.83705 31.60068-80.92384-6.94925-83.7468-40.19312-86.1811-66.49214-81.67511-69.80106-72.97896"/>
<path transform="matrix(1,0,0,-1,89.291,3750.226)" stroke-width=".59776" stroke-linecap="round" stroke-linejoin="round" fill="none" stroke="#000000" d="M80.9986 8.12077C80.99934-4.02751 44.73422-17.51141-.00003-21.99661-44.73431-26.48183-80.99788-20.26915-80.99863-8.12086"/>
<path transform="matrix(1,0,0,-1,89.291,3750.226)" stroke-width=".59776" stroke-linecap="round" stroke-linejoin="round" fill="none" stroke="#000000" d="M69.79979 72.97925C73.63698 62.89517 45.49481 50.74257 6.9452 45.8356-17.98875 42.66188-42.36223 43.2092-56.97789 47.27118-66.92996 50.0372-71.49211 54.20335-69.80188 58.98376"/>
<path transform="matrix(1,0,0,-1,89.291,3750.226)" stroke-width=".59776" stroke-linecap="round" stroke-linejoin="round" fill="none" stroke="#000000" d="M38.66881 118.16023C45.31467 113.02675 33.39032 105.66655 12.03351 101.72057-9.32327 97.77458-32.02376 98.73695-38.66963 103.87042-41.1078 105.754-41.1073 108.03479-38.66856 110.4071"/>
<path transform="matrix(1,0,0,-1,89.291,3750.226)" stroke-width=".59776" stroke-linecap="round" stroke-linejoin="round" fill="none" stroke="#000000" d="M81.00267 8.1213C81.00267 79.9573 44.7371 134.55425 0 130.06891-44.7371 125.58359-81.00267 63.71466-81.00267-8.1213-81.00267-79.9573-44.7371-134.55425 0-130.06891 44.7371-125.58359 81.00267-63.71466 81.00267 8.1213ZM0 0"/>
</g>
<path transform="matrix(1,0,0,-1,89.291,-178.58301)" stroke-width=".3985" stroke-linecap="butt" stroke-miterlimit="10" stroke-linejoin="miter" fill="none" stroke="#000000" d="M0-4286.0295"/>
<g clip-path="url(#clip_71)">
<path transform="matrix(1,0,0,-1,89.291,4107.391)" stroke-width=".59776" stroke-linecap="round" stroke-linejoin="round" fill="none" stroke="#000000" d="M-3.76056 125.84932C7.27464 127.69934 17.90437 72.85457 19.98122 3.35039 22.05806-66.15378 14.79588-123.99947 3.76065-125.84949"/>
<path transform="matrix(1,0,0,-1,89.291,4107.391)" stroke-width=".59776" stroke-linecap="round" stroke-linejoin="round" fill="none" stroke="#000000" d="M-23.63411 118.61276C12.71289 139.30928 52.76047 102.98369 65.81265 37.47618 78.86485-28.0313 59.98119-97.91634 23.63417-118.61285"/>
<path transform="matrix(1,0,0,-1,89.291,4107.391)" stroke-width=".59776" stroke-linecap="round" stroke-linejoin="round" fill="none" stroke="#000000" d="M-46.20955-108.2734C-81.30011-73.77873-89.05765 2.6619-63.53725 62.45944-38.01686 122.257 11.11902 142.76827 46.20958 108.27359"/>
<path transform="matrix(1,0,0,-1,89.291,4107.391)" stroke-width=".59776" stroke-linecap="round" stroke-linejoin="round" fill="none" stroke="#000000" d="M-8.52-126.46152C-30.76878-124.92464-44.9908-67.05968-40.28531 2.78256-35.57983 72.62482-13.72876 127.99854 8.52 126.46167"/>
<path transform="matrix(1,0,0,-1,89.291,4107.391)" stroke-width=".59776" stroke-linecap="round" stroke-linejoin="round" fill="none" stroke="#000000" d="M38.5011-107.55045C31.42867-114.15955 8.45743-119.56221-12.80643-119.61752-24.9422-119.6491-34.4676-117.89958-38.50305-114.8979"/>
<path transform="matrix(1,0,0,-1,89.291,4107.391)" stroke-width=".59776" stroke-linecap="round" stroke-linejoin="round" fill="none" stroke="#000000" d="M69.8875-57.54584C65.80507-68.70715 31.20569-79.8172-7.39233-82.361-40.3502-84.53331-66.40207-79.74828-69.88791-70.88336"/>
<path transform="matrix(1,0,0,-1,89.291,4107.391)" stroke-width=".59776" stroke-linecap="round" stroke-linejoin="round" fill="none" stroke="#000000" d="M81.14937 7.74348C81.14929-4.764 44.81743-18.37022-.00008-22.6468-44.81761-26.92339-81.14954-20.25093-81.14946-7.74342"/>
<path transform="matrix(1,0,0,-1,89.291,4107.391)" stroke-width=".59776" stroke-linecap="round" stroke-linejoin="round" fill="none" stroke="#000000" d="M69.88719 70.88377C73.96979 60.50177 45.98866 48.17584 7.3913 43.35345-17.57378 40.23405-42.0616 40.93501-56.82976 45.19112-67.06343 48.14015-71.71759 52.54396-69.88821 57.54625"/>
<path transform="matrix(1,0,0,-1,89.291,4107.391)" stroke-width=".59776" stroke-linecap="round" stroke-linejoin="round" fill="none" stroke="#000000" d="M38.50175 114.89777C45.57317 109.63818 34.06778 102.12971 12.80354 98.12718-8.46068 94.12465-31.43147 95.14362-38.50288 100.4032-41.26627 102.4587-41.2661 104.9675-38.5024 107.55031"/>
<path transform="matrix(1,0,0,-1,89.291,4107.391)" stroke-width=".59776" stroke-linecap="round" stroke-linejoin="round" fill="none" stroke="#000000" d="M81.15883 7.74458C81.15883 77.53069 44.82335 130.63457 0 126.3573-44.82335 122.08005-81.15883 62.04152-81.15883-7.74458-81.15883-77.53069-44.82335-130.63457 0-126.3573 44.82335-122.08005 81.15883-62.04152 81.15883 7.74458ZM0 0"/>
</g>
<path transform="matrix(1,0,0,-1,89.291,-178.58301)" stroke-width=".3985" stroke-linecap="butt" stroke-miterlimit="10" stroke-linejoin="miter" fill="none" stroke="#000000" d="M0-4643.198"/>
<g clip-path="url(#clip_72)">
<path transform="matrix(1,0,0,-1,89.291,4464.555)" stroke-width=".59776" stroke-linecap="round" stroke-linejoin="round" fill="none" stroke="#000000" d="M-4.12631 122.1237C7.23877 124.02818 18.29994 70.89607 20.57866 3.45012 22.85736-63.99583 15.49146-120.21935 4.12637-122.12383"/>
<path transform="matrix(1,0,0,-1,89.291,4464.555)" stroke-width=".59776" stroke-linecap="round" stroke-linejoin="round" fill="none" stroke="#000000" d="M-25.40256 114.20927C10.85582 135.49059 51.62369 101.60956 65.65268 38.53453 79.68169-24.54048 61.66095-92.92802 25.40256-114.20934"/>
<path transform="matrix(1,0,0,-1,89.291,4464.555)" stroke-width=".59776" stroke-linecap="round" stroke-linejoin="round" fill="none" stroke="#000000" d="M-47.16528-104.21295C-81.8682-70.10495-88.88408 4.20483-62.8359 61.75932-36.78775 119.31381 12.46243 138.321 47.16534 104.213"/>
<path transform="matrix(1,0,0,-1,89.291,4464.555)" stroke-width=".59776" stroke-linecap="round" stroke-linejoin="round" fill="none" stroke="#000000" d="M-8.8921-122.73058C-30.83455-121.08522-44.6409-64.7997-39.73044 2.98193-34.81998 70.7636-13.05023 124.37602 8.8922 122.73067"/>
<path transform="matrix(1,0,0,-1,89.291,4464.555)" stroke-width=".59776" stroke-linecap="round" stroke-linejoin="round" fill="none" stroke="#000000" d="M38.30351-104.71931C30.76933-111.47273 7.51239-116.75536-13.64229-116.51859-25.1479-116.38986-34.20662-114.61536-38.30396-111.68771"/>
<path transform="matrix(1,0,0,-1,89.291,4464.555)" stroke-width=".59776" stroke-linecap="round" stroke-linejoin="round" fill="none" stroke="#000000" d="M69.98372-56.10472C65.63486-67.58728 30.7755-78.73434-7.87617-81.00285-40.5323-82.9194-66.30995-77.86993-69.98575-68.8372"/>
<path transform="matrix(1,0,0,-1,89.291,4464.555)" stroke-width=".59776" stroke-linecap="round" stroke-linejoin="round" fill="none" stroke="#000000" d="M81.32442 7.39764C81.32483-5.48564 44.91417-19.24162-.00003-23.32736-44.91426-27.41312-81.324-20.28099-81.32442-7.3977"/>
<path transform="matrix(1,0,0,-1,89.291,4464.555)" stroke-width=".59776" stroke-linecap="round" stroke-linejoin="round" fill="none" stroke="#000000" d="M69.98381 68.83746C74.3336 58.14621 46.5264 45.61757 7.87474 40.85391-17.12468 37.77266-41.73697 38.6155-56.67233 43.06377-67.21336 46.20323-71.97087 50.86333-69.98566 56.10498"/>
<path transform="matrix(1,0,0,-1,89.291,4464.555)" stroke-width=".59776" stroke-linecap="round" stroke-linejoin="round" fill="none" stroke="#000000" d="M38.30316 111.68773C45.8368 106.30489 34.79565 98.62956 13.64072 94.54422-7.5142 90.4589-30.77075 91.51045-38.3044 96.89328-41.4458 99.13797-41.44643 101.90314-38.3043 104.71933"/>
<path transform="matrix(1,0,0,-1,89.291,4464.555)" stroke-width=".59776" stroke-linecap="round" stroke-linejoin="round" fill="none" stroke="#000000" d="M81.32622 7.39897C81.32622 75.14665 44.91579 126.75285 0 122.66646-44.91579 118.58006-81.32622 60.34868-81.32622-7.39897-81.32622-75.14665-44.91579-126.75285 0-122.66646 44.91579-118.58006 81.32622-60.34868 81.32622 7.39897ZM0 0"/>
</g>
<path transform="matrix(1,0,0,-1,89.291,-178.58301)" stroke-width=".3985" stroke-linecap="butt" stroke-miterlimit="10" stroke-linejoin="miter" fill="none" stroke="#000000" d="M0-5000.3679"/>
<g clip-path="url(#clip_73)">
<path transform="matrix(1,0,0,-1,89.291,4821.7199)" stroke-width=".59776" stroke-linecap="round" stroke-linejoin="round" fill="none" stroke="#000000" d="M-4.54208 118.41028C7.17183 120.3839 18.7014 68.9698 21.20995 3.57353 23.71849-61.82271 16.25607-116.4367 4.54214-118.41031"/>
<path transform="matrix(1,0,0,-1,89.291,4821.7199)" stroke-width=".59776" stroke-linecap="round" stroke-linejoin="round" fill="none" stroke="#000000" d="M-27.35722 109.70348C8.7571 131.63538 50.28297 100.29924 65.39154 39.71239 80.50012-20.87444 63.4716-87.77156 27.35725-109.70348"/>
<path transform="matrix(1,0,0,-1,89.291,4821.7199)" stroke-width=".59776" stroke-linecap="round" stroke-linejoin="round" fill="none" stroke="#000000" d="M-48.14066-100.19582C-82.42412-66.53004-88.66464 5.62076-62.077 60.95636-35.48935 116.29195 13.85724 133.86173 48.14069 100.19594"/>
<path transform="matrix(1,0,0,-1,89.291,4821.7199)" stroke-width=".59776" stroke-linecap="round" stroke-linejoin="round" fill="none" stroke="#000000" d="M-9.28412-119.01843C-30.89084-117.28012-44.24979-62.58206-39.1227 3.14934-33.9956 68.88077-12.3226 120.75676 9.28412 119.01843"/>
<path transform="matrix(1,0,0,-1,89.291,4821.7199)" stroke-width=".59776" stroke-linecap="round" stroke-linejoin="round" fill="none" stroke="#000000" d="M38.05438-101.91559C30.00867-108.81847 6.44797-113.97073-14.56854-113.42332-25.37505-113.14188-33.91771-111.3628-38.05418-108.53288"/>
<path transform="matrix(1,0,0,-1,89.291,4821.7199)" stroke-width=".59776" stroke-linecap="round" stroke-linejoin="round" fill="none" stroke="#000000" d="M70.072-54.65771C65.42755-66.48433 30.28935-77.68866-8.4105-79.68271-40.72-81.34761-66.19576-76.04343-70.07472-66.84407"/>
<path transform="matrix(1,0,0,-1,89.291,4821.7199)" stroke-width=".59776" stroke-linecap="round" stroke-linejoin="round" fill="none" stroke="#000000" d="M81.49507 7.08598C81.4949-6.19878 45.00812-20.14098-.00006-24.05437-45.00827-27.96777-81.49533-20.37073-81.49516-7.08595"/>
<path transform="matrix(1,0,0,-1,89.291,4821.7199)" stroke-width=".59776" stroke-linecap="round" stroke-linejoin="round" fill="none" stroke="#000000" d="M70.07324 66.8443C74.71893 55.82542 47.11116 43.05315 8.4112 38.31697-16.62039 35.25336-41.36426 36.22585-56.4811 40.86662-67.36621 44.20857-72.23607 49.1498-70.0735 54.65794"/>
<path transform="matrix(1,0,0,-1,89.291,4821.7199)" stroke-width=".59776" stroke-linecap="round" stroke-linejoin="round" fill="none" stroke="#000000" d="M38.05351 108.53275C46.09875 103.02892 35.58345 95.16074 14.56671 90.9587-6.45001 86.75665-30.00945 87.81186-38.05469 93.31567-41.64459 95.77159-41.64536 98.83534-38.05504 101.91545"/>
<path transform="matrix(1,0,0,-1,89.291,4821.7199)" stroke-width=".59776" stroke-linecap="round" stroke-linejoin="round" fill="none" stroke="#000000" d="M81.50311 7.08669C81.50311 72.81003 45.0135 122.91505 0 119.00114-45.0135 115.08722-81.50311 58.63666-81.50311-7.08669-81.50311-72.81003-45.0135-122.91505 0-119.00114 45.0135-115.08722 81.50311-58.63666 81.50311 7.08669ZM0 0"/>
</g>
<path transform="matrix(1,0,0,-1,89.291,-178.58301)" stroke-width=".3985" stroke-linecap="butt" stroke-miterlimit="10" stroke-linejoin="miter" fill="none" stroke="#000000" d="M0-5357.5368"/>
<g clip-path="url(#clip_74)">
<path transform="matrix(1,0,0,-1,89.291,5178.884)" stroke-width=".59776" stroke-linecap="round" stroke-linejoin="round" fill="none" stroke="#000000" d="M-5.01083 114.72578C7.06744 116.76042 19.1026 67.04504 21.86992 3.68448 24.63725-59.67607 17.08913-112.69128 5.01083-114.72594"/>
<path transform="matrix(1,0,0,-1,89.291,5178.884)" stroke-width=".59776" stroke-linecap="round" stroke-linejoin="round" fill="none" stroke="#000000" d="M-29.49925 105.15356C6.4173 127.7276 48.7402 98.94867 65.03233 40.87355 81.32446-17.20155 65.4159-82.57968 29.49934-105.15372"/>
<path transform="matrix(1,0,0,-1,89.291,5178.884)" stroke-width=".59776" stroke-linecap="round" stroke-linejoin="round" fill="none" stroke="#000000" d="M-49.15927-96.15C-82.9998-62.92236-88.42291 7.06401-61.27377 60.16605-34.12463 113.26808 15.31874 129.3778 49.15927 96.15018"/>
<path transform="matrix(1,0,0,-1,89.291,5178.884)" stroke-width=".59776" stroke-linecap="round" stroke-linejoin="round" fill="none" stroke="#000000" d="M-9.69853-115.32928C-30.95107-113.47972-43.83728-60.34421-38.48116 3.35019-33.12503 67.0446-11.55396 117.179 9.69856 115.32944"/>
<path transform="matrix(1,0,0,-1,89.291,5178.884)" stroke-width=".59776" stroke-linecap="round" stroke-linejoin="round" fill="none" stroke="#000000" d="M37.757-99.2093C29.14822-106.24825 5.26413-111.21655-15.58897-110.30655-25.63156-109.86826-33.61346-108.09604-37.75876-105.38414"/>
<path transform="matrix(1,0,0,-1,89.291,5178.884)" stroke-width=".59776" stroke-linecap="round" stroke-linejoin="round" fill="none" stroke="#000000" d="M70.1771-53.32167C65.20692-65.50237 29.75839-76.7223-8.99951-78.38188-40.93445-79.74937-66.08241-74.1657-70.17834-64.79929"/>
<path transform="matrix(1,0,0,-1,89.291,5178.884)" stroke-width=".59776" stroke-linecap="round" stroke-linejoin="round" fill="none" stroke="#000000" d="M81.69914 6.68097C81.69981-7.02641 45.1214-21.1294-.00002-24.81944-45.12146-28.50949-81.69855-20.38843-81.6992-6.68103"/>
<path transform="matrix(1,0,0,-1,89.291,5178.884)" stroke-width=".59776" stroke-linecap="round" stroke-linejoin="round" fill="none" stroke="#000000" d="M70.17653 64.79942C75.14659 53.43173 47.75511 40.42271 8.99765 35.74345-16.07077 32.71675-40.96104 33.8433-56.279 38.6977-67.54916 42.26952-72.54416 47.52524-70.17891 53.32181"/>
<path transform="matrix(1,0,0,-1,89.291,5178.884)" stroke-width=".59776" stroke-linecap="round" stroke-linejoin="round" fill="none" stroke="#000000" d="M37.75815 105.38406C46.36589 99.75299 36.44003 91.68561 15.58693 87.36542-5.26616 83.04523-29.15007 84.10751-37.75781 89.73857-41.87776 92.43387-41.87843 95.84013-37.75761 99.20923"/>
<path transform="matrix(1,0,0,-1,89.291,5178.884)" stroke-width=".59776" stroke-linecap="round" stroke-linejoin="round" fill="none" stroke="#000000" d="M81.70511 6.68182C81.70511 70.3959 45.12506 119.05338 0 115.36307-45.12506 111.67276-81.70511 57.03224-81.70511-6.68182-81.70511-70.3959-45.12506-119.05338 0-115.36307 45.12506-111.67276 81.70511-57.03224 81.70511 6.68182ZM0 0"/>
</g>
<path transform="matrix(1,0,0,-1,89.291,-178.58301)" stroke-width=".3985" stroke-linecap="butt" stroke-miterlimit="10" stroke-linejoin="miter" fill="none" stroke="#000000" d="M0-5714.7058"/>
<g clip-path="url(#clip_75)">
<path transform="matrix(1,0,0,-1,89.291,5536.049)" stroke-width=".59776" stroke-linecap="round" stroke-linejoin="round" fill="none" stroke="#000000" d="M-5.54584 111.07005C6.91634 113.16724 19.50226 65.13939 22.56506 3.79785 25.62787-57.54366 18.00809-108.97293 5.5459-111.07011"/>
<path transform="matrix(1,0,0,-1,89.291,5536.049)" stroke-width=".59776" stroke-linecap="round" stroke-linejoin="round" fill="none" stroke="#000000" d="M-31.86183 100.52689C3.78146 123.75954 46.94157 97.58852 64.53752 42.06879 82.13348-13.45091 67.50516-77.2943 31.86183-100.52695"/>
<path transform="matrix(1,0,0,-1,89.291,5536.049)" stroke-width=".59776" stroke-linecap="round" stroke-linejoin="round" fill="none" stroke="#000000" d="M-50.2099-92.10493C-83.57451-59.33122-88.14275 8.47647-60.41324 59.34354-32.68372 110.2106 16.84537 124.87874 50.20996 92.10503"/>
<path transform="matrix(1,0,0,-1,89.291,5536.049)" stroke-width=".59776" stroke-linecap="round" stroke-linejoin="round" fill="none" stroke="#000000" d="M-10.13695-111.65884C-31.0024-109.69086-43.37888-58.10217-37.78067 3.56445-32.18245 65.23108-10.72849 113.62692 10.13695 111.65894"/>
<path transform="matrix(1,0,0,-1,89.291,5536.049)" stroke-width=".59776" stroke-linecap="round" stroke-linejoin="round" fill="none" stroke="#000000" d="M37.38985-96.59421C28.15477-103.7572 3.92735-108.49138-16.72206-107.16806-25.91562-106.57878-33.27979-104.8334-37.391-102.26797"/>
<path transform="matrix(1,0,0,-1,89.291,5536.049)" stroke-width=".59776" stroke-linecap="round" stroke-linejoin="round" fill="none" stroke="#000000" d="M70.28343-52.07355C64.95192-64.62567 29.16158-75.83632-9.65457-77.11305-41.16888-78.14975-65.95447-72.27295-70.28404-62.73915"/>
<path transform="matrix(1,0,0,-1,89.291,5536.049)" stroke-width=".59776" stroke-linecap="round" stroke-linejoin="round" fill="none" stroke="#000000" d="M81.91705 6.21553C81.91702-7.94307 45.242-22.20334-.00008-25.63612-45.24219-29.06891-81.91718-20.37416-81.91714-6.21553"/>
<path transform="matrix(1,0,0,-1,89.291,5536.049)" stroke-width=".59776" stroke-linecap="round" stroke-linejoin="round" fill="none" stroke="#000000" d="M70.28299 62.73923C75.61539 50.99628 48.46927 37.73624 9.6532 33.12224-15.45349 30.13779-40.50345 31.43327-56.04242 36.51923-67.7453 40.34949-72.8809 45.9594-70.28448 52.07362"/>
<path transform="matrix(1,0,0,-1,89.291,5536.049)" stroke-width=".59776" stroke-linecap="round" stroke-linejoin="round" fill="none" stroke="#000000" d="M37.3906 102.26765C46.62502 96.50563 37.37135 88.2217 16.72055 83.76486-3.93022 79.30804-28.157 80.36575-37.39142 86.12778-42.14883 89.09613-42.14784 92.90375-37.39026 96.5939"/>
<path transform="matrix(1,0,0,-1,89.291,5536.049)" stroke-width=".59776" stroke-linecap="round" stroke-linejoin="round" fill="none" stroke="#000000" d="M81.9283 6.21729C81.9283 67.94023 45.24834 115.1916 0 111.75786-45.24834 108.32411-81.9283 55.50566-81.9283-6.21729-81.9283-67.94023-45.24834-115.1916 0-111.75786 45.24834-108.32411 81.9283-55.50566 81.9283 6.21729ZM0 0"/>
</g>
<path transform="matrix(1,0,0,-1,89.291,-178.58301)" stroke-width=".3985" stroke-linecap="butt" stroke-miterlimit="10" stroke-linejoin="miter" fill="none" stroke="#000000" d="M0-6071.875"/>
<g clip-path="url(#clip_76)">
<path transform="matrix(1,0,0,-1,89.291,5893.213)" stroke-width=".59776" stroke-linecap="round" stroke-linejoin="round" fill="none" stroke="#000000" d="M-6.15822 107.45341C6.70802 109.61232 19.89568 63.25537 23.29654 3.9109 26.6974-55.43355 19.02457-105.29451 6.15831-107.45341"/>
<path transform="matrix(1,0,0,-1,89.291,5893.213)" stroke-width=".59776" stroke-linecap="round" stroke-linejoin="round" fill="none" stroke="#000000" d="M-34.4511 95.84209C.83629 119.72472 44.86662 96.1761 63.89325 43.2438 82.91988-9.68849 69.7385-71.95947 34.4511-95.84212"/>
<path transform="matrix(1,0,0,-1,89.291,5893.213)" stroke-width=".59776" stroke-linecap="round" stroke-linejoin="round" fill="none" stroke="#000000" d="M-51.28658-88.05603C-84.15334-55.75604-87.8361 9.85387-59.51166 58.48503-31.18721 107.11618 18.41983 120.35619 51.2866 88.0562"/>
<path transform="matrix(1,0,0,-1,89.291,5893.213)" stroke-width=".59776" stroke-linecap="round" stroke-linejoin="round" fill="none" stroke="#000000" d="M-10.59363-108.01099C-31.04399-105.91873-42.87888-55.86298-37.02844 3.78996-31.17801 63.44293-9.85666 110.10335 10.59369 108.01108"/>
<path transform="matrix(1,0,0,-1,89.291,5893.213)" stroke-width=".59776" stroke-linecap="round" stroke-linejoin="round" fill="none" stroke="#000000" d="M36.943-94.09329C27.01137-101.35796 2.41902-105.78917-17.98422-103.9907-26.24446-103.26248-32.92378-101.56805-36.94405-99.18062"/>
<path transform="matrix(1,0,0,-1,89.291,5893.213)" stroke-width=".59776" stroke-linecap="round" stroke-linejoin="round" fill="none" stroke="#000000" d="M70.40202-50.94504C64.66856-63.88095 28.50046-75.03899-10.38208-75.86697-41.43411-76.52823-65.82399-70.34058-70.40378-60.64047"/>
<path transform="matrix(1,0,0,-1,89.291,5893.213)" stroke-width=".59776" stroke-linecap="round" stroke-linejoin="round" fill="none" stroke="#000000" d="M82.17563 5.65823C82.17581-8.97984 45.38387-23.37988 0-26.50488-45.3839-29.62988-82.17542-20.2963-82.1756-5.6582"/>
<path transform="matrix(1,0,0,-1,89.291,5893.213)" stroke-width=".59776" stroke-linecap="round" stroke-linejoin="round" fill="none" stroke="#000000" d="M70.40154 60.64067C76.13573 48.49458 49.26245 34.97853 10.38057 30.45181-14.76846 27.52402-39.9982 29.0102-55.78317 34.35034-67.97566 38.47498-73.26854 44.48265-70.40427 50.94524"/>
<path transform="matrix(1,0,0,-1,89.291,5893.213)" stroke-width=".59776" stroke-linecap="round" stroke-linejoin="round" fill="none" stroke="#000000" d="M36.94348 99.18056C46.87471 93.28351 38.3865 84.76724 17.9832 80.15918-2.42009 75.5511-27.01187 76.59563-36.94312 82.49268-42.46783 85.77307-42.4684 90.05206-36.94357 94.09323"/>
<path transform="matrix(1,0,0,-1,89.291,5893.213)" stroke-width=".59776" stroke-linecap="round" stroke-linejoin="round" fill="none" stroke="#000000" d="M82.1809 5.65889C82.1809 65.41173 45.38782 111.31606 0 108.1907-45.38782 105.06537-82.1809 54.09395-82.1809-5.65889-82.1809-65.41173-45.38782-111.31606 0-108.1907 45.38782-105.06537 82.1809-54.09395 82.1809 5.65889ZM0 0"/>
</g>
<path transform="matrix(1,0,0,-1,89.291,-178.58301)" stroke-width=".3985" stroke-linecap="butt" stroke-miterlimit="10" stroke-linejoin="miter" fill="none" stroke="#000000" d="M0-6429.044"/>
<g clip-path="url(#clip_77)">
<path transform="matrix(1,0,0,-1,89.291,6250.378)" stroke-width=".59776" stroke-linecap="round" stroke-linejoin="round" fill="none" stroke="#000000" d="M-6.86084 103.8712C6.43056 106.1109 20.27681 61.42232 24.06601 4.05524 27.85521-53.31183 20.15231-101.63158 6.8609-103.87126"/>
<path transform="matrix(1,0,0,-1,89.291,6250.378)" stroke-width=".59776" stroke-linecap="round" stroke-linejoin="round" fill="none" stroke="#000000" d="M-37.29375 91.01453C-2.47893 115.6018 42.44167 94.78688 63.03773 44.52097 83.6338-5.74493 72.10858-66.4273 37.29378-91.01459"/>
<path transform="matrix(1,0,0,-1,89.291,6250.378)" stroke-width=".59776" stroke-linecap="round" stroke-linejoin="round" fill="none" stroke="#000000" d="M-52.39098-84.0829C-84.71864-52.3265-87.46974 11.0649-58.53572 57.50154-29.60172 103.93819 20.06332 115.83937 52.39098 84.083"/>
<path transform="matrix(1,0,0,-1,89.291,6250.378)" stroke-width=".59776" stroke-linecap="round" stroke-linejoin="round" fill="none" stroke="#000000" d="M-11.06947-104.4061C-31.06204-102.2125-42.31293-53.6903-36.1994 3.9721-30.08588 61.63452-8.92303 106.59982 11.0695 104.40622"/>
<path transform="matrix(1,0,0,-1,89.291,6250.378)" stroke-width=".59776" stroke-linecap="round" stroke-linejoin="round" fill="none" stroke="#000000" d="M36.37595-91.65637C25.66533-99.0095 .69623-103.0981-19.39337-100.78809-26.61357-99.95778-32.5286-98.35915-36.37766-96.19666"/>
<path transform="matrix(1,0,0,-1,89.291,6250.378)" stroke-width=".59776" stroke-linecap="round" stroke-linejoin="round" fill="none" stroke="#000000" d="M70.51651-49.82716C64.33301-63.1719 27.74884-74.29225-11.19672-74.66548-41.72568-74.9583-65.6689-68.48497-70.51675-58.62952"/>
<path transform="matrix(1,0,0,-1,89.291,6250.378)" stroke-width=".59776" stroke-linecap="round" stroke-linejoin="round" fill="none" stroke="#000000" d="M82.44734 5.14589C82.44801-10.00526 45.53445-24.59143-.00005-27.43365-45.53458-30.27588-82.44673-20.29704-82.4474-5.14586"/>
<path transform="matrix(1,0,0,-1,89.291,6250.378)" stroke-width=".59776" stroke-linecap="round" stroke-linejoin="round" fill="none" stroke="#000000" d="M70.51576 58.63002C76.70009 46.05737 50.1407 32.22687 11.1956 27.73837-13.99384 24.83517-39.41554 26.49217-55.47255 32.08339-68.22104 36.52264-73.6926 42.97499-70.5175 49.82767"/>
<path transform="matrix(1,0,0,-1,89.291,6250.378)" stroke-width=".59776" stroke-linecap="round" stroke-linejoin="round" fill="none" stroke="#000000" d="M36.3774 96.19682C47.08699 90.18027 39.48206 81.39746 19.39143 76.58002-.69916 71.76257-25.6679 72.73463-36.37749 78.75117-42.83664 82.38-42.83636 87.22145-36.3762 91.65654"/>
<path transform="matrix(1,0,0,-1,89.291,6250.378)" stroke-width=".59776" stroke-linecap="round" stroke-linejoin="round" fill="none" stroke="#000000" d="M82.45341 5.14589C82.45341 62.9542 45.53835 107.51189 0 104.66986-45.53835 101.82784-82.45341 52.6624-82.45341-5.14589-82.45341-62.9542-45.53835-107.51189 0-104.66986 45.53835-101.82784 82.45341-52.6624 82.45341 5.14589ZM0 0"/>
</g>
<path transform="matrix(1,0,0,-1,89.291,-178.58301)" stroke-width=".3985" stroke-linecap="butt" stroke-miterlimit="10" stroke-linejoin="miter" fill="none" stroke="#000000" d="M0-6786.213"/>
<g clip-path="url(#clip_78)">
<path transform="matrix(1,0,0,-1,89.291,6607.542)" stroke-width=".59776" stroke-linecap="round" stroke-linejoin="round" fill="none" stroke="#000000" d="M-7.66647 100.33105C6.06885 102.65099 20.63615 59.61424 24.8699 4.203 29.10364-51.20822 21.40181-98.01115 7.66647-100.33109"/>
<path transform="matrix(1,0,0,-1,89.291,6607.542)" stroke-width=".59776" stroke-linecap="round" stroke-linejoin="round" fill="none" stroke="#000000" d="M-40.38321 86.09094C-6.1712 111.37082 39.64415 93.31982 61.947 45.7736 84.24986-1.7726 74.59525-60.81111 40.38324-86.091"/>
<path transform="matrix(1,0,0,-1,89.291,6607.542)" stroke-width=".59776" stroke-linecap="round" stroke-linejoin="round" fill="none" stroke="#000000" d="M-53.5167-80.14159C-85.27667-48.96951-87.06398 12.18066-57.50722 56.44124-27.95047 100.70181 21.7567 111.31367 53.5167 80.14162"/>
<path transform="matrix(1,0,0,-1,89.291,6607.542)" stroke-width=".59776" stroke-linecap="round" stroke-linejoin="round" fill="none" stroke="#000000" d="M-11.56067-100.83832C-31.05672-98.55104-41.68556-51.54851-35.30101 4.14238-28.91646 59.83328-7.93536 103.12572 11.56067 100.83844"/>
<path transform="matrix(1,0,0,-1,89.291,6607.542)" stroke-width=".59776" stroke-linecap="round" stroke-linejoin="round" fill="none" stroke="#000000" d="M35.66777-89.34161C24.08395-96.74664-1.2759-100.40749-20.97443-97.51793-27.04103-96.62807-32.10222-95.16943-35.66905-93.28322"/>
<path transform="matrix(1,0,0,-1,89.291,6607.542)" stroke-width=".59776" stroke-linecap="round" stroke-linejoin="round" fill="none" stroke="#000000" d="M70.63736-48.81561C63.95023-62.58273 26.90172-73.62932-12.11043-73.48871-42.0474-73.38083-65.50613-66.61914-70.63783-56.62227"/>
<path transform="matrix(1,0,0,-1,89.291,6607.542)" stroke-width=".59776" stroke-linecap="round" stroke-linejoin="round" fill="none" stroke="#000000" d="M82.75404 4.57321C82.75385-11.12224 45.70306-25.89389-.00008-28.4195-45.70325-30.94511-82.75433-20.26862-82.75414-4.57315"/>
<path transform="matrix(1,0,0,-1,89.291,6607.542)" stroke-width=".59776" stroke-linecap="round" stroke-linejoin="round" fill="none" stroke="#000000" d="M70.63593 56.62248C77.32272 43.59477 51.1182 29.4242 12.10704 24.97198-13.12535 22.09196-38.75887 23.92747-55.1205 29.7852-68.50351 34.57689-74.17667 41.53195-70.63927 48.81583"/>
<path transform="matrix(1,0,0,-1,89.291,6607.542)" stroke-width=".59776" stroke-linecap="round" stroke-linejoin="round" fill="none" stroke="#000000" d="M35.66907 93.28317C47.25168 87.15804 40.67203 78.08551 20.97263 73.01917 1.27322 67.95282-24.08603 68.81099-35.66864 74.93613-43.27919 78.96075-43.27899 84.47585-35.66776 89.34157"/>
<path transform="matrix(1,0,0,-1,89.291,6607.542)" stroke-width=".59776" stroke-linecap="round" stroke-linejoin="round" fill="none" stroke="#000000" d="M82.7618 4.57364C82.7618 60.46632 45.70866 103.7273 0 101.20132-45.70866 98.67535-82.7618 51.31902-82.7618-4.57364-82.7618-60.46632-45.70866-103.7273 0-101.20132 45.70866-98.67535 82.7618-51.31902 82.7618 4.57364ZM0 0"/>
</g>
<path transform="matrix(1,0,0,-1,89.291,-178.58301)" stroke-width=".3985" stroke-linecap="butt" stroke-miterlimit="10" stroke-linejoin="miter" fill="none" stroke="#000000" d="M0-7143.3825"/>
<g clip-path="url(#clip_79)">
<path transform="matrix(1,0,0,-1,89.291,6964.707)" stroke-width=".59776" stroke-linecap="round" stroke-linejoin="round" fill="none" stroke="#000000" d="M-8.60101 96.85461C5.59807 99.25888 20.95964 57.84615 25.70964 4.35483 30.45964-49.13647 22.80014-94.45033 8.60104-96.85461"/>
<path transform="matrix(1,0,0,-1,89.291,6964.707)" stroke-width=".59776" stroke-linecap="round" stroke-linejoin="round" fill="none" stroke="#000000" d="M-43.75162 81.07921C-10.30312 107.02455 36.4014 91.75603 60.56485 46.97786 84.72832 2.19969 77.20018-55.13391 43.75168-81.07924"/>
<path transform="matrix(1,0,0,-1,89.291,6964.707)" stroke-width=".59776" stroke-linecap="round" stroke-linejoin="round" fill="none" stroke="#000000" d="M-54.67741-76.20644C-85.82799-45.6434-86.60115 13.25159-56.40355 55.33897-26.20593 97.42638 23.52684 106.76949 54.67741 76.20647"/>
<path transform="matrix(1,0,0,-1,89.291,6964.707)" stroke-width=".59776" stroke-linecap="round" stroke-linejoin="round" fill="none" stroke="#000000" d="M-12.07054-97.31403C-31.02266-94.93044-40.9822-49.42767-34.31606 4.31683-27.64992 58.06137-6.88152 99.69768 12.07057 97.31409"/>
<path transform="matrix(1,0,0,-1,89.291,6964.707)" stroke-width=".59776" stroke-linecap="round" stroke-linejoin="round" fill="none" stroke="#000000" d="M34.76254-87.1882C26.63287-91.97601 12.49103-95.1736-2.3279-95.57469-15.49788-95.93106-27.5401-94.0302-34.76505-90.45361"/>
<path transform="matrix(1,0,0,-1,89.291,6964.707)" stroke-width=".59776" stroke-linecap="round" stroke-linejoin="round" fill="none" stroke="#000000" d="M70.757-47.95697C63.5006-62.16318 25.9393-73.08018-13.1392-72.34085-42.41127-71.78722-65.32219-64.73424-70.75798-54.60327"/>
<path transform="matrix(1,0,0,-1,89.291,6964.707)" stroke-width=".59776" stroke-linecap="round" stroke-linejoin="round" fill="none" stroke="#000000" d="M83.10403 3.90297C83.1038-12.38179 45.89706-27.33064-.00003-29.48611-45.89716-31.64159-83.1043-20.18767-83.10406-3.90291"/>
<path transform="matrix(1,0,0,-1,89.291,6964.707)" stroke-width=".59776" stroke-linecap="round" stroke-linejoin="round" fill="none" stroke="#000000" d="M70.75684 54.60356C78.01398 41.0792 52.21635 26.54053 13.1384 22.13036-12.13724 19.27777-38.00761 21.30962-54.7097 27.45938-68.82368 32.65605-74.72328 40.19283-70.75815 47.95728"/>
<path transform="matrix(1,0,0,-1,89.291,6964.707)" stroke-width=".59776" stroke-linecap="round" stroke-linejoin="round" fill="none" stroke="#000000" d="M34.76442 90.4535C47.33325 84.23155 41.95816 74.84135 22.75847 69.48012 3.55876 64.11888-22.1952 64.81647-34.76402 71.03842-43.81177 75.51729-43.8106 81.8595-34.76317 87.1881"/>
<path transform="matrix(1,0,0,-1,89.291,6964.707)" stroke-width=".59776" stroke-linecap="round" stroke-linejoin="round" fill="none" stroke="#000000" d="M83.10524 3.90364C83.10524 57.91484 45.89833 99.9506 0 97.79466-45.89833 95.63872-83.10524 50.10754-83.10524-3.90364-83.10524-57.91484-45.89833-99.9506 0-97.79466 45.89833-95.63872 83.10524-50.10754 83.10524 3.90364ZM0 0"/>
</g>
</svg>
